<?xml version="1.0" encoding="utf-8"?>
<!-- Generator: Adobe Illustrator 27.9.0, SVG Export Plug-In . SVG Version: 6.00 Build 0)  -->
<svg version="1.1" id="Capa_1" xmlns="http://www.w3.org/2000/svg" xmlns:xlink="http://www.w3.org/1999/xlink" x="0px" y="0px"
	 viewBox="0 0 16.2 16.2" style="enable-background:new 0 0 16.2 16.2;" xml:space="preserve">
<style type="text/css">
	.st0{fill:#FFFFFF;}
</style>
<rect width="16.2" height="16.2"/>
<g>
	<path class="st0" d="M8.1,7.2L8.1,7.2l0.2,0l0.4-0.7L8.3,0.8v0c0,0,0-0.1,0-0.1c0,0,0,0,0,0.1v0L7.7,6.4L8.1,7.2z"/>
	<path class="st0" d="M13.2,2.8C13.2,2.8,13.1,2.8,13.2,2.8L13.2,2.8L8.9,6.5L8.6,7.3l0,0.1l0.1,0.1l0.7-0.2l3.7-4.3L13.2,2.8
		C13.2,2.9,13.2,2.9,13.2,2.8z"/>
	<path class="st0" d="M15.3,7.9C15.3,7.9,15.2,7.8,15.3,7.9L15.3,7.9L9.7,7.4L8.9,7.8v0.1l0,0.1l0.7,0.4L15.3,7.9L15.3,7.9L15.3,7.9
		z"/>
	<path class="st0" d="M13.2,12.9L9.6,8.7L8.7,8.3l0,0L8.6,8.5l0.2,0.7L13.2,12.9L13.2,12.9L13.2,12.9L13.2,12.9z"/>
	<path class="st0" d="M8.2,8.6L8.2,8.6l-0.1,0L7.7,9.3L8.1,15v0c0,0,0,0.1,0,0.1c0,0,0,0,0-0.1v0l0.4-5.5L8.2,8.6z"/>
	<path class="st0" d="M7.8,8.4L7.8,8.4L7.8,8.4L6.9,8.6l-3.7,4.3l0,0V13h0.1l0,0l4.1-3.6L7.8,8.4z"/>
	<path class="st0" d="M7.5,8V7.8L6.8,7.4L1.2,7.8h0c0,0,0,0,0,0.1c0,0,0,0.1,0,0.1h0l5.5,0.4L7.5,8z"/>
	<path class="st0" d="M7.6,7.4L7.6,7.4l0.1-0.1L7.5,6.6L3.3,2.9l0,0H3.2v0.1l0,0l3.6,4.2L7.6,7.4z"/>
</g>
</svg>
