<svg width="14" height="4" xmlns="http://www.w3.org/2000/svg" xmlns:xlink="http://www.w3.org/1999/xlink"><defs><path d="M8.5 12a1.5 1.5 0 1 1-3.001-.001A1.5 1.5 0 0 1 8.5 12zm5 0a1.5 1.5 0 1 1-3.001-.001A1.5 1.5 0 0 1 13.5 12zm5 0a1.5 1.5 0 1 1-3.001-.001A1.5 1.5 0 0 1 18.5 12z" id="a"/></defs><g fill="none" fill-rule="evenodd"><g transform="translate(-5 -10)"><path d="M0 24h24V0H0z"/><mask id="b" fill="#fff"><use xlink:href="#a"/></mask><use fill="#000" opacity=".33" xlink:href="#a"/><path d="M13.5 12a1.5 1.5 0 1 1-3.001-.001A1.5 1.5 0 0 1 13.5 12" fill="#333" mask="url(#b)"/></g><path d="M-5 14h24v-24H-5z"/></g></svg>
