<?xml version="1.0" encoding="utf-8"?>
<!-- Generator: Adobe Illustrator 27.9.0, SVG Export Plug-In . SVG Version: 6.00 Build 0)  -->
<svg version="1.1" id="Capa_1" xmlns="http://www.w3.org/2000/svg" xmlns:xlink="http://www.w3.org/1999/xlink" x="0px" y="0px"
	 viewBox="0 0 16.2 16.2" style="enable-background:new 0 0 16.2 16.2;" xml:space="preserve">
<style type="text/css">
	.st0{fill:#662EE4;}
	.st1{clip-path:url(#SVGID_00000063592532334068704610000016530302776599539084_);}
	.st2{fill:#FFFFFF;}
</style>
<rect class="st0" width="16.2" height="16.2"/>
<g>
	<g>
		<defs>
			<rect id="SVGID_1_" x="2.8" y="2.8" width="10.7" height="10.7"/>
		</defs>
		<clipPath id="SVGID_00000077319185554841935580000013700282466740716960_">
			<use xlink:href="#SVGID_1_"  style="overflow:visible;"/>
		</clipPath>
		<g style="clip-path:url(#SVGID_00000077319185554841935580000013700282466740716960_);">
			<path class="st2" d="M13.1,8.3L13.1,8.3c-0.1-0.1-0.3-0.1-0.4-0.1c-0.3,0-0.5,0.1-0.6,0.3c-0.2,0.4-0.6,0.6-1.1,0.6
				c-0.7,0-1.3-0.6-1.3-1.2c0-0.7,0.6-1.2,1.3-1.2c0.5,0,0.9,0.2,1.1,0.6l0,0c0.1,0.2,0.4,0.4,0.7,0.4c0.1,0,0.3,0,0.4-0.1l0,0
				c0.4-0.2,0.5-0.7,0.3-1c-0.5-0.8-1.4-1.3-2.4-1.3c-1.2,0-2.2,0.7-2.6,1.7V3.5c0-0.4-0.3-0.7-0.8-0.7S6.8,3.1,6.8,3.5v2
				C6.5,5.3,6,5.2,5.5,5.2C4,5.2,2.8,6.4,2.8,7.9c0,1.5,1.2,2.7,2.8,2.7c1.3,0,2.4-0.8,2.7-2c0.3,1.1,1.4,2,2.7,2
				c1,0,1.8-0.5,2.4-1.2C13.5,9,13.4,8.5,13.1,8.3z M6.8,7.9c0,0.7-0.6,1.2-1.3,1.2c-0.7,0-1.3-0.6-1.3-1.2c0-0.7,0.6-1.2,1.3-1.2
				C6.3,6.6,6.8,7.2,6.8,7.9L6.8,7.9L6.8,7.9z"/>
			<path class="st2" d="M12.8,10.7C12.8,10.7,12.8,10.7,12.8,10.7c-0.3-0.1-0.5-0.1-0.8,0.1c-1,0.7-2.2,1.1-3.4,1.2
				c-0.1,0-0.3,0-0.4,0S8,12,7.8,12c-1.2-0.1-2.4-0.5-3.4-1.2c-0.2-0.2-0.5-0.2-0.7-0.1c0,0,0,0,0,0c-0.1,0-0.2,0.1-0.3,0.2
				c-0.2,0.2-0.2,0.6-0.1,0.8c0,0.1,0.1,0.2,0.2,0.2c1.3,0.9,2.9,1.5,4.5,1.5c0.1,0,0.1,0,0.2,0c0.1,0,0.1,0,0.2,0
				c1.6,0,3.2-0.6,4.5-1.5c0.1-0.1,0.1-0.1,0.2-0.2c0.1-0.2,0.1-0.6-0.1-0.8C13,10.8,12.9,10.8,12.8,10.7L12.8,10.7z"/>
		</g>
	</g>
</g>
</svg>
