<svg xmlns="http://www.w3.org/2000/svg" width="304" height="42"><g fill="#FFF" fill-rule="evenodd"><path fill-rule="nonzero" d="M72.944 10v4.368h-7.896v3.472h5.824v4.172h-5.824v7.728H59.56V10h13.384Zm8.3 0v19.74h-5.489V10h5.488Zm17.009 0v4.368h-7.896v3.472h5.824v4.172h-5.824v7.728h-5.488V10h13.384Zm15.299 16.52h-7l-1.064 3.22H99.72L106.916 10h6.328l7.168 19.74h-5.796l-1.064-3.22Zm-1.372-4.2-2.128-6.384-2.1 6.384h4.228Zm21.387-3.86v2.496h-4.512v1.984h3.328v2.384h-3.328v4.416h-3.136V18.46h7.648Zm8.957 9.44h-4l-.608 1.84h-3.296l4.112-11.28h3.616l4.096 11.28h-3.312l-.608-1.84Zm-.784-2.4-1.216-3.648-1.2 3.648h2.416Zm16.674 4.24h-3.136l-4.176-6.304v6.304h-3.136V18.46h3.136l4.176 6.384V18.46h3.136v11.28Zm10.783-11.28v2.496h-3.008v8.784h-3.136v-8.784h-2.976V18.46h9.12Zm8.796 9.44h-4l-.608 1.84h-3.296l4.112-11.28h3.616l4.096 11.28h-3.312l-.608-1.84Zm-.784-2.4-1.216-3.648-1.2 3.648h2.416Zm10.482 4.352c-1.312 0-2.389-.31-3.232-.928-.843-.63-1.296-1.525-1.36-2.688h3.344c.032.395.149.683.352.864.203.181.464.272.784.272.288 0 .523-.07.704-.208a.73.73 0 0 0 .288-.608c0-.33-.155-.587-.464-.768-.309-.181-.811-.384-1.504-.608a15.022 15.022 0 0 1-1.792-.704 3.644 3.644 0 0 1-1.184-1.008c-.331-.448-.496-1.03-.496-1.744 0-.725.181-1.344.544-1.856.363-.523.864-.917 1.504-1.184.64-.267 1.365-.4 2.176-.4 1.312 0 2.357.31 3.136.928.789.608 1.211 1.467 1.264 2.576h-3.408c-.011-.341-.117-.597-.32-.768-.192-.17-.443-.256-.752-.256a.812.812 0 0 0-.576.208c-.149.139-.224.336-.224.592 0 .213.08.4.24.56.171.15.379.283.624.4.245.107.608.245 1.088.416.715.245 1.301.49 1.76.736.469.235.869.57 1.2 1.008.341.427.512.97.512 1.632 0 .672-.171 1.275-.512 1.808-.331.533-.816.955-1.456 1.264-.629.31-1.376.464-2.24.464Zm16.422-11.392-3.968 7.696v3.584h-3.152v-3.584l-3.968-7.696h3.584l1.984 4.352 1.984-4.352h3.536Zm13.617 11.28-.912-.864c-1.013.693-2.224 1.04-3.632 1.04-.885 0-1.659-.144-2.32-.432-.651-.288-1.157-.693-1.52-1.216-.352-.523-.528-1.125-.528-1.808s.176-1.301.528-1.856c.363-.565.901-1.024 1.616-1.376a3.795 3.795 0 0 1-.576-.976 2.78 2.78 0 0 1-.176-.992c0-.555.144-1.061.432-1.52.288-.459.709-.821 1.264-1.088.565-.277 1.232-.416 2-.416.779 0 1.44.144 1.984.432.544.277.949.65 1.216 1.12.277.459.411.96.4 1.504h-2.896c0-.245-.069-.432-.208-.56a.727.727 0 0 0-.512-.192.807.807 0 0 0-.544.192c-.139.117-.208.283-.208.496 0 .373.267.827.8 1.36l2.64 2.576c.096-.192.197-.421.304-.688l.32-.576h3.104l-.464.896c-.384.917-.805 1.69-1.264 2.32l2.688 2.624h-3.536Zm-4.336-2.336c.565 0 1.067-.123 1.504-.368l-2.224-2.128c-.277.17-.485.368-.624.592a1.29 1.29 0 0 0-.208.688c0 .341.139.63.416.864.277.235.656.352 1.136.352Zm20.566 4.224-1.248-1.872c-.352.064-.71.096-1.072.096a5.906 5.906 0 0 1-2.912-.736 5.672 5.672 0 0 1-2.112-2.064c-.512-.885-.768-1.883-.768-2.992 0-1.11.256-2.101.768-2.976a5.517 5.517 0 0 1 2.112-2.064 5.906 5.906 0 0 1 2.912-.736c1.066 0 2.037.245 2.912.736a5.415 5.415 0 0 1 2.096 2.064c.512.875.768 1.867.768 2.976 0 .928-.187 1.787-.56 2.576a5.55 5.55 0 0 1-1.536 1.952l2.384 3.04h-3.744Zm-4.912-7.568c0 .885.229 1.59.688 2.112.458.512 1.093.768 1.904.768.8 0 1.429-.261 1.888-.784.469-.523.704-1.221.704-2.096 0-.896-.235-1.6-.704-2.112-.459-.523-1.088-.784-1.888-.784-.811 0-1.446.261-1.904.784-.459.512-.688 1.216-.688 2.112Zm13.365-5.6v6.544c0 .608.139 1.077.416 1.408.288.33.72.496 1.296.496.576 0 1.008-.165 1.296-.496.299-.341.448-.81.448-1.408V18.46h3.136v6.544c0 1.035-.219 1.92-.656 2.656a4.242 4.242 0 0 1-1.792 1.648c-.747.363-1.579.544-2.496.544s-1.739-.181-2.464-.544a4.131 4.131 0 0 1-1.696-1.648c-.405-.725-.608-1.61-.608-2.656V18.46h3.12Zm11.955 0v11.28h-3.136V18.46h3.136Zm12.734 11.28h-3.136l-4.176-6.304v6.304h-3.136V18.46h3.136l4.176 6.384V18.46h3.136v11.28Zm5.422-11.28v11.28h-3.136V18.46h3.136Zm5.422 2.512v1.84h3.6v2.384h-3.6v2.032h4.08v2.512h-7.216V18.46h7.216v2.512h-4.08Zm9.266 6.368h3.504v2.4h-6.64V18.46h3.136v8.88Zm12.359.56h-4l-.608 1.84h-3.296l4.112-11.28h3.616l4.096 11.28h-3.312l-.608-1.84Zm-.784-2.4-1.216-3.648-1.2 3.648h2.416ZM17.393 19.242l1.009 3.113h3.278l1.01-3.113-2.649-1.924z"/><path d="m41.975 7.06.044.002-1.636 12.616-2.327-.266 1.29-11.121L20.89 2.45 2.512 8.38l-.003-.002L3.75 19.12l-2.313.266L0 6.942l.062-.008L20.882.095l21.2 6.904-.107.06ZM5.28 29.84l15.6 9.164 15.382-9.226.818-3.39 2.076.566-1.007 4.205-17.394 10.419L3.268 31.096l-.755-4.205 2.14-.376.628 3.326Z"/><path fill-rule="nonzero" d="M29.014 19.837a9 9 0 0 0-.203-1.876l2.118-1.547-2.476-4.293-2.398 1.054a8.95 8.95 0 0 0-3.249-1.876l-.29-2.601h-4.95l-.29 2.601a8.97 8.97 0 0 0-3.25 1.876l-2.398-1.054-2.475 4.293 2.118 1.547a8.997 8.997 0 0 0-.203 1.875c0 .644.074 1.27.203 1.876l-2.118 1.547 2.475 4.294 2.398-1.055a8.95 8.95 0 0 0 3.25 1.876l.29 2.601h4.95l.29-2.6a8.97 8.97 0 0 0 3.249-1.877l2.398 1.055 2.476-4.294-2.118-1.546a9 9 0 0 0 .203-1.876Zm-8.974 5.26a5.26 5.26 0 1 1 0-10.52 5.26 5.26 0 0 1 0 10.52Z"/></g></svg>
