<svg width="148" height="32" xmlns="http://www.w3.org/2000/svg"><g fill="none" fill-rule="evenodd"><path d="M128.69 20.844c6.698 0 11.309-4.027 11.309-8.289 0-7.696-8.886-9.53-10.265-9.53-.836 0 .976-3.025.437-3.025-2.49 0-12.117 5.642-12.117 11.957 0 4.357 3.03 8.887 10.636 8.887z" fill="#007350"/><path d="M136.848 10.764c-6.698 0-11.309 4.026-11.309 8.288 0 7.696 8.886 9.53 10.266 9.53.835 0-.976 3.025-.438 3.025 2.491 0 12.117-5.642 12.117-11.957 0-4.356-3.03-8.886-10.636-8.886z" fill="#FFF"/><rect fill="#000" x="131.323" y="15.206" width="10.547" height="1.709" rx=".854"/><rect fill="#000" x="131.323" y="18.964" width="10.547" height="1.709" rx=".854"/><rect fill="#000" x="131.323" y="22.723" width="10.547" height="1.709" rx=".854"/><path d="M7.705 11.11H2.477v2.778H6.42v2.299H2.477v3.735h5.412v2.299H0V8.81h7.705v2.3zm2.385 11.11V8.813h1.743l7.154 8.735V8.812h2.477V22.22h-1.743l-7.154-8.735v8.735H10.09zm13.3-13.408h9.265v2.298H29.26v11.11h-2.477V11.11H23.39V8.812zm14.567 7.47h-.9v5.939h-2.476V8.81h4.678c1.321 0 2.165.384 2.807.997a3.855 3.855 0 011.137 2.74c0 1.072-.44 2.049-1.137 2.738a3.28 3.28 0 01-1.284.786l4.806 6.149h-3.063l-4.568-5.938zm-.9-2.298h2.055c.716 0 1.028-.153 1.248-.402.22-.25.367-.633.367-1.016 0-.402-.147-.785-.367-1.034-.22-.25-.532-.422-1.248-.422h-2.054v2.874zm17.52-2.874H49.35v2.778h3.944v2.299H49.35v3.735h5.412v2.299h-7.889V8.81h7.706v2.3zm6.293 11.11L55.678 8.813h2.55l3.504 9.156 3.523-9.156h2.55L62.613 22.22H60.87zm8.586 0V8.813h2.476V22.22h-2.476zm4.127-1.819l1.615-1.762c.734.843 1.853 1.475 3.027 1.475 1.1 0 1.871-.709 1.871-1.686 0-1.724-2.385-1.935-4.11-2.988-1.008-.613-1.816-1.533-1.816-3.046 0-2.395 2.11-3.774 4.238-3.774 1.303 0 2.514.326 3.724 1.264L80.848 11.8c-.513-.498-1.376-.881-2.22-.881-.935 0-1.98.421-1.98 1.456 0 2.164 5.925 1.494 5.925 6.015 0 2.375-2.037 4.022-4.348 4.022-1.725 0-3.32-.747-4.642-2.01zm33.179 0l1.614-1.762c.734.843 1.853 1.475 3.027 1.475 1.1 0 1.871-.709 1.871-1.686 0-1.724-2.385-1.935-4.109-2.988-1.009-.613-1.816-1.533-1.816-3.046 0-2.395 2.11-3.774 4.238-3.774 1.302 0 2.513.326 3.724 1.264l-1.284 1.916c-.514-.498-1.376-.881-2.22-.881-.936 0-1.982.421-1.982 1.456 0 2.164 5.926 1.494 5.926 6.015 0 2.375-2.036 4.022-4.348 4.022-1.724 0-3.32-.747-4.641-2.01zM83.673 8.811h9.265v2.3h-3.394v11.11h-2.477V11.11h-3.394v-2.3zm12.31 13.41h-2.587L98.9 8.81h1.743l5.503 13.41h-2.586l-1.211-2.97h-5.155l-1.21 2.97zm3.78-9.233l-1.633 3.965h3.265l-1.633-3.965z" fill="#FFF" fill-rule="nonzero"/><path d="M86.836 30.773l.846-.906c.384.433.97.759 1.586.759.576 0 .98-.365.98-.868 0-.887-1.25-.995-2.153-1.538-.528-.315-.951-.788-.951-1.567 0-1.232 1.105-1.942 2.22-1.942.682 0 1.316.168 1.95.65l-.672.986a1.775 1.775 0 00-1.163-.453c-.49 0-1.038.217-1.038.75 0 1.113 3.104.768 3.104 3.094 0 1.223-1.067 2.07-2.277 2.07-.904 0-1.74-.384-2.432-1.035zm9.85-4.78h-2.738v1.429h2.066v1.183h-2.066v1.922h2.834v1.183H92.65v-6.9h4.036v1.183zm2.163-1.183l2.45 4.13 2.45-4.13h.913v6.9h-1.297v-3.844l-1.614 2.71h-.904l-1.614-2.71v3.844h-1.297v-6.9h.913zm7.937 6.9h-1.355l2.883-6.9h.913l2.883 6.9h-1.355l-.634-1.528h-2.7l-.635 1.528zm1.98-4.751l-.855 2.04h1.71l-.855-2.04zm4.113 4.75v-6.9h.913l3.748 4.496V24.81h1.297v6.9h-.913l-3.748-4.495v4.495h-1.297zm8.082 0h-1.355l2.883-6.9h.912l2.883 6.9h-1.355l-.634-1.527h-2.7l-.634 1.528zm1.98-4.75l-.856 2.04h1.71l-.855-2.04z" fill="#007350" fill-rule="nonzero"/><path d="M58.163 24.898h2.143c1.081 0 1.792.237 2.348.651.837.632 1.354 1.659 1.354 2.804 0 1.145-.517 2.172-1.354 2.804-.556.415-1.267.651-2.348.651h-2.143v-6.91zm4.53 3.455c0-.572-.185-1.105-.497-1.5-.38-.484-.935-.77-1.744-.77h-.974v4.54h.974c.809 0 1.364-.286 1.744-.77.312-.394.497-.927.497-1.5zm6.513-2.27h-2.784v1.431h2.1V28.7h-2.1v1.925h2.882v1.184h-4.2v-6.91h4.102v1.185zm3.75 5.725v-6.91h1.32v5.726h2.88v1.184h-4.2zm5.754 0h-1.37l2.916-6.91h.924l2.917 6.91h-1.371l-.642-1.53h-2.732l-.642 1.53zm2.003-4.758l-.865 2.044h1.73l-.865-2.044z" fill="#FFF" fill-rule="nonzero"/></g></svg>