<svg width="98" height="40" xmlns="http://www.w3.org/2000/svg"><g fill="none" fill-rule="evenodd"><path d="M90.175 0H7.825C2.706.582 0 4 0 9.673v14.109c0 5.673 2.706 9.018 7.825 9.673h26.402v-2.91H8.117C4.535 30.11 2.926 28 2.926 23.782V9.672c0-4.217 1.61-6.327 5.193-6.763h81.764c3.584.436 5.193 2.546 5.193 6.764v14.109c0 4.218-1.61 6.327-5.193 6.763H47.391v2.91h42.784c5.119-.655 7.825-4 7.825-9.673V9.672C98 4 95.294.583 90.175 0z" fill="#007350"/><path fill="#047E5A" d="M37.445 39.782l-8.118-6.255 4.9-3.054z"/><path d="M85.787 24.218l-8.338-10.182v10.182h-2.048v-13.89h1.39l8.41 10.181V10.327h1.975v13.891h-1.39zM67.21 9.31h-1.243l1.243-2.982h2.121l-2.12 2.982zm-5.558 7.927c0 3.055 2.121 5.31 4.973 5.31 2.853 0 4.974-2.255 4.974-5.31 0-3.054-2.121-5.236-4.974-5.236-2.852 0-4.973 2.255-4.973 5.236zm-1.974 0c0-3.815 3.11-6.909 6.947-6.909 3.838 0 6.948 3.094 6.948 6.91 0 4.072-2.998 7.2-6.948 7.2-3.949 0-6.947-3.128-6.947-7.2zm-3.803 6.982v-13.89h1.974v13.89h-1.974zm-4.315 0l-8.41-10.182v10.182h-1.975v-13.89h1.39l8.41 10.181V10.327h1.974v13.891h-1.39zm-15.285 0v-13.89h1.974v13.89h-1.974zm-5.997-6.182h-3.291v6.182h-1.975v-13.89h5.266a4.405 4.405 0 012.925.872 4.062 4.062 0 011.306 2.982 4.062 4.062 0 01-1.306 2.982c-.839.63-1.877.94-2.925.872zm-3.291-1.89h3.217a2.349 2.349 0 001.829-.582 2.1 2.1 0 000-2.764 2.349 2.349 0 00-1.829-.582h-3.217v3.927zm-15.797 1.09c0 3.055 2.194 5.31 4.973 5.31a5.06 5.06 0 003.675-1.572 5.002 5.002 0 001.371-3.738 5.008 5.008 0 00-2.313-4.844 5.07 5.07 0 00-5.393 0 5.008 5.008 0 00-2.313 4.844zm-1.975 0a6.97 6.97 0 013.269-6.635 7.054 7.054 0 017.43 0 6.97 6.97 0 013.27 6.635 6.97 6.97 0 01-3.27 6.636 7.054 7.054 0 01-7.43 0 6.97 6.97 0 01-3.27-6.636z" fill="#FFF" fill-rule="nonzero"/></g></svg>