<svg xmlns="http://www.w3.org/2000/svg" width="136" height="20"><path d="M12.604.222c-.905.018-1.807.342-2.442.71-.324.165-.617.39-.859.66-.22.261-.44.682-.3 1.126.106.248.238.484.394.705.95 1.628 2.062 3.154 3.129 4.612-1.067 1.343-2.064 2.617-3.037 4.029-.73 1.036-1.436 2.106-1.98 3.324-.152.33-.419.912-.395 1.356.04.554.244 1.084.59 1.525.304.41.686.756 1.124 1.023a3.934 3.934 0 0 0 1.6.526c.568.057 1.31.01 1.738-.297.186-.137.362-.399.535-.604.545-.614 1.078-1.24 1.588-1.832 2.133-2.481 4.253-4.953 6.12-7.617.3-.432.65-1.012.5-1.683-.151-.672-.477-1.026-.836-1.436A49.228 49.228 0 0 0 17.87 3.97c-1.124-1.127-2.295-2.3-3.593-3.29A2.21 2.21 0 0 0 13.5.315a3.5 3.5 0 0 0-.896-.094zm8.86 0a3.499 3.499 0 0 0-.897.094 2.21 2.21 0 0 0-.778.363 29.362 29.362 0 0 0-2.677 2.381c.313.296.614.603.916.91.742.74 1.484 1.56 2.203 2.379.36.41.706.832.834 1.436.127.603-.197 1.25-.498 1.683a75.873 75.873 0 0 1-3.455 4.475c.869 1.047 1.761 2.095 2.654 3.142l1.588 1.832c.185.205.36.467.545.604.429.307 1.16.354 1.728.297a3.935 3.935 0 0 0 1.612-.526 3.974 3.974 0 0 0 1.123-1.023c.34-.443.546-.972.591-1.525.024-.444-.255-1.026-.394-1.356-.557-1.218-1.264-2.288-1.983-3.324-.985-1.412-1.982-2.686-3.048-4.03 1.066-1.457 2.192-2.983 3.142-4.61.14-.228.313-.467.383-.706.15-.444-.07-.865-.291-1.127a2.97 2.97 0 0 0-.857-.66c-.635-.367-1.537-.69-2.442-.709zm-14.766.994c-.545 0-1.068.251-1.346.422-.464.273-1.008.899-1.936 2.174C2.49 5.087 1.433 7.296 1.213 8.89c-.22 1.594-.08 2.607.383 4.451.464 1.844 1.508 3.551 1.508 3.551s-.533-1.719-.487-2.709c.047-.99.301-3.12 1.739-5.477 1.449-2.345 2.852-3.893 3.27-4.439.417-.546.844-1.968.056-2.686a1.416 1.416 0 0 0-.984-.365zm20.843 0a1.42 1.42 0 0 0-.986.365c-.788.718-.37 2.128.059 2.686.428.558 1.82 2.094 3.257 4.44.503.806.9 1.668 1.192 2.562a15.162 15.162 0 0 0-1.389-2.822c-1.298-2.038-1.751-2.596-2.598-3.006a3.06 3.06 0 0 0-1.228-.25 2.66 2.66 0 0 0-1.797.66c-1.182 1.036-1.124 2.608-.51 3.416.615.808 2.528 3.018 3.617 5.01 1.09 1.992 1.182 2.549 1.31 2.822.134.275.419.447.73.443.324 0 1.148-.238 1.867-1.365.226-.334.381-.702.492-1.082-.123.844-.38 1.706-.422 1.797-.058.125 1.042-1.718 1.494-3.55.464-1.845.615-2.858.395-4.452-.22-1.594-1.286-3.792-2.213-5.078-.928-1.286-1.462-1.9-1.926-2.174-.278-.17-.799-.422-1.344-.422zm14.57 2.98v11.42h9.12V12.85h-5.803V4.197zm10 0v11.425h3.317V4.197zm23.114 0l-5.113 11.466h3.5l.875-2.022h4.607l.875 2.022h3.547L78.403 4.197zm14.887 0V15.75h3.591V9.072l3.272 3.91h.322l3.27-3.91v6.677h3.732V4.197h-3.363l-3.822 4.392-3.64-4.392zm15.322 0l4.79 5.536-5.112 6.017h4.605l2.856-3.382 2.902 3.382h4.744l-5.297-6.062 4.744-5.49h-4.652l-2.441 3.074-2.579-3.074zm17.842 0a2.101 2.101 0 0 0-1.059.264 1.58 1.58 0 0 0-.783.748 1.866 1.866 0 0 0-.322.965c.009.359.12.71.322 1.012.157.316.414.577.736.746a2.348 2.348 0 0 0 2.166 0c.322-.169.58-.43.737-.746.187-.306.284-.657.277-1.012 0-.34-.096-.672-.277-.965a1.58 1.58 0 0 0-.784-.748 2.056 2.056 0 0 0-1.013-.263zm-59.715.005c-3.685 0-6.45 2.635-6.45 5.93 0 3.47 2.81 5.929 6.542 5.929a8.593 8.593 0 0 0 5.205-1.756V9.121H63.33v2.328h2.395v1.404a3.679 3.679 0 0 1-1.934.484 3.265 3.265 0 0 1-2.36-.902c-.62-.6-.95-1.418-.911-2.26 0-1.757 1.335-3.162 3.086-3.162a4.4 4.4 0 0 1 2.902 1.098l1.934-2.24A7.207 7.207 0 0 0 63.56 4.2zm59.715.304c.966 0 1.752.747 1.752 1.668 0 .457-.182.897-.508 1.23-.336.305-.78.477-1.244.483a1.794 1.794 0 0 1-1.283-.488 1.628 1.628 0 0 1-.512-1.225c.006-.442.186-.865.506-1.185.35-.311.81-.483 1.289-.483zm-.875.616v2.152h.369v-.967h.23a.423.423 0 0 1 .323.13c.092.045.184.22.369.44l.183.352h.461l-.277-.395-.322-.396a.458.458 0 0 0-.23-.176.71.71 0 0 0 .46-.176.553.553 0 0 0 .184-.437.427.427 0 0 0-.092-.309.453.453 0 0 0-.275-.218zM8.987 5.19a3.072 3.072 0 0 0-1.24.25c-.835.41-1.288.98-2.587 3.006-1.298 2.026-1.901 4.201-2.005 5.01-.146.95.074 1.92.615 2.72.707 1.127 1.542 1.365 1.855 1.365a.81.81 0 0 0 .74-.443c.128-.273.221-.83 1.311-2.822 1.09-1.992 3.003-4.202 3.617-5.01.615-.808.673-2.38-.51-3.416a2.66 2.66 0 0 0-1.796-.66zm113.783.193l.414.043c.159-.005.317.025.46.088a.26.26 0 0 1 .14.264.391.391 0 0 1-.14.263h-.874zM76.79 7.931l1.334 3.25h-2.67z" fill="#fff" fill-rule="evenodd"/></svg>