<svg width="388" height="414" xmlns="http://www.w3.org/2000/svg"><g fill="#FFF"><path d="M69.5 278.6l-2.3 2.3 6.3 6.3-1.5 1.4-6.3-6.3-2.3 2.3-1.2-1.2 6-6 1.3 1.2zm9.8-1.6l-3.3-7.3 2.1-2.1 7.5 7.5-1.4 1.4-5.8-5.8 3.6 8.1-1 1-8.1-3.6 5.8 5.8-1.4 1.4-7.5-7.5 2.1-2.1 7.4 3.2zm69.8-120.5l4.7 14.5-12.4-8.9-12.3 8.9 4.7-14.5-12.4-8.9h15.3l4.7-14.6 4.7 14.6h15.3zm-71.1 0l12.3-8.9H75.1L70.3 133l-4.7 14.6H50.4l12.3 8.9L58 171l12.3-8.9 12.4 8.9zm32.6 38.3l-4.7-14.5-4.7 14.5H85.9l12.4 9-4.8 14.5 12.4-8.9 12.3 8.9-4.7-14.5 12.4-9zM64.4 99.7l-14-31.9H50v42.6c0 .7-.4 1.1-1.1 1.1H36.3c-.7 0-1.1-.5-1.1-1.1V37c0-.7.4-1.1 1.1-1.1h13.2c.9 0 1.4.3 1.8 1.1l19.1 43.1h.5L89.6 37c.3-.8.9-1.1 1.8-1.1h13c.7 0 1.1.4 1.1 1.1v73.4c0 .7-.4 1.1-1.1 1.1H91.9c-.7 0-1.1-.5-1.1-1.1V67.8h-.4l-14 31.9c-.4 1-1.1 1.5-2.1 1.5h-7.7c-1.1-.1-1.8-.5-2.2-1.5m52.4 11.8H166c.7 0 1.1-.5 1.1-1.1V98c0-.7-.5-1.1-1.1-1.1h-33.3c-.5 0-.7-.2-.7-.7V37c0-.7-.4-1.1-1.1-1.1h-14.1c-.7 0-1.1.4-1.1 1.1v73.4c0 .6.4 1.1 1.1 1.1M208.2 66l-4-.5c-8.7-1.2-11.8-4-11.8-8.3 0-4.8 3.4-8.2 10.1-8.2 6.2 0 11.8 2 17.6 5.8.6.3 1.1.2 1.6-.3l6.8-10.1c.6-.8.4-1.2-.2-1.7-6.3-4.9-15.7-7.9-25.7-7.9-16.3 0-26.8 9.2-26.8 23.1 0 13.3 8.6 20.6 23.9 22.7l4 .5c9 1.2 11.7 4 11.7 8.5 0 5.3-4.4 9-12.3 9-8 0-14.8-3.8-19.8-7.8-.6-.4-1.2-.4-1.7.1l-8.4 9.7c-.6.7-.3 1.4.1 1.9 5.9 5.7 17.3 10.3 29.1 10.3 19.6 0 29.7-10.1 29.7-23.8 0-13.7-8.4-20.9-23.9-23"/><path d="M387.6 9.6V.9H.4v155.8c0 29.6 4.8 58.8 14.3 86.6 9.2 26.9 22.6 52 39.8 74.8.5.7 1.1 1.4 1.7 2.2L5.4 371l12.3 12.3 49.6-49.6c14.1 16 30.1 30.3 47.7 42.6 23.5 16.4 49.2 28.8 76.5 36.9l2.5.7 2.5-.7c27.3-8.1 53-20.6 76.5-36.9 23.1-16.1 43.5-35.7 60.5-58.2 17.2-22.7 30.6-47.9 39.8-74.8 9.5-27.8 14.3-56.9 14.3-86.6V9.6zm-319.2 298c-16.1-21.3-28.6-44.8-37.2-69.9-8.9-26-13.4-53.2-13.4-81V18.3h340.3L68.6 307.8c-.1 0-.2-.1-.2-.2zm288.4-69.9c-8.6 25.1-21.1 48.7-37.2 69.9-15.9 21-35 39.4-56.6 54.4-21.2 14.8-44.4 26.1-69 33.8-24.6-7.6-47.8-19-69-33.8-16.8-11.7-32-25.3-45.4-40.7L370.2 30.8v126c0 27.7-4.5 54.9-13.4 80.9z"/></g></svg>