<svg width="132" height="20" viewBox="0 0 132 20" fill="none" xmlns="http://www.w3.org/2000/svg"><path d="M80.5768 5.13834C80.5768 2.43338 78.6714 0.793021 75.2682 0.793021C73.3848 0.793021 72.0081 1.1841 71.16 1.58604C70.6754 2.25957 70.4552 3.03086 70.1578 4.24755C71.4354 3.7587 72.6799 3.35676 74.5633 3.35676C76.0612 3.35676 77.2617 3.98683 77.2617 5.72496C77.2617 7.60431 76.0832 8.96223 69.6512 12.634C69.6512 13.0251 69.6732 13.8181 69.8494 14.8067H80.4667C80.7641 13.9159 80.9623 13.1229 81.0724 12.2429H72.0411C76.5568 10.7221 80.5768 9.13604 80.5768 5.12748V5.13834ZM107.616 5.13834C107.616 2.43338 105.71 0.793021 102.307 0.793021C100.424 0.793021 99.0469 1.1841 98.1989 1.58604C97.7143 2.25957 97.494 3.03086 97.1966 4.24755C98.4742 3.7587 99.7188 3.35676 101.602 3.35676C103.1 3.35676 104.3 3.98683 104.3 5.72496C104.3 7.60431 103.122 8.96223 96.69 12.634C96.69 13.0251 96.712 13.8181 96.8882 14.8067H107.506C107.803 13.9159 108.001 13.1229 108.111 12.2429H99.08C103.596 10.7221 107.616 9.13604 107.616 5.12748V5.13834ZM89.2337 6.18122C88.5288 6.67007 87.934 7.24582 87.4054 7.90849C87.934 8.57115 88.5398 9.13604 89.2337 9.63575C89.9385 9.1469 90.5333 8.57115 91.0619 7.90849C90.5333 7.25669 89.9275 6.68093 89.2337 6.18122ZM89.1896 0.793021C85.1806 0.793021 82.1848 3.16122 82.1848 7.01769C82.1848 12.0583 87.086 15.0131 89.1896 15.0131C91.2932 15.0131 96.1944 12.0474 96.1944 7.01769C96.1944 3.16122 93.1876 0.793021 89.1896 0.793021ZM89.1896 13.829C88.2865 13.829 85.489 12.0365 85.489 7.21323C85.489 4.84503 86.8877 3.35676 89.1896 3.35676C91.4915 3.35676 92.8902 4.83417 92.8902 7.21323C92.8902 12.0365 90.0817 13.829 89.1896 13.829ZM14.2188 15.0131L8.94319 12.2429C11.9279 11.1783 14.1197 9.06 14.1197 6.07259C14.1197 2.03144 11.0578 0 7.10389 0C3.48035 0 0 2.29216 0 6.71352C0 10.4505 2.88561 12.6775 6.04657 14.3178L16.2233 19.5539C16.2233 17.2401 15.948 15.9147 14.2188 15.0131ZM8.0731 11.7867L7.90789 11.6998C5.98048 10.6895 3.40326 9.1469 3.40326 6.34417C3.40326 3.78043 5.08837 2.5746 7.10389 2.5746C9.3507 2.5746 10.7054 4.13892 10.7054 6.86561C10.7054 8.74496 9.65909 10.3962 8.06209 11.7867H8.0731ZM120.028 5.13834C120.028 2.43338 118.123 0.793021 114.72 0.793021C112.836 0.793021 111.459 1.1841 110.611 1.58604C110.127 2.25957 109.907 3.03086 109.609 4.24755C110.887 3.7587 112.131 3.35676 114.015 3.35676C115.513 3.35676 116.713 3.98683 116.713 5.72496C116.713 7.60431 115.535 8.96223 109.103 12.634C109.103 13.0251 109.125 13.8181 109.301 14.8067H119.918C120.215 13.9159 120.414 13.1229 120.524 12.2429H111.493C116.008 10.7221 120.028 9.13604 120.028 5.12748V5.13834ZM15.6175 10.1681C15.6175 13.4488 16.818 15.0022 18.4261 15.0022C20.3865 15.0022 21.9615 13.2858 23.4373 9.63575V14.8067H26.6423V3.95424C25.1995 3.83475 23.8779 3.7587 22.4351 3.7587C18.4701 3.7587 15.6286 5.37734 15.6286 10.1789L15.6175 10.1681ZM20.1222 12.2429C19.2851 12.2429 18.9217 11.1349 18.9217 8.09316C18.9217 6.51798 19.7037 6.11604 21.9284 6.11604C22.5122 6.11604 22.9747 6.11604 23.4263 6.1269C22.7214 8.27784 21.7632 12.2429 20.1222 12.2429ZM64.2544 8.96223V7.89762C64.2544 6.51798 64.1553 5.33388 63.957 3.94338H60.8511C60.9503 5.32302 61.0494 6.50712 61.0494 7.89762V14.8067H64.2544C64.2544 10.9393 65.521 6.52885 68.8582 7.00683C68.8582 6.31158 68.759 4.7364 68.5608 3.74784C66.1157 3.95424 64.9262 6.07259 64.2544 8.96223ZM47.4364 10.1681C47.4364 10.9719 47.5135 11.6563 47.6566 12.2429H35.9049C34.341 12.2429 33.3387 11.8845 33.3387 10.4614V6.50712H37.0393C37.3367 5.61633 37.535 4.81244 37.6451 3.94338H33.3387C33.3497 2.72669 33.4489 1.64036 33.537 0.391079C32.1382 0.879928 31.0368 1.45568 30.1337 2.44424V3.94338H28.2283C28.0631 5.00798 28.0631 5.82273 28.0301 6.50712H30.1337V10.6569C30.1337 13.5574 31.9179 14.8067 34.363 14.8067H50.344C52.3044 14.8067 53.8023 13.2206 55.2451 9.64661V14.8067H58.4501V3.95424C57.0073 3.83475 55.6857 3.7587 54.2429 3.7587C50.2779 3.7587 47.4364 5.37734 47.4364 10.1789V10.1681ZM51.941 12.2429C51.1039 12.2429 50.7405 11.1349 50.7405 8.09316C50.7405 6.51798 51.5225 6.11604 53.7472 6.11604C54.331 6.11604 54.7936 6.11604 55.2451 6.1269C54.5402 8.27784 53.582 12.2429 51.941 12.2429Z" fill="white"/><path d="M123.597 1.56426H122.154V0.792969H125.899V1.56426H124.456V5.40987H123.597V1.56426ZM126.89 0.792969H128.223L129.456 3.9216L130.668 0.792969H132.001V5.42074H131.142V1.8793H131.12L129.798 5.40987H129.104L127.782 1.8793H127.76V5.40987H126.901V0.792969H126.89Z" fill="white"/></svg>
