<svg width="161" height="24" xmlns="http://www.w3.org/2000/svg"><path d="M53.658 6.414h-.336V3.615h12.15v.01-.01c4.416.06 7.971 3.637 7.971 8.055 0 4.418-3.565 8.006-7.971 8.055v-.01.01h-8.377V10.188l2.693 2.689v4.17h6.03c2.971 0 5.288-2.352 5.288-5.316 0-2.807-1.98-5.308-5.287-5.308l-12.161-.01 2.735 2.742v11.417h9.26c4.895-.05 8.842-4.044 8.842-8.96 0-4.915-3.947-8.91-8.841-8.959H53.657V0h12.094c6.067 0 11.371 3.946 11.381 11.808 0 7.334-5.363 11.534-11.38 11.534H53.656V6.413zM103.4 7.875h4.13l3.241 4.558 3.356-4.558h22.275c3.996.109 5.994 1.915 5.994 5.42 0 0 .134 3.463-2.729 4.86l2.22 3.456 6.203-13.736h3.693l6.84 15.427h-3.774l-1.396-2.882h-7.22l-1.108 2.882h-6.363l-2.741-4.322h-3.267v4.322h-3.788V10.943h-4.354v12.359h-3.612V10.943h-4.671l-3.003 4.205 5.7 8.154h-4.539l-3.716-4.865-3.735 4.865h-4.072l5.545-7.714-5.109-7.713zm46.496 3.847l-2.33 5.67h4.646l-2.316-5.67zm-17.315-.861v4.976h3.933c1.633-.194 2.45-1.126 2.45-2.796 0 0-.171-2.18-2.45-2.18h-3.933zm25.661-4.719c1.128 0 2.043.892 2.043 1.99 0 1.1-.915 1.991-2.043 1.991-1.127 0-2.042-.891-2.042-1.99s.915-1.99 2.042-1.99zm0 3.588c.904 0 1.638-.716 1.638-1.597s-.734-1.586-1.638-1.586c-.904 0-1.638.715-1.638 1.586 0 .881.734 1.597 1.638 1.597zm-.276-1.431v.923h-.511V7.044h.798c.276 0 .436.063.564.166.138.114.223.29.223.488a.555.555 0 01-.287.497c-.043.031-.085.042-.138.062l.67.954h-.553l-.628-.923h-.138v.01zm.297-.405c.117 0 .17-.02.213-.072.032-.031.043-.073.043-.124 0-.052-.01-.094-.043-.125a.27.27 0 00-.213-.083h-.297v.394h.297v.01zM0 0h24.146v2.63H0V0zm0 6.247v-2.63h24.146v2.63H0zm12.408 3.945l3.018 2.684v10.466h-3.018v-13.15zm-.67 13.091v.06H8.719V6.246l3.019 2.72v14.316zM47.575 0h2.729v12.522c0 6.128-3.95 11.478-11.87 11.478-7.36 0-11.605-5.39-11.605-11.478V0h2.718v12.552c.05 4.936 4.069 8.916 9.014 8.916 4.945 0 8.965-3.98 9.014-8.916V0zM30.518 0h2.735v12.707c0 2.95 2.35 5.235 5.323 5.235 2.805 0 5.293-1.96 5.293-5.235V0h2.746v12.49h-.01.01c-.06 4.374-3.635 7.894-8.049 7.894s-8-3.53-8.048-7.893h.01-.01V0zm68.706 0h2.725v23.342h-5.706L86.23 10.536v12.806h-2.725V3.6h.541l13.28 16.935h1.899V0zm-1.3 19.547h-.423L84.231 2.622h-2.026v20.72H79.48V0h6.07l9.65 12.336V0h2.724v19.547z" fill="#FFF" fill-rule="evenodd"/></svg>