<?xml version="1.0" encoding="UTF-8"?><svg width="88" height="32" xmlns="http://www.w3.org/2000/svg" xmlns:xlink="http://www.w3.org/1999/xlink"><defs><linearGradient x1="46.9007%" y1="49.9026%" x2="50.9912%" y2="49.5486%" id="a"><stop stop-color="#BD7B2A" offset="0%"/><stop stop-color="#C6862F" offset="21%"/><stop stop-color="#DEA33C" offset="58%"/><stop stop-color="#FFCB4F" offset="100%"/></linearGradient><linearGradient x1="50.9824%" y1="50.0593%" x2="40.3237%" y2="49.4549%" id="b"><stop stop-color="#BD7B2A" offset="0%"/><stop stop-color="#C6862F" offset="21%"/><stop stop-color="#DEA33C" offset="58%"/><stop stop-color="#FFCB4F" offset="100%"/></linearGradient><linearGradient x1="42.8702%" y1="43.3712%" x2="46.2824%" y2="46.5458%" id="c"><stop stop-color="#BD7B2A" offset="0%"/><stop stop-color="#C6862F" offset="21%"/><stop stop-color="#DEA33C" offset="58%"/><stop stop-color="#FFCB4F" offset="100%"/></linearGradient><linearGradient x1="50.007%" y1="123.775%" x2="50.007%" y2="-1.0676%" id="d"><stop stop-color="#BD7B2A" offset="0%"/><stop stop-color="#C6862F" offset="21%"/><stop stop-color="#DEA33C" offset="58%"/><stop stop-color="#FFCB4F" offset="100%"/></linearGradient><linearGradient x1="50.0379%" y1="123.775%" x2="50.0379%" y2="-1.0676%" id="e"><stop stop-color="#BD7B2A" offset="0%"/><stop stop-color="#C6862F" offset="21%"/><stop stop-color="#DEA33C" offset="58%"/><stop stop-color="#FFCB4F" offset="100%"/></linearGradient><linearGradient x1="50.0086%" y1="125.6627%" x2="50.0086%" y2="-2.9317%" id="f"><stop stop-color="#BD7B2A" offset="0%"/><stop stop-color="#C6862F" offset="21%"/><stop stop-color="#DEA33C" offset="58%"/><stop stop-color="#FFCB4F" offset="100%"/></linearGradient><linearGradient x1="50.0261%" y1="135.9519%" x2="50.0261%" y2="-43.3667%" id="g"><stop stop-color="#BD7B2A" offset="0%"/><stop stop-color="#C6862F" offset="21%"/><stop stop-color="#DEA33C" offset="58%"/><stop stop-color="#FFCB4F" offset="100%"/></linearGradient><linearGradient x1="49.2805%" y1="123.1373%" x2="50.9497%" y2="9.8344%" id="h"><stop stop-color="#BD7B2A" offset="0%"/><stop stop-color="#C6862F" offset="21%"/><stop stop-color="#DEA33C" offset="58%"/><stop stop-color="#FFCB4F" offset="100%"/></linearGradient><linearGradient x1="48.4465%" y1="126.9189%" x2="50.1373%" y2="13.5597%" id="i"><stop stop-color="#BD7B2A" offset="0%"/><stop stop-color="#C6862F" offset="21%"/><stop stop-color="#DEA33C" offset="58%"/><stop stop-color="#FFCB4F" offset="100%"/></linearGradient><linearGradient x1="48.7195%" y1="120.01%" x2="50.6847%" y2="14.1906%" id="j"><stop stop-color="#BD7B2A" offset="0%"/><stop stop-color="#C6862F" offset="21%"/><stop stop-color="#DEA33C" offset="58%"/><stop stop-color="#FFCB4F" offset="100%"/></linearGradient><linearGradient x1="49.5265%" y1="123.8006%" x2="51.532%" y2="16.8352%" id="k"><stop stop-color="#BD7B2A" offset="0%"/><stop stop-color="#C6862F" offset="21%"/><stop stop-color="#DEA33C" offset="58%"/><stop stop-color="#FFCB4F" offset="100%"/></linearGradient></defs><g fill-rule="nonzero" fill="none"><path fill="url(#a)" d="M41.0743 0h13.1534l-6.576 32z"/><path fill="url(#b)" d="M40.2637 7.2062l1.5405.4263-.5924-2.6981-5.1488-1.3639 9.9263 25.0729z"/><path fill="url(#c)" d="M55.0766 7.2062l-1.5377.4249.5896-2.6967 5.1474-1.3639-9.9249 25.0729z"/><path d="M65.0228 12.5952c-1.4541-.8314-3.3461-.9022-4.9065-.3357-1.3379.4858-2.2888 1.381-2.7664 2.7193a5.7184 5.7184 0 00.1842 4.45 4.1079 4.1079 0 001.3265 1.6175 5.08 5.08 0 002.5128.949c1.1508.1231 2.2676.024 3.3348-.4675a4.3014 4.3014 0 002.1329-2.0904c.5541-1.1529.6533-2.3695.4252-3.6088-.258-1.4078-.9808-2.514-2.2435-3.2334m-2.853 7.2232c-1.291 0-2.3823-1.007-2.3809-2.735 0-1.9388 1.0899-2.7334 2.381-2.7334 1.291 0 2.3838.9744 2.3838 2.7335 0 1.8553-1.0927 2.7349-2.3838 2.7349" fill="url(#d)"/><path d="M87.8927 15.8286c-.258-1.4078-.9807-2.514-2.242-3.2334-1.4555-.8314-3.3476-.9022-4.908-.3357-1.3378.4858-2.2888 1.381-2.765 2.7193a5.717 5.717 0 00.1829 4.45 4.0937 4.0937 0 001.328 1.6175 5.0757 5.0757 0 002.5113.949c1.1522.1231 2.2675.024 3.3347-.4675a4.3014 4.3014 0 002.1259-2.0904c.5541-1.1529.6533-2.3695.4251-3.6088m-5.102 3.9883c-1.2897 0-2.381-1.007-2.3796-2.7348 0-1.939 1.0899-2.7335 2.3796-2.7335 1.2897 0 2.3923.9744 2.3923 2.7335 0 1.8553-1.0941 2.7348-2.3852 2.7348" fill="url(#e)"/><path d="M74.9463 18.0933l.2055-.1034a2.628 2.628 0 001.2897-1.3993 3.5386 3.5386 0 00.2182-1.6132c-.0794-.9503-.496-1.6995-1.3152-2.215a4.5927 4.5927 0 00-2.4008-.6728c-1.3988-.0213-2.799-.0128-4.1993-.017-.041 0-.0836 0-.1247.007v2.3171s3.5431-.034 3.9513 0c.8503.0624 1.345.6558 1.2755 1.507-.0567.7081-.435 1.1245-1.1423 1.2024-.3387.0369-.6817.0312-1.0218.0454h-.1644c.017.0453.0255.0665.0354.0878.7691 1.5305 1.5387 3.0615 2.3087 4.593a.1573.1573 0 00.1686.0935h2.8246c-.659-1.2846-1.3039-2.5422-1.9459-3.7914.0213-.0227.027-.0326.0355-.0369" fill="url(#f)"/><path d="M68.6197 21.916h2.7112v-7.0675s-2.2605.558-2.7112.7181v6.3493z" fill="url(#g)"/><path d="M6.9445 9.9141c-1.362 0-2.466-1.1033-2.466-2.4643 0-1.361 1.104-2.4644 2.466-2.4644a2.479 2.479 0 012.1258 1.2095l.0184.0283-.6788.425-.017-.0326a1.6059 1.6059 0 00-1.4484-.8753c-.9245.0266-1.66.7832-1.66 1.7073 0 .9242.7355 1.6808 1.66 1.7074a1.6157 1.6157 0 001.5022-.9518l.0156-.0325.693.3696-.0155.0312A2.4378 2.4378 0 016.9445 9.914zM11.104 9.9141a1.7205 1.7205 0 01-1.5879-1.0643 1.7186 1.7186 0 01.3767-1.8734 1.7214 1.7214 0 011.876-.3687 1.7194 1.7194 0 011.0586 1.5913c-.0047.948-.7747 1.7144-1.7234 1.7151zm0-2.7207c-.5327.0283-.95.4682-.95 1.0013 0 .5331.4173.973.95 1.0014.5534 0 1.002-.4483 1.002-1.0014 0-.553-.4486-1.0013-1.002-1.0013zM15.5258 9.8532v-1.868c0-.5369-.2664-.8329-.7511-.8329-.4847 0-.7894.3541-.7894.8838v1.8171H13.22V6.5447h.7582v.357a1.249 1.249 0 01.9651-.425c.8348 0 1.3535.5538 1.3535 1.4475v1.9262l-.771.0028zM18.4127 9.9141a1.7207 1.7207 0 01-1.49-.8597 1.7184 1.7184 0 010-1.7194 1.7207 1.7207 0 011.49-.8597 1.6667 1.6667 0 011.5703 1.017l.0142.0311-.6874.2932-.0141-.0312a.9297.9297 0 00-.8844-.5877c-.555.0035-1.002.456-.9984 1.0105.0035.5546.4562 1.0013 1.0112.9978a.941.941 0 00.8843-.6133l.0128-.0326.6958.2932-.0141.0326a1.6696 1.6696 0 01-1.5902 1.0282zM21.8949 9.9141a1.67 1.67 0 01-1.1888-.512 1.6678 1.6678 0 01-.4651-1.2074 1.6522 1.6522 0 01.4621-1.214 1.6544 1.6544 0 011.1974-.5054 1.4574 1.4574 0 011.0431.425v-.3556h.7653v3.3085h-.7653v-.3866a1.4177 1.4177 0 01-1.0487.4475zm.0963-2.7405a1.019 1.019 0 00-.9608.6106c-.166.38-.0848.8227.2053 1.1192.29.2966.7311.3877 1.115.2304a1.0183 1.0183 0 00.6326-.9461.991.991 0 00-.284-.713.9924.9924 0 00-.708-.2969v-.0042zM25.832 9.9141a1.7207 1.7207 0 01-1.49-.8597 1.7184 1.7184 0 010-1.7194 1.7207 1.7207 0 011.49-.8597 1.6696 1.6696 0 011.5717 1.0127l.0141.0312-.6887.2931-.0142-.0311a.9297.9297 0 00-.883-.5878c-.556.0035-1.004.457-1.0005 1.0127.0035.5557.4572 1.0034 1.0133.9999a.9382.9382 0 00.883-.6133l.0141-.0326.6959.2932-.0142.0326a1.671 1.671 0 01-1.5915 1.0282zM29.3127 9.9141a1.67 1.67 0 01-1.1879-.5126 1.6678 1.6678 0 01-.4646-1.2068 1.6508 1.6508 0 01.4612-1.214 1.653 1.653 0 011.197-.5054 1.463 1.463 0 011.0445.425v-.3556h.7653v3.3085h-.7653v-.3866a1.4177 1.4177 0 01-1.0502.4475zm.0978-2.7405a1.019 1.019 0 00-.9608.6106c-.166.38-.0849.8227.2052 1.1192.2901.2966.7311.3877 1.115.2304a1.0183 1.0183 0 00.6326-.9461.991.991 0 00-.284-.713.9924.9924 0 00-.708-.2969v-.0042zM32.0395 9.8532V7.236h-.5457v-.6912h.5457v-.1416c0-1.0268.3316-1.3554 1.3662-1.3554h.0935v.7082h-.0354c-.6052 0-.6534.0977-.6534.6515v.1274h.6888v.6912h-.6888v2.6272h-.771z" fill="#FFF"/><path d="M5.0312 14.3288c.4918-.0595 1.1083-.0553 1.6057-.0638h1.3606v-2.259h-.9808c-.7908.0184-1.5844 0-2.371.0737A5.491 5.491 0 001.61 13.2764a4.134 4.134 0 00-1.3832 2.0891 5.7763 5.7763 0 000 3.205A4.1241 4.1241 0 001.61 20.6583a5.481 5.481 0 003.0357 1.1968c.7866.0708 1.5802.0552 2.371.0737h.9808v-2.2548H6.6369c-.4974-.0085-1.114 0-1.6057-.0623-.7625-.092-1.4173-.4136-1.8424-1.0863a3.3026 3.3026 0 01-.4139-1.446v-.214a3.3026 3.3026 0 01.4139-1.4474c.4294-.677 1.08-.9985 1.8424-1.0891z" fill="url(#h)"/><path d="M28.4524 14.8146a3.1021 3.1021 0 00-1.831-2.2916 5.6395 5.6395 0 00-2.2846-.5014c-1.2415-.0227-3.2412-.01-3.8535-.01v2.3044h3.3801c.2416.0007.483.0158.7228.0453.5456.0751.941.456 1.07 1.0963a2.2406 2.2406 0 010 .8795 1.371 1.371 0 01-.6165.9206c-.197.1416-.5385.2082-1.1734.2082h-.6548v-2.6344a231.2658 231.2658 0 01-2.7395.728v6.3663h2.748v-2.4077c.4493-.017.8858-.0212 1.3194-.0524a5.3044 5.3044 0 002.442-.728 3.1338 3.1338 0 001.1564-1.1798c.4734-.8767.513-1.7973.3146-2.7433z" fill="url(#i)"/><path d="M16.8368 12.5952c-1.4555-.8314-3.3476-.9022-4.908-.3357-1.3378.4872-2.2916 1.381-2.765 2.7193a5.717 5.717 0 00.19 4.45 4.1079 4.1079 0 001.3265 1.6175 5.08 5.08 0 002.5.949c1.1522.1231 2.2676.024 3.3347-.4675a4.3014 4.3014 0 002.133-2.0904c.5541-1.1529.6533-2.3695.4252-3.6088-.2523-1.4078-.9751-2.5153-2.2364-3.2334m-2.8544 7.2232c-1.2896 0-2.3823-1.007-2.3795-2.735 0-1.9388 1.0899-2.7334 2.3795-2.7334 1.2897 0 2.3838.9744 2.3838 2.7335 0 1.8553-1.0927 2.7349-2.3838 2.7349" fill="url(#j)"/><path d="M35.0638 12.0726c-.5088 0-3.6408.0212-3.8548 0-.8986 2.8029-1.8425 5.746-2.741 8.5488-.1417.4249-.275.8583-.4124 1.2874.0198.0071.0283.0142.0368.0142h2.7325c.0822-.2295.496-1.524.6179-1.8964h3.4014c.1218.3724.5328 1.667.615 1.8964h2.7353c.0085 0 .017 0 .0369-.0142-.1418-.4249-.2736-.8583-.4125-1.2874a6684.7856 6684.7856 0 01-2.6927-8.4086m-3.013 5.7219c.3458-1.0745.6906-2.148 1.0345-3.2207l1.0332 3.2207h-2.0678z" fill="url(#k)"/></g></svg>
