<svg width="150" height="57" xmlns="http://www.w3.org/2000/svg" xmlns:xlink="http://www.w3.org/1999/xlink"><defs><path id="a" d="M0 0h39.884v56.959H0z"/></defs><g fill="none" fill-rule="evenodd"><mask id="b" fill="#fff"><use xlink:href="#a"/></mask><path d="M14.945 43.602c.833 0 1.666-.171 2.499-.514-.714-1.041-1.432-1.93-2.153-2.665-.721-.734-1.469-1.245-2.241-1.53a3.599 3.599 0 0 0-1.16-.214c-.58 0-1.06.157-1.44.471-.378.314-.568.7-.568 1.156 0 .77.52 1.512 1.561 2.226 1.13.713 2.298 1.07 3.502 1.07M33.482 56.96a7.936 7.936 0 0 1-1.896-.236 13.628 13.628 0 0 1-3.97-1.83c-1.25-.834-2.335-1.723-3.257-2.665-1.844-1.955-3.443-3.981-4.796-6.079-2.112 1.484-4.402 2.226-6.87 2.226-1.086 0-2.246-.157-3.48-.47-2.127-.586-3.87-1.517-5.231-2.794A11.736 11.736 0 0 1 .97 40.584a15.604 15.604 0 0 1-.97-5.48c0-2.34.457-4.655 1.372-6.946.914-2.29 2.223-4.277 3.926-5.961 1.702-1.683 3.751-2.832 6.145-3.446a29.733 29.733 0 0 0-2.208 4.002 26.704 26.704 0 0 0-1.617 4.603 19.85 19.85 0 0 0-.614 4.901c0 1.442.186 2.876.558 4.303.223.813.498 1.562.825 2.247a5.533 5.533 0 0 1 1.15-1.23c.482-.393 1.084-.717 1.806-.974.721-.257 1.573-.386 2.554-.386 1.636.03 3.082.304 4.339.824 1.248.516 2.41 1.22 3.446 2.087.416-.727.78-1.54 1.093-2.44.506-1.512.759-3.075.759-4.687 0-1.87-.328-3.703-.982-5.501a13.588 13.588 0 0 0-2.9-4.731c-1.264-1.255-2.744-2.526-4.439-3.81l-1.673-1.327a55.291 55.291 0 0 0-1.695-1.113 37.337 37.337 0 0 1-4.082-2.88c-1.294-1.048-2.15-2.207-2.565-3.478a4.613 4.613 0 0 1-.179-1.241c0-.97.275-1.87.825-2.697a11.604 11.604 0 0 1 2.02-2.29c.794-.7 1.601-1.356 2.42-1.97.446-.328.862-.649 1.249-.963-.595.728-1.042 1.32-1.339 1.777a3.398 3.398 0 0 0-.602 1.926c0 1.085.706 2.212 2.119 3.382 1.07.885 2.394 1.855 3.97 2.911 2.216 1.456 4.536 3.225 6.96 5.309 2.216 1.983 3.93 4.117 5.142 6.4 1.212 2.283 1.818 4.659 1.818 7.127a15.18 15.18 0 0 1-.67 4.389c-.728 2.426-2.304 5.215-4.728 8.37.401.442.862.97 1.383 1.583 1.963 2.326 3.688 4.145 5.175 5.458 2.26 1.998 4.275 2.997 6.045 2.997 1.07 0 2.09-.414 3.056-1.242l.022.536c0 1.184-.29 2.23-.87 3.136a6.09 6.09 0 0 1-2.33 2.13c-.975.513-2.042.77-3.202.77" fill="#FFF" fill-rule="nonzero" mask="url(#b)"/><path d="M41.537 43.097c.404 0 .845-.106 1.324-.318.748-.367 1.275-.912 1.582-1.633.306-.72.46-1.47.46-2.247v-11.24l-1.212.658c-1.825.99-3.134 2.043-3.927 3.16-1.032 1.456-1.549 3.456-1.549 6.001 0 2.092.479 3.683 1.437 4.771.493.566 1.122.848 1.885.848m9.896 4.37c-1.57 0-2.801-.376-3.691-1.125-.89-.75-1.515-1.774-1.874-3.075-.599 1.258-1.395 2.273-2.39 3.043-.995.77-2.278 1.156-3.849 1.156a8.357 8.357 0 0 1-3.108-.583 7.975 7.975 0 0 1-2.66-1.75 8.624 8.624 0 0 1-1.985-3.138 10.562 10.562 0 0 1-.662-3.669c0-.75.082-1.491.247-2.227.538-2.148 1.526-3.894 2.962-5.238 1.436-1.342 3.134-2.516 5.094-3.52a80.067 80.067 0 0 1 3.187-1.569 45.042 45.042 0 0 0 5.464-2.894c1.713-1.068 2.943-2.365 3.692-3.892v20.888c0 .721.06 1.315.18 1.781.119.467.362.814.729 1.04.366.226.9.339 1.604.339.718 0 1.324-.202 1.818-.605a4.027 4.027 0 0 0 1.144-1.516c.27-.607.427-1.244.472-1.908h2.02c-.24 1.866-.689 3.35-1.347 4.453a8.662 8.662 0 0 1-1.975 2.396c-1.257 1.075-2.947 1.612-5.072 1.612" fill="#FFF" fill-rule="nonzero"/><path d="M63.911 48.329c-2.436 0-4.141-.685-5.116-2.055-.976-1.37-1.464-3.186-1.464-5.447V25.128h-2.707l.462-1.056c.514-.943 1.262-1.415 2.245-1.415v-1.033c0-1.721.77-3.07 2.311-4.042l.726-.405a16.13 16.13 0 0 0 2.113-1.348c.63-.478 1.188-1.152 1.672-2.02v8.848h3.367l-.462 1.033c-.499.959-1.232 1.438-2.2 1.438h-.705v15.16c0 1.288.172 2.168.517 2.64.345.47.994.707 1.948.707.953 0 1.727-.408 2.321-1.225.595-.815.943-1.83 1.046-3.043h1.98c-.484 3.58-1.636 6.057-3.455 7.434-1.32 1.019-2.853 1.528-4.599 1.528" fill="#FFF" fill-rule="nonzero"/><path d="M80.554 43.097c.404 0 .845-.106 1.324-.318.748-.367 1.276-.912 1.582-1.633.307-.72.46-1.47.46-2.247v-11.24l-1.211.658c-1.826.99-3.135 2.043-3.928 3.16-1.032 1.456-1.548 3.456-1.548 6.001 0 2.092.478 3.683 1.436 4.771.494.566 1.122.848 1.885.848m9.897 4.37c-1.571 0-2.802-.376-3.692-1.125-.89-.75-1.515-1.774-1.874-3.075-.598 1.258-1.395 2.273-2.39 3.043-.995.77-2.278 1.156-3.848 1.156a8.357 8.357 0 0 1-3.108-.583 7.975 7.975 0 0 1-2.66-1.75 8.624 8.624 0 0 1-1.986-3.138 10.562 10.562 0 0 1-.662-3.669c0-.75.082-1.491.247-2.227.539-2.148 1.526-3.894 2.962-5.238 1.437-1.342 3.134-2.516 5.095-3.52a80.067 80.067 0 0 1 3.186-1.569 45.042 45.042 0 0 0 5.465-2.894c1.713-1.068 2.943-2.365 3.691-3.892v20.888c0 .721.06 1.315.18 1.781.12.467.362.814.729 1.04.367.226.901.339 1.605.339.718 0 1.324-.202 1.817-.605.497-.407.89-.927 1.145-1.516a5.59 5.59 0 0 0 .471-1.908h2.02c-.24 1.866-.688 3.35-1.347 4.453a8.662 8.662 0 0 1-1.975 2.396c-1.256 1.075-2.947 1.612-5.071 1.612" fill="#FFF" fill-rule="nonzero"/><path d="M102.21 42.579c0 .859-.155 1.554-.464 2.084-.308.53-.705.97-1.19 1.32-.485.352-1.022.685-1.61 1-.66.344-1.304.748-1.928 1.214-.625.465-1.172 1.084-1.642 1.858V35.597c0-.817.044-1.59.132-2.32.264-1.776.848-3.259 1.752-4.448a12.944 12.944 0 0 1 3.174-2.986 34.574 34.574 0 0 1 3.627-2.105c1.19-.602 2.215-1.203 3.075-1.805.86-.601 1.414-1.296 1.664-2.084.74.509 1.461 1.046 2.16 1.612.897.759 1.558 1.557 1.984 2.395.427.838.64 1.651.64 2.438 0 1.19-.423 2.202-1.268 3.04-.845.838-2.01 1.257-3.494 1.257a5.41 5.41 0 0 0-.474-2.224 3.222 3.222 0 0 0-1.532-1.6 2.73 2.73 0 0 0-1.278-.322c-.397 0-.824.107-1.279.322a3.273 3.273 0 0 0-1.543 1.6 5.297 5.297 0 0 0-.485 2.224l-.022 3.115v8.873h.001Z" fill="#FFF" fill-rule="nonzero"/><path d="m108.382 47.466.026-.204c.058-.449.148-.936.27-1.462.25-1.034.587-1.929 1.01-2.685a10.68 10.68 0 0 1 1.528-2.096c.597-.64 1.28-1.298 2.048-1.972.39-.354.664-.614.82-.78.222-.23.404-.476.547-.74.142-.262.214-.55.214-.863a2.162 2.162 0 0 0-.738-1.6 1.59 1.59 0 0 0-1.053-.385c-.198 0-.404.038-.62.115-.384.16-.688.443-.912.85-.217.38-.334.811-.337 1.25 0 .213.032.413.096.603.082.23.18.395.293.496.113.1.29.15.528.15a2.04 2.04 0 0 1-.742.949 1.629 1.629 0 0 1-1.861 0 1.506 1.506 0 0 1-.593-.824 2.381 2.381 0 0 1-.097-.656c0-.426.105-.819.315-1.179.372-.65.987-1.261 1.843-1.834.436-.29.92-.573 1.45-.85.425-.22.847-.477 1.266-.772.42-.295.699-.644.839-1.045.425.3.835.63 1.231.987.396.358.737.758 1.022 1.201.198.325.368.699.511 1.121.143.423.217.829.223 1.219a3.32 3.32 0 0 1-.328 1.47c-.226.46-.519.885-.869 1.26-.36.39-.766.76-1.214 1.111-.448.352-.911.696-1.389 1.033a29.23 29.23 0 0 0-1.59 1.205c-.5.407-.922.839-1.266 1.293-.262.396-.437.75-.524 1.064.11-.106.288-.213.533-.32.47-.186.97-.279 1.476-.274.437 0 .882.056 1.336.168.297.077.618.173.961.288.344.116.687.22 1.03.31.344.092.662.138.953.138.407 0 .74-.13.995-.39.164-.165.265-.337.306-.514l-.017.089a6.166 6.166 0 0 1-.463 1.675 2.455 2.455 0 0 1-1.223 1.187c-.296.112-.61.169-.926.168-.355 0-.723-.047-1.105-.141a21.221 21.221 0 0 1-1.148-.32c-.932-.306-1.695-.46-2.289-.46-.326 0-.621.03-.886.088a3.42 3.42 0 0 0-.668.213 1.88 1.88 0 0 0-.511.32 2.06 2.06 0 0 0-.301.345m15.611-1.84c.315 0 .614-.142.896-.427.282-.284.498-.708.647-1.271.094-.393.153-.814.178-1.263.025-.45.038-.873.038-1.272v-4.348c0-.446-.085-.877-.253-1.294a1.784 1.784 0 0 0-.826-.933 1.448 1.448 0 0 0-.68-.185c-.227 0-.457.062-.689.185a1.82 1.82 0 0 0-.822.933c-.17.41-.257.85-.257 1.294v4.26c0 .434.011.88.033 1.338.023.457.083.886.183 1.285.15.563.366.987.651 1.271.285.285.585.427.9.427m-.672 1.84a3.86 3.86 0 0 1-1.369-.247 3.206 3.206 0 0 1-1.19-.871 3.889 3.889 0 0 1-.763-1.259 5.2 5.2 0 0 1-.291-1.368c-.037-.485-.055-.97-.054-1.457V38.93c0-.763.113-1.418.34-1.963.21-.52.512-.996.892-1.408.36-.386.762-.73 1.2-1.026.43-.29.857-.553 1.277-.787.509-.276.949-.555 1.32-.837.37-.281.608-.607.713-.976.83.61 1.453 1.198 1.871 1.764.417.567.697 1.181.838 1.844.141.663.214 1.45.22 2.359v.246c0 .264-.011.525-.033.784v3.08c-.094 1.29-.44 2.419-1.037 3.384-.598.965-1.494 1.606-2.689 1.923-.404.1-.819.15-1.245.15m6.738-.001.026-.204c.058-.449.149-.936.27-1.462.251-1.034.587-1.929 1.01-2.685.422-.756.931-1.455 1.528-2.096.597-.64 1.28-1.298 2.048-1.972.39-.354.664-.614.821-.78a3.38 3.38 0 0 0 .546-.74c.143-.262.214-.55.214-.863a2.162 2.162 0 0 0-.738-1.6 1.59 1.59 0 0 0-1.052-.385c-.198 0-.405.038-.62.115-.385.16-.69.443-.913.85-.217.38-.334.811-.337 1.25 0 .213.033.413.097.603.081.23.178.395.292.496.114.1.29.15.529.15a2.04 2.04 0 0 1-.743.949 1.628 1.628 0 0 1-1.86 0 1.506 1.506 0 0 1-.594-.824 2.381 2.381 0 0 1-.096-.656c0-.426.105-.819.314-1.179.373-.65.987-1.261 1.843-1.834.437-.29.92-.573 1.45-.85.425-.22.847-.477 1.266-.772.42-.295.699-.644.839-1.045.425.3.835.63 1.231.987.396.358.737.758 1.022 1.201.198.325.368.699.511 1.121.143.423.217.829.223 1.219a3.32 3.32 0 0 1-.328 1.47c-.226.46-.519.885-.869 1.26-.36.39-.765.76-1.214 1.111-.454.356-.917.7-1.388 1.033-.56.395-1.09.797-1.59 1.205-.5.407-.923.839-1.266 1.293-.263.396-.437.75-.524 1.064.11-.106.288-.213.532-.32.47-.186.97-.279 1.476-.274.437 0 .883.056 1.337.168.297.077.617.173.96.288.344.116.688.22 1.031.31.344.092.661.138.952.138.408 0 .74-.13.996-.39a1.08 1.08 0 0 0 .305-.514l-.017.089a6.166 6.166 0 0 1-.463 1.675 2.455 2.455 0 0 1-1.223 1.187 2.595 2.595 0 0 1-.925.168 4.62 4.62 0 0 1-1.106-.141 21.48 21.48 0 0 1-1.148-.32c-.932-.306-1.694-.46-2.288-.46-.326 0-.622.03-.887.088-.265.06-.487.13-.668.213a1.88 1.88 0 0 0-.51.32c-.12.111-.22.227-.302.345m10.404 0 .027-.204c.058-.449.148-.936.27-1.462.25-1.034.587-1.929 1.01-2.685a10.68 10.68 0 0 1 1.528-2.096c.596-.64 1.28-1.298 2.048-1.972.39-.354.664-.614.82-.78.222-.23.404-.476.547-.74.142-.262.214-.55.214-.863a2.162 2.162 0 0 0-.738-1.6 1.59 1.59 0 0 0-1.053-.385c-.198 0-.404.038-.62.115-.384.16-.689.443-.913.85a2.562 2.562 0 0 0-.336 1.25c0 .213.032.413.096.603.082.23.18.395.293.496.113.1.29.15.528.15a2.04 2.04 0 0 1-.742.949 1.629 1.629 0 0 1-1.861 0 1.506 1.506 0 0 1-.593-.824 2.381 2.381 0 0 1-.097-.656c0-.426.105-.819.315-1.179.372-.65.987-1.261 1.843-1.834.436-.29.92-.573 1.45-.85.425-.22.847-.477 1.266-.772.42-.295.699-.644.839-1.045.425.3.835.63 1.231.987.396.358.737.758 1.022 1.201.198.325.368.699.511 1.121.142.423.217.829.223 1.219a3.32 3.32 0 0 1-.328 1.47c-.226.46-.52.885-.87 1.26-.36.39-.765.76-1.213 1.111-.454.356-.917.7-1.389 1.033a29.23 29.23 0 0 0-1.59 1.205c-.5.407-.922.839-1.266 1.293-.262.396-.437.75-.524 1.064.11-.106.288-.213.533-.32.47-.186.97-.279 1.476-.274.437 0 .882.056 1.336.168.297.077.617.173.961.288.344.116.687.22 1.03.31.344.092.662.138.953.138.407 0 .74-.13.995-.39.163-.165.265-.337.306-.514l-.017.089a6.166 6.166 0 0 1-.463 1.675 2.455 2.455 0 0 1-1.223 1.187c-.296.112-.61.169-.926.168-.355 0-.724-.047-1.105-.141a21.221 21.221 0 0 1-1.148-.32c-.932-.306-1.695-.46-2.289-.46-.326 0-.621.03-.886.088a3.42 3.42 0 0 0-.668.213 1.88 1.88 0 0 0-.511.32c-.12.111-.22.227-.302.345" fill="#E51B5C" fill-rule="nonzero"/></g></svg>
