<svg width="90" height="40" xmlns="http://www.w3.org/2000/svg"><path d="M44.502.887c6.166 0 11.751 2.56 15.744 6.667l.632-.634C56.708 2.636 50.92 0 44.502 0c-6.419 0-12.231 2.662-16.4 6.92l.631.634C32.726 3.422 38.311.887 44.503.887zm0 9.43c3.79 0 7.177 1.673 9.477 4.31l.657-.584a13.439 13.439 0 00-10.16-4.613c-4.042 0-7.681 1.8-10.158 4.613l.657.583c2.35-2.636 5.737-4.31 9.527-4.31zm12.383-3.98c-.278-.203-.455-.127-.632-.025L51.25 9.556l1.06.583 3.615-2.357-.582 1.977-.454-.355-.96.609 1.111.862-.328 1.115.935.862 1.642-5.754c.076-.203.076-.406-.177-.609l-.227-.152zM35 10.292c.304-.254.506-.584.531-.913.05-.406-.076-.684-.455-1.166L33.08 5.754l.884-.71 2.174 2.687c.454.558.631 1.141.58 1.75-.075.684-.404 1.241-1.01 1.723-.607.482-1.213.684-1.895.634-.607-.05-1.112-.355-1.567-.913l-2.174-2.687.885-.71 1.996 2.46c.38.48.632.658 1.062.71.303-.026.682-.153.985-.406zm4.751-6.363l.253 1.293 2.578-.533.202 1.04-2.578.532.101.532c.127.609.354.71.885.583l2.072-.43.202 1.064-2.148.431c-.986.203-1.895-.076-2.123-1.318l-.733-3.625c-.05-.279.102-.456.329-.507l3.513-.71.202 1.065-2.755.583zm7.657 4.461l-.682-.177c-.227-.076-.379-.254-.303-.532l.935-3.575c.328-1.216 1.238-1.444 2.198-1.19l2.123.557-.278 1.039-2.047-.532c-.53-.152-.783-.051-.935.532l-.151.532 2.552.66-.278 1.013-2.552-.659-.582 2.332zm21.38 30.241h.278c.176 0 .353 0 .353-.228 0-.177-.177-.228-.328-.228h-.303v.456zm0 .203v.634h-.228v-1.47h.556c.354 0 .53.126.53.43 0 .254-.176.38-.378.406l.404.659h-.253l-.379-.634h-.252v-.025zm-.784-.101c0 .608.455 1.064 1.036 1.064.582 0 1.036-.456 1.036-1.064 0-.609-.454-1.065-1.036-1.065-.58 0-1.036.456-1.036 1.065zM69.04 40a1.265 1.265 0 01-1.288-1.293c0-.735.606-1.267 1.288-1.267.683 0 1.29.532 1.29 1.267 0 .76-.582 1.293-1.29 1.293zm-6.899-9.15v5.525c0 .304-.126.431-.48.456v.305h5.636c0-.583.025-1.166.126-2.028h-.354c-.177.887-.354 1.09-.935 1.09h-2.4v-2.256h1.415c.48 0 .556.152.631.557h.278c-.025-.253-.05-.735-.05-1.014 0-.278.025-.735.05-1.014h-.278c-.075.38-.151.533-.631.533h-1.416v-2.028h2.275c.581 0 .733.203.834.786h.303a17.97 17.97 0 01-.076-1.648h-5.383v.304c.329 0 .455.127.455.431zm-8.642-.026v4.005c0 1.825 1.036 2.459 2.931 2.459s2.932-.634 2.932-2.611v-3.853c0-.304.126-.431.48-.456v-.305c-.354.026-.784.076-1.239.076-.556 0-.985-.025-1.415-.076v.305c.455.025.581.1.581.532v4.005c0 1.191-.505 1.445-1.364 1.445-.86 0-1.365-.228-1.365-1.445V30.9c0-.406.127-.507.581-.532v-.305c-.43.026-.859.076-1.415.076-.455 0-.884-.025-1.238-.076v.305c.404 0 .53.152.53.456zm-4.22 3.802v.76c0 .482-.405.837-1.163.837-1.238 0-1.971-1.495-1.971-2.814 0-1.368.733-2.51 2.198-2.51.885 0 1.795.482 1.921 1.42h.303a27.588 27.588 0 01-.076-1.875c-.58-.355-1.364-.507-2.097-.507-2.3 0-3.841 1.394-3.841 3.726 0 1.926 1.289 3.574 3.285 3.574.733 0 1.44-.228 2.097-.862l.253.71h.607v-2.383c0-.481.202-.583.556-.583v-.33c-.48.026-.935.077-1.44.077a11.1 11.1 0 01-1.315-.076v.354c.506.026.682.051.682.482zm-8.593-.583h-1.49c.277-.76.606-1.597.859-2.459h.025c.202 1.09.379 1.775.606 2.46zm-4.094 2.788v.305c.38-.026.733-.076 1.112-.076.354 0 .733.025 1.087.076v-.305c-.354-.025-.505-.152-.505-.33 0-.1.025-.227.075-.38l.48-1.267h2.073l.328 1.04c.05.126.101.38.101.532 0 .253-.126.33-.53.405v.305c.455-.026.91-.076 1.364-.076.455 0 .91.025 1.365.076v-.305c-.329-.076-.48-.228-.632-.684l-1.971-6.084c-.329.026-.682.076-1.01.076-.33 0-.658-.025-1.012-.076v.28c.278 0 .405.177.405.278 0 .101-.076.254-.127.406l-2.097 5.297c-.05.305-.177.457-.506.507zm-6.545-5.982v5.526c0 .304-.126.431-.48.456v.305h5.635c0-.583.026-1.166.127-2.028h-.354c-.177.887-.354 1.09-.935 1.09h-2.4v-2.231h1.414c.48 0 .556.152.607.558h.303c-.025-.254-.05-.735-.05-1.014 0-.28.025-.76.05-1.014h-.303c-.05.38-.126.532-.607.532H31.64v-2.053h2.275c.58 0 .733.203.834.786h.303a17.97 17.97 0 01-.076-1.648h-5.383v.304c.329 0 .455.127.455.431zm-6.772-.025V36.4c0 .304-.127.43-.48.456v.304H28.1c0-.684.127-1.369.253-2.079H28c-.177.812-.48 1.141-1.162 1.141h-1.971v-5.247c0-.304.075-.558.606-.583v-.304c-.303.025-.96.076-1.415.076-.404 0-.809-.026-1.289-.076v.304c.38-.025.506.127.506.43zM8.339 25.298l.177-1.724c-.834.685-2.047 1.166-2.906 1.166-2.022 0-3.437-1.977-3.437-3.726 0-2.307 1.34-3.676 3.083-3.676 1.29 0 2.174.685 2.401 1.952h.404a40.918 40.918 0 01-.126-3.067c-.354-.152-1.238-.38-2.502-.38C1.87 15.843 0 18.428 0 21.115c0 2.611 1.87 5.197 5.155 5.197.885 0 2.224-.279 3.184-1.014zm24.362-6.363l-.304 5.78c-.025.583-.252.71-.783.76v.355c.43-.05.935-.076 1.44-.076.531 0 1.037.05 1.593.076v-.355c-.834-.101-.885-.253-.885-.938 0-.38.025-.735.05-1.47l.102-4.056h.025l2.628 6.895h1.163l2.3-6.793h.025l.328 4.132c.05.456.076 1.09.076 1.42 0 .633-.177.76-.86.836v.355c.557-.051 1.163-.077 1.77-.077.606 0 1.213.051 1.794.077V25.5c-.278-.051-.682-.102-.708-.457l-.43-5.906c-.05-.481-.1-1.09-.1-1.47 0-.38.075-.532.556-.558v-.355c-.48.051-.96.076-1.44.076-.481 0-.961-.05-1.441-.076l-2.174 6.414L35 16.755c-.505.051-.985.076-1.49.076-.506 0-.986-.05-1.416-.076v.355c.53.076.632.127.632.558.025.482 0 .862-.025 1.267zm-11.827 6.87v-.355c.404-.05.581-.279.707-.634l2.704-6.87c.076-.202.177-.405.177-.532 0-.152-.151-.354-.53-.354v-.355c.43.05.859.076 1.288.076.43 0 .86-.051 1.29-.076l2.526 7.883c.203.608.405.786.834.913v.355a20.058 20.058 0 00-1.743-.077c-.582 0-1.188.051-1.77.077V25.5c.506-.102.683-.203.683-.533 0-.202-.076-.507-.126-.684l-.43-1.344H23.78l-.607 1.623a1.364 1.364 0 00-.1.481c0 .254.202.406.656.457v.355c-.48-.051-.96-.077-1.415-.077-.48-.05-.96-.025-1.44.026zm3.336-3.955h1.945a27.337 27.337 0 01-.808-3.193h-.025c-.304 1.115-.759 2.205-1.112 3.193zm-13.167-4.233v7.275c0 .38-.176.558-.631.583v.355c.606-.05 1.137-.076 1.668-.076.505 0 1.036.05 1.667.076v-.355c-.48 0-.631-.203-.631-.583v-3.194h3.335v3.194c0 .38-.176.558-.631.583v.355c.606-.05 1.137-.076 1.668-.076.505 0 1.036.05 1.667.076v-.355c-.48-.025-.631-.203-.631-.583v-7.25c0-.38.177-.557.631-.582v-.355c-.606.05-1.137.076-1.667.076-.506 0-1.062-.051-1.668-.076v.355c.48 0 .631.202.631.583v2.737h-3.36v-2.737c0-.38.176-.558.631-.583v-.355c-.606.05-1.137.076-1.668.076-.505 0-1.036-.051-1.668-.076v.355c.506 0 .657.177.657.557zm71.77 5.045h-.354c.076.836.101 1.8.101 2.94.96.33 2.047.507 3.083.507 2.325 0 4.195-.989 4.195-2.89 0-1.85-1.339-2.382-2.78-2.788L85.569 20c-.582-.177-1.264-.406-1.264-1.191 0-.989 1.188-1.217 1.895-1.217 1.29 0 2.35.608 2.628 1.926h.354a37.693 37.693 0 01-.1-2.636 7.787 7.787 0 00-2.654-.456c-2.123 0-4.246.659-4.246 2.864 0 1.673 1.44 2.307 2.906 2.713l1.011.304c.657.203 1.542.43 1.542 1.292 0 1.065-1.213 1.319-2.047 1.319-1.491.025-2.502-.71-2.78-2.256zm-10.74-5.045v7.25c0 .38-.177.558-.632.583v.355c.43-.05.91-.076 1.365-.076.43 0 .859.05 1.314.076v-.355c-.38 0-.834-.05-.834-.786v-6.033h.025l4.574 7.148h1.466v-8.187c0-.38.177-.558.632-.583v-.355c-.43.05-.885.076-1.34.076-.43 0-.859-.05-1.314-.076v.355c.38 0 .834.05.834.786v5.07h-.025l-3.816-6.186c-.43.076-.834.076-1.213.076-.505 0-1.061-.05-1.668-.076v.355c.455.026.632.203.632.583zm-16.628 0v7.275c0 .38-.177.558-.632.583v.355c.606-.05 1.137-.076 1.642-.076.506 0 1.062.05 1.668.076v-.355c-.48-.025-.632-.203-.632-.583v-7.25c0-.38.177-.557.632-.582v-.355c-.606.05-1.137.076-1.668.076-.505 0-1.036-.051-1.642-.076v.355c.48 0 .632.177.632.557zm-7.556 7.022v-6.59l.859-.102c1.213 0 1.996.43 1.996 1.698 0 1.14-.556 1.952-2.022 1.952-.176 0-.353-.05-.48-.05-.126 0-.202 0-.202.126 0 .279.986.634 1.668.634 1.769 0 3.083-1.04 3.083-2.763 0-1.597-.935-2.814-3.487-2.814H45.21v.38c.48.026.632.203.632.583v6.768c0 .66-.102.888-.632.989v.355c.606-.05 1.137-.076 1.668-.076.505 0 1.061.05 1.92.076v-.355c-.808-.152-.91-.33-.91-.811zm16.678-6.743c2.073 0 2.68 2.357 2.68 3.954 0 1.521-.81 2.763-2.225 2.763-1.97 0-2.678-2.357-2.678-3.98 0-1.115.505-2.737 2.223-2.737zm.152 8.036c2.477 0 4.574-1.75 4.574-4.69 0-2.459-1.693-4.715-4.523-4.715-2.553 0-4.473 1.901-4.473 4.538 0 2.56 1.667 4.867 4.422 4.867z" fill="#FFF" fill-rule="nonzero"/></svg>