<svg width="195" height="23" xmlns="http://www.w3.org/2000/svg" xmlns:xlink="http://www.w3.org/1999/xlink"><defs><path d="M7.812 18L12.24 4.608H9.144l-1.962 6.444c-.108.372-.216.786-.324 1.242-.108.456-.204.882-.288 1.278-.108.48-.204.954-.288 1.422h-.036c-.084-.468-.18-.942-.288-1.422-.096-.396-.198-.822-.306-1.278-.108-.456-.216-.87-.324-1.242l-1.98-6.444H.162L4.59 18h3.222zm8.802.288c.612 0 1.17-.075 1.674-.225.504-.15.945-.36 1.323-.63s.696-.588.954-.954.447-.759.567-1.179h-2.736c-.156.3-.375.531-.657.693-.282.162-.645.243-1.089.243-.684 0-1.218-.204-1.602-.612-.384-.408-.624-.972-.72-1.692h6.984c.012-.948-.108-1.812-.36-2.592s-.648-1.434-1.188-1.962c-.42-.384-.903-.684-1.449-.9-.546-.216-1.161-.324-1.845-.324-.732 0-1.398.129-1.998.387-.6.258-1.116.615-1.548 1.071-.432.456-.768.993-1.008 1.611s-.36 1.287-.36 2.007c0 .72.117 1.386.351 1.998.234.612.57 1.146 1.008 1.602.438.456.969.813 1.593 1.071s1.326.387 2.106.387zm1.818-5.994h-4.086c.096-.66.312-1.182.648-1.566.336-.384.828-.576 1.476-.576.564 0 1.02.189 1.368.567.348.378.546.903.594 1.575zM25.56 18v-4.446c0-.936.231-1.641.693-2.115.462-.474 1.077-.705 1.845-.693.192 0 .39.018.594.054h.072V8.334c-.108-.048-.306-.072-.594-.072-.6 0-1.116.144-1.548.432-.432.288-.804.768-1.116 1.44h-.054v-1.71h-2.718V18h2.826zm7.398-10.926V4.608h-2.862v2.466h2.862zM32.94 18V8.424h-2.826V18h2.826zm10.026 0v-2.214h-3.132c-.216 0-.453.006-.711.018-.258.012-.501.03-.729.054-.264.024-.528.042-.792.054v-.054c.228-.18.45-.366.666-.558.192-.168.39-.348.594-.54.204-.192.39-.378.558-.558l3.294-3.744V8.424h-7.776v2.196h2.538c.204 0 .426-.006.666-.018.24-.012.462-.03.666-.054.24-.024.486-.048.738-.072v.054c-.204.168-.402.336-.594.504-.168.144-.342.306-.522.486s-.342.348-.486.504l-3.42 3.87V18h8.442zm5.976.306c.756 0 1.446-.129 2.07-.387.624-.258 1.155-.615 1.593-1.071.438-.456.777-.993 1.017-1.611.24-.618.36-1.287.36-2.007 0-.72-.12-1.389-.36-2.007-.24-.618-.579-1.155-1.017-1.611-.438-.456-.969-.813-1.593-1.071s-1.314-.387-2.07-.387c-.768 0-1.464.129-2.088.387-.624.258-1.158.615-1.602 1.071-.444.456-.786.993-1.026 1.611s-.36 1.287-.36 2.007c0 .72.12 1.389.36 2.007.24.618.582 1.155 1.026 1.611.444.456.978.813 1.602 1.071.624.258 1.32.387 2.088.387zm-.018-2.052c-.72 0-1.266-.279-1.638-.837-.372-.558-.558-1.287-.558-2.187 0-.912.186-1.65.558-2.214.372-.564.918-.846 1.638-.846.708 0 1.251.282 1.629.846.378.564.567 1.302.567 2.214 0 .9-.189 1.629-.567 2.187-.378.558-.921.837-1.629.837zM58.23 18v-5.4c0-.612.168-1.116.504-1.512.336-.396.78-.594 1.332-.594.528 0 .927.159 1.197.477.27.318.405.741.405 1.269V18h2.808v-6.3c0-1.08-.291-1.941-.873-2.583-.582-.642-1.401-.963-2.457-.963-.672 0-1.257.144-1.755.432-.498.288-.897.72-1.197 1.296h-.054V8.424h-2.736V18h2.826zm17.082.306c.744 0 1.431-.108 2.061-.324.63-.216 1.17-.525 1.62-.927.45-.402.801-.885 1.053-1.449.252-.564.378-1.194.378-1.89 0-.672-.117-1.281-.351-1.827-.234-.546-.552-1.008-.954-1.386-.402-.378-.867-.669-1.395-.873-.528-.204-1.086-.306-1.674-.306-.636 0-1.161.093-1.575.279-.414.186-.771.441-1.071.765h-.036l.576-2.826h5.688V5.184h-7.794l-1.332 7.146h2.754c.192-.24.459-.441.801-.603.342-.162.741-.243 1.197-.243.624 0 1.149.195 1.575.585.426.39.639.933.639 1.629 0 .672-.21 1.215-.63 1.629-.42.414-.966.621-1.638.621-.612 0-1.113-.144-1.503-.432-.39-.288-.633-.672-.729-1.152h-2.898c.048.612.213 1.161.495 1.647.282.486.654.9 1.116 1.242.462.342 1.002.603 1.62.783.618.18 1.287.27 2.007.27zm12.654 0c.828 0 1.578-.165 2.25-.495.672-.33 1.206-.867 1.602-1.611h.054l.252 1.8h2.124v-7.164H88.65v2.286h2.7v.054c0 .336-.072.663-.216.981-.144.318-.345.597-.603.837s-.576.435-.954.585c-.378.15-.801.225-1.269.225-.552 0-1.047-.111-1.485-.333-.438-.222-.81-.531-1.116-.927-.306-.396-.543-.864-.711-1.404-.168-.54-.252-1.134-.252-1.782 0-.624.072-1.209.216-1.755.144-.546.363-1.017.657-1.413.294-.396.66-.708 1.098-.936.438-.228.957-.342 1.557-.342.768 0 1.368.177 1.8.531.432.354.732.783.9 1.287h3.06c-.12-.636-.333-1.221-.639-1.755-.306-.534-.705-.993-1.197-1.377-.492-.384-1.074-.684-1.746-.9-.672-.216-1.428-.324-2.268-.324-.888 0-1.68.126-2.376.378s-1.314.606-1.854 1.062c-.756.636-1.332 1.431-1.728 2.385-.396.954-.594 2.007-.594 3.159 0 1.032.15 1.977.45 2.835.3.858.744 1.605 1.332 2.241.552.588 1.209 1.047 1.971 1.377.762.33 1.623.495 2.583.495zm17.892.018c.768 0 1.479-.096 2.133-.288.654-.192 1.224-.471 1.71-.837s.867-.816 1.143-1.35c.276-.534.414-1.149.414-1.845 0-.708-.129-1.296-.387-1.764-.258-.468-.6-.858-1.026-1.17-.426-.312-.918-.561-1.476-.747-.558-.186-1.137-.345-1.737-.477-.528-.12-.993-.228-1.395-.324s-.741-.207-1.017-.333c-.276-.126-.486-.273-.63-.441-.144-.168-.216-.384-.216-.648 0-.42.192-.756.576-1.008.384-.252.894-.378 1.53-.378.672 0 1.206.144 1.602.432.396.288.636.696.72 1.224h3.006c-.048-.66-.21-1.239-.486-1.737s-.642-.915-1.098-1.251c-.456-.336-.996-.588-1.62-.756-.624-.168-1.302-.252-2.034-.252-.744 0-1.434.081-2.07.243-.636.162-1.188.408-1.656.738-.468.33-.834.747-1.098 1.251-.264.504-.396 1.104-.396 1.8s.123 1.269.369 1.719c.246.45.585.822 1.017 1.116.432.294.936.531 1.512.711.576.18 1.188.342 1.836.486.48.108.912.213 1.296.315.384.102.708.219.972.351.264.132.465.294.603.486.138.192.207.432.207.72 0 .276-.063.513-.189.711-.126.198-.297.36-.513.486-.216.126-.462.219-.738.279-.276.06-.564.09-.864.09-.864 0-1.533-.168-2.007-.504-.474-.336-.753-.87-.837-1.602h-3.096c.024.72.177 1.365.459 1.935.282.57.681 1.047 1.197 1.431.516.384 1.134.678 1.854.882.72.204 1.53.306 2.43.306zm10.26-.054c.66 0 1.218-.132 1.674-.396.456-.264.858-.678 1.206-1.242h.054V18h2.682V8.424h-2.79v5.418c0 .6-.162 1.092-.486 1.476-.324.384-.774.576-1.35.576-.504 0-.885-.144-1.143-.432-.258-.288-.387-.702-.387-1.242V8.424h-2.826v6.336c0 1.056.288 1.905.864 2.547.576.642 1.41.963 2.502.963zm10.314 2.916V18.9c0-.516-.009-.948-.027-1.296-.018-.348-.039-.612-.063-.792h.036c.276.468.657.834 1.143 1.098.486.264 1.047.396 1.683.396.636 0 1.215-.12 1.737-.36s.966-.579 1.332-1.017c.366-.438.648-.972.846-1.602.198-.63.297-1.335.297-2.115 0-.732-.096-1.407-.288-2.025-.192-.618-.465-1.152-.819-1.602-.354-.45-.786-.801-1.296-1.053-.51-.252-1.083-.378-1.719-.378-1.296 0-2.268.546-2.916 1.638h-.054V8.424h-2.718v12.762h2.826zm2.106-5.076c-.72 0-1.266-.261-1.638-.783-.372-.522-.558-1.197-.558-2.025 0-.408.045-.786.135-1.134.09-.348.225-.654.405-.918.18-.264.405-.471.675-.621.27-.15.585-.225.945-.225.696 0 1.212.267 1.548.801.336.534.504 1.233.504 2.097 0 .864-.174 1.548-.522 2.052-.348.504-.846.756-1.494.756zm10.908 2.178c.612 0 1.17-.075 1.674-.225.504-.15.945-.36 1.323-.63s.696-.588.954-.954.447-.759.567-1.179h-2.736c-.156.3-.375.531-.657.693-.282.162-.645.243-1.089.243-.684 0-1.218-.204-1.602-.612-.384-.408-.624-.972-.72-1.692h6.984c.012-.948-.108-1.812-.36-2.592s-.648-1.434-1.188-1.962c-.42-.384-.903-.684-1.449-.9-.546-.216-1.161-.324-1.845-.324-.732 0-1.398.129-1.998.387-.6.258-1.116.615-1.548 1.071-.432.456-.768.993-1.008 1.611s-.36 1.287-.36 2.007c0 .72.117 1.386.351 1.998.234.612.57 1.146 1.008 1.602.438.456.969.813 1.593 1.071s1.326.387 2.106.387zm1.818-5.994h-4.086c.096-.66.312-1.182.648-1.566.336-.384.828-.576 1.476-.576.564 0 1.02.189 1.368.567.348.378.546.903.594 1.575zM148.392 18v-4.446c0-.936.231-1.641.693-2.115.462-.474 1.077-.705 1.845-.693.192 0 .39.018.594.054h.072V8.334c-.108-.048-.306-.072-.594-.072-.6 0-1.116.144-1.548.432-.432.288-.804.768-1.116 1.44h-.054v-1.71h-2.718V18h2.826zm11.43 0l4.428-13.392h-3.096l-1.962 6.444c-.108.372-.216.786-.324 1.242-.108.456-.204.882-.288 1.278-.108.48-.204.954-.288 1.422h-.036c-.084-.468-.18-.942-.288-1.422-.096-.396-.198-.822-.306-1.278-.108-.456-.216-.87-.324-1.242l-1.98-6.444h-3.186L156.6 18h3.222zm8.388-10.926V4.608h-2.862v2.466h2.862zM168.192 18V8.424h-2.826V18h2.826zm6.48.288c.612 0 1.17-.075 1.674-.225.504-.15.945-.36 1.323-.63s.696-.588.954-.954.447-.759.567-1.179h-2.736c-.156.3-.375.531-.657.693-.282.162-.645.243-1.089.243-.684 0-1.218-.204-1.602-.612-.384-.408-.624-.972-.72-1.692h6.984c.012-.948-.108-1.812-.36-2.592s-.648-1.434-1.188-1.962c-.42-.384-.903-.684-1.449-.9-.546-.216-1.161-.324-1.845-.324-.732 0-1.398.129-1.998.387-.6.258-1.116.615-1.548 1.071-.432.456-.768.993-1.008 1.611s-.36 1.287-.36 2.007c0 .72.117 1.386.351 1.998.234.612.57 1.146 1.008 1.602.438.456.969.813 1.593 1.071s1.326.387 2.106.387zm1.818-5.994h-4.086c.096-.66.312-1.182.648-1.566.336-.384.828-.576 1.476-.576.564 0 1.02.189 1.368.567.348.378.546.903.594 1.575zM185.292 18l1.044-3.906c.072-.276.144-.582.216-.918.072-.336.138-.654.198-.954.072-.348.144-.702.216-1.062h.036c.06.36.12.714.18 1.062.06.3.126.618.198.954.072.336.144.642.216.918L188.604 18h2.664l2.97-9.576h-2.79l-1.026 3.726c-.084.288-.159.606-.225.954s-.129.672-.189.972c-.06.36-.114.714-.162 1.062h-.036c-.072-.36-.138-.72-.198-1.08-.06-.312-.126-.642-.198-.99-.072-.348-.15-.666-.234-.954l-1.008-3.69h-2.394l-.972 3.69c-.084.288-.159.606-.225.954s-.129.678-.189.99c-.06.36-.126.714-.198 1.062h-.036c-.048-.36-.102-.714-.162-1.062-.06-.3-.123-.621-.189-.963-.066-.342-.135-.657-.207-.945l-1.008-3.726h-2.88L182.664 18h2.628z" id="a"/></defs><g fill-rule="nonzero" fill="none"><use fill="#000" xlink:href="#a"/><use fill="#000" xlink:href="#a"/></g></svg>
