<svg width="74" height="47" xmlns="http://www.w3.org/2000/svg"><g fill="#FFF" fill-rule="evenodd"><path d="M40.783 7.149l3.005.789.314-1.2-3.005-.789.165-.624c.181-.69.462-.806 1.09-.641l2.427.624.313-1.216-2.493-.657c-1.156-.296-2.229-.033-2.609 1.397L38.9 9.039c-.082.312.067.542.364.608l.809.214.71-2.712zm-6.44-3.188l-.247-1.233-4.161.838c-.28.05-.462.28-.396.592l.875 4.256c.297 1.447 1.354 1.775 2.526 1.545l2.526-.51-.247-1.232-2.46.493c-.628.132-.909 0-1.057-.69l-.132-.641 3.054-.624-.248-1.217-3.054.608-.314-1.512 3.335-.673zm-10.137 8.513c-.48-.05-.793-.263-1.239-.822l-2.344-2.876-1.04.838 2.575 3.155c.545.658 1.156 1.003 1.866 1.069.809.065 1.519-.165 2.245-.74.71-.575 1.09-1.232 1.19-2.038.082-.706-.133-1.38-.678-2.038l-2.575-3.139-1.04.839 2.344 2.876c.462.558.594.904.545 1.38-.033.395-.28.789-.628 1.085-.38.312-.825.46-1.221.41zm27.342-4.832c.314.246.297.493.215.723l-1.965 6.755-1.106-1.02.38-1.298-1.305-1.002 1.123-.723.545.427.677-2.317-4.26 2.744-1.255-.69 5.928-3.83c.214-.13.445-.213.759.017l.264.214zm-26.137 9.532l-.793-.69a15.987 15.987 0 0112.02-5.424c4.789 0 9.082 2.104 12.02 5.424l-.792.69a14.926 14.926 0 00-11.227-5.062 14.873 14.873 0 00-11.228 5.062zm-7.414-8.316l-.76-.74A27.078 27.078 0 0136.623 0a27.078 27.078 0 0119.384 8.119l-.76.74a26.015 26.015 0 00-18.624-7.807 26.015 26.015 0 00-18.625 7.806z" fill-rule="nonzero"/><path d="M40.188 43.09h2.659v.609c-.43.476-1.123.838-1.965.838-1.486 0-2.609-.871-2.609-2.662 0-1.792 1.222-2.663 2.378-2.663 1.073 0 1.75.51 2.03 1.463l1.883-.542c-.446-1.594-1.7-2.68-3.897-2.68-2.36 0-4.375 1.694-4.375 4.422 0 2.728 1.981 4.42 4.392 4.42 1.866 0 3.021-.739 3.962-1.89v-2.859h-4.474v1.545h.016zM22.29 42.713h3.666v-1.759H22.29V39.36h3.98v-1.758h-5.945v8.546h6.044v-1.759H22.29zM15.339 37.602h-1.965v8.546h6.027v-1.759h-4.062zM55.924 44.39v-1.677h3.665v-1.759h-3.665V39.36h3.979v-1.758h-5.928v8.546h6.027v-1.759zM50.888 42.68c0 1.15-.595 1.857-1.668 1.857s-1.668-.707-1.668-1.857v-5.078h-1.964v5.193c0 2.383 1.65 3.5 3.632 3.5 1.981 0 3.633-1.133 3.633-3.5v-5.193h-1.965v5.078z"/><path d="M30.76 37.602l-3.483 8.546h2.229l.627-1.627h3.368l.628 1.627h2.196l-3.484-8.546h-2.08zm.034 5.16l1.007-2.63 1.007 2.63h-2.014z" fill-rule="nonzero"/><g><path d="M19.467 28.12c0 1.79-.925 2.892-2.609 2.892s-2.609-1.102-2.609-2.893v-7.938h-3.07v8.102c0 3.715 2.591 5.473 5.679 5.473s5.68-1.775 5.68-5.473v-8.102h-3.071v7.938zM3.071 28.185h5.713v-2.761H3.071v-2.498H9.28V20.18H0v13.361h9.428v-2.744H3.07z"/><path d="M60.877 24.619c0-2.893-2.163-4.421-4.805-4.421h-5.25v13.36h3.07v-4.502h2.18c2.642-.017 4.805-1.545 4.805-4.437zm-4.953 1.676h-2.031v-3.353h2.03c1.355 0 1.9.707 1.9 1.677-.017.97-.545 1.676-1.9 1.676zM34.608 24.454c0-2.613-2.13-4.273-4.855-4.273h-5.316v13.361h3.07v-4.815h1.652l2.691 4.815h3.451l-2.988-5.357c1.337-.773 2.295-1.972 2.295-3.73zm-4.805 1.529h-2.295v-3.057h2.295c1.271 0 1.75.64 1.75 1.528-.016.888-.495 1.529-1.75 1.529zM68.225 20.181h-3.253l-5.449 13.361h3.468l.974-2.53h5.25l.974 2.53h3.468l-5.432-13.36zm-3.204 8.07l1.569-4.109 1.569 4.109H65.02zM42.55 19.886c-3.947 0-6.49 2.645-6.49 6.984 0 4.322 2.543 6.985 6.49 6.985 3.946 0 6.488-2.646 6.488-6.985s-2.542-6.984-6.488-6.984zm0 11.208c-1.916 0-3.435-1.38-3.435-4.24 0-2.86 1.52-4.24 3.435-4.24s3.434 1.38 3.434 4.24c0 2.86-1.52 4.24-3.434 4.24z" fill-rule="nonzero"/></g></g></svg>