<svg width="90" height="30" xmlns="http://www.w3.org/2000/svg" xmlns:xlink="http://www.w3.org/1999/xlink"><g fill-rule="nonzero" fill="none"><path d="M87.357 4.8969l-4.8688 10.439-1.8398-3.9607H78.66l3.021 6.4783h1.6068l6.0424-12.9548v-.0018z" fill="#CD040B"/><path d="M35.6197 6h3.9572v3.5036h-3.9572V6zM4.487 23.4948h4.1341l4.4871-12.9067H9.1507L6.63 18.8815H6.579l-2.5207-8.2934H0l4.487 12.9067zm14.5197-10.4606c1.3863 0 2.3446 1.0333 2.4955 2.5458h-5.2685c.3027-1.538 1.1344-2.5458 2.773-2.5458m.2017 7.9903c-1.7393 0-2.7977-1.1344-2.9998-2.8736h9.302c.0252-2.773-.7055-4.991-2.244-6.3772-1.0836-1.0086-2.5206-1.5632-4.3353-1.5632-3.8822 0-6.5798 2.9494-6.5798 6.806 0 3.8822 2.5719 6.8569 6.8317 6.8569 1.6135 0 2.8988-.4289 3.9577-1.1604 1.1343-.7805 1.9408-1.9153 2.168-3.0496h-3.7815c-.3777.8577-1.1595 1.361-2.319 1.361m7.235 2.4704h3.9324v-5.9237c0-2.6966 1.613-3.8822 4.083-3.5543h.0758v-3.4026c-.2016-.076-.4284-.101-.8065-.101-1.5372 0-2.571.7059-3.4533 2.2179h-.076v-2.143h-3.7555v12.9067zm9.1762 0h3.9572V10.5881h-3.9572v12.9067zm5.0417 0h11.0412V20.394h-6.2523v-.075l5.9753-6.705V10.588H40.6614v3.1008h6.0494v.076l-6.0494 6.7562v2.9737zm18.0234-2.495c-1.8655 0-2.848-1.5632-2.848-3.9325 0-2.3949.9825-3.9334 2.848-3.9334 1.8658 0 2.8996 1.5385 2.8996 3.9334 0 2.3693-1.0338 3.9325-2.8996 3.9325m.0256-10.7646c-4.109 0-6.8569 2.9499-6.8569 6.832 0 3.8567 2.7479 6.8313 6.8569 6.8313 4.1085 0 6.8563-2.9746 6.8563-6.8312 0-3.8822-2.7478-6.8321-6.8563-6.8321m7.7136 13.2596h3.9325v-7.1842c0-1.6382.9574-2.7977 2.3689-2.7977 1.3615 0 2.0675.9574 2.0675 2.319v7.663h3.9329v-8.4197c0-2.848-1.7141-4.8647-4.4871-4.8647-1.7653 0-2.9998.7566-3.932 2.143h-.076V10.588H66.424v12.9067z" fill="#FFF"/></g></svg>
