<svg width="96" height="43" xmlns="http://www.w3.org/2000/svg"><defs><linearGradient x1="22.281%" y1="55.706%" x2="227.929%" y2="33.351%" id="Z"><stop stop-color="#E7B82D" offset="0%"/><stop stop-color="#BF8418" offset="45%"/><stop stop-color="#E7B82D" offset="100%"/></linearGradient><linearGradient x1="96.209%" y1="42.5%" x2="274.779%" y2="23.684%" id="a"><stop stop-color="#C12C2E" offset="0%"/><stop stop-color="#94191D" offset="50%"/><stop stop-color="#C12C2E" offset="100%"/></linearGradient><linearGradient x1="-296.24%" y1="89.672%" x2="81.023%" y2="48.724%" id="c"><stop stop-color="#114088" offset="0%"/><stop stop-color="#1C296D" offset="50%"/><stop stop-color="#114088" offset="100%"/></linearGradient><linearGradient x1="-136.089%" y1="62.861%" x2="57.021%" y2="48.048%" id="d"><stop stop-color="#3F96C8" offset="0%"/><stop stop-color="#2A719E" offset="50%"/><stop stop-color="#3F96C8" offset="100%"/></linearGradient><linearGradient x1="-99.442%" y1="62.711%" x2="87.086%" y2="47.867%" id="e"><stop stop-color="#1673AF" offset="0%"/><stop stop-color="#02588F" offset="53%"/><stop stop-color="#1673AF" offset="100%"/></linearGradient><linearGradient x1="-79.817%" y1="65.602%" x2="139.617%" y2="42.843%" id="f"><stop stop-color="#D78A2C" offset="0%"/><stop stop-color="#CB7719" offset="50%"/><stop stop-color="#D78A2C" offset="100%"/></linearGradient><linearGradient x1="151.505%" y1="38.767%" x2="324.771%" y2="23.272%" id="g"><stop stop-color="#C12C2E" offset="0%"/><stop stop-color="#94191D" offset="50%"/><stop stop-color="#C12C2E" offset="100%"/></linearGradient><linearGradient x1="100.55%" y1="42.37%" x2="269.791%" y2="25.371%" id="h"><stop stop-color="#1673AF" offset="0%"/><stop stop-color="#02588F" offset="50%"/><stop stop-color="#1673AF" offset="100%"/></linearGradient><linearGradient x1="-120.405%" y1="66.058%" x2="48.263%" y2="47.531%" id="i"><stop stop-color="#20944A" offset="0%"/><stop stop-color="#16783E" offset="50%"/><stop stop-color="#20944A" offset="100%"/></linearGradient><linearGradient x1="79.715%" y1="47.606%" x2="399.332%" y2="15.56%" id="j"><stop stop-color="#FFF" offset="0%"/><stop stop-color="#D0CFCF" offset="50%"/><stop stop-color="#FFF" offset="100%"/></linearGradient><linearGradient x1="43.009%" y1="48.509%" x2="211.916%" y2="32.765%" id="k"><stop stop-color="#C12C2E" offset="0%"/><stop stop-color="#94191D" offset="50%"/><stop stop-color="#C12C2E" offset="100%"/></linearGradient><linearGradient x1="-137.59%" y1="71.216%" x2="308.417%" y2="17.764%" id="l"><stop stop-color="#1673AF" offset="0%"/><stop stop-color="#02588F" offset="50%"/><stop stop-color="#1673AF" offset="100%"/></linearGradient><linearGradient x1="-22.364%" y1="55.029%" x2="308.898%" y2="11.837%" id="m"><stop stop-color="#107A42" offset="0%"/><stop stop-color="#0D5F33" offset="50%"/><stop stop-color="#107A42" offset="100%"/></linearGradient><linearGradient x1="7.522%" y1="56.519%" x2="204.03%" y2="37.802%" id="n"><stop stop-color="#107A42" offset="0%"/><stop stop-color="#0D5F33" offset="45%"/><stop stop-color="#107A42" offset="100%"/></linearGradient><linearGradient x1="-124.688%" y1="87.758%" x2="51.82%" y2="49.504%" id="o"><stop stop-color="#107A42" offset="0%"/><stop stop-color="#0D5F33" offset="50%"/><stop stop-color="#107A42" offset="100%"/></linearGradient><linearGradient x1="-87.353%" y1="62.128%" x2="100.009%" y2="46.689%" id="p"><stop stop-color="#20944A" offset="0%"/><stop stop-color="#16783E" offset="50%"/><stop stop-color="#20944A" offset="100%"/></linearGradient><linearGradient x1="304.789%" y1="24.761%" x2="621.525%" y2="-9.62%" id="q"><stop stop-color="#FFF" offset="0%"/><stop stop-color="#D0CFCF" offset="50%"/><stop stop-color="#FFF" offset="100%"/></linearGradient><linearGradient x1="-148.653%" y1="79.014%" x2="271.522%" y2="21.169%" id="r"><stop stop-color="#FFF" offset="0%"/><stop stop-color="#D0CFCF" offset="50%"/><stop stop-color="#FFF" offset="100%"/></linearGradient><linearGradient x1="-104.211%" y1="69.566%" x2="327.902%" y2="11.458%" id="s"><stop stop-color="#FFF" offset="0%"/><stop stop-color="#D0CFCF" offset="50%"/><stop stop-color="#FFF" offset="100%"/></linearGradient><linearGradient x1="-291.26%" y1="91.816%" x2="111.607%" y2="45.543%" id="t"><stop stop-color="#FFF" offset="0%"/><stop stop-color="#D0CFCF" offset="50%"/><stop stop-color="#FFF" offset="100%"/></linearGradient><linearGradient x1="6.92%" y1="58.517%" x2="209.15%" y2="33.143%" id="u"><stop stop-color="#114088" offset="0%"/><stop stop-color="#1B2B6F" offset="39%"/><stop stop-color="#1C296D" offset="41%"/><stop stop-color="#114088" offset="100%"/></linearGradient><linearGradient x1="25.08%" y1="53.227%" x2="192.45%" y2="38.531%" id="v"><stop stop-color="#F2D429" offset="0%"/><stop stop-color="#C29417" offset="50%"/><stop stop-color="#F2D429" offset="100%"/></linearGradient><linearGradient x1="166.426%" y1="36.38%" x2="333.789%" y2="19.44%" id="w"><stop stop-color="#114088" offset="0%"/><stop stop-color="#1C296D" offset="50%"/><stop stop-color="#114088" offset="100%"/></linearGradient><linearGradient x1="303.78%" y1="2.515%" x2="624.34%" y2="-49.523%" id="x"><stop stop-color="#114088" offset="0%"/><stop stop-color="#1C296D" offset="50%"/><stop stop-color="#114088" offset="100%"/></linearGradient><linearGradient x1="-141.126%" y1="67.199%" x2="60.693%" y2="47.045%" id="y"><stop stop-color="#C12C2E" offset="0%"/><stop stop-color="#94191D" offset="50%"/><stop stop-color="#C12C2E" offset="100%"/></linearGradient><linearGradient x1="-52.869%" y1="64.204%" x2="154.176%" y2="40.048%" id="z"><stop stop-color="#114088" offset="0%"/><stop stop-color="#1C296D" offset="50%"/><stop stop-color="#114088" offset="100%"/></linearGradient><linearGradient x1="-135.071%" y1="67.541%" x2="80.143%" y2="45.726%" id="A"><stop stop-color="#114088" offset="0%"/><stop stop-color="#1C296D" offset="50%"/><stop stop-color="#114088" offset="100%"/></linearGradient><linearGradient x1="-155.309%" y1="98.328%" x2="41.092%" y2="52.396%" id="B"><stop stop-color="#114088" offset="0%"/><stop stop-color="#1C296D" offset="50%"/><stop stop-color="#114088" offset="100%"/></linearGradient><linearGradient x1="258.995%" y1="23.703%" x2="591.991%" y2="-21.642%" id="C"><stop stop-color="#114088" offset="0%"/><stop stop-color="#1C296D" offset="50%"/><stop stop-color="#114088" offset="100%"/></linearGradient><linearGradient x1="57.382%" y1="49.174%" x2="396.101%" y2="15.17%" id="D"><stop stop-color="#114088" offset="0%"/><stop stop-color="#1C296D" offset="50%"/><stop stop-color="#114088" offset="100%"/></linearGradient><linearGradient x1="279.056%" y1="7.461%" x2="608.068%" y2="-43.76%" id="E"><stop stop-color="#A52025" offset="0%"/><stop stop-color="#73191C" offset="50%"/><stop stop-color="#A52025" offset="100%"/></linearGradient><linearGradient x1="-82.644%" y1="67.69%" x2="134.939%" y2="42.592%" id="F"><stop stop-color="#A52025" offset="0%"/><stop stop-color="#73191C" offset="50%"/><stop stop-color="#A52025" offset="100%"/></linearGradient><linearGradient x1="48.653%" y1="47.279%" x2="215.459%" y2="28.522%" id="G"><stop stop-color="#A52025" offset="0%"/><stop stop-color="#73191C" offset="40%"/><stop stop-color="#A52025" offset="100%"/></linearGradient><linearGradient x1="6.354%" y1="57.547%" x2="184.259%" y2="37.378%" id="H"><stop stop-color="#A52025" offset="0%"/><stop stop-color="#73191C" offset="50%"/><stop stop-color="#A52025" offset="100%"/></linearGradient><linearGradient x1="-157.542%" y1="93.001%" x2="30.615%" y2="52.97%" id="I"><stop stop-color="#A52025" offset="0%"/><stop stop-color="#73191C" offset="50%"/><stop stop-color="#A52025" offset="100%"/></linearGradient><linearGradient x1="235.661%" y1="27.561%" x2="582.998%" y2="-18.37%" id="J"><stop stop-color="#FFF" offset="0%"/><stop stop-color="#D0CFCF" offset="50%"/><stop stop-color="#FFF" offset="100%"/></linearGradient><linearGradient x1="-290.524%" y1="88.402%" x2="106.008%" y2="46.625%" id="K"><stop stop-color="#FFF" offset="0%"/><stop stop-color="#D0CFCF" offset="50%"/><stop stop-color="#FFF" offset="100%"/></linearGradient><linearGradient x1="34.634%" y1="52.601%" x2="206.1%" y2="38.29%" id="L"><stop stop-color="#3F96C8" offset="0%"/><stop stop-color="#2A719E" offset="50%"/><stop stop-color="#3F96C8" offset="100%"/></linearGradient><linearGradient x1="-136.789%" y1="62.631%" x2="62.577%" y2="47.536%" id="M"><stop stop-color="#3F96C8" offset="0%"/><stop stop-color="#2A719E" offset="50%"/><stop stop-color="#3F96C8" offset="100%"/></linearGradient><linearGradient x1="-307.816%" y1="87.25%" x2="82.136%" y2="49.247%" id="N"><stop stop-color="#20944A" offset="0%"/><stop stop-color="#16783E" offset="50%"/><stop stop-color="#20944A" offset="100%"/></linearGradient><linearGradient x1="-309.059%" y1="80.177%" x2="96.808%" y2="44.32%" id="O"><stop stop-color="#3F96C8" offset="0%"/><stop stop-color="#2A719E" offset="50%"/><stop stop-color="#3F96C8" offset="100%"/></linearGradient><linearGradient x1="-83.788%" y1="61.775%" x2="133.438%" y2="38.601%" id="P"><stop stop-color="#114088" offset="0%"/><stop stop-color="#1C296D" offset="50%"/><stop stop-color="#114088" offset="100%"/></linearGradient><linearGradient x1="29.399%" y1="52.575%" x2="372.357%" y2="29.524%" id="Q"><stop stop-color="#F2D429" offset="0%"/><stop stop-color="#C29417" offset="50%"/><stop stop-color="#F2D429" offset="100%"/></linearGradient><linearGradient x1="32.322%" y1="52.903%" x2="350.65%" y2="24.707%" id="R"><stop stop-color="#E7B82D" offset="0%"/><stop stop-color="#BF8418" offset="45%"/><stop stop-color="#E7B82D" offset="100%"/></linearGradient><linearGradient x1="-311.363%" y1="77.022%" x2="93.239%" y2="44.369%" id="S"><stop stop-color="#F2D429" offset="0%"/><stop stop-color="#C29417" offset="50%"/><stop stop-color="#F2D429" offset="100%"/></linearGradient><linearGradient x1="-70.301%" y1="57.882%" x2="114.824%" y2="45.887%" id="T"><stop stop-color="#F2D429" offset="0%"/><stop stop-color="#C29417" offset="50%"/><stop stop-color="#F2D429" offset="100%"/></linearGradient><linearGradient x1="-241.613%" y1="74.36%" x2="72.871%" y2="45.444%" id="U"><stop stop-color="#F2D429" offset="0%"/><stop stop-color="#C29417" offset="50%"/><stop stop-color="#F2D429" offset="100%"/></linearGradient><linearGradient x1="69.272%" y1="45.203%" x2="234.786%" y2="16.95%" id="V"><stop stop-color="#20944A" offset="0%"/><stop stop-color="#16783E" offset="50%"/><stop stop-color="#20944A" offset="100%"/></linearGradient><linearGradient x1="59.59%" y1="54.062%" x2="237.275%" y2="11.056%" id="W"><stop stop-color="#20944A" offset="0%"/><stop stop-color="#16783E" offset="50%"/><stop stop-color="#20944A" offset="100%"/></linearGradient><linearGradient x1="43.663%" y1="52.364%" x2="227.022%" y2="37.441%" id="X"><stop stop-color="#20944A" offset="0%"/><stop stop-color="#16783E" offset="50%"/><stop stop-color="#20944A" offset="100%"/></linearGradient><linearGradient x1="-130.268%" y1="70.504%" x2="65.705%" y2="50.926%" id="Y"><stop stop-color="#20944A" offset="0%"/><stop stop-color="#16783E" offset="50%"/><stop stop-color="#20944A" offset="100%"/></linearGradient><linearGradient x1="-104.694%" y1="62.463%" x2="107.577%" y2="46.349%" id="b"><stop stop-color="#C12C2E" offset="0%"/><stop stop-color="#94191D" offset="50%"/><stop stop-color="#C12C2E" offset="100%"/></linearGradient><linearGradient x1="278.312%" y1="25.673%" x2="613.216%" y2="-13.195%" id="aa"><stop stop-color="#E7B82D" offset="0%"/><stop stop-color="#BF8418" offset="50%"/><stop stop-color="#E7B82D" offset="100%"/></linearGradient><linearGradient x1="-21.922%" y1="53.773%" x2="232.965%" y2="34.16%" id="ab"><stop stop-color="#114088" offset="0%"/><stop stop-color="#1C296D" offset="50%"/><stop stop-color="#114088" offset="100%"/></linearGradient><linearGradient x1="-257.13%" y1="96.499%" x2="40.065%" y2="48.911%" id="ac"><stop stop-color="#E7B82D" offset="0%"/><stop stop-color="#BF8418" offset="50%"/><stop stop-color="#E7B82D" offset="100%"/></linearGradient><linearGradient x1="327.649%" y1="10.398%" x2="632.851%" y2="-31.084%" id="ad"><stop stop-color="#E7B82D" offset="0%"/><stop stop-color="#BF8418" offset="50%"/><stop stop-color="#E7B82D" offset="100%"/></linearGradient><linearGradient x1="175.059%" y1="40.066%" x2="335.822%" y2="23.792%" id="ae"><stop stop-color="#C7524A" offset="0%"/><stop stop-color="#B93C32" offset="50%"/><stop stop-color="#C7524A" offset="100%"/></linearGradient><linearGradient x1="-106.112%" y1="67.184%" x2="95.466%" y2="48.597%" id="af"><stop stop-color="#C12C2E" offset="0%"/><stop stop-color="#94191D" offset="50%"/><stop stop-color="#C12C2E" offset="100%"/></linearGradient><linearGradient x1="275.699%" y1="26.702%" x2="607.368%" y2="-4.921%" id="ag"><stop stop-color="#C7524A" offset="0%"/><stop stop-color="#B93C32" offset="50%"/><stop stop-color="#C7524A" offset="100%"/></linearGradient><linearGradient x1="45.19%" y1="50.07%" x2="415.519%" y2="19.14%" id="ah"><stop stop-color="#C7524A" offset="0%"/><stop stop-color="#B93C32" offset="50%"/><stop stop-color="#C7524A" offset="100%"/></linearGradient><linearGradient x1="87.029%" y1="44.407%" x2="409.014%" y2="13.761%" id="ai"><stop stop-color="#FFF" offset="0%"/><stop stop-color="#D0CFCF" offset="50%"/><stop stop-color="#FFF" offset="100%"/></linearGradient><linearGradient x1="-208.087%" y1="84.152%" x2="202.169%" y2="32.6%" id="aj"><stop stop-color="#F2D429" offset="0%"/><stop stop-color="#C29417" offset="50%"/><stop stop-color="#F2D429" offset="100%"/></linearGradient><linearGradient x1="-60.668%" y1="58.606%" x2="149.854%" y2="37.713%" id="ak"><stop stop-color="#1673AF" offset="0%"/><stop stop-color="#02588F" offset="50%"/><stop stop-color="#1673AF" offset="100%"/></linearGradient><linearGradient x1="97.631%" y1="47.166%" x2="283.802%" y2="25.789%" id="al"><stop stop-color="#FFF" offset="0%"/><stop stop-color="#A8A7A7" offset="50%"/><stop stop-color="#FFF" offset="100%"/></linearGradient><linearGradient x1="-73.122%" y1="62.649%" x2="108.507%" y2="39.314%" id="am"><stop stop-color="#FFF" offset="0%"/><stop stop-color="#A8A7A7" offset="42%"/><stop stop-color="#E7E7E7" offset="85%"/><stop stop-color="#FFF" offset="100%"/></linearGradient><linearGradient x1="255.935%" y1="11.045%" x2="-39.83%" y2="82.291%" id="an"><stop stop-color="#D0CFCF" offset="0%"/><stop stop-color="#F2F2F2" offset="74%"/><stop stop-color="#FFF" offset="100%"/></linearGradient><linearGradient x1="117.04%" y1="43.897%" x2="-113.921%" y2="91.262%" id="ao"><stop stop-color="#FFF" offset="0%"/><stop stop-color="#F2F2F2" offset="26%"/><stop stop-color="#D0CFCF" offset="100%"/></linearGradient><linearGradient x1="106.47%" y1="43.153%" x2="-92.127%" y2="117.644%" id="ap"><stop stop-color="#FFF" offset="0%"/><stop stop-color="#F2F2F2" offset="26%"/><stop stop-color="#D0CFCF" offset="100%"/></linearGradient><linearGradient x1="-132.902%" y1="71.168%" x2="88.445%" y2="41.959%" id="aq"><stop stop-color="#FFF" offset="0%"/><stop stop-color="#A8A7A7" offset="50%"/><stop stop-color="#FFF" offset="100%"/></linearGradient><linearGradient x1="39.735%" y1="50.175%" x2="212.44%" y2="39.26%" id="ar"><stop stop-color="#C12C2E" offset="0%"/><stop stop-color="#94191D" offset="50%"/><stop stop-color="#C12C2E" offset="100%"/></linearGradient><linearGradient x1="167.706%" y1="40.305%" x2="337.846%" y2="22.337%" id="as"><stop stop-color="#C12C2E" offset="0%"/><stop stop-color="#94191D" offset="50%"/><stop stop-color="#C12C2E" offset="100%"/></linearGradient><linearGradient x1="143.996%" y1="38.781%" x2="324.871%" y2="21.523%" id="at"><stop stop-color="#114088" offset="0%"/><stop stop-color="#1C296D" offset="50%"/><stop stop-color="#114088" offset="100%"/></linearGradient><linearGradient x1="-82.656%" y1="61.748%" x2="132.889%" y2="38.36%" id="au"><stop stop-color="#C12C2E" offset="0%"/><stop stop-color="#94191D" offset="50%"/><stop stop-color="#C12C2E" offset="100%"/></linearGradient><linearGradient x1="-64.45%" y1="63.478%" x2="166.997%" y2="39.769%" id="av"><stop stop-color="#C12C2E" offset="0%"/><stop stop-color="#94191D" offset="50%"/><stop stop-color="#C12C2E" offset="100%"/></linearGradient><linearGradient x1="-137.079%" y1="72.361%" x2="79.996%" y2="49.903%" id="aw"><stop stop-color="#C12C2E" offset="0%"/><stop stop-color="#94191D" offset="50%"/><stop stop-color="#C12C2E" offset="100%"/></linearGradient><linearGradient x1="-179.351%" y1="77.977%" x2="290.471%" y2="18.805%" id="ax"><stop stop-color="#C12C2E" offset="0%"/><stop stop-color="#94191D" offset="50%"/><stop stop-color="#C12C2E" offset="100%"/></linearGradient><linearGradient x1="-126.644%" y1="71.166%" x2="304.05%" y2="22.459%" id="ay"><stop stop-color="#C12C2E" offset="0%"/><stop stop-color="#94191D" offset="50%"/><stop stop-color="#C12C2E" offset="100%"/></linearGradient><linearGradient x1="-314.684%" y1="81.251%" x2="65.954%" y2="47.681%" id="az"><stop stop-color="#C12C2E" offset="0%"/><stop stop-color="#94191D" offset="50%"/><stop stop-color="#C12C2E" offset="100%"/></linearGradient><linearGradient x1="4.765%" y1="56.133%" x2="178.572%" y2="13.63%" id="aA"><stop stop-color="#FFF" offset="0%"/><stop stop-color="#F2F2F2" offset="26%"/><stop stop-color="#D0CFCF" offset="100%"/></linearGradient><linearGradient x1="-41.484%" y1="77.292%" x2="69.601%" y2="44.158%" id="aB"><stop stop-color="#D0CFCF" offset="0%"/><stop stop-color="#F2F2F2" offset="74%"/><stop stop-color="#FFF" offset="100%"/></linearGradient><linearGradient x1="-3.065%" y1="62.714%" x2="161.023%" y2="22.036%" id="aC"><stop stop-color="#FFF" offset="0%"/><stop stop-color="#D0CFCF" offset="100%"/></linearGradient><linearGradient x1="-47.295%" y1="78.3%" x2="56.474%" y2="54.388%" id="aD"><stop stop-color="#D0CFCF" offset="0%"/><stop stop-color="#DADADA" offset="31%"/><stop stop-color="#F6F6F6" offset="85%"/><stop stop-color="#FFF" offset="100%"/></linearGradient><linearGradient x1="-75.953%" y1="81.229%" x2="27.783%" y2="59.253%" id="aE"><stop stop-color="#D0CFCF" offset="0%"/><stop stop-color="#DADADA" offset="31%"/><stop stop-color="#F6F6F6" offset="85%"/><stop stop-color="#FFF" offset="100%"/></linearGradient><linearGradient x1="-4.203%" y1="53.183%" x2="199.073%" y2="34.762%" id="aF"><stop stop-color="#FFF" offset="0%"/><stop stop-color="#A8A7A7" offset="49%"/><stop stop-color="#D0CFCF" offset="100%"/></linearGradient><linearGradient x1="-2.591%" y1="52.952%" x2="191.947%" y2="35.368%" id="aG"><stop stop-color="#FFF" offset="0%"/><stop stop-color="#EDECEC" offset="9%"/><stop stop-color="#BBBABA" offset="36%"/><stop stop-color="#A8A7A7" offset="49%"/><stop stop-color="#D0CFCF" offset="100%"/></linearGradient><linearGradient x1="17.309%" y1="51.669%" x2="197.476%" y2="37.801%" id="aH"><stop stop-color="#FFF" offset="0%"/><stop stop-color="#A8A7A7" offset="46%"/><stop stop-color="#D0CFCF" offset="100%"/></linearGradient><linearGradient x1="80.06%" y1="48.79%" x2="246.268%" y2="33.335%" id="aI"><stop stop-color="#114088" offset="0%"/><stop stop-color="#1C296D" offset="50%"/><stop stop-color="#114088" offset="100%"/></linearGradient><linearGradient x1="254.261%" y1="23.437%" x2="588.591%" y2="-16.857%" id="aJ"><stop stop-color="#FFF" offset="0%"/><stop stop-color="#D0CFCF" offset="50%"/><stop stop-color="#FFF" offset="100%"/></linearGradient><linearGradient x1="-312.937%" y1="87.258%" x2="73.556%" y2="45.231%" id="aK"><stop stop-color="#FFF" offset="0%"/><stop stop-color="#D0CFCF" offset="50%"/><stop stop-color="#FFF" offset="100%"/></linearGradient><linearGradient x1="34.069%" y1="53.265%" x2="402.915%" y2="19.488%" id="aL"><stop stop-color="#114088" offset="0%"/><stop stop-color="#1C296D" offset="50%"/><stop stop-color="#114088" offset="100%"/></linearGradient><linearGradient x1="-168.93%" y1="78.331%" x2="285.319%" y2="21.683%" id="aM"><stop stop-color="#F2D429" offset="0%"/><stop stop-color="#C29417" offset="50%"/><stop stop-color="#F2D429" offset="100%"/></linearGradient><linearGradient x1="229.471%" y1="26.383%" x2="587.27%" y2="-16.752%" id="aN"><stop stop-color="#E7B82D" offset="0%"/><stop stop-color="#BF8418" offset="50%"/><stop stop-color="#E7B82D" offset="100%"/></linearGradient><linearGradient x1="-59.061%" y1="63.147%" x2="170.141%" y2="29.278%" id="aO"><stop stop-color="#114088" offset="0%"/><stop stop-color="#1C296D" offset="50%"/><stop stop-color="#114088" offset="100%"/></linearGradient><linearGradient x1="39.443%" y1="50%" x2="220.703%" y2="38.713%" id="aP"><stop stop-color="#F2D429" offset="0%"/><stop stop-color="#C29417" offset="50%"/><stop stop-color="#F2D429" offset="100%"/></linearGradient><linearGradient x1="-137.27%" y1="75.404%" x2="70.634%" y2="51.131%" id="aQ"><stop stop-color="#E7B82D" offset="0%"/><stop stop-color="#BF8418" offset="50%"/><stop stop-color="#E7B82D" offset="100%"/></linearGradient><linearGradient x1="148.971%" y1="42.405%" x2="330.18%" y2="23.589%" id="aR"><stop stop-color="#20944A" offset="0%"/><stop stop-color="#16783E" offset="50%"/><stop stop-color="#20944A" offset="100%"/></linearGradient><linearGradient x1="15.023%" y1="54.44%" x2="245.653%" y2="31.965%" id="aS"><stop stop-color="#FFF" offset="0%"/><stop stop-color="#F3F3F3" offset="20%"/><stop stop-color="#D4D3D3" offset="57%"/><stop stop-color="#A8A7A7" offset="100%"/></linearGradient><linearGradient x1="82.441%" y1="54.031%" x2="-149.594%" y2="147.912%" id="aT"><stop stop-color="#FFF" offset="0%"/><stop stop-color="#E3E3E3" offset="54%"/><stop stop-color="#D0CFCF" offset="100%"/></linearGradient><linearGradient x1="-139.447%" y1="71.646%" x2="106.533%" y2="40.023%" id="aU"><stop stop-color="#FFF" offset="0%"/><stop stop-color="#A8A7A7" offset="41%"/><stop stop-color="#BAB9B9" offset="56%"/><stop stop-color="#E9E9E9" offset="87%"/><stop stop-color="#FFF" offset="100%"/></linearGradient><linearGradient x1="-16.216%" y1="55.813%" x2="222.814%" y2="26.752%" id="aV"><stop stop-color="#FFF" offset="0%"/><stop stop-color="#E1E0E0" offset="17%"/><stop stop-color="#B8B7B7" offset="42%"/><stop stop-color="#A8A7A7" offset="54%"/><stop stop-color="#FFF" offset="100%"/></linearGradient><linearGradient x1="16.656%" y1="65.164%" x2="132.181%" y2="12.622%" id="aW"><stop stop-color="#FFF" offset="0%"/><stop stop-color="#D0CFCF" offset="100%"/></linearGradient><linearGradient x1="-79.438%" y1="59.976%" x2="127.31%" y2="40.833%" id="aX"><stop stop-color="#FFF" offset="0%"/><stop stop-color="#A8A7A7" offset="46%"/><stop stop-color="#D0CFCF" offset="100%"/></linearGradient></defs><g fill="none" fill-rule="evenodd"><path d="M42.43 11.47c0 2.29 1.571 3.417 3.706 3.417s3.706-1.123 3.706-3.417V6.36a.107.107 0 00-.108-.108h-2.07a.108.108 0 00-.109.107v5.084c0 .971-.458 1.523-1.44 1.514-.78-.006-1.398-.662-1.398-1.439V6.36a.107.107 0 00-.108-.107h-2.07a.108.108 0 00-.108.107v5.11zm8.903-5.218a.108.108 0 00-.11.107v8.295c0 .06.049.107.108.108h5.952c.06 0 .108-.049.108-.108v-1.7a.108.108 0 00-.108-.107H53.51v-1.464h2.982c.06 0 .108-.049.108-.108v-1.6a.108.108 0 00-.108-.107h-2.982V8.164h3.597a.107.107 0 00.108-.107V6.358a.107.107 0 00-.107-.106H51.33h.002zm7.271 0a.108.108 0 00-.108.107v8.295c0 .06.048.107.108.108h2.07a.108.108 0 00.108-.108v-2.846h2.995c.06 0 .108-.048.108-.107V10a.108.108 0 00-.108-.108h-2.994V8.166h3.567a.106.106 0 00.096-.06l.811-1.701a.106.106 0 00-.096-.153H58.604zm10.84 7.483h-2.98l-.4.96a.108.108 0 01-.098.067h-1.994a.107.107 0 01-.096-.153L67.962 6.1c.038-.087.113-.087.151 0l4.072 8.508a.107.107 0 01-.097.153h-2.122a.108.108 0 01-.1-.064l-.422-.963zm-2.276-1.651h1.545l-.779-1.803-.766 1.803zM66.787 16.283a.108.108 0 00-.108.108v8.416a.108.108 0 00.108.108h2.101a.109.109 0 00.11-.108V16.39a.108.108 0 00-.11-.108h-2.1zm3.344 4.316c0-2.602 2.153-4.418 4.65-4.418 2.497 0 4.65 1.816 4.65 4.418 0 2.603-2.153 4.43-4.65 4.43-2.497 0-4.65-1.824-4.65-4.43zm6.932 0c0-1.358-.829-2.412-2.28-2.412-1.453 0-2.282 1.053-2.282 2.412 0 1.36.828 2.428 2.281 2.428 1.453 0 2.28-1.066 2.28-2.425V20.6zM60.97 24.81a.108.108 0 00.11.11h2.1a.11.11 0 00.11-.11v-6.584h2.184a.108.108 0 00.108-.108V16.39a.108.108 0 00-.108-.108h-7.596a.108.108 0 00-.098.155l.824 1.726a.108.108 0 00.098.061h2.268v6.584zm28.347-1.255a.109.109 0 00-.004.15c.594.65 1.66 1.34 3.376 1.34 2.293 0 3.287-1.143 3.287-2.73 0-1.218-.586-2.044-2.319-2.615l-1.145-.384c-.422-.14-.612-.304-.612-.632 0-.342.282-.596.841-.596.669 0 1.12.24 1.473.59.009.01 1.005-.997 1.284-1.279a.109.109 0 00.004-.15c-.522-.565-1.425-1.065-2.889-1.065-1.542 0-2.96.876-2.96 2.577 0 1.422.893 2.183 2.154 2.602l1.02.343c.573.19.853.368.853.736 0 .483-.408.686-1.096.686-.814 0-1.36-.415-1.772-.897a.11.11 0 00-.161-.007l-1.334 1.331zm-1.182 1.515c.14.114.178.076.178-.025V16.39a.108.108 0 00-.11-.11h-1.962a.11.11 0 00-.11.11v4.22l-5.44-4.47c-.14-.113-.178-.05-.178.026v8.635a.109.109 0 00.11.11h1.96c.06 0 .109-.05.109-.11v-4.191l5.443 4.458zm-38.085 0c.141.114.179.076.179-.025v-8.65a.11.11 0 00-.11-.109h-1.96c-.06 0-.109.049-.109.11v4.216l-5.44-4.47c-.141-.113-.18-.05-.18.026v8.635c0 .06.05.11.11.11h1.96a.11.11 0 00.11-.11v-4.191l5.44 4.458zm6.702-1.193h-3.019l-.405.973a.11.11 0 01-.101.07h-2.022a.11.11 0 01-.098-.156l4.142-8.629c.039-.088.115-.088.153 0l4.13 8.63a.108.108 0 01-.1.156h-2.15a.11.11 0 01-.1-.066l-.43-.978zM54.446 22.2h1.569l-.79-1.825-.779 1.825zM42.54 26.44a.109.109 0 00-.108.108v8.414a.109.109 0 00.109.11h5.782a.11.11 0 00.109-.11v-1.723a.109.109 0 00-.11-.11H44.75v-6.58a.108.108 0 00-.11-.11h-2.1zm7.072 0c-.06 0-.11.048-.11.108v8.414a.109.109 0 00.11.11h6.037a.11.11 0 00.11-.11v-1.723a.109.109 0 00-.11-.11h-3.827v-1.485h3.024a.11.11 0 00.11-.109v-1.622a.108.108 0 00-.11-.11h-3.024v-1.42h3.649a.11.11 0 00.109-.11v-1.725a.108.108 0 00-.11-.108h-5.858zm24.393 5.293c0 2.323 1.592 3.466 3.758 3.466s3.758-1.143 3.758-3.467v-5.184a.108.108 0 00-.11-.108h-2.1a.11.11 0 00-.11.108v5.16c0 .983-.464 1.544-1.461 1.536-.79-.007-1.417-.672-1.417-1.46v-5.236a.109.109 0 00-.11-.108h-2.1a.109.109 0 00-.109.108v5.184zm9.04-5.294a.11.11 0 00-.11.109v8.414c0 .06.05.11.11.11h6.037a.11.11 0 00.11-.11v-1.723a.11.11 0 00-.11-.11h-3.827v-1.485h3.025a.11.11 0 00.109-.109v-1.622a.108.108 0 00-.11-.11h-3.024v-1.42h3.65a.11.11 0 00.109-.11v-1.725a.109.109 0 00-.11-.108h-5.858v-.001zm-12.175 6.46c-.37.177-.841.342-1.682.342-1.529 0-2.318-1.13-2.318-2.488 0-1.359.775-2.412 2.19-2.412.817 0 1.41.327 1.833.832a.11.11 0 00.163.008l1.357-1.363a.11.11 0 00.004-.15c-.756-.843-1.89-1.334-3.307-1.334-2.498 0-4.612 1.815-4.612 4.417 0 2.603 2.114 4.431 4.663 4.431 1.923 0 2.968-.533 3.772-1.193v-3.62a.109.109 0 00-.11-.108H69.26c-.06 0-.11.048-.11.109v1.559c0 .06.05.109.11.109h1.61v.86zm-8.779 1.129h-3.02l-.405.974a.11.11 0 01-.1.067h-2.022a.11.11 0 01-.099-.156l4.142-8.626c.038-.089.115-.089.153 0l4.13 8.629a.108.108 0 01-.099.156h-2.15a.11.11 0 01-.1-.065l-.43-.98zm-2.306-1.676h1.567l-.79-1.825-.777 1.825z" fill="#FFF" fill-rule="nonzero"/><path d="M89.796 26.72v-.23a.027.027 0 01.028-.028h1.19a.028.028 0 01.028.028v.23a.027.027 0 01-.028.028h-.423v1.316a.027.027 0 01-.028.028h-.276a.028.028 0 01-.028-.028v-1.316h-.436a.028.028 0 01-.028-.028M91.359 26.44h.03l.766.827a.042.042 0 00.06 0l.767-.827h.028v1.614a.04.04 0 01-.04.04h-.246a.04.04 0 01-.04-.04v-.912l-.471.537a.04.04 0 01-.06 0l-.465-.537v.912a.04.04 0 01-.04.04h-.251a.04.04 0 01-.04-.04l.002-1.614zM1.853 3.58a.15.15 0 00-.211-.14A4.077 4.077 0 00.157 4.563a.71.71 0 00-.157.45v36.373c0 .182.084.354.228.467l1.36 1.112a.164.164 0 00.265-.129V3.58z" fill="#FFF"/><path d="M7.253 11.357l-.031-.124c.69-1.086 1.346-2.196 1.983-3.269a106.183 106.183 0 011.973-3.24l.22-.16.22.033a35.135 35.135 0 014.376 3.392v.13l-.217.095c-2.007.088-4.487 1.297-6.889 2.464-.472.23-.959.465-1.432.687l-.203-.008z" fill="url(#a)"/><path d="M29.49 12.438c-1.559 0-3.266-.406-5.213-1.238l-.259-.21.018-.14c.992-.881 1.739-1.583 2.512-2.452l.186-.07.236.106c1.273 1.284 2.707 2.446 4.375 3.555l.028.133-.198.14a8.06 8.06 0 01-1.685.175v.001z" fill="url(#b)"/><path d="M31.72 18.604a1.698 1.698 0 01-1.384-.675 2.564 2.564 0 01-.52-1.303l.087-.089.09-.09c.156.007.307.01.456.01a9.472 9.472 0 003.453-.632l.097.062.095.063c.004.555-.193 1.124-.577 1.652-.423.628-1.093 1.005-1.797 1.005v-.003z" fill="url(#c)"/><path d="M29.903 16.534l-.086.09c-.51-.021-1.018-.068-1.522-.14l-.228-.126.005-.14c1.116-1.124 2.132-2.418 3.1-3.957l.198-.14.234.041a53.81 53.81 0 004.41 2.593l.081.149-.31.294c-.494.28-1.085.505-1.691.745l-.096-.063-.097-.062c-.044-.65-.393-1.216-.986-1.597a1.576 1.576 0 00-.856-.24c-.63 0-1.21.315-1.59.864a2.649 2.649 0 00-.475 1.6l-.09.09z" fill="url(#d)"/><path d="M29.574 20.93c-1.526 0-2.937-.42-4.8-1.417l-.259-.24.029-.137c1.127-.816 2.223-1.633 3.327-2.715l.196-.064.228.125a37.65 37.65 0 003.794 3.861l.005.14-.234.148a9.886 9.886 0 01-2.286.298v.002z" fill="url(#e)"/><path d="M27.871 16.42c-.509-.09-1.012-.21-1.507-.357l-.104-.13-.114-.134a3.714 3.714 0 00-.597-1.407c-.634-.939-1.406-1.522-2.017-1.522a.81.81 0 00-.536.194c-.282.235-.38.722-.277 1.343l-.083.062-.084.063a21.155 21.155 0 01-1.409-.757l-.318-.285.022-.134c1.124-.823 2.073-1.53 3.003-2.342l.17-.026.259.21a60.982 60.982 0 003.793 5.02l-.005.14-.196.063z" fill="url(#f)"/><path d="M25.298 17.524c-.692 0-1.572-.643-2.191-1.598a4.1 4.1 0 01-.555-1.394l.084-.063.083-.062a25.188 25.188 0 003.427 1.393l.114.133.104.13c.03.589-.17 1.053-.573 1.322a.876.876 0 01-.494.14l.001-.001z" fill="#0C090B"/><path d="M2.84 17.029c1.647-1.534 2.884-3.44 4.171-5.46l.242-.21.203.008a82.397 82.397 0 004.289 2.19l.036.119-.29.295a30.59 30.59 0 01-1.754 1.016l-.091-.057-.094-.055c.009-.65-.246-1.133-.722-1.364a1.23 1.23 0 00-.542-.122c-.666 0-1.73.561-2.601 1.809a3.222 3.222 0 00-.55 1.44l-.107.125-.098.125c-.641.174-1.293.309-1.95.403l-.212-.07.07-.192z" fill="url(#g)"/><path d="M7.52 20.76l-.026-.124c1.268-1.791 2.207-3.477 3.035-4.965.334-.601.65-1.175.963-1.702l.289-.295.195-.01c2.202 1.056 3.628 1.895 4.862 2.865v.128l-.282.14c-2.082.36-4.12 1.496-5.93 2.504-1.018.565-1.982 1.1-2.895 1.477l-.21-.017z" fill="url(#h)"/><path d="M7.52 30.173l-.024-.125c1.705-2.215 2.972-4.493 4.177-6.705l.27-.302.192-.02a28.06 28.06 0 014.738 2.635l.012.132-.262.158c-1.452.38-2.869 1.203-4.363 2.065-1.436.83-2.919 1.68-4.517 2.184l-.223-.022z" fill="url(#i)"/><path d="M16.55 23.806a2.542 2.542 0 01-1.604-.54c-.43-.344-.679-.89-.695-1.515l.094-.146.102-.146c1.153-.491 2.288-.74 3.375-.74.376 0 .75.03 1.122.09l.116.114.11.118a2.44 2.44 0 01-.704 2.019c-.467.467-1.183.746-1.916.746z" fill="url(#j)"/><path d="M11.902 22.92c1.325-2.42 2.811-4.375 4.65-6.124l.282-.14.233.07c1.501 1.23 2.789 2.753 4.142 4.89l-.02.14-.172.016c-.564-.289-1.189-.594-1.85-.731l-.107-.12-.116-.115a2.803 2.803 0 00-.469-1.116c-.364-.496-.885-.769-1.466-.769-.63 0-1.282.317-1.792.87a2.869 2.869 0 00-.773 1.668l-.102.146-.094.146c-.65.299-1.365.756-2.114 1.27l-.191.02-.041-.12z" fill="url(#k)"/><path d="M25.526 25.983c-.634 0-1.49-.71-2.137-1.767a4.31 4.31 0 01-.579-1.493l.085-.063.086-.06c1.026.54 2.138 1.089 3.346 1.486l.106.132.099.128c.015.688-.202 1.26-.583 1.514a.755.755 0 01-.423.123z" fill="url(#l)"/><path d="M7.496 30.047a18.971 18.971 0 01-4.527-3.72l-.2-.085v4.51l.077.108c.282.04.567.058.852.056 1.002 0 2.233-.2 3.575-.577l.247-.167-.024-.125z" fill="url(#m)"/><path d="M24.816 27.6c-1.487-.843-3.459-1.947-5.9-1.947a9.21 9.21 0 00-1.806.182l-.225-.046-.012-.132c1.146-1.277 2.506-2.55 4.148-3.885l.17-.016.256.235c1.291 2.054 2.408 3.82 3.557 5.473l-.023.133-.165.002z" fill="url(#n)"/><path d="M35.549 23.097l-.2.214a40.333 40.333 0 01-2.844 5.125l.025.137.211.04a15.866 15.866 0 003.088-1.206l.05-.131a22.28 22.28 0 01-.33-4.179z" fill="url(#o)"/><path d="M29.895 28.987c-1.61 0-3.197-.39-4.624-1.135l-.29-.255.023-.134c1.159-.839 2.158-1.772 3.15-2.738l.2-.065.215.113a23.868 23.868 0 003.936 3.66l.025.137-.2.136c-.798.18-1.615.275-2.434.28l-.001.001z" fill="url(#p)"/><path d="M7.388 37.51a2.351 2.351 0 01-1.317-.41 2.261 2.261 0 01-.947-1.598l.085-.098.086-.1c1.62-.119 3.206-.53 4.68-1.211l.1.056.096.057c.02.591-.172 1.238-.563 1.877-.558.92-1.347 1.427-2.224 1.427h.004z" fill="url(#q)"/><path d="M25.627 14.34c-.826-1.227-1.973-1.952-2.692-1.349-.347.292-.41.869-.3 1.475a24.821 24.821 0 003.625 1.463c-.056-.502-.278-1.064-.633-1.59z" fill="url(#r)"/><path d="M26.422 33.95c-.62 0-1.566-.49-2.17-1.42a5.024 5.024 0 01-.709-1.655l.086-.07.085-.07c.613.25 1.15.5 1.67.746.605.28 1.179.555 1.767.766l.117.14.108.137c.024.579-.173 1.083-.517 1.309a.781.781 0 01-.437.113v.005z" fill="url(#s)"/><path d="M31.978 26.668c-.422 0-.83-.145-1.157-.412a1.917 1.917 0 01-.718-1.411l.093-.097.093-.097c1.206-.065 2.396-.345 3.625-.856l.1.058.1.063a3.206 3.206 0 01-.473 1.75c-.386.636-.993 1.001-1.663 1.001v.001z" fill="url(#t)"/><path d="M24.342 19.28c-.22-.123-.452-.255-.693-.393-1.687-.976-3.787-2.19-6.005-2.19-.193 0-.384.01-.573.028l-.233-.07v-.129c1.268-1.167 2.567-2.116 3.813-3.027l.175-.013.319.285c.839 1.188 1.64 2.494 2.48 3.868.299.488.608.991.92 1.494l-.027.137-.176.01z" fill="url(#u)"/><path d="M21.192 21.756c-.69-.36-1.384-.699-2.132-.833a2.345 2.345 0 01-.66 2.07c-.797.798-2.363 1.024-3.395.199-.451-.36-.68-.946-.66-1.587-.755.334-1.59.869-2.402 1.436a27.995 27.995 0 014.942 2.747c1.109-1.245 2.505-2.576 4.307-4.032z" fill="url(#v)"/><path d="M2.853 26.046c1.891-1.685 3.179-3.37 4.41-5.085l.257-.198.211.015a41.303 41.303 0 004.172 2.144l.041.121-.27.302c-.585.417-1.192.801-1.82 1.15l-.095-.055-.095-.056c-.023-.55-.25-.955-.671-1.207a1.603 1.603 0 00-.832-.227c-.74 0-1.565.476-2.264 1.308a3.17 3.17 0 00-.72 1.663l-.104.111-.099.111c-.664.1-1.333.162-2.005.184l-.2-.085.084-.196z" fill="url(#w)"/><path d="M3.223 21.844c-.126 0-.25 0-.369-.011l-.085-.1v-4.511l.211.07c1.188 1.128 2.819 2.337 4.516 3.345l.026.124-.257.198c-1.558.587-2.92.885-4.042.885z" fill="url(#x)"/><path d="M28.047 8.49c-.352 0-.717-.025-1.077-.056l-.236-.106-.019-.16a18.803 18.803 0 002.783-4.127l.203-.14.22.038c1.134.772 2.904 1.662 4.352 2.186l.112.14-.233.298a9.361 9.361 0 01-1.46.898l-.102-.054-.106-.053c-.13-.632-.54-1.137-1.162-1.43a1.634 1.634 0 00-.7-.159c-.69 0-1.355.46-1.69 1.17a2.343 2.343 0 00-.222 1.35l-.08.097-.075.098c-.168.007-.338.01-.508.01z" fill="url(#y)"/><path d="M29.058 32.842a7.055 7.055 0 01-1.681-.314l-.11-.137-.117-.14c-.061-.366-.23-.871-.667-1.425-.695-.884-1.463-1.41-2.054-1.41a.768.768 0 00-.52.186c-.22.19-.291.603-.195 1.138l-.084.07-.086.07a17.1 17.1 0 00-1.51-.532l-.273-.17v-.133c1.057-.973 2.086-1.746 3.052-2.44h.166l.29.255c1.344 1.9 2.645 3.47 3.976 4.791l.007.13-.194.061z" fill="url(#z)"/><path d="M29.76 24.852c-.399-.003-.796-.03-1.191-.08l-.215-.113.007-.136a42.916 42.916 0 003.499-3.891l.234-.148.199.046a33.527 33.527 0 003.17 2.4l.083.168-.2.214c-.413.224-.828.43-1.235.604l-.098-.063-.101-.058c-.042-.445-.212-.815-.479-1.048a1.466 1.466 0 00-.975-.37c-.58 0-1.18.33-1.647.908a2.353 2.353 0 00-.524 1.366l-.093.097-.093.097c-.114.004-.23.007-.343.007h.002z" fill="url(#A)"/><path d="M36.098 14.905l-.31.294c-1.465 2.166-2.644 3.805-3.699 5.144l.005.14.199.047c1.2-.332 2.359-.8 3.452-1.395l.12-.177c.182-1.343.26-2.698.233-4.053z" fill="url(#B)"/><path d="M6.482 18.798a1.535 1.535 0 01-.926-.305c-.423-.309-.653-.903-.63-1.605l.101-.123.11-.127c1.44-.448 2.904-.966 4.415-1.767l.094.056.091.057c-.031.584-.253 1.23-.642 1.876-.732 1.212-1.707 1.936-2.607 1.936l-.006.002z" fill="url(#C)"/><path d="M16.547 14.936a2.835 2.835 0 01-1.892-.711 2.159 2.159 0 01-.732-1.582l.098-.136.106-.14c.75-.25 1.535-.38 2.325-.382.727.002 1.45.112 2.145.327l.118.137.11.14a2.275 2.275 0 01-.6 1.712c-.383.404-.993.632-1.673.632l-.005.003z" fill="url(#D)"/><path d="M2.769 12.71V8.2l.206.06c1.155 1.034 2.619 2.06 4.247 2.973l.031.124-.242.21c-1.69.764-3.18 1.208-4.157 1.234l-.085-.09z" fill="url(#E)"/><path d="M28.354 24.66l-.2.066a11.69 11.69 0 01-1.62-.38l-.099-.128-.106-.132a3.353 3.353 0 00-.445-1.326c-.708-1.208-1.507-1.637-1.972-1.637a.913.913 0 00-.645.28c-.254.247-.352.67-.282 1.2l-.086.06-.084.062c-.248-.13-.492-.26-.733-.391-.217-.117-.423-.232-.63-.341l-.256-.235.02-.14c.977-.786 1.888-1.439 2.769-2.072l.361-.262.174-.009.258.241c.923 1.469 2.133 3.294 3.587 5.011l-.011.134z" fill="url(#F)"/><path d="M12.387 32.766l-.043-.126c1.116-2.214 2.225-4.343 4.279-6.694l.262-.158.225.046a27.17 27.17 0 014.65 4.206v.133l-.177.043a9.333 9.333 0 00-1.983-.239l-.103-.097-.107-.095c-.07-.497-.298-.97-.66-1.288-.364-.318-.78-.492-1.217-.492-.783 0-1.6.553-2.185 1.479-.314.499-.549 1.063-.592 1.555l-.102.161-.091.16c-.7.391-1.344.916-1.984 1.382l-.172.024z" fill="url(#G)"/><path d="M23.849 11.013a57.2 57.2 0 01-1.667-.796c-1.932-.95-3.933-1.939-5.95-2.008l-.238-.09v-.13c1.221-1.228 2.723-2.269 3.8-2.97l.186-.011.352.316c1.017 1.364 1.903 2.738 2.69 3.969.361.562.704 1.096 1.011 1.554l-.017.14-.167.026z" fill="url(#H)"/><path d="M34.384 6.266l-.233.297c-.968 2.158-1.89 3.935-2.807 5.426l.028.133.234.042c1.268-.32 2.687-.747 3.881-1.447l.062-.146c-.407-1.785-.92-3.208-1.165-4.305z" fill="url(#I)"/><path d="M6.379 9.348a1.665 1.665 0 01-1.007-.334c-.338-.249-.53-.714-.54-1.29l.096-.133.101-.137c1.062-.4 1.95-.898 2.812-1.38.462-.259.938-.526 1.432-.772l.1.057.097.056c.038.646-.155 1.391-.534 2.056-.66 1.158-1.64 1.877-2.557 1.877z" fill="url(#J)"/><path d="M33.314 34.577c-1.05 0-1.953-.74-2.155-1.766l.081-.106.085-.108c1.38-.177 2.638-.561 3.696-.923l.12.058.117.06c.168.64.077 1.321-.253 1.895-.321.549-.969.89-1.691.89z" fill="url(#K)"/><path d="M11.78 13.674l-.035-.119c1.319-2.146 2.64-3.896 4.032-5.342l.22-.095.235.091a35.268 35.268 0 014.615 5.147l-.023.133-.175.013c-.668-.393-1.194-.696-1.832-.913l-.11-.14-.118-.137a2.53 2.53 0 00-.616-1.239c-.507-.566-1.128-.879-1.74-.879-.55 0-1.068.24-1.475.709a2.689 2.689 0 00-.637 1.463l-.106.14-.099.136c-.68.245-1.24.58-1.943 1.02l-.192.012z" fill="url(#L)"/><path d="M29.819 32.873c-.11 0-.223-.003-.333-.007l-.232-.093-.007-.13a31.06 31.06 0 003.084-3.932l.2-.136.21.04a21.894 21.894 0 004.131 2.318l.15.165-.148.14c-.345.107-.679.23-1.09.376l-.528.184-.117-.06-.12-.058a1.84 1.84 0 00-.832-1.004 2.084 2.084 0 00-1.028-.287 1.763 1.763 0 00-1.474.807 2.235 2.235 0 00-.362 1.407l-.085.108-.081.106c-.445.046-.892.067-1.339.062v-.006z" fill="url(#M)"/><path d="M30.72 10.313c-.45 0-.911-.189-1.368-.562a2.264 2.264 0 01-.794-1.272l.076-.098.08-.098a10.084 10.084 0 003.767-.93l.106.054.103.054c.059.448 0 .905-.172 1.324-.385.973-1.042 1.528-1.798 1.528z" fill="url(#N)"/><path d="M33.497 22.676c-.785-.684-1.94-.463-2.757.55-.35.431-.542.968-.544 1.522 1.188-.052 2.456-.321 3.819-.895-.033-.475-.204-.903-.518-1.177z" fill="url(#O)"/><path d="M25.896 25.781c-.627.416-1.7-.421-2.426-1.615a4.194 4.194 0 01-.575-1.507c-.584-.307-1.15-.616-1.703-.905 1.358 2.159 2.568 4.09 3.79 5.841 1.212-.868 2.233-1.825 3.372-2.936a11.67 11.67 0 01-1.92-.439c.046.702-.158 1.309-.538 1.561z" fill="url(#P)"/><path d="M14.686 10.844a2.733 2.733 0 00-.665 1.663c1.64-.562 3.162-.547 4.693-.054a2.607 2.607 0 00-.662-1.44c-1.012-1.129-2.427-1.25-3.366-.17z" fill="url(#Q)"/><path d="M16.704 33.207a2.293 2.293 0 01-.96-.217c-.71-.325-1.162-.901-1.197-1.63l.09-.16.104-.16c1.577-.843 3.13-1.25 4.65-1.257l.106.095.104.098c.034.69-.185 1.37-.616 1.911-.662.85-1.472 1.32-2.28 1.32h-.001z" fill="url(#R)"/><path d="M34.236 30.587c-1.022-.577-2.069-.28-2.628.55a2.337 2.337 0 00-.368 1.568c1.467-.177 2.782-.587 3.901-.973a1.955 1.955 0 00-.905-1.145z" fill="url(#S)"/><path d="M33.973 36.064c-.366-.178-2.422-1.213-4.487-3.198l-.232-.093-.196.07c-1.127 1.184-2.184 2.095-3.34 2.828l-.034.14c2.32 1.276 4.996 1.432 8.304.373l-.015-.12z" fill="url(#T)"/><path d="M17.81 34.974c-.787-.364-1.621-.723-2.508-1.108-.895-.39-1.82-.702-2.741-1.124l-.174.024-.261.311-.218.436c-.973 1.966-1.985 3.913-3.941 6.048l.015.124c4.584-.93 6.075-2.904 9.864-4.585l-.037-.126z" fill="url(#U)"/><path d="M4.304 35.462c-.435-.002-.87-.029-1.302-.08l-.233-.114.07-.176c1.927-1.579 3.171-3.124 4.435-4.75l.247-.168.225.024c1.268.74 2.695 1.56 4.6 2.443l.042.126-.26.311c-.62.428-1.274.806-1.955 1.13l-.097-.058-.1-.056c-.055-.62-.374-1.117-.885-1.37a2.15 2.15 0 00-.964-.22c-.909 0-1.848.52-2.395 1.324a2.43 2.43 0 00-.438 1.478l-.086.1-.085.098c-.29.018-.559-.04-.82-.04v-.002z" fill="url(#V)"/><path d="M11.78 13.674c-.733.47-1.442.886-2.134 1.255-.02.562-.226 1.212-.634 1.884-1.002 1.66-2.424 2.317-3.4 1.604-.447-.327-.635-.962-.585-1.652-.813.21-1.44.36-2.26.457 1.081 1.053 2.747 2.36 4.75 3.539 1.943-2.719 3.122-5.22 4.264-7.087z" fill="url(#W)"/><path d="M19.795 5.018a10.477 10.477 0 00-1.842-.714l-.12-.135-.13-.134a3.15 3.15 0 00-.652-1.217c-.493-.571-1.104-.9-1.67-.9-.427 0-.824.18-1.18.533-.356.353-.552.892-.547 1.47l-.091.113-.088.114c-.584.106-1.157.25-1.857.447l-.22-.032-.028-.128c1.357-2.061 2.598-3.46 3.79-4.262l.238-.042.326.134c1.239.996 2.747 2.618 4.28 4.617l-.023.128-.186.008z" fill="url(#X)"/><path d="M33.441 17.541c-.762 1.139-2.291 1.3-3.03.328a2.484 2.484 0 01-.507-1.334 16.383 16.383 0 01-1.837-.177c1.317 1.544 2.627 2.915 4.027 4.128 1.22-1.54 2.516-3.37 4.004-5.58-.692.433-1.465.728-2.098.976.02.533-.158 1.107-.559 1.66z" fill="url(#Y)"/><path d="M22.034 30.342l-.273-.169-.177.043a20.685 20.685 0 00-3.775 4.758l.036.126c3.391-1.505 6.44-.057 7.84.713l.033-.14c-.974-1.919-2.271-3.675-3.684-5.33z" fill="url(#Z)"/><path d="M6.823 28.098a1.944 1.944 0 01-1.262-.45c-.391-.327-.602-.87-.589-1.505l.099-.11.106-.114a15.277 15.277 0 004.486-1.537l.096.056.095.055c-.005.682-.29 1.492-.79 2.235-.584.87-1.4 1.37-2.241 1.37z" fill="url(#aa)"/><path d="M15.149 19.727a2.93 2.93 0 00-.804 1.875c1.702-.75 3.268-.94 4.715-.682a2.983 2.983 0 00-.508-1.286c-.851-1.156-2.378-1.018-3.403.093z" fill="url(#ab)"/><path d="M37.025 31.093l-.149.14c-.609 1.685-1.78 3.634-2.903 4.832l.015.122c2.98-.956 4.835-1.085 4.835-1.085s-.878-1.895-1.798-4.01z" fill="url(#ac)"/><path d="M7.969 39.56a30.059 30.059 0 01-4.967-4.177l-.233-.115v4.27s2.28.742 5.214.147l-.014-.124z" fill="url(#ad)"/><path d="M9.13 32.639c-1.207-.598-2.73.037-3.475 1.134a2.513 2.513 0 00-.446 1.63 13.7 13.7 0 004.867-1.254c-.042-.691-.389-1.235-.945-1.51z" fill="#0C090B"/><path d="M10.076 34.149c.033.555-.132 1.205-.545 1.886-.957 1.58-2.428 1.647-3.406.986a2.162 2.162 0 01-.916-1.614c-.8.052-1.55-.022-2.44-.137a30.49 30.49 0 005.214 4.418c2.276-2.463 3.301-4.73 4.402-6.92-.722.535-1.496.998-2.31 1.38z" fill="url(#ae)"/><path d="M34.921 33.64c-.516.884-1.875 1.12-2.796.474-.557-.39-.817-.9-.885-1.41-.658.083-1.323.106-1.986.07 2.363 2.33 4.734 3.413 4.734 3.413 1.111-1.163 2.391-3.208 3.037-5.092-.547.157-1.14.382-1.884.639a2.422 2.422 0 01-.22 1.906z" fill="url(#af)"/><path d="M9.04 23.097c-.967-.575-2.22-.083-3.216 1.1a3.24 3.24 0 00-.751 1.835 15.295 15.295 0 004.686-1.594c-.01-.56-.22-1.047-.72-1.34z" fill="url(#ag)"/><path d="M16.135 6.426c-.621 0-1.28-.243-1.81-.668-.49-.4-.796-.981-.846-1.61l.088-.114.091-.113a11.233 11.233 0 011.873-.167 8.388 8.388 0 012.175.28l.13.135.12.134c.09.632-.07 1.193-.467 1.596-.34.345-.806.527-1.351.527h-.003z" fill="url(#ah)"/><path d="M18.791 28.424c-1.16-1.018-2.628-.44-3.54 1.01-.376.594-.604 1.234-.616 1.765 1.592-.876 3.204-1.357 4.862-1.322-.05-.525-.272-1.074-.706-1.453z" fill="url(#ai)"/><path d="M25.964 22.712c-.67-1.14-1.884-2.232-2.767-1.378-.304.294-.385.782-.302 1.326 1.108.584 2.278 1.158 3.538 1.558a3.447 3.447 0 00-.469-1.506z" fill="url(#aj)"/><path d="M27.268 32.391c.066.641-.141 1.155-.463 1.366-.493.324-1.756-.172-2.474-1.28a4.905 4.905 0 01-.705-1.67 17.29 17.29 0 00-1.868-.632c1.761 2.02 3.09 3.983 3.923 5.64 1.293-.81 2.43-1.826 3.57-3.04a7.034 7.034 0 01-1.983-.384z" fill="url(#ak)"/><path d="M7.253 11.357a80.81 80.81 0 004.528 2.317c1.334-2.18 2.7-4.012 4.215-5.556-2.509.006-5.787 1.86-8.743 3.239z" fill="url(#al)"/><path d="M24.515 19.272c1.128 1.807 2.359 3.651 3.839 5.389a43.042 43.042 0 003.74-4.175c-2.858.736-4.841.305-7.579-1.214z" fill="url(#am)"/><path d="M35.552 10.57c-1.289.783-2.865 1.228-4.177 1.551a54.048 54.048 0 004.725 2.783 20.43 20.43 0 00-.547-4.333z" fill="url(#an)"/><path d="M37.025 31.093a17.115 17.115 0 01-1.145-3.818c-.967.503-2.2 1.022-3.35 1.298a21.819 21.819 0 004.495 2.52z" fill="url(#ao)"/><path d="M35.549 23.097c.015-1.386.122-2.77.317-4.142a16.076 16.076 0 01-3.772 1.53 33.704 33.704 0 003.455 2.612z" fill="url(#ap)"/><path d="M24.02 10.987c1.38 2.03 2.71 3.8 4.047 5.37 1.089-1.084 2.175-2.412 3.306-4.235-2.238.553-4.72.035-7.354-1.135z" fill="url(#aq)"/><path d="M20.824 13.489c-.741-.445-1.369-.796-2.114-1.036a2.214 2.214 0 01-.563 1.784c-.75.79-2.412.848-3.431-.082a2.074 2.074 0 01-.695-1.648c-.767.263-1.43.65-2.237 1.167 2.027.966 3.639 1.853 5.057 2.983 1.325-1.231 2.676-2.209 3.983-3.168z" fill="url(#ar)"/><path d="M7.52 30.173c1.787-2.308 3.07-4.645 4.423-7.132-.756.528-1.474 1.023-2.184 1.397.012.713-.304 1.545-.775 2.238-.99 1.474-2.48 1.636-3.364.9-.414-.345-.591-.92-.551-1.545-.762.121-1.531.191-2.302.21a19.208 19.208 0 004.753 3.932z" fill="url(#as)"/><path d="M2.846 7.994C3.999 6.843 5.558 4.472 6.694 2.47l.247-.248.188-.025c1.48.618 2.9 1.367 4.244 2.237l.028.128-.216.162a12.09 12.09 0 00-1.711.692l-.098-.056-.1-.057c-.05-.464-.237-.806-.525-.964a1.407 1.407 0 00-.688-.168c-.846 0-1.767.598-2.402 1.562a3.776 3.776 0 00-.628 1.722l-.102.137-.098.131c-.586.211-1.116.4-1.858.537l-.206-.06.077-.205z" fill="url(#at)"/><path d="M25.738 17.306c-.628.415-1.79-.252-2.551-1.431a4.01 4.01 0 01-.551-1.405 24.17 24.17 0 01-1.812-.982c1.25 1.717 2.408 3.72 3.691 5.783 1.232-.89 2.396-1.764 3.552-2.916a12.967 12.967 0 01-1.807-.424c.064.585-.093 1.091-.522 1.375z" fill="url(#au)"/><path d="M26.548 8.398c-.432-.057-.83-.228-1.3-.387l-.13-.148-.14-.155a5.605 5.605 0 00-.815-1.56c-.526-.73-1.3-1.51-1.888-1.51a.545.545 0 00-.396.163c-.193.188-.196.652-.009 1.247l-.08.062-.08.063c-.281-.176-1.153-.713-1.372-.852l-.352-.315.022-.128c.212-.14.426-.281.634-.421.58-.394 1.128-.8 1.787-1.14l.226-.007.302.178c.793.868 1.534 1.78 2.221 2.732.54.736 1.052 1.432 1.537 1.948l.02.16-.187.07z" fill="url(#av)"/><path d="M33.56 25.618c-.689 1.135-1.94 1.173-2.677.567a1.841 1.841 0 01-.685-1.435 10.06 10.06 0 01-1.842-.09 24.287 24.287 0 004.174 3.913 40.292 40.292 0 003.019-5.476c-.497.281-1.009.534-1.534.756a3.08 3.08 0 01-.454 1.765z" fill="url(#aw)"/><path d="M24.618 9.37c-.648 0-1.562-.913-2.181-1.813a5.78 5.78 0 01-.729-1.379l.08-.063.08-.062c1.035.644 2.052 1.255 3.108 1.66l.14.155.13.146c.09.47.04.85-.15 1.111a.575.575 0 01-.48.248l.002-.003z" fill="url(#ax)"/><path d="M26.563 30.767c-1.038-1.317-2.126-1.752-2.716-1.24-.268.233-.326.713-.215 1.28 1.432.578 2.484 1.193 3.639 1.584-.054-.492-.266-1.06-.708-1.624z" fill="url(#ay)"/><path d="M34 15.882c-.026-.698-.39-1.325-1.032-1.74-.723-.464-1.903-.319-2.578.65a2.758 2.758 0 00-.487 1.742A9.661 9.661 0 0034 15.882z" fill="url(#az)"/><path d="M7.52 30.173c-1.86.55-3.569.777-4.751.581v4.513c2.126-1.717 3.456-3.422 4.751-5.094z" fill="url(#aA)"/><path d="M7.253 11.357c-1.603.748-3.348 1.35-4.484 1.353v4.512c1.797-1.629 3.109-3.708 4.484-5.865z" fill="url(#aB)"/><path d="M7.52 20.76c-2.107.828-3.649 1.06-4.751.972v4.512c2.105-1.847 3.488-3.708 4.751-5.483z" fill="url(#aC)"/><path d="M7.52 30.173c1.55.913 3.217 1.825 4.867 2.593 1.08-2.144 2.234-4.437 4.498-6.978-3.045.679-5.943 3.373-9.365 4.385z" fill="url(#aD)"/><path d="M16.84 16.657c-3.419.469-6.63 3.047-9.318 4.104a41.58 41.58 0 004.424 2.28c1.548-2.85 3.203-4.82 4.894-6.384z" fill="url(#aE)"/><path d="M16.84 16.657c1.577 1.256 2.916 2.808 4.354 5.099 1.184-.959 2.279-1.727 3.324-2.484-2-1.108-4.759-3.015-7.678-2.615z" fill="url(#aF)"/><path d="M20.824 13.489c1.096-.803 2.168-1.594 3.195-2.502-2.566-1.14-5.266-2.874-8.023-2.869a35.648 35.648 0 014.828 5.371z" fill="url(#aG)"/><path d="M16.885 25.788a26.975 26.975 0 014.876 4.385c1.113-1.035 2.218-1.859 3.22-2.576-1.927-1.087-4.424-2.625-8.096-1.809z" fill="url(#aH)"/><path d="M21.761 30.173c-.754-.21-1.56-.28-2.264-.296a2.721 2.721 0 01-.587 1.951c-.856 1.101-1.986 1.597-3.126 1.076-.685-.314-1.167-.886-1.149-1.705-.74.408-1.48.994-2.248 1.567 1.893.876 3.81 1.568 5.458 2.334a20.696 20.696 0 013.916-4.927z" fill="url(#aI)"/><path d="M8.871 13.425c-1.088-.53-2.511.642-3.262 1.717a3.333 3.333 0 00-.579 1.623c1.502-.388 3.013-.983 4.616-1.836.024-.695-.242-1.245-.775-1.504z" fill="url(#aJ)"/><path d="M31.36 5.84c-.992-.467-2.057.084-2.518 1.053-.226.46-.3.981-.211 1.487a10.198 10.198 0 003.958-.976c-.115-.655-.523-1.233-1.229-1.564z" fill="url(#aK)"/><path d="M17.833 4.169a3.207 3.207 0 00-.712-1.413c-.791-.913-1.992-1.363-2.99-.373-.392.393-.603 1.018-.568 1.65 1.569-.273 2.915-.252 4.27.136z" fill="url(#aL)"/><path d="M24.238 6.094c-.725-1.005-1.803-1.966-2.43-1.359-.246.24-.215.777-.021 1.377 1.07.667 2.175 1.334 3.33 1.755-.138-.556-.456-1.188-.88-1.773z" fill="url(#aM)"/><path d="M8.793 4.256c-.902-.496-2.31.052-3.214 1.424-.418.632-.63 1.32-.651 1.911C6.663 6.96 7.91 6.08 9.372 5.36c-.041-.508-.236-.915-.579-1.103z" fill="url(#aN)"/><path d="M26.734 8.328c-.564-.059-1.07-.266-1.615-.463.123.491.107.919-.098 1.201-.487.67-1.702-.392-2.505-1.563-.298-.435-.577-.923-.728-1.391-.693-.432-1.149-.748-1.807-1.104 1.658 2.168 3.012 4.47 4.038 5.979 1.023-.905 1.854-1.677 2.715-2.66z" fill="url(#aO)"/><path d="M19.98 5.008c-.69-.375-1.475-.647-2.147-.84.122.597.031 1.208-.417 1.664-.745.76-2.093.605-3.03-.148a2.244 2.244 0 01-.821-1.65c-.732.137-1.455.314-2.168.53a35.037 35.037 0 014.597 3.554c1.158-1.176 2.58-2.198 3.987-3.11z" fill="url(#aP)"/><path d="M31.373 12.122c.96-1.544 1.95-3.455 3.012-5.856a9.196 9.196 0 01-1.797 1.14c.072.454.018.919-.157 1.344-.59 1.486-1.789 1.934-3.024.93a2.175 2.175 0 01-.775-1.298c-.632.03-1.266.012-1.896-.054 1.391 1.43 2.932 2.668 4.637 3.794z" fill="url(#aQ)"/><path d="M11.397 4.563c-.698.205-1.376.47-2.026.796.05.61-.12 1.367-.518 2.066-.91 1.598-2.383 2.28-3.428 1.514-.352-.258-.521-.756-.5-1.348-.69.25-1.268.462-2.159.609 1.145 1.048 2.693 2.158 4.484 3.159 1.487-2.33 2.809-4.75 4.147-6.796z" fill="url(#aR)"/><path d="M6.937 2.22c1.558.64 3.05 1.425 4.46 2.343 1.25-1.909 2.586-3.55 4.001-4.432-2.661-.394-5.313.05-8.46 2.09z" fill="url(#aS)"/><path d="M33.825 2.097s-2.163 1.257-4.124 1.804c1.122.797 3.067 1.798 4.683 2.365a24.112 24.112 0 01-.559-4.169z" fill="url(#aT)"/><path d="M22.65 3.31c1.662 1.696 2.94 3.841 4.086 5.018 1.083-1.237 2.057-2.547 2.967-4.423-1.962.543-4.31.415-7.053-.596z" fill="url(#aU)"/><path d="M19.98 5.008c.864-.562 1.673-1.213 2.67-1.699C19.876 2.287 18.108.528 15.398.13c1.416 1.064 3.106 2.947 4.583 4.879z" fill="url(#aV)"/><path d="M6.937 2.22C4.852 3.573 2.77 3.69 2.77 3.69v4.51c1.308-1.224 3.088-4.03 4.168-5.978z" fill="url(#aW)"/><path d="M24.981 27.597c1.328 1.903 2.721 3.645 4.273 5.176a31.467 31.467 0 003.276-4.2c-2.344.562-4.98.473-7.549-.976z" fill="url(#aX)"/></g></svg>