<?xml version="1.0" encoding="UTF-8" standalone="no"?><svg xmlns="http://www.w3.org/2000/svg" xmlns:xlink="http://www.w3.org/1999/xlink" width="555" height="363"><!--Generator: Sketch 50 (54983) - http://www.bohemiancoding.com/sketch--><title>cancha</title><desc>Created with Sketch.</desc><defs><path id="path-1" d="M0 555h361.645V0H0z"/></defs><g id="Lineup" fill="none" fill-rule="evenodd"><g id="cancha" transform="rotate(90 277.5 277.5)"><g id="lines" transform="translate(.375)"><mask id="mask-2" fill="#fff"><use xlink:href="#path-1"/></mask><g id="color" mask="url(#mask-2)"><g transform="translate(-4 -8)"><path id="Rectangle-4-Copy-7" fill="#00C473" d="M0 540h370v30H0z"/><path id="Rectangle-4-Copy-12" fill="#00C473" d="M0 420h370v30H0z"/><path id="Rectangle-4-Copy-15" fill="#00C473" d="M0 300h370v30H0z"/><path id="Rectangle-4-Copy-19" fill="#00C473" d="M0 180h370v30H0z"/><path id="Rectangle-4-Copy-23" fill="#00C473" d="M0 60h370v30H0z"/><path id="Rectangle-4" fill="#11CF80" d="M0 510h370v30H0z"/><path id="Rectangle-4-Copy-2" fill="#11CF80" d="M0 390h370v30H0z"/><path id="Rectangle-4-Copy-16" fill="#11CF80" d="M0 270h370v30H0z"/><path id="Rectangle-4-Copy-20" fill="#11CF80" d="M0 150h370v30H0z"/><path id="Rectangle-4-Copy-24" fill="#11CF80" d="M0 30h370v30H0z"/><path id="Rectangle-4-Copy-7" fill="#00C473" d="M0 480h370v30H0z"/><path id="Rectangle-4-Copy-13" fill="#00C473" d="M0 360h370v30H0z"/><path id="Rectangle-4-Copy-17" fill="#00C473" d="M0 240h370v30H0z"/><path id="Rectangle-4-Copy-21" fill="#00C473" d="M0 120h370v30H0z"/><path id="Rectangle-4-Copy-25" fill="#00C473" d="M0 0h370v30H0z"/><path id="Rectangle-4" fill="#11CF80" d="M0 450h370v30H0z"/><path id="Rectangle-4-Copy-14" fill="#11CF80" d="M0 330h370v30H0z"/><path id="Rectangle-4-Copy-18" fill="#11CF80" d="M0 210h370v30H0z"/><path id="Rectangle-4-Copy-22" fill="#11CF80" d="M0 90h370v30H0z"/></g></g><path id="Stroke-7" stroke="#FFF" stroke-width="4.09" d="M74.254 85.385h214.512V0H74.254z" mask="url(#mask-2)"/><path id="Stroke-9" stroke="#FFF" stroke-width="4.09" d="M132.007 27.543h97.63V0h-97.63z" mask="url(#mask-2)"/><path id="Stroke-10" stroke="#FFF" stroke-width="4.09" d="M221.787 84.007c-8.248 13.443-23.112 22.413-40.078 22.413-16.965 0-31.828-8.97-40.076-22.41" mask="url(#mask-2)"/><path id="Stroke-7" stroke="#FFF" stroke-width="4.09" d="M74.254 555h214.512v-85.385H74.254z" mask="url(#mask-2)"/><path id="Stroke-9" stroke="#FFF" stroke-width="4.09" d="M132.007 555h97.63v-27.543h-97.63z" mask="url(#mask-2)"/><path id="Stroke-10" stroke="#FFF" stroke-width="4.09" d="M221.787 447.58c-8.248 13.443-23.112 22.413-40.078 22.413-16.965 0-31.828-8.97-40.076-22.41" mask="url(#mask-2)" transform="matrix(1 0 0 -1 0 917.574)"/><path id="Stroke-11" stroke="#FFF" stroke-width="4.09" d="M361.64 23.197c-13.02 0-23.575-10.562-23.575-23.592" mask="url(#mask-2)"/><path id="Stroke-12" stroke="#FFF" stroke-width="4.09" d="M-.632 23.197c13.02 0 23.575-10.562 23.575-23.592" mask="url(#mask-2)"/><path id="Stroke-16" stroke="#FFF" stroke-width="4.09" d="M361.64 531.606c-13.02 0-23.575 10.563-23.575 23.592" mask="url(#mask-2)"/><path id="Stroke-17" stroke="#FFF" stroke-width="4.09" d="M-.632 531.606c13.02 0 23.575 10.563 23.575 23.592" mask="url(#mask-2)"/></g><path id="Stroke-3" stroke="#FFF" stroke-width="4.09" d="M0 277h362"/><path id="Stroke-5" stroke="#FFF" stroke-width="4.09" d="M230.013 277.5c0 27.001-21.856 48.89-48.815 48.89-26.96 0-48.816-21.889-48.816-48.89s21.855-48.89 48.816-48.89c26.96 0 48.815 21.889 48.815 48.89z"/></g></g></svg>