<?xml version="1.0" encoding="UTF-8" standalone="no"?><svg xmlns="http://www.w3.org/2000/svg" width="396" height="303"><!--Generator: Sketch 50 (54983) - http://www.bohemiancoding.com/sketch--><title>cancha</title><desc>Created with Sketch.</desc><g id="Lineup" fill="none" fill-rule="evenodd"><g id="Lineup_414" transform="translate(-9 -119)"><g id="Group-3" transform="translate(0 114)"><g id="cancha" transform="translate(10 6)"><g id="Group-2" transform="translate(2 3)"><g id="Group-2-Copy"><path id="Rectangle-4-Copy-3" fill="#00C473" d="M0 51h392v26H0z"/><path id="Rectangle-4" fill="#00C473" d="M0 0h392v26H0z"/><path id="Rectangle-4-Copy" fill="#11CF80" d="M0 26h392v26H0z"/><path id="Rectangle-4-Copy-4" fill="#11CF80" d="M0 76h392v26H0z"/><path id="Rectangle-4-Copy-6" fill="#00C473" d="M0 102h392v26H0z"/><path id="Rectangle-4-Copy-5" fill="#11CF80" d="M0 127h392v26H0z"/><path id="Rectangle-4-Copy-8" fill="#00C473" d="M0 153h392v26H0z"/><path id="Rectangle-4-Copy-7" fill="#11CF80" d="M0 178h392v26H0z"/></g><path id="Rectangle-4-Copy-3" fill="#00C473" d="M0 256h392v26H0z"/><path id="Rectangle-4-Copy-9" fill="#11CF80" d="M0 282h392v16H0z"/><path id="Rectangle-4" fill="#00C473" d="M0 204h392v26H0z"/><path id="Rectangle-4-Copy" fill="#11CF80" d="M0 230h392v26H0z"/></g><g id="lines" stroke="#FFF" stroke-width="3" transform="translate(.487)"><path id="Stroke-7" d="M81.297 93.193h231.97V1H81.296z"/><path id="Stroke-9" d="M143.75 30.74h105.576V1H143.75z"/><path id="Stroke-10" d="M240.837 91.706c-8.92 14.514-24.994 24.2-43.34 24.2-18.345 0-34.418-9.685-43.338-24.197"/><path id="Stroke-11" d="M392.071 26.047c-14.079 0-25.493-11.405-25.493-25.474"/><path id="Stroke-12" d="M.316 26.047c14.08 0 25.494-11.405 25.494-25.474"/><path id="Stroke-1" d="M392.076 300.097H1V1h391.076v149.774z"/><path id="Stroke-5" d="M143.75 300.627c0-29.154 23.634-52.788 52.788-52.788 29.154 0 52.788 23.634 52.788 52.788"/></g></g></g></g></g></svg>