<?xml version="1.0" encoding="utf-8"?>
<!-- Generator: Adobe Illustrator 27.9.0, SVG Export Plug-In . SVG Version: 6.00 Build 0)  -->
<svg version="1.1" id="Capa_1" xmlns="http://www.w3.org/2000/svg" xmlns:xlink="http://www.w3.org/1999/xlink" x="0px" y="0px"
	 viewBox="0 0 16.2 16.2" style="enable-background:new 0 0 16.2 16.2;" xml:space="preserve">
<style type="text/css">
	.st0{fill:#5B2897;}
	.st1{clip-path:url(#SVGID_00000090985156649502610060000006413621960265193624_);}
	.st2{fill:#FFFFFF;}
</style>
<rect class="st0" width="16.2" height="16.2"/>
<g>
	<g>
		<g>
			<defs>
				<rect id="SVGID_1_" x="3.6" y="2.5" width="9" height="11.1"/>
			</defs>
			<clipPath id="SVGID_00000152261021298700256670000011219153300274215569_">
				<use xlink:href="#SVGID_1_"  style="overflow:visible;"/>
			</clipPath>
			<g style="clip-path:url(#SVGID_00000152261021298700256670000011219153300274215569_);">
				<path class="st2" d="M5.5,8.3H4.3V2.5H12v2.9h-1.2V3.8H5.5V8.3z"/>
				<path class="st2" d="M8,13.7c-0.7,0-1.4-0.2-2.1-0.5c-1-0.5-1.7-1.3-2.2-2.4l-0.2-0.5l2.2-1.2l0.6,1.1l-1.2,0.7
					c0.8,1.5,2.4,1.8,3.5,1.6c1.3-0.2,2.7-1.2,2.7-2.8c0-1-0.2-1.7-0.6-2.1c-0.6-0.6-1.4-0.6-2.2-0.6h0H7V5.6h1.7c0.9,0,2.2,0.1,3,1
					c0.7,0.7,1,1.7,0.9,3c0,1-0.4,2-1.2,2.7c-0.7,0.7-1.6,1.1-2.5,1.3C8.6,13.6,8.3,13.7,8,13.7L8,13.7z"/>
				<path class="st2" d="M8.7,8.3l0,0.6l0.6-0.2c0,0,0.1,0.1,0.2,0.4c0.1,0.3,0.1,0.4,0.1,0.4L8.9,9.7l0.4,0.5c0,0-0.1,0.1-0.3,0.3
					s-0.4,0.1-0.4,0.1l-0.4-0.5l-0.4,0.5c0,0-0.1,0-0.4-0.2c-0.2-0.2-0.3-0.3-0.3-0.3l0.4-0.5L7.1,9.4c0,0,0-0.1,0.1-0.4
					c0.1-0.2,0.2-0.4,0.2-0.4l0.6,0.2l0-0.6c0,0,0.2-0.1,0.4-0.1C8.5,8.2,8.7,8.3,8.7,8.3L8.7,8.3z"/>
			</g>
		</g>
	</g>
</g>
</svg>
