<svg xmlns="http://www.w3.org/2000/svg" xml:space="preserve" width="555.832" height="190.628"><defs><clipPath clipPathUnits="userSpaceOnUse" id="a"><path d="M0 142.971h416.874V0H0Z"/></clipPath></defs><g clip-path="url(#a)" transform="matrix(1.33333 0 0 -1.33333 0 190.628)"><path d="M0 0c-.034 8.516-6.33 14.393-15.719 15.857-1.316.2-2.631.403-3.946.607l.066-28.235c1.318-.128 2.637-.254 3.956-.38C-6.228-13.002.032-7.628 0 0m21.851-1.817C21.936-17.351 9.42-31.995-13.27-30.954c-2.095.118-4.19.238-6.285.359l.062-26.143c-7.303.031-14.605.064-21.907.099v96.411c8.57-1.873 17.16-3.63 25.766-5.27C10.191 29.44 21.778 13.813 21.851-1.817" style="fill:#fa6464;fill-opacity:1;fill-rule:nonzero;stroke:none" transform="translate(41.4 103.2)"/><path d="M0 0c1.324-.081 2.648-.161 3.972-.239 9.453-.532 15.73 4.452 15.691 11.299-.041 7.642-6.379 12.638-15.833 13.551-1.325.125-2.649.253-3.973.382L0 0m19.949-39.853A1690.314 1690.314 0 0 0 6.396-16.887c-2.1.073-4.2.148-6.3.225l.132-23.142c-7.304.02-14.607.041-21.911.065l-.448 84.324a975.675 975.675 0 0 1 26.002-3.423C29.918 38.04 41.55 24.488 41.612 10.209c.046-9.328-5.26-18.33-15.373-23.254a1823.662 1823.662 0 0 1 17.814-26.856c-8.034.013-16.069.029-24.104.048" style="fill:#fa6464;fill-opacity:1;fill-rule:nonzero;stroke:none" transform="translate(90.148 86.025)"/><path d="m0 0 .065-18.884c8.057-.22 16.116-.383 24.176-.491l.027-15.274c-8.05.069-16.1.174-24.149.314l.036-10.301a4401.5 4401.5 0 0 1 32.907-.234l.018-15.24c-18.262.006-36.524.024-54.785.053l-.36 76.832a977.002 977.002 0 0 1 55.06-2.379l.018-15.239C22.005-.712 11-.43 0 0" style="fill:#fa6464;fill-opacity:1;fill-rule:nonzero;stroke:none" transform="translate(160.838 106.173)"/><path d="m0 0-.349-78.273c-16.74 13.045-33.519 25.526-50.354 38.099l-.041-36.406c-7.305-.003-14.61-.003-21.914-.002l-.044 76.118c16.909-12.818 33.767-25.123 50.57-37.573l.117 36.812C-14.673-.9-7.335-.491 0 0" style="fill:#fa6464;fill-opacity:1;fill-rule:nonzero;stroke:none" transform="translate(273.7 122.643)"/><path d="M0 0c.069 12.538-9.711 23.389-26.992 21.843-1.189-.098-2.378-.194-3.566-.289l-.261-46.731c1.187.027 2.375.053 3.562.081C-9.995-24.8-.07-12.514 0 0m21.891 1.599c-.106-22.936-17.737-43.224-50.746-42.947-7.989-.018-15.978-.034-23.967-.047l.377 77.191a973.12 973.12 0 0 1 24.035 2.141C5.476 41.833 21.988 24.625 21.891 1.599" style="fill:#fa6464;fill-opacity:1;fill-rule:nonzero;stroke:none" transform="translate(335.495 87.52)"/><path d="m0 0-.074-22.504c8.004.812 16 1.68 23.988 2.603l-.02-19.349A2701.337 2701.337 0 0 0-.135-40.917l-.041-12.275c10.94.443 21.873.928 32.8 1.453v-19.72c-18.255-.087-36.511-.164-54.769-.228l.408 86.361a975.91 975.91 0 0 1 54.361 10.278V5.232A1206.924 1206.924 0 0 0 0 0" style="fill:#fa6464;fill-opacity:1;fill-rule:nonzero;stroke:none" transform="translate(384.25 118.02)"/><path d="M0 0v-7.148h-7.148v-27.799h-7.943v27.799h-7.148V0Z" style="fill:#fa6464;fill-opacity:1;fill-rule:nonzero;stroke:none" transform="translate(199.42 35.742)"/><path d="m0 0-16.679-35.742L-33.359 0h8.737l7.943-18.665L-8.737 0Z" style="fill:#fa6464;fill-opacity:1;fill-rule:nonzero;stroke:none" transform="translate(236.354 35.742)"/><path d="M0 0c.263 0 .384.05.472.162a.43.43 0 0 1 .091.272.426.426 0 0 1-.091.284C.384.822.263.897 0 .897h-.659V0Zm-.659-.906v-2.079h-1.119v4.901h1.745c.613 0 .955-.138 1.231-.385.3-.266.48-.65.48-1.097 0-.501-.242-.898-.626-1.127C.96-.76.864-.789.743-.831l1.473-2.154H1.002L-.367-.906zm.609-3.218c1.99 0 3.59 1.599 3.59 3.585 0 1.983-1.6 3.582-3.59 3.582a3.583 3.583 0 1 1 0-7.167m0 8.06A4.478 4.478 0 0 0 4.429-.539 4.485 4.485 0 0 0-.05-5.021 4.488 4.488 0 0 0-4.533-.539 4.482 4.482 0 0 0-.05 3.936" style="fill:#fa6464;fill-opacity:1;fill-rule:nonzero;stroke:none" transform="translate(244.438 31.74)"/></g></svg>
