<svg width="81" height="71" fill="none" xmlns="http://www.w3.org/2000/svg"><rect width="71" height="71" rx="16" fill="url(#prefix__paint0_linear_613_475)"/><path fill-rule="evenodd" clip-rule="evenodd" d="M29.972 27.252l-5.138.042c-.4.003-.824.312-.947.69l-3.134 9.622-3.133-9.622c-.123-.378-.547-.687-.947-.69l-5.138-.042c-.4-.004-.624.3-.501.679l4.94 15.17c.123.378.548.688.948.691l2.345.02a.67.67 0 00.18.022l1.306-.01 1.306.01a.672.672 0 00.181-.023l2.345-.019c.4-.003.825-.313.948-.69l4.94-15.171c.123-.379-.1-.683-.501-.68z" fill="#000"/><path fill-rule="evenodd" clip-rule="evenodd" d="M29.972 27.252l-5.138.042c-.4.003-.824.312-.947.69l-3.134 9.622-3.133-9.622c-.123-.378-.547-.687-.947-.69l-5.138-.042c-.4-.004-.624.3-.501.679l4.94 15.17c.123.378.548.688.948.691l2.345.02a.67.67 0 00.18.022l1.306-.01 1.306.01a.672.672 0 00.181-.023l2.345-.019c.4-.003.825-.313.948-.69l4.94-15.171c.123-.379-.1-.683-.501-.68z" fill="#fff"/><path fill-rule="evenodd" clip-rule="evenodd" d="M54.145 35.559l4.69-7.311c.33-.514.148-.93-.406-.93h-5.15c-.553 0-1.27.416-1.6.93l-2.365 3.685-2.364-3.685c-.33-.514-1.047-.93-1.601-.93h-5.15c-.553 0-.735.416-.406.93l4.656 7.257-4.705 7.333c-.33.514-.148.93.407.93H45.3c.554 0 1.27-.416 1.6-.93l2.38-3.708 2.35 3.663c.33.514 1.047.93 1.6.93h5.15c.554 0 .736-.416.407-.93l-4.642-7.234z" fill="#000"/><path fill-rule="evenodd" clip-rule="evenodd" d="M54.145 35.559l4.69-7.311c.33-.514.148-.93-.406-.93h-5.15c-.553 0-1.27.416-1.6.93l-2.365 3.685-2.364-3.685c-.33-.514-1.047-.93-1.601-.93h-5.15c-.553 0-.735.416-.406.93l4.656 7.257-4.705 7.333c-.33.514-.148.93.407.93H45.3c.554 0 1.27-.416 1.6-.93l2.38-3.708 2.35 3.663c.33.514 1.047.93 1.6.93h5.15c.554 0 .736-.416.407-.93l-4.642-7.234z" fill="#fff"/><path fill-rule="evenodd" clip-rule="evenodd" d="M37.797 35.492H32.73c-.51 0-.923.383-.923.856v6.877c0 .473.413.856.923.856h5.066c.51 0 .922-.383.922-.856v-6.877c0-.473-.413-.856-.922-.856z" fill="#000"/><path fill-rule="evenodd" clip-rule="evenodd" d="M37.797 35.492H32.73c-.51 0-.923.383-.923.856v6.877c0 .473.413.856.923.856h5.066c.51 0 .922-.383.922-.856v-6.877c0-.473-.413-.856-.922-.856z" fill="#fff"/><path fill-rule="evenodd" clip-rule="evenodd" d="M35.02 33.771c2.016 0 3.65-1.516 3.65-3.385 0-1.87-1.634-3.386-3.65-3.386-2.018 0-3.653 1.516-3.653 3.386s1.635 3.385 3.652 3.385z" fill="#000"/><path fill-rule="evenodd" clip-rule="evenodd" d="M35.02 33.771c2.016 0 3.65-1.516 3.65-3.385 0-1.87-1.634-3.386-3.65-3.386-2.018 0-3.653 1.516-3.653 3.386s1.635 3.385 3.652 3.385z" fill="#fff"/><defs><linearGradient id="prefix__paint0_linear_613_475" x1="0" y1="0" x2="61.385" y2="78.517" gradientUnits="userSpaceOnUse"><stop offset=".09" stop-color="#CA2173"/><stop offset=".94" stop-color="#FF5900"/></linearGradient></defs></svg>
