<svg width="139" height="23" xmlns="http://www.w3.org/2000/svg"><defs><linearGradient x1="-18.4%" y1="81.3%" x2="119.2%" y2="11.8%" id="a"><stop stop-color="#5C6064" offset="0%"/><stop stop-color="#5C6064" offset="15%"/><stop stop-color="#7A7A7F" offset="40%"/><stop stop-color="#D9DADD" offset="96%"/><stop stop-color="#E5E6E9" offset="100%"/></linearGradient><linearGradient x1="-7.4%" y1="69.2%" x2="108.2%" y2="27.1%" id="b"><stop stop-color="#5C6064" offset="0%"/><stop stop-color="#5C6064" offset="15%"/><stop stop-color="#7A7A7F" offset="40%"/><stop stop-color="#D9DADD" offset="96%"/><stop stop-color="#E5E6E9" offset="100%"/></linearGradient><linearGradient x1="99.2%" y1="49.8%" x2="-1.2%" y2="49.8%" id="c"><stop stop-color="#5C6064" offset="0%"/><stop stop-color="#5C6064" offset="45%"/><stop stop-color="#5E6166" offset="66%"/><stop stop-color="#64676C" offset="79%"/><stop stop-color="#6F7277" offset="90%"/><stop stop-color="#7E8186" offset="100%"/></linearGradient><linearGradient x1="108.3%" y1="69.8%" x2="-8.3%" y2="27.4%" id="d"><stop stop-color="#5C6064" offset="0%"/><stop stop-color="#5C6064" offset="45%"/><stop stop-color="#5F6267" offset="63%"/><stop stop-color="#67696E" offset="76%"/><stop stop-color="#75777C" offset="87%"/><stop stop-color="#8A8C91" offset="97%"/><stop stop-color="#96989D" offset="100%"/></linearGradient><linearGradient x1="37.4%" y1="101.6%" x2="62.7%" y2="2.5%" id="e"><stop stop-color="#A52024" offset="5%"/><stop stop-color="#EB3525" offset="41%"/></linearGradient><linearGradient x1="14.7%" y1="12.1%" x2="84.4%" y2="87.2%" id="f"><stop stop-color="#BBD131" offset="23%"/><stop stop-color="#95BF35" offset="45%"/><stop stop-color="#87B836" offset="57%"/><stop stop-color="#67A939" offset="65%"/><stop stop-color="#4C9C3C" offset="73%"/><stop stop-color="#39933E" offset="82%"/><stop stop-color="#2E8E40" offset="91%"/><stop stop-color="#2A8C40" offset="100%"/></linearGradient></defs><g fill="none"><path d="M46 5.2h3.7v10.2H56v3.2H46zm11.7 0h3.7v13.4h-3.7zm5.7 6.8c0-3.9 3-7 7.1-7A7.7 7.7 0 0 1 76 7l-2.1 2.6a4.7 4.7 0 0 0-3.2-1.3c-2 0-3.4 1.7-3.4 3.7a3.6 3.6 0 0 0 1 2.7 3.5 3.5 0 0 0 2.6 1 3.9 3.9 0 0 0 2.1-.5v-1.7h-2.6v-2.7h6v6a9.2 9.2 0 0 1-5.7 2.1c-4.1 0-7.2-2.9-7.2-7m22.8 1.5l-1.4-3.9-1.5 3.9h3zM83 5.2h3.5l5.7 13.4h-4l-.9-2.4h-5l-1 2.4h-4L83 5.2zm31.8 13.4h-4v-7.8l-3.7 4.6h-.4l-3.6-4.6v7.8h-4V5.1h3.8l4 5.1 4.2-5.1h3.7zm18.6 0H128l-3.2-3.9-3.2 4h-5l5.6-7L117 5h5l2.9 3.6 2.7-3.6h5.1l-5.2 6.5zm2.5-12.2v.8h1a.5.5 0 0 0 .1-.3.3.3 0 0 0-.1-.3 1.1 1.1 0 0 0-.5-.2h-.5zm0 2.2h-.4V6.1h1.5c.2 0 .3.1.3.2a.5.5 0 0 1 .1.4.7.7 0 0 1-.2.5.8.8 0 0 1-.5.2.5.5 0 0 1 .3.2l.3.5.3.5h-.5l-.2-.4-.4-.6a.5.5 0 0 0-.3-.1h-.3v1.1zm.6-3.2a2 2 0 0 0-1.5.5 2 2 0 0 0-.5 1.4 2 2 0 0 0 .5 1.5c.4.3 1 .6 1.5.5a2 2 0 0 0 1.3-.5c.4-.4.6-1 .6-1.5 0-1-.9-2-2-2zm0-.4c.4 0 .7.1 1 .3.5.2.8.5 1 .9.2.3.3.7.3 1.1a2.3 2.3 0 0 1-.3 1.2 2 2 0 0 1-.9.9 2.5 2.5 0 0 1-2.4 0 2 2 0 0 1-.8-.9 2.3 2.3 0 0 1-.3-1.2c0-.4.1-.8.3-1.1a1.8 1.8 0 0 1 .9-.9c.3-.2.8-.3 1.2-.3z" fill="#FFF"/><path d="M4 9.8c1.7-2.7 3.3-4.5 3.7-5 .5-.7 1-2.4.1-3.2a1.6 1.6 0 0 0-1.1-.4 3 3 0 0 0-1.5.5A15.5 15.5 0 0 0 .6 10c-.4 2-.2 3 .4 5.1.5 2.2 1.7 4.1 1.7 4.1s-.6-2-.6-3c0-1.2.4-3.7 2-6.4z" fill="url(#a)" transform="translate(0 .2)"/><path d="M6.2 19.8c0-.3.2-1 1.4-3.3 1.2-2.2 3.4-4.8 4-5.7.8-1 .8-2.8-.5-4a3 3 0 0 0-2-.7 3.4 3.4 0 0 0-1.4.3c-1 .5-1.4 1.1-2.9 3.4a16.6 16.6 0 0 0-2.2 5.8 4.5 4.5 0 0 0 .6 3.1C4 20 5 20.3 5.3 20.3a1 1 0 0 0 .9-.5z" fill="url(#b)" transform="translate(0 .2)"/><path d="M36 15.1c.5-2 .6-3.2.4-5a15.6 15.6 0 0 0-4.6-8.4 3 3 0 0 0-1.5-.5c-.5 0-.9.1-1.2.4-.8.8-.4 2.5.1 3.1.5.6 2 2.4 3.7 5.1a13.7 13.7 0 0 1 2 6.3c0 1.1-.6 3-.6 3.1 0 .2 1.1-2 1.7-4z" fill="url(#c)" transform="translate(0 .2)"/><path d="M33.7 18.7a4.5 4.5 0 0 0 .7-3.1c-.1-1-.8-3.4-2.3-5.8-1.4-2.3-2-3-2.9-3.4A3.4 3.4 0 0 0 28 6a3 3 0 0 0-2 .8 3 3 0 0 0-.6 3.9c.7 1 2.8 3.5 4 5.7 1.2 2.3 1.4 3 1.5 3.3.1.3.5.5.8.5.4 0 1.3-.3 2.1-1.6z" fill="url(#d)" transform="translate(0 .2)"/><path d="M10.1 13.8c-.8 1.2-1.6 2.5-2.2 3.9-.2.3-.5 1-.5 1.5 0 .7.3 1.3.7 1.8a4.4 4.4 0 0 0 3 1.8c.7 0 1.5 0 2-.4l.6-.7 1.8-2c2.4-3 4.8-5.8 6.8-8.8.4-.5.8-1.2.6-2-.2-.8-.5-1.2-1-1.6a56.1 56.1 0 0 0-2.4-2.8 41.1 41.1 0 0 0-4-3.7 2.4 2.4 0 0 0-.9-.5 5.3 5.3 0 0 0-4.7 1.5c-.3.3-.5.8-.3 1.3a4.5 4.5 0 0 0 .4.8 62 62 0 0 0 3.5 5.3l-3.4 4.6" fill="url(#e)" transform="translate(0 .2)"/><path d="M29 17.7a91.4 91.4 0 0 0-5.6-8.5C24.6 7.5 26 5.8 27 4l.5-.8c.1-.5-.1-1-.3-1.3a3.3 3.3 0 0 0-1-.8c-1-.5-2.4-1-3.8-.7l-.8.5a33.2 33.2 0 0 0-3 2.7l1 1A56.1 56.1 0 0 1 22 7.3c.4.4.8 1 1 1.6 0 .7-.3 1.5-.7 2a87 87 0 0 1-3.8 5.1 364 364 0 0 0 3 3.6l1.7 2.1.6.7c.5.4 1.3.4 2 .4a4.3 4.3 0 0 0 1.8-.6 4.5 4.5 0 0 0 1.2-1.2 3.4 3.4 0 0 0 .7-1.8c0-.5-.3-1.2-.4-1.5z" fill="url(#f)" transform="translate(0 .2)"/></g></svg>