<svg width="33" height="33" xmlns="http://www.w3.org/2000/svg"><g fill="#DADADA" fill-rule="evenodd"><path d="M16.5 33c-.5815979 0-1.0531915-.4332186-1.0531915-.9676408v-4.3838674c0-.5344221.4715936-.9676407 1.0531915-.9676407s1.0531915.4332186 1.0531915.9676407v4.3838674C17.5531915 32.5667814 17.0815979 33 16.5 33M16.5 6.31914894c-.5815979 0-1.0531915-.43321862-1.0531915-.96764077V.96764077C15.4468085.4332186 15.9184021 0 16.5 0s1.0531915.43321861 1.0531915.96764076v4.38386741c0 .53442215-.4715936.96764077-1.0531915.96764077M8.71022339 30.893617c-.16754207 0-.33728772-.0409255-.49284774-.1271402-.47239562-.2618175-.63422211-.8417169-.3614584-1.2952695l2.23719955-3.7203876c.2727637-.4534865.8765487-.608858 1.349082-.3470405.4723956.2618176.6342221.841717.3614584 1.2952696l-2.23719954 3.7203876c-.18289836.3040653-.51495254.4741806-.85623427.4741806M22.0505801 7.72340426c-.1674732 0-.3372189-.04099132-.4927789-.1271392-.4723956-.2618155-.6342221-.84171038-.3614584-1.29525945l2.2371995-3.72035857c.2727637-.45354907.8764798-.60891937 1.349082-.34703776.4723957.26174938.6342222.84171038.3614584 1.29525945L22.9068832 7.2492273c-.1830361.304063-.5149525.47417696-.8563031.47417696M3.05566878 25.2765957c-.32779321 0-.64639658-.1770501-.82206147-.4938948-.26187756-.4724091-.10650966-1.076418.34703238-1.3491207l3.72030087-2.2372637c.45354204-.2727715 1.03342793-.1108026 1.29523937.3614688.26187755.4724092.10650965 1.076418-.34703239 1.3491207l-3.72030087 2.2372637c-.14928541.089799-.31232253.132426-.47317789.132426M26.3255452 11.759606c-.3191053 0-.6292643-.1673667-.8002734-.4668823-.2550011-.4465718-.1036867-1.0175457.3378346-1.2753335l3.6216973-2.11490154c.4415213-.2577878 1.0059734-.10474257 1.2609101.34169902.2549367.4465718.1036224 1.01754573-.3378345 1.27533353l-3.6217617 2.11490149c-.1452644.0848877-.303916.1251833-.4605724.1251833M5.10504149 17.5103571H.92307553C.41333085 17.5103571 0 17.0923633 0 16.5767226c0-.5156407.41333085-.9336345.92307553-.9336345H5.1050415c.50974468 0 .92307553.4179938.92307553.9336345 0 .5156407-.41333085.9336345-.92307553.9336345M32.0323592 17.5531915h-4.3838674c-.5343547 0-.9676407-.4715202-.9676407-1.0531915s.433286-1.0531915.9676407-1.0531915h4.3838674C32.5667139 15.4468085 33 15.9183287 33 16.5s-.4332861 1.0531915-.9676408 1.0531915M6.77418457 11.9361702c-.16078925 0-.32382637-.0426267-.47311178-.1324251l-3.7204331-2.23724774c-.45354204-.27270072-.60890994-.87670528-.34703238-1.34911107.26181143-.47240579.84163121-.63423577 1.29523936-.36146618l3.72030087 2.23724769c.45354204.2727008.60890994.8767053.34703239 1.3491111-.17553267.3168424-.49426826.4938913-.82199536.4938913M29.9443288 25.2765957c-.1608558 0-.3238272-.042627-.4731791-.132426l-3.7203105-2.2372637c-.453477-.2727027-.6089115-.8767115-.3470332-1.3491207.2618121-.4722714.8415011-.6342403 1.2952427-.3614688l3.7203104 2.2372637c.4535432.2727027.6089115.8767116.3470333 1.3491207-.1755993.3168447-.4944018.4938948-.8220636.4938948M10.9494199 7.72340426c-.3414194 0-.673267-.16997817-.8563031-.47416702L7.85591725 3.52882447c-.27276371-.45353955-.11093722-1.03342228.3614584-1.29523228.47239562-.26187612 1.0763183-.10644296 1.34908201.34703048l2.23719954 3.72034666c.2727637.45347344.1109372 1.03342228-.3614584 1.29516617-.1554223.08621219-.3253057.12726876-.4927789.12726876M24.2898455 30.893617c-.3414195 0-.6732671-.1699826-.8563032-.4741794L21.1963428 26.69906c-.2727637-.4535514-.1109372-1.0334493.3614584-1.2952661.4724645-.261883 1.0763183-.1063797 1.349082.3470395l2.2371995 3.7203777c.2727638.4535514.1109373 1.0334492-.3614584 1.2952661-.1554222.0862144-.3253056.1271398-.4927788.1271398"/><path d="M16.5 6.31914894c-.5815979 0-1.0531915-.43321862-1.0531915-.96764077V.96764077C15.4468085.4332186 15.9184021 0 16.5 0s1.0531915.43321861 1.0531915.96764076v4.38386741c0 .53442215-.4715936.96764077-1.0531915.96764077M16.5 33c-.5815979 0-1.0531915-.4332186-1.0531915-.9676408v-4.3838674c0-.5344221.4715936-.9676407 1.0531915-.9676407s1.0531915.4332186 1.0531915.9676407v4.3838674C17.5531915 32.5667814 17.0815979 33 16.5 33"/></g></svg>