<?xml version="1.0" encoding="utf-8"?>
<!-- Generator: Adobe Illustrator 27.9.0, SVG Export Plug-In . SVG Version: 6.00 Build 0)  -->
<svg version="1.1" id="Capa_1" xmlns="http://www.w3.org/2000/svg" xmlns:xlink="http://www.w3.org/1999/xlink" x="0px" y="0px"
	 viewBox="0 0 128 32" style="enable-background:new 0 0 128 32;" xml:space="preserve">
<style type="text/css">
	.st0{fill:#FFFFFF;}
</style>
<path class="st0" d="M21.3,0v16.8L8.2,0H0v32h8.7V14.4L22.2,32H30V0H21.3z"/>
<path class="st0" d="M69.9,21.8c-0.4,0.1-0.8,0.1-1.3,0.1c-1.7,0-3.3-0.3-4.6-0.9c-1.4-0.6-2.6-1.4-3.6-2.5s-1.8-2.3-2.3-3.8
	c-0.5-1.4-0.8-3-0.8-4.6c0-1.9,0.3-3.6,1-5.1C59.1,3.4,60,2.1,61.2,1c0.4-0.4,0.9-0.7,1.3-1h-0.1v0h-8.9v17.9c0,4.4-2.3,6.5-5.8,6.5
	c-3.5,0-5.8-2.2-5.8-6.8V0H33v17.8C33,27.7,38.6,32,47.5,32h0h16.6l7.1-10.5C70.8,21.6,70.4,21.7,69.9,21.8"/>
<path class="st0" d="M70.8,4.7c-1.7,0-3.1,0.5-4.2,1.6C65.5,7.4,65,8.7,65,10.3c0,1.6,0.5,3,1.6,4.1c1.1,1.1,2.5,1.6,4.2,1.6
	s3.1-0.5,4.2-1.6c1.1-1.1,1.6-2.4,1.6-4.1c0-1.6-0.5-3-1.6-4.1C74,5.2,72.6,4.7,70.8,4.7z"/>
<path class="st0" d="M111,24.3v-5h15.2v-6.9H111V7.5h16.8V0H99.7l-7.2,20.1L85.3,0h-6.2c0.5,0.3,0.9,0.7,1.3,1
	c1.2,1.1,2.2,2.4,2.9,3.9c0.7,1.5,1,3.2,1,5.1c0,1.3-0.1,2.5-0.4,3.6c-0.2,1.1-0.6,2.1-0.9,3c-0.4,1-0.9,1.9-1.4,2.7
	c-0.5,0.9-1.1,1.8-1.7,2.7L73.5,32h22h0h1l6.5-16.2V32h25v-7.7L111,24.3L111,24.3z"/>
</svg>
