<?xml version="1.0" encoding="utf-8"?>
<!-- Generator: Adobe Illustrator 27.9.0, SVG Export Plug-In . SVG Version: 6.00 Build 0)  -->
<svg version="1.1" id="Capa_1" xmlns="http://www.w3.org/2000/svg" xmlns:xlink="http://www.w3.org/1999/xlink" x="0px" y="0px"
	 viewBox="0 0 128 128" style="enable-background:new 0 0 128 128;" xml:space="preserve">
<style type="text/css">
	.st0{clip-path:url(#SVGID_00000031926140489946750920000007460841498340017853_);}
	.st1{fill:#FFFFFF;}
</style>
<g>
	<defs>
		<rect id="SVGID_1_" x="15.1" y="3.7" width="97.9" height="120.6"/>
	</defs>
	<clipPath id="SVGID_00000123413631016268909790000004657992069547328680_">
		<use xlink:href="#SVGID_1_"  style="overflow:visible;"/>
	</clipPath>
	<g style="clip-path:url(#SVGID_00000123413631016268909790000004657992069547328680_);">
		<path class="st1" d="M36,66.1H22.7V3.7h83.6v31.7H93.1V17H36V66.1z"/>
		<path class="st1" d="M63.2,124.3c-7.8,0-15.5-1.7-22.3-5.1C30.2,114,22,104.9,17.3,93l-2.2-5.5l24.1-12.9l6.2,11.7l-13.2,7.1
			c9.1,15.8,25.8,19.2,38.2,17c14.2-2.5,28.8-13,29.4-30.7c0.3-10.5-1.8-18.3-6.5-23c-6.1-6.2-15.7-6.9-23.5-6.9h-0.1H51.6V36.5h18
			c9.6-0.1,23.4,0.9,33,10.9c7.2,7.5,10.7,18.5,10.2,32.7c-0.4,11.3-4.8,21.4-12.8,29.4c-7.2,7.1-16.9,12.1-27.5,14
			C69.4,124,66.3,124.3,63.2,124.3L63.2,124.3z"/>
		<path class="st1" d="M70.4,66.3l-0.2,6.4l6-2.4c0,0,1.3,1.1,2.3,3.8c1.2,2.9,0.6,4.5,0.7,4.5l-6.5,2.3l4.2,5.3c0,0-0.6,1.6-3,3.4
			S70,91.2,70,91.2l-3.8-5.5l-3.8,5.5c0,0-1.6,0-4-1.7c-2.3-1.8-3-3.4-3-3.4l4.2-5.3l-6.4-2.3c0,0-0.4-1.6,0.6-4.5
			c1.2-2.7,2.4-3.8,2.4-3.8l6,2.5l-0.3-6.5c0.4-0.2,1.9-0.8,4.4-0.8C68.6,65.5,70.1,66.2,70.4,66.3L70.4,66.3z"/>
	</g>
</g>
</svg>
