<svg xmlns="http://www.w3.org/2000/svg" xmlns:xlink="http://www.w3.org/1999/xlink" viewBox="0 0 102.8 28"><defs><path id="a" d="M0 .5V14c0 7.7 6.3 14 14 14 7.1 0 13-5.3 13.9-12.2-1.8 1.8-4.6 3.2-8 3.2-7.6 0-9.3-4.5-9.3-7.1V7.5C10.7 1.9 3.5 0 .5 0 .2 0 0 .2 0 .5"/></defs><use xlink:href="#a" overflow="visible" fill="#fff"/><clipPath id="b"><use xlink:href="#a" overflow="visible"/></clipPath><path clip-path="url(#b)" fill="#fff" d="M0 0h27.9v28H0z"/><defs><path id="c" d="M24.5 15.7v1.4c.8-.4 1.5-.8 2.2-1.4h-2.2zm0-1.8v1.4h2.6c.3-.3.6-.5.9-.8v-.6h-3.5zm0-.3H28v-1.4h-3.5v1.4zm0-1.8H28v-1.4h-3.5v1.4zm0-1.7H28V8.7h-3.5v1.4zm0-1.8H28V7h-3.5v1.3zm0-1.7H28V5.2h-3.5v1.4zm0-1.7H28V3.5h-3.5v1.4z"/></defs><use xlink:href="#c" overflow="visible" fill="#fff"/><clipPath id="d"><use xlink:href="#c" overflow="visible"/></clipPath><path clip-path="url(#d)" fill="#fff" d="M24.5 3.5H28v13.6h-3.5z"/><g><defs><path id="e" d="M20.2 17.4v.6c1.3 0 2.4-.2 3.4-.6h-3.4zm0-.3h3.5v-1.4h-3.5v1.4zm0-1.8h3.5v-1.4h-3.5v1.4zm0-1.7h3.5v-1.4h-3.5v1.4zm0-1.8h3.5v-1.4h-3.5v1.4zm0-1.7h3.5V8.7h-3.5v1.4z"/></defs><use xlink:href="#e" overflow="visible" fill="#fff"/><clipPath id="f"><use xlink:href="#e" overflow="visible"/></clipPath><path clip-path="url(#f)" fill="#fff" d="M20.2 8.7h3.5V18h-3.5z"/></g><g><defs><path id="g" d="M15.9 17.4c1 .4 2.2.6 3.5.6v-.6h-3.5zm0-.3h3.5v-1.4h-3.5v1.4zm0-1.8h3.5v-1.4h-3.5v1.4zm0-1.7h3.5v-1.4h-3.5v1.4zm0-1.8h3.5v-1.4h-3.5v1.4zm0-1.7h3.5V8.7h-3.5v1.4zm0-1.8h3.5V7h-3.5v1.3zm0-1.7h3.5V5.2h-3.5v1.4zm0-1.7h3.5V3.5h-3.5v1.4zm0-1.8h3.5V1.7h-3.5v1.4zm0-1.7h3.5V0h-3.5v1.4z"/></defs><use xlink:href="#g" overflow="visible" fill="#fff"/><clipPath id="h"><use xlink:href="#g" overflow="visible"/></clipPath><path clip-path="url(#h)" fill="#fff" d="M15.9 0h3.5v18h-3.5z"/></g><g><defs><path id="i" d="M13 15.7s.1 0 0 0c.6.6 1.2 1 1.9 1.4h.1v-1.4h-2zm-1.1-1.8c.2.5.4.9.8 1.4H15v-1.4h-3.1zm-.3-1.7c0 .4.1.8.3 1.4H15v-1.4h-3.4zm-.1-1.8v1.3H15v-1.4h-3.5zm0-1.7v1.4H15V8.7h-3.5zm0-.4H15V7h-3.5v1.3zm0-1.7H15V5.2h-3.5v1.4z"/></defs><use xlink:href="#i" overflow="visible" fill="#fff"/><clipPath id="j"><use xlink:href="#i" overflow="visible"/></clipPath><path clip-path="url(#j)" fill="#fff" d="M11.5 5.2H15V17h-3.5z"/></g><g><path d="M65.3 8.3c4 0 7.1 3.1 7.1 7s-3.1 7-7.1 7c-4.1 0-7.1-3.1-7.1-7s3-7 7.1-7m0 10.6c2.1 0 3.5-1.6 3.5-3.6s-1.4-3.7-3.5-3.7-3.5 1.7-3.5 3.7 1.4 3.6 3.5 3.6M85 1.8c-1.3 0-2.3 1-2.3 2.3 0 1.3 1.1 2.3 2.3 2.3 1.3 0 2.3-1 2.3-2.3 0-1.3-1-2.3-2.3-2.3m1.8 6.7h-3.6V21.9h3.6V8.5zm-42.3 0v7.4c0 1.8-1.4 2.9-3 2.9s-3-1.3-3-2.9V8.5H35v7.3c0 3.4 2.4 6.4 6.5 6.4 4.4 0 6.6-3 6.6-6.4V8.5h-3.6zm51.4-.2c-4.1 0-6.9 3.2-6.9 7s2.9 6.9 6.5 6.9c1 0 1.9-.2 2.7-.6v-3.4c-.6.5-1.4.9-2.2.9-1.9 0-3.5-1.6-3.5-3.7 0-2.2 1.5-3.8 3.5-3.8 1.9 0 3.5 1.7 3.5 3.8V22h3.5v-6.6c-.2-4-3.1-7.1-7.1-7.1M50.4 21.9H54V11.6h3.6v-3H54v-.9c0-1.8.9-2.5 2.5-2.5h1.1V2.1h-1.1c-3.8 0-6.1 1.7-6.1 6.1v13.7zm27.2-7.7c0-1.8.9-2.5 2.5-2.5h1.1V8.5h-1.1c-3.8 0-6.1 1.7-6.1 6.1v7.3h3.6v-7.7z" fill="#fff"/></g></svg>