<svg width="110" height="25" xmlns="http://www.w3.org/2000/svg" xmlns:xlink="http://www.w3.org/1999/xlink"><defs><path id="a" d="M0 25.001h109.941V0H0z"/></defs><g fill="none" fill-rule="evenodd"><path d="M92.457 2.537c1.605 0 2.703 1.268 2.703 2.81 0 1.54-1.098 2.787-2.703 2.787-1.603 0-2.707-1.247-2.707-2.787 0-1.542 1.104-2.81 2.707-2.81m0 8.137c3.104 0 5.447-2.366 5.447-5.327 0-2.96-2.343-5.346-5.447-5.346C89.352.001 87 2.387 87 5.347c0 2.961 2.35 5.327 5.456 5.327" fill="#FFF"/><mask id="b" fill="#fff"><use xlink:href="#a"/></mask><path fill="#FFF" mask="url(#b)" d="M66.994 10.459h2.746V.211h-2.746zM41.877.001c-3.378 0-5.064 2.283-5.064 4.896v5.564h2.75v-5.67c0-1.4 1.06-2.247 2.256-2.247 1.263 0 2.264.985 2.264 2.246v5.671h2.746V4.897c0-2.596-1.806-4.896-4.952-4.896M31.808 5.882c0 1.404-1.064 2.249-2.264 2.249-1.26 0-2.26-.986-2.26-2.25V.212h-2.75v5.567c0 2.59 1.806 4.896 4.953 4.896 3.378 0 5.069-2.284 5.069-4.896V.21h-2.747v5.67zM82.322 10.46h2.747V.212h-2.747zM60.525 10.46L65.242.21h-2.858l-2.81 6.256L56.762.211h-2.85l4.712 10.248zM49.326 10.46h2.748V.212h-2.748zM75.089 3.145c0-.525.634-.818 1.394-.818.739 0 1.437.315 1.967.697l1.286-1.99C79.058.507 77.603.002 76.269.002c-2.027 0-3.93 1.224-3.93 3.19 0 3.299 4.966 2.75 4.966 4.292 0 .506-.57.864-1.311.864-1.034 0-2.111-.38-2.805-1.015l-1.33 1.964c1.202.89 2.702 1.378 4.117 1.378 2.157 0 4.076-1.206 4.076-3.17 0-3.553-4.963-3.022-4.963-4.36M104.991.001c-3.38 0-5.07 2.283-5.07 4.896v5.564h2.748v-5.67c0-1.4 1.065-2.247 2.264-2.247 1.255 0 2.26.985 2.26 2.246v5.671h2.748V4.897c0-2.596-1.804-4.896-4.95-4.896M31.911 19.418c0 1.924-1.318 3.241-3.271 3.241h-1.844v-6.542h1.844c1.953 0 3.271 1.35 3.271 3.272v.03zm-3.271-5.454h-4.231v10.85h4.231c3.411 0 5.767-2.372 5.767-5.425v-.032c0-3.053-2.356-5.393-5.767-5.393zM38.901 20.411h5.115v-2.125h-5.115v-2.199h5.812v-2.123H36.53v10.85h8.264V22.69h-5.893zM53.084 17.792c0 .93-.696 1.643-1.892 1.643h-1.89v-3.317h1.845c1.193 0 1.937.571 1.937 1.643v.031zm-1.735-3.829h-4.435v10.851h2.389v-3.256h1.812c2.435 0 4.388-1.3 4.388-3.813v-.03c0-2.217-1.565-3.752-4.154-3.752zM65.825 19.418c0 1.86-1.332 3.38-3.254 3.38-1.923 0-3.287-1.55-3.287-3.409v-.032c0-1.86 1.333-3.378 3.256-3.378 1.922 0 3.285 1.55 3.285 3.41v.03zm-3.254-5.642c-3.35 0-5.783 2.528-5.783 5.613v.03c0 3.084 2.403 5.581 5.752 5.581 3.347 0 5.78-2.526 5.78-5.61v-.033c0-3.085-2.4-5.58-5.749-5.58zM77.079 17.698c0 .915-.666 1.535-1.829 1.535h-2.417v-3.116h2.371c1.162 0 1.875.527 1.875 1.55v.031zm2.417-.124v-.032c0-2.23-1.532-3.579-4.091-3.579h-4.96v10.851h2.388v-3.472h1.875l2.324 3.472h2.791l-2.651-3.877c1.381-.51 2.324-1.61 2.324-3.363zM80.877 16.164h3.3v8.65h2.387v-8.65h3.3v-2.2h-8.987zM94.067 20.411h5.114v-2.125h-5.114v-2.199h5.812v-2.123h-8.184v10.85h8.263V22.69h-5.89zM106.484 18.318c-1.877-.479-2.342-.713-2.342-1.427v-.03c0-.527.481-.945 1.396-.945.914 0 1.86.402 2.821 1.07l1.24-1.8c-1.1-.882-2.45-1.378-4.03-1.378-2.218 0-3.798 1.301-3.798 3.27v.031c0 2.154 1.41 2.76 3.596 3.316 1.813.465 2.184.776 2.184 1.381v.031c0 .636-.588 1.023-1.564 1.023-1.24 0-2.264-.51-3.238-1.316l-1.41 1.687a6.9 6.9 0 0 0 4.601 1.737c2.341 0 3.983-1.209 3.983-3.364v-.03c0-1.892-1.239-2.683-3.439-3.256M13.088 5.128c2.3.102 4.059.327 4.627.748l.004 6.406c-1.122.702-5.496.98-8.2.98l-.006-5.409-.002-2.794c.764 0 1.508.007 2.218.024L19.418 0H.866C.445 1.753 0 4.757 0 7.982c0 1.726.113 3.239.34 4.626l3.024-1.997V6.026v-.012c0-.153.125-.275.278-.275.909-.001 3.52.384 5.289 2.499.005.005.009.008.01.013l-.105 5.011c-.802-.022-3.516-.133-5.472-.78v-.927L.507 13.443l.033.145c.6 2.714 1.696 4.917 3.354 6.738 0 0 .616.683.973 1.029l2.895-1.913c-2.57-1.05-4.377-3.552-4.398-6.558 1.037.631 4.009 1.025 5.438 1.045.013 2.309.284 4.932 1.147 6.029a7.168 7.168 0 0 1-1.235-.202l-3.256 2.153c.027.025.056.052.084.074 1.323 1.07 2.96 2.058 5 3.018 2.04-.96 3.676-1.948 5-3.018.174-.149.359-.32.564-.522.318-.286 1.086-1.135 1.086-1.135 1.655-1.821 2.752-4.024 3.35-6.738l.04-.17.146-.71c.054-.321.1-.65.142-.985l-3.234 2.137c-.494 3.478-3.423 6.105-7.005 6.108-.055 0-.108-.004-.16-.004-.82-1.135-.952-3.253-.955-6.046 2.862-.024 6.458-.117 8.132-1.01l3.325-2.198c.072-.854.11-1.755.11-2.728 0-3.014-.39-5.833-.783-7.621l-7.212 4.767z"/></g></svg>