<?xml version="1.0" encoding="utf-8"?>
<!-- Generator: Adobe Illustrator 27.9.0, SVG Export Plug-In . SVG Version: 6.00 Build 0)  -->
<svg version="1.1" id="Capa_1" xmlns="http://www.w3.org/2000/svg" xmlns:xlink="http://www.w3.org/1999/xlink" x="0px" y="0px"
	 viewBox="0 0 110 32" style="enable-background:new 0 0 110 32;" xml:space="preserve">
<style type="text/css">
	.st0{clip-path:url(#SVGID_00000031197837428203010410000013286631856578614145_);}
	.st1{clip-path:url(#SVGID_00000039115853539627995330000001718310111430578048_);}
	.st2{fill:#FFFFFF;}
</style>
<g>
	<defs>
		<rect id="SVGID_1_" width="109.6" height="32"/>
	</defs>
	<clipPath id="SVGID_00000150089701215393358600000002657413691934886836_">
		<use xlink:href="#SVGID_1_"  style="overflow:visible;"/>
	</clipPath>
	<g style="clip-path:url(#SVGID_00000150089701215393358600000002657413691934886836_);">
		<g>
			<defs>
				<rect id="SVGID_00000085969252187965412510000012727903069899965104_" x="38" y="3.5" width="71.6" height="24.9"/>
			</defs>
			<clipPath id="SVGID_00000024711684883091161690000009290137458007181726_">
				<use xlink:href="#SVGID_00000085969252187965412510000012727903069899965104_"  style="overflow:visible;"/>
			</clipPath>
			<g style="clip-path:url(#SVGID_00000024711684883091161690000009290137458007181726_);">
				<path class="st2" d="M48.2,15.4c0,0.8-0.6,1.4-1.4,1.4c-0.8,0-1.4-0.6-1.4-1.4v-0.1c-0.7,0.9-1.6,1.6-3,1.6
					c-2.2,0-4.4-1.7-4.4-4.9v0c0-3.2,2.1-4.9,4.4-4.9c1.5,0,2.4,0.7,3,1.4V4.9c0-0.8,0.6-1.4,1.4-1.4c0.8,0,1.4,0.6,1.4,1.4V15.4z
					 M40.8,11.9L40.8,11.9c0,1.6,1.1,2.7,2.4,2.7c1.3,0,2.3-1.1,2.3-2.6v0c0-1.6-1.1-2.6-2.3-2.6C41.9,9.2,40.8,10.3,40.8,11.9z"/>
				<path class="st2" d="M50.7,4.8c0-0.8,0.7-1.3,1.5-1.3s1.5,0.5,1.5,1.3v0c0,0.8-0.7,1.3-1.5,1.3S50.7,5.6,50.7,4.8L50.7,4.8z
					 M50.8,8.3c0-0.8,0.6-1.4,1.4-1.4c0.8,0,1.4,0.6,1.4,1.4v7.1c0,0.8-0.6,1.4-1.4,1.4c-0.8,0-1.4-0.6-1.4-1.4V8.3z"/>
				<path class="st2" d="M56,15.8c-0.3-0.2-0.5-0.5-0.5-0.9c0-0.6,0.5-1.1,1.1-1.1c0.2,0,0.4,0.1,0.5,0.1c0.9,0.6,1.8,0.9,2.6,0.9
					c0.8,0,1.1-0.3,1.1-0.7v0c0-0.6-0.9-0.8-2-1.1c-1.3-0.4-2.9-1-2.9-2.9v0c0-1.9,1.6-3,3.5-3c1,0,2,0.3,3,0.7
					c0.4,0.2,0.6,0.6,0.6,1c0,0.6-0.5,1.1-1.1,1.1c-0.2,0-0.3,0-0.5-0.1C60.7,9.3,60,9,59.4,9c-0.7,0-1,0.3-1,0.7v0
					c0,0.5,0.9,0.8,2,1.1c1.3,0.4,2.9,1.1,2.9,2.8v0c0,2.1-1.6,3.1-3.7,3.1C58.4,16.8,57.1,16.5,56,15.8z"/>
				<path class="st2" d="M65.6,14V9.4h-0.1c-0.6,0-1.2-0.5-1.2-1.2c0-0.6,0.5-1.2,1.2-1.2h0.1V5.9c0-0.8,0.6-1.4,1.4-1.4
					c0.8,0,1.4,0.6,1.4,1.4v1.2h1.2c0.6,0,1.2,0.5,1.2,1.2c0,0.6-0.5,1.2-1.2,1.2h-1.2v4.1c0,0.6,0.3,0.9,0.9,0.9c0.1,0,0.3,0,0.3,0
					c0.6,0,1.1,0.5,1.1,1.1c0,0.5-0.3,0.9-0.7,1c-0.5,0.2-1,0.3-1.6,0.3C66.7,16.8,65.6,16.2,65.6,14z"/>
				<path class="st2" d="M72.7,8.3C72.7,7.6,73.3,7,74,7c0.8,0,1.4,0.6,1.4,1.4v0.4c0.4-0.9,1-1.8,1.8-1.8s1.3,0.6,1.3,1.3
					c0,0.7-0.5,1.1-1,1.3c-1.4,0.3-2.2,1.4-2.2,3.3v2.5c0,0.8-0.6,1.4-1.4,1.4c-0.8,0-1.4-0.6-1.4-1.4V8.3L72.7,8.3z"/>
				<path class="st2" d="M80.2,4.8c0-0.8,0.7-1.3,1.5-1.3c0.9,0,1.5,0.5,1.5,1.3v0c0,0.8-0.7,1.3-1.5,1.3
					C80.9,6.1,80.2,5.6,80.2,4.8L80.2,4.8z M80.4,8.3C80.4,7.6,81,7,81.8,7c0.8,0,1.4,0.6,1.4,1.4v7.1c0,0.8-0.6,1.4-1.4,1.4
					c-0.8,0-1.4-0.6-1.4-1.4V8.3z"/>
				<path class="st2" d="M86.2,14V9.4h-0.1c-0.6,0-1.2-0.5-1.2-1.2c0-0.6,0.5-1.2,1.2-1.2h0.1V5.9c0-0.8,0.6-1.4,1.4-1.4
					c0.8,0,1.4,0.6,1.4,1.4v1.2h1.2c0.6,0,1.2,0.5,1.2,1.2c0,0.6-0.5,1.2-1.2,1.2H89v4.1c0,0.6,0.3,0.9,0.9,0.9c0.1,0,0.3,0,0.3,0
					c0.6,0,1.1,0.5,1.1,1.1c0,0.5-0.3,0.9-0.7,1c-0.5,0.2-1,0.3-1.6,0.3C87.4,16.8,86.2,16.2,86.2,14z"/>
				<path class="st2" d="M93.1,11.9L93.1,11.9c0-2.8,2.2-5,5.2-5c3,0,5.2,2.2,5.2,4.9v0c0,2.7-2.2,5-5.2,5
					C95.3,16.9,93.1,14.7,93.1,11.9z M100.8,11.9L100.8,11.9c0-1.4-1-2.7-2.5-2.7s-2.5,1.2-2.5,2.6v0c0,1.4,1,2.6,2.5,2.6
					S100.8,13.3,100.8,11.9z"/>
				<path class="st2" d="M38,23.5L38,23.5c0-2.8,2.1-5,5-5c1.5,0,2.5,0.4,3.3,1.1c0.2,0.1,0.4,0.5,0.4,0.9c0,0.7-0.6,1.2-1.2,1.2
					c-0.4,0-0.6-0.1-0.8-0.3c-0.5-0.4-1-0.6-1.7-0.6c-1.4,0-2.3,1.2-2.3,2.6v0c0,1.5,1,2.6,2.4,2.6c0.7,0,1.3-0.3,1.8-0.7
					c0.1-0.1,0.4-0.3,0.7-0.3c0.6,0,1.1,0.5,1.1,1.2c0,0.4-0.2,0.6-0.4,0.9c-0.8,0.7-1.8,1.2-3.4,1.2C40.2,28.4,38,26.2,38,23.5z"/>
				<path class="st2" d="M47.2,23.5L47.2,23.5c0-2.8,2.2-5,5.2-5c3,0,5.2,2.2,5.2,4.9v0c0,2.7-2.2,5-5.2,5
					C49.4,28.4,47.2,26.2,47.2,23.5z M54.9,23.5L54.9,23.5c0-1.4-1-2.7-2.5-2.7c-1.5,0-2.5,1.2-2.5,2.6v0c0,1.4,1,2.6,2.5,2.6
					S54.9,24.9,54.9,23.5z"/>
				<path class="st2" d="M58.4,19.9c0-0.8,0.6-1.4,1.4-1.4c0.8,0,1.4,0.6,1.4,1.4V20c0.6-0.8,1.5-1.5,2.8-1.5c1.3,0,2.2,0.6,2.7,1.5
					c0.8-1,1.8-1.5,3.2-1.5c2,0,3.2,1.2,3.2,3.5v5c0,0.8-0.6,1.4-1.4,1.4c-0.8,0-1.4-0.6-1.4-1.4v-4.1c0-1.3-0.6-1.9-1.6-1.9
					c-1,0-1.7,0.7-1.7,1.9V27c0,0.8-0.6,1.4-1.4,1.4c-0.8,0-1.4-0.6-1.4-1.4v-4.1c0-1.3-0.6-1.9-1.6-1.9c-1,0-1.7,0.7-1.7,1.9V27
					c0,0.8-0.6,1.4-1.4,1.4c-0.8,0-1.4-0.6-1.4-1.4V19.9L58.4,19.9z"/>
				<path class="st2" d="M79.2,28.4c-2.9,0-5-2-5-4.9v0c0-2.7,2-5,4.8-5c3.2,0,4.6,2.6,4.6,4.6c0,0.8-0.6,1.3-1.3,1.3h-5.4
					c0.3,1.2,1.1,1.9,2.4,1.9c0.8,0,1.4-0.2,1.9-0.6c0.2-0.1,0.4-0.2,0.7-0.2c0.6,0,1.1,0.5,1.1,1.1c0,0.4-0.2,0.6-0.4,0.8
					C81.7,28,80.6,28.4,79.2,28.4z M80.9,22.7c-0.2-1.2-0.9-2-2-2s-1.9,0.8-2.1,2H80.9z"/>
				<path class="st2" d="M94.4,27c0,0.8-0.6,1.4-1.4,1.4c-0.8,0-1.4-0.6-1.4-1.4v-0.1c-0.7,0.9-1.6,1.6-3,1.6
					c-2.2,0-4.4-1.7-4.4-4.9v0c0-3.2,2.1-4.9,4.4-4.9c1.5,0,2.4,0.7,3,1.4v-2.7c0-0.8,0.6-1.4,1.4-1.4c0.8,0,1.4,0.6,1.4,1.4V27z
					 M87.1,23.4L87.1,23.4c0,1.6,1.1,2.7,2.4,2.7c1.3,0,2.3-1.1,2.3-2.6v0c0-1.6-1.1-2.6-2.3-2.6C88.1,20.8,87.1,21.8,87.1,23.4z"/>
				<path class="st2" d="M96.6,19.9c0-0.8,0.6-1.4,1.4-1.4c0.8,0,1.4,0.6,1.4,1.4V27c0,0.8-0.6,1.4-1.4,1.4c-0.8,0-1.4-0.6-1.4-1.4
					V19.9z"/>
				<path class="st2" d="M100.8,25.5L100.8,25.5c0-2.1,1.6-3.1,3.9-3.1c1,0,1.7,0.2,2.3,0.4v-0.2c0-1.1-0.7-1.7-2.1-1.7
					c-0.8,0-1.4,0.1-1.9,0.3c-0.2,0.1-0.3,0.1-0.4,0.1c-0.6,0-1.1-0.5-1.1-1.1c0-0.5,0.3-0.9,0.7-1.1c0.9-0.3,1.8-0.5,3.1-0.5
					c1.5,0,2.6,0.4,3.2,1.1c0.7,0.7,1,1.8,1,3.1V27c0,0.7-0.6,1.3-1.3,1.3c-0.8,0-1.3-0.6-1.3-1.1v0c-0.7,0.7-1.6,1.2-2.9,1.2
					C102.2,28.4,100.8,27.4,100.8,25.5L100.8,25.5z M107,24.8v-0.5c-0.5-0.2-1.1-0.4-1.7-0.4c-1.2,0-1.9,0.5-1.9,1.3v0
					c0,0.7,0.6,1.2,1.5,1.2C106.2,26.5,107,25.8,107,24.8L107,24.8z"/>
			</g>
		</g>
		<path class="st2" d="M29.9,16.7L29.9,16.7c-0.4-0.2-0.8-0.3-1.2-0.3c-0.8,0-1.4,0.4-1.9,1C26.1,18.4,25,19,23.7,19
			c-2,0-3.8-1.7-3.8-3.7s1.7-3.7,3.8-3.7c1.3,0,2.6,0.7,3.3,1.9l0,0c0.4,0.7,1.1,1.1,1.9,1.1c0.4,0,0.7-0.1,1.1-0.3l0,0
			c1-0.6,1.4-2,0.8-3c-1.5-2.5-4.2-4-7-4c-3.4,0-6.3,2.1-7.5,5.1V2.2C16.2,1,15.2,0,14,0s-2.2,1-2.2,2.2v6c-1.1-0.6-2.4-0.9-3.7-0.9
			C3.6,7.2,0,10.9,0,15.3s3.6,8.1,8.1,8.1c3.7,0,6.8-2.5,7.8-5.9c0.9,3.4,4.1,5.9,7.8,5.9c2.8,0,5.3-1.4,6.8-3.7
			C31.1,18.7,30.9,17.3,29.9,16.7z M11.8,15.3c0,2.1-1.7,3.7-3.7,3.7c-2.1,0-3.7-1.7-3.7-3.7s1.7-3.7,3.7-3.7
			C10.2,11.6,11.8,13.2,11.8,15.3L11.8,15.3L11.8,15.3z"/>
		<path class="st2" d="M29,23.9C29,23.8,29,23.8,29,23.9c-0.7-0.3-1.6-0.2-2.2,0.2c-2.8,2.1-6.3,3.3-9.9,3.6c-0.4,0-0.7,0-1.1,0
			s-0.7,0-1.1,0c-3.6-0.2-7.1-1.5-9.9-3.6c-0.6-0.5-1.5-0.6-2.2-0.3c0,0,0,0,0,0C2.3,24,2,24.2,1.8,24.5c-0.5,0.7-0.6,1.7-0.1,2.4
			c0.1,0.2,0.3,0.5,0.6,0.6c3.7,2.8,8.4,4.4,13.1,4.5c0.2,0,0.3,0,0.5,0c0.2,0,0.3,0,0.5,0c4.8-0.1,9.4-1.7,13.1-4.5
			c0.2-0.2,0.4-0.4,0.6-0.6c0.4-0.7,0.4-1.7-0.1-2.4C29.6,24.2,29.3,24,29,23.9L29,23.9z"/>
	</g>
</g>
</svg>
