<svg width="302" height="43" xmlns="http://www.w3.org/2000/svg" xmlns:xlink="http://www.w3.org/1999/xlink"><defs><path id="a" d="M0 .854h34.071v40.663H0z"/></defs><g fill="none" fill-rule="evenodd"><path fill="#FFF" d="M83.601 29.657H79.42V13.969H83.6zM110.43 29.657h-4.182V13.969h4.182zM133.803 29.657h-4.183V13.969h4.183zM64.58 29.657v-8.679c0-2.15 1.612-3.435 3.426-3.435 1.928 0 3.447 1.499 3.447 3.435v8.679h4.176v-8.518c0-3.974-2.75-7.494-7.529-7.494-5.144 0-7.709 3.497-7.709 7.494v8.518h4.19zM160.58 29.657v-8.679c0-2.15 1.615-3.435 3.426-3.435 1.928 0 3.447 1.499 3.447 3.435v8.679h4.176v-8.518c0-3.974-2.75-7.494-7.53-7.494-5.143 0-7.708 3.497-7.708 7.494v8.518h4.19zM94.918 23.548l4.275-9.579h4.35L96.37 29.657h-2.89l-7.174-15.688h4.337zM115.813 24.874c1.06.967 2.702 1.55 4.27 1.55 1.13 0 1.995-.549 1.995-1.324 0-2.357-7.551-1.517-7.551-6.57 0-3.012 2.893-4.885 5.977-4.885 2.03 0 4.24.773 5.275 1.582l-1.956 3.043c-.808-.583-1.868-1.062-2.995-1.062-1.152 0-2.122.447-2.122 1.253 0 2.042 7.555 1.23 7.555 6.673 0 3.004-2.922 4.85-6.202 4.85-2.153 0-4.44-.749-6.266-2.107l2.02-3.003zM145.107 26.098c2.446 0 4.113-1.912 4.113-4.265 0-2.366-1.667-4.304-4.113-4.304-2.438 0-4.119 1.938-4.119 4.304 0 2.353 1.681 4.265 4.12 4.265m0-12.452c4.725 0 8.284 3.655 8.284 8.187s-3.559 8.153-8.285 8.153-8.305-3.621-8.305-8.153 3.58-8.187 8.305-8.187M52.79 13.97v8.68c0 2.148-1.628 3.44-3.446 3.44a3.41 3.41 0 0 1-3.444-3.44v-8.68h-4.177v8.52c0 3.964 2.743 7.496 7.531 7.496 5.138 0 7.71-3.5 7.71-7.497v-8.52H52.79z"/><path d="M187.547 21.814c0-2.805-1.91-4.773-4.74-4.773h-2.674v9.545h2.674c2.83 0 4.74-1.922 4.74-4.729v-.043zm-4.74 7.917h-6.135V13.9h6.135c4.944 0 8.358 3.413 8.358 7.871v.043c0 4.456-3.414 7.917-8.358 7.917zM194.243 29.73V13.9h11.864v3.098h-8.427v3.209h7.415v3.099h-7.415v3.324h8.54v3.1zM218.24 19.44c0-1.563-1.078-2.398-2.81-2.398h-2.672v4.84h2.74c1.731 0 2.742-1.042 2.742-2.398v-.044zm-2.853 5.538h-2.629v4.754h-3.462V13.9h6.428c3.752 0 6.022 2.236 6.022 5.473v.043c0 3.667-2.831 5.562-6.36 5.562zM236.71 21.814c0-2.713-1.978-4.974-4.763-4.974-2.788 0-4.72 2.215-4.72 4.931v.043c0 2.712 1.978 4.974 4.765 4.974 2.786 0 4.717-2.216 4.717-4.93v-.044zm-4.763 8.187c-4.854 0-8.339-3.642-8.339-8.144v-.043c0-4.501 3.529-8.186 8.384-8.186 4.853 0 8.334 3.642 8.334 8.143v.043c0 4.502-3.527 8.187-8.38 8.187zM253.022 19.304c0-1.493-1.033-2.26-2.716-2.26h-3.439v4.543h3.505c1.685 0 2.65-.903 2.65-2.239v-.044zm-.066 10.426l-3.37-5.066h-2.719v5.066h-3.46V13.9h7.189c3.71 0 5.93 1.968 5.93 5.221v.046c0 2.557-1.368 4.16-3.368 4.908L257 29.73h-4.045zM266.773 17.11v12.621h-3.46V17.11h-4.786v-3.212h13.03v3.212zM274.21 29.73V13.9h11.863v3.098h-8.425v3.209h7.415v3.099h-7.415v3.324h8.537v3.1zM294.86 29.957c-2.383 0-4.785-.838-6.673-2.534l2.045-2.465c1.414 1.176 2.896 1.924 4.695 1.924 1.414 0 2.267-.567 2.267-1.495v-.043c0-.885-.537-1.338-3.165-2.015-3.17-.814-5.214-1.695-5.214-4.837v-.049c0-2.87 2.292-4.767 5.505-4.767 2.292 0 4.247.722 5.843 2.01l-1.797 2.625c-1.394-.974-2.764-1.564-4.09-1.564-1.327 0-2.024.61-2.024 1.38v.045c0 1.042.675 1.38 3.396 2.082 3.189.837 4.985 1.99 4.985 4.749v.044c0 3.147-2.38 4.91-5.774 4.91" fill="#C5C2C3"/><g transform="translate(0 .629)"><mask id="b" fill="#fff"><use xlink:href="#a"/></mask><path d="M21.15 9.195c3.719.163 6.559.53 7.48 1.214l.005 10.421c-1.813 1.143-8.881 1.594-13.252 1.594l-.009-8.799-.004-4.544c1.236.001 2.436.013 3.582.04L31.38.854H1.401C.721 3.706 0 8.591 0 13.836c0 2.805.184 5.268.554 7.526l4.883-3.25v-7.458.003l-.001-.02a.45.45 0 0 1 .45-.449c1.47-.001 5.689.626 8.547 4.066.006.007.013.012.019.02l-.173 8.15c-1.294-.037-5.682-.216-8.842-1.27v-1.506L.821 22.72l.053.234c.969 4.416 2.74 7.998 5.418 10.961 0 0 .997 1.112 1.573 1.674l4.679-3.112C8.388 30.768 5.471 26.7 5.436 21.809c1.678 1.027 6.479 1.666 8.789 1.699.02 3.757.458 8.022 1.855 9.807-.687-.05-1.351-.165-1.996-.328L8.82 36.488c.046.04.093.085.135.123 2.14 1.74 4.784 3.345 8.08 4.907h.002c3.296-1.562 5.94-3.168 8.08-4.907.28-.245.578-.523.91-.851.515-.464 1.754-1.846 1.754-1.846 2.677-2.963 4.449-6.545 5.417-10.96l.062-.275.235-1.156c.089-.52.163-1.058.23-1.605L28.5 23.397c-.798 5.656-5.53 9.928-11.32 9.933-.088 0-.175-.006-.258-.006-1.326-1.846-1.54-5.29-1.544-9.832 4.626-.04 10.436-.19 13.14-1.643l5.374-3.575c.116-1.39.18-2.854.18-4.438 0-4.902-.63-9.49-1.266-12.394L21.15 9.195z" fill="#FFF" mask="url(#b)"/></g></g></svg>