<svg xmlns="http://www.w3.org/2000/svg" width="26" height="8"><path fill="#FFF" d="M0 0h1.12215l4.5996 5.20995V0H7.3125v7.99602H6.19035L1.59486 2.79005V8H.00411V0zm11.37306 0c2.40454 0 4.06444 1.78896 4.06444 4 0 2.21104-1.6599 4-4.06444 4C8.96853 8 7.3125 6.21104 7.3125 4c0-2.21104 1.65603-4 4.06056-4zm0 6.66796c1.46987 0 2.55967-1.20039 2.55967-2.66796 0-1.46757-1.0898-2.66796-2.55967-2.66796S8.8134 2.53243 8.8134 4c0 1.46757 1.0898 2.66796 2.55967 2.66796zM15.4375 0h1.48768l1.58685 4.99353L20.19806 0h1.04138l1.68603 4.99353L24.51232 0H26l-2.54049 8h-1.04138l-1.70892-5.06122L19.01174 8h-1.04138z"/></svg>
