<svg width="240" height="29" xmlns="http://www.w3.org/2000/svg" xmlns:xlink="http://www.w3.org/1999/xlink"><defs><path id="a" d="M0 28.75h239.3V.43H0z"/></defs><g fill="none" fill-rule="evenodd"><path fill="#FFF" d="M71.09 21.02h-3.57V7.7h3.57zM94 21.02h-3.57V7.7h3.58zM113.97 21.02h-3.57V7.7h3.57z"/><g transform="translate(0 -.19)"><path d="M54.84 21.2v-7.36a2.83 2.83 0 0 1 2.93-2.92 2.9 2.9 0 0 1 2.94 2.92v7.36h3.57v-7.23a6.16 6.16 0 0 0-6.43-6.36c-4.4 0-6.58 2.97-6.58 6.36v7.23h3.57zM136.84 21.2v-7.36a2.83 2.83 0 0 1 2.93-2.92 2.9 2.9 0 0 1 2.94 2.92v7.36h3.57v-7.23a6.16 6.16 0 0 0-6.44-6.36c-4.39 0-6.58 2.97-6.58 6.36v7.23h3.58zM80.76 16.02l3.65-8.13h3.71L82 21.2h-2.47L73.4 7.9h3.7zM98.6 17.14c.9.82 2.31 1.32 3.65 1.32.96 0 1.7-.47 1.7-1.12 0-2-6.45-1.3-6.45-5.58 0-2.56 2.48-4.15 5.1-4.15 1.74 0 3.63.66 4.52 1.35l-1.68 2.58c-.69-.5-1.6-.9-2.55-.9-.99 0-1.82.38-1.82 1.06 0 1.73 6.46 1.04 6.46 5.66 0 2.55-2.5 4.12-5.3 4.12a9.2 9.2 0 0 1-5.35-1.79l1.72-2.55zM123.62 18.18c2.1 0 3.52-1.62 3.52-3.62s-1.43-3.65-3.52-3.65c-2.08 0-3.52 1.65-3.52 3.65s1.44 3.62 3.52 3.62m0-10.57a6.93 6.93 0 1 1 0 13.87 6.94 6.94 0 0 1 0-13.87M44.77 7.89v7.37a2.84 2.84 0 0 1-2.94 2.92 2.9 2.9 0 0 1-2.94-2.92V7.89h-3.57v7.23a6.16 6.16 0 0 0 6.43 6.36c4.4 0 6.59-2.97 6.59-6.36V7.89h-3.57zM27.6 13.68l-.01-11.7C26 .81 19.59.44 12.19.44l.02 15.09c5.07 0 13.28-.53 15.39-1.85M14 28.74l.3.01c7.35 0 13.24-5.92 13.3-13.4-3.09 1.75-9.95 1.93-15.4 1.98.01 5.27.26 9.27 1.8 11.41M0 15.37a13.32 13.32 0 0 0 12.36 13.36c-1.62-2.07-2.13-7.02-2.15-11.38-2.69-.04-8.26-.78-10.21-1.98M0 1.86v12.2c3.67 1.22 8.77 1.42 10.27 1.47 0 0 .17-9.7.16-9.72-3.38-3.79-8.2-4.49-9.9-4.49a.52.52 0 0 0-.53.55M154.49 7.89h1.83l7.55 8.82V7.9h2.61v13.54h-1.84l-7.54-8.82v8.82h-2.61zM175.18 19.3a4.5 4.5 0 0 0 4.45-4.64 4.5 4.5 0 0 0-4.45-4.64 4.5 4.5 0 0 0-4.45 4.64 4.5 4.5 0 0 0 4.45 4.64m0-11.6a6.84 6.84 0 0 1 7.06 6.96 6.84 6.84 0 0 1-7.06 6.96 6.84 6.84 0 0 1-7.06-6.96 6.84 6.84 0 0 1 7.06-6.96M192.3 7.89v2.32h-3.58v11.22h-2.6V10.21h-3.59V7.9z" fill="#FFF"/><mask id="b" fill="#fff"><use xlink:href="#a"/></mask><path fill="#FFF" mask="url(#b)" d="M193.85 21.43h2.6V7.9h-2.6zM200.71 14.66a4.56 4.56 0 0 0 4.63 4.64c1.76 0 3.03-.85 3.83-1.87l1.8 1.6a7.12 7.12 0 0 1-5.7 2.6c-4.2 0-7.17-3.08-7.17-6.97 0-3.89 2.92-6.96 7.14-6.96 2.01 0 3.73.75 4.95 1.93l-1.68 1.78a4.52 4.52 0 0 0-7.8 3.25M212.41 21.43h2.62V7.9h-2.62zM221.08 16.11h3.44l-1.72-4-1.72 4zm-5 5.32L221.9 7.9h1.84l5.8 13.54h-2.72l-1.28-3h-5.44l-1.27 3h-2.73zM231.52 17.82a4.45 4.45 0 0 0 3.2 1.48c1.16 0 1.97-.71 1.97-1.7 0-1.74-2.52-1.95-4.33-3.02-1.07-.61-1.92-1.54-1.92-3.07 0-2.42 2.23-3.81 4.47-3.81 1.37 0 2.65.33 3.93 1.27l-1.36 1.94a3.63 3.63 0 0 0-2.34-.9c-.99 0-2.09.43-2.09 1.48 0 2.18 6.25 1.5 6.25 6.07 0 2.4-2.15 4.07-4.58 4.07-1.82 0-3.5-.76-4.9-2.03l1.7-1.78z"/></g></g></svg>