<svg width="214" height="14" xmlns="http://www.w3.org/2000/svg" xmlns:xlink="http://www.w3.org/1999/xlink"><defs><polygon id="a" points="0 13.8346479 213.890544 13.8346479 213.890544 .05889607 0 .05889607"/><polygon id="c" points="0 13.8346479 213.890544 13.8346479 213.890544 .05889607 0 .05889607"/><polygon id="e" points="0 13.8346479 213.890544 13.8346479 213.890544 .05889607 0 .05889607"/><polygon id="g" points="0 13.8346479 213.890544 13.8346479 213.890544 .05889607 0 .05889607"/><polygon id="i" points="0 13.8346479 213.890544 13.8346479 213.890544 .05889607 0 .05889607"/><polygon id="k" points="0 13.8346479 213.890544 13.8346479 213.890544 .05889607 0 .05889607"/><polygon id="m" points="0 13.8346479 213.890544 13.8346479 213.890544 .05889607 0 .05889607"/><polygon id="o" points="0 13.8346479 213.890544 13.8346479 213.890544 .05889607 0 .05889607"/><polygon id="q" points="0 13.8346479 213.890544 13.8346479 213.890544 .05889607 0 .05889607"/><polygon id="s" points="0 13.8346479 213.890544 13.8346479 213.890544 .05889607 0 .05889607"/><polygon id="u" points="0 13.8346479 213.890544 13.8346479 213.890544 .05889607 0 .05889607"/><polygon id="w" points="0 13.8346479 213.890544 13.8346479 213.890544 .05889607 0 .05889607"/></defs><g fill="none" fill-rule="evenodd"><g transform="translate(-54.000000, -18.000000)"><g transform="translate(54.000000, 18.000000)"><polygon fill="#20211F" fill-rule="nonzero" points="123.843392 .19771688 122.143182 2.18832508 124.921056 2.18832508 126.761574 .21965468"/><polygon fill="#619744" fill-rule="nonzero" points="0 3.4739789 0 13.5709002 7.52969514 13.5709002 7.52969514 11.8830732 1.92187328 11.8830732 1.92187328 9.3446129 6.79808631 9.3446129 6.79808631 7.65658823 1.92187328 7.65658823 1.92187328 5.16141067 7.35735536 5.16141067 7.35735536 3.4739789"/><polygon fill="#619744" fill-rule="nonzero" points="12.2490731 3.47393937 12.2490731 11.8253234 16.5803624 11.8253234 16.5803624 13.5706631 10.3271998 13.5706631 10.3271998 3.47393937"/><polygon fill="#619744" fill-rule="nonzero" points="26.2903618 3.47393937 26.2903618 5.16156878 20.8548797 5.16156878 20.8548797 7.65674632 25.7310928 7.65674632 25.7310928 9.3445734 20.8548797 9.3445734 20.8548797 11.8832313 26.4625051 11.8832313 26.4625051 13.5706631 18.9332029 13.5706631 18.9332029 3.47393937"/><g transform="translate(0.000000, 0.138702)"><path d="M33.8066942 4.99383355C31.9135115 4.99383355 30.4363416 6.46504952 30.4363416 8.34023724 30.4363416 10.2300501 31.9135115 11.7012661 33.8066942 11.7012661 34.7676309 11.7012661 35.7857521 11.2540117 36.5317062 10.5184037L37.6645895 11.7876338C36.6321231 12.8406482 35.1547566 13.518546 33.7062773 13.518546 30.7519375 13.518546 28.4714325 11.2828669 28.4714325 8.36928999 28.4714325 5.48437065 30.7806281 3.27734903 33.7780037 3.27734903 35.2121377 3.27734903 36.6751589 3.89773417 37.6504408 4.89284063L36.5317062 6.30654399C35.8146391 5.49879823 34.7963214 4.99383355 33.8066942 4.99383355M44.4349679 4.99383355C42.5417851 4.99383355 41.0648118 6.46504952 41.0648118 8.34023724 41.0648118 10.2300501 42.5417851 11.7012661 44.4349679 11.7012661 45.3959045 11.7012661 46.4142222 11.2540117 47.1599798 10.5184037L48.2930597 11.7876338C47.2603967 12.8406482 45.7832268 13.518546 44.3345509 13.518546 41.3802112 13.518546 39.0999027 11.2828669 39.0999027 8.36928999 39.0999027 5.48437065 41.4090983 3.27734903 44.4062773 3.27734903 45.8406079 3.27734903 47.3034325 3.89773417 48.2787144 4.89284063L47.1599798 6.30654399C46.4429127 5.49879823 45.424595 4.99383355 44.4349679 4.99383355" fill="#619744" fill-rule="nonzero"/><g><mask id="b" fill="#fff"><use xlink:href="#a"/></mask><g/><polygon fill="#619744" fill-rule="nonzero" mask="url(#b)" points="50.718 13.4320596 52.6398735 13.4320596 52.6398735 3.33533597 50.718 3.33533597"/></g><g><mask id="d" fill="#fff"><use xlink:href="#c"/></mask><g/><path d="M57.1292751,8.38367802 C57.1292751,10.2875232 58.6925167,11.7875943 60.5426635,11.7875943 C62.3784651,11.7875943 63.8986709,10.2875232 63.8986709,8.38367802 C63.8986709,6.47943755 62.3784651,5.00822159 60.5426635,5.00822159 C58.6783679,5.00822159 57.1292751,6.47943755 57.1292751,8.38367802 M65.8635797,8.38367802 C65.8635797,11.2828273 63.5402354,13.5185064 60.5141694,13.5185064 C57.4879065,13.5185064 55.1643659,11.2828273 55.1643659,8.38367802 C55.1643659,5.46990357 57.4879065,3.27750714 60.5141694,3.27750714 C63.5402354,3.27750714 65.8635797,5.4843311 65.8635797,8.38367802" fill="#619744" fill-rule="nonzero" mask="url(#d)"/></g><g><mask id="f" fill="#fff"><use xlink:href="#e"/></mask><g/><polygon fill="#619744" fill-rule="nonzero" mask="url(#f)" points="70.2246795 3.33523715 75.4021432 10.2442603 75.4021432 3.33523715 77.2666358 3.33523715 77.2666358 13.4319608 75.4449825 13.4319608 70.2820609 6.53736522 70.2820609 13.4319608 68.4032231 13.4319608 68.4032231 3.33523715"/></g><g><mask id="h" fill="#fff"><use xlink:href="#g"/></mask><g/><polygon fill="#619744" fill-rule="nonzero" mask="url(#h)" points="87.9380632 3.33523715 87.9380632 5.02286655 82.5025811 5.02286655 82.5025811 7.51804414 87.3787938 7.51804414 87.3787938 9.20587117 82.5025811 9.20587117 82.5025811 11.7445291 88.110206 11.7445291 88.110206 13.4319608 80.5807075 13.4319608 80.5807075 3.33523715"/></g><g><mask id="j" fill="#fff"><use xlink:href="#i"/></mask><g/><path d="M94.2066318,5.00830064 C93.3028799,5.00830064 92.7149205,5.34013455 92.7149205,5.96032208 C92.7149205,8.0086405 98.1075629,6.89811356 98.0930212,10.5182456 C98.0930212,12.4078609 96.4582499,13.5041579 94.2496676,13.5041579 C92.6431938,13.5041579 91.0801487,12.8551153 90.0042539,11.8886663 L90.8073923,10.2587471 C91.8400555,11.1819134 93.2026596,11.7443907 94.2781616,11.7443907 C95.3538605,11.7443907 95.9993977,11.3406166 95.9993977,10.6336661 C95.9993977,8.52763743 90.6067549,9.72492739 90.6067549,6.13325514 C90.6067549,4.37348794 92.1128119,3.24853343 94.3642335,3.24853343 C95.6981472,3.24853343 97.0318645,3.68116264 97.992801,4.31597534 L97.2181561,5.98897954 C96.1428506,5.34013455 94.9810803,5.00830064 94.2066318,5.00830064" fill="#619744" fill-rule="nonzero" mask="url(#j)"/></g><g><mask id="l" fill="#fff"><use xlink:href="#k"/></mask><g/><polygon fill="#20211F" fill-rule="nonzero" mask="url(#l)" points="108.6613 3.32075029 111.328931 9.2200418 113.996562 3.32075029 116.865027 3.32075029 116.865027 13.4320992 114.541682 13.4320992 114.527337 7.02784303 112.189451 12.4223675 110.468411 12.4223675 108.130722 7.02784303 108.130722 13.4320992 105.793032 13.4320992 105.793032 3.32075029"/></g><g><mask id="n" fill="#fff"><use xlink:href="#m"/></mask><g/><polygon fill="#20211F" fill-rule="nonzero" mask="url(#n)" points="127.594051 3.32075029 127.594051 5.42658133 122.28748 5.42658133 122.28748 7.31619663 127.077622 7.31619663 127.077622 9.40779773 122.28748 9.42222532 122.28748 11.3260705 127.737308 11.3260705 127.737308 13.4320992 119.662885 13.4320992 119.662885 3.32075029"/></g><g><mask id="p" fill="#fff"><use xlink:href="#o"/></mask><g/><polygon fill="#20211F" fill-rule="nonzero" mask="url(#p)" points="132.557102 3.32075029 134.436136 6.19104446 136.328926 3.32075029 139.426915 3.32075029 136.113943 8.15279755 139.71382 13.4320992 136.572992 13.4320992 134.436136 10.3019113 132.341923 13.4320992 129.272821 13.4320992 132.844204 8.28264557 129.502346 3.32075029"/></g><g><mask id="r" fill="#fff"><use xlink:href="#q"/></mask><g/><polygon fill="#20211F" fill-rule="nonzero" mask="url(#r)" points="141.62241 13.4320596 144.246808 13.4320596 144.246808 3.32071077 141.62241 3.32071077"/></g><g><mask id="t" fill="#fff"><use xlink:href="#s"/></mask><g/><path d="M151.819932,5.4843509 C150.270839,5.4843509 149.094724,6.71029833 149.094724,8.32578991 C149.094724,9.95590671 150.270839,11.1962817 151.819932,11.1962817 C152.651368,11.1962817 153.612501,10.7345998 154.315223,10.013617 L155.849971,11.6721936 C154.774272,12.8117733 153.167798,13.5473813 151.676479,13.5473813 C148.65002,13.5473813 146.398402,11.3261298 146.398402,8.35464502 C146.398402,5.44087056 148.707598,3.24847414 151.7767,3.24847414 C153.268215,3.24847414 154.831653,3.91194433 155.835626,4.97938623 L154.315223,6.81129123 C153.655734,6.00334782 152.694601,5.4843509 151.819932,5.4843509" fill="#20211F" fill-rule="nonzero" mask="url(#t)"/></g><g><mask id="v" fill="#fff"><use xlink:href="#u"/></mask><g/><path d="M167.228738,10.0112058 C167.004912,10.7916776 166.588506,11.5164155 166.03022,12.1134794 C165.088541,13.1212346 163.764257,13.7432009 162.372962,13.8250229 C162.263702,13.831545 162.154639,13.8347072 162.045182,13.8347072 C159.057436,13.8347072 156.637015,11.4569265 156.637015,8.52615515 C156.637015,5.59360508 159.057436,3.21780075 162.045182,3.21780075 C163.406607,3.21780075 164.757617,3.75458509 165.735061,4.62814428 L167.139325,3.2859858 L168.512738,4.6360498 L166.004673,7.09802421 L165.275816,7.83106291 L164.40665,8.70640085 L162.216736,10.765787 L159.763695,8.52615515 L161.094268,7.10573209 L162.216736,8.03146765 L164.035048,6.20055081 C163.463792,5.64756021 162.910615,5.42126486 162.045182,5.42126486 C160.298203,5.42126486 158.881755,6.81164698 158.881755,8.52615515 C158.881755,10.2410586 160.298203,11.631243 162.045182,11.631243 C163.542396,11.631243 164.828165,10.5517452 165.140224,9.12934579 C165.196425,8.87340479 165.154569,9.08329619 165.186207,8.824193 C165.47154,8.66292051 167.152492,7.0033557 167.154457,7.00948246 C167.404418,7.90478184 167.48656,9.11155841 167.228738,10.0112058" fill="#20211F" fill-rule="nonzero" mask="url(#v)"/></g><g><mask id="x" fill="#fff"><use xlink:href="#w"/></mask><g/><path d="M177.908045,7.90705465 C178.467511,7.32995222 178.883327,6.68071193 178.883327,6.24808274 C178.883327,5.70003306 178.467511,5.3826267 177.735902,5.3826267 C176.918418,5.3826267 175.885558,5.87296611 174.953312,6.666482 L173.963685,4.71895887 C175.254563,3.76693746 176.660007,3.189835 178.123224,3.189835 C180.15986,3.189835 181.637423,4.2572769 181.637423,5.85853859 C181.637423,6.95503324 180.805397,8.09461294 179.686662,9.23419269 L177.62114,11.3115639 L181.924131,11.3115639 L181.924131,13.4320201 L174.264739,13.4320201 L174.250591,11.6866804 L177.908045,7.90705465 Z M189.079867,3.24754525 C192.192201,3.24754525 194.516135,5.44033692 194.516135,8.36853895 C194.516135,11.3257938 192.192201,13.5474406 189.079867,13.5474406 C185.967336,13.5474406 183.643599,11.3257938 183.643599,8.36853895 C183.643599,5.42571174 185.967336,3.24754525 189.079867,3.24754525 Z M189.108557,5.49804719 C187.6025,5.49804719 186.340313,6.7384222 186.340313,8.38316418 C186.340313,10.0275109 187.616846,11.2971363 189.108557,11.2971363 C190.614614,11.2971363 191.819421,10.0275109 191.819421,8.38316418 C191.819421,6.7384222 190.614614,5.49804719 189.108557,5.49804719 Z M197.024396,3.31968305 L201.585603,3.31968305 L201.585603,13.4320201 L198.960811,13.4320201 L198.960811,5.48342196 L197.024396,5.48342196 L197.024396,3.31968305 Z M209.817037,3.189835 C211.997322,3.189835 213.374075,4.2572769 213.374075,5.93067638 C213.374075,6.78190248 212.915419,7.57522072 212.169465,8.00804756 C213.216473,8.48395949 213.890504,9.45060608 213.890504,10.5757582 C213.890504,12.3934333 212.298572,13.5474406 209.831382,13.5474406 C207.378734,13.5474406 205.800754,12.4078609 205.800754,10.6190409 C205.800754,9.47946119 206.518214,8.48395949 207.636949,8.00804756 C206.819268,7.53193808 206.302839,6.70956704 206.302839,5.85853859 C206.302839,4.22842178 207.694133,3.189835 209.817037,3.189835 Z M209.831382,4.96422741 C208.970666,4.96422741 208.497469,5.35377154 208.497469,6.07495198 C208.497469,6.76727731 208.970666,7.15682146 209.831382,7.15682146 C210.706247,7.15682146 211.179641,6.76727731 211.179641,6.07495198 C211.179641,5.35377154 210.706247,4.96422741 209.831382,4.96422741 Z M209.845728,9.08991704 C208.813064,9.08991704 208.253599,9.53717146 208.253599,10.3449173 C208.253599,11.1672883 208.813064,11.614345 209.831382,11.614345 C210.864045,11.614345 211.437856,11.1672883 211.437856,10.3449173 C211.437856,9.53717146 210.864045,9.08991704 209.845728,9.08991704 Z" fill="#DA323E" fill-rule="nonzero" mask="url(#x)"/></g></g></g></g></g></svg>
