<svg width="175" height="28" xmlns="http://www.w3.org/2000/svg"><g fill-rule="nonzero" fill="none"><path d="M26.25 1.469466v12.757633c-5.009542 1.669848-10.28626 1.402672-14.961832 1.402672V0C18.501908 0 24.71374.33397 26.25 1.469466" fill="#00C473"/><path d="M26.262928 14.77689c0 7.146947-5.811069 12.891222-12.958015 12.891222h-.267176c-1.469466-2.003817-1.736641-6.078244-1.736641-11.020992 4.875954 0 11.48855-.133588 14.961832-1.87023" fill="#1D1DEB"/><path d="M12.423664 27.668112c-6.746183-.467557-12.0229-6.078244-12.0229-12.891221 1.937022 1.20229 7.748091 1.870229 9.95229 1.937023 0 4.007633.467557 9.017175 2.07061 10.954198" fill="#ED1C24"/><path d="M10.553435 6.545802v7.480916c-1.669847 1.068702-4.074427 1.20229-6.34542 1.068702 0-7.013359-3.807252-11.15458-3.807252-12.624046 0-.267176.200382-.467557.467558-.467557 1.669847 0 6.479007.667939 9.685114 4.541985" fill="#C626B6"/><path d="M3.540076 15.028626c-1.20229-.133588-2.204198-.467557-3.139313-.801527V4.141221C1.20229 6.67939 3.540076 9.351145 3.540076 15.028626" fill="#C626B6"/><path fill="#6D6D6D" d="M62.45229 19.57061h-3.072519V8.148856h3.07252zM82.156488 19.57061H79.08397V8.148856h3.07252zM99.389313 19.57061h-3.07252V8.148856h3.07252zM48.425573 19.57061v-6.34542c0-1.536259 1.20229-2.538167 2.538168-2.538167 1.402671 0 2.538167 1.068702 2.538167 2.538168v6.34542h3.07252v-6.211832c0-2.872138-2.003817-5.4771-5.543894-5.4771-3.807252 0-5.67748 2.538168-5.67748 5.4771v6.211832h3.072519zM119.093511 19.57061v-6.34542c0-1.536259 1.202291-2.538167 2.538168-2.538167 1.402672 0 2.538168 1.068702 2.538168 2.538168v6.34542h3.072519v-6.211832c0-2.872138-2.003816-5.4771-5.543893-5.4771-3.807252 0-5.677481 2.538168-5.677481 5.4771v6.211832h3.072519zM70.734733 15.09542l3.206107-6.946565h3.139313l-5.276718 11.421756h-2.07061L64.456106 8.148855h3.139313zM86.164122 16.097328c.801527.734733 2.003817 1.135496 3.139313 1.135496.801527 0 1.469466-.400763 1.469466-.935114 0-1.736641-5.543893-1.135496-5.543893-4.80916 0-2.204199 2.137404-3.540077 4.408397-3.540077 1.469465 0 3.139313.534351 3.874045 1.135496l-1.469465 2.204199c-.601145-.400763-1.402672-.801527-2.204199-.801527-.86832 0-1.53626.33397-1.53626.935115 0 1.469465 5.543894.86832 5.543894 4.875954 0 2.204198-2.137405 3.540076-4.541985 3.540076-1.603053 0-3.2729-.53435-4.608778-1.53626l1.469465-2.204198zM107.671756 16.965649c1.803435 0 3.005725-1.402672 3.005725-3.139313s-1.20229-3.139313-3.005725-3.139313-3.005725 1.402672-3.005725 3.139313 1.20229 3.139313 3.005725 3.139313m0-9.08397c3.473282 0 6.078244 2.671756 6.078244 5.944657 0 3.2729-2.604962 5.944656-6.078244 5.944656-3.473283 0-6.078245-2.671755-6.078245-5.944656 0-3.2729 2.604962-5.944657 6.078245-5.944657M39.742366 8.148855v6.34542c0 1.53626-1.20229 2.538168-2.538168 2.538168-1.402671 0-2.538168-1.068703-2.538168-2.538168v-6.34542h-3.072518v6.211832c0 2.872137 2.003816 5.4771 5.543893 5.4771 3.807251 0 5.67748-2.538169 5.67748-5.4771V8.148855h-3.072519z"/><path d="M130.314885 19.90458V8.482824h1.53626l6.34542 7.414123V8.482824h2.204198V19.90458h-1.536259l-6.34542-7.414122v7.414122h-2.204199zm19.570611-9.417939h-4.675572v2.337786h3.473282v1.937023h-3.473282v3.206107h4.80916v1.937023h-7.013359V8.482824h6.879771v2.003817zm4.742367 9.41794l-3.807252-11.421757h2.204198l2.337786 7.146947 2.538168-7.146947h1.53626l2.538168 7.146947 2.337786-7.146947h2.204199l-3.807252 11.421756h-1.53626l-2.471374-7.21374-2.538168 7.21374h-1.536259zm12.290076-1.53626l1.402672-1.469466c.667939.734733 1.669847 1.269084 2.671755 1.269084 1.001909 0 1.669848-.601145 1.669848-1.402672 0-1.469466-2.137405-1.669847-3.673664-2.538168-.868321-.53435-1.603054-1.335878-1.603054-2.604962 0-2.07061 1.870229-3.206106 3.740458-3.206106 1.135496 0 2.204199.267175 3.339695 1.068702l-1.135496 1.603053c-.467558-.400763-1.20229-.734733-2.003817-.734733-.801527 0-1.736641.33397-1.736641 1.269084 0 1.87023 5.276717 1.269084 5.276717 5.14313 0 2.003817-1.803435 3.406489-3.874046 3.406489-1.469465-.066794-2.938931-.734733-4.074427-1.803435z" fill="#929292"/></g></svg>
