<svg width="320" height="21" xmlns="http://www.w3.org/2000/svg" xmlns:xlink="http://www.w3.org/1999/xlink"><defs><polygon id="a" points="0 20.6873239 319.836327 20.6873239 319.836327 .08806889 0 .08806889"/><polygon id="c" points="0 20.6873239 319.836327 20.6873239 319.836327 .08806889 0 .08806889"/><polygon id="e" points="0 20.6873239 319.836327 20.6873239 319.836327 .08806889 0 .08806889"/><polygon id="g" points="0 20.6873239 319.836327 20.6873239 319.836327 .08806889 0 .08806889"/><polygon id="i" points="0 20.6873239 319.836327 20.6873239 319.836327 .08806889 0 .08806889"/><polygon id="k" points="0 20.6873239 319.836327 20.6873239 319.836327 .08806889 0 .08806889"/><polygon id="m" points="0 20.6873239 319.836327 20.6873239 319.836327 .08806889 0 .08806889"/><polygon id="o" points="0 20.6873239 319.836327 20.6873239 319.836327 .08806889 0 .08806889"/><polygon id="q" points="0 20.6873239 319.836327 20.6873239 319.836327 .08806889 0 .08806889"/><polygon id="s" points="0 20.6873239 319.836327 20.6873239 319.836327 .08806889 0 .08806889"/><polygon id="u" points="0 20.6873239 319.836327 20.6873239 319.836327 .08806889 0 .08806889"/><polygon id="w" points="0 20.6873239 319.836327 20.6873239 319.836327 .08806889 0 .08806889"/></defs><g fill="none" fill-rule="evenodd"><g transform="translate(-471.000000, -19.000000)"><g transform="translate(471.000000, 19.000000)"><polygon fill="#20211F" fill-rule="nonzero" points="185.18638 .29565141 182.644011 3.2722618 186.79784 3.2722618 189.550017 .3284556"/><polygon fill="#619744" fill-rule="nonzero" points="0 5.19473481 0 20.2929349 11.2593572 20.2929349 11.2593572 17.7690814 2.8738292 17.7690814 2.8738292 13.9732529 10.1653627 13.9732529 10.1653627 11.4491039 2.8738292 11.4491039 2.8738292 7.71799726 11.0016529 7.71799726 11.0016529 5.19473481"/><polygon fill="#619744" fill-rule="nonzero" points="18.316371 5.1946757 18.316371 17.6827266 24.7930652 17.6827266 24.7930652 20.2925803 15.4425418 20.2925803 15.4425418 5.1946757"/><polygon fill="#619744" fill-rule="nonzero" points="39.3126906 5.1946757 39.3126906 7.71823369 31.1848669 7.71823369 31.1848669 11.4493403 38.4764004 11.4493403 38.4764004 13.9731939 31.1848669 13.9731939 31.1848669 17.7693178 39.570101 17.7693178 39.570101 20.2925803 28.3113315 20.2925803 28.3113315 5.1946757"/><g transform="translate(0.000000, 0.207405)"><path d="M50.5520661 7.46741466C47.7211386 7.46741466 45.5122865 9.66736377 45.5122865 12.4713828 45.5122865 15.2972712 47.7211386 17.4972204 50.5520661 17.4972204 51.9889807 17.4972204 53.511405 16.8284288 54.6268503 15.7284542L56.3208815 17.6263684C54.7770065 19.2009693 52.5678604 20.2146482 50.40191 20.2146482 45.9842057 20.2146482 42.5741047 16.8715766 42.5741047 12.5148262 42.5741047 8.20092807 46.0271074 4.90070883 50.5091644 4.90070883 52.6536639 4.90070883 54.8413591 5.82838754 56.2997245 7.3163972L54.6268503 9.43034616C53.5546006 8.22250203 52.0318824 7.46741466 50.5520661 7.46741466M66.4448117 7.46741466C63.6138843 7.46741466 61.405326 9.66736377 61.405326 12.4713828 61.405326 15.2972712 63.6138843 17.4972204 66.4448117 17.4972204 67.8817264 17.4972204 69.4044444 16.8284288 70.519596 15.7284542L72.213921 17.6263684C70.669752 19.2009693 68.4608999 20.2146482 66.2946556 20.2146482 61.8769513 20.2146482 58.4671442 16.8715766 58.4671442 12.5148262 58.4671442 8.20092807 61.9201469 4.90070883 66.40191 4.90070883 68.5467034 4.90070883 70.7341047 5.82838754 72.1924702 7.3163972L70.519596 9.43034616C69.4473462 8.22250203 67.9246281 7.46741466 66.4448117 7.46741466" fill="#619744" fill-rule="nonzero"/><g><mask id="b" fill="#fff"><use xlink:href="#a"/></mask><g/><polygon fill="#619744" fill-rule="nonzero" mask="url(#b)" points="75.84 20.0853228 78.7138296 20.0853228 78.7138296 4.98741827 75.84 4.98741827"/></g><g><mask id="d" fill="#fff"><use xlink:href="#c"/></mask><g/><path d="M85.4269534,12.536341 C85.4269534,15.3832123 87.7645109,17.6263093 90.5310856,17.6263093 C93.2762095,17.6263093 95.5494145,15.3832123 95.5494145,12.536341 C95.5494145,9.68887858 93.2762095,7.48892948 90.5310856,7.48892948 C87.7433538,7.48892948 85.4269534,9.68887858 85.4269534,12.536341 M98.4875957,12.536341 C98.4875957,16.8715175 95.0134361,20.214589 90.4884777,20.214589 C85.9632247,20.214589 82.4887714,16.8715175 82.4887714,12.536341 C82.4887714,8.17929506 85.9632247,4.90094526 90.4884777,4.90094526 C95.0134361,4.90094526 98.4875957,8.20086893 98.4875957,12.536341" fill="#619744" fill-rule="nonzero" mask="url(#d)"/></g><g><mask id="f" fill="#fff"><use xlink:href="#e"/></mask><g/><polygon fill="#619744" fill-rule="nonzero" mask="url(#f)" points="105.008866 4.9872705 112.750868 15.3185201 112.750868 4.9872705 115.538895 4.9872705 115.538895 20.0851751 112.814927 20.0851751 105.094671 9.77549939 105.094671 20.0851751 102.285193 20.0851751 102.285193 4.9872705"/></g><g><mask id="h" fill="#fff"><use xlink:href="#g"/></mask><g/><polygon fill="#619744" fill-rule="nonzero" mask="url(#h)" points="131.496169 4.9872705 131.496169 7.51082849 123.368346 7.51082849 123.368346 11.2419352 130.659879 11.2419352 130.659879 13.7657887 123.368346 13.7657887 123.368346 17.5619126 131.753579 17.5619126 131.753579 20.0851751 120.494516 20.0851751 120.494516 4.9872705"/></g><g><mask id="j" fill="#fff"><use xlink:href="#i"/></mask><g/><path d="M140.86973,7.48904769 C139.518325,7.48904769 138.639134,7.98524793 138.639134,8.91263115 C138.639134,11.9755372 146.702898,10.3149362 146.681153,15.7282178 C146.681153,18.5538106 144.236635,20.1931334 140.934082,20.1931334 C138.531879,20.1931334 136.194615,19.2226023 134.5858,17.7774449 L135.786755,15.3401826 C137.330924,16.7206182 139.368463,17.5617057 140.97669,17.5617057 C142.585212,17.5617057 143.550501,16.9579314 143.550501,15.9008091 C143.550501,12.7516074 135.486736,14.5419475 135.486736,9.17122264 C135.486736,6.53979505 137.738784,4.85762009 141.105396,4.85762009 C143.100033,4.85762009 145.094377,5.50454226 146.531291,6.4537949 L145.372944,8.95548343 C143.76501,7.98524793 142.027784,7.48904769 140.86973,7.48904769" fill="#619744" fill-rule="nonzero" mask="url(#j)"/></g><g><mask id="l" fill="#fff"><use xlink:href="#k"/></mask><g/><polygon fill="#20211F" fill-rule="nonzero" mask="url(#l)" points="162.484187 4.96560792 166.473168 13.7869784 170.462149 4.96560792 174.751442 4.96560792 174.751442 20.085382 171.277282 20.085382 171.255831 10.5089242 167.759927 18.5755028 165.186409 18.5755028 161.690799 10.5089242 161.690799 20.085382 158.195188 20.085382 158.195188 4.96560792"/></g><g><mask id="n" fill="#fff"><use xlink:href="#m"/></mask><g/><polygon fill="#20211F" fill-rule="nonzero" mask="url(#n)" points="190.794843 4.96560792 190.794843 8.11451414 182.859784 8.11451414 182.859784 10.9401071 190.022612 10.9401071 190.022612 14.0677349 182.859784 14.0893089 182.859784 16.9361802 191.009058 16.9361802 191.009058 20.085382 178.935155 20.085382 178.935155 4.96560792"/></g><g><mask id="p" fill="#fff"><use xlink:href="#o"/></mask><g/><polygon fill="#20211F" fill-rule="nonzero" mask="url(#p)" points="198.216228 4.96560792 201.025998 9.25763657 203.856338 4.96560792 208.488845 4.96560792 203.534868 12.1910991 208.917862 20.085382 204.221296 20.085382 201.025998 15.4047271 197.894465 20.085382 193.305153 20.085382 198.645539 12.3852644 193.648367 4.96560792"/></g><g><mask id="r" fill="#fff"><use xlink:href="#q"/></mask><g/><polygon fill="#20211F" fill-rule="nonzero" mask="url(#r)" points="211.771828 20.0853228 215.696162 20.0853228 215.696162 4.96554881 211.771828 4.96554881"/></g><g><mask id="t" fill="#fff"><use xlink:href="#s"/></mask><g/><path d="M227.020459,8.20089854 C224.704059,8.20089854 222.945381,10.034091 222.945381,12.4497793 C222.945381,14.8873371 224.704059,16.7421035 227.020459,16.7421035 C228.263728,16.7421035 229.700937,16.051738 230.751736,14.9736329 L233.046685,17.4537474 C231.438163,19.1577919 229.03596,20.2577665 226.80595,20.2577665 C222.280404,20.2577665 218.913499,16.9362688 218.913499,12.4929271 C218.913499,8.13588122 222.366501,4.85753143 226.955813,4.85753143 C229.186116,4.85753143 231.523967,5.84963638 233.025234,7.44581119 L230.751736,10.1851084 C229.765583,8.97696871 228.328375,8.20089854 227.020459,8.20089854" fill="#20211F" fill-rule="nonzero" mask="url(#t)"/></g><g><mask id="v" fill="#fff"><use xlink:href="#u"/></mask><g/><path d="M250.061664,14.9700273 C249.726971,16.1370879 249.104308,17.2208082 248.269488,18.113614 C246.86137,19.6205378 244.881132,20.5505808 242.80069,20.6729315 C242.637311,20.6826841 242.474226,20.6874126 242.310553,20.6874126 C237.842895,20.6874126 234.223574,17.1318527 234.223574,12.7493909 C234.223574,8.36426928 237.842895,4.81166467 242.310553,4.81166467 C244.346329,4.81166467 246.366531,5.61433284 247.828128,6.92058958 L249.927963,4.91362363 L251.981664,6.93241091 L248.231287,10.613868 L247.141407,11.7100006 L245.841719,13.0189172 L242.567082,16.0983731 L238.898983,12.7493909 L240.888625,10.6253938 L242.567082,12.0096713 L245.286053,9.27185168 C244.431838,8.44494984 243.604658,8.10656428 242.310553,8.10656428 C239.698248,8.10656428 237.580195,10.1856403 237.580195,12.7493909 C237.580195,15.3137324 239.698248,17.3925129 242.310553,17.3925129 C244.549377,17.3925129 246.472022,15.7783106 246.938652,13.6513582 C247.022692,13.2686427 246.960103,13.582499 247.007413,13.1950549 C247.434079,12.9538998 249.947651,10.4723076 249.950589,10.4814691 C250.324363,11.8202345 250.447192,13.6247602 250.061664,14.9700273" fill="#20211F" fill-rule="nonzero" mask="url(#v)"/></g><g><mask id="x" fill="#fff"><use xlink:href="#w"/></mask><g/><path d="M266.030722,11.8236331 C266.867306,10.9606762 267.489088,9.98984961 267.489088,9.34292746 C267.489088,8.52341392 266.867306,8.04878759 265.773311,8.04878759 C264.550906,8.04878759 263.006443,8.7820054 261.61243,9.96857121 L260.132614,7.05638709 C262.062898,5.63280367 264.164496,4.76984673 266.352485,4.76984673 C269.397921,4.76984673 271.607361,6.36602154 271.607361,8.76043153 C271.607361,10.4000497 270.36321,12.1040941 268.690336,13.8081386 L265.601704,16.914488 L272.036084,16.914488 L272.036084,20.0852637 L260.582788,20.0852637 L260.561631,17.47541 L266.030722,11.8236331 Z M282.73625,4.85614243 C287.390208,4.85614243 290.865249,8.13508325 290.865249,12.5137031 C290.865249,16.9357664 287.390208,20.2578551 282.73625,20.2578551 C278.081998,20.2578551 274.607251,16.9357664 274.607251,12.5137031 C274.607251,8.11321382 278.081998,4.85614243 282.73625,4.85614243 Z M282.779151,8.22137898 C280.527103,8.22137898 278.639721,10.0761453 278.639721,12.5355726 C278.639721,14.9944089 280.548555,16.8929141 282.779151,16.8929141 C285.031199,16.8929141 286.832778,14.9944089 286.832778,12.5355726 C286.832778,10.0761453 285.031199,8.22137898 282.779151,8.22137898 Z M294.615919,4.96401204 L301.436415,4.96401204 L301.436415,20.0852637 L297.511493,20.0852637 L297.511493,8.19950948 L294.615919,8.19950948 L294.615919,4.96401204 Z M313.745102,4.76984673 C317.005341,4.76984673 319.064037,6.36602154 319.064037,8.86830113 C319.064037,10.1411626 318.378197,11.3274329 317.262751,11.9746506 C318.828371,12.6862946 319.836268,14.1317474 319.836268,15.8142179 C319.836268,18.5322368 317.455809,20.2578551 313.766553,20.2578551 C310.099042,20.2578551 307.739445,18.5538106 307.739445,15.8789397 C307.739445,14.1748952 308.812283,12.6862946 310.485157,11.9746506 C309.262457,11.2627111 308.490226,10.0329974 308.490226,8.76043153 C308.490226,6.32287369 310.570667,4.76984673 313.745102,4.76984673 Z M313.766553,7.42314379 C312.479501,7.42314379 311.771916,8.00563969 311.771916,9.08404034 C311.771916,10.1192932 312.479501,10.7017891 313.766553,10.7017891 C315.074763,10.7017891 315.782641,10.1192932 315.782641,9.08404034 C315.782641,8.00563969 315.074763,7.42314379 313.766553,7.42314379 Z M313.788004,13.5923993 C312.243835,13.5923993 311.407251,14.261191 311.407251,15.4690352 C311.407251,16.6987488 312.243835,17.3672448 313.766553,17.3672448 C315.310722,17.3672448 316.168757,16.6987488 316.168757,15.4690352 C316.168757,14.261191 315.310722,13.5923993 313.788004,13.5923993 Z" fill="#DA323E" fill-rule="nonzero" mask="url(#x)"/></g></g></g></g></g></svg>
