<svg width="210" height="27" xmlns="http://www.w3.org/2000/svg" xmlns:xlink="http://www.w3.org/1999/xlink"><defs><path id="a" d="M.88.4h14.38v14.1H.88z"/></defs><g fill="none" fill-rule="evenodd"><path fill="#FFF" d="M66.35 19.6h-3.33V7.16h3.33zM87.74 19.6H84.4V7.16h3.34zM106.37 19.6h-3.33V7.16h3.33zM51.19 19.6v-6.88c0-1.7 1.28-2.72 2.73-2.72a2.7 2.7 0 0 1 2.75 2.72v6.87H60v-6.75c0-3.14-2.2-5.93-6-5.93-4.1 0-6.15 2.77-6.15 5.93v6.75h3.34zM127.72 19.6v-6.88c0-1.7 1.28-2.72 2.73-2.72a2.7 2.7 0 0 1 2.75 2.72v6.87h3.32v-6.75c0-3.14-2.19-5.93-6-5.93-4.1 0-6.14 2.77-6.14 5.93v6.75h3.34zM75.37 14.75l3.41-7.58h3.47l-5.72 12.42h-2.3L68.5 7.17h3.45zM92.03 15.8a5.24 5.24 0 0 0 3.4 1.23c.9 0 1.6-.43 1.6-1.05 0-1.87-6.03-1.2-6.03-5.2 0-2.39 2.31-3.87 4.77-3.87 1.62 0 3.38.61 4.2 1.25l-1.56 2.41a4.2 4.2 0 0 0-2.38-.84c-.92 0-1.7.36-1.7 1 0 1.61 6.03.97 6.03 5.28 0 2.38-2.33 3.84-4.95 3.84-1.71 0-3.53-.6-5-1.67l1.62-2.38zM115.38 16.77c1.95 0 3.28-1.51 3.28-3.38 0-1.87-1.33-3.4-3.28-3.4-1.94 0-3.28 1.53-3.28 3.4a3.25 3.25 0 0 0 3.28 3.38m0-9.86a6.47 6.47 0 1 1 0 12.94 6.48 6.48 0 0 1 0-12.94M41.79 7.17v6.87c0 1.7-1.3 2.73-2.75 2.73a2.71 2.71 0 0 1-2.74-2.73V7.17h-3.33v6.74a5.75 5.75 0 0 0 6 5.94c4.1 0 6.15-2.77 6.15-5.94V7.17h-3.33z"/><g transform="translate(10.5 -.24)"><mask id="b" fill="#fff"><use xlink:href="#a"/></mask><path d="M15.26 12.77l-.01-10.92C13.78.75 7.79.4.88.4l.01 14.08c4.74 0 12.4-.49 14.37-1.72" fill="#FFF" mask="url(#b)"/></g><path d="M13.07 26.59h.28c6.85 0 12.36-5.52 12.4-12.5-2.87 1.64-9.28 1.8-14.36 1.84 0 4.92.24 8.66 1.68 10.66M0 14.11c.05 6.7 5.09 12 11.53 12.47-1.5-1.94-1.98-6.56-2-10.63-2.5-.03-7.71-.73-9.53-1.84M0 1.5v11.38c3.43 1.14 8.18 1.33 9.59 1.37 0 0 .16-9.05.14-9.06A13.24 13.24 0 0 0 .5.99.49.49 0 0 0 0 1.5M145.27 16.4a4.26 4.26 0 0 0 3.06 1.42c1.1 0 1.88-.68 1.88-1.63 0-1.66-2.4-1.87-4.14-2.88-1.02-.6-1.83-1.48-1.83-2.95 0-2.3 2.12-3.64 4.27-3.64a6 6 0 0 1 3.76 1.22l-1.3 1.85a3.47 3.47 0 0 0-2.24-.85c-.94 0-2 .4-2 1.4 0 2.1 5.98 1.45 5.98 5.82 0 2.29-2.05 3.88-4.38 3.88a6.9 6.9 0 0 1-4.69-1.94l1.63-1.7zM163.8 14.03h-6.47v5.83h-2.5V6.9h2.5v4.9h6.47V6.9h2.5v12.96h-2.5zM175.08 17.82c2.44 0 4.26-2 4.26-4.44a4.3 4.3 0 0 0-4.26-4.44 4.3 4.3 0 0 0-4.25 4.44 4.3 4.3 0 0 0 4.25 4.44m0-11.1c4 0 6.76 2.98 6.76 6.66a6.54 6.54 0 0 1-6.76 6.66c-4 0-6.75-2.98-6.75-6.66a6.54 6.54 0 0 1 6.75-6.66M182.48 6.9h2.51l2.68 8.09 2.85-8.09h1.76l2.85 8.09 2.68-8.09h2.52l-4.3 12.96h-1.75l-2.89-8.2-2.86 8.2h-1.76zM202.32 16.4a4.26 4.26 0 0 0 3.05 1.42c1.1 0 1.89-.68 1.89-1.63 0-1.66-2.4-1.87-4.15-2.88-1.02-.6-1.83-1.48-1.83-2.95 0-2.3 2.13-3.64 4.27-3.64a6 6 0 0 1 3.76 1.22L208 9.8a3.47 3.47 0 0 0-2.23-.85c-.95 0-2 .4-2 1.4 0 2.1 5.97 1.45 5.97 5.82 0 2.29-2.05 3.88-4.38 3.88a6.9 6.9 0 0 1-4.68-1.94l1.63-1.7z" fill="#FFF"/></g></svg>