<svg width="216" height="30" xmlns="http://www.w3.org/2000/svg" xmlns:xlink="http://www.w3.org/1999/xlink"><defs><path id="a" d="M.03.1h15.6v15.6H.03z"/></defs><g fill="none" fill-rule="evenodd"><path d="M41.4 9.21v2.68h4.3v2.22h-4.3v3.6h5.9v2.21h-8.6V7h8.4v2.21h-5.7zM49.46 7h1.81l7.44 8.42V7h2.57v12.92h-1.81l-7.44-8.42v8.42h-2.57V7zm24.7 0v2.21h-3.53v10.71h-2.59V9.22H64.5V7h9.67zm7.02 4.98c.77 0 1.1-.14 1.34-.38a1.44 1.44 0 0 0 0-1.98c-.24-.24-.57-.4-1.34-.4h-2.2v2.76h2.2zm-2.2 2.22v5.72H76.3V7h5.02c1.42 0 2.32.37 3.01.96.75.67 1.22 1.6 1.22 2.64a3.62 3.62 0 0 1-2.6 3.4l5.16 5.92h-3.29l-4.9-5.72h-.97zM91.9 9.21v2.68h4.3v2.22h-4.3v3.6h5.9v2.21h-8.6V7h8.4v2.21h-5.7zM108.53 7v2.21H105v10.71h-2.58V9.22h-3.54V7h9.66zm4.85 2.21v2.68h4.3v2.22h-4.3v3.6h5.9v2.21h-8.6V7h8.4v2.21h-5.7zM122.5 7h1.81l7.44 8.42V7h2.57v12.92h-1.81l-7.44-8.42v8.42h-2.57V7zm15.04 12.92h2.15V7h-2.15v12.92zm11.82-5.19l4.7-7.73h1.74v12.92h-2.48v-7.2l-3.1 5.08h-1.73l-3.1-5.08v7.2h-2.48V7h1.75l4.7 7.74zm10.74 5.2h2.15V7h-2.15v12.92zm8.07-10.72v2.68h4.3v2.22h-4.3v3.6h5.9v2.21h-8.6V7h8.4v2.21h-5.7zM176.2 7h1.81l7.44 8.42V7h2.57v12.92h-1.81l-7.43-8.42v8.42h-2.58V7zm24.71 0v2.21h-3.54v10.71h-2.58V9.22h-3.55V7h9.67zm8.06 11.67c2.52 0 4.4-2.1 4.4-4.67s-1.87-4.67-4.4-4.67c-2.53 0-4.4 2.1-4.4 4.67s1.87 4.67 4.4 4.67zm0-11.67a6.82 6.82 0 0 1 6.98 7c0 3.87-2.85 7-6.98 7a6.82 6.82 0 0 1-6.98-7c0-3.87 2.85-7 6.98-7z" fill="#FFF" fill-rule="nonzero"/><g transform="translate(12.32 .01)"><mask id="b" fill="#fff"><use xlink:href="#a"/></mask><path d="M15.63 13.83V1.66C14.03.47 7.53.1.03.1l.01 15.6c5.15 0 13.46-.53 15.6-1.87" fill="#FFF" mask="url(#b)"/></g><path d="M27.95 15.53a13.46 13.46 0 0 1-13.47 13.49l-.3-.01c-1.56-2.16-1.81-6.18-1.82-11.5 5.52-.04 12.47-.22 15.6-1.98M12.52 29C5.52 28.5.05 22.78 0 15.55c1.97 1.2 7.62 1.95 10.34 1.99.02 4.39.54 9.37 2.18 11.46M10.4 15.7l.2-9.52C7.25 2.14 2.27 1.4.54 1.4a.53.53 0 0 0-.53.55v12.27c3.72 1.23 8.88 1.44 10.4 1.49" fill="#FFF"/></g></svg>