<svg xmlns="http://www.w3.org/2000/svg" viewBox="0 0 57.3 57.3"><circle fill="#FFF" cx="28.7" cy="28.7" r="25.6"/><path fill-rule="evenodd" clip-rule="evenodd" fill="#2C72B9" d="M45.2 29c-3.3 0-5.9-2.3-5.9-5.8 0-3.4 2.6-5.8 5.9-5.8 2.2 0 3.6 1.2 4.5 2.5l-1.7.9c-.5-.9-1.6-1.6-2.8-1.6-2.2 0-3.8 1.7-3.8 4s1.6 4 3.8 4c1.2 0 2.3-.7 2.8-1.6l1.7.9c-.9 1.4-2.3 2.5-4.5 2.5zm4.2 2.9h-3.9v2.7h3.8v.6h-3.8V38h3.9v.6h-4.6v-7.1h4.6v.4zM41 38.1c.9 0 1.6-.4 2.1-1l.5.3c-.6.8-1.5 1.3-2.6 1.3-2 0-3.6-1.5-3.6-3.7s1.6-3.7 3.6-3.7c1.1 0 2 .5 2.6 1.3l-.5.3c-.4-.6-1.2-1-2.1-1-1.7 0-3 1.3-3 3.1s1.3 3.1 3 3.1zm-5.2.4h-.6l-4.6-6.2v6.2H30v-7.1h.6l4.5 6v-6h.6v7.1zm-8.4-9.6L23 17.7h2.2l3.4 9 3.4-9h2.2l-4.4 11.2h-2.4zm1.2 3h-3.9v2.7h3.9v.6h-3.9V38h3.9v.6h-4.5v-7.1h4.5v.4zm-6.3 6.6h-.6v-7.1h.6v7.1zm-4.5-.4c.9 0 1.6-.4 2.1-1l.5.3c-.6.8-1.5 1.3-2.6 1.3-2 0-3.6-1.5-3.6-3.7s1.6-3.7 3.6-3.7c1.1 0 2 .5 2.6 1.3l-.5.3c-.4-.6-1.2-1-2.1-1-1.7 0-3 1.3-3 3.1.1 1.8 1.4 3.1 3 3.1zM8 23.3c0-3.4 2.6-5.8 5.9-5.8 2.2 0 3.6 1.2 4.5 2.5l-1.7.9c-.5-.9-1.6-1.6-2.8-1.6-2.2 0-3.8 1.7-3.8 4s1.6 4 3.8 4c1.2 0 2.3-.7 2.8-1.6l1.7.9c-.9 1.3-2.2 2.5-4.5 2.5C10.6 29 8 26.7 8 23.3zm2.5 15.3c-1.2 0-2.1-.5-2.6-1.1l.4-.5c.5.5 1.2 1 2.2 1 1.5 0 1.9-.8 1.9-1.4 0-2.1-4.3-1-4.3-3.5 0-1.2 1-1.9 2.3-1.9 1.1 0 1.9.4 2.4 1l-.4.4c-.5-.6-1.2-.9-2.1-.9-.9 0-1.7.5-1.7 1.3 0 1.8 4.3.8 4.3 3.5.1 1-.5 2.1-2.4 2.1zm9.4-20.9h2v11.2h-2V17.7zm15.5 0h2v11.2h-2V17.7zM28.7 1.4c-15 0-27.2 12.2-27.2 27.2 0 5.8 1.8 11.1 4.8 15.5L1.4 55.9l12-4.7c4.3 2.9 9.6 4.7 15.2 4.7 15 0 27.2-12.2 27.2-27.2S43.7 1.4 28.7 1.4z"/></svg>