<svg viewBox="0 0 151 28" xmlns="http://www.w3.org/2000/svg"><g fill="none" fill-rule="evenodd"><path d="M10.846.267V15.879c.78 0 5.146.11 8.843-.218a38.971 38.971 0 002.709-.36c2.129-.401 3.922-1.03 4.544-1.548V1.823C25.322.625 18.498.266 10.846.266" fill="#00C473"/><path d="M26.942 13.953v-.199c-.622.517-2.415 1.146-4.544 1.546a39.96 39.96 0 01-2.71.362c-3.696.327-8.061.217-8.842.217v.266c.001.62.01 1.154.024 1.755l.014.5c.023.758.056 1.508.105 2.236.103 1.546.273 2.994.543 4.202.3 1.352.727 2.404 1.325 2.962l.029.027a13.481 13.481 0 0011.624-5.702c.878-1.246 1.548-2.875 1.961-4.577a13.81 13.81 0 00.471-3.579l-.001.002v-.017l.001-.001z" fill="#1D1DEA"/><path d="M12.858 27.8c-.598-.559-1.025-1.61-1.327-2.963-.27-1.208-.44-2.654-.542-4.201a58.144 58.144 0 01-.105-2.237c-.006-.173-.01-.339-.014-.5a69.73 69.73 0 01-.024-1.754v-.265c-3.548 0-6.622-.267-8.092-.532-1.547-.28-2.576-.845-2.753-1.13 0 1.318.19 2.818.547 4.02a13.32 13.32 0 001.901 3.91 13.474 13.474 0 0010.437 5.678.536.536 0 01-.028-.027" fill="#ED1C24"/><path d="M.524 1.191A.522.522 0 000 1.713v12.505c.177.285 1.207.85 2.754 1.13.238.042.52.086.837.127 1.642.218 4.282.405 7.255.405V6.256C7.49 1.96 2.3 1.19.524 1.19" fill="#C626B6"/><path d="M111.202 17.3c.762.833 1.922 1.459 3.142 1.459 1.143 0 1.94-.701 1.94-1.669 0-1.701-2.473-1.911-4.263-2.95-1.048-.609-1.886-1.517-1.886-3.012 0-2.366 2.19-3.73 4.4-3.73 1.352 0 2.606.321 3.865 1.25l-1.335 1.893c-.533-.491-1.428-.872-2.302-.872-.97 0-2.055.417-2.055 1.438 0 2.142 6.147 1.477 6.147 5.948 0 2.348-2.112 3.975-4.51 3.975-1.79 0-3.448-.737-4.819-1.99l1.676-1.74zM91.423 7.587h2.57v13.254h-2.57V7.587zM79.42 14.214c0 2.577 1.98 4.545 4.553 4.545 1.732 0 2.989-.833 3.769-1.836l1.769 1.57c-1.178 1.498-3.158 2.537-5.596 2.537-4.155 0-7.066-3.011-7.066-6.816 0-3.804 2.875-6.817 7.027-6.817 1.98 0 3.676.739 4.876 1.895l-1.658 1.74c-.798-.793-1.922-1.363-3.236-1.363-2.534 0-4.438 2.026-4.438 4.545zM72.18 7.587h2.57v13.254h-2.57V7.587zm-2.007 0v2.271h-3.522v10.983h-2.57V9.858h-3.526v-2.27h9.618zM52.836 18.76c2.513 0 4.382-2.046 4.382-4.545 0-2.501-1.869-4.545-4.382-4.545-2.512 0-4.381 2.044-4.381 4.545 0 2.499 1.869 4.545 4.381 4.545zm0-11.362c4.113 0 6.952 3.052 6.952 6.817 0 3.77-2.839 6.816-6.952 6.816-4.113 0-6.951-3.047-6.951-6.816 0-3.765 2.838-6.817 6.951-6.817zm-20.86.19h1.81l7.425 8.634V7.587h2.57v13.254h-1.807l-7.428-8.634v8.634h-2.57V7.587zm68.285 8.047h3.745l-1.874-4.332-1.871 4.332zm-4.734 5.207l5.713-13.254h1.808l5.71 13.254h-2.682l-1.26-2.936h-5.348l-1.26 2.936h-2.68z" fill="#FFF"/><path d="M144.055 20.833h-21.38V7.295h21.38c3.76 0 6.809 3.03 6.809 6.769 0 3.739-3.048 6.77-6.809 6.77" fill="#ED3A3A"/><path fill="#FFF" d="M126.518 11.11h1.242v4.845h2.966v1.062h-4.208zM131.625 17.017h1.233v-5.906h-1.233zM137.66 11.11h1.29l-2.026 5.907h-1.173l-2.009-5.906h1.326l1.29 4.484zM144.246 12.157h-3.143v1.254h2.885v1.026h-2.885v1.518h3.289v1.062h-4.502v-5.906h4.356z"/></g></svg>
