<svg xmlns="http://www.w3.org/2000/svg" width="121" height="24"><g fill="none" fill-rule="evenodd"><path fill="#FFF" d="M-147-12h414v48h-414z"/><g fill-rule="nonzero"><path fill="#BF0A30" d="M60.4388105 12.634885l3.8710352-5.5541756-.7297604-1.27251596c-.2416366-.43074437-.6036366-.64641989-1.086-.64641989h-5.6106968c-.1549264 0-.288933.05581476-.4008074.16805097-.1121776.11223621-.1679632.22841585-.1679632.34914561 0 .1210331.0257706.23266263.0776148.33610194l4.0465778 6.61981293z"/><path fill="#006847" d="M108.940747 15.7415832h2.995747l-1.511062-4.9335397-1.484685 4.9335397zm-1.378571-10.98125127h5.752889c.63638 0 1.033853.29181414 1.193024.87513909l5.91206 16.92309678c.017584.0530847.026377.1371102.026377.2517731 0 .115573-.057605.230236-.172208.3452022-.115209.1149663-.251641.1722978-.410812.1722978h-4.904585c-.53057 0-.874985-.2211357-1.034156-.663407l-.636077-1.7505815h-5.700135l-.636078 1.7505815c-.15917.4422713-.503586.663407-1.034155.663407h-4.904585c-.158868 0-.296209-.0573315-.410812-.1722978-.11521-.1149662-.172208-.2296292-.172208-.3452022 0-.1146629.008489-.1986884.026377-.2517731l5.912363-16.92309678c.158868-.58332495.556644-.87513909 1.192721-.87513909zM81.7164973 23.3279015H76.300444c-.1949467 0-.3632127-.0706784-.504496-.2123388-.1418893-.1419636-.212228-.3100146-.212228-.5050629V5.45019027c0-.19444164.0703387-.36279596.212228-.50445625.1412833-.14196364.3095493-.21264211.504496-.21264211h5.4160533c.1946434 0 .3626067.07067847.5047994.21264211.1412826.14166029.2122273.31001461.2122273.50445625V22.6104998c0 .1950483-.0709447.3630993-.2122273.5050629-.1421927.1416604-.310156.2123388-.5047994.2123388m8.5676367-11.3351896v4.1703334c0 1.3407677.6469913 2.0108482 1.9418847 2.0108482.9971673 0 1.6532546-.4471248 1.9682613-1.341071.087316-.2815006.1967653-.4716954.3280433-.570888.1309747-.0994958.345022-.1489404.6427474-.1489404h5.3532943c.157352 0 .292874.0564214.406871.1677476.113391.1119328.170389.245403.170389.4004102 0 1.4982018-.437493 2.754944-1.311871 3.7708333-1.6099 1.8946685-4.1202513 2.8413961-7.531662 2.8413961-2.676496 0-4.8109013-.5757414-6.4029127-1.7278309-1.5917086-1.1520895-2.387866-2.9226915-2.387866-5.3118061v-4.3517314c0-2.33815323.8134387-4.09601497 2.4403167-5.27328177 1.6271807-1.17726682 3.743698-1.76635525 6.350462-1.76635525 3.4114107 0 5.921762.94703093 7.531662 2.84078945.874378 1.015586 1.311871 2.27263154 1.311871 3.77022657 0 .1553106-.056998.289084-.170389.4007136-.113997.1119328-.249519.1677476-.406871.1677476h-5.3532943c-.2801414 0-.4853954-.0497479-.616674-.1489404-.1309747-.0991926-.249216-.2893875-.3541167-.5705847-.3325913-.8936429-.9886787-1.340161-1.9682613-1.340161-1.2948934 0-1.9418847.6703839-1.9418847 2.0105449M69.27349 13.7675607l5.090436-8.07524356c.0527533-.08766558.0791307-.1977784.0791307-.32973178 0-.13195338-.0569987-.25510987-.1712987-.36946946-.1146027-.1143596-.250732-.17138773-.40869-.17138773h-5.459712c-.0667 0-.1306713.00485346-.192824.01274033L55.5526595 22.9967137c.0263768.0430744.0569983.0852389.097928.1258866.1142998.1146629.2507319.171691.40869.171691h5.7501608c.4744808 0 .8349649-.2023285 1.0811492-.6072888l2.1892814-3.5360473 2.2944858 3.5360473c.246184.4049603.606668.6072888 1.0817553.6072888h5.9341927c.1582613 0 .29439-.0570281.4089933-.171691.1143-.1143596.1716013-.2372128.1716013-.3694695 0-.1319533-.0263766-.2414595-.0791306-.3300351l-5.6182767-8.655535z"/><path fill="#003486" d="M10.5201929 4.90678502H6.8019618L1.29313434 20.6580751l-1.2930737.1865548v2.1773825h6.16794639v-2.1773825l-1.25608542-.2238657.79585427-2.4883071h5.86931162l.7958542 2.4883071-1.2557822.2238657v2.1773825h6.1676432v-2.1773825l-1.2930737-.1865548zM29.0992215 18.2567663h-.074583L24.4111092 4.90672435h-6.6651658V7.0965438l1.9273317.37310953V20.4714597l-1.9273317.3731096v2.1773824h7.4983115v-2.1773824l-1.9397621-.3731096v-2.849283l-.3483568-7.95026697.0745829-.012437 4.8248476 13.36247897h2.437588L35.142863 9.6097248l.0745829.012437-.3483568 8.0000149v2.849283l-1.9273316.3731096v2.1773824h7.4983115v-2.1773824l-1.9397621-.3731096V7.46965333l1.9397621-.37310953V4.90672435h-6.6900268zM52.5370843.37799335l-.024861-.07462191h-3.842536l-2.4745762 3.30945143h2.9099464z"/><path fill="#FFF" d="M5.35262781 12.2630495h2.38180232l.87255947-2.50104743.96684927 2.50104743h2.35845723l-1.7924154 1.639862.6603317 2.489217-2.1577504-1.3920323-2.01646736 1.3920323.58938696-2.489217z"/><path fill="#003486" d="M55.4220484 19.4655503v-1.3953691H52.661571l-.1618995 2.1649455h-5.8444506v-5.1759093h6.130655v-2.7992317h-6.130655V7.70622907h5.7947287l.1615963 2.16494546h2.7856416V4.90669402h-14.300516v2.18981945l1.9273317.37341286V20.4714294l-1.9273317.3731095v2.1773825h11.8432211z"/><path fill="#900" d="M55.3299719 23.0760879h.1291006v-.1860896z"/></g></g></svg>
