<svg width="198" height="29" xmlns="http://www.w3.org/2000/svg" xmlns:xlink="http://www.w3.org/1999/xlink"><defs><path id="a" d="M0 .555h22.431v26.48H0z"/></defs><g fill="none" fill-rule="evenodd"><path fill="#6D6D6D" d="M54.857 19.31h-2.742V9.096h2.742zM72.448 19.31h-2.743V9.096h2.743zM87.771 19.31h-2.742V9.096h2.742zM42.387 19.31v-5.65c0-1.4 1.057-2.237 2.246-2.237 1.264 0 2.26.976 2.26 2.238v5.65h2.738v-5.547c0-2.588-1.803-4.88-4.936-4.88-3.373 0-5.055 2.278-5.055 4.88v5.547h2.747zM105.328 19.31v-5.65c0-1.4 1.058-2.237 2.246-2.237 1.263 0 2.26.976 2.26 2.238v5.65h2.737v-5.547c0-2.588-1.802-4.88-4.937-4.88-3.371 0-5.053 2.278-5.053 4.88v5.547h2.747zM62.277 15.333l2.803-6.237h2.851L63.23 19.31h-1.895L56.632 9.096h2.843zM75.977 16.197c.695.63 1.77 1.009 2.8 1.009.74 0 1.307-.358 1.307-.862 0-1.535-4.95-.988-4.95-4.279 0-1.96 1.896-3.18 3.918-3.18 1.33 0 2.781.503 3.459 1.03l-1.283 1.981c-.53-.378-1.225-.691-1.964-.691-.755 0-1.39.29-1.39.816 0 1.33 4.952.8 4.952 4.345 0 1.956-1.915 3.159-4.066 3.159-1.411 0-2.91-.488-4.108-1.372l1.325-1.956zM95.183 16.993c1.603 0 2.697-1.244 2.697-2.777 0-1.54-1.094-2.802-2.697-2.802-1.599 0-2.7 1.262-2.7 2.802 0 1.533 1.101 2.777 2.7 2.777m0-8.108c3.098 0 5.432 2.38 5.432 5.331 0 2.951-2.334 5.309-5.432 5.309-3.099 0-5.446-2.358-5.446-5.309 0-2.95 2.347-5.331 5.446-5.331M34.657 9.096v5.652c0 1.399-1.068 2.24-2.26 2.24-1.258 0-2.257-.982-2.257-2.24V9.096h-2.739v5.548c0 2.581 1.798 4.881 4.938 4.881 3.368 0 5.054-2.277 5.054-4.881V9.096h-2.736z"/><g transform="translate(0 .41)"><mask id="b" fill="#fff"><use xlink:href="#a"/></mask><path d="M21.532.872l-.077-.317H.975L.9.872C.465 2.682 0 5.807 0 9.145c0 1.832.122 3.438.374 4.924l.1.479-.007.004.097.424c.63 2.852 1.786 5.17 3.531 7.09.033.036.806.89 1.13 1.178.216.213.41.396.608.564 1.383 1.117 3.086 2.145 5.207 3.144l.175.083.177-.083c2.12-.999 3.823-2.027 5.217-3.152.186-.16.381-.343.582-.541.34-.304 1.112-1.157 1.143-1.192 1.748-1.921 2.903-4.24 3.533-7.089l.193-.924c.25-1.471.371-3.077.371-4.91 0-3.337-.465-6.462-.9-8.272" fill="#E1E1E1" mask="url(#b)"/></g><path d="M8.82 10.33a7.822 7.822 0 0 1-.206-.235l-3.989 2.636L.934 15.17l.034.149c.614 2.778 1.737 5.036 3.434 6.901 0 0 .634.7.999 1.054l3.956-2.614c.007-.735.026-1.77.043-2.71.022-1.169.041-2.19.033-2.295a8.961 8.961 0 0 0 .726-.012V9.445l-1.339.886z" fill="#FF161F"/><path d="M21.215 1.77L11.13 8.432c-.119-.096-.254-.18-.382-.27.103.419.186.7.234.74l-.823.544v6.197h.004c.078.154.804 1.866 1.49 3.5l10.25-6.773c.074-.874.113-1.797.113-2.794 0-3.088-.398-5.975-.802-7.806" fill="#00C56E"/><path d="M10.657 7.779L20.31 1.4H1.301C.871 3.197.414 6.273.414 9.577c0 1.767.115 3.317.35 4.738l7.321-4.837.3-.198c.194.194.416 1.032.435 1.052l2.164-1.43c-.048-.039-.327-1.123-.327-1.123" fill="#E621BB"/><path d="M11.972 19.9l-.27.178a5.124 5.124 0 0 0-.713-.496l.665-.44c-.686-1.633-1.413-3.345-1.49-3.498 0 0-.151.01-.38.012-.228.004-.351 0-.351 0 .014.189-.06 3.354-.076 5.005.154.198.32.418.517.625l-.51.337-3.358 2.219c.03.024.058.053.086.077 1.356 1.095 3.033 2.106 5.123 3.09h.001c2.09-.984 3.767-1.995 5.123-3.09.179-.154.367-.33.577-.537.327-.292 1.113-1.161 1.113-1.161 1.697-1.866 2.82-4.123 3.435-6.902l.04-.174.148-.728c.056-.328.103-.666.146-1.01L11.972 19.9z" fill="#1717EF"/><path d="M18.57 13.968l-.003-6.561c-.86-.637-4.364-.837-8.408-.838l.008 8.403c2.772 0 7.253-.284 8.404-1.004M18.567 14.574c-.028 4.054-3.248 7.264-7.26 7.266-.056 0-.111-.003-.164-.003-.84-1.163-.977-3.333-.979-6.194 2.972-.025 6.72-.12 8.403-1.069M10.609 21.83c-3.772-.27-6.72-3.349-6.749-7.245 1.064.646 4.11 1.05 5.573 1.07.012 2.366.29 5.053 1.176 6.176M9.468 14.972l.11-5.133C7.763 7.661 5.078 7.266 4.145 7.267a.284.284 0 0 0-.286.282l.001.013V7.56v6.612c2.004.665 4.785.777 5.607.8" fill="#EFEFEF"/><path d="M123.008 14.205c0-1.827-1.252-3.108-3.108-3.108h-1.753v6.215h1.753c1.856 0 3.108-1.252 3.108-3.08v-.027zM119.9 19.36h-4.022V9.05h4.022c3.24 0 5.48 2.223 5.48 5.126v.029c0 2.901-2.24 5.155-5.48 5.155zM127.398 19.36V9.05h7.778v2.018h-5.525v2.09h4.862v2.017h-4.862v2.165h5.6v2.019zM143.13 12.658c0-1.016-.706-1.56-1.841-1.56h-1.752v3.151h1.796c1.135 0 1.798-.678 1.798-1.56v-.03zm-1.87 3.607h-1.723v3.096h-2.27V9.05h4.214c2.46 0 3.948 1.457 3.948 3.563v.03c0 2.387-1.856 3.621-4.17 3.621zM155.24 14.205c0-1.767-1.296-3.24-3.123-3.24-1.827 0-3.094 1.442-3.094 3.21v.03c0 1.766 1.297 3.238 3.124 3.238 1.826 0 3.093-1.442 3.093-3.21v-.028zm-3.123 5.33c-3.182 0-5.466-2.371-5.466-5.302v-.028c0-2.932 2.313-5.332 5.496-5.332 3.182 0 5.464 2.371 5.464 5.303v.029c0 2.931-2.312 5.33-5.494 5.33zM165.935 12.57c0-.972-.677-1.472-1.781-1.472H161.9v2.96h2.297c1.105 0 1.738-.59 1.738-1.459v-.029zm-.044 6.79l-2.21-3.3H161.9v3.3h-2.27V9.05h4.714c2.432 0 3.889 1.282 3.889 3.401v.03c0 1.665-.898 2.71-2.21 3.196l2.52 3.683h-2.652zM174.95 11.142v8.218h-2.269v-8.218h-3.137V9.05h8.543v2.092zM179.826 19.36V9.05h7.778v2.018h-5.524v2.09h4.862v2.017h-4.862v2.165h5.598v2.019zM193.365 19.507a6.56 6.56 0 0 1-4.375-1.65l1.34-1.604c.928.765 1.9 1.252 3.079 1.252.927 0 1.486-.369 1.486-.973v-.03c0-.576-.352-.87-2.075-1.311-2.077-.53-3.418-1.104-3.418-3.15v-.03c0-1.87 1.503-3.107 3.61-3.107 1.502 0 2.784.471 3.83 1.31l-1.179 1.708c-.913-.633-1.812-1.016-2.68-1.016-.871 0-1.328.398-1.328.899v.029c0 .677.443.898 2.226 1.355 2.091.545 3.269 1.296 3.269 3.092v.03c0 2.048-1.561 3.196-3.785 3.196" fill="#C5C2C3"/></g></svg>