<svg xmlns="http://www.w3.org/2000/svg" width="228" height="24"><g fill="none" fill-rule="evenodd"><path fill="#052135" d="M11.61011952 11.56540595c-.6195412-.8166937-1.52610147-1.30068754-2.84428912-1.30068754H7.17602469v7.67119221H8.7658304c1.31818765 0 2.22474792-.4832594 2.84428912-1.30142198.50893384-.6668686.8106539-1.56655366.8106539-2.53454134 0-.96651881-.30172006-1.86767275-.8106539-2.53454135zm-3.083005-3.30129335c1.7641173 0 2.92409443.40026805 3.82995467 1.10092074 1.36789095 1.06713665 2.21004695 2.8011419 2.21004695 4.73491396 0 1.93524092-.842156 3.66924617-2.21004695 4.7363828-.90586024.7006527-2.06583737 1.1001863-3.82995467 1.1001863h-3.4967325V8.2641126h3.4967325zm9.93240038 2.00097302v2.4177659h3.4176273v2.00134024h-3.4176273v3.25135165h4.6889118v2.00134019h-6.8345544V8.26374539h6.6756439v2.00134023zm13.9851799-2.00104646v2.00134024h-2.9401954v9.671798h-2.1463428v-9.671798h-2.9401955V8.26403916zm3.8133636 2.00104646v2.4177659h3.4169272v2.00134024h-3.4169272v3.25135165h4.6882117v2.00134019h-6.8338544V8.26374539h6.6756439v2.00134023zm7.7073025 3.83493512c0 2.26794079 1.6528099 4.00194606 3.7991526 4.00194606 1.4462962 0 2.4949659-.73296793 3.1467092-1.61722982l1.4784983 1.38441334c-.9856655 1.31757958-2.6384754 2.23415668-4.6735107 2.23415668-3.4645304 0-5.895792-2.65131677-5.895792-6.00328626 0-3.35123505 2.3990595-6.00328628 5.8642899-6.00328628 1.6535099 0 3.067604.650711 4.0693706 1.66864038l-1.383292 1.533504c-.6671444-.70065269-1.6052067-1.20080414-2.7014796-1.20080414-2.1141406 0-3.7039463 1.78394695-3.7039463 4.00194604m17.1648613-5.83598158v2.00134024h-2.9408955v9.671798H56.043684v-9.671798h-2.9408956V8.26403916zm6.4357379 9.83814794c2.0980395 0 3.6556431-1.80010455 3.6556431-4.00194603 0-2.20037261-1.5576036-4.00194604-3.6556431-4.00194604-2.0980395 0-3.6563431 1.80157343-3.6563431 4.00194604 0 2.20184148 1.5583036 4.00194603 3.6563431 4.00194603m0-10.0052323c3.4330283 0 5.8012858 2.68510088 5.8012858 6.00328627 0 3.3181854-2.3682575 6.00328633-5.8012858 6.00328633-3.4330282 0-5.8012857-2.68510093-5.8012857-6.00328633 0-3.31818539 2.3682575-6.00328628 5.8012857-6.00328628m11.4735529 4.66903497c.6202413 0 .8897592-.13366749 1.0808719-.35032634.1904127-.21592442.3178211-.55009315.3178211-.88352745 0-.34959191-.1274084-.68302621-.3178211-.9004195-.1911127-.21665885-.4606306-.36648396-1.0808719-.36648396h-1.7802183v2.50075725h1.7802183zM77.2592947 14.76733v5.1697005H75.113652V8.26389227h4.0532695c1.1438761 0 1.8747247.3334343 2.4312617.86736985.6048402.60003485.9856655 1.45051265.9856655 2.38471624 0 .93346915-.3808253 1.78394695-.9856655 2.38471624-.3017201.2996502-.6671444.5332011-1.1130741.68376064l4.165277 5.35257526h-2.6545765L78.0377464 14.76733h-.7784517zm33.19434627 1.02908153l4.05256946-6.98669714h1.51000037V20.4821182h-2.14564263v-6.50343771l-2.67067758 4.58655772h-1.49319929l-2.67067757-4.58655772v6.50343771h-2.14564267V8.80971439h1.5100004zm10.24980153-4.98579756v2.4177659h3.4176272v2.00134024h-3.4176272v3.25135164h4.6889118V20.482412h-6.8345545V8.80927373h6.6756439v2.00134024zm6.5943685-2.00104646h1.5100004l6.1989122 7.60435847V8.80956751h2.1456426V20.4827058h-1.5100004l-6.1989122-7.6043585v7.6043585h-2.1456426zm19.5487298 0v2.00134024h-2.9408955v9.67179805h-2.1456427v-9.67179805h-2.9408956V8.80956751zm1.6672309-.00029378h2.1456426V20.482412h-2.1456426zm8.6140027 4.50268504c.6202413 0 .8897592-.13366749 1.0808719-.35032634.1904127-.21665885.3178211-.55009315.3178211-.88352746 0-.35032634-.1274084-.68376064-.3178211-.90041949-.1911127-.21665885-.4606306-.3672184-1.0808719-.3672184h-1.7802183v2.50149169h1.7802183zm-1.7802183 2.00134024v5.16896609h-2.1456427V8.80986128h4.0532695c1.1438761 0 1.8747246.3334343 2.4312617.86663541.6048402.60076929.9856655 1.45051265.9856655 2.38471624 0 .93346915-.3808253 1.78468139-.9856655 2.38471624-.3017201.30038464-.6671444.53393554-1.1130741.68376065l4.165277 5.35257528h-2.6545765l-3.9580632-5.16896609h-.7784517zm12.0464009.58351003h2.8288881l-1.414094-3.45185289-1.4147941 3.45185289zm-4.1008726 4.58582326l4.768017-11.67313824h1.5100004l4.7687171 11.67313824h-2.240849l-1.0493698-2.58448302h-4.466297l-1.0493697 2.58448302h-2.240849zm13.0798097-3.11841857c.6356422.73370235 1.6052067 1.28379547 2.6223743 1.28379547.9534634 0 1.6213078-.61692687 1.6213078-1.46740466 0-1.50045435-2.0665374-1.68406355-3.5604367-2.60137509-.8743581-.53393555-1.5730046-1.33373721-1.5730046-2.6513168 0-2.08433159 1.8271215-3.28513574 3.6710441-3.28513574 1.128475 0 2.1778448.2834926 3.2265145 1.10092074l-1.113074 1.66717151c-.4445295-.43331771-1.1914792-.76675201-1.9230278-.76675201-.8099539 0-1.7165142.36648396-1.7165142 1.26690346 0 1.88456479 5.1341414 1.30068754 5.1341414 5.23653427 0 2.06743952-1.7648173 3.50179462-3.7669505 3.50179462-1.4945993 0-2.8764912-.650711-4.0210673-1.7508973l1.398693-1.53423847zm-83.28416422-2.46772919c-.24081602-.42891108-.96186396-1.16114455-1.97203113-1.16114455-.45783044 0-.93806237.16451384-1.32308797.49280708-.48163203.41569122-.7700512 1.08476313-.7700512 1.82948203 0 .7946606.33672238 1.50118879.86595757 1.89264359.34932323.25264626.76935116.42891109 1.23838235.42891109.80645362 0 1.52820161-.47958722 1.96083038-1.2617624v-2.22093684zm-3.58423833 3.62150779c-.72104794-.53026336-1.16627755-1.42627624-1.16627755-2.46036323 0-.95990888.39622635-1.80451118 1.02206796-2.35974539.4571304-.39145481 1.08297201-.64410106 1.74381595-.64410106.75815041 0 1.46799761.31580782 1.98463197.89601288V9.97502365h.68534557v8.95939434h-.66154399v-.84533674c-.40882719.58093949-1.11797434.97165986-1.97203113.97165986-.51663435 0-1.0948728-.13954299-1.63600878-.54274878zm6.55740602-3.05342093h3.74104873c-.1442096-1.00985058-.8904592-1.7288642-1.84042236-1.7288642-.97446479 0-1.69621278.73223348-1.90062637 1.7288642zm4.27028393 2.53601021c-.4088272.54274879-1.1914792 1.05979228-2.23734876 1.05979228-1.53940236 0-2.75398312-1.21108625-2.75398312-3.00237757 0-1.6532172 1.07037117-3.00384645 2.62167432-3.00384645 1.46799766 0 2.54956956 1.21108626 2.54956956 2.81436176 0 .0499417 0 .13807411-.0119008.25264625h-4.47399751c.04830321 1.22357169.80575358 2.25839312 2.06863755 2.25839312.72174796 0 1.32308796-.30258796 1.75571676-.85855661l.481632.47958722z"/><path fill="#CB1500" d="M203.5872074 19.6871795h16.677108c0-3.5538462-1.119269-7.0512821-3.1899167-9.87179488l-13.4871913 9.87179488z"/><path fill="#F65402" d="M203.5872074 19.6871795l13.4871913-9.87179488c-2.0146841-2.76410257-4.8688201-4.96410257-8.338554-6.0923077l-5.1486373 15.96410258z"/><path fill="#F8AF1E" d="M198.43857 3.72307692l5.1486374 15.96410258 5.1486373-15.96410258c-3.4697338-1.12820513-7.0513946-1.01538461-10.2972747 0z"/><path fill="#A8C553" d="M190.10001601 9.81538462l13.48719139 9.87179488L198.43857 3.72307692c-3.3018435 1.12820513-6.2119429 3.21538462-8.33855399 6.0923077z"/><path fill="#35BC4A" d="M186.91009938 19.6871795h16.67710802l-13.48719139-9.87179488c-1.00734209 1.41025638-1.79083039 2.93333328-2.35046488 4.68205128-.5596345 1.7487179-.83945175 3.4974359-.83945175 5.1897436z"/><path fill="#D1D1D1" d="M222.6147803 19.9692308c-.1678904 0-.2798173-.1128205-.2798173-.2820513 0-10.43589745-8.3945174-18.89743591-18.7477556-18.89743591-10.35323821 0-18.74775565 8.51794872-18.74775565 18.89743591 0 .1692308-.1119269.2820513-.27981725.2820513-.16789035 0-.27981725-.1128205-.27981725-.2820513 0-10.71794873 8.67433469-19.46153847 19.30739015-19.46153847 10.6330554 0 19.3073901 8.74358974 19.3073901 19.46153847 0 .1692308-.1119269.2820513-.2798172.2820513z"/><path fill="#000" d="M209.1275889 16.6410256l5.3724912-1.4102564-.7275249-.9589743.7275249-.2820513 3.3018435 1.1846154-2.0146842 2.8205128-.7834883.225641.1119269-1.2410256-5.2046008 1.974359-5.8761622 2.2564102-.4477076-1.5230769-.4477076-1.4666667z"/><g transform="translate(200.065967 16.196436)"><ellipse cx="3.52124006" cy="3.49074316" fill="#FFF" stroke="#D1D1D1" stroke-width="1.2" rx="3.41377043" ry="3.44102564"/><ellipse cx="3.52124006" cy="3.49074316" fill="#000" rx="2.23853799" ry="2.25641026"/></g></g></svg>
