<svg xmlns="http://www.w3.org/2000/svg" xmlns:xlink="http://www.w3.org/1999/xlink" width="166" height="24"><path d="M161.304 22.96s2.867 0 2.867-2.867V3.926s0-2.867-2.867-2.867H75.049V22.96h86.255z"/><path d="M161.304 23.591H74.418V.408h86.886c1.298-.085 2.518.623 3.089 1.792.266.538.413 1.127.43 1.727V20.08c.069 1.871-1.392 3.443-3.263 3.512-.085.003-.17.002-.256-.001zM75.687 22.33h85.618c1.186.065 2.199-.844 2.264-2.03.004-.074.004-.147.001-.221V3.926c.057-1.186-.859-2.193-2.045-2.25-.068-.003-.137-.003-.206 0H75.687V22.33z"/><path d="M4.717 1.01s-2.867 0-2.867 2.867V20.08s0 2.867 2.867 2.867h85.825V1.01H4.717z"/><path d="M91.188 23.591H4.717c-1.307.093-2.539-.619-3.11-1.799-.266-.538-.412-1.127-.43-1.727V3.926C1.104 2.056 2.561.48 4.432.407c.095-.004.19-.003.286.001h86.47v23.183zM4.717 1.669c-1.186-.057-2.193.858-2.25 2.044-.003.071-.003.142 0 .213V20.08c-.057 1.186.859 2.193 2.045 2.25.068.003.137.003.206 0h85.195V1.669H4.717z"/><path d="M29.721 9.495h2.838v8.829h-2.838zm-14.118.215h3.203c-1.267-3.253-4.931-4.862-8.184-3.595-2.228.868-3.776 2.92-3.999 5.301H9.49c.332-1.919 2.156-3.206 4.075-2.874.803.139 1.534.552 2.067 1.168m3.175 4.543H15.69c-1.231 1.514-3.457 1.743-4.97.511-.683-.556-1.134-1.346-1.265-2.217H6.624c.325 3.476 3.406 6.03 6.882 5.704 2.381-.222 4.432-1.769 5.301-3.998m2.314-8.578h2.838v12.649h-2.838zm4.945 0h10.141v2.673H26.066zm18.676 6.335L41.08 5.675h-3.268l4.4 7.625v5.024h3.283v-5.11zm1.426.129l3.734-6.464h-3.275l-2.1 3.633zm5.525-6.464h2.838v8.937h-2.838zm0 10.076h8.428v2.573h-8.428zm13.244 2.573l4.608-12.649h-3.017L61.92 18.324zm6.88 0h3.017l-4.343-11.94-1.491 4.2.997 2.738h-2l-.989 2.701h3.97zm5.124-12.649h2.458v12.649h-2.458zm8.191 6.005c1.222-1.691.842-4.051-.849-5.273-.59-.426-1.291-.673-2.018-.711H80.56v2.48h1.999c.716-.001 1.298.58 1.298 1.296s-.58 1.298-1.296 1.298H80.56v2.422h1.999c.716.001 1.297.582 1.296 1.298-.001.716-.581 1.296-1.296 1.296H80.56v2.501h2.293c1.965-.163 3.482-1.798 3.497-3.77-.003-1.03-.431-2.013-1.182-2.716l-.057-.057.05-.064m12.118 5.626h5.97v1.032H96.19V5.668h1.089zm14.24-11.638l5.468 12.67h-1.089l-1.663-3.82h-6.156l-1.663 3.82h-1.089l5.468-12.67h.724zm-3.003 7.818h5.267l-2.623-6.12-2.644 6.12zm17.071-7.818V6.7h-3.619v11.638h-1.09V6.7h-3.619V5.668zm3.253 0h1.089v12.67h-1.089zm5.705 0h.724l8.506 10.549V5.668h1.09v12.67h-.731l-8.507-10.549v10.549h-1.082zm19.564-.179c3.471-.01 6.293 2.795 6.303 6.266 0 .083-.001.165-.004.248 0 3.479-2.82 6.299-6.299 6.299-3.479 0-6.299-2.82-6.299-6.299-.127-3.469 2.583-6.383 6.051-6.51.083-.003.166-.005.248-.004m0 11.996c2.901-.021 5.236-2.39 5.215-5.291 0-.064-.002-.128-.005-.191.107-2.879-2.141-5.3-5.02-5.407-2.879-.107-5.3 2.141-5.407 5.02-.005.129-.005.258 0 .387-.131 2.898 2.113 5.354 5.011 5.484.069.003.137.005.206.005"/><path d="M96.19 5.668h7.059v12.67H96.19zm9.144 0h11.653v12.67h-11.653zm11.925 0h8.327v12.67h-8.327zm11.581 0h1.089v12.67h-1.089zm5.705 0h10.32v12.67h-10.32zm13.265-.179h12.599v13.029H147.81z"/><path fill="#FFF" d="M161.407 22.84s2.884 0 2.884-2.886V3.797s0-2.886-2.884-2.886h-86.27v21.927h86.27v.002z"/><path fill="none" stroke="#000" stroke-miterlimit="10" stroke-width="1.2638" d="M161.407 22.84s2.884 0 2.884-2.886V3.797s0-2.886-2.884-2.886h-86.27v21.927h86.27v.002z"/><path d="M4.788.912s-2.884 0-2.884 2.884v16.157s0 2.886 2.884 2.886h85.847V.912H4.788z"/><path fill="none" stroke="#000" stroke-miterlimit="10" stroke-width="1.2638" d="M4.788.912s-2.884 0-2.884 2.884v16.157s0 2.886 2.884 2.886h85.847V.912H4.788z"/><path fill="#FFF" d="M29.799 9.37h2.835v8.832h-2.835zm-14.122.213h3.194c-.918-2.36-3.207-4.034-5.891-4.034-3.296 0-6.001 2.52-6.297 5.737h2.854c.291-1.658 1.736-2.92 3.477-2.92 1.063.002 2.015.473 2.663 1.217m3.211 4.544h-3.13c-.648.799-1.636 1.31-2.745 1.31-1.774 0-3.239-1.31-3.493-3.014H6.68c.278 3.238 2.989 5.779 6.299 5.779 2.7 0 5.002-1.693 5.909-4.075m2.305-8.578h2.836v12.652h-2.836zm4.951 0h10.144v2.67H26.144zm18.676 6.338l-3.659-6.338h-3.274l4.404 7.627-.001 5.026h3.286l-.001-5.111zm1.425.127l3.733-6.465h-3.274l-2.098 3.633zm5.528-6.465h2.836v8.941h-2.836zm0 10.078h8.428v2.575h-8.428zm13.248 2.575L69.627 5.55h-3.018l-4.605 12.652zm6.883 0h3.017L70.574 6.259l-1.49 4.197.997 2.738h-2l-.989 2.704h3.972zm5.122-12.653h2.457v12.652h-2.457zm8.191 6.006c.469-.654.716-1.417.716-2.206 0-2.021-1.589-3.682-3.616-3.783l-.494-.018h-1.209v2.509h2.001c.716 0 1.298.582 1.298 1.298 0 .715-.581 1.297-1.298 1.297-.019 0-.038-.001-.056-.004l-.04.004h-1.905v2.451h2.001c.716 0 1.298.583 1.298 1.298 0 .715-.581 1.298-1.298 1.298-.019 0-.038-.001-.056-.004l-.04.004h-1.905v2.503h1.802l.493-.03c1.962-.155 3.5-1.812 3.5-3.771 0-1.027-.419-1.993-1.18-2.719l-.061-.057.049-.07"/><path d="M97.367 17.181h5.975v1.032h-7.061V5.541h1.086zm14.248-11.64l5.467 12.672h-1.087l-1.666-3.82h-6.155l-1.666 3.82h-1.087l5.467-12.672h.727zm-3.005 7.821h5.267l-2.625-6.118-2.642 6.118zm17.07-7.821v1.032h-3.62v11.64h-1.085V6.573h-3.622V5.541zm3.26 0h1.087v12.672h-1.087zm5.702 0h.725l8.507 10.555V5.541h1.087v12.672h-.724L135.728 7.66v10.553h-1.086zm19.569-.18c3.585 0 6.299 2.824 6.299 6.517s-2.716 6.517-6.299 6.517c-3.585 0-6.299-2.824-6.299-6.517 0-3.694 2.716-6.517 6.299-6.517m0 12.001c3.059 0 5.214-2.48 5.214-5.485s-2.155-5.485-5.214-5.485c-3.059 0-5.214 2.48-5.214 5.485.001 3.006 2.155 5.485 5.214 5.485"/><defs><path id="a" d="M96.281 5.541v12.672h7.061v-1.032h-5.975V5.541z"/></defs><clipPath id="c"><use overflow="visible" xlink:href="#a"/></clipPath><linearGradient id="b" x1="-693.4826" x2="-693.272" y1="-132.5216" y2="-132.5216" gradientTransform="translate(211580.6719 40425.6523) scale(304.9599)" gradientUnits="userSpaceOnUse"><stop offset="0" stop-color="#41af66"/><stop offset=".3368" stop-color="#004899"/><stop offset=".6675" stop-color="#c4338b"/><stop offset="1" stop-color="#e30613"/></linearGradient><path fill="url(#b)" d="M96.281 5.541h7.059v12.672h-7.059z" clip-path="url(#c)"/><defs><path id="d" d="M111.253 7.243l2.625 6.118h-5.267l2.642-6.118zm-.362-1.702l-5.468 12.672h1.087l1.666-3.819h6.155l1.666 3.819h1.087l-5.468-12.672h-.725z"/></defs><clipPath id="f"><use overflow="visible" xlink:href="#d"/></clipPath><linearGradient id="e" x1="-693.4827" x2="-693.2717" y1="-132.5216" y2="-132.5216" gradientTransform="translate(211580.6719 40425.6523) scale(304.9599)" gradientUnits="userSpaceOnUse"><stop offset="0" stop-color="#41af66"/><stop offset=".3368" stop-color="#004899"/><stop offset=".6675" stop-color="#c4338b"/><stop offset="1" stop-color="#e30613"/></linearGradient><path fill="url(#e)" d="M105.424 5.541h11.658v12.672h-11.658z" clip-path="url(#f)"/><defs><path id="g" d="M117.353 5.541v1.032h3.622v11.64h1.085V6.573h3.62V5.541z"/></defs><clipPath id="i"><use overflow="visible" xlink:href="#g"/></clipPath><linearGradient id="h" x1="-693.4829" x2="-693.2717" y1="-132.5216" y2="-132.5216" gradientTransform="translate(211580.6719 40425.6523) scale(304.9599)" gradientUnits="userSpaceOnUse"><stop offset="0" stop-color="#41af66"/><stop offset=".3368" stop-color="#004899"/><stop offset=".6675" stop-color="#c4338b"/><stop offset="1" stop-color="#e30613"/></linearGradient><path fill="url(#h)" d="M117.353 5.541h8.327v12.672h-8.327z" clip-path="url(#i)"/><defs><path id="j" d="M128.94 5.541h1.087v12.672h-1.087z"/></defs><clipPath id="l"><use overflow="visible" xlink:href="#j"/></clipPath><linearGradient id="k" x1="-693.4816" x2="-693.2731" y1="-132.5216" y2="-132.5216" gradientTransform="translate(211580.6719 40425.6523) scale(304.9599)" gradientUnits="userSpaceOnUse"><stop offset="0" stop-color="#41af66"/><stop offset=".3368" stop-color="#004899"/><stop offset=".6675" stop-color="#c4338b"/><stop offset="1" stop-color="#e30613"/></linearGradient><path fill="url(#k)" d="M128.94 5.541h1.087v12.672h-1.087z" clip-path="url(#l)"/><defs><path id="m" d="M143.874 5.541v10.554l-8.507-10.554h-.725v12.672h1.086V7.66l8.508 10.553h.725V5.541z"/></defs><clipPath id="o"><use overflow="visible" xlink:href="#m"/></clipPath><linearGradient id="n" x1="-693.4826" x2="-693.272" y1="-132.5216" y2="-132.5216" gradientTransform="translate(211580.6719 40425.6523) scale(304.9599)" gradientUnits="userSpaceOnUse"><stop offset="0" stop-color="#41af66"/><stop offset=".3368" stop-color="#004899"/><stop offset=".6675" stop-color="#c4338b"/><stop offset="1" stop-color="#e30613"/></linearGradient><path fill="url(#n)" d="M134.642 5.541h10.318v12.672h-10.318z" clip-path="url(#o)"/><defs><path id="p" d="M148.998 11.877c0-3.005 2.154-5.485 5.214-5.485 3.059 0 5.213 2.48 5.213 5.485s-2.154 5.485-5.213 5.485c-3.06 0-5.214-2.48-5.214-5.485m-1.086 0c0 3.693 2.716 6.517 6.301 6.517 3.584 0 6.299-2.824 6.299-6.517s-2.716-6.517-6.299-6.517c-3.585.001-6.301 2.824-6.301 6.517"/></defs><clipPath id="r"><use overflow="visible" xlink:href="#p"/></clipPath><linearGradient id="q" x1="-693.4825" x2="-693.272" y1="-132.5216" y2="-132.5216" gradientTransform="translate(211580.6719 40425.6523) scale(304.9599)" gradientUnits="userSpaceOnUse"><stop offset="0" stop-color="#41af66"/><stop offset=".3368" stop-color="#004899"/><stop offset=".6675" stop-color="#c4338b"/><stop offset="1" stop-color="#e30613"/></linearGradient><path fill="url(#q)" d="M147.912 5.361h12.6v13.033h-12.6z" clip-path="url(#r)"/></svg>
