<?xml version="1.0" encoding="utf-8"?>
<!-- Generator: Adobe Illustrator 27.9.0, SVG Export Plug-In . SVG Version: 6.00 Build 0)  -->
<svg version="1.1" id="Capa_1" xmlns="http://www.w3.org/2000/svg" xmlns:xlink="http://www.w3.org/1999/xlink" x="0px" y="0px"
	 viewBox="0 0 143 32" style="enable-background:new 0 0 143 32;" xml:space="preserve">
<style type="text/css">
	.st0{fill:#096CFB;}
	.st1{fill-rule:evenodd;clip-rule:evenodd;fill:#096CFB;}
</style>
<path class="st0" d="M24.2,4.2H4.8v6.3h5.9v17.3h7.7V10.5h5.9V4.2z"/>
<path class="st0" d="M43.9,10.3V4.2H26.5v23.5h17.4v-6.1h-9.8v-3.2h7.9v-4.9h-7.9v-3.2H43.9z"/>
<path class="st0" d="M53.9,21.4V4.2h-7.7v23.5h15.9v-6.3H53.9z"/>
<path class="st0" d="M82,10.3V4.2H64.6v23.5H82v-6.1h-9.8v-3.2h7.9v-4.9h-7.9v-3.2H82z"/>
<path class="st0" d="M98.4,4.2v8.6H92V4.2h-7.7v23.5H92V19h6.4v8.8h7.7V4.2H98.4z"/>
<path class="st0" d="M116.1,4.2h-7.7v23.5h7.7V4.2z"/>
<path class="st0" d="M137.8,4.2h-19.4v6.3h5.9v17.3h7.7V10.5h5.9V4.2z"/>
<path class="st1" d="M140.2,1.9H2.5v28.2h137.7V1.9z M0.6,0v32h141.4V0H0.6z"/>
</svg>
