<?xml version="1.0" encoding="utf-8"?>
<!-- Generator: Adobe Illustrator 27.9.0, SVG Export Plug-In . SVG Version: 6.00 Build 0)  -->
<svg version="1.1" id="Capa_1" xmlns="http://www.w3.org/2000/svg" xmlns:xlink="http://www.w3.org/1999/xlink" x="0px" y="0px"
	 viewBox="0 0 20 32" style="enable-background:new 0 0 20 32;" xml:space="preserve">
<style type="text/css">
	.st0{fill:#096CFB;}
</style>
<path class="st0" d="M0,0v32h19.6V0H0z M18.8,31.2h-18V0.8h18V31.2z"/>
<path class="st0" d="M9.7,1.7H1.7v2.6h2.4v7.1h3.1V4.3h2.4V1.7z"/>
<path class="st0" d="M17.9,4.2V1.7h-7.1v9.6h7.1V8.9h-4V7.6h3.3v-2h-3.3V4.2H17.9z"/>
<path class="st0" d="M5.2,19.8V12H1.7v10.6H9v-2.9H5.2z"/>
<path class="st0" d="M17.9,14.8V12H10v10.6h7.9v-2.8h-4.4v-1.5h3.6v-2.2h-3.6v-1.5H17.9z"/>
<path class="st0" d="M6,23.2v2.6H4.1v-2.6H1.7v7.1h2.3v-2.6H6v2.6h2.3v-7.1H6z"/>
<path class="st0" d="M11.4,23.2H9.1v7.1h2.3V23.2z"/>
<path class="st0" d="M17.9,23.2h-5.8v1.9h1.8v5.2h2.3v-5.2h1.8V23.2z"/>
</svg>
