<svg width="29" height="30" xmlns="http://www.w3.org/2000/svg"><g fill="none" fill-rule="evenodd"><path d="M11.6.21v16.82c.84 0 5.5.12 9.46-.23 1-.1 1.97-.23 2.9-.4 2.27-.43 4.19-1.1 4.86-1.66V1.9C27.08.6 19.78.21 11.6.21" fill="#00C56E"/><path d="M28.82 14.95v-.21c-.67.56-2.59 1.23-4.86 1.67-.93.16-1.9.28-2.9.39-3.96.35-8.62.23-9.46.23v.29a82.79 82.79 0 0 0 .15 4.83c.11 1.67.3 3.23.58 4.53.33 1.45.78 2.59 1.42 3.19l.03.03.63.01c4.88 0 9.2-2.43 11.8-6.15a14.8 14.8 0 0 0 2.1-4.93c.33-1.23.5-2.52.5-3.86v-.01z" fill="#1717EF"/><path d="M13.75 29.87c-.64-.6-1.1-1.74-1.42-3.2-.29-1.3-.47-2.85-.58-4.52-.05-.78-.08-1.59-.1-2.4l-.02-.54c-.02-.65-.03-1.23-.03-1.9v-.28c-3.8 0-7.08-.29-8.65-.57-1.66-.3-2.76-.91-2.95-1.22a14.36 14.36 0 0 0 2.62 8.54 14.38 14.38 0 0 0 11.16 6.12l-.03-.03" fill="#FF161F"/><path d="M.56 1.21a.56.56 0 0 0-.56.56v13.47c.19.3 1.29.92 2.95 1.22.25.05.55.1.9.14 1.75.23 4.57.43 7.75.43V6.67C8.01 2.04 2.46 1.2.56 1.2" fill="#E621BB"/></g></svg>