<svg width="229" height="28" xmlns="http://www.w3.org/2000/svg" xmlns:xlink="http://www.w3.org/1999/xlink"><defs><path id="a" d="M.08.28h9.05v13.3H.08z"/><path id="c" d="M.28.24h14.69v14.4H.27z"/><path id="e" d="M0 .33h9.95v13.54H0z"/></defs><g fill="none" fill-rule="evenodd"><path fill="#FFF" d="M149.84 10.01v2.68h3.97v2.21h-3.97v5.82h-2.5V7.8h7.76V10zM158.48 15.64h3.29l-1.64-3.82-1.65 3.82zm-4.76 5.08l5.54-12.92H161l5.54 12.92h-2.6l-1.22-2.86h-5.19l-1.22 2.86h-2.6zM174.03 15.53l4.7-7.73h1.76v12.92H178v-7.2l-3.1 5.08h-1.73l-3.1-5.08v7.2h-2.5V7.8h1.76zM188.8 18.69c2.44 0 4.25-2 4.25-4.43a4.29 4.29 0 0 0-4.25-4.43c-2.44 0-4.25 2-4.25 4.43 0 2.44 1.81 4.43 4.25 4.43m0-11.08a6.53 6.53 0 0 1 6.74 6.65 6.53 6.53 0 0 1-6.74 6.65 6.53 6.53 0 0 1-6.74-6.65 6.53 6.53 0 0 1 6.74-6.65M197.44 17.27a4.25 4.25 0 0 0 3.04 1.42c1.11 0 1.89-.68 1.89-1.62 0-1.67-2.4-1.87-4.14-2.88-1.01-.6-1.83-1.48-1.83-2.94 0-2.3 2.13-3.64 4.27-3.64 1.31 0 2.53.32 3.75 1.22l-1.3 1.85a3.46 3.46 0 0 0-2.23-.85c-.94 0-2 .4-2 1.4 0 2.09 5.97 1.44 5.97 5.8 0 2.29-2.05 3.88-4.38 3.88a6.9 6.9 0 0 1-4.67-1.94l1.63-1.7zM212.52 18.69c2.44 0 4.25-2 4.25-4.43a4.29 4.29 0 0 0-4.25-4.43c-2.43 0-4.24 2-4.24 4.43 0 2.44 1.8 4.43 4.24 4.43m0-11.08a6.53 6.53 0 0 1 6.74 6.65 6.53 6.53 0 0 1-6.74 6.65 6.53 6.53 0 0 1-6.74-6.65 6.53 6.53 0 0 1 6.74-6.65"/><g transform="translate(219.46 7.33)"><mask id="b" fill="#fff"><use xlink:href="#a"/></mask><path d="M1.7 9.94a4.25 4.25 0 0 0 3.05 1.42c1.1 0 1.88-.68 1.88-1.62 0-1.67-2.4-1.87-4.13-2.88C1.48 6.26.67 5.38.67 3.92.67 1.62 2.79.28 4.93.28 6.25.28 7.46.6 8.68 1.5L7.4 3.35a3.46 3.46 0 0 0-2.23-.85c-.95 0-2 .4-2 1.4 0 2.09 5.97 1.44 5.97 5.8 0 2.29-2.05 3.88-4.38 3.88a6.9 6.9 0 0 1-4.67-1.94l1.62-1.7z" fill="#FFF" mask="url(#b)"/></g><path fill="#FFF" d="M67.8 20.56h-3.4V7.87h3.4zM89.66 20.56h-3.4V7.87h3.4zM108.7 20.56h-3.4V7.87h3.4zM52.31 20.56v-7.02a2.7 2.7 0 0 1 2.79-2.78c1.57 0 2.8 1.21 2.8 2.78v7.02h3.41v-6.89a5.87 5.87 0 0 0-6.13-6.07c-4.2 0-6.28 2.83-6.28 6.07v6.9h3.41zM130.52 20.56v-7.02a2.7 2.7 0 0 1 2.79-2.78c1.57 0 2.8 1.21 2.8 2.78v7.02h3.4v-6.89a5.87 5.87 0 0 0-6.13-6.07c-4.19 0-6.28 2.83-6.28 6.07v6.9h3.42zM77.02 15.62l3.49-7.75h3.54l-5.84 12.7h-2.36l-5.84-12.7h3.53zM94.05 16.7c.86.78 2.2 1.25 3.48 1.25.91 0 1.62-.45 1.62-1.07 0-1.91-6.15-1.23-6.15-5.32 0-2.44 2.36-3.96 4.87-3.96 1.65 0 3.45.63 4.3 1.29l-1.6 2.46a4.3 4.3 0 0 0-2.44-.86c-.94 0-1.73.36-1.73 1.01 0 1.65 6.16 1 6.16 5.4 0 2.43-2.38 3.93-5.05 3.93-1.76 0-3.62-.6-5.1-1.7l1.64-2.44zM117.91 17.68c2 0 3.35-1.54 3.35-3.45 0-1.91-1.36-3.48-3.35-3.48s-3.35 1.57-3.35 3.48c0 1.9 1.36 3.45 3.35 3.45m0-10.08a6.6 6.6 0 1 1 0 13.23 6.6 6.6 0 0 1-6.76-6.6 6.62 6.62 0 0 1 6.76-6.63M42.7 7.87v7.02a2.71 2.71 0 0 1-2.8 2.79 2.77 2.77 0 0 1-2.8-2.79V7.87h-3.41v6.9c0 3.2 2.23 6.06 6.13 6.06 4.19 0 6.29-2.83 6.29-6.07v-6.9h-3.4z"/><g><g transform="translate(11.35 .52)"><mask id="d" fill="#fff"><use xlink:href="#c"/></mask><path d="M14.97 12.87V1.7C13.45.59 7.33.24.26.24l.02 14.4c4.84 0 12.67-.5 14.68-1.77" fill="#FFF" mask="url(#d)"/></g><path d="M13.35 27.76h.29c7 0 12.63-5.65 12.68-12.77-2.94 1.67-9.49 1.83-14.68 1.88 0 5.03.24 8.84 1.71 10.89M0 15a12.71 12.71 0 0 0 11.79 12.75c-1.55-1.98-2.04-6.7-2.06-10.86C7.18 16.85 1.86 16.14 0 15" fill="#FFF"/><g transform="translate(0 1.28)"><mask id="f" fill="#fff"><use xlink:href="#e"/></mask><path d="M0 .84v11.63c3.5 1.17 8.36 1.37 9.8 1.4 0 0 .16-9.24.15-9.26A13.52 13.52 0 0 0 .5.33a.5.5 0 0 0-.5.5v.02" fill="#FFF" mask="url(#f)"/></g></g></g></svg>