<?xml version="1.0" encoding="utf-8"?>
<!-- Generator: Adobe Illustrator 27.9.0, SVG Export Plug-In . SVG Version: 6.00 Build 0)  -->
<svg version="1.1" id="Capa_1" xmlns="http://www.w3.org/2000/svg" xmlns:xlink="http://www.w3.org/1999/xlink" x="0px" y="0px"
	 viewBox="0 0 188 32" style="enable-background:new 0 0 188 32;" xml:space="preserve">
<style type="text/css">
	.st0{fill:#FFFFFF;}
</style>
<path class="st0" d="M65.2,12.2H59V6.6H78v5.6h-6.1v16.1h-6.7V12.2z"/>
<path class="st0" d="M81.5,18.7c0.3-1.7,1.3-2.6,3.1-2.6c1.6,0,2.7,1.2,2.7,2.6H81.5L81.5,18.7z M93.1,21.8c0-6.1-2.7-9.6-9-9.6
	c-5,0-8.4,3.7-8.4,8.3c0,5.3,3.8,8.2,8.9,8.2c3.6,0,6.9-1.6,8.2-5h-5.7c-0.5,0.8-1.6,1.1-2.5,1.1c-1.9,0-2.9-1.3-3.1-3.1L93.1,21.8
	L93.1,21.8z"/>
<path class="st0" d="M96.1,6.6h6.1v21.7h-6.1V6.6z"/>
<path class="st0" d="M110.9,18.7c0.3-1.7,1.3-2.6,3.1-2.6c1.6,0,2.7,1.2,2.7,2.6H110.9z M122.4,21.8c0-6.1-2.7-9.6-9-9.6
	c-5,0-8.4,3.7-8.4,8.3c0,5.3,3.8,8.2,8.9,8.2c3.6,0,6.9-1.6,8.2-5h-5.7c-0.5,0.8-1.6,1.1-2.5,1.1c-1.9,0-2.9-1.3-3.1-3.1L122.4,21.8
	L122.4,21.8z"/>
<path class="st0" d="M135.8,28.3h-7.2l-5.2-15.8h6.4l2.5,9.6h0.1l2.5-9.6h6.2L135.8,28.3z"/>
<path class="st0" d="M143.3,12.5h6v15.8h-6V12.5z M149.4,10.8h-6V6.6h6V10.8z"/>
<path class="st0" d="M162.1,17.1c0-0.5-0.3-0.9-0.7-1.2c-0.4-0.3-0.9-0.5-1.3-0.5c-0.9,0-1.8,0.2-1.8,1.2c0,0.5,0.4,0.7,0.7,0.8
	c1,0.4,3.3,0.5,5.3,1.2c2,0.6,3.8,1.8,3.8,4.4c0,4.4-4.2,5.6-8.1,5.6c-3.8,0-7.8-1.5-7.9-5.6h5.8c0,0.6,0.3,1,0.7,1.4
	c0.3,0.3,0.9,0.5,1.6,0.5c0.8,0,2-0.3,2-1.2s-0.5-1.2-3.3-1.7c-4.6-0.8-6.5-2.3-6.5-5c0-4,4.3-5,7.5-5c3.4,0,7.5,0.9,7.7,5
	L162.1,17.1L162.1,17.1z"/>
<path class="st0" d="M181.1,22.7c-0.1,1.6-1.2,2.5-2.5,2.5c-1.1,0-1.9-0.7-1.9-1.5c0-1.1,0.7-1.4,2-1.7c0.8-0.2,1.7-0.4,2.4-0.8
	V22.7z M186.9,18.3c0-3,0.1-6.2-7.5-6.2c-3.8,0-8,0.7-8.2,5.2h5.6c0-0.7,0.4-1.6,2.3-1.6c1,0,2,0.4,2,1.5c0,1-0.8,1.2-1.6,1.4
	c-3.1,0.6-9,0.4-9,5.4c0,3.3,2.5,4.8,5.6,4.8c1.9,0,3.8-0.4,5.1-1.9h0.1c0,0.4,0.1,1.1,0.2,1.5h6.2c-0.7-1-0.7-2.3-0.7-3.5V18.3
	L186.9,18.3z"/>
<path class="st0" d="M25.5,0c-3.2,0-6.2,0.5-8.9,1.2h17.8C31.7,0.5,28.7,0,25.5,0z"/>
<path class="st0" d="M11.1,3.4c-0.9,0.4-1.8,0.9-2.6,1.4h8.5c0.7-0.5,1.5-1,2.4-1.4H11.1z"/>
<path class="st0" d="M42.5,4.8c-0.8-0.5-1.7-1-2.6-1.4h-8.2c0.8,0.4,1.6,0.9,2.4,1.4H42.5L42.5,4.8z"/>
<path class="st0" d="M47.7,8.8C47,8,46.1,7.3,45.2,6.6H36c0.6,0.7,1.2,1.4,1.7,2.2H47.7L47.7,8.8z"/>
<path class="st0" d="M5.8,6.6C4.9,7.3,4,8,3.3,8.8h10.2c0.5-0.8,1-1.5,1.7-2.2H5.8z"/>
<path class="st0" d="M2,10.4c-0.7,1-1.3,2.1-1.6,3.2h11.3c0.2-1.1,0.5-2.2,1-3.2H2z"/>
<path class="st0" d="M50.7,13.6c-0.3-1.1-0.9-2.2-1.6-3.2H38.4c0.4,1,0.8,2.1,1,3.2H50.7z"/>
<path class="st0" d="M11.5,14.9H0.1C0,15.3,0,15.6,0,16c0,0.8,0.1,1.6,0.3,2.3h11.3c-0.1-0.8-0.2-1.5-0.2-2.3
	C11.4,15.6,11.4,15.3,11.5,14.9z"/>
<path class="st0" d="M39.4,18.3h11.3c0.2-0.7,0.3-1.5,0.3-2.3c0-0.4,0-0.7-0.1-1.1H39.6c0,0.3,0,0.7,0,1.1
	C39.6,16.8,39.5,17.6,39.4,18.3z"/>
<path class="st0" d="M0.7,19.5c0.5,1.3,1.4,2.4,2.4,3.6h10.2c-0.6-1.1-1.1-2.3-1.5-3.6H0.7z"/>
<path class="st0" d="M47.9,23c1-1.1,1.9-2.3,2.4-3.6H39.2c-0.3,1.3-0.8,2.5-1.5,3.6H47.9z"/>
<path class="st0" d="M32.3,28.3h8.3c0.9-0.4,1.7-0.9,2.5-1.4c1.4-0.9,2.7-1.8,3.8-2.9h-9.9C35.9,25.8,34.2,27.2,32.3,28.3L32.3,28.3
	z"/>
<path class="st0" d="M13.9,24H4.1c1.1,1,2.4,2,3.8,2.9c0.8,0.5,1.6,1,2.5,1.4h8.3C16.8,27.2,15.2,25.8,13.9,24L13.9,24z"/>
<path class="st0" d="M19.8,28.8h-8.3c4,1.9,8.7,3.2,14.1,3.2s10.1-1.3,14.1-3.2h-8.3c-1.8,0.8-3.7,1.2-5.7,1.2
	C23.5,30,21.5,29.6,19.8,28.8z"/>
</svg>
