<svg width="152" height="25" xmlns="http://www.w3.org/2000/svg"><g fill-rule="nonzero" fill="none"><path d="M22.7 1.3v11.1c-4.3 1.5-8.9 1.2-13 1.2V0c6.3 0 11.7.3 13 1.3" fill="#00C473"/><path d="M22.719355 12.823116c0 6.2-5 11.2-11.2 11.2h-.3c-1.3-1.7-1.5-5.3-1.5-9.6 4.3 0 10-.1 13-1.6" fill="#1D1DEB"/><path d="M10.7 24.023116c-5.9-.4-10.5-5.3-10.5-11.2 1.7 1 6.7 1.6 8.6 1.7.1 3.5.5 7.8 1.9 9.5" fill="#ED1C24"/><path d="M9.1 5.7v6.5c-1.4 1-3.6 1-5.5.9C3.6 7 .2 3.4.2 2.1c0-.2.2-.4.4-.4 1.5 0 5.7.6 8.5 4" fill="#C626B6"/><path d="M3 13.1c-1-.1-1.9-.4-2.7-.7V3.6C1 5.8 3 8.1 3 13.1" fill="#C626B6"/><path fill="#6D6D6D" d="M54.1 17h-2.6V7h2.6zM71.3 17h-2.7V7h2.7zM86.2 17h-2.7V7h2.7zM42 17v-5.5c0-1.4 1-2.2 2.2-2.2 1.2 0 2.2.9 2.2 2.2V17H49v-5.4c0-2.5-1.8-4.7-4.8-4.7-3.3 0-4.9 2.2-4.9 4.7V17H42zM103.3 17v-5.5c0-1.4 1-2.2 2.2-2.2 1.2 0 2.2.9 2.2 2.2V17h2.7v-5.4c0-2.5-1.8-4.7-4.8-4.7-3.3 0-4.9 2.2-4.9 4.7V17h2.6zM61.4 13.1L64.1 7h2.8l-4.6 10h-1.9L55.9 7h2.7zM74.7 14c.7.6 1.7 1 2.7 1 .7 0 1.3-.3 1.3-.8 0-1.5-4.8-1-4.8-4.2 0-1.9 1.8-3.1 3.8-3.1 1.3 0 2.7.5 3.4 1l-1.2 1.9c-.5-.4-1.2-.7-1.9-.7s-1.4.3-1.4.8c0 1.3 4.8.8 4.8 4.2 0 1.9-1.9 3.1-4 3.1-1.4 0-2.8-.5-4-1.3l1.3-1.9zM93.4 14.7c1.6 0 2.6-1.2 2.6-2.7 0-1.5-1.1-2.7-2.6-2.7-1.6 0-2.6 1.2-2.6 2.7 0 1.5 1.1 2.7 2.6 2.7m0-7.9c3 0 5.3 2.3 5.3 5.2 0 2.9-2.3 5.2-5.3 5.2s-5.3-2.3-5.3-5.2c0-2.8 2.3-5.2 5.3-5.2M34.4 7v5.5c0 1.4-1 2.2-2.2 2.2-1.2 0-2.2-1-2.2-2.2V7h-2.7v5.4c0 2.5 1.8 4.7 4.8 4.7 3.3 0 4.9-2.2 4.9-4.7V7h-2.6z"/><path d="M113 17.3V7.4h1.3l5.5 6.5V7.4h1.9v9.9h-1.3l-5.5-6.5v6.5H113zm17-8.2h-4v2.1h3v1.7h-3v2.8h4.2v1.7h-6.1v-10h5.9v1.7zm4.2 8.2l-3.3-9.9h1.9l2.1 6.2 2.2-6.2h1.3l2.2 6.2 2.1-6.2h1.9l-3.3 9.9H140l-2.2-6.3-2.2 6.3h-1.4zm10.6-1.3l1.2-1.3c.6.6 1.4 1.1 2.3 1.1.8 0 1.4-.5 1.4-1.2 0-1.3-1.8-1.4-3.2-2.2-.8-.5-1.4-1.1-1.4-2.3 0-1.8 1.6-2.8 3.3-2.8 1 0 1.9.2 2.9.9l-1 1.4c-.4-.4-1.1-.7-1.7-.7-.7 0-1.5.3-1.5 1.1 0 1.6 4.6 1.1 4.6 4.4 0 1.8-1.6 3-3.4 3-1.2 0-2.5-.5-3.5-1.4z" fill="#929292"/></g></svg>
