<svg width="199" height="28" xmlns="http://www.w3.org/2000/svg" xmlns:xlink="http://www.w3.org/1999/xlink"><defs><path id="a" d="M0 .558h22.511V27.14H0z"/></defs><g fill="none" fill-rule="evenodd"><path fill="#FFF" d="M55.054 19.387h-2.752V9.132h2.752zM72.707 19.387h-2.752V9.132h2.752zM88.086 19.387h-2.752V9.132h2.752zM42.54 19.387v-5.673c0-1.406 1.06-2.246 2.253-2.246 1.269 0 2.268.98 2.268 2.246v5.673h2.748V13.82c0-2.599-1.81-4.9-4.954-4.9-3.385 0-5.073 2.287-5.073 4.9v5.568h2.757zM105.706 19.387v-5.673c0-1.406 1.061-2.246 2.253-2.246 1.268 0 2.268.98 2.268 2.246v5.673h2.747V13.82c0-2.599-1.808-4.9-4.955-4.9-3.383 0-5.07 2.287-5.07 4.9v5.568h2.757zM62.5 15.394l2.813-6.262h2.862l-4.719 10.254h-1.902l-4.72-10.254h2.855zM76.249 16.26c.698.633 1.778 1.014 2.81 1.014.742 0 1.312-.36 1.312-.866 0-1.54-4.968-.991-4.968-4.295 0-1.969 1.903-3.193 3.932-3.193 1.336 0 2.792.504 3.471 1.034l-1.287 1.99c-.531-.381-1.229-.695-1.97-.695-.759 0-1.396.292-1.396.82 0 1.334 4.97.803 4.97 4.361 0 1.963-1.922 3.171-4.08 3.171-1.417 0-2.922-.49-4.123-1.377l1.329-1.963zM95.524 17.06c1.61 0 2.706-1.25 2.706-2.787 0-1.547-1.097-2.814-2.706-2.814-1.604 0-2.71 1.267-2.71 2.814 0 1.537 1.106 2.788 2.71 2.788m0-8.14c3.11 0 5.451 2.389 5.451 5.352 0 2.962-2.341 5.33-5.451 5.33-3.11 0-5.465-2.368-5.465-5.33 0-2.963 2.355-5.353 5.465-5.353M34.78 9.132v5.674c0 1.405-1.07 2.25-2.266 2.25-1.263 0-2.266-.988-2.266-2.25V9.132H27.5v5.57c0 2.592 1.805 4.9 4.955 4.9 3.381 0 5.073-2.287 5.073-4.9v-5.57H34.78z"/><g transform="translate(0 .412)"><mask id="b" fill="#fff"><use xlink:href="#a"/></mask><path d="M21.609.876l-.077-.318H.98L.902.876C.466 2.693 0 5.829 0 9.18c0 1.84.122 3.453.375 4.944l.1.481-.006.003.097.426c.632 2.864 1.792 5.191 3.544 7.118.033.036.808.894 1.133 1.184.217.214.413.397.61.566 1.389 1.121 3.098 2.154 5.226 3.156l.177.083.177-.083c2.128-1.002 3.837-2.035 5.235-3.164.187-.16.383-.344.585-.544.34-.304 1.116-1.162 1.147-1.197 1.754-1.928 2.913-4.255 3.545-7.117l.194-.927c.25-1.476.372-3.088.372-4.93 0-3.35-.466-6.486-.902-8.303" fill="#E1E1E1" mask="url(#b)"/></g><path d="M8.852 10.372a9.523 9.523 0 0 1-.207-.236L4.642 12.78.937 15.23l.034.149c.617 2.79 1.744 5.055 3.447 6.927 0 0 .636.704 1.002 1.058l3.97-2.624c.007-.737.027-1.777.044-2.72.021-1.173.04-2.198.033-2.304a8.99 8.99 0 0 0 .729-.012V9.483l-1.344.89z" fill="#FF161F"/><path d="M21.29 1.777L11.172 8.465c-.12-.096-.255-.181-.384-.27.104.42.187.703.236.741l-.827.547v6.222h.005c.077.154.806 1.873 1.496 3.513l10.285-6.799a33.01 33.01 0 0 0 .114-2.805c0-3.1-.4-6-.805-7.837" fill="#00C56E"/><path d="M10.696 7.81l9.687-6.404H1.306C.874 3.21.416 6.296.416 9.614c0 1.773.115 3.331.35 4.758l7.348-4.856.3-.199c.196.195.419 1.036.438 1.056l2.171-1.436c-.048-.039-.327-1.127-.327-1.127" fill="#E621BB"/><path d="M12.015 19.978l-.27.18c-.2-.166-.43-.333-.717-.499l.668-.44c-.689-1.642-1.418-3.36-1.495-3.514 0 0-.153.01-.382.012-.23.004-.352 0-.352 0 .014.19-.061 3.368-.077 5.025h.001c.154.199.321.42.519.628l-.512.337-3.37 2.229c.029.023.058.053.086.075 1.36 1.102 3.044 2.117 5.141 3.103h.001c2.098-.986 3.78-2.001 5.141-3.103.18-.153.369-.33.58-.537.328-.293 1.117-1.167 1.117-1.167 1.703-1.871 2.83-4.138 3.447-6.927l.04-.177.149-.73c.056-.33.103-.667.146-1.013l-9.86 6.518z" fill="#1717EF"/><path d="M18.637 14.023l-.004-6.586c-.863-.64-4.38-.84-8.438-.842l.008 8.436c2.782 0 7.28-.285 8.434-1.008M18.634 14.632c-.028 4.069-3.26 7.292-7.287 7.294-.056 0-.111-.004-.164-.003-.843-1.167-.98-3.346-.982-6.218 2.982-.025 6.743-.12 8.433-1.073M10.647 21.917c-3.785-.272-6.745-3.364-6.773-7.276 1.067.65 4.124 1.056 5.593 1.076.012 2.375.291 5.072 1.18 6.2M9.502 15.03l.11-5.152C7.791 7.691 5.096 7.295 4.16 7.296a.284.284 0 0 0-.287.283l.001.013V7.59v6.638c2.011.667 4.802.781 5.627.802" fill="#EFEFEF"/><path d="M123.449 14.26c0-1.833-1.257-3.12-3.12-3.12h-1.759v6.24h1.76c1.862 0 3.119-1.256 3.119-3.091v-.028zm-3.12 5.176h-4.036V9.086h4.036c3.253 0 5.5 2.232 5.5 5.145v.03c0 2.913-2.247 5.175-5.5 5.175zM127.855 19.436V9.086h7.805v2.026h-5.544v2.098h4.88v2.026h-4.88v2.173h5.62v2.027zM143.644 12.708c0-1.021-.71-1.567-1.849-1.567h-1.758v3.164h1.803c1.139 0 1.804-.682 1.804-1.568v-.029zm-1.878 3.62h-1.73v3.108h-2.277V9.086h4.23c2.468 0 3.962 1.463 3.962 3.578v.029c0 2.397-1.863 3.636-4.185 3.636zM155.796 14.26c0-1.773-1.3-3.251-3.134-3.251-1.834 0-3.105 1.447-3.105 3.222v.03c0 1.773 1.301 3.25 3.135 3.25 1.833 0 3.104-1.447 3.104-3.222v-.028zm-3.134 5.352c-3.194 0-5.485-2.38-5.485-5.323v-.028c0-2.943 2.32-5.352 5.515-5.352 3.193 0 5.484 2.38 5.484 5.322v.03c0 2.942-2.32 5.351-5.514 5.351zM166.53 12.62c0-.977-.68-1.478-1.788-1.478h-2.262v2.97h2.306c1.109 0 1.744-.591 1.744-1.464v-.029zm-.044 6.816l-2.218-3.313h-1.788v3.313h-2.277V9.086h4.73c2.44 0 3.903 1.286 3.903 3.414v.03c0 1.671-.9 2.72-2.217 3.208l2.529 3.698h-2.662zM175.577 11.185v8.251H173.3v-8.25h-3.148v-2.1h8.574v2.1zM180.47 19.436V9.086h7.807v2.026h-5.544v2.098h4.879v2.026h-4.879v2.173h5.617v2.027zM194.058 19.583a6.583 6.583 0 0 1-4.39-1.656l1.345-1.61c.93.769 1.906 1.257 3.09 1.257.93 0 1.491-.371 1.491-.977v-.03c0-.578-.354-.873-2.083-1.317-2.084-.532-3.43-1.107-3.43-3.162v-.031c0-1.877 1.508-3.118 3.622-3.118 1.508 0 2.794.473 3.844 1.315l-1.182 1.715c-.917-.636-1.819-1.02-2.691-1.02-.874 0-1.332.4-1.332.901v.03c0 .68.445.902 2.234 1.361 2.099.547 3.28 1.301 3.28 3.103v.03c0 2.057-1.566 3.21-3.798 3.21" fill="#C5C2C3"/></g></svg>