<svg width="144" height="29" xmlns="http://www.w3.org/2000/svg"><path d="M69.63 20.91h-3.5V7.87h3.5v13.04zm22.44 0h-3.5V7.87h3.5v13.04zm19.56 0h-3.5V7.87h3.5v13.04zm-57.92 0h-3.5v-7.08c0-3.32 2.15-6.23 6.45-6.23 4 0 6.3 2.93 6.3 6.23v7.08h-3.5v-7.2a2.84 2.84 0 0 0-2.88-2.87 2.77 2.77 0 0 0-2.87 2.86v7.21zm80.32 0h-3.5v-7.08c0-3.32 2.14-6.23 6.44-6.23 4 0 6.3 2.93 6.3 6.23v7.08h-3.49v-7.2a2.84 2.84 0 0 0-2.88-2.87 2.77 2.77 0 0 0-2.87 2.86v7.21zM79.1 15.84l3.57-7.97h3.64l-6 13.04H77.9l-6-13.04h3.63l3.58 7.97zm17.48 1.1a5.5 5.5 0 0 0 3.57 1.29c.94 0 1.67-.46 1.67-1.1 0-1.96-6.32-1.27-6.32-5.47 0-2.5 2.42-4.06 5-4.06 1.7 0 3.55.65 4.42 1.32l-1.64 2.53a4.42 4.42 0 0 0-2.5-.88c-.97 0-1.78.37-1.78 1.04 0 1.7 6.32 1.02 6.32 5.54 0 2.5-2.45 4.04-5.19 4.04-1.8 0-3.71-.63-5.24-1.76l1.69-2.5zm24.5 1.02c2.05 0 3.45-1.6 3.45-3.55 0-1.97-1.4-3.58-3.44-3.58s-3.45 1.61-3.45 3.58c0 1.96 1.4 3.55 3.45 3.55zm0-10.36a6.79 6.79 0 1 1 0 13.59 6.78 6.78 0 0 1-6.94-6.78c0-3.77 3-6.8 6.95-6.8zm-77.23.27h3.5v7.09c0 3.32-2.16 6.23-6.46 6.23-4 0-6.3-2.94-6.3-6.23V7.87h3.5v7.22c0 1.6 1.27 2.86 2.88 2.86a2.79 2.79 0 0 0 2.88-2.86V7.87zm-16.83 6.19c-2.06 1.29-10.1 1.8-15.07 1.8L11.93.8c7.25 0 13.54.36 15.08 1.5v11.77zm0 1.49A13.01 13.01 0 0 1 14 28.58h-.3c-1.5-2.09-1.75-5.98-1.75-11.11 5.33-.05 12.05-.22 15.07-1.92zM12.1 28.56a13 13 0 0 1-12.1-13c1.9 1.17 7.37 1.9 10 1.93.01 4.24.51 9.06 2.1 11.07zM10.25 6.37v.14l-.2 9.2C8.58 15.69 3.6 15.48 0 14.29V2.3v-.03c0-.28.23-.5.51-.5 1.67 0 6.49.7 9.74 4.61z" fill="#FFF" fill-rule="evenodd"/></svg>