<?xml version="1.0" encoding="utf-8"?>
<!-- Generator: Adobe Illustrator 27.9.0, SVG Export Plug-In . SVG Version: 6.00 Build 0)  -->
<svg version="1.1" id="Capa_1" xmlns="http://www.w3.org/2000/svg" xmlns:xlink="http://www.w3.org/1999/xlink" x="0px" y="0px"
	 viewBox="0 0 147 32" style="enable-background:new 0 0 147 32;" xml:space="preserve">
<style type="text/css">
	.st0{clip-path:url(#SVGID_00000173854193746370069630000002287750272015904664_);}
	.st1{clip-path:url(#SVGID_00000030486519966254398610000014072556077503893666_);}
	.st2{fill:#FFFFFF;}
</style>
<g>
	<defs>
		<rect id="SVGID_1_" width="146.3" height="32"/>
	</defs>
	<clipPath id="SVGID_00000181797782954970219300000016552654590395840417_">
		<use xlink:href="#SVGID_1_"  style="overflow:visible;"/>
	</clipPath>
	<g style="clip-path:url(#SVGID_00000181797782954970219300000016552654590395840417_);">
		<g>
			<defs>
				<rect id="SVGID_00000057116305035113900380000017114996702334362039_" width="33" height="32"/>
			</defs>
			<clipPath id="SVGID_00000144322295714894665840000003884881536279602582_">
				<use xlink:href="#SVGID_00000057116305035113900380000017114996702334362039_"  style="overflow:visible;"/>
			</clipPath>
			<g style="clip-path:url(#SVGID_00000144322295714894665840000003884881536279602582_);">
				<path class="st2" d="M16.3,14.4h0.2l0.2,0l0.8-1.5L16.7,0.1v0c0-0.1,0-0.1-0.1-0.1c-0.1,0-0.1,0.1-0.1,0.1v0l-1,12.5L16.3,14.4z
					"/>
				<path class="st2" d="M28.2,4.7c-0.1-0.1-0.2,0-0.2,0l0,0l-9.8,8.2l-0.7,1.8l0.1,0.1l0.2,0.1l1.7-0.5l8.6-9.6l0,0
					C28.2,4.8,28.3,4.7,28.2,4.7z"/>
				<path class="st2" d="M33,16c0-0.1-0.1-0.1-0.1-0.1h0L20,15l-1.9,0.9V16l0,0.3l1.5,0.8l13.1-0.9h0L33,16z"/>
				<path class="st2" d="M28.2,27.1l-8.4-9.4l-2-0.7l-0.1,0.1l-0.2,0.2l0.5,1.6l10,8.4l0,0h0.2L28.2,27.1z"/>
				<path class="st2" d="M16.6,17.5h-0.1l-0.2,0l-0.8,1.5l0.9,12.7v0c0,0.1,0,0.1,0.1,0.1s0.1-0.1,0.1-0.1v0l0.9-12.4L16.6,17.5z"/>
				<path class="st2" d="M15.5,17.2L15.5,17.2L15.2,17l-1.8,0.5l-8.6,9.6l0,0v0.2H5l0,0l9.7-8.1L15.5,17.2z"/>
				<path class="st2" d="M14.9,16.1v-0.3l-1.7-0.9L0.2,15.9h0C0,15.9,0,15.9,0,16s0.1,0.1,0.1,0.1h0L13,17L14.9,16.1z"/>
				<path class="st2" d="M15.2,15l0.2-0.1l0.2-0.1L15,13L5,4.7l0,0H4.8v0.2l0,0l8.4,9.4L15.2,15z"/>
			</g>
		</g>
		<path class="st2" d="M73.3,21.7c1.1,0,2.2-0.2,3.5-0.5l0.5,2c-1.3,0.4-2.8,0.7-4.1,0.7c-3.6,0-4.7-1.6-4.7-4.2v-2.9
			c0-2.3,1.1-4.2,4.7-4.2c3.6,0,4.4,2,4.4,4.4v2.3h-6.3v0.5C71.1,21.3,71.6,21.7,73.3,21.7z M71.1,17.1h3.6v-0.5
			c0-1.1-0.4-1.8-1.7-1.8c-1.4,0-1.9,0.7-1.9,1.8L71.1,17.1L71.1,17.1z M83.2,24c-1.2,0-2.8-0.3-3.9-0.6l0.4-2.1
			c0.9,0.3,2.2,0.4,3.4,0.4c1.3,0,1.5-0.3,1.5-1.1c0-0.7-0.2-1-2-1.4c-2.7-0.6-3.1-1.3-3.1-3.4c0-2.2,1-3.2,4.2-3.2
			c1,0,2.4,0.2,3.4,0.4l-0.3,2.2c-0.8-0.2-2.2-0.4-3.1-0.4c-1.2,0-1.5,0.3-1.5,1c0,0.9,0.1,1,1.6,1.3c3.1,0.8,3.5,1.2,3.5,3.4
			C87.2,22.7,86.6,24,83.2,24z M95.8,23.6C95,23.8,94.2,24,93.3,24c-2.1,0-3.1-1-3.1-2.9V15h-1.7v-2.2h1.7V10l2.8-0.4v3.1H96
			L95.8,15h-2.7v5.7c0,0.6,0.3,1,1,1l1.4-0.3L95.8,23.6z M103.5,15.2c-1.1,0.4-2,1-3,1.6v7.1h-2.8v-11h2.4l0.2,1.2
			c0.6-0.4,2-1.1,2.9-1.4L103.5,15.2z M109.7,21.7c1.1,0,2.2-0.2,3.5-0.5l0.5,2c-1.3,0.4-2.8,0.7-4.1,0.7c-3.6,0-4.7-1.6-4.7-4.2
			v-2.9c0-2.3,1.1-4.2,4.7-4.2c3.6,0,4.4,2,4.4,4.4v2.3h-6.3v0.5C107.6,21.3,108,21.7,109.7,21.7z M107.6,17.1h3.6v-0.5
			c0-1.1-0.4-1.8-1.7-1.8c-1.4,0-1.9,0.7-1.9,1.8L107.6,17.1L107.6,17.1z M116.1,23.7V8.4L119,8v15.7H116.1z M122,23.7V8.4l2.8-0.4
			v15.7H122z M136.1,23.7h-2.3l-0.2-0.7c-1,0.6-2.2,1-3.4,1c-2.1,0-2.9-1.3-2.9-3.3c0-2.2,1-3.1,3.3-3.1h2.7v-1.1
			c0-1.2-0.4-1.7-2.2-1.7c-1,0-2.1,0.2-3.1,0.4l-0.4-2.1c1.1-0.4,2.6-0.5,3.8-0.5c3.6,0,4.6,1.2,4.6,4V23.7z M133.3,19.7h-2.1
			c-0.9,0-1.2,0.3-1.2,1.1c0,0.8,0.3,1.1,1.1,1.1c0.8,0,1.6-0.3,2.1-0.5L133.3,19.7L133.3,19.7z M142.4,24c-1.2,0-2.8-0.3-3.9-0.6
			l0.4-2.1c0.9,0.3,2.2,0.4,3.4,0.4c1.3,0,1.5-0.3,1.5-1.1c0-0.7-0.2-1-2-1.4c-2.7-0.6-3.1-1.3-3.1-3.4c0-2.2,1-3.2,4.2-3.2
			c1,0,2.4,0.2,3.4,0.4l-0.3,2.2c-0.8-0.2-2.2-0.4-3.1-0.4c-1.2,0-1.5,0.3-1.5,1c0,0.9,0.1,1,1.6,1.3c3.1,0.8,3.5,1.2,3.5,3.4
			C146.5,22.7,145.8,24,142.4,24z M37.4,23.7V8.4L40.3,8v15.7H37.4z M51.6,23.7h-2.3L49.1,23c-1,0.6-2.2,1-3.4,1
			c-2.1,0-2.9-1.3-2.9-3.3c0-2.2,1-3.1,3.3-3.1h2.7v-1.1c0-1.2-0.4-1.7-2.2-1.7c-1,0-2.1,0.2-3.1,0.4L43.2,13
			c1.1-0.4,2.6-0.5,3.8-0.5c3.6,0,4.6,1.2,4.6,4V23.7z M48.7,19.7h-2.1c-0.9,0-1.2,0.3-1.2,1.1c0,0.8,0.3,1.1,1.1,1.1
			c0.8,0,1.6-0.3,2.1-0.5L48.7,19.7L48.7,19.7z M57.9,24c-1.2,0-2.8-0.3-3.9-0.6l0.4-2.1c0.9,0.3,2.2,0.4,3.4,0.4
			c1.3,0,1.5-0.3,1.5-1.1c0-0.7-0.2-1-2-1.4c-2.7-0.6-3.1-1.3-3.1-3.4c0-2.2,1-3.2,4.2-3.2c1,0,2.4,0.2,3.4,0.4l-0.3,2.2
			c-0.8-0.2-2.2-0.4-3.1-0.4c-1.2,0-1.5,0.3-1.5,1c0,0.9,0.1,1,1.6,1.3c3.1,0.8,3.5,1.2,3.5,3.4C61.9,22.7,61.2,24,57.9,24z"/>
	</g>
</g>
</svg>
