<svg width="150" height="27" xmlns="http://www.w3.org/2000/svg" xmlns:xlink="http://www.w3.org/1999/xlink"><defs><path id="a" d="M2.386 0H.022v12.661h2.364V0z"/><path id="c" d="M19.886 0H0v19.829h19.886V0z"/><path id="e" d="M61.112 18.29V.043H.025V18.29z"/></defs><g fill="none" fill-rule="evenodd"><path d="M10.751 5.024H8.388v.9h2.363v-.9zm0 1.334H8.388v.9h2.363v-.9zm0 1.334H8.388v.901h2.363v-.901zm-.738 4.903h.738v-.9H9.115c.225.316.518.624.898.9zm.738-2.668v-.9H8.388v.343c0 .144.008.335.039.557h2.324zm-2.242.434h2.242v.9h-1.9a3.94 3.94 0 0 1-.342-.9z" fill="#FFF" fill-rule="nonzero"/><g transform="translate(11.457 1.021)"><mask id="b" fill="#fff"><use xlink:href="#a"/></mask><path d="M2.386 12.008H.022v.284c.646.205 1.426.338 2.364.37v-.654zm0-5.338H.022v.902H2.386V6.67zm0-1.334H.022v.901H2.386v-.9zm0 2.67H.022v.9H2.386v-.9zm0 2.667H.022v.9H2.386v-.9zm0-9.339H.022v.902H2.386v-.902zm0-1.334H.022v.902H2.386V0zm0 2.67H.022v.9H2.386v-.9zm0 6.67H.022v.9H2.386v-.9zm0-4.438H.022v-.9h2.364v.9z" fill="#FFF" fill-rule="nonzero" mask="url(#b)"/></g><path d="M16.936 7.692h-2.364v.901H16.936v-.901zm0 4.003h-2.364v.9H16.936v-.9zm0-1.334h-2.364v.9H16.936v-.9zm0-1.334h-2.364v.9H16.936v-.9zm0 4.26c-.713.259-1.362.368-2.364.397v-.654h2.364v.257zM20.028 7.692h-2.365v.901h2.365v-.901zm0 1.335h-2.365v.9h2.365v-.9zm0-5.336h-2.365v.9h2.365v-.9zm0 1.333h-2.365v.9h2.365v-.9zm0 6.071v-.734h-2.365v.9h2.201c.065-.062.117-.118.164-.166zm0-4.737h-2.365v.9h2.365v-.9zM18.3 12.595h-.637v-.9h1.76c-.374.337-.702.621-1.123.9z" fill="#FFF" fill-rule="nonzero"/><g transform="translate(.064 1.021)"><mask id="d" fill="#fff"><use xlink:href="#c"/></mask><path d="M7.595 5.311C7.595 1.358 2.51 0 .391 0A.388.388 0 0 0 0 .386v9.529c0 5.475 4.47 9.914 9.982 9.914 5.073 0 9.29-3.784 9.904-8.674-1.271 1.287-3.273 2.236-5.693 2.236-5.391 0-6.598-3.159-6.598-5.043V5.311z" fill="#FFF" fill-rule="nonzero" mask="url(#d)"/></g><g transform="translate(23.966 1.77)"><mask id="f" fill="#fff"><use xlink:href="#e"/></mask><path d="M45.082.043c-1.168 0-2.109.887-2.109 2.047 0 1.16.94 2.05 2.109 2.05 1.165 0 2.111-.89 2.111-2.05 0-1.16-.946-2.047-2.111-2.047zm-1.614 8.88v9.121H46.7V6.079h-3.232v2.845zm11.42-3.09c-3.68 0-6.247 2.818-6.247 6.264 0 3.42 2.617 6.193 5.818 6.193a5.48 5.48 0 0 0 2.086-.404v-2.94a2.928 2.928 0 0 1-1.657.526c-1.72 0-3.112-1.457-3.112-3.35 0-1.967 1.392-3.424 3.112-3.424 1.72 0 3.112 1.527 3.112 3.424v5.922h3.112v-5.947c0-3.446-2.57-6.265-6.224-6.265zm-19.675 5.693v6.518h3.23l-.004-6.891c0-1.61.835-2.239 2.255-2.239h.962V6.079h-.962c-3.452 0-5.48 1.527-5.48 5.447zm-21.334-5.8v12.318h3.23V8.791h3.217V6.08h-3.218v-.726c0-1.61.834-2.237 2.255-2.237h.963V.28h-.963c-3.455 0-5.484 1.524-5.484 5.445zm-5.302 6.969c0 1.643-1.255 2.627-2.663 2.627-1.48 0-2.66-1.154-2.66-2.627V6.074H.023v6.498c0 3.028 2.124 5.718 5.824 5.718 3.974 0 5.957-2.665 5.957-5.718V6.074H8.577v6.621zm21.949-.621c0-1.8-1.292-3.283-3.179-3.283-1.89 0-3.179 1.482-3.179 3.283 0 1.8 1.29 3.257 3.18 3.257 1.886 0 3.178-1.457 3.178-3.257zm3.228 0c0 3.452-2.757 6.216-6.407 6.216s-6.41-2.764-6.41-6.216c0-3.454 2.76-6.244 6.41-6.244 3.65 0 6.407 2.79 6.407 6.244z" fill="#FFF" fill-rule="nonzero" mask="url(#f)"/></g><path d="M94.217 13.995h-1.485v6.083h-1.856V7.175h4.548c1.188 0 1.93.277 2.525.756a3.404 3.404 0 0 1 1.281 2.654c0 1.07-.501 2.028-1.281 2.655a3.133 3.133 0 0 1-1.522.682l4.66 6.156H98.84l-4.623-6.083zm-1.485-1.75h2.6c.835 0 1.262-.185 1.559-.48.297-.295.482-.719.482-1.18 0-.46-.185-.885-.482-1.18-.297-.294-.724-.479-1.56-.479h-2.599v3.318zm19.894 7.833l-1.374-3.318h-5.477l-1.355 3.318h-1.93l5.383-12.903h1.3l5.384 12.903h-1.931zm-4.103-9.861l-2.005 4.792h4.01l-2.005-4.792zm17.926 3.41c0-1.438-.594-2.747-1.578-3.613-.817-.7-1.894-1.088-3.713-1.088h-1.95v9.401h1.95c1.82 0 2.896-.387 3.713-1.087.984-.867 1.578-2.175 1.578-3.613zm-5.198 6.451h-3.9V7.175h3.9c2.06 0 3.397.443 4.455 1.217 1.597 1.18 2.6 3.096 2.6 5.235 0 2.138-.985 4.055-2.581 5.235-1.058.774-2.414 1.216-4.474 1.216zm10.406 0h1.857V7.175h-1.857v12.903zm5.209-6.451c0-3.76 2.822-6.636 6.498-6.636s6.498 2.875 6.498 6.636c0 3.76-2.822 6.636-6.498 6.636s-6.498-2.876-6.498-6.636zm1.857 0c0 2.802 1.986 4.885 4.64 4.885 2.656 0 4.642-2.083 4.642-4.885 0-2.784-1.986-4.885-4.641-4.885-2.655 0-4.641 2.101-4.641 4.885z" fill="#D2D2D2" fill-rule="nonzero"/></g></svg>
