<svg width="196" height="24" xmlns="http://www.w3.org/2000/svg" xmlns:xlink="http://www.w3.org/1999/xlink"><defs><path id="a" d="M.07.24h7.75v11.4H.07z"/><path id="c" d="M.24.2h12.59v12.34H.23z"/><path id="e" d="M0 .28h8.53v11.61H0z"/></defs><g fill="none" fill-rule="evenodd"><path fill="#FFF" d="M128.44 8.58v2.3h3.4v1.9h-3.4v4.98h-2.14V6.68h6.65v1.9zM135.84 13.4h2.82l-1.41-3.27-1.4 3.28zm-4.08 4.36l4.75-11.08h1.5l4.75 11.08h-2.23l-1.05-2.45h-4.45L134 17.76h-2.23zM149.17 13.31l4.03-6.63h1.5v11.08h-2.13V11.6l-2.66 4.35h-1.49l-2.66-4.35v6.17h-2.13V6.68h1.5zM161.83 16.02c2.09 0 3.64-1.7 3.64-3.8 0-2.09-1.55-3.8-3.64-3.8a3.68 3.68 0 0 0-3.64 3.8c0 2.1 1.55 3.8 3.64 3.8m0-9.5a5.6 5.6 0 0 1 5.77 5.7 5.6 5.6 0 0 1-5.77 5.7 5.6 5.6 0 0 1-5.78-5.7 5.6 5.6 0 0 1 5.78-5.7M169.23 14.8c.64.7 1.6 1.22 2.61 1.22.95 0 1.62-.59 1.62-1.4 0-1.42-2.06-1.6-3.55-2.46-.87-.5-1.56-1.27-1.56-2.52 0-1.98 1.82-3.12 3.65-3.12 1.13 0 2.17.27 3.22 1.05l-1.11 1.58a2.96 2.96 0 0 0-1.92-.73c-.8 0-1.7.35-1.7 1.2 0 1.8 5.1 1.24 5.1 4.98 0 1.96-1.75 3.32-3.75 3.32a5.9 5.9 0 0 1-4-1.66l1.4-1.46zM182.16 16.02c2.1 0 3.64-1.7 3.64-3.8 0-2.09-1.55-3.8-3.64-3.8a3.68 3.68 0 0 0-3.64 3.8c0 2.1 1.55 3.8 3.64 3.8m0-9.5a5.6 5.6 0 0 1 5.78 5.7 5.6 5.6 0 0 1-5.78 5.7 5.6 5.6 0 0 1-5.77-5.7 5.6 5.6 0 0 1 5.77-5.7"/><g transform="translate(188.1 6.28)"><mask id="b" fill="#fff"><use xlink:href="#a"/></mask><path d="M1.46 8.52c.63.7 1.6 1.22 2.61 1.22.95 0 1.62-.59 1.62-1.4 0-1.42-2.06-1.6-3.55-2.46C1.27 5.37.57 4.6.57 3.36.57 1.38 2.4.24 4.23.24 5.35.24 6.4.51 7.44 1.3l-1.1 1.58a2.96 2.96 0 0 0-1.92-.73c-.8 0-1.71.35-1.71 1.2 0 1.8 5.11 1.24 5.11 4.97 0 1.97-1.75 3.33-3.75 3.33a5.9 5.9 0 0 1-4-1.67l1.39-1.45z" fill="#FFF" mask="url(#b)"/></g><path fill="#FFF" d="M58.12 17.63H55.2V6.74h2.92zM76.85 17.63h-2.92V6.74h2.92zM93.17 17.63h-2.92V6.74h2.92zM44.84 17.63V11.6c0-1.5 1.12-2.39 2.39-2.39 1.34 0 2.4 1.04 2.4 2.39v6.02h2.92v-5.91c0-2.76-1.92-5.2-5.26-5.2-3.59 0-5.38 2.42-5.38 5.2v5.9h2.93zM111.87 17.63V11.6c0-1.5 1.13-2.39 2.4-2.39 1.34 0 2.4 1.04 2.4 2.39v6.02h2.92v-5.91c0-2.76-1.92-5.2-5.26-5.2-3.6 0-5.38 2.42-5.38 5.2v5.9h2.92zM66.02 13.39l2.99-6.65h3.03l-5 10.89h-2.02L60 6.74h3.03zM80.61 14.3a4.6 4.6 0 0 0 2.98 1.08c.8 0 1.4-.38 1.4-.91 0-1.64-5.28-1.06-5.28-4.56 0-2.1 2.02-3.4 4.18-3.4 1.41 0 2.96.54 3.68 1.1L86.2 9.74c-.56-.4-1.3-.74-2.09-.74-.8 0-1.48.31-1.48.87 0 1.42 5.28.85 5.28 4.63 0 2.08-2.04 3.36-4.33 3.36-1.5 0-3.1-.51-4.38-1.46l1.41-2.08zM101.07 15.16c1.7 0 2.87-1.33 2.87-2.96 0-1.64-1.17-2.99-2.87-2.99-1.7 0-2.88 1.35-2.88 2.99a2.85 2.85 0 0 0 2.88 2.96m0-8.64a5.66 5.66 0 1 1 0 11.33c-3.3 0-5.8-2.5-5.8-5.65 0-3.14 2.5-5.68 5.8-5.68M36.6 6.74v6.03a2.33 2.33 0 0 1-2.4 2.38 2.37 2.37 0 0 1-2.4-2.38V6.74h-2.92v5.91c0 2.75 1.91 5.2 5.25 5.2 3.6 0 5.39-2.42 5.39-5.2v-5.9H36.6z"/><g><g transform="translate(9.73 .45)"><mask id="d" fill="#fff"><use xlink:href="#c"/></mask><path d="M12.83 11.03V1.47C11.52.5 6.28.2.22.2l.02 12.34c4.15 0 10.86-.43 12.58-1.51" fill="#FFF" mask="url(#d)"/></g><path d="M11.44 23.8h.25c6 0 10.83-4.85 10.87-10.95-2.52 1.43-8.13 1.57-12.58 1.6 0 4.32.2 7.59 1.46 9.34M0 12.86a10.9 10.9 0 0 0 10.1 10.92c-1.32-1.7-1.74-5.74-1.76-9.3-2.19-.04-6.75-.64-8.34-1.62" fill="#FFF"/><g transform="translate(0 1.1)"><mask id="f" fill="#fff"><use xlink:href="#e"/></mask><path d="M0 .72v9.97c3 1 7.16 1.17 8.4 1.2 0 0 .14-7.93.13-7.94A11.6 11.6 0 0 0 .43.28.43.43 0 0 0 0 .71v.02" fill="#FFF" mask="url(#f)"/></g></g></g></svg>