<svg xmlns="http://www.w3.org/2000/svg" xmlns:xlink="http://www.w3.org/1999/xlink" width="348.272" height="27"><path d="M188.718 25.457s3.386 0 3.386-3.336V3.304s0-3.336-3.386-3.336H86.83v25.49h101.888z"/><path d="M188.718 26.191H86.085V-.791h102.633c1.533-.099 2.975.725 3.649 2.085.314.626.487 1.312.508 2.01v18.8c.081 2.177-1.645 4.007-3.854 4.087-.102.004-.203.004-.303 0zM87.584 24.723h101.134c1.4.075 2.598-.982 2.674-2.362.005-.086.005-.171.001-.257v-18.8c.067-1.38-1.014-2.553-2.415-2.619-.081-.004-.162-.004-.243 0H87.584v24.038z"/><path d="M3.752-.091S.366-.091.366 3.245v18.859s0 3.336 3.386 3.336h101.38V-.091H3.752z"/><path d="M105.894 26.191H3.752C2.208 26.3.753 25.47.078 24.098c-.314-.626-.487-1.312-.508-2.01V3.304C-.516 1.127 1.205-.707 3.415-.792c.112-.004.225-.004.337.001h102.142v26.982zM3.752.677c-1.401-.066-2.591.999-2.658 2.379-.004.083-.004.165 0 .248v18.8c-.067 1.38 1.014 2.553 2.415 2.619.081.004.162.004.243 0h100.635V.677H3.752z"/><path d="M33.288 9.785h3.352v10.276h-3.352zm-16.677.25h3.784c-1.497-3.786-5.825-5.659-9.667-4.184-2.632 1.01-4.46 3.398-4.724 6.169H9.39c.392-2.233 2.547-3.731 4.813-3.345.949.162 1.812.642 2.441 1.36m3.751 5.288h-3.682c-1.454 1.762-4.083 2.028-5.871.595-.807-.647-1.34-1.567-1.494-2.58H6.004c.384 4.045 4.024 7.018 8.129 6.639 2.813-.259 5.236-2.06 6.262-4.654m2.734-9.984h3.352v14.722h-3.352zm5.841 0h11.978V8.45H28.97zm22.061 7.374l-4.326-7.374h-3.86l5.197 8.875v5.847h3.878v-5.947zm1.684.15l4.411-7.524h-3.869l-2.48 4.229zm6.527-7.524h3.352V15.74h-3.352zm0 11.728h9.955v2.994h-9.955zm15.644 2.994l5.443-14.722h-3.564l-5.443 14.722zm8.126 0h3.564l-5.13-13.896-1.761 4.888 1.177 3.186H78.5l-1.168 3.144h4.69zm6.053-14.722h2.904v14.722h-2.904zm9.676 6.99c1.443-1.968.994-4.715-1.002-6.137-.697-.496-1.525-.784-2.384-.827H93.34V8.25h2.362c.846-.001 1.533.675 1.533 1.509.001.834-.685 1.51-1.531 1.511H93.34v2.819h2.362c.846.001 1.532.677 1.531 1.511-.001.833-.686 1.508-1.531 1.509H93.34v2.911h2.709c2.321-.19 4.113-2.092 4.131-4.387-.003-1.198-.509-2.342-1.397-3.161l-.068-.067.059-.075m14.315 6.546h7.052v1.202h-8.338V5.331h1.286zM129.91 5.331l6.459 14.747h-1.287l-1.964-4.446h-7.272l-1.964 4.446h-1.287l6.459-14.747h.856zm-3.547 9.1h6.222l-3.098-7.123-3.124 7.123zm20.164-9.1v1.201h-4.275v13.546h-1.287V6.532h-4.275V5.331zm3.843 0h1.287v14.747h-1.287zm6.739 0h.855l10.048 12.278V5.331h1.286v14.747h-.863L158.387 7.8v12.278h-1.278zm23.11-.209c4.1-.012 7.434 3.253 7.446 7.293 0 .096-.001.192-.005.288 0 4.049-3.331 7.332-7.441 7.332s-7.441-3.282-7.441-7.332c-.15-4.037 3.051-7.43 7.148-7.577.097-.002.195-.004.293-.004m0 13.963c3.427-.024 6.185-2.781 6.16-6.158-.001-.074-.002-.149-.006-.223.126-3.351-2.529-6.169-5.93-6.293-3.401-.124-6.261 2.492-6.387 5.843-.006.15-.006.3 0 .45-.154 3.373 2.496 6.231 5.919 6.383.081.004.162.006.243.006"/><path d="M111.803 5.331h8.338v14.747h-8.338zm10.801 0h13.764v14.747h-13.764zm14.086 0h9.837v14.747h-9.837zm13.68 0h1.287v14.747h-1.287zm6.739 0h12.19v14.747h-12.19zm15.669-.209h14.882v15.164h-14.882z"/><path fill="#FFF" d="M188.838 25.317s3.407 0 3.407-3.359V3.153s0-3.359-3.407-3.359H86.934v25.52h101.904v.003z"/><path fill="none" stroke="#000" stroke-miterlimit="10" stroke-width="1.4818" d="M188.838 25.317s3.407 0 3.407-3.359V3.153s0-3.359-3.407-3.359H86.934v25.52h101.904v.003z"/><path d="M3.835-.204S.428-.204.428 3.153v18.805s0 3.359 3.407 3.359H105.24V-.203H3.835z"/><path fill="none" stroke="#000" stroke-miterlimit="10" stroke-width="1.4818" d="M3.835-.204S.428-.204.428 3.153v18.805s0 3.359 3.407 3.359H105.24V-.203H3.835z"/><path fill="#FFF" d="M33.38 9.64h3.348v10.279H33.38zm-16.682.247h3.773c-1.084-2.747-3.789-4.695-6.959-4.695-3.893 0-7.088 2.933-7.438 6.677h3.371c.344-1.93 2.051-3.398 4.107-3.398 1.256.002 2.38.55 3.146 1.416m3.793 5.289h-3.697c-.766.93-1.933 1.525-3.242 1.525-2.095 0-3.826-1.525-4.126-3.508H6.071c.328 3.768 3.531 6.726 7.441 6.726 3.189 0 5.908-1.971 6.979-4.743m2.723-9.984h3.35v14.725h-3.35zm5.848 0h11.983v3.107H29.062zm22.061 7.377l-4.322-7.377h-3.868l5.203 8.878-.002 5.849h3.882l-.001-5.948zm1.683.149l4.41-7.526h-3.868L50.87 9.421zm6.529-7.526h3.35v10.406h-3.35zm0 11.73h9.955v2.997h-9.955zm15.65 2.997l5.44-14.725H76.86l-5.439 14.725zm8.13 0h3.564l-5.135-13.9-1.76 4.884 1.177 3.188H78.6l-1.169 3.146h4.692zm6.05-14.727h2.902v14.725h-2.902zm9.676 6.991c.554-.762.846-1.649.846-2.567 0-2.353-1.877-4.285-4.272-4.403l-.584-.021h-1.428v2.921h2.363c.846 0 1.533.677 1.533 1.51 0 .832-.687 1.509-1.533 1.509-.023 0-.044-.001-.066-.004l-.047.004h-2.25v2.853h2.363c.846 0 1.533.678 1.533 1.51s-.687 1.51-1.533 1.51c-.023 0-.044-.001-.066-.004l-.047.004h-2.25v2.913h2.128l.582-.035c2.317-.181 4.134-2.109 4.134-4.389 0-1.195-.495-2.32-1.394-3.165l-.072-.066.06-.08"/><path d="M113.193 18.731h7.057v1.201h-8.34V5.184h1.283zm16.83-13.547l6.457 14.748h-1.283l-1.967-4.446h-7.27l-1.967 4.446h-1.283l6.457-14.748h.856zm-3.549 9.102h6.222l-3.1-7.121-3.122 7.121zm20.163-9.102v1.201h-4.276v13.547h-1.282V6.385h-4.278V5.184zm3.85 0h1.283v14.748h-1.283zm6.736 0h.856l10.05 12.284V5.184h1.283v14.748h-.855L158.506 7.649v12.283h-1.283zm23.116-.211c4.235 0 7.441 3.286 7.441 7.585s-3.208 7.585-7.441 7.585c-4.235 0-7.441-3.286-7.441-7.585s3.208-7.585 7.441-7.585m0 13.968c3.614 0 6.159-2.887 6.159-6.384s-2.545-6.384-6.159-6.384-6.159 2.887-6.159 6.384c.001 3.499 2.545 6.384 6.159 6.384"/><defs><path id="a" d="M111.91 5.184v14.748h8.34v-1.201h-7.057V5.184z"/></defs><clipPath id="c"><use overflow="visible" xlink:href="#a"/></clipPath><linearGradient id="b" x1="-670.6058" x2="-670.357" y1="-131.5226" y2="-131.5226" gradientTransform="translate(204619.7812 40121.6914) scale(304.9599)" gradientUnits="userSpaceOnUse"><stop offset="0" stop-color="#41af66"/><stop offset=".3368" stop-color="#004899"/><stop offset=".6675" stop-color="#c4338b"/><stop offset="1" stop-color="#e30613"/></linearGradient><path fill="url(#b)" d="M111.91 5.184h8.339v14.748h-8.339z" clip-path="url(#c)"/><defs><path id="d" d="M129.596 7.165l3.1 7.121h-6.222l3.122-7.121zm-.428-1.981l-6.459 14.748h1.283l1.967-4.445h7.27l1.967 4.445h1.283L130.02 5.184h-.852z"/></defs><clipPath id="f"><use overflow="visible" xlink:href="#d"/></clipPath><linearGradient id="e" x1="-670.6059" x2="-670.3566" y1="-131.5226" y2="-131.5226" gradientTransform="translate(204619.7812 40121.6914) scale(304.9599)" gradientUnits="userSpaceOnUse"><stop offset="0" stop-color="#41af66"/><stop offset=".3368" stop-color="#004899"/><stop offset=".6675" stop-color="#c4338b"/><stop offset="1" stop-color="#e30613"/></linearGradient><path fill="url(#e)" d="M122.709 5.184h13.771v14.748h-13.771z" clip-path="url(#f)"/><defs><path id="g" d="M136.801 5.184v1.201h4.278v13.547h1.282V6.385h4.276V5.184z"/></defs><clipPath id="i"><use overflow="visible" xlink:href="#g"/></clipPath><linearGradient id="h" x1="-670.6061" x2="-670.3566" y1="-131.5226" y2="-131.5226" gradientTransform="translate(204619.7812 40121.6914) scale(304.9599)" gradientUnits="userSpaceOnUse"><stop offset="0" stop-color="#41af66"/><stop offset=".3368" stop-color="#004899"/><stop offset=".6675" stop-color="#c4338b"/><stop offset="1" stop-color="#e30613"/></linearGradient><path fill="url(#h)" d="M136.801 5.184h9.836v14.748h-9.836z" clip-path="url(#i)"/><defs><path id="j" d="M150.487 5.184h1.283v14.748h-1.283z"/></defs><clipPath id="l"><use overflow="visible" xlink:href="#j"/></clipPath><linearGradient id="k" x1="-670.6045" x2="-670.3582" y1="-131.5226" y2="-131.5226" gradientTransform="translate(204619.7812 40121.6914) scale(304.9599)" gradientUnits="userSpaceOnUse"><stop offset="0" stop-color="#41af66"/><stop offset=".3368" stop-color="#004899"/><stop offset=".6675" stop-color="#c4338b"/><stop offset="1" stop-color="#e30613"/></linearGradient><path fill="url(#k)" d="M150.487 5.184h1.283v14.748h-1.283z" clip-path="url(#l)"/><defs><path id="m" d="M168.129 5.184v12.282l-10.05-12.282h-.856v14.748h1.283V7.649l10.05 12.283h.856V5.184z"/></defs><clipPath id="o"><use overflow="visible" xlink:href="#m"/></clipPath><linearGradient id="n" x1="-670.6057" x2="-670.357" y1="-131.5226" y2="-131.5226" gradientTransform="translate(204619.7812 40121.6914) scale(304.9599)" gradientUnits="userSpaceOnUse"><stop offset="0" stop-color="#41af66"/><stop offset=".3368" stop-color="#004899"/><stop offset=".6675" stop-color="#c4338b"/><stop offset="1" stop-color="#e30613"/></linearGradient><path fill="url(#n)" d="M157.223 5.184h12.188v14.748h-12.188z" clip-path="url(#o)"/><defs><path id="p" d="M174.181 12.558c0-3.497 2.544-6.384 6.159-6.384 3.614 0 6.158 2.887 6.158 6.384s-2.544 6.384-6.158 6.384c-3.615-.001-6.159-2.887-6.159-6.384m-1.283 0c0 4.298 3.208 7.585 7.442 7.585 4.233 0 7.441-3.286 7.441-7.585s-3.208-7.585-7.441-7.585c-4.234 0-7.442 3.287-7.442 7.585"/></defs><clipPath id="r"><use overflow="visible" xlink:href="#p"/></clipPath><linearGradient id="q" x1="-670.6057" x2="-670.357" y1="-131.5226" y2="-131.5226" gradientTransform="translate(204619.7812 40121.6914) scale(304.9599)" gradientUnits="userSpaceOnUse"><stop offset="0" stop-color="#41af66"/><stop offset=".3368" stop-color="#004899"/><stop offset=".6675" stop-color="#c4338b"/><stop offset="1" stop-color="#e30613"/></linearGradient><path fill="url(#q)" d="M172.898 4.973h14.883v15.169h-14.883z" clip-path="url(#r)"/><path d="M205.832 11.975l-.201 1.106h-2.727l-.496 2.735h3.683l-.201 1.106h-4.836l1.451-8.142h4.723l-.201 1.106h-3.552l-.377 2.095h2.736v-.006zm6.705.21c.388.419.601.978.601 1.522 0 .246-.037.628-.094.955l-.4 2.257h-1.134l.403-2.257c.06-.302.094-.698.094-.941 0-.779-.601-1.221-1.287-1.221-.615 0-1.262.327-1.712.872l-.627 3.547h-1.134l.955-5.352h1.074l-.19 1.011c.13-.43.649-1.128 1.735-1.128.63.003 1.268.257 1.716.735zm5.134 2.29c0-1.07.578-2.176 1.641-2.709.4-.198.884-.316 1.369-.316 1.216 0 1.758.676 1.758 1.221l.201-1.106h1.074l-.955 5.352h-1.074l.153-.908c-.105.478-.601 1.022-1.605 1.022-1.417.003-2.562-1.137-2.562-2.556zm4.615-1.338c-.343-.397-.921-.64-1.488-.64-1.063 0-2.007.791-2.007 1.919 0 .941.697 1.57 1.641 1.57.519 0 1.123-.268 1.477-.64l.377-2.209zm2.325 3.782l1.477-8.257h1.134l-1.474 8.257h-1.137zm5.077-5.352l-.955 5.352h-1.134l.955-5.352h1.134zm-.246-2.676c.414 0 .743.327.743.732 0 .408-.332.721-.743.721-.414 0-.731-.313-.731-.721-.004-.405.317-.732.731-.732zm1.202 5.584c0-1.07.578-2.176 1.641-2.709.4-.198.884-.316 1.369-.316 1.216 0 1.758.676 1.758 1.221l.201-1.106h1.074l-.955 5.352h-1.074l.153-.908c-.105.478-.601 1.022-1.605 1.022-1.417.003-2.562-1.137-2.562-2.556zm4.615-1.338c-.343-.397-.921-.64-1.488-.64-1.063 0-2.007.791-2.007 1.919 0 .941.697 1.57 1.641 1.57.519 0 1.123-.268 1.477-.64l.377-2.209zm7.615-.952c.388.419.601.978.601 1.522 0 .246-.037.628-.094.955l-.4 2.257h-1.134l.403-2.257c.06-.302.094-.698.094-.941 0-.779-.601-1.221-1.287-1.221-.615 0-1.264.327-1.712.872l-.627 3.547h-1.134l.955-5.352h1.074l-.19 1.011c.13-.43.649-1.128 1.735-1.128.63.003 1.268.257 1.716.735zm5.04.371h-2.75l.176-.989h4.417l-.119.698-3.589 3.665h3.175l-.179.989h-4.839l.119-.698 3.589-3.665zm2.455 1.919c0-1.07.578-2.176 1.641-2.709.4-.198.884-.316 1.369-.316 1.216 0 1.758.676 1.758 1.221l.201-1.106h1.074l-.955 5.352h-1.074l.153-.908c-.105.478-.601 1.022-1.605 1.022-1.416.003-2.562-1.137-2.562-2.556zm4.616-1.338c-.343-.397-.921-.64-1.488-.64-1.063 0-2.007.791-2.007 1.919 0 .941.697 1.57 1.641 1.57.519 0 1.123-.268 1.477-.64l.377-2.209zm10.789 2.793c-.544.698-1.358 1.106-2.35 1.106-1.534 0-2.75-1.095-2.75-2.595 0-1.665 1.287-2.989 2.999-2.989 1.004 0 1.806.466 2.313 1.246l-.873.617c-.318-.466-.814-.816-1.477-.816-1.004 0-1.843.883-1.843 1.885 0 .953.672 1.606 1.641 1.606.649 0 1.168-.316 1.522-.746l.818.686zm3.728 1.104c-1.593 0-2.75-1.162-2.75-2.665 0-1.628 1.381-2.919 3.033-2.919 1.593 0 2.75 1.162 2.75 2.665.001 1.628-1.38 2.919-3.033 2.919zm.284-4.536c-1.063 0-1.914.849-1.914 1.872 0 .93.672 1.617 1.63 1.617 1.063 0 1.914-.849 1.914-1.872 0-.93-.672-1.617-1.63-1.617zm8.913-.313c.388.419.601.978.601 1.522 0 .246-.037.628-.094.955l-.4 2.257h-1.134l.403-2.257c.06-.302.094-.698.094-.941 0-.779-.601-1.221-1.287-1.221-.615 0-1.262.327-1.712.872l-.627 3.547h-1.134l.955-5.352h1.074l-.19 1.011c.13-.43.649-1.128 1.735-1.128.63.003 1.268.257 1.716.735zm5.395-3.408h5.537l-.201 1.106h-2.183l-1.253 7.036h-1.168l1.25-7.036h-2.183l.201-1.106zm10.503 3.408c.388.419.601.978.601 1.522 0 .246-.037.628-.094.955l-.4 2.257h-1.134l.403-2.257c.06-.302.094-.698.094-.941 0-.779-.601-1.221-1.287-1.221-.615 0-1.262.327-1.712.872l-.627 3.547h-1.134l1.477-8.257h1.134l-.709 3.919c.13-.43.627-1.128 1.675-1.128.628 0 1.266.254 1.713.732zM301.716 14c0 .14-.023.372-.048.478h-4.119c.037.897.627 1.592 1.616 1.592.53 0 1.004-.209 1.44-.57l.672.709c-.53.466-1.111.827-2.101.827-.615 0-1.25-.162-1.772-.57-.615-.478-.981-1.198-.981-2.022 0-1.651 1.205-2.989 2.88-2.989 1.494-.002 2.413 1.079 2.413 2.545zm-4.011-.455h2.892c-.105-.709-.578-1.128-1.321-1.128-.724 0-1.325.455-1.571 1.128zm7.044 3.374l4.876-8.142h.814l1.97 8.142h-1.168l-.507-2.095h-3.425l-1.239 2.095h-1.321zm3.224-3.198h2.503l-.72-2.989-1.783 2.989zm8.604 3.198c-.224.081-.544.117-.802.117-.955 0-1.936-.581-1.936-1.721 0-.117.06-.592.094-.768l.354-1.989h-1.417l.179-.989h1.417l.272-1.511h1.134l-.272 1.511h1.758l-.179.989h-1.758l-.377 2.151c-.048.279-.082.536-.082.64 0 .466.366.698.839.698.19 0 .414-.036.567-.081l.209.953zm1.395 0l1.477-8.257h1.134l-1.474 8.257h-1.137zm3.044-2.444c0-1.07.578-2.176 1.641-2.709.4-.198.884-.316 1.369-.316 1.216 0 1.758.676 1.758 1.221l.201-1.106h1.074l-.955 5.352h-1.074l.153-.908c-.105.478-.601 1.022-1.605 1.022-1.416.003-2.562-1.137-2.562-2.556zm4.616-1.338c-.343-.397-.921-.64-1.488-.64-1.063 0-2.007.791-2.007 1.919 0 .941.697 1.57 1.641 1.57.519 0 1.123-.268 1.477-.64l.377-2.209zm7.614-.952c.388.419.601.978.601 1.522 0 .246-.037.628-.094.955l-.4 2.257h-1.134l.403-2.257c.06-.302.094-.698.094-.941 0-.779-.601-1.221-1.287-1.221-.615 0-1.264.327-1.712.872l-.627 3.547h-1.134l.955-5.352h1.074l-.19 1.011c.13-.43.649-1.128 1.735-1.128.631.003 1.266.257 1.716.735zm5.276 4.734c-.224.081-.544.117-.802.117-.955 0-1.936-.581-1.936-1.721 0-.117.06-.592.094-.768l.354-1.989h-1.417l.179-.989h1.417l.272-1.511h1.134l-.272 1.511h1.758l-.176.989h-1.758l-.377 2.151c-.048.279-.082.536-.082.64 0 .466.366.698.839.698.19 0 .414-.036.567-.081l.206.953zm3.482-5.352l-.955 5.352h-1.134l.955-5.352h1.134zm-.247-2.676c.414 0 .743.327.743.732 0 .408-.332.721-.743.721-.414 0-.731-.313-.731-.721 0-.405.317-.732.731-.732zm6.302 7.039c-.544.698-1.358 1.106-2.35 1.106-1.534 0-2.75-1.095-2.75-2.595 0-1.665 1.287-2.989 2.999-2.989 1.004 0 1.806.466 2.313 1.246l-.873.617c-.318-.466-.814-.816-1.477-.816-1.004 0-1.843.883-1.843 1.885 0 .953.672 1.606 1.641 1.606.649 0 1.168-.316 1.522-.746l.818.686z"/></svg>
