<?xml version="1.0" encoding="utf-8"?>
<!-- Generator: Adobe Illustrator 27.9.0, SVG Export Plug-In . SVG Version: 6.00 Build 0)  -->
<svg version="1.1" id="Capa_1" xmlns="http://www.w3.org/2000/svg" xmlns:xlink="http://www.w3.org/1999/xlink" x="0px" y="0px"
	 viewBox="0 0 128 128" style="enable-background:new 0 0 128 128;" xml:space="preserve">
<style type="text/css">
	.st0{clip-path:url(#SVGID_00000133503354357732629510000003067618927597845889_);}
	.st1{fill:#5B2897;}
	.st2{fill:#25C9C9;}
</style>
<g>
	<defs>
		<rect id="SVGID_1_" x="15.2" y="3.9" width="98.4" height="121.2"/>
	</defs>
	<clipPath id="SVGID_00000173155834977829354350000008052992084011736248_">
		<use xlink:href="#SVGID_1_"  style="overflow:visible;"/>
	</clipPath>
	<g style="clip-path:url(#SVGID_00000173155834977829354350000008052992084011736248_);">
		<path class="st1" d="M36.2,66.6H22.9V3.9h84v31.8H93.6V17.2H36.2V66.6z"/>
		<path class="st1" d="M63.5,125.1c-7.9,0-15.6-1.7-22.4-5.1c-10.8-5.3-19-14.4-23.8-26.4L15.2,88l24.2-12.9l6.3,11.8L32.3,94
			c9.1,15.9,25.9,19.3,38.3,17.1c14.3-2.5,29-13.1,29.5-30.9c0.4-10.6-1.8-18.4-6.5-23.1c-6.1-6.3-15.8-7-23.6-6.9h-0.1H51.9V36.8
			h18.1c9.6-0.1,23.5,1,33.2,10.9c7.3,7.5,10.7,18.5,10.3,32.9c-0.4,11.3-4.8,21.5-12.9,29.5c-7.2,7.2-17,12.2-27.6,14
			C69.8,124.8,66.7,125,63.5,125.1L63.5,125.1z"/>
		<path class="st2" d="M70.8,66.8l-0.2,6.4l6.1-2.5c0,0,1.3,1.1,2.3,3.8c1.2,2.9,0.7,4.5,0.7,4.5l-6.5,2.3l4.3,5.3
			c0,0-0.6,1.6-3,3.4s-4.1,1.7-4.1,1.7l-3.9-5.5l-3.9,5.5c0,0-1.6,0-4-1.7c-2.3-1.8-3-3.4-3-3.4l4.2-5.3L53.4,79
			c0,0-0.4-1.6,0.6-4.5c1.2-2.7,2.4-3.8,2.4-3.8l6.1,2.5l-0.3-6.5c0.4-0.2,1.9-0.8,4.4-0.8C69,66,70.5,66.6,70.8,66.8L70.8,66.8z"/>
	</g>
</g>
</svg>
