<svg xmlns="http://www.w3.org/2000/svg" width="273" height="27"><g fill="none" fill-rule="evenodd"><path fill="#FFF" d="M-584-13H856v56H-584z"/><g fill-rule="nonzero"><path fill="#BF0A30" d="M67.994 14.214l4.355-6.248-.821-1.432c-.272-.484-.68-.727-1.222-.727h-6.312a.615.615 0 0 0-.451.189c-.126.126-.19.257-.19.393a.83.83 0 0 0 .088.378l4.553 7.447z"/><path fill="#006847" d="M122.558 17.71h3.37l-1.7-5.551-1.67 5.55zm-1.55-12.355h6.471c.716 0 1.164.329 1.343.985l6.65 19.038c.02.06.03.155.03.284 0 .13-.064.259-.193.388a.63.63 0 0 1-.463.194h-5.517c-.597 0-.985-.249-1.164-.747l-.715-1.969h-6.413l-.715 1.97c-.18.497-.567.746-1.164.746h-5.518a.63.63 0 0 1-.462-.194c-.13-.13-.193-.258-.193-.388s.01-.224.03-.284l6.65-19.038c.18-.656.627-.985 1.342-.985zM91.93 26.244h-6.093a.774.774 0 0 1-.568-.239.775.775 0 0 1-.238-.568V6.13c0-.218.079-.408.238-.567a.773.773 0 0 1 .568-.24h6.093c.219 0 .408.08.568.24.159.16.239.349.239.567v19.306c0 .22-.08.408-.239.568a.777.777 0 0 1-.568.239m9.639-12.752v4.691c0 1.509.728 2.263 2.184 2.263 1.122 0 1.86-.503 2.215-1.51.098-.316.22-.53.369-.641.147-.112.388-.168.723-.168h6.022c.177 0 .33.064.458.189a.611.611 0 0 1 .192.45c0 1.686-.493 3.1-1.476 4.242-1.811 2.132-4.636 3.197-8.473 3.197-3.011 0-5.413-.648-7.204-1.944-1.79-1.296-2.686-3.288-2.686-5.976V13.39c0-2.63.915-4.608 2.745-5.933 1.83-1.324 4.212-1.987 7.145-1.987 3.837 0 6.662 1.066 8.473 3.196.983 1.143 1.476 2.557 1.476 4.242a.611.611 0 0 1-.192.45.63.63 0 0 1-.458.19h-6.022c-.315 0-.546-.057-.694-.168-.147-.112-.28-.326-.398-.642-.375-1.006-1.113-1.508-2.215-1.508-1.456 0-2.184.754-2.184 2.262m-23.637 1.997l5.726-9.085c.06-.099.09-.223.09-.371s-.065-.287-.193-.416a.628.628 0 0 0-.46-.193h-6.142c-.075 0-.147.006-.217.015L62.497 25.87c.03.049.064.096.11.142a.627.627 0 0 0 .46.193h6.469c.533 0 .939-.228 1.216-.683l2.463-3.978 2.581 3.978c.277.455.683.683 1.217.683h6.676a.628.628 0 0 0 .46-.193.581.581 0 0 0 .193-.416.713.713 0 0 0-.089-.371l-6.32-9.737z"/><path fill="#003486" d="M11.835 5.52H7.652L1.455 23.24 0 23.45v2.45H6.94v-2.45l-1.413-.252.895-2.799h6.603l.896 2.8-1.413.251v2.45h6.938v-2.45l-1.454-.21zM32.737 20.54h-.084L27.463 5.52h-7.499v2.464l2.168.42V23.03l-2.168.42v2.45H28.4v-2.45l-2.182-.42v-3.205l-.392-8.944.084-.014L31.338 25.9h2.742l5.456-15.09.084.015-.392 9v3.205l-2.169.42v2.45h8.436v-2.45l-2.182-.42V8.403l2.182-.42V5.52H37.97zM59.104.425l-.028-.084h-4.323L51.97 4.064h3.274z"/><path fill="#FFF" d="M6.022 13.796h2.68l.98-2.814 1.089 2.814h2.653l-2.017 1.845.743 2.8-2.427-1.566-2.269 1.566.663-2.8z"/><path fill="#003486" d="M62.35 21.899v-1.57h-3.106l-.182 2.436h-6.575v-5.823h6.897v-3.15h-6.897V8.67h6.52l.181 2.435h3.134V5.52H46.234v2.464l2.168.42V23.03l-2.168.42v2.45h13.323z"/><path fill="#900" d="M62.246 25.96h.145v-.209z"/><path fill="#4A4A4A" d="M143.58 22.89v.78l-2.58.06v-12l2.58.06v.78l-1.44.132v10.056l1.44.132zm10.665-9.36v4.02c0 1.176-.248 2.06-.744 2.652-.496.592-1.332.888-2.508.888s-2.008-.274-2.496-.822c-.488-.548-.732-1.394-.732-2.538v-4.2l-1.02-.24v-.66l3.42-.06v.72l-1.14.24v4.2c0 .88.152 1.49.456 1.83.304.34.82.51 1.548.51.728 0 1.236-.186 1.524-.558.288-.372.432-1.026.432-1.962v-4.02l-1.14-.24v-.66l3.42-.06v.72l-1.02.24zm3.683 1.08l.108.852.336-.264c.144-.112.314-.22.51-.324.196-.104.412-.194.648-.27.236-.076.482-.114.738-.114.648 0 1.13.19 1.446.57.316.38.474.91.474 1.59v3.36l.9.3v.66h-2.88v-.66l.78-.3v-3.24c0-.432-.084-.75-.252-.954-.168-.204-.424-.306-.768-.306-.168 0-.334.022-.498.066a2.293 2.293 0 0 0-.828.408 2.085 2.085 0 0 0-.27.246l-.204.24v3.54l.78.3v.66h-3v-.66l1.02-.3v-4.44l-1.02-.24v-.66l1.98-.06zm10.065 0l.096.672c.56-.528 1.168-.792 1.824-.792.848 0 1.49.278 1.926.834.436.556.654 1.346.654 2.37 0 .496-.066.952-.198 1.368a2.865 2.865 0 0 1-.606 1.074c-.272.3-.61.534-1.014.702-.404.168-.878.252-1.422.252-.336 0-.696-.056-1.08-.168v1.908l1.26.24v.66h-3.42v-.66l.96-.24v-7.26l-1.02-.24v-.66l2.04-.06zm.18 1.68v3.6c.248.16.668.24 1.26.24 1.2 0 1.8-.8 1.8-2.4 0-.704-.128-1.26-.384-1.668-.256-.408-.648-.612-1.176-.612-.304 0-.59.07-.858.21-.268.14-.482.35-.642.63zm5.483-1.32c.864-.32 1.656-.48 2.376-.48.704 0 1.244.142 1.62.426.376.284.564.762.564 1.434v3.66l.96.24v.66l-1.86.06-.252-.84c-.64.64-1.272.96-1.896.96-.624 0-1.092-.156-1.404-.468-.312-.312-.468-.756-.468-1.332 0-1.24.92-1.86 2.76-1.86h.96v-.96c0-.72-.38-1.08-1.14-1.08-.432 0-.788.044-1.068.132l-.144.048-.168.9h-.78l-.06-1.5zm3.36 3.24h-.84c-.6 0-1.026.078-1.278.234-.252.156-.378.398-.378.726 0 .312.074.55.222.714.148.164.362.246.642.246.136 0 .274-.024.414-.072a2.636 2.636 0 0 0 .762-.414c.104-.084.188-.162.252-.234l.204-.24v-.96zm4.942-3.6v5.4l.9.3v.66h-3.12v-.66l1.02-.3v-4.44l-1.02-.24v-.66l2.22-.06zm1.02-2.46l-2.52 1.56-.42-.6 2.34-1.86.6.9zm.575 6.9h.84l.132 1.032c.08.032.206.058.378.078.172.02.342.03.51.03.52 0 .898-.078 1.134-.234.236-.156.354-.394.354-.714a.62.62 0 0 0-.246-.516 2.187 2.187 0 0 0-.618-.324 17.722 17.722 0 0 0-.81-.264c-.292-.088-.562-.202-.81-.342s-.454-.322-.618-.546c-.164-.224-.246-.52-.246-.888 0-.6.2-1.058.6-1.374.4-.316.932-.482 1.596-.498.28.008.566.03.858.066a5 5 0 0 1 .894.198l.3.096-.036 1.62h-.78l-.192-.936c-.064-.024-.188-.054-.372-.09s-.38-.054-.588-.054c-.144 0-.28.012-.408.036a1.116 1.116 0 0 0-.342.12.629.629 0 0 0-.24.24.758.758 0 0 0-.09.384c0 .232.082.414.246.546.164.132.37.246.618.342.248.096.518.188.81.276.292.088.562.202.81.342s.454.318.618.534c.164.216.246.5.246.852 0 .336-.072.632-.216.888-.144.256-.338.47-.582.642-.244.172-.528.3-.852.384-.324.084-.67.126-1.038.126-.136 0-.278-.006-.426-.018a7.717 7.717 0 0 1-.84-.114 3.236 3.236 0 0 1-.306-.072l-.276-.072-.012-1.776zm13.185-1.104l-4.14.024c0 .656.158 1.18.474 1.572.316.392.738.588 1.266.588.176 0 .352-.016.528-.048.176-.032.342-.072.498-.12a3.27 3.27 0 0 0 .75-.336l.24-.156.42.624a5.323 5.323 0 0 1-.75.51 4.772 4.772 0 0 1-.804.336c-.308.1-.642.15-1.002.15-.944 0-1.66-.286-2.148-.858-.488-.572-.732-1.354-.732-2.346 0-.496.072-.952.216-1.368.144-.416.346-.774.606-1.074.26-.3.57-.534.93-.702.36-.168.756-.252 1.188-.252 1.68 0 2.52.94 2.52 2.82l-.06.636zm-4.092-.876h2.88c0-.488-.104-.884-.312-1.188-.208-.304-.544-.456-1.008-.456-.456 0-.82.154-1.092.462-.272.308-.428.702-.468 1.182zm6.754-2.46l.108.852.336-.264c.144-.112.314-.22.51-.324.196-.104.412-.194.648-.27.236-.076.482-.114.738-.114.648 0 1.13.19 1.446.57.316.38.474.91.474 1.59v3.36l.9.3v.66h-2.88v-.66l.78-.3v-3.24c0-.432-.084-.75-.252-.954-.168-.204-.424-.306-.768-.306-.168 0-.334.022-.498.066a2.293 2.293 0 0 0-.828.408 2.085 2.085 0 0 0-.27.246l-.204.24v3.54l.78.3v.66h-3v-.66l1.02-.3v-4.44l-1.02-.24v-.66l1.98-.06zm10.27-2.88v8.28l1.2.3v.66h-3.444v-.66l1.02-.3v-7.32l-1.02-.24v-.66l2.244-.06zm1.882 3.24c.864-.32 1.656-.48 2.376-.48.704 0 1.244.142 1.62.426.376.284.564.762.564 1.434v3.66l.96.24v.66l-1.86.06-.252-.84c-.64.64-1.272.96-1.896.96-.624 0-1.092-.156-1.404-.468-.312-.312-.468-.756-.468-1.332 0-1.24.92-1.86 2.76-1.86h.96v-.96c0-.72-.38-1.08-1.14-1.08-.432 0-.788.044-1.068.132l-.144.048-.168.9h-.78l-.06-1.5zm3.36 3.24h-.84c-.6 0-1.026.078-1.278.234-.252.156-.378.398-.378.726 0 .312.074.55.222.714.148.164.362.246.642.246.136 0 .274-.024.414-.072a2.636 2.636 0 0 0 .762-.414c.104-.084.188-.162.252-.234l.204-.24v-.96zm5.565-3.42l1.08-.12v-.72c0-.728.192-1.3.576-1.716.384-.416.932-.624 1.644-.624.336 0 .654.034.954.102.3.068.514.138.642.21l.204.108v1.5h-.84l-.18-.96a4.36 4.36 0 0 0-.816-.06c-.656 0-.984.4-.984 1.2v.96h1.584l-.036.9h-1.548v4.44l1.164.3v.66h-3.384v-.66l1.02-.3v-4.44h-1.08v-.78zm6.623-.18l.108.876c.592-.664 1.196-.996 1.812-.996.328 0 .644.048.948.144l.132.036-.06 1.74h-.78l-.18-.9c-.688 0-1.268.312-1.74.936v3.564l1.2.3v.66h-3.42v-.66l1.02-.3v-4.44l-1.02-.24v-.66l1.98-.06zm3.323 3.276c0-.512.074-.978.222-1.398.148-.42.358-.778.63-1.074.272-.296.594-.524.966-.684a3.08 3.08 0 0 1 1.23-.24c.896 0 1.592.284 2.088.852.496.568.744 1.356.744 2.364 0 .496-.072.95-.216 1.362a3.246 3.246 0 0 1-.606 1.068c-.26.3-.576.534-.948.702a2.984 2.984 0 0 1-1.242.252c-.912 0-1.618-.272-2.118-.816-.5-.544-.75-1.34-.75-2.388zm3-2.436c-1.16 0-1.74.78-1.74 2.34 0 1.56.56 2.34 1.68 2.34.584 0 1.01-.2 1.278-.6.268-.4.402-1 .402-1.8 0-1.52-.54-2.28-1.62-2.28zm5.542-.84l.108.852.336-.264c.144-.112.314-.22.51-.324.196-.104.412-.194.648-.27.236-.076.482-.114.738-.114.648 0 1.13.19 1.446.57.316.38.474.91.474 1.59v3.36l.9.3v.66h-2.88v-.66l.78-.3v-3.24c0-.432-.084-.75-.252-.954-.168-.204-.424-.306-.768-.306-.168 0-.334.022-.498.066a2.293 2.293 0 0 0-.828.408 2.085 2.085 0 0 0-.27.246l-.204.24v3.54l.78.3v.66h-3v-.66l1.02-.3v-4.44l-1.02-.24v-.66l1.98-.06zm7.883-1.692v1.752h1.74v.9h-1.74v3.852c0 .488.2.732.6.732.256 0 .568-.1.936-.3l.324.636c-.544.4-1.104.6-1.68.6-.408 0-.74-.134-.996-.402s-.384-.714-.384-1.338v-3.78h-1.2v-.78l1.2-.12v-1.512l1.2-.24zm7.702 5.028l-4.14.024c0 .656.158 1.18.474 1.572.316.392.738.588 1.266.588.176 0 .352-.016.528-.048.176-.032.342-.072.498-.12a3.27 3.27 0 0 0 .75-.336l.24-.156.42.624a5.323 5.323 0 0 1-.75.51 4.772 4.772 0 0 1-.804.336c-.308.1-.642.15-1.002.15-.944 0-1.66-.286-2.148-.858-.488-.572-.732-1.354-.732-2.346 0-.496.072-.952.216-1.368.144-.416.346-.774.606-1.074.26-.3.57-.534.93-.702.36-.168.756-.252 1.188-.252 1.68 0 2.52.94 2.52 2.82l-.06.636zm-4.092-.876h2.88c0-.488-.104-.884-.312-1.188-.208-.304-.544-.456-1.008-.456-.456 0-.82.154-1.092.462-.272.308-.428.702-.468 1.182zm6.755-2.46l.108.876c.592-.664 1.196-.996 1.812-.996.328 0 .644.048.948.144l.132.036-.06 1.74h-.78l-.18-.9c-.688 0-1.268.312-1.74.936v3.564l1.2.3v.66h-3.42v-.66l1.02-.3v-4.44l-1.02-.24v-.66l1.98-.06zm3.742.36c.864-.32 1.656-.48 2.376-.48.704 0 1.244.142 1.62.426.376.284.564.762.564 1.434v3.66l.96.24v.66l-1.86.06-.252-.84c-.64.64-1.272.96-1.896.96-.624 0-1.092-.156-1.404-.468-.312-.312-.468-.756-.468-1.332 0-1.24.92-1.86 2.76-1.86h.96v-.96c0-.72-.38-1.08-1.14-1.08-.432 0-.788.044-1.068.132l-.144.048-.168.9h-.78l-.06-1.5zm3.36 3.24h-.84c-.6 0-1.026.078-1.278.234-.252.156-.378.398-.378.726 0 .312.074.55.222.714.148.164.362.246.642.246.136 0 .274-.024.414-.072a2.636 2.636 0 0 0 .762-.414c.104-.084.188-.162.252-.234l.204-.24v-.96zm7.786 5.52l-2.58-.06v-.78l1.44-.132V12.702l-1.44-.132v-.78l2.58-.06v12z"/></g></g></svg>
