<svg width="215" height="28" xmlns="http://www.w3.org/2000/svg"><g fill="none" fill-rule="evenodd"><path d="M11 0v15.98c.78 0 5.13.11 8.8-.22.93-.1 1.84-.22 2.7-.37 2.11-.41 3.9-1.06 4.52-1.58V1.59C25.4.37 18.62 0 11 0" fill="#00C473"/><path d="M27.02 14.2V14c-.62.51-2.4 1.14-4.52 1.54-.86.14-1.77.26-2.7.36-3.67.32-8.02.21-8.8.21v.27a76 76 0 0 0 .15 4.46c.1 1.54.27 2.98.54 4.18.3 1.34.72 2.39 1.32 2.94l.03.03.58.01a13.4 13.4 0 0 0 10.98-5.68 13.6 13.6 0 0 0 1.95-4.55c.3-1.13.47-2.32.47-3.56v-.01" fill="#1D1DEA"/><path d="M12.98 27.97c-.6-.57-1.04-1.65-1.34-3.05a29.97 29.97 0 0 1-.55-4.32c-.05-.75-.08-1.52-.1-2.3l-.02-.51-.02-1.8v-.28c-3.58 0-6.69-.28-8.17-.55C1.22 14.87.18 14.3 0 14a13.8 13.8 0 0 0 2.47 8.16A13.54 13.54 0 0 0 13.01 28l-.03-.03" fill="#ED1C24"/><path d="M.53 1c-.3 0-.53.24-.53.53V14.3c.18.3 1.22.87 2.8 1.16l.84.13c1.67.22 4.35.41 7.37.41V6.17C7.6 1.8 2.33 1 .53 1" fill="#C626B6"/><g fill="#6D6D6D" fill-rule="nonzero"><path d="M40.4 8.21v2.68h4.3v2.22h-4.3v3.6h5.9v2.21h-8.6V6h8.4v2.21h-5.7zM48.46 6h1.81l7.44 8.42V6h2.57v12.92h-1.81l-7.44-8.42v8.42h-2.57V6zm24.7 0v2.21h-3.53v10.71h-2.59V8.22H63.5V6h9.67zm7.02 4.98c.77 0 1.1-.14 1.34-.38a1.44 1.44 0 0 0 0-1.98c-.24-.24-.57-.4-1.34-.4h-2.2v2.76h2.2zm-2.2 2.22v5.72H75.3V6h5.02c1.42 0 2.32.37 3.01.96.75.67 1.22 1.6 1.22 2.64a3.62 3.62 0 0 1-2.6 3.4l5.16 5.92h-3.29l-4.9-5.72h-.97zM90.9 8.21v2.68h4.3v2.22h-4.3v3.6h5.9v2.21h-8.6V6h8.4v2.21h-5.7zM107.53 6v2.21H104v10.71h-2.58V8.22h-3.54V6h9.66zm4.85 2.21v2.68h4.3v2.22h-4.3v3.6h5.9v2.21h-8.6V6h8.4v2.21h-5.7zM121.5 6h1.81l7.44 8.42V6h2.57v12.92h-1.81l-7.44-8.42v8.42h-2.57V6zm15.04 12.92h2.15V6h-2.15v12.92zm11.82-5.19l4.7-7.73h1.74v12.92h-2.48v-7.2l-3.1 5.08h-1.73l-3.1-5.08v7.2h-2.48V6h1.75l4.7 7.74zm10.74 5.2h2.15V6h-2.15v12.92zm8.07-10.72v2.68h4.3v2.22h-4.3v3.6h5.9v2.21h-8.6V6h8.4v2.21h-5.7zM175.2 6h1.81l7.44 8.42V6h2.57v12.92h-1.81l-7.43-8.42v8.42h-2.58V6zm24.71 0v2.21h-3.54v10.71h-2.58V8.22h-3.55V6h9.67zm8.06 11.67c2.52 0 4.4-2.1 4.4-4.67s-1.87-4.67-4.4-4.67c-2.53 0-4.4 2.1-4.4 4.67s1.87 4.67 4.4 4.67zm0-11.67a6.82 6.82 0 0 1 6.98 7c0 3.87-2.85 7-6.98 7a6.82 6.82 0 0 1-6.98-7c0-3.87 2.85-7 6.98-7z"/></g></g></svg>