<svg width="21" height="21" xmlns="http://www.w3.org/2000/svg" xmlns:xlink="http://www.w3.org/1999/xlink"><defs><path d="M0 .4C0 .19.18 0 .4 0 2.65 0 8 1.44 8 5.63v3.21c0 2 1.26 5.34 6.93 5.34 2.55 0 4.65-1 5.99-2.36A10.5 10.5 0 0 1 0 10.5V.4zm8.66 4.55V3.92h2.6v1.03h-2.6zm0 1.3V5.23h2.6v1.04h-2.6zm0 .28h2.6v1.03h-2.6V6.53zm0 1.3h2.6v1.04h-2.6V7.84zm.01 1.31h2.58v1.04H8.87c-.12-.4-.18-.77-.2-1.04zm.3 1.3h2.28v1.04h-1.7c-.26-.34-.45-.7-.58-1.03zm.8 1.31h1.48v1.04h-.08a4.67 4.67 0 0 1-1.34-.98l-.05-.06zm8.63-8.1V2.6H21v1.04h-2.6zm0 1.3V3.92H21v1.03h-2.6zm0 1.3V5.23H21v1.04h-2.6zm0 1.31V6.53H21v1.03h-2.6zm0 1.31V7.84H21v1.03h-2.6zm0 1.3V9.15H21v1.04h-2.6zm0 .28H21v.42c-.2.21-.42.42-.64.61H18.4v-1.03zm0 1.3h1.64c-.5.4-1.03.75-1.64 1.04v-1.04zm-3.25-4.19V6.53h2.6v1.03h-2.6zm0 1.31V7.84h2.6v1.03h-2.6zm0 1.3V9.15h2.6v1.04h-2.6zm0 1.31v-1.03h2.6v1.03h-2.6zm0 1.3v-1.03h2.6v1.04h-2.6zm0 .28h2.59c-.76.27-1.62.44-2.59.46v-.46zM11.9 1.04V0h2.6v1.04h-2.6zm0 1.3V1.3h2.6v1.04h-2.6zm0 1.3V2.62h2.6v1.04h-2.6zm0 1.31V3.92h2.6v1.03h-2.6zm0 1.3V5.23h2.6v1.04h-2.6zm0 1.31V6.53h2.6v1.03h-2.6zm0 1.31V7.84h2.6v1.03h-2.6zm0 1.3V9.15h2.6v1.04h-2.6zm0 1.31v-1.03h2.6v1.03h-2.6zm0 1.3v-1.03h2.6v1.04h-2.6zm0 .28h2.6v.46a9.14 9.14 0 0 1-2.6-.43v-.03z" id="a"/></defs><g fill="none" fill-rule="evenodd"><mask id="b" fill="#fff"><use xlink:href="#a"/></mask><use fill="#FFFFFE" xlink:href="#a"/><g mask="url(#b)" fill="#FFF"><path d="M-10-10h40v40h-40z"/></g></g></svg>