<svg xmlns="http://www.w3.org/2000/svg" width="32" height="10"><path fill="#B5008F" d="M0 0h1.38111l5.66105 6.51244V0H9v9.99502H7.61889L1.9629 3.48756V10H.00506V0zm13.99761 0C16.95704 0 19 2.2362 19 5s-2.04296 5-5.00239 5C11.0382 10 9 7.7638 9 5s2.03819-5 4.99761-5zm0 8.33495c1.80907 0 3.15036-1.50049 3.15036-3.33495s-1.34129-3.33495-3.15036-3.33495S10.84726 3.16554 10.84726 5s1.34128 3.33495 3.15035 3.33495zM19 0h1.83099l1.95305 6.24191L24.85915 0h1.2817l2.07511 6.24191L30.16901 0H32l-3.12676 10h-1.28169l-2.10329-6.32653L23.39906 10h-1.28169z"/></svg>
