<svg width="128" height="26" xmlns="http://www.w3.org/2000/svg" xmlns:xlink="http://www.w3.org/1999/xlink"><defs><path id="a" d="M0 1.116h11.492v12.207H0z"/><path id="c" d="M0 .099h9.672v13.173H0z"/></defs><g fill="none" fill-rule="evenodd"><path fill="#FFF" d="M61.897 18.493h-3.11V6.9h3.11zM81.85 18.493h-3.112V6.9h3.111zM99.23 18.493h-3.11V6.9h3.11zM47.752 18.493V12.08c0-1.59 1.199-2.54 2.547-2.54 1.434 0 2.564 1.108 2.564 2.54v6.412h3.106v-6.294c0-2.937-2.045-5.537-5.6-5.537-3.825 0-5.733 2.584-5.733 5.537v6.294h3.116zM119.145 18.493V12.08c0-1.59 1.2-2.54 2.547-2.54 1.435 0 2.564 1.108 2.564 2.54v6.412h3.105v-6.294c0-2.937-2.044-5.537-5.6-5.537-3.824 0-5.732 2.584-5.732 5.537v6.294h3.116zM70.313 13.979l3.18-7.078h3.234l-5.334 11.592h-2.149L63.91 6.901h3.226zM85.852 14.959c.79.716 2.01 1.145 3.176 1.145.839 0 1.484-.407 1.484-.977 0-1.743-5.616-1.122-5.616-4.856 0-2.224 2.15-3.61 4.444-3.61 1.51 0 3.155.572 3.923 1.17l-1.454 2.248c-.6-.43-1.389-.784-2.228-.784-.857 0-1.577.329-1.577.925 0 1.508 5.619.908 5.619 4.93 0 2.22-2.174 3.585-4.614 3.585-1.6 0-3.3-.552-4.658-1.556l1.501-2.22zM107.638 15.863c1.818 0 3.058-1.412 3.058-3.152 0-1.747-1.24-3.18-3.058-3.18-1.814 0-3.064 1.433-3.064 3.18 0 1.74 1.25 3.152 3.064 3.152m0-9.202c3.514 0 6.161 2.703 6.161 6.05 0 3.348-2.647 6.024-6.161 6.024-3.515 0-6.178-2.676-6.178-6.024 0-3.347 2.663-6.05 6.178-6.05M38.983 6.901v6.415c0 1.587-1.21 2.54-2.562 2.54-1.427 0-2.562-1.113-2.562-2.54V6.901h-3.106v6.295c0 2.93 2.04 5.539 5.601 5.539 3.821 0 5.733-2.584 5.733-5.539V6.901h-3.104z"/><path d="M9.672.333v14.003c.697 0 4.59.099 7.887-.195.83-.085 1.642-.19 2.416-.325 1.897-.359 3.497-.923 4.052-1.387V1.728C22.58.656 16.496.333 9.672.333" fill="#00C473"/><path d="M24.027 12.608v-.178c-.555.464-2.155 1.028-4.052 1.386-.774.135-1.586.24-2.416.324-3.298.295-7.19.196-7.887.196v.239a60.938 60.938 0 0 0 .035 2.021c.02.68.049 1.354.093 2.007.09 1.387.243 2.685.484 3.768.268 1.213.65 2.156 1.183 2.657l.025.024a11.999 11.999 0 0 0 10.365-5.115c.784-1.117 1.382-2.578 1.75-4.105.273-1.022.42-2.098.42-3.21-.002 0-.002.002-.002.002v-.014l.002-.002" fill="#1D1DEA"/><g transform="translate(0 11.73)"><mask id="b" fill="#fff"><use xlink:href="#a"/></mask><path d="M11.466 13.298c-.533-.5-.913-1.444-1.182-2.656-.24-1.084-.392-2.383-.484-3.768a56.55 56.55 0 0 1-.106-2.455c-.013-.54-.02-1.019-.021-1.575l-.001-.238c-3.164 0-5.904-.238-7.216-.476C1.076 1.88.158 1.37 0 1.116c0 1.182.17 2.527.489 3.606A11.96 11.96 0 0 0 2.185 8.23a12 12 0 0 0 9.307 5.093l-.026-.025" fill="#ED1C24" mask="url(#b)"/></g><g transform="translate(0 1.063)"><mask id="d" fill="#fff"><use xlink:href="#c"/></mask><path d="M.468.099A.467.467 0 0 0 0 .566v11.217c.158.256 1.077.763 2.456 1.013.213.039.464.078.746.115 1.464.195 3.819.361 6.47.361v-8.63C6.68.788 2.05.099.468.099" fill="#C626B6" mask="url(#d)"/></g></g></svg>
