<svg width="500" height="89" xmlns="http://www.w3.org/2000/svg" xmlns:xlink="http://www.w3.org/1999/xlink"><defs><path id="a" d="M8.352 0H.077v44.314h8.275V0z"/><path id="c" d="M69.602 0H0v69.401h69.602V0z"/><path id="e" d="M213.893 64.014V.15H.086v63.864z"/></defs><g fill="none" fill-rule="evenodd"><path d="M37.63 13.083h-8.273v3.15h8.272v-3.15zm0 4.67h-8.273v3.153h8.272v-3.153zm0 4.668h-8.273v3.156h8.272v-3.156zm-2.583 17.162h2.582v-3.152h-5.725a13.665 13.665 0 0 0 3.143 3.152zm2.582-9.34v-3.15h-8.272v1.201c0 .506.03 1.175.137 1.95h8.135zm-7.848 1.52h7.848v3.152h-6.652a13.787 13.787 0 0 1-1.196-3.152z" fill="#FFF" fill-rule="nonzero"/><g transform="translate(40.098 -.925)"><mask id="b" fill="#fff"><use xlink:href="#a"/></mask><path d="M8.352 42.028H.077v.994c2.261.718 4.99 1.184 8.275 1.292v-2.286zm0-18.682H.077v3.156h8.275v-3.156zm0-4.668H.077v3.153h8.275v-3.153zm0 9.34H.077v3.15h8.275v-3.15zm0 9.338H.077v3.152h8.275v-3.152zm0-32.686H.077v3.155h8.275V4.67zm0-4.67H.077v3.155h8.275V0zm0 9.343H.077v3.15h8.275v-3.15zm0 23.345H.077v3.152h8.275v-3.152zm0-15.53H.077v-3.15h8.275v3.15z" fill="#FFF" fill-rule="nonzero" mask="url(#b)"/></g><path d="M59.277 22.421h-8.275v3.156h8.275v-3.156zm0 14.01h-8.275v3.152h8.275v-3.152zm0-4.668h-8.275v3.152h8.275v-3.152zm0-4.67h-8.275v3.151h8.275v-3.15zm0 14.911c-2.498.907-4.767 1.288-8.275 1.388v-2.289h8.275v.901zM70.098 22.421H61.82v3.156H70.098v-3.156zm0 4.672H61.82v3.151H70.098v-3.15zm0-18.675H61.82v3.15H70.098v-3.15zm0 4.665H61.82v3.151H70.098v-3.15zm0 21.25v-2.57H61.82v3.152h7.703c.228-.219.41-.415.574-.581zm0-16.58H61.82v3.153H70.098v-3.153zm-6.048 21.83h-2.229v-3.152h6.16c-1.31 1.183-2.46 2.177-3.93 3.152z" fill="#FFF" fill-rule="nonzero"/><g transform="translate(.226 -.925)"><mask id="d" fill="#fff"><use xlink:href="#c"/></mask><path d="M26.584 18.59C26.584 4.753 8.782 0 1.368 0A1.36 1.36 0 0 0 0 1.35v33.352c0 19.164 15.642 34.7 34.936 34.7 17.756 0 32.514-13.243 34.666-30.36-4.45 4.504-11.457 7.826-19.927 7.826-18.87 0-23.091-11.056-23.091-17.649V18.59z" fill="#FFF" fill-rule="nonzero" mask="url(#d)"/></g><g transform="translate(83.88 1.694)"><mask id="f" fill="#fff"><use xlink:href="#e"/></mask><path d="M157.787.15c-4.09 0-7.382 3.104-7.382 7.164 0 4.058 3.292 7.175 7.382 7.175 4.079 0 7.39-3.117 7.39-7.175 0-4.06-3.311-7.164-7.39-7.164zm-5.65 31.083v31.92h11.315V21.277h-11.316v9.957zm39.972-10.82c-12.878 0-21.867 9.865-21.867 21.927 0 11.968 9.16 21.674 20.366 21.674a19.18 19.18 0 0 0 7.3-1.413V52.314c-1.676 1.146-3.664 1.837-5.8 1.837-6.022 0-10.893-5.1-10.893-11.723 0-6.886 4.871-11.983 10.894-11.983 6.018 0 10.89 5.344 10.89 11.983v20.726h10.894V42.34c0-12.062-9-21.927-21.784-21.927zM123.246 40.34v22.814h11.302l-.01-24.12c0-5.635 2.921-7.835 7.893-7.835h3.367v-9.923h-3.367c-12.086 0-19.185 5.346-19.185 19.064zM48.578 20.038v43.116h11.3V30.769H71.14v-9.493H59.879v-2.542c0-5.636 2.918-7.83 7.89-7.83h3.37V.983h-3.37c-12.092 0-19.191 5.333-19.191 19.056zM30.02 44.432c0 5.75-4.394 9.194-9.32 9.194-5.185 0-9.315-4.037-9.315-9.194V21.26H.086v22.744c0 10.596 7.43 20.011 20.383 20.011 13.909 0 20.85-9.327 20.85-20.011V21.259H30.021v23.173zm76.818-2.175c0-6.3-4.522-11.488-11.124-11.488-6.613 0-11.127 5.187-11.127 11.488 0 6.303 4.514 11.403 11.127 11.403 6.602 0 11.124-5.1 11.124-11.403zm11.301 0c0 12.085-9.65 21.757-22.425 21.757s-22.433-9.672-22.433-21.757c0-12.089 9.658-21.85 22.433-21.85s22.425 9.761 22.425 21.85z" fill="#FFF" fill-rule="nonzero" mask="url(#f)"/></g><path d="M353.21 36.51v28.593h6.072V22.607h-4.25L338.641 48.53 322.25 22.607H318v42.496h6.07V36.509l12.446 19.488h4.25l12.445-19.488zm33.998 29.2c5.22 0 9.956-2.125 13.173-5.585 2.732-2.975 4.432-6.92 4.432-12.627v-24.89h-6.07V47.8c0 4.007-.972 6.496-2.672 8.378-2.125 2.367-5.282 3.764-8.864 3.764-3.581 0-6.738-1.397-8.863-3.764-1.7-1.882-2.671-4.371-2.671-8.378V22.607h-6.07v24.89c0 5.707 1.699 9.653 4.43 12.628 3.218 3.46 7.954 5.585 13.174 5.585zm24.283-7.103c3.764 4.553 9.045 7.103 14.873 7.103 7.407 0 13.174-4.857 13.174-12.324 0-4.856-2.671-7.831-5.524-9.713-5.464-3.643-14.51-4.796-14.51-10.2 0-3.702 3.521-5.706 7.042-5.706 2.672 0 5.282.972 7.589 2.914l3.582-4.431c-2.246-1.882-6.01-4.25-11.413-4.25-7.407 0-12.87 5.1-12.87 11.292 0 4.431 2.367 7.345 5.403 9.349 5.645 3.703 14.63 4.432 14.63 10.927 0 3.825-3.46 6.375-7.406 6.375-4.371 0-7.892-2.429-10.381-5.464l-4.19 4.128zm35.94 6.496h6.07V22.607h-6.07v42.496zm13.659-21.248c0 12.567 9.349 21.855 22.037 21.855 6.556 0 12.87-3.218 16.512-7.892l-4.31-3.885c-2.368 2.853-6.496 6.01-12.202 6.01-9.046 0-15.967-6.496-15.967-16.088 0-9.167 6.739-16.088 15.42-16.088 4.553 0 8.985 2.064 11.474 4.796l4.068-4.007C494.418 24.49 488.652 22 482.58 22c-12.263 0-21.49 9.592-21.49 21.855z" fill="#D2D2D2" fill-rule="nonzero"/></g></svg>
