<svg xmlns="http://www.w3.org/2000/svg" width="246" height="27"><g fill="none" fill-rule="evenodd"><path fill="#052135" d="M8.42253644 13.07474966c-.69568592-.93336423-1.71366701-1.48650005-3.19386655-1.48650005H3.44346906v8.76707679h1.78520083c1.48019954 0 2.49818063-.5522964 3.19386655-1.48733938.57148437-.76213555.91028735-1.79034704.91028735-2.89661868 0-1.10459293-.33880298-2.13448314-.91028735-2.89661868zM4.96061463 9.30184298c1.98093619 0 3.28348034.4574492 4.30067535 1.25819513 1.53601163 1.21958474 2.48167282 3.20130502 2.48167282 5.41133023 0 2.21170392-.94566119 4.19342416-2.48167282 5.41300896-1.01719501.8007459-2.31973916 1.2573558-4.30067535 1.2573558h-3.9264985V9.30184298h3.9264985zM16.113757 11.58866929v2.76316102h3.8376708v2.28724599H16.113757v3.7158304h5.2652026v2.287246h-7.6745555V9.3014233h7.496114v2.28724599zm15.7040288-2.28691025v2.28724599h-3.3015603V22.6424885h-2.410139V11.58900503h-3.3015603V9.30175904zm4.2820451 2.28691025v2.76316102h3.8368848v2.28724599h-3.8368848v3.7158304h5.2644166v2.287246H33.690478V9.3014233h7.4961141v2.28724599zm8.6545687 4.38278298c0 2.59193234 1.8559486 4.57365263 4.2660876 4.57365263 1.6240533 0 2.8016098-.8376776 3.5334556-1.84826264l1.6602132 1.58218664c-1.1068088 1.5058053-2.9627573 2.553322-5.2479087 2.553322-3.8903386 0-6.6204145-3.0300764-6.6204145-6.86089863 0-3.82998291 2.693916-6.8608986 6.5850406-6.8608986 1.8567347 0 3.444628.7436697 4.5695167 1.90701757l-1.5533055 1.75257601c-.7491397-.80074594-1.8024947-1.37234759-3.033505-1.37234759-2.3739791 0-4.15918 2.03879651-4.15918 4.57365261m19.2745091-6.66969323v2.28724599h-3.3023464V22.6424885h-2.4093529V11.58900503H55.014863V9.30175904zm7.2267225 11.24359766c2.3558991 0 4.10494-2.05726235 4.10494-4.57365262 0-2.51471155-1.7490409-4.57365262-4.10494-4.57365262-2.3558991 0-4.1057261 2.05894107-4.1057261 4.57365262 0 2.51639027 1.749827 4.57365262 4.1057261 4.57365262m0-11.43455122c3.8549647 0 6.5142929 3.06868672 6.5142929 6.8608986 0 3.79221192-2.6593282 6.86089862-6.5142929 6.86089862s-6.5142929-3.0686867-6.5142929-6.86089862c0-3.79221188 2.6593282-6.8608986 6.5142929-6.8608986m12.8837102 5.33603996c.6964721 0 .9991151-.15276285 1.2137165-.40037296.2138153-.24677076.3568829-.62867789.3568829-1.00974566 0-.39953361-.1430676-.78060138-.3568829-1.02905086-.2146014-.24761011-.5172444-.4188388-1.2137165-.4188388h-1.9990161v2.85800828h1.9990161zm-1.9990161 2.28724599v5.90822917h-2.409353V9.30159117h4.5514368c1.2844641 0 2.1051377.38106777 2.7300759.99127982.6791781.68575412 1.1068088 1.65772874 1.1068088 2.72538999 0 1.06682189-.4276307 2.03879651-1.1068088 2.72538999-.338803.34245738-.7491398.60937269-1.2498764.78144074l4.6772104 6.11722889h-2.9808373l-4.444529-5.90822917h-.8741274zm37.27409836 1.17609303l4.55065064-7.98479672h1.695587V23.2652778h-2.4093529v-7.43250024l-2.99891729 5.24178024h-1.67672098l-2.99891728-5.24178024v7.43250024h-2.40935294V9.92538774h1.69558704zm11.50955364-5.69805435v2.76316102h3.8376709v2.28724599h-3.8376709v3.71583048h5.2652026v2.287246h-7.6745555V9.92488412h7.4961141v2.28724599zm7.4048495-2.28691024h1.6955871l6.9607896 8.69069539V9.92521987h2.409353V23.2659493h-1.6955871l-6.9607896-8.69069539v8.69069539h-2.409353zm21.9513671 0v2.28724598h-3.3023464V23.2659493h-2.409353V12.21246585h-3.3023464V9.92521987zm1.8721419-.00033575h2.4093529V23.2656136h-2.4093529zm9.672707 5.14592576c.696472 0 .999115-.15276285 1.2137164-.40037296.2138154-.24761012.356883-.62867789.356883-1.00974566 0-.40037297-.1430676-.78144074-.356883-1.02905086-.2146014-.24761011-.5172444-.41967816-1.2137164-.41967816h-1.9990162v2.85884764h1.9990162zm-1.9990162 2.28724599v5.90738983h-2.4093529V9.9255556h4.5514367c1.2844642 0 2.1051377.38106778 2.7300759.99044047.6791782.68659348 1.1068088 1.65772875 1.1068088 2.72538999 0 1.06682189-.4276306 2.03963587-1.1068088 2.72538999-.3388029.34329674-.7491397.61021205-1.2498764.78144074l4.6772105 6.11722891h-2.9808373l-4.4445291-5.90738983h-.8741274zm13.5269643.6668686h3.1765726l-1.5878933-3.94497473-1.5886793 3.94497473zm-4.6048906 5.24094093l5.3540303-13.34072947h1.6955871l5.3548164 13.34072947h-2.5162607l-1.1783425-2.9536949h-5.0152274l-1.1783426 2.9536949h-2.5162606zm14.6873841-3.563907c.7137659.838517 1.8024947 1.4671949 2.9446774 1.4671949 1.0706488 0 1.8205746-.7050593 1.8205746-1.67703397 0-1.71480497-2.3205252-1.92464406-3.9980323-2.97300011-.9818211-.61021205-1.7663347-1.52427108-1.7663347-3.03007633 0-2.38209325 2.0516839-3.75444085 4.1222338-3.75444085 1.2671703 0 2.4455129.32399155 3.6230694 1.25819514l-1.2498764 1.90533886c-.4991644-.49522024-1.337918-.87628801-2.1593776-.87628801-.9095013 0-1.9274824.41883881-1.9274824 1.44788966 0 2.15378833 5.7651532 1.48650006 5.7651532 5.9846106 0 2.36278811-1.9817223 4.00205101-4.2299276 4.00205101-1.6782932 0-3.2300265-.7436698-4.5152768-2.0010255l1.5705994-1.7534154zm-93.52020663-2.82026235c-.27041352-.49018409-1.08008188-1.32702235-2.21440367-1.32702235-.5141001 0-1.05335496.18801582-1.48570214.56320809-.54082702.47507568-.86469436 1.2397293-.86469436 2.09083661 0 .90818354.37810726 1.71564433.97238811 2.16302125.39225681.28873858.86390829.49018409 1.39058576.49018409.90557083 0 1.71602528-.54809968 2.2018263-1.44201416v-2.53821353zm-4.02475924 4.13886605c-.80966836-.60601528-1.30961892-1.63002999-1.30961892-2.8118437 0-1.09703872.44492456-2.06229849 1.14768525-2.69685187.51331402-.44737693 1.21607471-.7361155 1.9581397-.7361155.8513309 0 1.64842189.36092322 2.22855321 1.02401472v-4.54259644h.76957798V21.4964771h-.74285107v-.9660991c-.4590741.6639308-1.255379 1.1104684-2.21440366 1.1104684-.58013131 0-1.22943817-.1594777-1.83708249-.6202843zm7.36334418-3.48962393h4.20084249c-.1619337-1.15411495-.9999012-1.97584479-2.0666196-1.97584479-1.09423139 0-1.90468584.83683825-2.13422289 1.97584479zm4.79512329 2.89829739c-.4590741.62028434-1.337918 1.21119114-2.5123302 1.21119114-1.7286026 0-3.09246145-1.38409854-3.09246145-3.43128862 0-1.88939109 1.20192517-3.43296737 2.94389125-3.43296737 1.6484219 0 2.8629245 1.38409858 2.8629245 3.21641344 0 .05707623 0 .15779899-.0133635.28873857h-5.02387426c.05423992 1.39836764.90478474 2.5810207 2.32288346 2.5810207.8104545 0 1.4857022-.3458148 1.9715032-.98120754l.540827.54809968z"/><path fill="#CB1500" d="M224.0983878 22.1480769h18.8151988c0-3.9980769-1.262765-7.9326923-3.5988803-11.1057692l-15.2163185 11.1057692z"/><path fill="#F65402" d="M224.0983878 22.1480769l15.2163185-11.1057692c-2.2729771-3.10961539-5.4930279-5.58461539-9.4075994-6.85384616l-5.8087191 17.95961536z"/><path fill="#F8AF1E" d="M218.2896687 4.18846154l5.8087191 17.95961536 5.8087191-17.95961536c-3.9145716-1.26923077-7.9554196-1.14230769-11.6174382 0z"/><path fill="#A8C553" d="M208.88206935 11.0423077l15.21631845 11.1057692-5.8087191-17.95961536c-3.7251568 1.26923077-7.00834582 3.61730769-9.40759935 6.85384616z"/><path fill="#35BC4A" d="M205.28318905 22.1480769h18.81519875l-15.21631845-11.1057692c-1.13648852 1.5865385-2.02042403 3.3-2.65180654 5.2673077-.63138251 1.9673077-.94707376 3.9346154-.94707376 5.8384615z"/><path fill="#D1D1D1" d="M245.5653931 22.4653846c-.1894147 0-.3156912-.1269231-.3156912-.3173077 0-11.7403846-9.4707377-21.25961536-21.1513141-21.25961536s-21.15131404 9.58269226-21.15131404 21.25961536c0 .1903846-.1262765.3173077-.31569125.3173077-.18941475 0-.31569126-.1269231-.31569126-.3173077 0-12.0576923 9.78642885-21.89423075 21.78269655-21.89423075s21.7826966 9.83653845 21.7826966 21.89423075c0 .1903846-.1262765.3173077-.3156913.3173077z"/><path fill="#000" d="M230.3490746 18.7211538l6.0612721-1.5865384-.8207972-1.0788462.8207972-.3173077 3.7251568 1.3326923-2.272977 3.173077-.8839355.2538461.1262765-1.3961538-5.8718573 2.2211538-6.6295164 2.5384616-.505106-1.7134616-.505106-1.65z"/><g transform="translate(220.125707 18.220991)"><ellipse cx="3.9726811" cy="3.92708605" fill="#FFF" stroke="#D1D1D1" stroke-width="1.2" rx="3.8514333" ry="3.87115385"/><ellipse cx="3.9726811" cy="3.92708605" fill="#000" rx="2.52553004" ry="2.53846154"/></g></g></svg>
