<?xml version="1.0" encoding="utf-8"?>
<!-- Generator: Adobe Illustrator 27.9.0, SVG Export Plug-In . SVG Version: 6.00 Build 0)  -->
<svg version="1.1" id="Capa_1" xmlns="http://www.w3.org/2000/svg" xmlns:xlink="http://www.w3.org/1999/xlink" x="0px" y="0px"
	 viewBox="0 0 178 32" style="enable-background:new 0 0 178 32;" xml:space="preserve">
<style type="text/css">
	.st0{fill:#FFFFFF;}
</style>
<path class="st0" d="M34.9,3.8h-7c-3.2,8.1-6.4,16.3-9.5,24.4h6.8c0.6-1.4,1.1-2.8,1.7-4.3h8.9c0.5,1.4,1.1,2.8,1.6,4.3h6.9
	C41.1,20.1,38,11.9,34.9,3.8z M28.6,19.1c0.9-2.6,1.8-5.2,2.7-7.8c0.9,2.6,1.8,5.2,2.7,7.8H28.6z"/>
<path class="st0" d="M66.6,28.2h-6.4c-4-5-7.9-10-11.9-15v15h-6.4V3.8h6.4c4,5,7.9,10,11.9,14.9V3.8h6.4V28.2z"/>
<path class="st0" d="M80.8,10.7c-1-2.1-2.5-3.7-4.5-5c-2-1.3-4.1-1.9-6.5-1.9h-9.5v24.4h9.5c1.3,0,2.6-0.2,3.9-0.7
	c2.4-0.8,4.4-2.3,6-4.5s2.3-4.5,2.3-7.1C82.1,14.2,81.6,12.4,80.8,10.7L80.8,10.7z M73.9,20.4c-1.3,1.7-3.2,2.5-5.7,2.5h-1.5V9.1
	h1.5c2.5,0,4.4,0.8,5.7,2.5c1,1.3,1.4,2.7,1.4,4.4S74.9,19.2,73.9,20.4L73.9,20.4z"/>
<path class="st0" d="M93.9,3.8h-7c-3.2,8.1-6.4,16.3-9.5,24.4h6.8c0.6-1.4,1.1-2.8,1.7-4.3h8.9c0.5,1.4,1.1,2.8,1.6,4.3h6.9
	C100.1,20.1,97,11.9,93.9,3.8z M87.6,19.1c0.9-2.6,1.8-5.2,2.7-7.8c0.9,2.6,1.8,5.2,2.7,7.8H87.6z"/>
<path class="st0" d="M130.8,28.2h-6.4c-0.6-4.7-1.2-9.4-1.8-14c-2,4.7-4,9.4-6,14H114c-1.9-4.7-3.8-9.4-5.7-14
	c-0.7,4.7-1.4,9.4-2.1,14h-6.4c1.4-8.1,2.8-16.3,4.2-24.4h6.4c1.7,4.3,3.4,8.7,5,13c1.8-4.3,3.5-8.7,5.3-13h6.4
	C128.3,11.9,129.6,20.1,130.8,28.2z"/>
<path class="st0" d="M143.9,3.8h-7c-3.2,8.1-6.4,16.3-9.5,24.4h6.8c0.6-1.4,1.1-2.8,1.7-4.3h8.9c0.5,1.4,1.1,2.8,1.6,4.3h6.9
	C150.1,20.1,147,11.9,143.9,3.8L143.9,3.8z M137.6,19.1c0.9-2.6,1.8-5.2,2.7-7.8c0.9,2.6,1.8,5.2,2.7,7.8H137.6L137.6,19.1z"/>
<path class="st0" d="M177.8,32h-10.2c-2.3-3.5-4.6-6.9-6.9-10.4c-2.4,3.5-4.8,6.9-7.3,10.4h-10.2c4.2-5.7,8.5-11.4,12.7-17.1
	C152.4,10,149,5,145.5,0h10.4c1.6,2.8,3.2,5.5,4.8,8.3c1.7-2.8,3.4-5.5,5-8.3h10.4c-3.5,5-7.1,10-10.6,14.9
	C169.6,20.6,173.7,26.3,177.8,32L177.8,32z"/>
<path class="st0" d="M23.4,18.1c-0.9-1.5-2.7-2.5-5.3-3.1c1.2-0.7,2-1.5,2.6-2.4c0.7-1.1,1-2.5,1-4.2c0-5.6-3-8.3-9.1-8.3H0v32h13.5
	c4.1,0,7.1-1.1,9.1-3.3c1.4-1.5,2.1-3.4,2.1-5.8C24.7,21.1,24.3,19.4,23.4,18.1L23.4,18.1z M8.4,6.3H10c0.8,0,1.4,0.1,1.9,0.2
	c1.3,0.5,2,1.4,2,2.9c0,0.8-0.3,1.5-0.8,2.1c-0.6,0.7-1.7,1.1-3.1,1.1H8.4L8.4,6.3L8.4,6.3z M14.8,24.9c-0.9,0.5-2.4,0.8-4.5,0.8
	H8.4v-6.8h1.7c1.5,0,2.6,0,3.2,0.1c1.9,0.3,2.9,1.4,2.9,3.3C16.3,23.5,15.8,24.4,14.8,24.9L14.8,24.9z"/>
</svg>
