<svg width="172" height="24" xmlns="http://www.w3.org/2000/svg" xmlns:xlink="http://www.w3.org/1999/xlink"><defs><path id="a" d="M.033.866h12.87v12.57H.034z"/></defs><g fill="none" fill-rule="evenodd"><path fill="#6D6D6D" d="M55.501 17.243h-2.789V6.849h2.789zM73.39 17.243h-2.788V6.849h2.789zM88.976 17.243h-2.789V6.849h2.79zM42.818 17.243v-5.748c0-1.426 1.075-2.278 2.283-2.278 1.286 0 2.299.993 2.299 2.278v5.748h2.786V11.6c0-2.633-1.834-4.965-5.022-4.965-3.43 0-5.14 2.317-5.14 4.965v5.643h2.794zM106.833 17.243v-5.748c0-1.426 1.076-2.278 2.284-2.278 1.285 0 2.298.993 2.298 2.278v5.748h2.785V11.6c0-2.633-1.833-4.965-5.022-4.965-3.428 0-5.139 2.317-5.139 4.965v5.643h2.794zM63.047 13.195l2.85-6.345h2.9l-4.781 10.393h-1.928L57.306 6.85h2.891zM76.98 14.074c.708.642 1.802 1.027 2.849 1.027.751 0 1.33-.364 1.33-.876 0-1.563-5.037-1.006-5.037-4.355 0-1.993 1.93-3.236 3.986-3.236 1.354 0 2.83.513 3.518 1.049L82.32 9.699c-.538-.385-1.244-.704-1.997-.704-.768 0-1.415.297-1.415.83 0 1.353 5.038.814 5.038 4.421 0 1.99-1.947 3.214-4.135 3.214-1.436 0-2.961-.495-4.178-1.396l1.346-1.99zM96.515 14.885c1.63 0 2.742-1.267 2.742-2.826 0-1.566-1.111-2.852-2.742-2.852-1.626 0-2.747 1.286-2.747 2.852 0 1.56 1.12 2.826 2.747 2.826m0-8.25c3.15 0 5.525 2.423 5.525 5.424 0 3.002-2.375 5.401-5.525 5.401-3.151 0-5.54-2.399-5.54-5.4 0-3.002 2.389-5.426 5.54-5.426M34.955 6.85v5.75c0 1.423-1.086 2.279-2.298 2.279-1.28 0-2.296-.999-2.296-2.278V6.849h-2.785v5.645c0 2.627 1.829 4.966 5.02 4.966 3.429 0 5.142-2.316 5.142-4.966V6.85h-2.783z"/><g transform="translate(8.64 .094)"><mask id="b" fill="#fff"><use xlink:href="#a"/></mask><path d="M.033.866V13.422c.625 0 4.114.088 7.071-.175.745-.076 1.473-.171 2.166-.291 1.702-.323 3.136-.829 3.634-1.244V2.116C11.608 1.154 6.152.866.033.866" fill="#00C473" mask="url(#b)"/></g><path d="M21.544 11.967v-.16c-.498.415-1.932.921-3.634 1.243-.693.12-1.42.216-2.167.292-2.955.263-6.445.174-7.07.174v.213a61.893 61.893 0 0 0 .114 3.613c.082 1.243.218 2.408.434 3.379.241 1.087.583 1.933 1.061 2.382l.022.022a10.759 10.759 0 0 0 9.295-4.586c.703-1.002 1.238-2.313 1.567-3.68.246-.92.378-1.883.378-2.879l-.001.001V11.967" fill="#1D1DEA"/><path d="M10.282 23.103c-.478-.45-.82-1.295-1.061-2.382-.216-.971-.352-2.136-.434-3.38a50.875 50.875 0 0 1-.084-1.798l-.01-.401a61.843 61.843 0 0 1-.02-1.413v-.213c-2.837 0-5.295-.214-6.47-.428C.964 12.864.142 12.41 0 12.181c0 1.059.154 2.265.439 3.232a10.726 10.726 0 0 0 1.52 3.145 10.759 10.759 0 0 0 8.346 4.567l-.023-.022" fill="#ED1C24"/><path d="M.42 1.704a.42.42 0 0 0-.42.419v10.058c.142.228.965.683 2.202.907.191.036.416.07.67.104 1.313.174 3.424.324 5.8.324v-7.74C5.99 2.323 1.84 1.705.42 1.705" fill="#C626B6"/><path d="M118.578 14.528c.61.67 1.538 1.173 2.513 1.173.913 0 1.552-.563 1.552-1.34 0-1.37-1.979-1.538-3.41-2.374-.837-.487-1.507-1.219-1.507-2.42 0-1.904 1.75-3 3.517-3 1.081 0 2.085.26 3.09 1.004l-1.065 1.523c-.427-.396-1.142-.7-1.842-.7-.777 0-1.645.335-1.645 1.157 0 1.72 4.917 1.187 4.917 4.78 0 1.888-1.69 3.197-3.607 3.197-1.432 0-2.756-.594-3.852-1.599l1.34-1.4zM133.828 12.58H128.5v4.796h-2.056V6.719h2.056v4.035h5.328V6.719h2.055v10.657h-2.055zM143.108 15.7c2.01 0 3.501-1.643 3.501-3.653 0-2.008-1.492-3.654-3.501-3.654-2.01 0-3.502 1.646-3.502 3.654 0 2.01 1.493 3.654 3.502 3.654m0-9.134c3.288 0 5.556 2.451 5.556 5.48 0 3.03-2.268 5.48-5.556 5.48-3.288 0-5.557-2.45-5.557-5.48 0-3.029 2.269-5.48 5.557-5.48M149.191 6.72h2.07l2.208 6.652 2.344-6.653h1.447l2.344 6.653 2.207-6.653h2.07l-3.531 10.657h-1.446l-2.375-6.745-2.36 6.745h-1.446zM165.517 14.528c.61.67 1.538 1.173 2.512 1.173.913 0 1.553-.563 1.553-1.34 0-1.37-1.979-1.538-3.41-2.374-.837-.487-1.507-1.219-1.507-2.42 0-1.904 1.75-3 3.516-3 1.081 0 2.086.26 3.09 1.004l-1.065 1.523c-.427-.396-1.142-.7-1.842-.7-.776 0-1.644.335-1.644 1.157 0 1.72 4.917 1.187 4.917 4.78 0 1.888-1.69 3.197-3.608 3.197-1.431 0-2.756-.594-3.851-1.599l1.34-1.4z" fill="#A8A8A8"/></g></svg>