<?xml version="1.0" encoding="utf-8"?>
<!-- Generator: Adobe Illustrator 27.9.0, SVG Export Plug-In . SVG Version: 6.00 Build 0)  -->
<svg version="1.1" id="Capa_1" xmlns="http://www.w3.org/2000/svg" xmlns:xlink="http://www.w3.org/1999/xlink" x="0px" y="0px"
	 viewBox="0 0 122 34" style="enable-background:new 0 0 122 34;" xml:space="preserve">
<style type="text/css">
	.st0{clip-path:url(#SVGID_00000145036430322123647370000011871639568113238447_);}
	.st1{fill:#FFFFFF;}
	.st2{fill:#E02D00;}
</style>
<g>
	<defs>
		<rect id="SVGID_1_" width="122" height="34"/>
	</defs>
	<clipPath id="SVGID_00000175306972507751925940000004071810972538385289_">
		<use xlink:href="#SVGID_1_"  style="overflow:visible;"/>
	</clipPath>
	<g style="clip-path:url(#SVGID_00000175306972507751925940000004071810972538385289_);">
		<path d="M34,10.1c-2.4,0-4.5,1-6,2.6v-9h-3.1v23.2H28v-2.1c1.5,1.6,3.7,2.6,6,2.6c4.7,0,8.5-3.9,8.5-8.6S38.7,10.1,34,10.1z
			 M33.7,24.4c-3.2,0-5.7-2.6-5.7-5.7s2.6-5.7,5.7-5.7c3.2,0,5.7,2.6,5.7,5.7S36.9,24.4,33.7,24.4z"/>
		<path d="M46.7,10.5h-3.1v16.4h3.1V10.5z"/>
		<path d="M91,10.1c-2.4,0-4.4,0.9-6.1,2.5c-1.7,1.6-2.5,3.7-2.5,6.1s0.9,4.4,2.6,6.1c1.7,1.7,3.8,2.5,6.1,2.5
			c1.7,0,3.3-0.5,4.7-1.4c1.4-0.9,2.5-2.2,3.1-3.7l0.4-0.8H96l-0.2,0.3c-0.5,0.8-1.2,1.5-2,2c-0.8,0.5-1.7,0.7-2.7,0.7
			c-1.4,0-2.6-0.5-3.7-1.4c-0.9-0.8-1.4-1.7-1.7-2.8h14v-0.5c0.1-0.9,0.1-0.9,0.1-1c0-2.4-0.9-4.4-2.5-6.1
			C95.5,10.9,93.4,10.1,91,10.1z M85.6,17.2c0.3-1.1,0.9-2.1,1.7-2.8c1-0.9,2.2-1.4,3.7-1.4s2.6,0.5,3.7,1.4
			c0.9,0.8,1.5,1.7,1.7,2.8H85.6z"/>
		<path d="M55.7,10.1c-1.7,0-3.2,0.6-4.4,1.6v-1.2h-3.1v16.4h3.1v-9.8c0-2.2,1.8-4.1,4.1-4.1c2.2,0,4.1,1.8,4.1,4.1v9.8h3.1v-9.8
			C62.5,13.2,59.4,10.1,55.7,10.1z"/>
		<path d="M108.1,10.1c-2.5,0-4.2,2-4.2,2v-1.6h-3.1v16.4h3.1v-10c0.1-1,0.5-1.9,1.2-2.6c0.8-0.7,1.9-1.2,3-1.2V10.1z"/>
		<path d="M120.9,19.2c-0.6-0.8-1.3-1.3-2.1-1.5c-0.8-0.2-1.6-0.4-2.5-0.5c-0.9-0.1-1.7-0.3-2.4-0.4c-0.6-0.1-1.1-0.3-1.5-0.6
			c-0.4-0.3-0.5-0.8-0.5-1.4c0-0.5,0.3-0.9,0.8-1.3c0.6-0.4,1.4-0.6,2.4-0.6s1.8,0.2,2.4,0.6c0.5,0.4,0.8,0.8,0.8,1.4h3.1
			c0-1.4-0.6-2.7-1.7-3.6c-1.1-0.9-2.6-1.4-4.5-1.4c-1.7,0-3.2,0.4-4.4,1.2c-1.3,0.9-1.9,2.1-2,3.6c0,1.1,0.2,1.9,0.6,2.6
			c0.4,0.7,1,1.2,1.7,1.5c0.6,0.3,1.3,0.5,2.1,0.6c0.7,0.1,1.4,0.2,2.1,0.3c0.6,0.1,1.3,0.2,1.9,0.3c0.5,0.1,0.9,0.3,1.1,0.6
			c0.3,0.3,0.4,0.7,0.4,1.2c0,0.7-0.3,1.3-0.9,1.7c-0.7,0.4-1.6,0.6-2.8,0.6s-2.1-0.3-2.8-0.8c-0.6-0.5-0.9-1.1-0.9-1.9h-3.1
			c0,1.6,0.6,3,1.9,4c1.2,1,2.9,1.6,4.8,1.6c2.1,0,3.7-0.4,4.9-1.3c1.3-0.9,2-2.2,2-3.9C121.7,21,121.5,20,120.9,19.2z"/>
		<path d="M78.1,10.5v2.1c-1.5-1.6-3.7-2.6-6-2.6c-4.7,0-8.5,3.9-8.5,8.6s3.8,8.6,8.5,8.6c2.4,0,4.5-1,6-2.6v0.3
			c0,3.1-2.5,5.7-5.6,5.7c-2.3,0-4.2-1.4-5.1-3.4h-3.2c1,3.7,4.4,6.4,8.3,6.4c4.8,0,8.6-3.9,8.6-8.6V10.5H78.1z M72.4,24.4
			c-3.2,0-5.7-2.5-5.7-5.7s2.6-5.7,5.7-5.7s5.7,2.5,5.7,5.7S75.6,24.4,72.4,24.4z"/>
		<path class="st1" d="M13.8,11.5c-1.5-1.2-3.2-1.8-5.2-1.8S5,10.3,3.5,11.5c-1.2,1-2.2,2.2-3.1,3.5v0.5C1.3,16.8,2.2,18,3.5,19
			c1.5,1.2,3.2,1.8,5.2,1.8s3.7-0.6,5.2-1.8c1.2-1,2.2-2.2,3.1-3.5V15C16,13.7,15.1,12.5,13.8,11.5z"/>
		<path class="st2" d="M8.6,20.4c-4.2,0-6.2-2.7-7.9-5.1c1.7-2.3,3.7-5.1,7.9-5.1c4.2,0,6.2,2.7,7.9,5.1
			C14.9,17.6,12.8,20.4,8.6,20.4z M19.2,10.4c0-5.6-4.5-10.1-10.1-10.1H0.3v30.1h8.8c5.6,0,10.1-4.5,10.1-10.1
			c0-2.7-1.8-4.4-2.2-4.9C17.4,14.8,19.2,13.1,19.2,10.4z"/>
		<path d="M8.6,19.9c2.5,0,4.6-2.1,4.6-4.6s-2.1-4.6-4.6-4.6c-2.5,0-4.6,2.1-4.6,4.6S6.1,19.9,8.6,19.9z"/>
	</g>
</g>
</svg>
