<svg width="53" height="16" xmlns="http://www.w3.org/2000/svg" xmlns:xlink="http://www.w3.org/1999/xlink"><defs><path id="a" d="M0 0h52.9v16H0z"/></defs><g fill="none" fill-rule="evenodd"><path d="M4.7-1.9l55.7 55.7M11.3-1.9l55.8 55.7M18-1.9l55.7 55.7M24.6-1.9l55.7 55.7M31.2-1.9l55.7 55.7M37.8-1.9l55.7 55.7M44.4-1.9L100 53.8M51-1.9l55.7 55.7M-48.2-1.9L7.6 53.8M-41.6-1.9l55.8 55.7M-35-1.9l55.8 55.7M-28.3-1.9l55.7 55.7M-21.7-1.9L34 53.8M-15.1-1.9l55.7 55.7M-8.5-1.9l55.7 55.7M-1.9-1.9l55.7 55.7" stroke="#FFF" /></g></svg>
