<svg viewBox="0 0 108 6" xmlns="http://www.w3.org/2000/svg"><g fill="none" fill-rule="evenodd"><path d="M5.425 2.435v2.486A2.875 2.875 0 013.223 5.98C1.53 5.98.283 4.733.283 3.046.283 1.4 1.514.113 3.15.113c.81 0 1.579.334 2.073.88l-.543.538c-.332-.367-.923-.644-1.53-.644-1.158 0-2.057.929-2.057 2.16 0 1.287.923 2.159 2.13 2.159.599 0 1.093-.228 1.392-.53V3.21h-1.62v-.774h2.43zm3.612.774H8.39V5.9h-.81V.194h1.984c.518 0 .842.122 1.1.334a1.513 1.513 0 010 2.347c-.177.147-.38.253-.663.302l2.032 2.722h-.98l-2.016-2.69zm-.647-.774h1.133c.365 0 .55-.081.68-.212.13-.13.21-.318.21-.521a.742.742 0 00-.21-.522c-.13-.13-.315-.212-.68-.212H8.39v1.467zM17.516 5.9l-.6-1.467h-2.388l-.591 1.467h-.842L15.443.194h.567l2.348 5.705h-.842zm-1.79-4.36l-.874 2.118h1.749l-.875-2.118zm3.208-.57V.193h3.886v.774h-1.538v4.93h-.81V.969h-1.538zm5.636 4.93V.194h.81v5.705h-.81zm2.681-.872l.56-.555c.331.408.8.734 1.384.734.526 0 .988-.342.988-.856 0-.872-1.199-.97-1.952-1.467-.405-.269-.72-.66-.72-1.255 0-.83.728-1.515 1.716-1.515.72 0 1.223.317 1.522.57l-.477.595a1.552 1.552 0 00-1.013-.391c-.47 0-.939.269-.939.766 0 .725 1.207.88 1.935 1.369.381.252.737.652.737 1.304 0 1.002-.769 1.654-1.757 1.654a2.535 2.535 0 01-1.984-.953zm15.761-2.592h1.862v.774h-1.862v1.915h2.51V5.9h-3.32V.194h3.24v.774h-2.43v1.467zM51.685 5.9l-3.4-4.19V5.9h-.81V.194h.566l3.401 4.189V.194h.81v5.705h-.567zM61.825.194l-2.227 5.705h-.567L56.804.194h.842l1.668 4.303L60.982.194h.842zm1.709 5.705V.194h.81v5.705h-.81zm7.54-5.705l-2.228 5.705h-.566L66.053.194h.842l1.668 4.303L70.231.194h.842zm1.142 2.852c0-1.662 1.23-2.933 2.834-2.933 1.603 0 2.834 1.27 2.834 2.933 0 1.663-1.231 2.934-2.834 2.934-1.604 0-2.834-1.271-2.834-2.934zm.81 0c0 1.239.866 2.16 2.024 2.16s2.024-.921 2.024-2.16c0-1.23-.866-2.16-2.024-2.16s-2.025.93-2.025 2.16zm16.149-1.401l-.72-.237C88.753.333 89.62.113 90.121.113c.988 0 1.725.782 1.725 1.719 0 .66-.324 1.198-.737 1.67l-1.425 1.622h2.162V5.9h-3.401v-.53l1.935-2.225c.446-.513.656-.831.656-1.312 0-.489-.364-.945-.899-.945-.51 0-.818.318-.963.758zm4.057 2.868v-.53L96.147.194h.567v3.545h.89v.774h-.89V5.9h-.81V4.513h-2.672zm1.15-.774h1.522V1.816l-1.522 1.923zm5.126 2.16h-.801l2.64-5.705h.801l-2.64 5.705zm5.135 0h-.866l2.429-4.93h-2.591V.193h3.562v.53l-2.534 5.175z" fill="#FFF"/><path d="M36.457 1.742a1.038 1.038 0 010 2.074 1.037 1.037 0 010-2.074M83.067 1.742a1.038 1.038 0 010 2.074 1.037 1.037 0 010-2.074" fill="#929292"/></g></svg>
