<svg xmlns="http://www.w3.org/2000/svg" viewBox="0 0 100 23"><g fill="#FFF" fill-rule="evenodd"><path d="M60.7797211 0H49.3753246v2.54938673H60.686334c4.6145424.0480032 8.3358169 3.88617118 8.3358169 8.60926757 0 4.7241399-3.7212745 8.5623077-8.3358169 8.6092675h-8.7327123V8.79710607l-2.5782971-2.63391408V22.4320987h11.4023663c5.6742836 0 10.7314-4.0374855 10.7314-11.0845624C71.4989401 3.7922519 66.498668 0 60.7787059 0h.0010152z"/><path d="M61.0317553 6.18457473c3.0679346 0 4.9050515 2.38754325 4.9050515 5.07038787 0 2.8315425-2.1498823 5.0787653-4.9050515 5.0787653h-5.5933375v-3.9844746l-2.4980741-2.566609v9.1103624h7.7705488v-.0104717.0104717c4.0872055-.0471226 7.3930036-3.4745037 7.3930036-7.6956383 0-4.22008743-3.2966884-7.63804406-7.3930036-7.69459114v.01047168-.01047168H49.4412181v2.67237296l11.5905372.00942451zM0 0h22.3925821v2.61582589H0V0zm0 6.18457473h22.3925821V3.57817336H0v2.60640137zm11.6644269 3.56874885V22.5654251h2.5355249V12.3691495l-2.5355249-2.61582592zm-.9362717 12.75555452V8.78992894L8.19263028 6.18457473V22.5654251h2.53653712l-.0010122-.056547zM44.3246199 0v12.0288199c-.0455484 4.7300583-3.7926597 8.5448916-8.403165 8.5448916-4.6105055 0-8.3586286-3.8148333-8.404177-8.5448916V0h-2.5365372v12.0005463C24.9807407 17.8353669 28.9393986 23 35.8010048 23c7.383894 0 11.0672375-5.126935 11.0672375-10.9994537V0h-2.5446347.0010123z" fill-rule="nonzero"/><path d="M28.3766233 0v11.9577484h.0101409-.0101409c.0466481 4.1764156 3.3870454 7.5554398 7.5001758 7.5554398 4.1131305 0 7.443387-3.3696554 7.4991616-7.5554398h-.0101408.0101408V0h-2.5585375v12.1638626c0 3.1354346-2.3181991 5.0123233-4.9314974 5.0123233-2.7704813 0-4.9598916-2.18606-4.9598916-5.0123233V0h-2.5494109zm63.8529022.03747531V19.739081h-1.7766777L78.0303015 3.49145016h-.5070427V22.4320987h2.5494107V10.1464415l9.368121 12.2856572h5.3371316V.03747531h-2.5483966z" fill-rule="nonzero"/><path d="M91.333188 18.7846539V0h-2.5517066v11.8557599L79.7469792 0H74.062987v22.4320987h2.5517064V2.51921865h1.8980473L90.9363235 18.7846539h.3968645zM97.5500543 0c.9764286 0 1.7681275.80915301 1.7681275 1.80495343 0 .99684314-.7916989 1.80495343-1.7681275 1.80495343-.9729188.00288517-1.7642108-.80442093-1.7681275-1.80391072C95.7819268.80915301 96.5736257 0 97.5500543 0zm0 3.25329561c.7825638 0 1.417953-.64857368 1.417953-1.44834218 0-.79872578-.6353892-1.43895767-1.417953-1.43895767-.7835788 0-1.4189681.64961639-1.4189681 1.43895767 0 .7997685.6353893 1.44834218 1.4189681 1.44834218zm-.2395398-1.29714736v.8362638h-.4425392V.81853752h.6901991c.2405546 0 .3785943.05630704.4892292.1501521.1197699.10322957.1928498.26276619.1928498.44211453 0 .19707463-.0913499.35661125-.2486747.45045632-.03654.02815352-.0730799.03753803-.1197699.05630703l.5805792.86546005h-.4790793l-.5430243-.83730652h-.1197699v.01042722zm.2578099-.36703847c.1014998 0 .1471748-.01876901.1837146-.06569154.02842-.02815353.0375549-.06569156.0375549-.11261409 0-.04796525-.01015-.08550328-.0375549-.1136568-.0472264-.05199281-.1146286-.07953714-.1837146-.07507606h-.2578099v.35765398h.2578099v.00938451z" fill-rule="nonzero"/></g></svg>
