<svg width="19" height="24" xmlns="http://www.w3.org/2000/svg"><path d="M12.415 4.923c2.183.096 3.85.312 4.39.716l.004 6.151c-1.064.675-5.214.94-7.78.94l-.004-5.192-.003-2.683c.725.001 1.43.008 2.103.024L18.42 0H.822C.422 1.683 0 4.567 0 7.662c0 1.656.108 3.11.325 4.442l2.867-1.918V5.784v.002l-.001-.013c0-.147.12-.264.265-.264.862 0 3.338.37 5.016 2.4l.011.011-.101 4.81c-.76-.021-3.335-.127-5.19-.75v-.888l-2.71 1.813.03.138c.57 2.606 1.61 4.72 3.181 6.47 0 0 .586.656.924.987l2.746-1.837c-2.44-1.008-4.151-3.408-4.172-6.295.985.606 3.803.983 5.16 1.002.01 2.218.268 4.735 1.088 5.789a6.77 6.77 0 0 1-1.172-.194l-3.09 2.067.08.072C6.512 22.131 8.065 23.078 10 24c1.935-.922 3.488-1.87 4.743-2.896.165-.144.34-.309.535-.502.302-.274 1.03-1.09 1.03-1.09 1.57-1.748 2.611-3.863 3.18-6.469l.036-.162.138-.682c.052-.308.095-.624.135-.947l-3.067 2.053c-.47 3.339-3.247 5.86-6.645 5.862-.052 0-.103-.003-.152-.003-.778-1.09-.904-3.123-.906-5.803 2.715-.024 6.126-.112 7.713-.97l3.155-2.11c.068-.82.105-1.684.105-2.62 0-2.892-.37-5.6-.743-7.314l-6.842 4.576z" fill="#FFF" fill-rule="evenodd"/></svg>