<?xml version="1.0" encoding="UTF-8" standalone="no"?><svg xmlns="http://www.w3.org/2000/svg" width="25" height="29"><!--Generator: Sketch 49.3 (51167) - http://www.bohemiancoding.com/sketch--><title>tulip_univision</title><desc>Created with Sketch.</desc><g id="Page-1" fill="none" fill-rule="evenodd"><g id="tulip_univision" fill-rule="nonzero"><path id="Shape" fill="#FFF" d="M23.877.12c-.017-.058-.013-.092-.013-.092H1.008S1.005.06.995.12C.68 1.972.385 3.604.25 5.042.048 7.183.067 8.9.063 10.321a25.774 25.774 0 0 0 .306 3.978c.432 2.687 1.334 4.91 2.49 6.726 3.63 5.703 9.502 7.466 9.502 7.466s10.208-3.662 12.275-14.911c.2-1.09.22-2.245.25-3.48.02-.814.068-2.012-.04-3.306-.207-2.49-.597-5.363-.97-6.674"/><path id="path-7" fill="#00C473" d="M17.759 4.86l.036.003c2.608.243 2.973.771 2.973.771v7.908c-.253.17-.762.335-1.528.47a26.66 26.66 0 0 1-2.333.276c-.633.052-1.778.092-2.297.12-.52.03-1.974.043-2.195.05-.22.006-1.361.008-1.361.008l-.734.469.742-.005c1.902.035 4.688-.13 4.688-.13 4.41-.213 5.018-.797 5.018-.797-.02.512-.107.913-.107.913l-.042.221 3.78-2.427.028-.191.13-.49c.034-.224.051-4.923.034-5.255-.018-.333-.081-2.608-.448-4.332a25.102 25.102 0 0 0-.339-1.446c0-.003-.004-.008-.004-.008s-6.033 3.87-6.041 3.872"/><path id="path-9" fill="#C626B6" d="M1.31.326s-.039.141-.101.406C.946 1.933.227 5.667.309 10.18c.048 1.924.217 3.338.316 4.163l.014.097.047.333.012.073 3.429-2.202-.003-4.954s.114.328.192.503c.079.175.346.685.617 1.203.27.518.584 1.239.706 1.617 0 0 .366.91.46 1.942.07.778.07 1.056.065 1.145l.272.037h.182c.013-.002.006-.43.002-.541a13.912 13.912 0 0 0-.09-.922c-.03-.184-.136-.785-.185-.944 0 0-.137-.515-.159-.576-.021-.062-.295-.867-.426-1.14-.13-.276-.528-1.126-.625-1.283a28.162 28.162 0 0 1-.71-1.367c-.058-.142-.193-.414-.251-.686-.059-.271-.128-.568.08-.68.208-.11.53-.107.83-.09.3.017.653.076.838.117.184.041.507.125.747.202.24.076.615.22.694.261.078.042.588.26.806.389.218.13.434.239.76.454.325.214.673.483.764.56.092.077.489.42.632.576.142.156.25.269.25.269v4.75l.478-.003.007-8.87s2.228.01 3.276.047c1.049.037 2.046.106 2.046.106l6.91-4.44H1.31z"/><path id="path-12" fill="#ED1C24" d="M10.574 13.48l-.005-.002s.015.13-.88.35c-.894.22-1.71.304-2.517.308-.807.005-1.685-.125-1.685-.125a9 9 0 0 1-.573-.125c-.304-.074-.795-.27-.795-.27v-.002L.837 15.69v.005l.001.005c1.475 5.86 5.211 8.631 5.211 8.631l.112.103 4.358-2.802-.213-.048c-4.735-1.239-5.917-5.783-5.917-5.783-.27-.913-.268-1.74-.268-1.74.898.4 2.493.625 4.05.768.84.078 1.616.1 2.15.106h.01c.065-.002-.002-.003-.002-.003l.242-.151c.24-.164.484-.312.484-.312h.001v-1.3l-.482.31z"/><path id="path-14" fill="#1D1DEB" d="M24.257 13.815l-.05.032-3.903 2.492v.001l-.006.016c-1.956 5.586-7.063 5.505-7.984 5.536-.079.002-.122-.008-.122-.008-.479-.598-.653-1.325-.727-1.625-.075-.304-.262-1.436-.284-1.77-.022-.334-.105-1.923-.109-2.054-.004-.13-.018-1.97-.018-1.97l-.52.333-.214.137h.25c-.022.071.057 2.447.061 2.51.005.063.035 1.161.275 2.48.24 1.318.747 1.942.747 1.942-.006 0-.001.001-.001.001l-4.819 3.107.062.063c2.729 2.36 5.416 3.195 5.416 3.195.167-.069.326-.143.489-.216 9.418-4.19 11.225-12.81 11.458-14.202z"/></g></g></svg>