<?xml version="1.0" encoding="utf-8"?>
<!-- Generator: Adobe Illustrator 27.9.0, SVG Export Plug-In . SVG Version: 6.00 Build 0)  -->
<svg version="1.1" id="Capa_1" xmlns="http://www.w3.org/2000/svg" xmlns:xlink="http://www.w3.org/1999/xlink" x="0px" y="0px"
	 viewBox="0 0 140 32" style="enable-background:new 0 0 140 32;" xml:space="preserve">
<style type="text/css">
	.st0{fill:#242424;}
</style>
<path class="st0" d="M2.4,0H0v17.9c0,3.6,1.3,6.9,3.6,9.4c-0.8-2.5-1.2-5.1-1.2-7.8V0z"/>
<path class="st0" d="M7.1,0H4.7l0,19.2c0,4.1,1,7.9,2.9,11.3c1.2,0.6,2.5,1.1,3.9,1.4c-2.8-3.6-4.4-8.1-4.4-12.9V0z"/>
<path class="st0" d="M11.8,18.2V0H9.4v18.5c0,5.3,2.2,10,5.7,13.5c1.1-0.1,2.2-0.3,3.3-0.6C14.4,28.4,11.8,23.6,11.8,18.2z"/>
<path class="st0" d="M25.9,0L25.9,0l0,19.5c0,2.7-0.4,5.3-1.2,7.8c2.2-2.5,3.6-5.8,3.6-9.4V0H25.9z"/>
<path class="st0" d="M21.2,0L21.2,0l0,18.9c0,3.5-0.8,6.7-2.3,9.6c0.6,0.6,1.3,1.1,2,1.5c1.7-3.2,2.6-6.9,2.6-10.8l0-19.2L21.2,0
	L21.2,0z"/>
<path class="st0" d="M18.8,18.5V0h-2.4v18.2c0,2-0.4,3.9-1,5.7c0.4,0.9,1,1.8,1.6,2.6C18.2,24.1,18.8,21.4,18.8,18.5"/>
<path class="st0" d="M44.8,9h2.7v7.8c0,4.4-1.8,5.9-5.9,6c-4,0-5.9-1.6-5.9-6V9h2.7v7.9c0,2.5,0.9,3.5,3.2,3.5s3.2-0.9,3.2-3.5V9z"
	/>
<path class="st0" d="M59.8,22.5l-6.9-8.6v8.6h-2.7V9h2.2l6.9,8.9V9h2.7v13.5H59.8L59.8,22.5z"/>
<path class="st0" d="M64.6,22.5V9h2.7v13.5H64.6z"/>
<path class="st0" d="M83.3,21.3c0,0-2,1.7-6,1.7c-5.4,0-7.5-3.3-7.5-7.1c0-4.1,2.6-6.9,7.5-6.9c3.6,0,5.2,1.3,5.2,1.3l-1.1,2.3
	c0,0-1.2-1.2-4.2-1.2s-4.7,1.7-4.7,4.5c0,2.7,1.5,4.7,4.8,4.7c3,0,5.1-1.6,5.1-1.6L83.3,21.3L83.3,21.3z"/>
<path class="st0" d="M96.8,22.5l-1.2-3H90l-1.1,3H86L91.3,9h3l5.4,13.5H96.8L96.8,22.5z M92.8,12l-2,5.2h4L92.8,12z"/>
<path class="st0" d="M102.3,22.5V9h6.2c3.1,0,4.3,1.4,4.3,3.4s-1.1,2.8-2.2,3.2c2.1,0.4,2.9,1.4,2.9,3.3c0,2.3-1.9,3.6-4.8,3.6
	H102.3z M105,11.4v3.3h3.3c0.9,0,1.8-0.6,1.8-1.8c0-0.9-0.6-1.5-1.8-1.5L105,11.4L105,11.4z M105,16.7v3.4h3.7
	c1.4,0,2.1-0.5,2.1-1.6c0-1.2-0.9-1.7-2.3-1.7H105L105,16.7z"/>
<path class="st0" d="M116.2,22.5V9h2.7v11.1h7.5v2.4H116.2z"/>
<path class="st0" d="M129.1,22.5V9h10.8v2.4h-8v3.3h6.4v2.2h-6.4v3.2h8v2.4L129.1,22.5L129.1,22.5z"/>
</svg>
