<svg xmlns="http://www.w3.org/2000/svg" viewBox="0 0 133 27"><g fill="none" fill-rule="evenodd"><path fill="#FFF" d="M64.1896889 19.214479h-3.2258766V7.1945284h3.2258766zM84.8805136 19.214479H81.654637V7.1945284h3.2258766zM102.905877 19.214479H99.68V7.1945284h3.225877zM49.5207309 19.214479v-6.6494815c0-1.6481975 1.2430617-2.63269133 2.6409876-2.63269133 1.4878025 0 2.658963 1.14765433 2.658963 2.63269133v6.6494815h3.2217284v-6.5264197c0-3.0461235-2.1210864-5.74241979-5.8074074-5.74241979-3.9670124 0-5.945679 2.6797037-5.945679 5.74241979v6.5264197h3.2314074zM123.557985 19.214479v-6.6494815c0-1.6481975 1.244445-2.63269133 2.640988-2.63269133 1.487802 0 2.658963 1.14765433 2.658963 2.63269133v6.6494815h3.220345v-6.5264197c0-3.0461235-2.119703-5.74241979-5.807407-5.74241979-3.96563 0-5.944296 2.6797037-5.944296 5.74241979v6.5264197h3.231407zM72.9176691 14.5332938l3.2963951-7.33945676h3.3544691L74.0376691 19.2151704h-2.2289382L66.276484 7.19383704h3.3447901zM89.031842 15.5497284c.8185679.7425185 2.0851358 1.1877531 3.2936296 1.1877531.8697284 0 1.538963-.4217284 1.538963-1.0135309 0-1.8072099-5.824-1.1628642-5.824-5.0358518 0-2.3063704 2.230321-3.74301238 4.6085926-3.74301238 1.5652345 0 3.2715061.59318518 4.0679506 1.21264198l-1.5071605 2.3312593c-.6222222-.4452346-1.4407901-.81303708-2.3105185-.81303708-.8890865 0-1.6357531.34153088-1.6357531.95960498 0 1.5638518 5.8267654.9416296 5.8267654 5.1119012 0 2.3022222-2.2538271 3.7181234-4.7841975 3.7181234-1.660642 0-3.423605-.5724444-4.8312099-1.6136296l1.5569383-2.3022222zM111.624316 16.4873481c1.886025 0 3.171951-1.4642962 3.171951-3.2687407 0-1.811358-1.285926-3.29777777-3.171951-3.29777777-1.880494 0-3.177481 1.48641977-3.177481 3.29777777 0 1.8044445 1.296987 3.2687407 3.177481 3.2687407m0-9.54212341c3.64484 0 6.389531 2.80276543 6.389531 6.27338271 0 3.472-2.744691 6.2471111-6.389531 6.2471111-3.644839 0-6.406123-2.7751111-6.406123-6.2471111 0-3.47061728 2.761284-6.27338271 6.406123-6.27338271M40.4271605 7.19411358v6.65224692c0 1.6454321-1.2555062 2.6340741-2.6575803 2.6340741-1.4795061 0-2.6561975-1.1545679-2.6561975-2.6340741V7.19411358h-3.2217284V13.721916c0 3.0392099 2.1155556 5.7438025 5.8087901 5.7438025 3.9628642 0 5.9456791-2.6797037 5.9456791-5.7438025V7.19411358h-3.218963z"/><path d="M10.0302222.38271605V14.904c.7231605 0 4.7593087.102321 8.1787655-.2018765.8614321-.0884939 1.7035061-.1977284 2.5054814-.3373828 1.967605-.3719506 3.6268642-.9568395 4.2020741-1.4380247V1.82903704C23.417679.71733334 17.106963.38271604 10.0302222.38271604" fill="#00C473"/><path d="M24.9165432 13.1122765v-.1852839c-.5752099.4811852-2.2344691 1.0660741-4.2020741 1.4380247-.8019753.1396543-1.6440493.2488889-2.5054814.336-3.4194568.3055802-7.455605.2032592-8.1787655.2032592v.2475062c.0013827.5752099.0082963 1.071605.0235062 1.631605.0027654.1493333.0069136.3028148.0124444.4645925.0207408.7051852.0511605 1.4034568.0967902 2.0809877.0940247 1.4380247.2516543 2.7847901.5019259 3.9075556.2779259 1.2582716.6733827 2.2358518 1.2264691 2.755753.0082963.0082963.0165926.0165926.0262716.0248889.1797531.0069136.3595062.0110618.540642.0110618 4.2228148 0 7.9547654-2.1003457 10.2085926-5.3151605.813037-1.1587161 1.4324938-2.6741729 1.8141235-4.2573827.2834567-1.0605433.4355555-2.1763951.4355555-3.3281976-.0013827 0-.0013827.0013827-.0013827.0013827v-.0152098l.0013827-.0013828" fill="#1D1DEA"/><path d="M11.8909432 25.9917235c-.5530864-.5185186-.9471605-1.4974815-1.2264691-2.7543704-.2488889-1.1241482-.4065185-2.4709136-.501926-3.9075556-.0442469-.6789135-.0760493-1.3771852-.0967901-2.0823703-.0041481-.1603951-.0082963-.3138766-.0124444-.4632099-.0138272-.56-.0207408-1.0563951-.0221235-1.6329877-.0013827-.0801975-.0013827-.1631605-.0013827-.2475061-3.28118518 0-6.12266666-.2461235-7.48325925-.4936297-1.4297284-.2599506-2.38241975-.7867654-2.54696296-1.0508642 0 1.2250864.17698765 2.6202469.50745679 3.7388642.38716049 1.3163457.98725925 2.5414321 1.75881481 3.637926 2.15703704 3.0640987 5.66083951 5.1105185 9.65135801 5.2819753l-.0262716-.0262716" fill="#ED1C24"/><path d="M.48491852 1.24235062c-.26824692 0-.48533333.21708642-.48533333.48395061V13.3590914c.1645432.2654814 1.11723456.7909135 2.54696296 1.0508642.22123457.0400987.48118518.0801975.77432099.1189135 1.51822222.2018766 3.96009876.3747161 6.70893826.3747161v-8.950321C6.92699259 1.95721481 2.12620247 1.24235062.48491852 1.24235062" fill="#C626B6"/></g></svg>
