<svg xmlns="http://www.w3.org/2000/svg" viewBox="0 0 128 26"><g fill="none" fill-rule="evenodd"><path fill="#6D6D6D" d="M61.8972 18.4925333h-3.1106667V6.90186667H61.8972zM81.8490667 18.4925333H78.7384V6.90186667h3.1106667zM99.2306667 18.4925333H96.12V6.90186667h3.1106667zM47.7521333 18.4925333v-6.412c0-1.5893333 1.1986667-2.53866663 2.5466667-2.53866663 1.4346667 0 2.564 1.10666663 2.564 2.53866663v6.412h3.1066667V12.1992c0-2.93733333-2.0453334-5.53733333-5.6-5.53733333-3.8253334 0-5.7333334 2.584-5.7333334 5.53733333v6.2933333h3.116zM119.1452 18.4925333v-6.412c0-1.5893333 1.2-2.53866663 2.546667-2.53866663 1.434666 0 2.564 1.10666663 2.564 2.53866663v6.412h3.105333V12.1992c0-2.93733333-2.044-5.53733333-5.6-5.53733333-3.824 0-5.732 2.584-5.732 5.53733333v6.2933333h3.116zM70.3134667 13.9785333L73.4921333 6.9012H76.7268l-5.3333333 11.592h-2.1493334l-5.3346666-11.592H67.1348zM85.8521333 14.9586667c.7893334.716 2.0106667 1.1453333 3.176 1.1453333.8386667 0 1.484-.4066667 1.484-.9773333 0-1.7426667-5.616-1.1213334-5.616-4.856 0-2.22400003 2.1506667-3.60933337 4.444-3.60933337 1.5093334 0 3.1546667.572 3.9226667 1.16933334l-1.4533333 2.24800003c-.6-.42933337-1.3893334-.78400003-2.228-.78400003-.8573334 0-1.5773334.32933333-1.5773334.92533333 0 1.508 5.6186667.908 5.6186667 4.9293333 0 2.22-2.1733333 3.5853334-4.6133333 3.5853334-1.6013334 0-3.3013334-.552-4.6586667-1.556l1.5013333-2.22zM107.637733 15.8628c1.818667 0 3.058667-1.412 3.058667-3.152 0-1.7466667-1.24-3.18-3.058667-3.18-1.813333 0-3.064 1.4333333-3.064 3.18 0 1.74 1.250667 3.152 3.064 3.152m0-9.20133333c3.514667 0 6.161334 2.70266666 6.161334 6.04933333 0 3.348-2.646667 6.024-6.161334 6.024-3.514666 0-6.177333-2.676-6.177333-6.024 0-3.34666667 2.662667-6.04933333 6.177333-6.04933333M38.9833333 6.90146667v6.41466663c0 1.5866667-1.2106666 2.54-2.5626666 2.54-1.4266667 0-2.5613334-1.1133333-2.5613334-2.54V6.90146667h-3.1066666v6.29466663c0 2.9306667 2.04 5.5386667 5.6013333 5.5386667 3.8213333 0 5.7333333-2.584 5.7333333-5.5386667V6.90146667h-3.104z"/><path d="M9.672.33333333V14.336c.6973333 0 4.5893333.0986667 7.8866667-.1946667.8306666-.0853333 1.6426666-.1906666 2.416-.3253333 1.8973333-.3586667 3.4973333-.9226667 4.052-1.3866667V1.728C22.5813333.656 16.496.33333333 9.672.33333333" fill="#00C473"/><path d="M24.0266667 12.6082667V12.4296c-.5546667.464-2.1546667 1.028-4.052 1.3866667-.7733334.1346666-1.5853334.24-2.416.324-3.2973334.2946666-7.1893334.196-7.8866667.196v.2386666c.00133333.5546667.008 1.0333334.02266667 1.5733334.00266666.144.00666666.292.012.448.02.68.04933333 1.3533333.09333333 2.0066666.09066667 1.3866667.2426667 2.6853334.484 3.768.268 1.2133334.6493333 2.156 1.1826667 2.6573334.008.008.016.016.0253333.024.1733333.0066666.3466667.0106666.5213333.0106666 4.072 0 7.6706667-2.0253333 9.844-5.1253333.784-1.1173333 1.3813334-2.5786667 1.7493334-4.1053333.2733333-1.0226667.42-2.0986667.42-3.2093334-.0013334 0-.0013334.0013334-.0013334.0013334V12.6096l.0013334-.0013333" fill="#1D1DEA"/><path d="M11.4662667 25.0277333c-.5333334-.5-.9133334-1.444-1.1826667-2.656-.24-1.084-.392-2.3826666-.484-3.768-.04266667-.6546666-.07333333-1.328-.09333333-2.008-.004-.1546666-.008-.3026666-.012-.4466666-.01333334-.54-.02-1.0186667-.02133334-1.5746667C9.6716 14.4970667 9.6716 14.4170667 9.6716 14.3357333c-3.164 0-5.904-.2373333-7.216-.476-1.37866667-.2506666-2.29733333-.7586666-2.456-1.0133333 0 1.1813333.17066667 2.5266667.48933333 3.6053333.37333334 1.2693334.952 2.4506667 1.696 3.508 2.08 2.9546667 5.45866667 4.928 9.30666667 5.0933334-.008-.008-.0173333-.0173334-.0253333-.0253334" fill="#ED1C24"/><path d="M.4676 1.16226667c-.25866667 0-.468.20933333-.468.46666666V12.8462667c.15866667.256 1.07733333.7626666 2.456 1.0133333.21333333.0386667.464.0773333.74666667.1146667 1.464.1946666 3.81866666.3613333 6.46933333.3613333V5.70493333C6.6796 1.8516 2.05026667 1.16226667.4676 1.16226667" fill="#C626B6"/></g></svg>
