<?xml version="1.0" encoding="UTF-8"?><svg width="303" height="303" xmlns="http://www.w3.org/2000/svg" xmlns:xlink="http://www.w3.org/1999/xlink"><defs><circle id="a" cx="151.5" cy="151.5" r="151.5"/></defs><g fill="none" fill-rule="evenodd"><mask id="b" fill="#fff"><use xlink:href="#a"/></mask><use fill="#F5F5F5" xlink:href="#a"/><path d="M275.4632 278.0802s-11.7463-8.6158-54.7943-21.9205c-8.8972-2.7493-17.2745-7.0124-24.6839-12.6696-1.6196-1.2367-3.1952-2.4919-4.7184-3.7642-1.2649-1.0577-2.0451-2.58-2.156-4.2282-.1868-2.7848-.474-7.4896-.63-12.2332-.2243-6.7971-.1804-13.6726.8104-15.0897 0 0 1.6609-2.0187 3.7348-5.1563 2.6287-3.9748 4.3644-8.4775 5.1073-13.1895.5396-3.416 1.0439-7.699 1.0439-11.7507 0 0 4.4345 1.6955 6.9681-2.5433 0 0 .6354-2.871 1.3816-4.772.611-1.5572 1.0268-3.1777 1.1907-4.8429.303-3.0863.9344-7.6528 2.1645-10.4468 1.4576-3.3134 1.8884-7.0118 1.1186-10.5502-.7495-3.4476-2.4641-6.2838-6.2777-4.5712 0 0 .177-1.0241.6747-2.6637 1.8688-6.1653 2.9487-12.5418 3.0635-18.9849.0708-3.9979.358-8.3209 1.118-11.627l-.16.0336c.6353-4.7996.8261-12.7584-1.1797-25.0436-2.6739-16.3791-24.493-19.499-24.493-19.499.2118-10.385-11.4013-10.5969-11.4013-10.5969l-6.5459-.8477c1.0563-2.7552-9.9234-1.0597-9.9234-1.0597-18.1583-7.2066-36.95 6.782-36.95 6.782-11.1909 3.391-19.0029 15.684-19.0029 15.684-2.805 0-5.416 10.5845-7.1884 20.0368-1.3842 7.3803-1.7488 14.9048-1.3291 22.4036.1049 1.881.1475 3.7806.152 5.5663.0145 5.405.878 10.7773 2.636 15.8862.8124 2.3622 1.0839 3.93 1.0839 3.93-3.8201-1.7152-5.5341 1.1334-6.2816 4.589-.764 3.5298-.3397 7.219 1.1186 10.5212 1.2334 2.796 1.8661 7.377 2.1697 10.4666.1613 1.6468.5632 3.254 1.1724 4.791.7534 1.9002 1.3986 4.8153 1.3986 4.8153 2.5336 4.2388 6.9675 2.5433 6.9675 2.5433 0 4.0518 3.523 20.9654 6.1511 24.9402 2.074 3.1376 3.7355 5.1563 3.7355 5.1563.9908 1.417 1.0347 8.2926.8111 15.0897-.1567 4.7436-.4432 9.4484-.63 12.2332-.1109 1.6481-.8918 3.1705-2.1567 4.2282-1.5232 1.2723-3.0995 2.5275-4.7184 3.7642-7.4094 5.6572-15.7867 9.9203-24.6832 12.6696-43.0487 13.3047-54.795 21.9205-54.795 21.9205S18.5648 283.3194 11 316h280c-7.5648-32.6806-15.5368-37.9198-15.5368-37.9198" fill="#D2D2D2" mask="url(#b)"/></g></svg>
