<svg xmlns="http://www.w3.org/2000/svg" width="133" height="30"><g fill="#FFF"><path d="M81.54.03H66.3v3.33h15.1c6.18.06 11.16 5.07 11.16 11.25S87.58 25.8 81.4 25.87H69.75V11.52L66.3 8.08v21.26h15.24c7.58 0 14.34-5.28 14.34-14.5C95.88 5 89.18.05 81.54.05zM81.83 8.08c4.1 0 6.58 3.1 6.58 6.6 0 3.7-2.87 6.62-6.57 6.62h-7.5v-5.2l-3.35-3.34v11.87H81.4c5.48-.06 9.9-4.53 9.9-10.02 0-5.5-4.4-9.94-9.9-10H66.3v3.47h15.53zM0 .03h30.02v3.4H0zm0 8.05h30.02v-3.4H0zm15.64 4.64v16.7h3.4V16.1zm-1.26 16.62V11.47l-3.4-3.4v21.34h3.4zM59.43.02V15.7c-.06 6.15-5.1 11.12-11.27 11.12S36.96 21.85 36.9 15.7V.02h-3.4v15.62c0 7.6 5.3 14.33 14.5 14.33 9.9 0 14.84-6.68 14.84-14.33V.02h-3.4zM38.1.03V15.7h.03-.02c.08 5.46 4.55 9.9 10.05 9.9 5.5 0 9.96-4.43 10.04-9.9h-.03.02V.02h-3.44v15.93c0 4.1-3.1 6.56-6.6 6.56-3.7 0-6.63-2.86-6.63-6.56V.02H38.1zm85.47.04v25.8h-2.38L104.55 4.6h-.67v24.8h3.4V13.33l12.53 16.1h7.15V.06zM122.32 24.64V.07h-3.4v15.5L106.8.08h-7.6V29.4h3.42V3.38h2.54l16.6 21.27zM130.64.07A2.36 2.36 0 0 1 133 2.43c0 1.3-1.06 2.37-2.36 2.37a2.36 2.36 0 0 1-2.37-2.36c0-1.3 1.06-2.37 2.37-2.37zm0 4.26a1.9 1.9 0 0 0 1.9-1.9c0-1.04-.86-1.88-1.9-1.88a1.9 1.9 0 0 0-1.9 1.88c0 1.05.85 1.9 1.9 1.9zm-.32-1.7v1.1h-.6v-2.6h.93c.32 0 .5.1.65.2.16.14.26.35.26.6a.66.66 0 0 1-.33.58c-.05.04-.1.06-.16.08l.77 1.13h-.64l-.72-1.08h-.16zm.34-.48c.14 0 .2-.02.25-.08.04-.04.06-.1.06-.15 0-.06-.02-.1-.05-.15a.3.3 0 0 0-.24-.1h-.34v.47h.34z"/></g></svg>
