<svg width="133" height="30" viewBox="0 0 133 30" fill="none" xmlns="http://www.w3.org/2000/svg">
<g clip-path="url(#clip0_1_2)">
<path d="M81.54 0.0300005H66.3V3.36H81.4C87.58 3.42 92.56 8.43 92.56 14.61C92.56 20.79 87.58 25.8 81.4 25.87H69.75V11.52L66.3 8.08V29.34H81.54C89.12 29.34 95.88 24.06 95.88 14.84C95.88 5 89.18 0.0500005 81.54 0.0500005V0.0300005ZM81.83 8.08C85.93 8.08 88.41 11.18 88.41 14.68C88.41 18.38 85.54 21.3 81.84 21.3H74.34V16.1L70.99 12.76V24.63H81.4C86.88 24.57 91.3 20.1 91.3 14.61C91.3 9.11 86.9 4.67 81.4 4.61H66.3V8.08H81.83ZM0 0.0300005H30.02V3.43H0V0.0300005ZM0 8.08H30.02V4.68H0V8.08ZM15.64 12.72V29.42H19.04V16.1L15.64 12.72ZM14.38 29.34V11.47L10.98 8.07V29.41H14.38V29.34ZM59.43 0.0200005V15.7C59.37 21.85 54.33 26.82 48.16 26.82C41.99 26.82 36.96 21.85 36.9 15.7V0.0200005H33.5V15.64C33.5 23.24 38.8 29.97 48 29.97C57.9 29.97 62.84 23.29 62.84 15.64V0.0200005H59.44H59.43ZM38.1 0.0300005V15.7H38.13H38.11C38.19 21.16 42.66 25.6 48.16 25.6C53.66 25.6 58.12 21.17 58.2 15.7H58.17H58.19V0.0200005H54.75V15.95C54.75 20.05 51.65 22.51 48.15 22.51C44.45 22.51 41.52 19.65 41.52 15.95V0.0200005H38.1V0.0300005ZM123.57 0.0700005V25.87H121.19L104.55 4.6H103.88V29.4H107.28V13.33L119.81 29.43H126.96V0.0600005L123.57 0.0700005ZM122.32 24.64V0.0700005H118.92V15.57L106.8 0.0800005H99.2V29.4H102.62V3.38H105.16L121.76 24.65L122.32 24.64ZM130.64 0.0700005C130.95 0.0700005 131.257 0.131044 131.543 0.249645C131.829 0.368246 132.09 0.542082 132.309 0.761229C132.528 0.980375 132.702 1.24054 132.82 1.52687C132.939 1.8132 133 2.12008 133 2.43C133 3.73 131.94 4.8 130.64 4.8C130.329 4.80132 130.021 4.74125 129.734 4.62323C129.446 4.50522 129.185 4.3316 128.965 4.11232C128.745 3.89304 128.57 3.63243 128.451 3.34545C128.331 3.05847 128.27 2.75076 128.27 2.44C128.27 1.14 129.33 0.0700005 130.64 0.0700005ZM130.64 4.33C130.89 4.33 131.137 4.28086 131.367 4.18537C131.598 4.08989 131.807 3.94993 131.984 3.7735C132.16 3.59707 132.3 3.38762 132.395 3.1571C132.491 2.92658 132.54 2.67951 132.54 2.43C132.54 1.39 131.68 0.55 130.64 0.55C130.14 0.549973 129.659 0.747403 129.304 1.09941C128.948 1.45141 128.745 1.92956 128.74 2.43C128.74 3.48 129.59 4.33 130.64 4.33ZM130.32 2.63V3.73H129.72V1.13H130.65C130.97 1.13 131.15 1.23 131.3 1.33C131.46 1.47 131.56 1.68 131.56 1.93C131.561 2.04728 131.532 2.16284 131.474 2.26478C131.416 2.36672 131.332 2.45137 131.23 2.51C131.18 2.55 131.13 2.57 131.07 2.59L131.84 3.72H131.2L130.48 2.64H130.32V2.63ZM130.66 2.15C130.8 2.15 130.86 2.13 130.91 2.07C130.95 2.03 130.97 1.97 130.97 1.92C130.97 1.86 130.95 1.82 130.92 1.77C130.89 1.7364 130.853 1.70996 130.811 1.69265C130.77 1.67534 130.725 1.6676 130.68 1.67H130.34V2.14H130.68L130.66 2.15Z" fill="#007350"/>
</g>
<defs>
<clipPath id="clip0_1_2">
<rect width="133" height="30" fill="white"/>
</clipPath>
</defs>
</svg>
