<svg width="73" height="16" xmlns="http://www.w3.org/2000/svg"><g fill-rule="nonzero" fill="#000"><path d="M44.73.013h-8.345V1.79h8.278c3.377.033 6.1 2.708 6.1 6s-2.723 5.967-6.1 6h-6.39V6.144l-1.888-1.836v11.338h8.345c4.152 0 7.853-2.813 7.853-7.725C52.576 2.656 48.916.013 44.73.013z"/><path d="M44.892 4.308c2.251 0 3.6 1.66 3.6 3.522 0 1.967-1.578 3.527-3.6 3.527h-4.105V8.59l-1.833-1.783v6.327h5.702v-.006.006c3-.032 5.426-2.413 5.426-5.344 0-2.931-2.42-5.305-5.426-5.344v.006-.006h-8.27V4.302l8.506.006zM.101.013h16.433v1.816H.101zM.101 4.308H16.535v-1.81H.1zM8.662 6.787v8.899h1.86V8.602zM7.974 15.646V6.118l-1.86-1.81v11.377h1.86zM32.63.013v8.354c-.033 3.285-2.783 5.935-6.167 5.935-3.383 0-6.133-2.65-6.167-5.935V.013h-1.86v8.335c0 4.052 2.905 7.639 7.94 7.639 5.42 0 8.122-3.56 8.122-7.64V.014h-1.867z"/><path d="M20.963.013v8.354h.007-.007c.034 2.918 2.48 5.279 5.494 5.279 3.013 0 5.453-2.354 5.493-5.279h-.007.007V.013h-1.874v8.498c0 2.19-1.698 3.502-3.613 3.502-2.029 0-3.633-1.528-3.633-3.502V.013h-1.867zM67.736.04v13.763h-1.301l-9.1-11.35h-.37v13.232h1.866V7.102l6.862 8.583h3.91V.04z"/><path d="M67.055 13.141V.039h-1.867v8.27L58.575.038h-4.159v15.646h1.867V1.797h1.389l9.093 11.344zM71.605.04c.714 0 1.294.563 1.294 1.258 0 .695-.58 1.26-1.294 1.26-.715 0-1.295-.565-1.295-1.26 0-.695.58-1.259 1.295-1.259zm0 2.268c.573 0 1.038-.452 1.038-1.01 0-.557-.465-1.003-1.038-1.003s-1.038.453-1.038 1.003c0 .558.465 1.01 1.038 1.01zm-.176-.905v.584h-.323V.61h.505c.176 0 .277.04.358.105a.396.396 0 0 1 .141.308c0 .138-.067.25-.182.315-.027.02-.054.026-.088.039l.425.603h-.35l-.398-.583h-.088v.006zm.189-.255c.074 0 .108-.014.135-.046.02-.02.027-.046.027-.079s-.007-.06-.027-.079a.17.17 0 0 0-.135-.052h-.189v.249h.189v.007z"/></g></svg>
