<?xml version="1.0" encoding="UTF-8"?>
<svg width="174px" height="112px" viewBox="0 0 174 112" version="1.1" xmlns="http://www.w3.org/2000/svg" xmlns:xlink="http://www.w3.org/1999/xlink">
    <!-- Generator: Sketch 48.2 (47327) - http://www.bohemiancoding.com/sketch -->
    <title>Group 3</title>
    <desc>Created with Sketch.</desc>
    <defs>
        <linearGradient x1="5.54434384%" y1="8.14079264%" x2="111.617073%" y2="100%" id="linearGradient-1">
            <stop stop-color="#863699" offset="0%"></stop>
            <stop stop-color="#F77957" offset="100%"></stop>
        </linearGradient>
    </defs>
    <g id="1280-Calculadora_del_amor_1_V3" stroke="none" stroke-width="1" fill="none" fill-rule="evenodd" transform="translate(-20.000000, -78.000000)">
        <g id="Group-3" transform="translate(20.000000, 78.000000)" fill="url(#linearGradient-1)" fill-rule="nonzero">
            <path d="M59.9533679,112 L51.2601295,103.943324 C20.3841451,75.439782 0,56.6408719 0,33.5694823 C0,14.7705722 14.508715,0 32.9743523,0 C43.4062383,0 53.4184508,4.94386921 59.9533679,12.7564033 C66.488285,4.94386921 76.5004974,0 86.9323834,0 C105.398021,0 119.906736,14.7705722 119.906736,33.5694823 C119.906736,56.6408719 99.5225907,75.439782 68.6466062,104.00436 L59.9533679,112 Z" id="Shape"></path>
            <path d="M114.046632,112 L105.353394,103.943324 C74.4774093,75.439782 54.0932642,56.6408719 54.0932642,33.5694823 C54.0932642,14.7705722 68.6019793,0 87.0676166,0 C97.4995026,0 107.511715,4.94386921 114.046632,12.7564033 C120.581549,4.94386921 130.593762,0 141.025648,0 C159.491285,0 174,14.7705722 174,33.5694823 C174,56.6408719 153.615855,75.439782 122.73987,104.00436 L114.046632,112 Z M114.046632,108.790431 L122.241629,101.253051 C151.347995,74.3256157 170.563849,56.6041412 170.563849,34.8550588 C170.563849,17.1335843 156.886683,3.20956863 139.47938,3.20956863 C129.645384,3.20956863 120.207009,7.87008627 114.046632,15.2348549 C107.886255,7.87008627 98.4478802,3.20956863 88.6138845,3.20956863 C71.2065816,3.20956863 57.5294151,17.1335843 57.5294151,34.8550588 C57.5294151,56.6041412 76.7452689,74.3256157 105.851636,101.195514 L114.046632,108.790431 Z" id="Combined-Shape"></path>
        </g>
    </g>
</svg>
