<svg width="89" height="34" viewBox="0 0 89 34" fill="none" xmlns="http://www.w3.org/2000/svg">
<path d="M11.0589 1.13794C11.6477 1.13794 12.0779 1.45495 12.2138 2.02105L18.1238 23.2837L24.1018 2.02105C24.2377 1.4776 24.6453 1.13794 25.2567 1.13794H34.903C35.3559 1.13794 35.6729 1.59082 35.537 2.02105L26.0266 32.4319C25.8454 33.0206 25.4378 33.315 24.8264 33.315H11.2401C10.6513 33.315 10.2211 33.0433 10.0399 32.4319L0.484185 2.02105C0.348322 1.61346 0.687981 1.13794 1.14086 1.13794H11.0589ZM37.3259 7.20652C37.3259 3.62877 40.2696 0.685059 43.8474 0.685059C47.4251 0.685059 50.3688 3.62877 50.3688 7.20652C50.3688 10.7843 47.4251 13.728 43.8474 13.728C40.2696 13.728 37.3259 10.7843 37.3259 7.20652ZM49.6895 32.3639C49.6895 32.9074 49.3272 33.2924 48.7611 33.2924H38.9336C38.3902 33.2924 38.0052 32.93 38.0052 32.3639V17.1699C38.0052 16.6264 38.3675 16.2415 38.9336 16.2415H48.7611C49.3045 16.2415 49.6895 16.6038 49.6895 17.1699V32.3639ZM53.0408 32.1375L62.3248 17.2151L53.0408 2.29278C52.7011 1.74932 52.9955 1.13794 53.6295 1.13794H64.1363C64.8609 1.13794 65.2912 1.36438 65.6082 1.90783L70.7031 10.8069L75.798 1.90783C76.1376 1.36438 76.5452 1.13794 77.2698 1.13794H87.5502C88.1842 1.13794 88.4786 1.72668 88.1389 2.29278L78.8549 17.2151L88.1389 32.1375C88.4559 32.681 88.1842 33.2924 87.5502 33.2924H77.0434C76.3188 33.2924 75.8885 33.0659 75.5715 32.5225L70.4766 23.6234L65.3818 32.5225C65.0647 33.0659 64.6572 33.2924 63.9099 33.2924H53.6295C52.9955 33.2924 52.7011 32.7036 53.0408 32.1375Z" fill="#FF5900"/>
</svg>
