<svg width="117" height="40" xmlns="http://www.w3.org/2000/svg"><path d="M59.2375528 30.000324l2.2221574 5.2221185 2.2218335-5.2221185h2.4447295L61.4597102 40l-4.666563-9.999676h2.4444056zm-3.444263 0v1.9999093h-1.9999741v7.7775834h-2.2221574v-7.7775834h-1.9999741V30.000324h6.2221056zM76.5745276 5.6873494c-.0323976 7.2996526-.0647953 14.5993701-.097841 21.8990876-4.6834098-3.6498587-9.3771868-7.1416815-14.0871627-10.6594225-.0038877 3.3952129-.0077755 6.7904258-.0116632 10.1857035-2.0438405.000648-4.0875515.0008424-6.1312625.0004536l-.0123111-21.2961667c4.7310344 3.5861649 9.4474898 7.0289376 14.1483944 10.5122722.0110152-3.4330534.0213825-6.8661716.0323977-10.2991602 2.0540134-.0911023 4.1073789-.2053366 6.1594484-.3427675zm-37.7489438-.0852708c5.1290076.3668067 10.2659202.588666 15.4045175.6655133l.0047949 4.2637302c-3.0795298-.0368686-6.1586061-.1155302-9.2361273-.23592.0060908 1.7611383.0121815 3.5222767.0183371 5.283415 2.2540367.0612964 4.5086566.107042 6.7636653.137107l.0076459 4.2733847c-2.2523521-.0193091-4.5045098-.0485318-6.7563435-.0877978l.0099785 2.881904c3.0685794.0334992 6.1376772.0553352 9.206775.0655729.0016199 1.4212218.0032398 2.8424436.0048597 4.2637301-5.1093098-.0017494-10.2184901-.0066739-15.3276055-.0148381-.0334344-7.1652671-.0669984-14.3305342-.1004976-21.4958013zM19.0296244 3.4583884c2.4214681.3519685 4.8466294.6712153 7.2747065.9577405 7.2874064.8733768 10.5417542 4.6648135 10.5590545 8.6597076.0128295 2.6098282-1.4716326 5.1284244-4.3010522 6.5061685 1.6627141 2.5572143 3.3243915 5.056696 4.9839955 7.5136071-2.2478812-.003823-4.4958272-.0082939-6.7437084-.0133479-1.263445-2.1037763-2.5276676-4.2431252-3.7918902-6.4253687-.587694-.0204753-1.1751937-.0414042-1.7626934-.0629811.0123111 2.1582044.0246222 4.316344.0371278 6.4745484-2.0434518-.0055076-4.0868388-.0115984-6.1302906-.0181427-.0417282-7.8640204-.0835212-15.7279761-.1252495-23.5919317zM99.988456 15.0668688c-.029925 6.4170101-4.962797 12.0928907-14.198082 12.0154602-2.234793.005054-4.470233.0094601-6.7050255.0132831.0349895-7.1987015.069979-14.3974678.1056164-21.5961693 2.2432161-.1719022 4.4851361-.3716015 6.7244641-.5990333 9.480212-1.090247 14.100122 3.7242438 14.073027 10.1664593zM116.631677 0v5.5172615c-3.035663.5296374-6.078454 1.0175466-9.127077 1.4636627-.007127 2.0987223-.014255 4.1974445-.021382 6.2961667 2.239976-.2272373 4.476713-.4700256 6.711505-.7283648-.001944 1.8044865-.003888 3.6089729-.005184 5.4135241-2.239976.1653578-4.4806.3208019-6.723168.4662027-.003888 1.14474-.007775 2.2895447-.011015 3.4342846 3.060286-.1238888 6.119275-.2594407 9.176321-.4065262v5.5171967c-5.107171.0245574-10.214991.0458103-15.323458.063953l.114687-24.1620014C106.512583 2.0619185 111.584117 1.1034005 116.631677 0zM0 0c2.3976233.5241298 4.8007542 1.0155379 7.2085504 1.4742892 7.225138 1.4164269 10.4670451 5.7884301 10.4876394 10.1613405.0235313 4.3461498-3.4780108 8.4430967-9.8262082 8.1517119-.5862038-.0328513-1.1722132-.0663505-1.7582225-.1004329.005702 2.4381205.011404 4.8762409.0171707 7.3144261L0 26.973408V0zm86.311977 9.4030402c-.332401.0274084-.665449.0543633-.997849.0808646-.024622 4.3580722-.048597 8.7160796-.073219 13.0741519.3324-.0074515.664801-.014903.997201-.022484 4.829199-.0828733 7.605681-3.5202032 7.625768-7.0213566.018791-3.5077625-2.71687-6.543685-7.551901-6.1111759zm-61.1308739-.4634813c.0133478 2.330884.0267605 4.6617681.0401731 6.9925874.3703704.0226784.7408703.044968 1.1113703.0668688 2.6444937.148835 4.4008372-1.2455615 4.3900019-3.1610424-.0117135-2.138053-1.7849686-3.5360133-4.4299806-3.7914367-.3705648-.0350543-.7411296-.0706917-1.1115647-.1069771zM6.0807221 6.5208771c.0062203 2.6332193.0123759 5.2664386.0185963 7.8995931l1.1066402.1062644c2.6341912.2380582 4.3855454-1.2653889 4.3767021-3.3994894-.0095586-2.3824612-1.7708913-4.0268383-4.397955-4.4363451-.3680377-.056048-.7360107-.1127439-1.1039836-.170023z" fill="#FFF" fill-rule="evenodd"/></svg>
