<svg height="256" viewBox="0 0 256 256" width="256" xmlns="http://www.w3.org/2000/svg"><g fill="none" fill-rule="evenodd" transform="translate(0 94)"><path d="m106.882256 26.7582-2.474265 6.852h4.918448zm5.312527 14.8305-1.495089-4.2015h-7.664958l-1.498097 4.2015h-4.6717741l7.9702941-20.4645h4.061104l7.971798 20.4645zm14.47152-16.38315v16.383h-4.396522v-16.383h-5.864535v-4.0815h16.122585v4.0815zm9.64738 16.38285v-20.4645h4.396521v16.3845h8.949472v4.08zm25.915863-14.8302-2.471257 6.852h4.915441zm5.314031 14.8305-1.495088-4.2015h-7.666463l-1.495088 4.2015h-4.670271l7.970294-20.4645h4.059601l7.968789 20.4645zm22.963741-.0003-10.444559-13.3365v13.3365h-4.395018v-20.4645h4.395018l10.169307 12.9735v-12.9735h4.396522v20.4645zm18.162463-16.38285v16.383h-4.396521v-16.383h-5.860024v-4.0815h16.121081v4.0815zm9.652043 16.3836v-20.4645h4.398026v20.4645zm20.939957-16.77765c-4.185946 0-6.74745 3.2595-6.74745 6.546 0 3.96 3.235347 6.546 6.777533 6.546 2.350928 0 4.580023-1.035 6.470693-2.7075v4.9005c-1.980917 1.1865-4.700353 1.9185-6.807615 1.9185-6.046533 0-11.113889-4.902-11.113889-10.6575 0-6.09 5.098942-10.6575 11.143972-10.6575 2.319342 0 5.040282.7005 6.810622 1.5825v4.8105c-2.229095-1.4595-4.49128-2.2815-6.533866-2.2815z" fill="#1a154b"/><path d="m101.034266 60.9015c-.989707 0-1.8034317.369-2.3659699.813v4.0425c.4271681.3645 1.1837368.945 2.3268629.945 1.240893 0 2.752526-.8685 2.752526-2.919 0-1.566-1.007756-2.8815-2.713419-2.8815zm.19403 7.464c-.970153 0-1.8605874-.33-2.7149235-.9855v.81h-1.6485076v-12.99h1.8034312v4.776c.6407521-.4095 1.4920799-.7365 2.5208929-.7365 2.208038 0 4.458191 1.797 4.458191 4.5435 0 3.192-2.615653 4.5825-4.419084 4.5825zm17.911126-7.44495c-.890435 0-1.511634.447-1.997462.969v6.3015h-1.798919v-8.7585h1.647004v.891c.55953-.522 1.240893-1.047 2.323854-1.047.564042 0 1.069424.1365 1.648508.351v1.8555c-.502374-.2895-1.182233-.5625-1.822985-.5625zm14.482952-.01905c-1.589848 0-2.809683 1.1805-2.809683 2.922 0 1.74 1.219835 2.9175 2.809683 2.9175 1.589847 0 2.812691-1.1775 2.812691-2.9175 0-1.7415-1.222844-2.922-2.812691-2.922zm0 7.5015c-2.71342 0-4.691328-2.0295-4.691328-4.5795 0-2.553 1.977908-4.584 4.691328-4.584 2.714923 0 4.692832 2.031 4.692832 4.584 0 2.55-1.977909 4.5795-4.692832 4.5795zm18.920385-4.2114c-1.219835 0-2.149377.114-2.751022.4425-.485829.2715-.640752.6765-.640752 1.0455 0 .5775.407614 1.158 1.416874 1.158.600141 0 1.28-.2505 1.9749-.81zm.156428 3.999v-.81c-.872386.6555-1.55074 1.0035-2.441175 1.0035-1.666557 0-2.930012-1.1385-2.930012-2.607 0-.756.329401-1.722 1.495088-2.3805.890435-.5025 2.129824-.618 3.719671-.618v-.2685c0-1.377-1.025805-1.7595-1.841034-1.7595-1.064912 0-2.053114.423-2.868343.9645l.448226-1.7985c.96564-.4455 1.859083-.678 2.866839-.678 1.899694 0 3.197743 1.1625 3.197743 3.363v5.589zm18.224884-6.4761c-.564043-.444-1.379272-.813-2.367474-.813-1.705664 0-2.71342 1.3155-2.71342 2.8815 0 2.0505 1.511634 2.919 2.752527 2.919 1.143126 0 1.899694-.5805 2.328367-.945zm.154923 6.4755v-.81c-.854336.6555-1.744771.9855-2.716428.9855-1.801927 0-4.419083-1.3905-4.419083-4.5825 0-2.7465 2.247144-4.5435 4.45819-4.5435 1.028813 0 1.880141.327 2.522398.7365v-4.776h1.801927v12.99zm15.991577-7.2885c-.988202 0-1.804935.369-2.364465.813v4.0425c.427168.3645 1.182232.945 2.325358.945 1.242397 0 2.754031-.8685 2.754031-2.919 0-1.566-1.00926-2.8815-2.714924-2.8815zm.194031 7.464c-.970153 0-1.860588-.33-2.714924-.9855v.81h-1.647003v-12.99h1.803431v4.776c.637744-.4095 1.49208-.7365 2.519389-.7365 2.208037 0 4.459694 1.797 4.459694 4.5435 0 3.192-2.61866 4.5825-4.420587 4.5825zm18.648441-4.1739c-1.221339 0-2.149377.114-2.749518.4425-.487332.2715-.642256.6765-.642256 1.0455 0 .5775.407615 1.158 1.416874 1.158.598637 0 1.278496-.2505 1.9749-.81zm.156428 3.999v-.81c-.872385.6555-1.552244 1.0035-2.442679 1.0035-1.666557 0-2.928508-1.1385-2.928508-2.607 0-.756.330905-1.722 1.495089-2.3805.88893-.5025 2.129823-.618 3.71967-.618v-.2685c0-1.377-1.025804-1.7595-1.839529-1.7595-1.067921 0-2.054619.423-2.871352.9645l.448226-1.7985c.968648-.4455 1.860587-.678 2.866839-.678 1.901198 0 3.197744 1.1625 3.197744 3.363v5.589zm18.282191 0v-4.7175c0-1.623-.87389-2.514-2.269707-2.514-.986698 0-1.89819.5055-2.481786.93v6.3015h-1.803431v-8.7585h1.651516v.813c.61819-.4245 1.531187-.9675 2.866839-.9675 1.278496 0 3.84.621 3.84 4.293v4.62zm18.376949-6.4761c-.564042-.444-1.374759-.813-2.365969-.813-1.705664 0-2.711916 1.3155-2.711916 2.8815 0 2.0505 1.510129 2.919 2.751023 2.919 1.144629 0 1.899694-.5805 2.326862-.945zm.156428 6.4755v-.81c-.85584.6555-1.746275.9855-2.716428.9855-1.800423 0-4.419083-1.3905-4.419083-4.5825 0-2.7465 2.250152-4.5435 4.45819-4.5435 1.028813 0 1.880141.327 2.520893.7365v-4.776h1.803431v12.99z" fill="#1a154b"/><path d="m96.8648649 49.05h149.3162871" stroke="#67abed" stroke-width="5.199568"/><g fill="#67abed"><path d="m42.5740635 5.0448c14.7899412 4.296 39.1926674 29.1 42.8732314 63.096l.0030083.0105c-2.1644184-7.986-10.8100588-14.958-20.2017392-19.671-5.347121-20.694-15.6954171-37.8915-23.1994359-42.7335.1744771-.237.3489542-.474.5249354-.702zm2.8576639-5.0448c-10.5423267 8.5275-26.0407051 42.2775-28.0622327 68.085h-17.3694947c4.14383079-35.487 30.1123384-63.168 45.4317274-68.085zm-3.0192057 42.999c11.7080141 0 37.5155817 10.8165 41.8113279 25.131-1.46651 0-15.2156052.006-16.0699413.006-2.1689306-11.1165-17.3093302-24.2175-25.5578848-24.2175-6.58651 0-17.3228672 8.0355-22.7647474 16.5345.6347357-3.7395 1.4454525-7.6155 2.5584959-11.6745 7.3490952-3.618 14.8170153-5.7795 20.0227497-5.7795z"/><path d="m248.125969 19.8004556c.172973.4755.084231 1.05-.264723 1.4085-.380541.393-.986698.54-1.502609.336-.329401-.1305-.625711-.4635-.737015-.804l.49034-.336c.040611.0645.072198.156.097768.1995.102279.18.309847.3405.542984.393.243667.0525.547498-.033.696405-.2775.141386-.231.207567-.5985-.012033-.828-.272245-.285-.684372-.4065-1.052879-.606-.258708-.135-.55953-.3525-.645265-.648-.088742-.324-.045123-.678.16094-.9345.303831-.378.750553-.528 1.206299-.4185.309847.078.637744.33.768602.5985-.156428.1095-.348955.2265-.509895.342-.16846-.258-.39859-.387-.670834-.324-.154924.0345-.285781.1875-.309847.33-.033091.1875.05866.372.246674.4695.53396.276 1.249918.432 1.495088 1.0995zm5.024941 1.7577h-.555018c-.019554 0-.02557-.009-.02557-.0195v-3.3135c-.194031.2505-.994219 1.2795-1.484559 1.833h-.019554c-.502374-.624-1.018284-1.2555-1.540211-1.872v3.3435c0 .0195-.007521.0285-.027074.0285h-.555018c-.019553 0-.024066-.009-.024066-.0195v-4.2015c0-.0195.004513-.0255.024066-.0255h.028578.53396.006017c.006016 0 .013537.006.013537.0195.527943.6105 1.546228 1.878 1.546228 1.878s.994218-1.248 1.498096-1.872c0-.0195.006016-.0255.02557-.0255h.561034c.019553 0 .019553.006.019553.0195v4.1985c0 .0195-.006016.0285-.025569.0285z"/></g></g></svg>
