<svg height="256" viewBox="0 0 256 256" width="256" xmlns="http://www.w3.org/2000/svg"><g fill="none" fill-rule="evenodd" transform="translate(0 102)"><path d="m37.6759301 3.69228159c-.0332467-.033125-.0997402-.06625-.132987-.099375.0332468.06625.0664935.06625.132987.099375zm-27.1748619 38.32725981c-4.11557015-1.6909272-6.95828357-4.5020937-8.10385465-6.5734796 1.06071397 2.219342 2.41842784 4.2695912 4.07314162 6.0662014 5.36721263 5.0305085 13.59835303 5.622333 17.37449473 5.622333 16.0167808 0 21.7446362-8.3912263 23.0387072-10.6317049.2333571-.4438684.4667142-.9088734.678857-1.3738783-2.5457136 5.2207377-15.6773524 15.6833499-37.0613459 6.8905284zm17.4381376-3.2761715c-4.85807.1690927-13.3862102-1.4795613-18.75342289-3.6777667-4.32771296-1.754337-8.61299737-5.1996012-9.05849724-8.4546361.04242856.7820538.12728568 1.5641077.25457136 2.3250249 2.6517849 14.4151546 20.87485077 13.5908275 24.01456407 13.2526421 22.9326359-2.5363908 24.9055639-12.2803589 25.2025638-14.2037886.0424285-.4015953.0848571-.8031905.1272856-1.2047857-.4242855 2.5363908-4.3064986 11.3292124-21.7870647 11.9633101zm21.3627792-17.691326c0-.4015952-.0424286-1.1836491-.2333571-2.0079761-.1485-.5495513-.2969999-1.0991027-.4667142-1.6275175.2969999 1.0145564.2545714 1.7120639.2545714 1.9868395 0 1.2259223-1.5274281 8.7505484-16.5895664 10.1032902-1.294071.1056829-10.8617109.253639-19.1989227-1.8388834-5.53692687-1.3950149-11.09506803-4.1004985-12.13456771-7.841675-.14849996-.5918245-.08485712-1.1202392.04242856-1.6275174-.42428559 1.5006979-.70007122 3.0648056-.8273569 4.6500498.1060714 3.9525424 3.54278464 8.5391825 9.82221129 10.526022 7.19164066 2.2616151 11.60421076 2.3250249 22.06285046.0211366 17.4381375-3.867996 17.2684233-11.4771685 17.2684233-12.3437687zm-47.22298563-4.438684c0 6.0450648 13.08921033 11.9844467 29.14841963 7.6303091 6.2582124-1.7120638 15.6137096-4.9670987 15.6137096-9.9764706 0-.2536391.1060714-.824327-.7212855-2.2616151-.4242856-.6975075-.8909998-1.3738784-1.3789282-2.02911271.3606428.57068791.7212855 1.54297111.7212855 2.21934201 0 2.4518444-2.3972135 6.2352941-13.2377102 7.1230309-5.3672127.4438684-12.304282-.5072782-14.9136383-.824327-7.72199768-.9722832-13.38621024-3.973679-13.38621024-6.2775673 0-.3381855.08485712-.6340978.25457135-.8877368-.59399982.9088733-1.14557108 1.8600199-1.6334995 2.8534396-.31821419.6129612-.46671414 1.3738784-.46671414 2.4307079zm35.51270343-12.99900297c.8909997.52841475 1.3789282 1.16251246 1.3789282 1.83888335 0 2.49411765-6.0884982 4.75573282-14.0650672 4.96709872-7.9553547.2113659-14.5529955-1.75433701-14.743924-4.22731806-.0636429-.82432702.5303569-1.62751745 1.6547137-2.34616152-.8485711.52841476-1.675928 1.12023928-2.46085636 1.7332004-2.20628504 1.83888335-2.16385648 3.76231306-2.16385648 3.99481555 0 2.26161513 3.30942754 5.87597213 12.85585324 5.87597213 5.6642125 0 10.2464969-1.0991027 13.6832101-2.2404786 5.5369269-1.8388834 8.2735689-4.05822533 8.1674975-5.72801596-.0212143-.25363908-.1060714-.67637089-.4242856-1.01455633-1.1879996-1.05682951-2.5032849-2.02911266-3.8822131-2.85343968z" fill="#36a5de"/><path d="m31.227419 24.243669c.4242856-.1268195.8697855-.2325025 1.3152854-.3804586-1.9304995-.4227318-3.9670703-.6340977-6.0884982-.6340977-4.030713 0-7.7856405.8031904-10.9677824 2.1770688 4.5398558.6340977 9.949497.4015952 15.7409952-1.1625125zm-2.057785-9.7651047c1.6971423-.3804586 3.2245704-.8031904 4.56107-1.2681954.7424998-.2536391 1.4213567-.4861416 2.0577851-.7609173-1.8880709-.3381854-3.5852132-.5706879-4.7307843-.6552343-4.327713-.4015952-10.7768538.8243271-12.4527819 1.1836491-.5091427.105683-2.8639277.5918245-5.7278554 1.5852443.6788569.1902293 1.4213567.3804586 2.2274993.5072781 2.6093564-.718644 5.2823555-1.1413758 7.8492833-1.1413758 1.6971424.0211366 3.8609989.1902293 6.2157839.5495513zm.5091427 15.0915254c-1.591071-.0211366-3.7337132-.0845463-6.152141-.2747756-4.2852844.5072781-7.9553547 2.4095712-10.0343541 5.0727816.7000712.1479561 1.3577139.2959123 2.0365708.4015952 2.1850708-2.3884347 5.8975696-3.9736789 10.0979969-3.9736789 3.0760705 0 5.8763554.824327 8.0189976 2.2193419.8485711-.2113659 1.6334995-.4227318 2.3759992-.6552343-1.7395708-1.289332-3.9034273-2.2827517-6.3430694-2.7900299zm14.0862814-10.5682951c1.2516424-.93001 2.206285-1.9445663 2.7154277-3.0648056-.6152141-.3804586-1.294071-.718644-2.0153565-1.0356929-.7212855.93001-1.9304994 1.86002-3.797356 2.6209372 1.1031425.465005 2.1426422.9511466 3.0972848 1.4795613zm-5.4944984 2.9168495c1.3152854-.5284148 2.5881421-1.1202393 3.7337132-1.7754736-1.1879996-.6340977-2.5669278-1.2047857-4.179213-1.6909272-1.5486424.3804586-3.3942847.6763709-5.6005697.8666002-.6576427.0634097-1.3364996.0845463-2.0153566.1056829 1.5274281.2959123 3.0124277.6975075 4.4125701 1.1413759 1.3364996.4438684 2.5457135.8877368 3.648856 1.3527418zm2.9275706 5.622333c-1.1031425.4438684-2.3759993.8454636-3.8185703 1.183649 1.060714.6340977 1.9941423 1.3527418 2.8002849 2.1347956 1.1879996-.5072781 2.206285-1.0356929 3.0972848-1.5641076-.6152141-.6340977-1.3152854-1.2047857-2.0789994-1.754337zm-32.47906153-11.244666c-1.95171369.9511465-3.83978454 2.1347956-5.36721265 3.5720837.23335707.2959123.48792842.5918245.78492833.8666002 1.67592806-1.4584247 3.77614171-2.7900299 6.10971245-3.867996-.55157129-.1690927-1.06071399-.3804586-1.52742813-.5706879zm6.19456953 11.8153539c-.6152141-.1268195-1.2304282-.2747757-1.824428-.4227318-.381857-.105683-.7849283-.2113659-1.1667854-.3170489-2.01535649 1.395015-3.60642744 3.0648056-4.64592712 4.9459622.63642838.3170488 1.31528531.6129611 2.03657081.8666002.61521409-1.0568296 1.40014241-2.0502493 2.39721351-2.9168495.912214-.824327 1.9941423-1.5429711 3.2033562-2.1559322zm-6.95828358 10.1455633c0-1.183649.19092851-2.3461615.59399981-3.4664008-.67885693-.2959122-1.33649959-.6340977-1.97292797-.9934197-.42428558 1.1413758-.65764265 2.3250249-.65764265 3.5509471 0 .2536391.02121428.4861416.02121428.7186441.65764265.4861416 1.35771387.93001 2.07899936 1.3104686-.04242856-.359322-.06364283-.7397807-.06364283-1.1202393zm13.49228158-19.2765703c-1.7607852-.1902293-3.2245704-.3804586-4.1579987-.4861415-.6152141-.0845464-1.1879997-.1690928-1.7607852-.2536391-3.3518561 1.0568295-6.27942665 2.6420737-8.57056881 4.5443669.46671414.253639.95464257.5072781 1.48499955.718644 3.33064186-2.4307078 7.89171186-4.0793619 13.00435316-4.5232303zm-6.9582836 24.4973081c-.6788569-.2113659-1.3789281-.4438684-2.0789993-.7186441.5727855 1.2047857 1.4213567 2.3038884 2.5244992 3.2550349.912214.2536391 1.824428.4438684 2.6942134.6129611-1.3577138-.8666002-2.4184278-1.9445663-3.1397133-3.1493519zm34.3028598-25.6244828c-.0332468-.1104167-.0997403-.2208333-.1329871-.33125.0332468.0828125.0664935.165625.0997403.2484375zm-45.35549926 11.7588796c.61521409-1.5852443 1.6334995-3.0648056 2.94878481-4.3752742-.44549986-.2325025-.86978545-.465005-1.27285675-.718644-1.16678536 1.2681954-2.05778509 2.6420737-2.63057063 4.0582253.27578563.3381854.59399982.6975075.95464257 1.0356929zm41.30420166-3.973679c.5939998.4861416 1.0819283.9722832 1.5062138 1.4584248.6152141-.570688 1.1031426-1.1413759 1.4849996-1.6697907-.2969999-.4861415-.6364284-.9934197-1.0394997-1.5006979-.5091427.5495514-1.1455711 1.1413759-1.9517137 1.7120638zm-38.56755964 13.929013c.21214279.8877368.55157126 1.7754736.99707112 2.5998006.89099973.7397807 1.82442802 1.3527418 2.82149914 1.9022931-.72128549-.9511465-1.27285675-1.9868395-1.61228522-3.0648056-.80614261-.4650049-1.52742811-.9511465-2.20628504-1.4372881zm28.95749114 5.8971087c1.1667854-.4015952 2.2274993-.8454636 3.2033562-1.3104686.381857-.5284148.6788569-1.0568295.9334283-1.6275175-.8061426.4015953-1.6759281.7820539-2.5881421 1.1202393-.4242856.6340977-.9334283 1.2681954-1.5486424 1.8177468zm2.2274993-8.0953141c.2121428.5918246.3818571 1.2259223.4242856 1.86002.7212855-.2747757 1.4001425-.5495514 2.0365708-.8454636-.0848571-.570688-.233357-1.1413759-.4242856-1.6697907-.6576426.2325025-1.3152853.4438684-2.0365708.6552343zm4.4125701-29.12622131c-1.1455711-.40159521-2.5032849-.67637089-4.0094988-.88773679-1.7819994 1.35274177-5.3459983 2.45184447-9.8222112 2.8745763 2.8002848.2747756 6.2157838.7609172 9.4827828 1.5218345 2.4608564-1.1836491 3.9246416-2.40957132 4.3489272-3.50867401zm-31.375919-1.37387837c-1.12435677.46500499-2.1214279.95114656-2.96999907 1.41615155-.14849995.46500498-.19092851.82432702-.21214279 1.05682951 1.10314252-.57068793 2.39721356-1.14137587 3.86099886-1.69092722-.2969999-.23250249-.530357-.48614157-.678857-.78205384zm-8.59178306 14.73220338c-.63642838.8877368-1.14557108 1.86002-1.44257099 2.8957129.08485711.3170488.16971423.6552343.29699991.9722831.36064274-1.0568295.99707112-2.0713858 1.80321373-3.0648056-.23335707-.253639-.46671414-.5284147-.65764265-.8031904zm.93342828 11.6673978c0-.718644.08485712-1.3950149.23335707-2.0925224-.36064274-.3381855-.70007121-.6763709-.99707112-1.0145563-.23335707.9934197-.29699991 2.007976-.16971423 3.0225324.31821418.6340977.67885693 1.2259222 1.08192824 1.7966101-.1060714-.5706879-.14849996-1.1413758-.14849996-1.7120638zm6.25821238-20.629312c2.6305706-1.1836491 5.8339268-2.1347957 9.6312828-2.5152543-1.2940711-.1690927-2.503285-.40159519-3.5639989-.67637087-2.4820707.69750747-4.8156414 1.52183447-6.87342651 2.45184447.23335707.2536391.5091427.5072782.80614261.7397807zm37.37956 21.3268195c-.1272857-.3804586-.2969999-.7397807-.4667141-1.0991027-.8061426.7186441-1.7607852 1.4372881-2.885142 2.113659.1697142.465005.3182142.93001.4242856 1.395015 1.1879996-.7820539 2.1638565-1.6063809 2.9275705-2.4095713zm2.6729992-5.2418744c-.2333571.5072782-.530357 1.0568295-.9334283 1.6275175.1060714.359322.1697143.718644.2121428 1.0568295.4030713-.6975075.6788569-1.3527418.8697855-1.8811565-.0212143-.2536391-.0848572-.5284148-.1485-.8031905zm.0212143-9.6171485c-.0424286-.2325025-.1060714-.465005-.1697143-.6975075-.0424285-.0845464-.0848571-.1690927-.1272856-.2536391.1060714.6129611.0848571 1.0568295.0848571 1.2470588 0 .4015952-.1697142 1.4795613-.912214 2.7900299.3394285.4015953.6364284.8031905.8909997 1.2259223.4879284-1.2259223.4667142-2.113659.4667142-2.3672981 0-.3804587-.0424286-1.1413759-.2333571-1.9445663zm-35.6187749 20.7138584c0-1.0991027.2545714-2.1347956.7424998-3.1070788-.6152141-.1690927-1.2304282-.3381854-1.8032137-.5284147-.4667142 1.0356929-.7212855 2.113659-.7212855 3.2550349 0 .5072781.0424285 1.0145563.1484999 1.5218345.6152141.1902293 1.2304282.359322 1.8456423.5072781-.1484999-.5284147-.2121428-1.0779661-.2121428-1.648654zm30.0606337 0c-.0636428.359322-.1484999.6975075-.2545713 1.0568295 2.0365708-1.7966102 3.1397133-3.4875374 3.6276417-4.333001l.0424286-.0845464-.0212143-.1690927c-.7424998 1.0779661-1.8880709 2.3250249-3.3942847 3.5298106zm-4.56107-34.66400798c.9970711.40159521 1.8880708.90887338 2.6942134 1.52183449l-.1272856-.19022931c-.8061426-.71864407-1.6547138-1.37387836-2.5457135-1.98683948-.2333571-.14795613-.4667142-.27477567-.7212855-.40159522.381857.33818545.6152141.67637089.7000712 1.05682952zm-34.69230751 6.17188438c-.09974026.1104166-.23272727.2208333-.33246753.33125l.19948052-.1545834zm40.61109141 2.9802592c.6576426.3381854 1.2728567.7186441 1.8032137 1.1202393.1060714-.3804587.1697143-.7609173.1697143-1.1625125 0-.2536391.1060714-.8031904-.7000713-2.1982054-.4242855-.6975075-.8909997-1.3738783-1.3789281-2.0291126l-.0212143-.0211366c.3606428.5706879.7212855 1.5218345.7212855 2.1982054 0 .6129611-.1697142 1.3527417-.5939998 2.0925224zm-39.31005944.2325025c-.31821419-.2325025-.59399982-.465005-.80614261-.7186441-1.06071396.7397807-1.97292797 1.5218345-2.65178491 2.3672981v.4015952c0 .2536391.02121428.5284148.08485712.7820539.80614261-.8877368 1.93049941-1.8811566 3.3730704-2.8323031zm-3.13971333 20.9463609c.57278554 1.2259222 1.25164248 2.3884347 2.01535653 3.4875374-.42428558-.6552343-.76371405-1.3527418-1.0182854-2.0502493-.42428559-.5072781-.74249978-.9934197-.99707113-1.4372881zm-1.46378526-17.2051845c-.14849996.5495514-.29699991 1.1202393-.40307131 1.6909273.06364284-.2113659.16971423-.465005.29699991-.7186441-.02121428-.3381854.04242856-.6763709.1060714-.9722832zm-.58861338 9.0464607c-.09974026-.2325025-.19948052-.4861416-.23272728-.7186441.06649351.6129611.16623377 1.2047856.29922078 1.7966102-.09974026-.3593221-.09974026-.7186441-.0664935-1.0779661z" fill="#0c96d4"/><path d="m10.182854 6.19302094c.1909285 2.49411764 6.7673551 4.43868396 14.7439241 4.22731806s14.0650671-2.49411766 14.0650671-4.96709872c0-.71864407-.5303569-1.35274178-1.4637852-1.90229312-3.6912846-2.1559322-7.9977833-3.40299103-12.5800676-3.40299103-4.7944271 0-9.27064 1.35274178-13.067996 3.69890329-1.1667854.71864407-1.7607852 1.54297109-1.6971424 2.34616152zm13.6619959 40.96271186c-3.7761417 0-12.0284964-.6129611-17.37449473-5.622333 4.53985573 5.0093719 11.13749663 8.1587238 18.45642293 8.1587238 9.5252114 0 17.7987803-5.3264207 21.9779933-13.1680957-1.3152853 2.2404786-7.0431407 10.6317049-23.0599215 10.6317049zm-6.5552123-28.6823529c2.6093563.3381854 9.5464256 1.2681954 14.9136383.824327 10.8404967-.8877368 13.2377102-4.6711865 13.2377102-7.1230309 0-.6763709-.3606427-1.6486541-.7212855-2.219342-.9758568-1.26819542-2.057785-2.43070788-3.2457847-3.50867398.3182142.33818544.4030713.76091725.4242856 1.01455633.1060714 1.66979063-2.6305706 3.91026915-8.1674975 5.72801595-3.4579275 1.1413759-8.0189976 2.2404786-13.6832101 2.2404786-9.5464257 0-12.85585324-3.614357-12.85585324-5.87597212 0-.23250249-.04242856-2.17706879 2.16385648-3.99481555-2.01535652 1.60638086-3.7761417 3.52981057-5.21871269 5.70687937-.14849995.2536391-.25457135.5495513-.25457135.8877368.02121428 2.3461615 5.68542684 5.3475573 13.4074245 6.3198405zm-8.12506897 16.5922233c5.38842697 2.1982054 13.91656717 3.8468594 18.75342287 3.6777667 17.4805661-.6129611 21.3627792-9.4269193 21.7658505-11.9844467.0424285-.5918245.0636428-1.2047856.0636428-1.8177467 0-2.0291127-.2333571-3.9948156-.7000712-5.8759721.1909285.824327.2333571 1.6063808.2333571 2.0079761 0 .8454636.1697142 8.4546361-17.2896376 12.3437687-10.4586397 2.3250249-14.8712098 2.2404785-22.06285042-.0211366-6.30064093-1.9868395-9.71613989-6.5734796-9.82221128-10.526022-.06364284.6763709-.08485712 1.3738784-.08485712 2.0502493 0 .5495513.02121428 1.1202393.06364284 1.6697906.48792842 3.2761715 4.75199855 6.7002991 9.07971151 8.4757727zm15.23185247 7.1018943c-3.1397133.3381855-21.36277917 1.1625125-24.01456407-13.2526421.38185702 2.3038884 1.06071396 4.5020938 2.0365708 6.5312064 1.14557108 2.0502493 3.9882845 4.8614158 8.10385467 6.5734796 21.3627792 8.7928215 34.5156323-1.6697907 37.0613458-6.8693918 1.0182854-2.2404786 1.7183567-4.6500499 2.0153566-7.1864407-.3182142 1.9234297-2.2911422 11.6673978-25.2025638 14.2037886zm-23.42056425-23.9477567c-.12728568.5072781-.19092852 1.0568295-.04242856 1.6275174 1.06071396 3.7411765 6.59764084 6.44666 12.13456771 7.841675 8.3159975 2.0925224 17.8836374 1.9445663 19.1989227 1.8388834 15.0621383-1.3738784 16.5895664-8.8773679 16.5895664-10.1032902 0-.2747757.0424285-.9722831-.2545714-1.9868395-.6152141-1.9234297-1.4637852-3.7411764-2.5032849-5.4109671.8273569 1.4372882.7212855 2.0079761.7212855 2.2616152 0 5.0093719-9.3554972 8.2644068-15.6137095 9.9764706-16.0592094 4.3752742-29.14841971-1.5852443-29.14841971-7.6303091 0-1.0568295.14849995-1.7966102.44549986-2.472981-.6152141 1.289332-1.1243568 2.6420737-1.5274281 4.0582253z" fill="#fff"/><path d="m103.440826 34.5371884c.106071.105683.1485.2325025.106071.3593221 0 .2747756-.233357.5072781-.509143.5072781h-.169714-2.248714c-.127285 0-.254571-.0422731-.360642-.1479561l-.042429-.0422732-1.8456422-1.9022931c-.1060714-.1056829-.2757856-.1056829-.3606427-.0211366l-.0212143.0422732c-1.5062138 1.7332004-3.0760705 2.4941176-5.091427 2.4941176-2.9275705 0-5.8975696-1.8600199-5.8975696-5.3898305 0-2.0925224 1.145571-3.7834496 3.4154989-5.0727816l.1060714-.1690927-.0636428-.1902294-.0212143-.0211365c-1.0182854-1.2470589-1.5274281-2.4307079-1.5274281-3.6354936 0-2.7266201 2.0789994-4.5443669 4.8156414-4.5443669 2.8002848 0 4.6671414 1.754337 4.6671414 4.3541376 0 2.2616152-1.7183566 3.5509472-3.2245704 4.4175474l-.0424286.0211366-.0848571.1902293.0636428.1479561 2.6729992 2.7266202c.1272857.0845463.2757856.0422731.3606428-.0634098l1.6547137-2.8323031c.0848572-.1479561.2545715-.2536391.4454995-.2536391h1.909286c.275785 0 .509142.2325025.509142.5072782 0 .0422732 0 .1268195-.063643.2536391l-2.6093559 4.3752741c-.1060714.1268196-.0636429.2959123.0424289.3804587zm-9.6737118-15.112662c-1.1879996 0-1.9941422.8666002-1.9941422 2.0079761 0 .6763709.6152141 1.5852443 1.1455711 2.1559322l.0212143.0211366c.0848571.0634098.1909285.1056829.2969999.0422732l.0636428-.0211366c1.2092139-.6763709 2.2274993-1.3316052 2.2274993-2.4518445 0-.9722831-.6152141-1.754337-1.7607852-1.754337zm2.4608564 12.0055833.0636429-.2113659-.1060714-.1902293-3.5852132-3.7411765c-.0848571-.0845464-.2121428-.0845464-.3394285-.0211366-1.7183566 1.0356929-2.2911421 1.8388833-2.2911421 3.1916251 0 1.5218345 1.3152853 2.7266202 2.9912133 2.7266202 1.4001425 0 2.3759993-.6975075 3.266999-1.754337zm-11.476925 1.7120638c.2969999 0 .5303569.2325025.5303569.5072781v1.754337c0 .2747757-.2121427.4861416-.5091427.5072782-.2757856.0211366-.6576426.0211366-.6576426.0211366-3.1821419 0-6.8309979-1.7120638-6.8309979-6.5312064v-8.9830508c0-.1479562-.1272857-.2536391-.2757857-.2536391h-2.6942134c-.1272857 0-.2545714-.0422732-.3606428-.1479562-.1060714-.0845463-.1697142-.2113659-.1697142-.359322v-1.8811565c0-.2747757.2333571-.5072782.5091427-.5072782h2.6942135c.1484999 0 .2757856-.1056829.2757856-.2536391v-3.7200398c0-.2747757.2333571-.5072782.5091427-.5072782l2.206285-.1690927h.0636429c.2757856.0211366.5091427.253639.4879284.5284147v3.867996c0 .1479562.1272857.2747757.2757856.2747757h4.2852844c.2757857 0 .5091427.2325025.5091427.5072782v1.8600199c0 .2747757-.233357.5072782-.5091427.5072782h-4.3064987c-.1484999 0-.2757856.1056829-.2757856.2536391v8.4123629c0 2.8534397 1.4001424 4.3118644 4.1367845 4.3118644zm-12.304282 1.5218345s.0636428.2325025.0848571.2959122c0 .2747757-.233357.4861416-.5091427.4861416h-2.1426422c-.0636428 0-.1484999-.0422732-.2121428-.0634098-.1484999-.0634097-.233357-.1902293-.2757856-.3381854-.0424286-.1690927-.0848571-.3804586-.1060714-.6763709-.0424286-.3381854-.0424286-.6975075-.0424286-.8666002l-.0636428-.0634098-.0636428.0211366-.0212143.0211366c-1.060714 1.289332-3.2033562 2.3461615-5.8551411 2.3461615-2.736642 0-5.6854268-1.7966101-5.6854268-5.3052841 0-5.981655 7.5734977-6.9962114 10.564711-6.8905284l.5939999.0211366c.1272856 0 .2545713-.0634098.2545713-.2536391 0-.4015952.1060714-3.402991-3.7337131-3.402991-1.3577139 0-2.7154278.4015952-3.8397846 1.0991026l-.1484999.105683c-.2333571.1690927-.530357.1268195-.7000712-.105683l-1.1455711-1.542971c-.0636429-.1268196-.0848571-.2536391-.0636429-.3804587.0424286-.1268195.1060714-.2325025.2333571-.3170488 1.442571-.9722832 3.7124989-1.6063809 6.1733553-1.6063809 3.118499 0 6.4491409 1.6697907 6.4491409 6.3621137v8.8985045s.0212142.718644.0212142.8877368c.0212143.2325025.0636429.7820538.2333571 1.2681954zm-3.3094276-6.9539382c.0848572-.6975075.0848572-.93001 0-1.0568295-.0848571-.1268196-.233357-.1902293-.4454998-.2113659-.2545714-.0211366-.6152141-.0422732-.6152141-.0422732-4.9641414-.2113659-7.6583548 1.7332004-7.5522834 4.0370887.1060714 2.0925225 1.8880708 2.8957129 3.8609988 2.578664 2.8002849-.4650049 4.3064987-2.2404785 4.7519985-5.3052841zm44.571201 5.4321037c.275785 0 .509142.2325025.530357.5072781v1.754337c0 .2747757-.212143.4861416-.509143.5072782-.275786.0211366-.657643.0211366-.657643.0211366-3.203356 0-6.830998-1.7120638-6.830998-6.5312064v-8.9830508c0-.1479562-.127285-.2536391-.275785-.2536391h-2.694214c-.127285 0-.254571-.0422732-.360642-.1479562-.106072-.0845463-.169715-.2113659-.169715-.359322v-1.8811565c0-.2747757.233357-.5072782.509143-.5072782h2.694214c.148499 0 .275785-.1056829.275785-.2536391v-3.7200398c0-.2747757.233357-.5072782.509143-.5072782l2.206285-.1690927h.063643c.275785.0211366.509142.253639.487928.5284147v3.867996c0 .1479562.127286.2747757.275786.2747757h4.285284c.275786 0 .509143.2325025.509143.5072782v1.8600199c0 .2747757-.233357.5072782-.509143.5072782h-4.306498c-.1485 0-.275786.1056829-.275786.2536391v8.4123629c0 2.8534397 1.400142 4.3118644 4.136784 4.3118644z" fill="#0a0a0a"/><path d="m163.540879 17.691326h2.375999v11.4771685c0 1.9868395-.212143 3.5720838-.615214 4.7557328-.403071 1.1836491-1.145571 2.1347956-2.206285 2.8534397-1.060714.7397807-2.460857 1.0991027-4.179213 1.0991027-1.675928 0-3.054856-.3170489-4.11557-.9511466s-1.824428-1.5641076-2.291143-2.7900299c-.466714-1.2047856-.678856-2.8745763-.678856-4.9670987v-11.4771685h2.375999v11.4560319c0 1.7332004.1485 3.0013958.424285 3.8045863.297.824327.784929 1.4372881 1.485 1.8811565s1.569857.6552343 2.588142.6552343c1.739571 0 2.991213-.4438684 3.733713-1.3104686s1.103143-2.5575274 1.103143-5.0516451zm8.188711 13.8867398v-2.4518445h6.767356v2.4518445zm15.804638 5.9605184-4.942927-14.3728813h2.312357l2.77907 8.6025922c.297.93001.572786 1.9022931.827357 2.8957129.190929-.7609173.466714-1.6697907.827357-2.7266202l2.885142-8.7716849h2.269928l-4.921713 14.3728813zm20.811208-4.6289132 2.269928.3170488c-.360642 1.4795614-1.018285 2.6209372-1.994142 3.4241277-.975857.8031904-2.206285 1.2259222-3.712499 1.2259222-1.888071 0-3.394284-.6552343-4.518641-1.9445663-1.103143-1.289332-1.675928-3.1070788-1.675928-5.4532403 0-2.4095713.551571-4.2907278 1.675928-5.622333s2.588142-2.0079761 4.370141-2.0079761c1.739571 0 3.160928.6552343 4.242856 1.9657029 1.103143 1.3104686 1.654714 3.149352 1.654714 5.5166501 0 .1479561 0 .359322-.021214.6552343h-9.673712c.084857 1.5852442.487929 2.7900299 1.209214 3.6354935.721286.8454636 1.6335 1.2681954 2.715428 1.2681954.806143 0 1.484999-.2325025 2.057785-.6975075.615214-.5072781 1.060714-1.2470588 1.400142-2.2827517zm-7.234069-3.9314058h7.255284c-.106072-1.2047856-.381857-2.113659-.827357-2.7266201-.700071-.93001-1.612285-1.4161516-2.715428-1.4161516-1.018285 0-1.866857.3804586-2.545713 1.1202393-.700072.7609172-1.081929 1.754337-1.166786 3.0225324zm15.253067 8.560319v-14.3728813h1.972928v2.1770688c.509143-1.0145563.975857-1.6909272 1.400142-2.0079761.424286-.3170488.891-.4861416 1.421357-.4861416.7425 0 1.485.2536391 2.269928.7820539l-.763714 2.2616151c-.530357-.359322-1.081928-.5284147-1.612285-.5284147-.487929 0-.912214.1690927-1.294071.4861416-.381857.3170488-.657643.7609172-.827357 1.3316051-.254572.8666002-.360643 1.8177468-.360643 2.8534397v7.5246261h-2.206285zm10.479854-4.2907278 2.185071-.3804586c.127285.9722832.466714 1.7120638 1.018285 2.219342.551571.5072781 1.3365.7820538 2.333571.7820538 1.018285 0 1.760785-.2325025 2.248713-.6763709.487929-.465005.7425-.9934197.7425-1.6063808 0-.5495514-.212143-.9934198-.657642-1.289332-.297-.2113659-1.060714-.4861416-2.248714-.824327-1.612285-.4438684-2.736642-.8454637-3.351856-1.1625125-.615214-.3170489-1.103143-.7820538-1.421357-1.3738784-.318214-.5918245-.487928-1.2259222-.487928-1.9234297 0-.6340977.127285-1.2259222.403071-1.7754736.254571-.5495513.615214-.9934197 1.081928-1.3527417.339429-.2747757.806143-.5072782 1.400143-.7186441.593999-.1902293 1.230428-.2959123 1.909285-.2959123 1.018285 0 1.909285.1690927 2.672999.4861416s1.3365.7609173 1.697142 1.3104686c.360643.5495513.615214 1.289332.763714 2.219342l-2.142642.3170488c-.106071-.7397806-.381857-1.3104686-.848571-1.7332004s-1.124357-.6129611-1.994142-.6129611c-1.018286 0-1.739571.1902293-2.163857.5495514-.424285.3804586-.657642.8031904-.657642 1.289332 0 .3170488.084857.5918245.275785.8454636.169714.2536391.466714.4861415.848571.6552343.212143.0845463.869786.2959122 1.951714.6129611 1.548642.465005 2.630571.8454636 3.245785 1.1202393.615214.2959122 1.103142.718644 1.442571 1.289332.360643.5495513.530357 1.2470588.530357 2.0925224 0 .8031904-.212143 1.5852443-.636429 2.3038883-.424285.7186441-1.039499 1.2681955-1.845642 1.6697907s-1.718357.5918245-2.736642.5918245c-1.675928 0-2.969999-.3804586-3.860999-1.1625125-.890999-.7820538-1.442571-1.9445663-1.697142-3.4664008zm25.287421-.3381854 2.269928.3170488c-.360643 1.4795614-1.018286 2.6209372-1.994143 3.4241277-.975856.8031904-2.206285 1.2259222-3.712498 1.2259222-1.888071 0-3.394285-.6552343-4.518642-1.9445663-1.103142-1.289332-1.675928-3.1070788-1.675928-5.4532403 0-2.4095713.551571-4.2907278 1.675928-5.622333s2.588142-2.0079761 4.370142-2.0079761c1.73957 0 3.160927.6552343 4.242855 1.9657029 1.103143 1.3104686 1.654714 3.149352 1.654714 5.5166501 0 .1479561 0 .359322-.021214.6552343h-9.673711c.084857 1.5852442.487928 2.7900299 1.209214 3.6354935.721285.8454636 1.633499 1.2681954 2.715427 1.2681954.806143 0 1.485-.2325025 2.057785-.6975075.615214-.5072781 1.060714-1.2470588 1.400143-2.2827517zm-7.212855-3.9314058h7.255283c-.106071-1.2047856-.381857-2.113659-.827357-2.7266201-.700071-.93001-1.612285-1.4161516-2.715427-1.4161516-1.018286 0-1.866857.3804586-2.545714 1.1202393-.721285.7609172-1.103142 1.754337-1.166785 3.0225324z" fill="#1b94d2"/><path d="m136.407816 17.8604187h-1.548643v23.6307079h1.548643z" fill="#0a0a0a"/></g></svg>
