<svg height="256" viewBox="0 0 256 256" width="256" xmlns="http://www.w3.org/2000/svg" xmlns:xlink="http://www.w3.org/1999/xlink"><linearGradient id="a"><stop offset="0" stop-color="#0278bb"/><stop offset=".06" stop-color="#3690c8"/><stop offset=".16" stop-color="#7ab2d8"/><stop offset=".23" stop-color="#accbe5"/><stop offset=".29" stop-color="#cbdaec"/><stop offset=".33" stop-color="#d7e0ef"/><stop offset=".4" stop-color="#cad9eb"/><stop offset=".54" stop-color="#a4c6e2"/><stop offset=".72" stop-color="#67a9d3"/><stop offset=".96" stop-color="#1680bf"/><stop offset="1" stop-color="#0278bb"/></linearGradient><linearGradient id="b" x1="14.914453%" x2="85.226421%" xlink:href="#a" y1="14.908576%" y2="85.246539%"/><linearGradient id="c" x1="14.653113%" x2="85.362379%" xlink:href="#a" y1="14.631852%" y2="85.361598%"/><linearGradient id="d" x1="96.797695%" x2="3.028182%" y1="32.978692%" y2="67.104247%"><stop offset="0" stop-color="#2679ba"/><stop offset=".24" stop-color="#227dbc"/><stop offset=".51" stop-color="#1b8bc4"/><stop offset=".78" stop-color="#0ea0d0"/><stop offset=".99" stop-color="#08b6de"/></linearGradient><linearGradient id="e" x1="71.84538%" x2="32.230723%" y1="124.787808%" y2="-18.729478%"><stop offset="0" stop-color="#2679ba"/><stop offset=".03" stop-color="#237cbc"/><stop offset=".43" stop-color="#0e9bcf"/><stop offset=".77" stop-color="#0cafda"/><stop offset="1" stop-color="#08b6de"/></linearGradient><linearGradient id="f"><stop offset="0" stop-color="#2679ba"/><stop offset=".22" stop-color="#2577b6"/><stop offset=".45" stop-color="#206faa"/><stop offset=".67" stop-color="#1c6396"/><stop offset=".89" stop-color="#11527a"/><stop offset="1" stop-color="#0f4668"/></linearGradient><linearGradient id="g" x1=".001903%" x2="104.427561%" xlink:href="#f" y1="49.967428%" y2="49.967428%"/><linearGradient id="h" x1="118.804927%" x2="4.288726%" y1="39.022334%" y2="67.970833%"><stop offset="0" stop-color="#1c79ba"/><stop offset=".27" stop-color="#1c7cbd"/><stop offset=".51" stop-color="#1986c1"/><stop offset=".74" stop-color="#0a98cd"/><stop offset=".96" stop-color="#02b1db"/><stop offset=".99" stop-color="#08b6de"/></linearGradient><linearGradient id="i" x1="98.349748%" x2="37.195134%" y1="5.079656%" y2="67.617475%"><stop offset="0" stop-color="#bfcfe6"/><stop offset=".05" stop-color="#aecde6"/><stop offset=".23" stop-color="#7cc6e4"/><stop offset=".4" stop-color="#4fc1e3"/><stop offset=".57" stop-color="#32bcdf"/><stop offset=".73" stop-color="#19b9df"/><stop offset=".88" stop-color="#10b7de"/><stop offset="1" stop-color="#08b6de"/></linearGradient><linearGradient id="j" x1="17.135468%" x2="94.181185%" xlink:href="#a" y1="12.828462%" y2="87.432053%"/><linearGradient id="k" x1="49.996809%" x2="49.996809%" y1="-.005605%" y2="100.000354%"><stop offset="0" stop-color="#0468ad"/><stop offset=".09" stop-color="#5c9cc9"/><stop offset=".18" stop-color="#a0c8e1"/><stop offset=".25" stop-color="#d3e4f1"/><stop offset=".3" stop-color="#f4f8fb"/><stop offset=".33" stop-color="#fff"/><stop offset=".39" stop-color="#f1f3f6"/><stop offset=".51" stop-color="#cad4de"/><stop offset=".67" stop-color="#8da1b9"/><stop offset=".87" stop-color="#3a5d86"/><stop offset="1" stop-color="#1e325c"/></linearGradient><linearGradient id="l" x1="-3.896679%" x2="99.972451%" xlink:href="#f" y1="50.019794%" y2="50.019794%"/><linearGradient id="m" x1="19.46303%" x2="117.838943%" xlink:href="#a" y1="15.913115%" y2="85.005305%"/><linearGradient id="n" x1="121.198984%" x2="-57.581211%" y1="50.004292%" y2="50.004292%"><stop offset=".03" stop-color="#0468ad"/><stop offset=".22" stop-color="#026db0"/><stop offset=".46" stop-color="#087cba"/><stop offset=".72" stop-color="#0194ca"/><stop offset=".99" stop-color="#08b6de"/></linearGradient><linearGradient id="o" x1="49.990017%" x2="49.990017%" y1="121.295534%" y2="-57.71825%"><stop offset="0" stop-color="#2679ba"/><stop offset=".23" stop-color="#217dbc"/><stop offset=".51" stop-color="#1a8cc6"/><stop offset=".83" stop-color="#15a6d4"/><stop offset=".99" stop-color="#08b6de"/></linearGradient><linearGradient id="p" x1="-59.718153%" x2="125.489399%" xlink:href="#f" y1="50.008438%" y2="50.008438%"/><linearGradient id="q" x1="44.709055%" x2="55.26828%" xlink:href="#a" y1="3.698144%" y2="96.273035%"/><linearGradient id="r" x1="24.412546%" x2="74.402699%" xlink:href="#a" y1="533.320779%" y2="-356.763636%"/><linearGradient id="s" x1="50.040599%" x2="50.040599%" xlink:href="#a" y1=".005115%" y2="100.117795%"/><linearGradient id="t" x1=".040648%" x2="100.028851%" xlink:href="#a" y1="50.012916%" y2="50.012916%"/><linearGradient id="u" x1="44.671127%" x2="55.315233%" xlink:href="#a" y1="3.694818%" y2="96.305116%"/><linearGradient id="v" x1="49.98435%" x2="49.98435%" xlink:href="#a" y1="99.987398%" y2="-.020013%"/><linearGradient id="w" x1="49.987836%" x2="49.987836%" xlink:href="#a" y1="99.992677%" y2=".00185%"/><linearGradient id="x" x1="49.980402%" x2="49.980402%" xlink:href="#a" y1="99.990242%" y2="-.017359%"/><linearGradient id="y" x1="-.025746%" x2="99.977297%" xlink:href="#a" y1="50.001406%" y2="50.001406%"/><g fill="none" fill-rule="evenodd" transform="translate(0 70)"><path d="m247.011445 91.1535484c.049661-2.2950538 1.8871-4.1410753 4.146654-4.1660215 2.259554.0498925 4.072163 1.895914 4.072163 4.1660215s-1.812609 4.0911828-4.072163 4.0911828-4.096993-1.8210753-4.146654-4.0911828zm-.695247 0c0 2.6941935 2.160233 4.8645161 4.841901 4.8645161s4.841901-2.1703226 4.841901-4.8645161c0-2.6941936-2.160233-4.8645161-4.841901-4.8645161s-4.841901 2.1952688-4.841901 4.8645161zm7.523569 2.6941935-1.464985-2.3449462c.645587-.1995699 1.117362-.7982796 1.117362-1.471828 0-1.2972043-1.042871-1.7462365-2.085742-1.7462365h-2.334045v5.5630107h1.291174v-2.1703225h.769738l1.117361 2.1703225zm-3.451406-3.1182795v-1.2972043h1.042871c.248302 0 .769738.1746236.769738.5987096-.049661.3991398-.372454.6984947-.769738.6984947z" fill="#0278bb" fill-rule="nonzero"/><path d="m111.214743 11.9741935c-23.7625607 0-43.0308439 19.3582796-43.0308439 43.231828s19.2682832 43.231828 43.0308439 43.231828c23.762561 0 43.030844-19.3582796 43.030844-43.231828 0-23.8486021-19.268283-43.231828-43.030844-43.231828zm0 57.8752689c-8.045005 0-14.5505335-6.535914-14.5505335-14.6184947 0-8.0825806 6.5055285-14.6184946 14.5505335-14.6184946s14.550533 6.535914 14.550533 14.6184946c0 8.0825807-6.530358 14.6184947-14.550533 14.6184947z"/><path d="m111.214743 38.6916129c-9.038215-.0498925-16.4128031 7.2843011-16.4624637 16.3647312-.0496605 9.0804301 7.2504367 16.4894624 16.2886517 16.5393548 9.038215.0498925 16.412803-7.2843011 16.462464-16.3647312 0-.0498924 0-.1247311 0-.1746236-.049661-9.0055914-7.324927-16.3148387-16.288652-16.3647312z"/><path d="m111.214743 38.6916129c-9.038215-.0498925-16.4128031 7.2843011-16.4624637 16.3647312-.0496605 9.0804301 7.2504367 16.4894624 16.2886517 16.5393548 9.038215.0498925 16.412803-7.2843011 16.462464-16.3647312 0-.0498924 0-.1247311 0-.1746236-.049661-9.0055914-7.324927-16.3148387-16.288652-16.3647312z"/><path d="m111.214743 13.5458065c-22.8686712-.0498925-41.4417071 18.5350537-41.4913676 41.5105376-.0496606 22.9754839 18.4488845 41.6352688 41.3175556 41.6851613 22.868671.0498924 41.441707-18.5350538 41.491368-41.5105377 0-.0498924 0-.1247311 0-.1746236-.049661-22.9006452-18.523376-41.4606452-41.317556-41.5105376zm0 57.9501075c-9.038215.0498925-16.4128031-7.2843011-16.4624637-16.3647312-.0496605-9.0804301 7.2504367-16.4894624 16.2886517-16.5393548 9.038215-.0498925 16.412803 7.284301 16.462464 16.3647311v.0748387c-.02483 9.0804302-7.300097 16.4146237-16.288652 16.4645162z"/><path d="m111.214743 38.6916129c-9.038215-.0498925-16.4128031 7.2843011-16.4624637 16.3647312-.0496605 9.0804301 7.2504367 16.4894624 16.2886517 16.5393548 9.038215.0498925 16.412803-7.2843011 16.462464-16.3647312 0-.0498924 0-.1247311 0-.1746236-.049661-9.0055914-7.324927-16.3148387-16.288652-16.3647312z"/><g fill-rule="nonzero"><path d="m111.214743 38.6916129c-9.038215-.0498925-16.4128031 7.2843011-16.4624637 16.3647312-.0496605 9.0804301 7.2504367 16.4894624 16.2886517 16.5393548 9.038215.0498925 16.412803-7.2843011 16.462464-16.3647312 0-.0498924 0-.1247311 0-.1746236-.049661-9.0055914-7.324927-16.3148387-16.288652-16.3647312zm.074491 31.0580645c-8.045005 0-14.5505337-6.535914-14.5505337-14.6184946s6.5055287-14.6184946 14.5505337-14.6184946 14.550533 6.535914 14.550533 14.6184946c-.04966 8.0576344-6.530359 14.5686021-14.550533 14.6184946z" fill="url(#b)"/><path d="m111.289234 11.8993548c-23.7625609 0-43.0308441 19.3582796-43.0308441 43.231828s19.2682832 43.231828 43.0308441 43.231828c23.76256 0 43.055674-19.3333334 43.055674-43.231828.04966-23.8236559-19.144132-43.2068817-42.857032-43.231828-.074491 0-.124151 0-.198642 0zm-.074491 84.7423656c-22.8686712.0498925-41.4417071-18.5350537-41.4913676-41.5105376-.0496606-22.9754839 18.4488845-41.6103226 41.3175556-41.6602151 22.868671-.0498924 41.441707 18.5350538 41.491368 41.5105377v.0748387c-.024831 22.9255914-18.498545 41.5354839-41.317556 41.5853763z" fill="url(#c)"/><path d="m111.214743 96.6417204c22.868671.0498925 41.441707-18.5350537 41.491368-41.5105376.04966-22.9754839-18.448885-41.6352688-41.317556-41.6851613-22.8686714-.0498925-41.4417073 18.5350538-41.4913678 41.5105376v.0748387c0 22.9505377 18.4737148 41.5604302 41.3175558 41.6103226zm0-57.9501075c9.038215-.0498925 16.412803 7.2843011 16.462464 16.3647312.04966 9.0804301-7.250437 16.4894624-16.288652 16.5393548-9.038216.0498925-16.4128033-7.2843011-16.4624638-16.3647312 0-.0498924 0-.1247311 0-.1746236 0-9.0305376 7.3000968-16.3647312 16.2886518-16.3647312z" fill="url(#d)"/></g><path d="m132.171484 19.2834409c-12.390301-7.3092474-27.660912-7.6335484-40.3491756-.8731183 30.5660526-5.7376344 27.6360816 12.6227957 37.5930166 18.0111828 17.728807 9.6791398 22.421726-5.5630108 2.756159-17.1380645z" fill="url(#e)"/><path d="m111.214743 96.6417204c15.692725 0 30.019787-8.9307527 36.97226-23.0503226-10.900485 3.7419355-22.868671-1.4718279-28.505141-4.5152688-2.557517 1.5716129-5.487488 2.3948387-8.491949 2.4447312-7.300097-.0498925-13.7063049-4.9393548-15.6678955-11.9991398-11.4219205 2.1703226-20.187003-4.4404301-25.2772066-9.8288172-.1738119 1.7462366-.3476237 3.5673119-.3476237 5.3883871 0 22.9006452 18.4737148 41.5105377 41.3175558 41.5604301z" fill="url(#g)"/><path d="m28.5051406 55.2309677c.0496606-8.9307526 7.300097-16.140215 16.1893308-16.0903225 4.74258-.0249463 9.3610087 1.5716129 13.085548 4.5152688 0 .0498925.0496605.0748387.0744908.0748387h-.0744908c-.0744908-5.6627957-.0744908-25.0709678-.1738118-27.2412903h-.1738119c-4.7674102-1.1974194-9.6341416-1.8210753-14.5505334-1.8210753-22.372066-.2494624-40.72162952 17.7866667-40.96993214 40.288172v.7982796c0 22.351828 17.40601354 39.8391398 39.75324924 39.8391398 5.3633366-.0748387 10.6770126-.6735484 15.9410282-1.7462366v-.2494623c.0744908-2.9686022.0744908-20.979785.1738118-26.3681721-.0744908 0-.1738118 0-.1738118.0748387-3.5755577 2.7191398-7.9705141 4.1410753-12.4647915 3.9913979-9.1871969.0249462-16.6362755-7.1845161-16.6362755-16.0653764z" fill="url(#h)"/><path d="m43.9992241 39.1406452h.6952473c4.74258-.0249463 9.3610087 1.5716129 13.085548 4.5152688 0 .0498925.0496605.0748387.0744908.0748387h-.0744908c-.0744908-5.6627957-.0744908-25.0709678-.1738118-27.2412903h-.1738119c-4.7674102-1.1974194-9.6341416-1.8210753-14.5505334-1.8210753-4.9908827-.0498925-9.956935.848172-14.6250243 2.6193548 7.1759457 4.0163441 15.2209506 11.0511828 15.7423861 21.8529033z" fill="url(#i)"/><path d="m59.3443259 15.1922581c-5.3881668-1.5217205-10.9501455-2.2950538-16.5369544-2.3449463-23.9115422 0-42.6087294 19.1337635-42.6087294 43.0572043 0 23.9234409 18.1757517 41.5105377 41.3920466 41.5105377 4.3204655 0 12.2909796-.5987097 17.7536372-2.0954839v-31.7316129c-4.2459748 4.1660215-8.2188167 6.0868817-14.2774006 6.0868817-8.0450048 0-14.8981571-6.2615054-14.8981571-14.344086.0496605-7.9827957 6.5303589-14.3939785 14.4512124-14.3690323h.099321c6.0585839 0 10.4783706 2.5195699 14.7988361 6.535914z"/><path d="m44.6944714 39.1406452c4.74258-.0249463 9.3610087 1.5716129 13.085548 4.5152688-.0744908-5.5630108-.0744908-25.0709678-.1738118-27.2412903-4.8170708-1.2722581-9.758293-1.9208603-14.7243453-1.9208603-22.372066-.2494623-40.72162952 17.7866667-40.96993214 40.2881721v.9729032c0 22.351828 17.40601354 39.8391398 39.75324924 39.8391398 5.3633366-.0748387 10.6770126-.6735484 15.9410282-1.7462366.0744908-2.1703225.0744908-21.0546236.1738118-26.6176344-3.6252182 2.7939785-8.0946654 4.2408602-12.6386033 4.0911828-9.1871969 0-16.6362755-7.2094623-16.6362755-16.0903226.0496606-8.9307526 7.300097-16.140215 16.1893308-16.0903225z"/><path d="m44.6944714 39.1406452c4.74258-.0249463 9.3610087 1.5716129 13.085548 4.5152688-.0744908-5.5630108-.0744908-25.0709678-.1738118-27.2412903-4.8170708-1.2722581-9.758293-1.9208603-14.7243453-1.9208603-22.372066-.2494623-40.72162952 17.7866667-40.96993214 40.2881721v.9729032c0 22.351828 17.40601354 39.8391398 39.75324924 39.8391398 5.3633366-.0748387 10.6770126-.6735484 15.9410282-1.7462366.0744908-2.1703225.0744908-21.0546236.1738118-26.6176344-3.6252182 2.7939785-8.0946654 4.2408602-12.6386033 4.0911828-9.1871969 0-16.6362755-7.2094623-16.6362755-16.0903226.0496606-8.9307526 7.300097-16.140215 16.1893308-16.0903225z"/><path d="m30.243259 55.2309677c.0496605-7.9827957 6.5303588-14.3939785 14.4512124-14.344086 6.0585839 0 10.5776915 2.5195699 14.7988361 6.535914l-1.7381184-3.7419355c-3.7245392-2.9686021-8.342968-4.5651613-13.085548-4.5152688-8.8892337-.0498925-16.1396702 7.1595699-16.1893307 16.0903226 0 8.8808602 7.4490785 16.0903226 16.6362754 16.0903226 4.4942774.1247311 8.8892338-1.2722581 12.4647915-3.9913979h.1738118l1.7381184-3.5673118v-.1746237c-4.2459748 4.1660215-8.2188167 6.0868817-14.3767217 6.0868817-7.9456838-.1247311-14.8733268-6.3862365-14.8733268-14.4688172z" fill="url(#j)"/><path d="m57.7800194 67.2301075c-.0744908 5.3883871-.0744908 23.3995699-.1738118 26.3681721l1.8126091 1.2972043v-31.2326882s-1.7381183 3.5673118-1.6387973 3.5673118z" fill="#1e325c"/><path d="m57.6062076 93.5982796v.2494623c-5.2391853 1.0726882-10.5776916 1.6713979-15.9410282 1.7462366-22.3472357 0-39.75324924-17.4873118-39.75324924-39.8391398-.29796314-22.4765591 17.62948594-40.9617204 40.00155194-41.236129h.9683802c4.9163918 0 9.7831232.6236559 14.5505334 1.8210752l1.5643065-1.3969892c-5.2640155-1.4219355-10.6770126-2.1453763-16.1148399-2.1703226-23.9115422 0-42.60872942 19.1337635-42.60872942 43.0572043 0 23.9234409 18.10126092 41.5105377 41.39204652 41.5105377 4.2459748 0 12.2909797-.5987097 17.7536373-2.0954839v-.3492473z" fill="url(#k)"/><path d="m41.6651794 95.5939785c5.3633366-.0748387 10.6770126-.6735484 15.9410282-1.7462366v-.2494623c.0744908-2.9686022.0744908-20.979785.1738118-26.3681721-.0744908 0-.1738118 0-.1738118.0748387-2.2347236 1.7462366-4.8419011 2.943656-7.6228904 3.4924732-18.0019399 8.4318279-34.7375364 4.4404301-45.2903977-.2494624 5.9344326 15.2670968 20.6587779 25.2455914 36.9722599 25.0460215z" fill="url(#l)"/><path d="m57.7800194 67.2301075c-.0744908 5.3883871-.0744908 23.3995699-.1738118 26.6176344l1.8126091 1.3969893v-31.7565592s-1.7381183 3.7419355-1.6387973 3.7419355z" fill="#2679ba"/><path d="m57.6062076 93.5982796v.2494623c-5.2391853 1.0726882-10.5776916 1.6713979-15.9410282 1.7462366-22.3472357 0-39.75324924-17.4873118-39.75324924-39.8391398-.29796314-22.4765591 17.62948594-40.9617204 40.00155194-41.236129h.9683802c4.9163918 0 9.7831232.6236559 14.5505334 1.8210752h.2483027l1.6387972-1.2972043-.3476236-.1746236c-5.2640155-1.4219355-10.6770126-2.1453764-16.11484-2.1703226-23.9115422.0748387-42.60872938 19.2335484-42.60872938 43.1569893 0 23.9234408 18.12609118 41.4855914 41.41687678 41.4855914 4.2459748 0 12.2909797-.5987097 17.7536373-2.0954839l-1.8126091-1.3969893z" fill="url(#m)"/><path d="m57.6806984 16.4146237h-.0744908c.0744908 2.1703225.0744908 21.5784946.1738118 27.2412903l1.7381183 3.6421505v-32.1806451h-.0744908z" fill="#2679ba"/><path d="m160.651794 98.812043c15.14646-20.1066667 48.31969-63.7875269 63.49098-83.6946236-21.999612 22.4516129-47.624442 56.3036559-63.49098 83.6946236z" fill="#fff"/><path d="m160.577304 99.0864516c15.24578-20.0068817 48.41901-64.0369892 63.56547-83.9690322-21.999612 22.4516129-47.723763 56.5531182-63.56547 83.9690322z" fill="#fff"/><path d="m237.05451 15.1174194c-21.999612 22.4516129-47.723763 56.3036559-63.56547 83.6946236l18.175751-23.9234408 13.433172 19.408172h29.796314l-27.809893-39.7643011z" fill="url(#n)"/><path d="m160.651794 98.812043c15.14646-20.1066667 48.31969-63.7875269 63.49098-83.6946236-21.999612 22.4516129-47.624442 56.3036559-63.49098 83.6946236zm-12.886906 0 63.565471-83.7944086c-5.189525 5.3135484-10.825994 11.4004301-16.536955 18.0860215l-1.464985 1.7462366-13.358681-19.1337635h-29.44869l27.015324 38.8911828-.769738.947957c-10.552861 13.8202151-20.236663 28.264086-29.001746 43.2567742zm89.289622-83.6946236c-21.999612 22.4516129-47.723763 56.3036559-63.56547 83.6946236l18.175751-23.9234408 13.433172 19.408172h29.796314l-27.809893-39.7643011z" fill="url(#o)" fill-rule="nonzero"/><path d="m188.362367 57.3264516c-10.006596 13.2713979-19.268284 27.1415054-27.710573 41.4855914l30.143938-39.7643011zm-40.597479 41.4855914 34.812028-45.9260215c-5.63647-4.5152688-10.900485-9.1303226-15.593405-13.495914l10.577692 15.2172043-.769738.947957c-10.577692 13.8202151-20.261494 28.264086-29.026577 43.2567742zm75.335015-21.403871c-9.187197-3.8666666-17.97711-8.6064516-26.245587-14.1944086-8.740252 12.0989248-16.884578 24.3724732-23.390106 35.5982796l18.175751-23.9234408 13.458002 19.408172h29.796314z" fill="url(#p)" fill-rule="nonzero"/><path d="m173.48904 98.812043c15.841707-27.415914 41.565858-61.2430107 63.56547-83.6946236.347624-.3492474 7.871193-8.53161295 13.507663-14.86795703-28.927255 23.92344083-71.188361 79.60344083-87.20388 114.25376363l11.074297-16.8886023c-.347624.3741935-.670417.7733333-.94355 1.1974193z" fill="url(#q)"/><path d="m238.072551 95.8683871-3.376916-1.7462366c.099321 0 .173812.0748387.173812.1746237h-29.796314l-.869059 1.7462366h34.042289z" fill="url(#r)"/><path d="m193.477401 32.0808602-12.564113-18.0111828-.869059 1.6464516 13.25936 19.0589248h.074491l1.390494-1.6464516c5.71096-6.7105377 11.074297-12.5230108 16.363143-17.8365592l11.769544-12.62279569 1.91193-2.51956989c-9.410669 7.83311828-20.335984 19.05892478-31.33579 31.93118278z" fill="url(#s)"/><path d="m150.521048 15.716129h29.44869c.372454-.5488172.695247-1.1225806.94355-1.7462365h-33.669835l3.476237 1.9208602c-.099321 0-.099321-.0748387-.198642-.1746237z" fill="#2679ba"/><path d="m177.536372 54.6073118-27.015324-38.8911828-3.302425-1.7462365 28.232007 40.6374193c-16.288651 21.403871-30.839185 44.1049463-38.536566 61.3427962l.869059-1.047742s10.652183-16.9634413 9.956935-16.090323c8.789913-14.9926882 18.473715-29.4365591 29.001746-43.2318279z" fill="url(#t)"/><path d="m160.651794 98.812043c15.841707-27.415914 41.491368-61.2430107 63.49098-83.6946236l-.248303.2494623 12.29098-13.91999998c-28.852764 24.62193548-69.971678 79.00473118-85.738894 113.13118328l10.726673-16.4395704z" fill="url(#u)"/><path d="m236.185451 1.44688172-12.29098 14.01978498-62.721241 82.572043-10.726673 16.5393553-.595927 1.396989 87.899128-115.80043034z" fill="url(#v)"/><path d="m250.562173.14967742c-4.245975 4.78967742-9.261688 10.17806448-13.954608 15.39182798l-29.523181 38.9909677.769738 1.047742 20.956741 30.0103225c2.78099 3.9913979 5.015713 7.1346237 5.884772 8.5316129l3.376916 1.7462366-28.827934-41.236129z" fill="url(#w)"/><path d="m211.330359 15.0176344-47.897575 63.1888172c-.695248.7733333-1.291174 1.6464516-1.986421 2.5195699l-13.25936 17.5621505-10.37905 16.63914 85.142968-112.23311845z" fill="url(#x)"/><path d="m191.664791 75.0632258h-.173811l-18.00194 23.6739785.769738-1.3969892-10.900485 17.0632259c-.248303.523871-.422115 1.047742-.695247 1.471828l28.927255-38.0180647 12.638603 18.1858065.869059-1.7462366c-.869059-1.2972043-11.868865-17.1380645-13.33385-19.1337634-.024831-.0498925-.049661-.099785-.099322-.099785z" fill="url(#y)"/></g></svg>
