<svg height="256" viewBox="0 0 256 256" width="256" xmlns="http://www.w3.org/2000/svg"><g fill="none" fill-rule="evenodd" transform="translate(0 73)"><path d="m249.181111 102.068573v.714874h-2.031363v5.265904h-.834249v-5.265904h-2.033059v-.714874zm.724034 0h1.173375l1.734628 5.054462 1.719367-5.054462h1.158115v5.980778h-.773207v-3.529062c0-.12418.003391-.322197.008478-.605797.003392-.276888.008478-.582304.008478-.909535l-1.722758 5.044394h-.810511l-1.734628-5.044394v.18627c0 .145995.003391.369184.003391.669565.018652.298704.022043.516858.022043.659497v3.529062h-.785076v-5.980778zm-126.948328-45.2904657c0-11.5604882 9.414131-19.9459954 22.38569-19.9476735 4.373027 0 8.690097 1.3710145 11.565883 2.2839054.761338.2433257 2.033059.6477498 2.26536.6578184.415429 0 .82238-.263463 1.066551-.6930587l.537514-.9246377h4.517155l.70199 23.8442411h-5.639661l-.318778-1.4498856c-3.216608-14.763997-9.548085-16.6535469-14.696014-16.6535469-6.935121 0-9.442956 4.6215103-9.442956 7.7276888 0 3.795881 1.795671 6.7006864 5.483663 8.8721586 0 0 16.081343 9.4309687 16.084734 9.4360031 7.32342 4.4385965 13.386988 8.9258581 13.386988 18.9424866 0 14.3646071-13.704071 20.8219681-23.430197 20.8219681-3.835512 0-7.496374-.845767-10.724851-1.592525-2.57566-.597406-4.800325-1.110908-6.528171-1.053852-1.002116 0-1.002116 0-2.038145 1.149504l-.55108.6209h-4.473068v-26.6433254h5.760051l.293343 1.4733791c1.917756 9.4594966 5.453142 19.1337913 17.217414 19.1337913 6.378955 0 10.341639-3.3008393 10.341639-8.6137302 0-4.0157132-2.094101-6.9725401-6.794384-9.5903891l-8.622272-4.8547673c-9.668474-5.406865-18.348398-11.2215103-18.348398-22.9464531zm-60.9612415-52.84195272.1797366-.06376811 2.5654862 1.01357742v86.48299011c0 1.9700991.1271721 3.0843631.8206843 3.7220442.6816427.6175439 2.4756178 1.2887872 7.1470748.929672l1.9974506-.1543859v5.6367657l-24.0389277 8.419069-2.1331009-1.577421s0-3.675058 0-5.223952c-4.4764596 4.349657-10.3908124 6.576507-17.6294512 6.576507-2.9605677 0-28.9291208-.974981-28.9291208-34.8140351 0-9.6474447 3.48960381-19.3116705 9.5819976-26.5191457 6.1924359-7.328299 14.6044498-11.5336384 23.0673325-11.5336384 5.3293609 0 9.5497806 1.3357742 13.9092419 4.3966437 0-1.7620137 0-19.6372235 0-19.6372235 0-2.2436308-.0423907-3.6582761-.8223799-4.3580472-.6782514-.6024409-2.4857916-1.2183067-7.2471169-.7316553l-2.0466238.2114417v-5.8331045l1.4124587-.3490465c8.493404-2.0691076 19.0130843-5.48237991 21.6820038-6.42547678v.0016781zm-43.5183099 66.23829142c0 20.8102212 10.0584693 28.197254 18.672263 28.1989321 5.5786183 0 10.3568999-3.0575134 11.3844508-7.2745996 0-.1577421 0-32.7012967 0-32.7012967 0-6.7678108-5.0360171-13.7672006-13.4649872-13.7672006-7.6557635 0-16.5917266 6.692296-16.5917266 25.5441648zm223.0548644 32.199542 1.529457.268498v5.5881h-33.671794v-5.868344l.142433-.013425c6.804558-.500077 8.396753-1.545538 8.396753-10.6778035v-29.002746c0-9.8303585-2.916481-14.2118993-9.451434-14.2118993-7.538765 0-13.666767 7.1537757-14.502712 8.1774218v34.8861937c0 9.9427913 1.79228 10.1324183 8.451013 10.8355453l.306909.031884v5.843173h-34.485696v-5.700534l1.661716-.174523c7.267465-.760183 7.854152-1.580778 7.854152-10.9832188v-69.2001526s.01187-.6594965.01187-.6678871c.022043-1.4951945.050869-3.3545385-.883423-4.2942792-.559557-.5621662-1.539631-.8491228-2.921568-.8491228-1.320895 0-2.278925 0-3.513343.1359268l-2.061884.2282227v-5.8045766l1.356503-.3725401c5.595574-1.53882528 17.775275-5.14172383 20.913884-6.41205183l.630774-.25171624.233997-.09900839 2.445096 1.44988558v40.75118228c5.57014-5.9673531 12.457784-9.1540808 20.008418-9.1540808 13.366641 0 20.150852 8.4929061 20.150852 25.2437833v29.5934402c0 9.4041186.842727 9.5568266 7.398027 10.7046526z" fill="#0b0405"/><g fill="#fa002c"><path d="m84.9069101 16.568954c0-7.08329522 5.7973544-12.82578187 12.9579943-12.82578187 7.1538576 0 12.9529076 5.74248665 12.9529076 12.82578187 0 7.0816171-5.79905 12.8224256-12.9529076 12.8224256-7.1606399 0-12.9579943-5.7391304-12.9579943-12.8224256"/><path d="m77.157887 91.7633094s7.2216826 15.1046526 21.4683546 15.1046526c14.2432804 0 20.9274494-15.1046526 20.9274494-15.1046526s-10.30264 5.2692601-20.9274494 5.2692601c-10.319596 0-21.4683546-5.2692601-21.4683546-5.2692601"/><path d="m84.4253515 74.6499608s4.7460647 10.2784135 14.1093262 10.2784135c9.3581743 0 13.7532443-10.2784135 13.7532443-10.2784135s-7.61846 2.5205187-13.7532443 2.5205187c-6.141567 0-14.1093262-2.5205187-14.1093262-2.5205187"/><path d="m87.3011378 57.1825314s3.7676869 8.4912281 11.1911492 8.4912281c7.430245 0 10.916457-8.4912281 10.916457-8.4912281s-6.050003 1.5421815-10.916457 1.5421815c-4.8647587 0-11.1911492-1.5421815-11.1911492-1.5421815"/><path d="m90.0684037 40.4417229s2.826613 6.3617086 8.3899707 6.3617086c5.5701406 0 8.1881906-6.3617086 8.1881906-6.3617086s-4.919019 1.3005339-8.5747939 1.3005339c-3.6489929-.0016781-8.0033674-1.3005339-8.0033674-1.3005339"/></g></g></svg>
