<svg height="256" viewBox="0 0 256 256" width="256" xmlns="http://www.w3.org/2000/svg"><g fill="none" fill-rule="evenodd" transform="translate(0 92)"><path d="m53.8151362 5.0097c-5.3363381-3.1935-11.5320188-5.01-18.2114554-5.01-6.7260094 0-13.1094836 1.881-18.4638498 5.1585-1.6060094.987-2.5104225 1.7775-2.5104225 2.7945 0 2.997 7.01446 6.219 19.4614084 6.219 12.3177465 0 21.8711737-3.5295 21.8711737-6.927 0-.8115-.709108-1.3785-2.1468544-2.235m5.3002816 3.948c.1502348.234.2253522.483.2253522.8205 0 3.948-12.1029108 10.932-31.3690141 10.932-14.1551174 0-16.8052582-5.2425-16.8052582-8.577 0-1.1925.4582159-2.4105 1.466291-3.651.0555869-.072.0090141-.102-.0555868-.0465-1.8388733 1.5555-3.52751176 3.306-5.01032866 5.196-.70760563.8955-1.14779343 1.686-1.14779343 2.16 0 6.9105 17.35361499 11.9205 33.57896709 11.9205 17.2890141 0 25.0050705-5.6355 25.0050705-10.587 0-1.7715-.6895775-2.8035-2.4548357-4.806-1.1462911-1.3035-2.2294836-2.364-3.377277-3.408-.0555869-.048-.0946479-.009-.0555869.0465m-55.68300465 11.3325c-1.04413146 2.067-2.20093897 5.559-2.54497653 7.3665-.15173709.7725-.08713615 1.1445.18478873 1.722 2.18441315 4.6275 13.23117375 12.03 39.00093895 12.03 15.7205634 0 27.9331456-3.8565 29.9117371-10.893.3650704-1.296.3846009-2.6625-.0841314-4.506-.5228169-2.0595-1.5023475-4.4625-2.3316432-6.1485-.0270423-.0555-.0751174-.0465-.064601.018.3064789 9.2295-25.4723004 15.1785-38.4796244 15.1785-14.0890141 0-25.84338027-5.604-25.84338027-12.681 0-.6795.14122065-1.3605.3169953-2.0685.01802817-.0645-.03755868-.0765-.06610328-.018m25.01558685 29.49c-18.2234742 0-26.81539906-8.475-28.37333333-14.256-.01953052-.084-.07511737-.066-.07511737.0105 0 1.9455.19530516 4.458.53183098 6.126.15924883.8115.82178404 2.0835 1.79230047 3.1005 4.41239437 4.5915 15.41258215 11.0265 34.46384975 11.0265 25.9575587 0 31.891831-8.6325 33.1042254-11.472.8668544-2.0295 1.3160563-5.7 1.3160563-8.781 0-.747-.0195305-1.3425-.0480751-1.929 0-.093-.0555869-.102-.073615-.009-1.2965259 6.9465-23.4741784 16.1835-42.6381221 16.1835m9.5714554 15.636c8.7616901 0 18.3902347-2.385 24.1487324-7.107 1.5744601-1.2855 3.0753052-2.997 4.4199061-5.298.7752113-1.323 1.530892-2.8965 2.1483568-4.4415.0270423-.075-.0195305-.111-.0766197-.0285-5.3543662 7.8705-20.8615963 12.777-36.8721127 12.777-11.3171831 0-23.49370891-3.6135-28.26215961-10.5135-.04657277-.0645-.09314554-.036-.06460094.0375 4.44093896 9.4245 17.91549295 14.574 34.55849765 14.574m-24.2493897-1.8165c6.036432 4.665 13.61277 7.467 21.8336151 7.467 8.9960563 0 17.1958685-3.3345 23.4546478-8.808.0766198-.0675.0390611-.111-.0360563-.0675-2.8093897 1.8735-10.8138967 5.9625-23.4185915 5.9625-10.9551174 0-17.876432-2.4405-21.7870423-4.62-.073615-.0375-.1021596.018-.0465728.066" fill="#00a8e0"/><path d="m85.932169 19.84425h11.37277c3.27061 0 6.234742.9255 8.315493 3.0015 3.536526 3.531 3.186479 7.866 3.186479 12.591s.350047 9.318-3.186479 12.8475c-2.080751 2.082-5.044883 3.012-8.315493 3.012h-11.37277zm6.1506103 5.4705v20.5005h4.6452583c2.1228169 0 3.5380284-.6645 4.6031924-1.944 1.147793-1.4145 1.323568-3.669 1.323568-8.4345 0-4.7715-.175775-6.756-1.323568-8.1765-1.065164-1.2795-2.4803755-1.9455-4.6031924-1.9455zm22.4111177 25.9809v-31.4385h6.143098v31.4385zm12.34569-31.4382v.0015h12.338779c6.409014 0 10.206949 4.3695 10.206949 9.6225 0 4.4175-2.695212 7.155-5.744977 8.256l7.027981 13.5585h-7.116619l-6.144601-12.543h-4.424414v12.543h-6.143098zm6.143098 5.4735v8.3025h5.790047c2.699719 0 4.469484-1.725 4.469484-4.152 0-2.4255-1.769765-4.1505-4.469484-4.1505zm21.651831-5.4735h20.733897v5.4735h-14.590798v7.3755h12.427418v5.4735h-12.427418v7.6365h14.590798v5.4795h-20.733897zm27.274066 3.186c2.297089-2.304 5.127512-3.4485 8.486761-3.4485 6.058967 0 10.526948 3.531 11.589108 9.93h-6.240751c-.662536-2.691-2.337653-4.4565-5.301785-4.4565-1.679624 0-3.009201.525-3.93615 1.632-1.278497 1.371-1.545915 2.781-1.545915 8.874 0 6.096.267418 7.5045 1.545915 8.8755.926949 1.0995 2.256526 1.6305 3.93615 1.6305 2.964132 0 4.639249-1.764 5.301785-4.4565h6.240751c-1.06216 6.4005-5.573709 9.933-11.589108 9.933-3.359249 0-6.189672-1.1475-8.486761-3.4425-1.374648-1.3695-2.211455-2.961-2.566009-4.725-.353052-1.7655-.530329-4.3695-.530329-7.815s.177277-6.0495.530329-7.812c.354554-1.8105 1.191361-3.357 2.566009-4.719zm21.750986-3.186h22.595305v5.4735h-8.225352v25.965h-6.143098v-25.965h-8.226855zm44.639099 0h6.409014l-10.433803 31.4385h-4.600188l-10.388732-31.4385h6.360939l6.326385 20.484z" fill="#3d3d3d"/></g></svg>
