<svg height="256" viewBox="0 0 256 256" width="256" xmlns="http://www.w3.org/2000/svg"><g fill="none" fill-rule="evenodd" transform="translate(0 86)"><path d="m169.860957 39.4886259c-1.204824-5.4125386-2.876156-10.5064708-6.548461-14.9820426 1.399524-.8577865 2.698807-1.7344254 4.07327-2.4828677 11.73017-6.3702431 27.888311-4.5622931 37.671484 4.2022113 5.021708 4.4981947 7.853528 10.1595856 8.740278 16.6731074 1.542175 11.3265523-1.260728 21.5558921-9.133532 30.1149047-7.693527 8.3686029-17.528749 11.7827817-28.93699 10.8118805-8.115697-.6937702-14.999581-3.9175393-20.435749-9.954094-3.845799-4.2700801-5.675204-9.262209-5.852554-14.9198295-.115664-3.7139328-.210122-7.4429475-.645786-11.1267164-.402894-3.3915559-1.557597-6.6605708-3.944113-9.2414713-3.161459-3.4217198-7.336899-4.6791783-11.948002-4.5377849-9.657873.2978687-15.882477 7.5843409-17.087301 15.7210586-.474219 3.1973757-.360484 6.3683579.680484 9.4563893 2.301697 6.8358986 8.337385 10.0031104 15.33886 9.3036844 4.726767-.4713112 8.68823-2.4508186 11.905593-6.2326202.778798 5.7971286 2.735433 10.892946 6.935932 15.115895-.792292.5674588-1.466994 1.1122946-2.203382 1.5628682-4.13303 2.5262284-8.705579 3.8270475-13.478611 4.5095062-5.54412.7936881-11.036192.6315571-16.4126-1.0896717-3.174953-1.0161471-5.983639-2.6336873-8.458831-5.0958174-.300724 1.5421305-.539761 2.9353266-.867473 4.3096702-.06747.2790163-.468436.6899997-.719039.691885-5.096889.0509016-10.1918505.0490163-15.2868118.0565573-.0636147 0-.1272294-.0433606-.2506035-.0886065 5.3725528-27.1814634 10.7470333-54.3704678 16.1272973-81.59717711h16.233321c-1.441934 7.28081646-2.872301 14.49753461-4.345078 21.92728541.499279-.2695901.809642-.4354916 1.120004-.5995079 10.249682-5.4276206 27.390959-4.038195 36.397262 7.524013 2.800976 3.5951624 4.26797 7.7012261 4.753755 12.1183553.429882 3.8892606.516629 7.8162261.852052 11.7167982.277592 3.2218838 1.305066 6.2363906 3.117122 8.9605698 3.462183 5.2032764 9.106544 7.246882 15.74368 5.831063 9.827512-2.0926221 13.783191-9.3376189 14.575484-16.539255.258314-2.3678678.102169-4.7018012-.410605-7.0281936-1.278077-5.7971286-4.97737-9.2377009-10.829925-10.4159791-6.40581-1.2913928-11.971135.207377-16.470431 5.3239321zm-97.5238808 42.7145631c.1600007-.8596717.3257845-1.7570484.466508-2.5224579-2.3980824 1.0029504-4.726767 2.1887696-7.1903918 2.9654905-6.0723148 1.9135238-12.1639067 1.8136058-18.1668236-.3959014-6.7335224-2.4772121-10.2670313-7.4184394-11.3426985-14.2222888-.8134974-5.1354076-.0906027-10.1859792.8886785-15.2290097 2.0375989-10.4951593 4.0289327-20.9978596 6.0684593-31.4930189.3238568-1.6627862-.0674701-1.4290158 1.7522966-1.4346715 4.8231528-.0113115 9.6463057-.0018852 14.4694586-.0018852h1.2395233c-.4337368 2.2227039-.8385578 4.3304079-1.2530173 6.4362266-1.9238636 9.7712252-3.9209804 19.5311389-5.7253254 29.3249871-.4453031 2.4168842-.5455445 4.9713912-.3065073 7.4165541.370122 3.7893426 3.1036275 6.0704891 7.0188248 6.385325 5.9662902.4788523 11.2116135-2.6959004 13.9277696-8.4364716 1.4920544-3.1596708 2.1975996-6.5418004 2.8992893-9.9239301 2.1012137-10.1086841 4.2024274-20.2192534 6.290147-30.3317079.0944582-.4599998.1561452-.7955734.7807262-.7936882 5.1296602.0018852 10.2573927-.0263934 15.3870528-.0395901.0944583 0 .1908442.0433606.4568694.1112294-4.1966442 20.6792532-8.3894329 41.3509654-12.6169206 62.1848086zm-27.7412255-81.577382c-.9368714 4.87524375-1.8756705 9.7580285-2.8183251 14.6690919-2.0433821 0-4.0694148-.0320492-6.0935197.0150819-1.008197.022623-2.051093.0659836-3.0149524.3261474-2.1590453.584426-3.6260394 2.6035235-3.6954373 4.9336864h8.9908813c-.8038588 4.1362277-1.584585 8.1763079-2.3768775 12.2145028-.1600007.8087701-.1118077 1.9418024-.6284364 2.3282777-.5706048.4279506-1.6790432.192295-2.5542276.2073769-1.8332608.0339344-3.6684493.0829508-5.50171.0395902-.8212083-.0188525-1.1739809.1979507-1.337837 1.031229-1.831333 9.3168812-3.7070036 18.6262213-5.5691801 27.9374467-1.1720531 5.8593417-2.3441063 11.7205686-3.5180871 17.5799103-.0385544.1941802-.1156631.3808195-.1927719.6315571h-16.2853699c3.09206123-15.7135177 6.17833931-31.3931009 9.2858223-47.1876841h-8.91377254c1.05446228-5.0449158 2.08579193-9.9710612 3.10941071-14.8689279h8.46461403c.9484377-2.8146709 1.6501274-5.6745876 2.8510963-8.3177012 3.1344711-6.892456 8.8829291-10.49327409 16.3374183-11.69983093 4.3605004-.7069669 8.7306393-.52975387 13.094995.00565574.0944583.01131147.1812056.0754098.3662666.15459009z" fill="#ef8733"/><path d="m235.140868 26.2271218c-.985855-6.9137786-1.963902-13.7780032-2.965374-20.792872-.710597 0-1.419241-.00198216-2.125933 0-2.028324.00792865-4.060552.06739349-6.088876.00198217-.849202-.02775026-1.175217.23389503-1.37434 1.07234926-1.493425 6.27155837-3.037606 12.52924157-4.568121 18.79088907-.066375.2715561-.150319.5371657-.247928.8860261h-6.350469c1.610556-6.8622424 3.21135-13.6888059 4.829714-20.58078072h-7.269949c.486095-1.85530298.966333-3.68483785 1.456332-5.55401595h27.806971c.523186 5.85134014 1.040516 11.63330467 1.557846 17.41526917.068327.0118929.136653.0237859.20498.0336967.177649-.319128.365059-.6382559.5349-.9633304 2.748681-5.2329058 5.503219-10.4618473 8.224569-15.7106104.316255-.60852352.657888-.84440071 1.34701-.8245791 1.915097.05153619 3.834098.01585729 5.8878.01585729-.210836.42021819-.34749.72547103-.513426 1.01288442-4.650112 8.07334295-9.31389 16.14073939-13.944481 24.22597529-.411912.7195246-.860915 1.0287418-1.692547.9910807-1.509042-.0673935-3.021988-.0198216-4.708678-.0198216" fill="#67666b"/></g></svg>
