<svg height="256" viewBox="0 0 256 256" width="256" xmlns="http://www.w3.org/2000/svg"><g fill="none" fill-rule="evenodd" transform="translate(0 78)"><path d="m0 24.8047404h35.2010269v8.7117873h-25.29605027v13.1407446h23.92666897v8.4066383h-23.92666897v21.9277447h-9.90497663zm61.8677441 25.2899702c-1.294376-.4598723-2.3637363-.7628723-3.7331175-.7628723-5.5653882 0-10.0592731 5.5743404-10.0592731 13.600617v14.0583404h-9.4485162v-35.5326595h9.3713679v5.8107234h.1542965c2.1344346-4.2033192 5.18179-6.6466596 9.7506802-6.6466596 1.6779742 0 2.8223397.3825106 3.9645622.8359362zm184.1479169 0c-1.294376-.4598723-2.361594-.7628723-3.733118-.7628723-5.563245 0-10.05713 5.5743404-10.05713 13.600617v14.0583404h-9.448516v-35.5326595h9.371368v5.8107234h.154296c2.132292-4.2033192 5.179647-6.6466596 9.75068-6.6466596 1.677975 0 2.82234.3825106 3.96242.8359362zm-144.607087 9.1686511c0 9.3220851-7.3890871 18.5689574-19.5806519 18.5689574-11.8872577 0-19.3534928-8.7117872-19.3534928-18.4915957 0-11.1529787 9.2963627-18.719383 18.9720377-18.719383 13.1066285 0 19.962107 9.5520213 19.962107 18.6420213zm-28.7998664-.0752128c0 6.3415107 4.7253297 10.237532 9.5235215 10.237532 5.4839539 0 9.1442093-5.1961277 9.1442093-10.0871064 0-5.1939788-3.8102658-10.3148936-9.0670611-10.3148936-5.4860969 0-9.6006697 4.3580425-9.6006697 10.164468zm64.9903194 17.8020022h-9.446373v-20.6319362c0-3.6660851-1.067218-6.5692979-5.181791-6.5692979-5.715398 0-9.069204 5.961149-9.069204 12.7582341v14.443h-9.446373v-35.5283617h9.439944l.006429 5.5764893c1.523678-2.2929149 4.346018-6.4188723 11.201496-6.4188723 8.533452 0 12.495872 5.8837872 12.495872 13.2202553zm31.694211-.0015043v-35.5262128h9.446373v35.5262128zm48.838049-16.5016808h-26.208971c.533609 1.7556808.987926 3.0557872 2.20944 4.5836808 2.284445 2.7484894 5.63825 4.0485958 8.608457 4.0485958 5.179647 0 9.904977-2.6754256 14.017407-5.8816383v9.7024468c-3.122361 1.680468-8.98777 4.8888298-15.543227 4.8888298-11.274358 0-19.122048-8.6301277-19.122048-18.4894469 0-9.9323829 7.922695-18.717234 18.438429-18.717234 10.667887 0 17.600513 7.6394681 17.600513 18.4120851zm-10.211427-6.4940851c-.608613-4.0507447-4.114572-6.2662979-7.159785-6.2662979-.76291 0-6.019705.2299361-8.001986 6.2662979zm-53.593166-23.1524235v10.6995532h9.904976v7.1022341h-9.598527v15.5110213c0 3.9733829 2.134435 4.9661914 4.571034 4.9661914 1.905133 0 3.580964-.6124468 5.027493-1.2227446v8.4044893c-2.818054.7650213-5.713255 1.2248936-8.6106 1.2248936-6.399018 0-10.436443-3.2878723-10.436443-10.164468v-18.719383h-5.867552v-7.1022341h5.869695v-10.7403829h9.139924zm8.651532-10.8665255c0 2.492766-2.014427 4.5192128-4.506743 4.5192128-2.488031 0-4.502457-2.0264468-4.502457-4.5192128 0-2.4949149 2.014426-4.5192128 4.502457-4.5192128 2.492316 0 4.506743 2.0242979 4.506743 4.5192128zm-16.482722-8.6774042c0 2.1016595-1.699404 3.8057659-3.795264 3.8057659-2.093718 0-3.788836-1.7041064-3.788836-3.8057659 0-2.09951068 1.695118-3.80361706 3.788836-3.80361706 2.09586 0 3.795264 1.70410638 3.795264 3.80361706zm-15.7691-5.46904259c0 1.97057446-1.59011 3.56723404-3.555248 3.56723404-1.965137 0-3.555248-1.59665958-3.555248-3.56723404 0-1.97057447 1.590111-3.56508511 3.555248-3.56508511 1.965138 0 3.555248 1.59451064 3.555248 3.56508511zm-16.836317-2.73860426c0 1.70625532-1.377953 3.09017021-3.081643 3.09017021-1.701548 0-3.081644-1.38391489-3.081644-3.09017021s1.380096-3.08802128 3.081644-3.08802128c1.70369 0 3.081643 1.38176596 3.081643 3.08802128zm-17.075048 0c0 1.44623404-1.1679386 2.61525532-2.6101821 2.61525532-1.4401004 0-2.603753-1.16902128-2.603753-2.61525532 0-1.44408511 1.1636526-2.61525532 2.603753-2.61525532 1.4422435 0 2.6101821 1.17117021 2.6101821 2.61525532zm-16.5433683 2.14270426c0 1.27861702-1.0329292 2.31440425-2.3080181 2.31440425-1.277232 0-2.3101611-1.03578723-2.3101611-2.31440425 0-1.28076596 1.0329291-2.3165532 2.3101611-2.3165532 1.2750889 0 2.3080181 1.03578724 2.3080181 2.3165532zm-16.2420615 5.94524679c0 .8832128-.7157642 1.5988085-1.5986829 1.5988085-.8829188 0-1.59654-.7155957-1.59654-1.5988085 0-.8853617.7136212-1.60310637 1.59654-1.60310637.8829187 0 1.5986829.71774467 1.5986829 1.60310637zm-13.4064352 8.9859915c0 .5522766-.4457453 1.0014043-.998641 1.0014043s-.9986411-.4491277-.9986411-1.0014043c0-.5544255.4457454-1.0035532.9986411-1.0035532s.998641.4491277.998641 1.0035532zm-8.0319888 9.9850319c0 .4125958-.332166.7521277-.7500523.7521277-.4114573 0-.7479093-.3395319-.7479093-.7521277 0-.4147447.336452-.7521276.7479093-.7521276.4178863 0 .7500523.3373829.7500523.7521276zm136.3256518 1.9222234c0 2.7656809-2.275873 4.9769362-5.031779 4.9769362-2.895202 0-5.03178-2.3487872-5.03178-5.0457021 0-2.9719788 2.481602-5.0457022 4.826051-5.0457022 1.722978 0 5.237508 1.450532 5.237508 5.1144681z" fill="#ee001b"/><path d="m14.0853397 98.4311617c-1.594397 1.5988083-3.6323963 2.3079573-5.82683506 2.3079573-5.60181932 0-8.16914126-3.8852764-8.16914126-7.972553 0-4.0851277 2.61232507-8.148766 8.16914126-8.148766 2.10657556 0 4.07599856.7542766 5.67253856 2.355234l-1.6629732 1.5988086c-1.1293645-1.0895107-2.56946491-1.5988086-4.00956536-1.5988086-3.96241925 0-5.71325567 2.9075107-5.71325567 5.7720426 0 2.8430425 1.72940635 5.6624468 5.71325567 5.6624468 1.44010045 0 3.03449736-.5995532 4.12100176-1.6869149zm18.5502939-5.7080043c0 4.1968724-2.5437488 8.0391706-7.9269815 8.0391706-5.3810896 0-7.9291245-3.9304046-7.9291245-8.0155323 0-4.7319574 3.3023732-8.1509148 7.9719846-8.1509148 5.2932264 0 7.8841214 3.9304042 7.8841214 8.1272765zm-7.9269815 5.7527022c3.8531259 0 5.4710959-2.7549362 5.4710959-5.7075745 0-2.8645319-1.61797-5.8408085-5.4282358-5.9095745-3.6088231 0-5.513956 2.5099575-5.513956 5.9095745.0664332 2.7549362 1.61797 5.7075745 5.4710959 5.7075745zm26.0484599-9.9500043-5.2717963 7.3515107h-.5293227l-5.2075061-7.3515107v11.9265957h-2.4794586v-15.5475531h2.8802009l5.1153568 7.2848936 5.0939267-7.2848936h2.8780579v15.5475531h-2.4794586zm21.4699262 0-5.2717963 7.3515107h-.5314657l-5.2053631-7.3515107v11.9265957h-2.4794587v-15.5475531h2.880201l5.1153568 7.2848936 5.0917837-7.2848936h2.8802009v15.5475531h-2.4794586zm20.9862496-3.619883v9.1050426c0 4.5750851-3.0130674 6.8400641-6.7547569 6.7304681-3.4566697-.066617-6.4011608-2.3337447-6.4011608-6.7304681v-9.1050426h2.4580286v9.1050426c0 2.8000638 1.637257 4.375234 3.9431322 4.4418511 2.4794586.1095957 4.2967283-1.4655745 4.2967283-4.4418511v-9.1050426zm16.0369762 11.0384405v-11.0605745h2.479458v15.5454047h-1.883703l-8.790613-10.9703196v10.9703196h-2.5008885v-15.5454047h1.9029895zm7.970055 4.4869782v-15.5454038h2.458029v15.5454038zm21.02761-2.0002293c-1.592254 1.5988083-3.630253 2.3079573-5.824692 2.3079573-5.601819 0-8.171284-3.8852764-8.171284-7.972553 0-4.0851277 2.612325-8.148766 8.171284-8.148766 2.106576 0 4.075999.7542766 5.672539 2.355234l-1.662973 1.5988086c-1.129365-1.0895107-2.569465-1.5988086-4.009566-1.5988086-3.962419 0-5.713256 2.9075107-5.713256 5.7720426 0 2.8430425 1.727264 5.6624468 5.713256 5.6624468 1.440101 0 3.034497-.5995532 4.121002-1.6869149zm15.233348-1.2652936h-8.392014l-1.46153 3.2663829h-2.635898l6.954056-15.5475531h2.702332l6.954056 15.5475531h-2.638041zm-4.185292-9.661617-3.276657 7.3966383h6.555458zm13.688455-.3779979h-5.093926v-2.2434894h12.669455v2.2434894h-5.07464v13.3040638h-2.500889zm11.402724 13.3051378v-15.5454038h2.458029v15.5454038zm22.891811-7.7082336c0 4.1968724-2.545891 8.0391706-7.929124 8.0391706s-7.926982-3.9304046-7.926982-8.0155323c0-4.7319574 3.298088-8.1509148 7.971985-8.1509148 5.291083 0 7.884121 3.9304042 7.884121 8.1272765zm-7.929124 5.7527022c3.853126 0 5.471096-2.7549362 5.471096-5.7075745 0-2.8645319-1.61797-5.8408085-5.426093-5.9095745-3.608823 0-5.513956 2.5099575-5.513956 5.9095745.06429 2.7549362 1.615827 5.7075745 5.468953 5.7075745zm23.256551-2.5314468v-11.0605745h2.481601v15.5454047h-1.883702l-8.790614-10.9703196v10.9703196h-2.503031v-15.5454047h1.902989zm17.219487-7.4856043c-.728623-1.0637234-2.213726-1.7105532-3.829553-1.7320425-2.083003 0-3.589536.8660212-3.589536 2.2241489 0 1.5085532 1.727263 1.9297447 3.767405 2.2177021 3.186651.4663192 6.221148 1.3323404 6.221148 4.7749362 0 3.4855745-3.188793 4.7964258-6.42259 4.7964258-2.989495 0-5.248224-.9090003-6.664751-3.5307024l1.857987-1.244234c1.129364 1.8867659 3.034497 2.5550851 4.830337 2.5550851 1.860129 0 3.919559-.6017022 3.919559-2.5765745 0-1.6009575-1.772267-2.222-3.964562-2.5121064-3.079501-.4190425-6.002562-1.1948085-6.002562-4.5278085.066433-2.995617 3.143791-4.3322553 5.981131-4.3322553 2.235156 0 4.472455.5350851 5.779689 2.6217021z" fill="#5d5d60"/><path d="m246.990729 42.2921694v-.8513324h2.132291v.8513324h-.803627v3.3384129h-.525037v-3.3384129zm3.002352-.8699205.758624 1.8290636.765054-1.8290636h.512178v4.2083334h-.529322l.023573-2.7659011-.72648 1.7695819h-.113579l-.709335-1.8104756.019287 2.8067948h-.535752v-4.2083334z" fill="#fff"/></g></svg>
