<svg height="256" viewBox="0 0 256 256" width="256" xmlns="http://www.w3.org/2000/svg"><g fill="none" fill-rule="evenodd" transform="translate(0 86)"><path d="m63.7288122 48.3887345 23.3273066-16.9145454-28.8362481.0488727z" fill="#fab20b"/><path d="m43.581236.00030545-10.251222 31.65425455h-33.3306261l26.9968737 19.5078545-10.3017205 31.6435637 26.934133-19.5994909 26.9677987 19.5582545z" fill="#5d5d5d"/><path d="m108.542674 57.1146545c-8.395015 0-13.8687604-4.0671272-13.8687604-12.8138181 0-9.1330909 4.9672289-13.0505455 14.1564494-13.0505455 3.573161 0 5.573212.6399273 7.579385 1.4616l-1.608305 4.3878546c-2.397919-.6093819-3.508889-.8568-6.079729-.8568-4.500499 0-7.865544 2.1381818-7.865544 7.7066181 0 5.5669091 3.717005 8.0976 8.326153 8.0976.576909 0 1.11403-.0336 1.608305-.0336v-5.8540363h6.078199v9.4889454c-2.856999 1.1103273-5.253388 1.4677091-8.326153 1.4677091zm34.631195.10584c-4.933563-.2474181-7.619172-2.8178181-10.263464-5.8830545l-2.856998-3.3187636c-.428473.0336-.893673.0336-1.355812.0336h-1.860798v8.7008727h-6.113395v-25.2244364h9.8304c5.681861 0 9.755418 2.604 9.755418 8.2472728 0 2.8178181-1.354282 5.2736727-4.073557 6.8146909l2.575431 2.7781091c1.395598 1.4936727 2.968707 2.5016727 5.717057 3.214909zm-13.40356-20.905309h-2.933512v7.4882181h2.075035c3.606826 0 5.144739-1.4952 5.144739-3.8884363 0-2.5291637-1.037517-3.5997818-4.286262-3.5997818zm35.211317 20.439949-2.390268-7.4194909h-8.546511l-2.754471 7.4194909h-6.073608l9.721752-25.2259636h7.830348l8.505193 25.2259636zm-5.181465-16.7312727-1.179832-4.7437091-1.394068 4.7437091-1.574639 4.9239273h5.508941zm30.279896 16.7335637-9.691146-16.8748364.149966 3.3538909v13.5209455h-6.079729v-25.2259637h7.042263l9.940579 17.3055273-.180571-2.8178182v-14.4877091h6.073608v25.2259637zm22.093151.0007636h-9.261143v-25.2244364h9.046906c8.760748 0 14.765494 3.7448728 14.765494 12.5205818 0 8.7421091-5.435489 12.7038546-14.551257 12.7038546zm-.316764-20.4792h-2.899846v15.7354909h3.614478c5.825706 0 8.078251-2.6406545 8.078251-7.5981818 0-5.4233455-2.719275-8.1373091-8.792883-8.1373091zm18.31218 20.4784364v-25.2259637h16.584975v4.7452364h-10.505246v5.6020363h9.720222v4.4229819h-9.720222v5.7104727h11.328527v4.7452364z" fill="#fab20b"/><path d="m101.949542 73.5178691c-3.9587865 0-5.9925041-1.9396364-5.9925041-5.4813818 0-3.7555637 2.0000518-5.5837091 5.9343541-5.5837091 1.602184 0 2.554007.2642182 3.365045.6277091l-.690148 1.8800727c-1.026805-.2825455-1.452218-.3573818-2.645822-.3741818-1.9587347-.0152727-3.3191372 1.0416-3.3191372 3.3019636 0 2.2603637 1.4415062 3.4623273 3.6251892 3.4623273 1.054351 0 1.675637-.0824727 2.51116-.3054546l.549363 1.9549091c-1.043638.3802909-1.949553.5177455-3.3375.5177455zm10.160324.0343636c-3.796578 0-5.663497-2.1381818-5.663497-5.6066182 0-3.6410181 2.263256-5.5394181 5.951187-5.5394181 3.931241 0 5.625241 2.1977454 5.625241 5.5684363 0 3.5875637-2.062793 5.5776-5.912931 5.5776zm.151496-9.0979636c-2.293862 0-3.181413 1.4952-3.181413 3.4791273 0 1.9671272.870718 3.5722909 3.077356 3.5722909 2.379556 0 3.2212-1.5303273 3.2212-3.5432728 0-2.0129454-.93499-3.5081454-3.117143-3.5081454zm17.663197 8.9143854v-4.0136727l.074983-2.3871273-2.564719 6.4008h-2.909027l-2.220409-6.5794909.17445 2.5658182v4.0136727h-2.598384v-10.7947636h3.156929l3.014615 8.4763636 3.456861-8.4763636h3.013085v10.7947636zm15.035125 0v-4.0136727l.074983-2.3871273-2.569309 6.4008h-2.904436l-2.218879-6.5794909.172919 2.5658182v4.0136727h-2.598384v-10.7947636h3.163051l3.008494 8.4763636 3.456861-8.4763636h3.013084v10.7947636zm9.942263.1939637c-2.494327 0-5.02997-.7941818-5.02997-4.2901091v-6.7001455h2.627459v6.6130909c0 1.6448728.754419 2.2099637 2.402511 2.2099637 1.635849 0 2.396389-.6109091 2.396389-2.5306909v-6.2923637h2.560128v6.3381819c0 3.7723636-2.541765 4.6520727-4.956517 4.6520727zm13.948639-.1939637-4.143948-7.2178909.064271 1.4325819v5.785309h-2.604505v-10.7932363h3.013085l4.252597 7.4072727-.074983-1.2080727v-6.2007273h2.598384v10.7947636zm5.490579-.0015272v-10.7779637h2.604505v10.7779637zm10.450156.1507418c-3.960317 0-6.000156-1.9396364-6.000156-5.4813818 0-3.7555637 2.006173-5.5837091 5.935885-5.5837091 1.602183 0 2.558597.2642182 3.365045.6277091l-.691679 1.8800727c-1.019154-.2825455-1.444566-.3573818-2.639701-.3741818-1.964855-.0152727-3.317607 1.0416-3.317607 3.3019636 0 2.2603637 1.433855 3.4623273 3.619069 3.4623273 1.05282 0 1.681757-.0824727 2.505038-.3054546l.553955 1.9549091c-1.037518.3802909-1.941902.5177455-3.329849.5177455zm12.461837-.1476873-1.025275-3.1813091h-3.648143l-1.181362 3.1813091h-2.598384l4.153129-10.7947636h3.355864l3.635901 10.7947636zm-2.218879-7.1598545-.500395-2.0312728-.599863 2.0312728-.667194 2.1045818h2.356603zm9.976234-1.6062328v8.7650182h-2.598384v-8.7650182h-3.401771v-2.0312727h9.394275v2.0312727zm4.705707 8.7630328v-10.7779637h2.598384v10.7779637zm10.111203.1851054c-3.793518 0-5.652786-2.1381818-5.652786-5.6066182 0-3.6410181 2.257136-5.5394181 5.945066-5.5394181 3.931242 0 5.625241 2.1977454 5.625241 5.5684363 0 3.5875637-2.062792 5.5776-5.917521 5.5776zm.154557-9.0979636c-2.292332 0-3.181414 1.4952-3.181414 3.4791273 0 1.9671272.870719 3.5722909 3.077356 3.5722909 2.381087 0 3.222731-1.5303273 3.222731-3.5432728 0-2.0129454-.93499-3.5081454-3.118673-3.5081454zm14.299222 8.9143854-4.143948-7.2178909.05815 1.4325819v5.785309h-2.593793v-10.7932363h3.008494l4.246476 7.4072727-.068862-1.2080727v-6.2007273h2.598384v10.7947636zm8.353698.1649455c-1.775103 0-2.812621-.3222545-3.62519-.7651636l.731465-1.8632728c.968656.3390546 1.664925.4887273 2.858529.4887273 1.302252 0 1.902115-.3909818 1.902115-1.0522909 0-1.7548364-5.141679-1.2768-5.141679-4.9407273 0-2.0816727 1.970977-2.9155636 3.883804-2.9155636 1.713893 0 2.543295.3619636 3.383408.7300364l-.748298 1.7991272c-.795736-.2290909-1.458339-.4352727-2.554006-.4352727-1.088016 0-1.427734.3451636-1.427734.8048727 0 1.4371637 5.231964 1.4371637 5.231964 4.872 0 2.3626909-2.258666 3.2775273-4.494378 3.2775273zm7.792575-6.0415855c-1.62531 0-2.563365-1.0724085-2.563365-2.6394054 0-1.632622 1.104169-2.6105946 2.696908-2.6105946 1.69371 0 2.563366 1.1284299 2.563366 2.6282013 0 1.5862042-1.02437 2.6217987-2.696909 2.6217987zm.073286-4.6769817c-1.301226 0-1.962424.8691311-1.962424 2.0311738 0 1.115625.63677 2.0743903 1.913567 2.0743903 1.34194 0 1.985224-.8931403 1.985224-2.063186 0-1.1748476-.692141-2.0423781-1.936367-2.0423781zm1.312625 3.4365092c-.369684-.0176067-.664455-.1984756-.921769-.5057927-.084685-.102439-.324085-.4033537-.410399-.5185976-.055371.0064025-.115628.0064025-.184028.0064025h-.201943v.9827744h-.618855v-2.8394817h1.02274c.607456 0 1.079741.2112805 1.079741.8995426 0 .3969513-.208457.6434452-.496713.7650915l.166113.1920732c.201943.2416921.379457.4161585.692142.5185975zm-1.394054-2.3881098h-.324085v.8803354h.2394c.374571 0 .589541-.102439.589541-.4449695 0-.3121189-.153085-.4353659-.504856-.4353659z" fill="#5d5d5d"/></g></svg>
