<svg height="256" viewBox="0 0 256 256" width="256" xmlns="http://www.w3.org/2000/svg"><g fill="none" fill-rule="evenodd" transform="translate(0 104)"><path d="m133.151414 31.8675064c-2.605348 0-4.459796-1.2020426-5.65252-3.5611915l15.590539-6.4994043-.529987-1.3337872c-.971812-2.6267234-3.932849-7.4777872-9.982607-7.4777872-6.00517 0-10.99698 4.7642553-10.99698 11.7497872 0 6.587234 4.947223 11.7497872 11.571555 11.7497872 5.343446 0 8.43622-3.2915744 9.716093-5.2054468l-3.974397-2.6716595c-1.325474 1.9567659-3.137361 3.2497021-5.741696 3.2497021m-.39825-14.3315745c2.032799 0 3.754498 1.0233192 4.328059 2.4919149l-10.422405 4.3628936c-.131736-4.5405957 3.490011-6.8548085 6.094346-6.8548085" fill="#fe2c25"/><path d="m113.984728 35.783183h5.122534v-34.53753194h-5.122534z" fill="#00ac47"/><path d="m105.594718 13.7078809v1.9138723h-.177338c-1.148137-1.3797447-3.357261-2.6267234-6.1389333-2.6267234-5.8288451 0-11.1733043 5.1625532-11.1733043 11.7967659 0 6.5851915 5.3444592 11.7028086 11.1733043 11.7028086 2.7816723 0 4.9907963-1.2449362 6.1389333-2.6706383h.177338v1.6932766c0 4.4946383-2.386462 6.8966808-6.2270956 6.8966808-3.1363484 0-5.0799723-2.2682553-5.873433-4.1831489l-4.4618228 1.8709787c1.2798733 3.1148936 4.6807085 6.9426383 10.3352558 6.9426383 6.0051696 0 11.0841286-3.5601702 11.0841286-12.2410213v-21.0954893zm-5.8744465 18.1593191c-3.5335853 0-6.4915823-2.9831489-6.4915823-7.0754043 0-4.1412766 2.957997-7.1673191 6.4915823-7.1673191 3.4879845 0 6.2281085 3.0260425 6.2281085 7.1673191 0 4.0922554-2.740124 7.0754043-6.2281085 7.0754043z" fill="#2684fc"/><path d="m74.2825104 12.9948255c-6.4480079 0-11.7032914 4.9419575-11.7032914 11.7508085 0 6.7659575 5.2552835 11.7497873 11.7032914 11.7497873 6.4469946 0 11.7022781-4.9838298 11.7022781-11.7497873 0-6.808851-5.2552835-11.7508085-11.7022781-11.7508085m0 18.8721702c-3.532572 0-6.5797446-2.9371914-6.5797446-7.1213617 0-4.2291063 3.0471726-7.1213617 6.5797446-7.1213617 3.5315587 0 6.5797447 2.8922554 6.5797447 7.1213617 0 4.1841703-3.048186 7.1213617-6.5797447 7.1213617" fill="#ffba00"/><path d="m48.756587 12.9948255c-6.4480079 0-11.7053181 4.9419575-11.7053181 11.7508085 0 6.7659575 5.2573102 11.7497873 11.7053181 11.7497873 6.448008 0 11.7032915-4.9838298 11.7032915-11.7497873 0-6.808851-5.2552835-11.7508085-11.7032915-11.7508085m0 18.8721702c-3.5335853 0-6.5817714-2.9371914-6.5817714-7.1213617 0-4.2291063 3.0481861-7.1213617 6.5817714-7.1213617 3.532572 0 6.5797447 2.8922554 6.5797447 7.1213617 0 4.1841703-3.0471727 7.1213617-6.5797447 7.1213617" fill="#fe2c25"/><path d="m35.0208 16.6011574h-16.6495002v4.9858724h11.8370549c-.3556893 2.8034042-1.2829134 4.8500425-2.6945235 6.2747234-1.7216982 1.7361702-4.4172351 3.6500425-9.1425314 3.6500425-7.2850431 0-12.98215146-5.9193191-12.98215146-13.2643404s5.69710836-13.26434041 12.98215146-13.26434041c3.929809 0 6.8016704 1.55744681 8.921619 3.56221277l3.4889975-3.5172766c-2.9600238-2.84834042-6.8888194-5.02774468-12.4106165-5.02774468-9.9795666 0-18.37119846 8.18961702-18.37119846 18.24714892 0 10.0585532 8.39163186 18.247149 18.37119846 18.247149 5.3900603 0 9.4505927-1.7790639 12.6305155-5.1176171 3.2690985-3.2946383 4.2854983-7.9210212 4.2854983-11.6609361 0-1.1571064-.090189-2.2253617-.2665136-3.1148937" fill="#2684fc"/><path d="m178.465618 21.9429447h-13.152396v13.8413617h-4.115253v-32.28051066h18.699526v3.96765958h-14.584273v10.59472338h13.152396zm9.639787-15.86971917c0 .8119149-.284754 1.50434043-.851222 2.07421277-.565455.57191489-1.251499.85685106-2.05712.85685106-.803594 0-1.491666-.28493617-2.05712-.85685106-.566468-.56987234-.850209-1.26229787-.850209-2.07421277 0-.81089362.283741-1.50229787.850209-2.07319149.566468-.57089361 1.253526-.85685106 2.05712-.85685106.805621 0 1.491665.28595745 2.05712.85685106.566468.57089362.851222 1.26229787.851222 2.07319149zm-4.967489 29.71097877v-22.0912341h4.116267v22.0912341zm19.988723.7209191c-1.611242 0-3.0796-.3462128-4.408115-1.037617-1.327501-.690383-2.346941-1.6064681-3.063386-2.7492766h-.178351v3.0658723h-3.936903v-32.27948933h4.115254v10.18825533l-.178351 3.0658723h.178351c.716445-1.1417872 1.735885-2.0588936 3.063386-2.7502978 1.328515-.690383 2.796873-1.0365958 4.408115-1.0365958 2.892129 0 5.337366 1.1417872 7.334698 3.426383 2.059147 2.3142128 3.087707 5.0941276 3.087707 8.3407659 0 3.2762554-1.02856 6.0561703-3.087707 8.340766-1.997332 2.2835745-4.442569 3.4253617-7.334698 3.4253617zm-.671857-3.7868936c1.967944 0 3.622761-.7506383 4.964449-2.2539575 1.343715-1.4726808 2.013546-3.3814468 2.013546-5.7252766 0-2.3142127-.669831-4.2229787-2.013546-5.7262978-1.341688-1.5033192-2.996505-2.2539575-4.964449-2.2539575-1.998346 0-3.667349.7506383-5.009038 2.2539575-1.313314 1.5033191-1.968957 3.4120851-1.968957 5.7262978 0 2.3438298.655643 4.2668937 1.968957 5.7702128 1.341689 1.4726809 3.010692 2.2090213 5.009038 2.2090213zm24.462098 3.7868936c-3.222484 0-5.876473-1.1121702-7.963994-3.3365106-2.087521-2.2233192-3.130268-5.0328511-3.130268-8.4296171 0-3.3661276 1.012346-6.1695319 3.041092-8.4091914 2.027733-2.2386383 4.621934-3.3579575 7.783616-3.3579575 3.248832 0 5.837966 1.0590638 7.762336 3.1782128 1.922343 2.1191489 2.884022 5.0869787 2.884022 8.9034893l-.044588.4514043h-17.223062c.059788 2.1640851.776233 3.9074042 2.148322 5.2299574 1.371076 1.3225532 3.011706 1.9833192 4.920875 1.9833192 2.623589 0 4.680709-1.3225532 6.173388-3.9676596l3.667349 1.8035745c-.983973 1.8638298-2.348968 3.3211915-4.091947 4.3731064-1.746019 1.0519149-3.721057 1.5778723-5.927141 1.5778723zm-6.576705-14.4265532h12.569714c-.118563-1.5329362-.737726-2.802383-1.856475-3.8093617-1.117735-1.0069787-2.616494-1.5104681-4.495263-1.5104681-1.550441 0-2.885036.4810213-4.003785 1.4420426-1.118749.9630638-1.856475 2.2549787-2.214191 3.8777872zm23.569227 1.5329362v12.1725957h-4.116267v-22.091234h3.936903v3.6071489h.179364c.415478-1.1724255 1.274807-2.171234 2.571907-2.9984681 1.296088-.8262127 2.570894-1.2398298 3.82442-1.2398298 1.192724 0 2.207098.180766 3.041093.5412766l-1.252513 4.0125958c-.507693-.2093617-1.313314-.3155745-2.41585-.3155745-1.55044 0-2.899222.631149-4.047358 1.8934468-1.14915 1.2622979-1.721699 2.736-1.721699 4.4180426z" fill="#5e6369"/></g></svg>
