<svg height="256" viewBox="0 0 256 256" width="256" xmlns="http://www.w3.org/2000/svg"><g fill="none" fill-rule="evenodd" transform="translate(1 101)"><path d="m68.4325557 26.1122167v-9.9963889h3.387721v-9.12090743h11.5935122v9.12090743h5.1007908v9.9963889h-5.1204925v7.0578333c0 .7959815-.066001 2.0071296 2.1780317 2.0071296 1.228406.0206111 2.6390534-.0588889 2.6390534-.0588889v9.7088149c-1.2027937.2129814-4.3462126.5643518-7.1143127.5643518-7.6265589 0-9.2765829-3.658963-9.2765829-7.603537v-11.6757037zm-52.4092953-10.9458741c9.1977759 0 16.0205022 6.7947963 16.0205022 15.3179815 0 8.533-6.8227263 15.3258333-16.0205022 15.3258333-9.1928504 0-16.02345742-6.7928333-16.02345742-15.3258333 0-8.5231852 6.83060702-15.3179815 16.02345742-15.3179815zm.0068956 20.2715185c2.7355921 0 4.9609082-2.2122592 4.9609082-4.9486296 0-2.7285185-2.2253161-4.9437222-4.9609082-4.9437222-2.745443 0-4.9717441 2.2152037-4.9717441 4.9437222 0 2.7363704 2.2263011 4.9486296 4.9717441 4.9486296zm37.8526353-20.298313c7.4679596 0 13.3440154 6.441463 13.3440154 15.345463 0 8.9098889-5.8760558 15.3533148-13.3440154 15.3533148-3.299063 0-6.0464761-1.0040555-8.0186243-3.1642963v9.6872223h-11.5747956v-36.2451297h11.5747956l-.0088658.4858334c0 .8156111-.0719115 1.4624074-.1467783 1.8785555 1.9800289-2.2829259 4.7875325-3.340963 8.1742684-3.340963zm-3.310884 20.3088149c2.7405175 0 4.9658335-2.2112778 4.9658335-4.9437223 0-2.7314629-2.225316-4.9437222-4.9658335-4.9437222-2.7434729 0-4.9628783 2.2122593-4.9628783 4.9437222 0 2.7324445 2.2194054 4.9437223 4.9628783 4.9437223zm50.2579597-35.44846115c3.903907 0 7.063088 3.15742593 7.063088 7.04605556 0 3.88961109-3.159181 7.04311109-7.063088 7.04311109-3.9058782 0-7.0719542-3.1535-7.0719542-7.04311109 0-3.88862963 3.166076-7.04605556 7.0719542-7.04605556zm-9.1596532 26.11368885v-9.9973703h14.9920692v28.7682037h-11.5826763v-18.7708334zm85.3804202 5.5151408v-15.5152593h11.576766v16.9855185c-.092598 6.0135371-4.624993 12.2616482-14.505435 12.2616482-9.820352 0-14.39215-6.2481111-14.39215-12.2616482v-16.9855185h11.594497v15.5152593c0 2.3624259 1.523933 3.1005 2.797653 3.1005 1.304258 0 2.928669-.7459259 2.928669-3.1005zm50.725877-15.9999148c5.192404 0 10.345405 3.3360555 10.345405 9.5684629v19.6944074h-11.586617v-16.2366481c0-2.0738704-1.296377-2.9581852-2.834101-2.9581852-1.464827 0-2.641024 1.0835556-2.973984 1.5929444v17.6018889h-11.57578v-16.2366481c0-2.0738704-1.299333-2.9562222-2.826221-2.9562222-1.473693 0-2.645949 1.0835555-2.974968 1.5909814v17.6018889h-11.573811v-28.775074h11.560019v.5064444c0 1.4241296-.234451 2.3781296-.234451 2.3781296 1.830295-2.1052777 4.633859-3.3723703 7.380287-3.3723703 3.632023 0 6.47893 1.6587037 8.105312 4.3361852 2.198719-2.7206667 5.346078-4.3361852 9.18891-4.3361852zm-81.537785 0c5.184523 0 10.351315 3.3360555 10.351315 9.5684629v19.6944074h-11.592528v-16.2366481c0-2.0738704-1.299332-2.9581852-2.83016-2.9581852-1.473693 0-2.648905 1.0835556-2.973984 1.5929444v17.6018889h-11.579721v-16.2366481c0-2.0738704-1.298347-2.9562222-2.833116-2.9562222-1.471723 0-2.642008 1.0835555-2.972998 1.5909814v17.6018889h-11.571841v-28.775074h11.56199l-.002956.5064444c0 1.4241296-.236421 2.3781296-.236421 2.3781296 1.831281-2.1052777 4.634844-3.3723703 7.383242-3.3723703 3.631038 0 6.481886 1.6587037 8.106297 4.3361852 2.200689-2.7206667 5.348048-4.3361852 9.190881-4.3361852z" fill="#231e1f"/><path d="m247.441251 31.2999352c-3.905877 0-7.069983 3.151537-7.069983 7.0401667 0 3.8905925 3.164106 7.0440925 7.069983 7.0440925 3.900953 0 7.063088-3.1535 7.063088-7.0440925 0-3.8886297-3.162135-7.0401667-7.063088-7.0401667" fill="#ef8133"/></g></svg>
