<svg height="256" viewBox="0 0 256 256" width="256" xmlns="http://www.w3.org/2000/svg"><g fill="none" fill-rule="evenodd" transform="translate(0 85)"><path d="m241.075745 79.9927766c0 .3273404-.303206.5642553-.580993.5642553h-.869674v-1.1556383h.869674c.277787 0 .580993.2369149.580993.591383zm.486581 2.2190425-.855149-1.275c.185192 0 .817022-.2351063.817022-.9440425 0-.591383-.488398-.9711702-1.029447-.9711702h-1.305419v3.1902127h.435745v-1.2605319h.568284l.82973 1.2605319zm1.096624-1.6005319c0 1.3003192-1.06939 2.376383-2.402042 2.376383-1.319943 0-2.387518-1.0760638-2.387518-2.376383 0-1.3419149 1.067575-2.3926595 2.387518-2.3926595 1.332652 0 2.402042 1.0507446 2.402042 2.3926595zm.393986 0c0-1.5517021-1.238241-2.7869149-2.796028-2.7869149-1.541447 0-2.796029 1.2352128-2.796029 2.7869149 0 1.5354256 1.254582 2.7832979 2.796029 2.7832979 1.557787 0 2.796028-1.2478723 2.796028-2.7832979zm-4.135943-60.1655319c-5.802667 0-6.924709 4.8865958-6.924709 4.8865958l-8.14661 27.0824468-4.399206-31.9672341-20.167716-.0018085c-5.802667 0-6.924709 4.8865958-6.924709 4.8865958l-17.302695 57.5938298h22.017815l10.014865-33.394149 4.281192 33.394149h23.299631l18.787858-62.4786171zm-123.67705.003617c17.725731.5262766 19.893561 8.740532 18.252256 18.275-1.75932 10.2018086-9.132483 14.6507447-16.035405 17.240532 2.173277 1.289468 3.460539 3.7146808 3.899915 8.1202127l1.906383 18.8410639h-22.909276l-.8587805-20.4795745c-.0508369-2.8773404-1.0258156-4.1867021-3.9253334-4.2644681h-1.8718865l-7.4221844 24.7440426h-22.2302411l17.2790922-57.5938298s1.1220425-4.8865958 6.9247092-4.8865958zm-8.466156 13.2835107c-4.755064 0-5.724596 0-5.724596 0l-3.3425243 11.1132979h5.8226383c5.412312 0 7.476652-.6384043 8.921872-5.5684043 1.42888-4.8721277-.918695-5.5448936-5.67739-5.5448936zm26.06661 16.9927659c6.657816-21.2952127 20.220369-31.6290425 41.087092-31.0702127 8.177476.2170212 12.110071 1.1520212 14.276085 1.6204255l-5.178099 17.3797872c-1.864624-.3598936-5.406865-1.1285106-12.135489-1.3075532-7.069958-.1935106-11.280341 2.5735107-14.846185 13.9852128-3.565844 11.4098936-1.274553 14.2456383 6.133107 14.442766 5.279773.1410638 10.370723-.2568085 12.881702-.5986171l-5.288851 17.7107447c-2.262241.3454256-8.963631.6347873-16.20244.4467022-20.868539-.5606383-27.350241-11.4171277-20.726922-32.6092554z" fill="#7435e2"/><path d="m72.6644199 29.753617c-5.6156596-2.8809574-12.0501561-4.501383-19.684766-4.5502127-12.6420426-.0904256-25.2132766.6130851-41.2904397 9.098617-3.46235463 1.8265957-6.92470924 4.253617-9.25049647 7.3877659-4.65883688 6.2845745-2.12970213 13.4896809 3.25719149 16.3236171 11.46371628-1.7108511 58.33531918-21.6768086 66.96851068-28.2597873" fill="#3aaa35"/><path d="m52.9959943 22.9689894c6.2202553.0397872 11.8123121 1.0832978 16.9958582 3.1395744-.7008227-.7559574-1.5142128-1.5914893-2.4510638-2.5518085-7.7907518-7.9990425-20.470922-20.99138296-36.8730781-23.23031913-16.4602553-2.24617021-30.39863826 7.09840426-20.5871205 28.17840423.4992908 1.0796809 1.0548652 2.1702128 1.6540142 3.2679787 15.8629219-8.0985106 28.6647375-8.8092553 39.4439716-8.8092553.6045957 0 1.2128227.0018085 1.8174184.0054256" fill="#7435e2"/></g></svg>
