<svg height="256" viewBox="0 0 256 256" width="256" xmlns="http://www.w3.org/2000/svg"><g fill="none" fill-rule="evenodd" transform="translate(0 101)"><path d="m237.795556 15.6426v25.948l17.060678-12.97z" fill="#009cd8"/><path d="m4.67177544 38.9722c-2.88137232-2.263-4.43932944-5.618-4.67187525-10.065h8.17603119c.31039377 2.34 1.20664328 3.979 2.68675242 4.915 1.5569591 1.094 3.6977778 1.638 6.4244523 1.638 2.4122885 0 4.3485068-.505 5.4892787-1.287 1.2465653-.856 1.8094659-2.107 1.8683509-3.745.098807-2.716-3.0460507-4.411-8.5213567-5.748l-3.1588304-.688c-3.75865891-.749-6.6629864-1.925-7.94248737-2.692-2.10189474-1.322-4.42535673-4.218-4.43733333-9.129 0-3.822 1.3214191-6.826 3.97024561-9.012 2.64683041-2.106 6.50130219-3.159 11.56341519-3.159 4.7497232 0 8.4105731 1.093 10.9795556 3.277 2.6468304 2.419 4.0480935 5.583 4.2057855 9.484h-7.9285146s.2804523-2.491-2.2346355-4.452c-1.4002651-1.013-3.3105341-1.522-5.7228226-1.522-2.3364366 0-6.56916956.365-6.774768 4.916.01796492 2.352 2.5380429 3.677 6.5082885 4.647.7205926.19 7.8446784 2.138 9.2768811 2.578 1.3264094.408 1.9831267.644 3.0590253 1.183 1.7006784.851 3.1049357 2.265 3.9323197 3.763.9042339 1.637 1.2844913 3.435 1.2844913 5.384 0 4.213-1.4002652 7.49-4.2037895 9.831-2.8035244 2.185-6.7747681 3.276-11.9147291 3.276-5.2966549 0-9.2678986-1.129-11.91373096-3.393zm51.06725926-12.6758c0-3.058-.5599064-9.527-6.8077037-9.527-5.9334113 0-6.5741598 6.313-6.5741598 9.527 0 8.14 4.6179805 9.174 6.8087017 9.174 5.6739181 0 6.5731618-6.029 6.5731618-9.174zm-13.3818635 23.053c0 2.094-1.6248266 4-3.9912047 4h-3.9912047v-29.288c.4650916-7.791 3.2925692-14.001 15.104499-14.426 5.1090215.065 8.8157817 2.102 11.007501 4.667 2.3484132 3.058 3.3534503 6.859 3.3534503 11.641 0 4.94-1.1737076 8.939-3.5231189 11.998-2.3464172 2.98-5.3595322 4.468-9.038347 4.468-5.5172242 0-8.1979883-2.3-8.9245692-2.732 0 .267.0029942 9.672.0029942 9.672zm37.9427929-13.9661c2.8464406.143 5.4902768-.462 6.5262534-3.401l7.0342613-.002c-.8563275 3.278-2.5051073 5.784-4.9173958 7.498-2.4152826 1.796-5.4503547 2.692-9.1112046 2.692-4.4373334 0-7.9025653-1.443-10.3946979-4.33-2.4931306-2.808-3.7376998-6.827-3.7376998-12.054 0-4.992 1.2066433-8.895 3.6219259-11.703 2.4911345-2.886 5.9563665-4.33 10.3936998-4.33 4.6718753 0 8.2928032 1.404 10.8627837 4.213 2.3803508 2.847 3.5979727 6.641 3.7376998 11.731-.0049903.003-.0009981 2.228-.0049903 2.434l-20.2404678-.004c.3533099 6.756 4.2067836 7.154 6.2298323 7.256zm-.3503158-18.843c-6.0571695.112-5.9574661 6.32-5.9574661 6.32h11.9138326c-.157692-2.107-.9371696-6.388-5.9563665-6.32zm36.6821557 15.4504h7.678003s-2.083929 10.179-13.682276 10.179c-11.5963513 0-14.4527723-9.325-14.4527723-15.452s1.0858791-16.595 14.0016533-16.962c11.933692-.179 13.898853 10.182 13.898853 10.182h-8.174035s-.79345-3.503-5.658947-3.393-6.138012 4.69-6.138012 9.041c0 4.353 1.080889 9.797 6.483338 9.797 5.137964.157 5.591079-2.625 6.044195-3.392zm17.58675-13.2158.001996 22.697c-.12775-.001-3.619929-.004-3.654861-.004-3.007127 0-4.396413-2.145-4.396413-5.734v-34.408h4.204787c3.053037 0 3.854472 2.534 3.854472 3.979v5.267h4.788647l.002994 8.203zm13.35821 22.7534h-8.176031v-15.097c0-3.043.446129-5.597 1.342378-7.665.894254-2.067 2.11986-3.725 3.678815-4.974 1.479111-1.17 3.226698-1.981 5.198846-2.575 3.069006-.923 7.299743-.819 7.299743-.819v8.309h-2.686753c-2.259587 0-3.93232.547-5.022191 1.639-1.091867 1.093-1.634807 2.809-1.634807 5.149zm11.655935-31.0805h8.176031v19.896s-.295423 5.38 5.374503 5.383c5.345559.003 5.482292-4.814 5.485286-5.154v-16.265s.27646-3.86 3.821536-3.86h4.241716s-.003992 18.302-.000998 18.478c-.055891 1.007 1.071906 13.244-13.54754 13.196-14.48471 0-13.457716-12.382-13.550534-13.111zm56.621311 31.1806h-8.098183v-19.995c0-2.305-.94715-5.41-5.51922-5.41-4.48524 0-5.398457 3.528-5.398457 5.41v19.995h-8.217949v-18.348c0-5.332 1.57692-8.588 4.16786-10.704 2.56499-2.094 5.848577-2.781 9.214004-2.94 1.799485 0 3.561045.197 5.282682.588 1.720639.393 3.286581 1.176 4.695828 2.352 1.174706-1.017 2.561997-1.743 4.16786-2.176 1.603868-.43 3.263626-.755 4.988257-.764 10.023423-.053 14.046566 4.545 14.378917 6.021 0 .021.003992 25.971.003992 25.971h-4.63894c-1.173707 0-3.992203-.799-3.992203-3.999v-15.996c.022956-2.267-.770495-5.41-5.517224-5.41-4.696826 0-5.517224 3.528-5.517224 5.41z" fill="#00325c"/></g></svg>
