<svg height="256" viewBox="0 0 256 256" width="256" xmlns="http://www.w3.org/2000/svg"><g fill="none" fill-rule="evenodd" transform="translate(0 98)"><path d="m18.4528219 46.3696c3.6196176.8103529 5.4294264 2.9590588 5.4294264 6.4451765 0 2.2428235-.6983909 4.0150588-2.0989276 5.3242353-1.3977206 1.3091764-3.174675 1.9614117-5.3224149 1.9614117-2.5457477 0-4.7103842-.7802353-6.49203205-2.3425882-.19712648-.1562353-.3801725-.2343529-.54913805-.2343529-.56040241 0-.84201167.7661176-.84858255 2.2917647 0 .0103529.00375479.0207058.00375479.0329411 0 .4357647-.35201157.7896471-.78850592.7896471-.43743304 0-.78850591-.3538824-.78850591-.7896471 0-.0141176.00281609-.0263529.00281609-.0404706v-8.976c0-.0122352-.00281609-.0244705-.00281609-.0385882 0-.4367059.35107287-.7905882.78850591-.7905882.43649435 0 .78850592.3538823.78850592.7905882 0 .0047059-.0009387.0112941-.0009387.0169412 1.32825699 4.9110588 4.01480926 7.3665882 8.05684076 7.3665882 1.1292531 0 2.1336595-.3105882 3.0113417-.933647 1.0166094-.682353 1.5263221-1.5858824 1.5263221-2.7058824s-.4092721-1.989647-1.2296937-2.6089412c-.707778-.5007058-1.9806518-.9825882-3.8186215-1.4484706l-3.5210544-.8423529c-1.9496748-.464-3.33706968-1.2423529-4.15561391-2.3312941-.73593886-.9637647-1.10296959-2.3162353-1.10296959-4.058353 0-1.9924705.61578557-3.5717647 1.84454062-4.7369411 1.23063248-1.1670589 2.83486648-1.7797647 4.81364088-1.8428236 1.7262647-.0922353 3.2666673.2785883 4.6249626 1.1190589 1.7243874 1.0569411 2.5870504 2.6409411 2.5870504 4.752h-.0197126c-.0234675 1.2178823-.9236784 2.1957647-2.0350963 2.1957647-1.1123565 0-2.01069-.9778824-2.0350962-2.1957647h-.0244061c-.0290996-2.5825883-1.0466477-3.92-3.0554604-4.0150589-1.1020309-.0310588-2.048238.250353-2.83956.8414118-.9049044.6531765-1.35923402 1.5388235-1.35923402 2.6616471 0 1.6188235 1.37237582 2.7397647 4.11431122 3.3609411zm99.1586551 3.3888h-15.060463v.5929412c0 2.4075294.652395 4.3049412 1.955307 5.6912941 1.184636 1.2724706 2.726916 1.9105882 4.623085 1.9105882 1.824828 0 3.345518-.5054117 4.56207-1.5087059.000939 0 .003755-.0018823.006571-.0047058.002816-.0028236.004693-.0037647.008448-.0047059.000939-.0018824.003755-.0018824.003755-.0047059.484368-.3642353 1.122682-.3388235 1.432452.0621176.312587.4065883.171782 1.0409412-.314463 1.4164706-.005632.0037647-.013142.0065883-.016897.0122353l.000939.0009412c-1.669943 1.4795294-3.818622 2.2183529-6.448852 2.2183529-3.138066 0-5.664101-.9204705-7.570595-2.7632941-1.9102499-1.8437647-2.8639666-4.2531764-2.8639666-7.2310588 0-3.6.9537167-6.3915294 2.8639666-8.3755294 1.906494-1.984 4.505748-2.9769412 7.783679-2.9769412 2.630231 0 4.751687 1.0136471 6.362492 3.0371765 1.610805 2.0272941 2.501629 4.6701176 2.672472 7.9275294zm-14.42121-5.5162353c-.370786 1.0484706-.581992 2.2974118-.639253 3.7430588h10.479619c.026284-1.445647-.098563-2.6945882-.384866-3.7430588-.733123-2.4715294-2.229407-3.7035294-4.494484-3.7035294-2.373966 0-4.029828 1.232-4.961016 3.7035294zm39.987857 13.9436235c.503142 0 .910537.4075294.910537.912 0 .5035294-.407395.9101177-.910537.9101177-.01408 0-.022529-.0037647-.036609-.0065883h-7.029906v-14.4028235c0-1.4428235-.421475-2.5835294-1.253161-3.4211765-.83638-.8357647-1.944981-1.2527058-3.331438-1.2527058-1.694349 0-3.110843.6409411-4.241974 1.9105882-1.184636 1.3628235-1.778831 3.1896471-1.778831 5.4832941v11.6828235h-7.040232v-.0047058c-.502203-.0018824-.90772-.4094118-.90772-.9138824 0-.501647.407394-.912.910536-.912.010326 0 .019713.0028235.030039.0028235h.429923c1.438085 0 2.158066-.6927058 2.158066-2.0828235v-17.1830588h.003755c0-1.2188235.986571-2.2070588 2.202184-2.2070588 1.213736 0 2.197491.9882353 2.197491 2.2070588h.015958v3.8287059c1.762874-2.9985883 4.195039-4.496 7.294618-4.496 2.39274 0 4.276706.7642353 5.656591 2.2945882 1.378947 1.5312941 2.072644 3.472 2.072644 5.824v9.7317647c0 1.3901177.718104 2.0828235 2.15525 2.0828235h.467471v.016c.005632-.0009411.015019-.0037647.025345-.0037647zm-94.5984624-.4576941c.6186016.0028235 1.1179887.5016471 1.1179887 1.1218824 0 .6221176-.5022031 1.1247059-1.1198661 1.1247059-.0168966 0-.030977-.0056471-.0469349-.0056471h-6.9923578v-3.7854118h-.1267241c-1.5000387 3.0042353-3.9049817 4.5054118-7.2176452 4.5054118-5.00889 0-7.5123963-2.3265882-7.5123963-6.9750588v-14.842353h.009387c.0065709-1.1821176.962165-2.1355294 2.141169-2.1355294 1.1827589 0 2.1411691.9628235 2.1411691 2.1458824 0 .037647-.0103257.0687059-.0122031.101647v14.3105883c0 3.1209411 1.4296363 4.6832941 4.291725 4.6832941 2.0951729 0 3.6956522-.7265883 4.7995604-2.1722353.9903259-1.3345882 1.4859582-3.1472941 1.4859582-5.4465882v-11.4870589h.0056322v-.0009411c0-1.2112942.9800002-2.1929412 2.1852878-2.1929412 1.2081037 0 2.1843491.981647 2.1843491 2.1929412 0 .0414117-.0093869.0837647-.0112643.1270588v17.44c0 .8527059.7791189 1.2771764 2.3373568 1.2771764h.3398085zm24.0137598.1084235c.5857473 0 1.0607282.4762353 1.0607282 1.0625883 0 .5872941-.4749809 1.0644706-1.0607282 1.0644706v.005647h-6.7323386v-3.7835294h-.0844827c-1.0175481 2.6889412-3.1418206 4.0348235-6.3671853 4.0348235-2.9155945 0-5.2154034-.9929411-6.9003654-2.9788235-1.682146-1.9830588-2.5241576-4.4903529-2.5241576-7.525647 0-3.3722353.9349427-6.0931765 2.8001347-8.1609412 1.7553643-1.9576471 3.9491004-2.9364706 6.5821469-2.9364706 2.941878 0 5.080231 1.1209412 6.4094267 3.3609412h.0844827v-14.5684706c0-.0141177-.0018773-.0254118-.0018773-.0385883 0-1.1708235.9471457-2.1204705 2.1148855-2.1204705 1.1658623 0 2.1158242.949647 2.1158242 2.1204705 0 .0094118-.0028161.0150589-.0028161.0225883h.0028161v28.1938823c0 1.5181177.822299 2.2682353 2.4640809 2.2522353.0131418 0 .0262836-.0047059.0394253-.0047059zm-12.3297918.218353c3.7313226 0 5.5974532-2.8752941 5.5974532-8.6334118 0-5.7242353-1.8661306-8.5882353-5.5974532-8.5882353-3.7059778 0-5.5561506 2.864-5.5561506 8.5882353 0 5.7581177 1.8501728 8.6334118 5.5561506 8.6334118zm36.204249-.2201412c.5904407 0 1.067299.4781177 1.067299 1.0710588 0 .5910589-.4768583 1.0701177-1.067299 1.0701177-.0234675 0-.0459962-.0056471-.0657089-.0075294h-6.6619362v-3.7844706h-.0844828c-1.0184868 2.6898823-3.1418206 4.0329412-6.3681239 4.0329412-2.9155945 0-5.2135261-.9901177-6.8994268-2.9750589-1.6840233-1.9858823-2.526035-4.4941176-2.526035-7.5247058 0-3.3731765.9330653-6.096 2.8020121-8.1647059 1.7553643-1.9548236 3.9491004-2.9336471 6.582147-2.9336471 2.941878 0 5.0802309 1.12 6.4094266 3.3609412h.0844828v-14.6268235h.0140804c.0150192-1.1548236.9499619-2.0865883 2.1045599-2.0865883 1.1649236 0 2.1083146.9458824 2.1083146 2.1138824 0 .0047059-.0018774.0084706-.0018774.0150588h.0018774v28.1929412c0 1.5143529.8194829 2.2625882 2.445307 2.2503529.0206514 0 .0356705-.0037647.0553832-.0037647zm-12.3260371.218353c3.7313226 0 5.598392-2.8752942 5.598392-8.6315295 0-5.7251764-1.8670694-8.5891764-5.598392-8.5891764-3.7041004 0-5.5589667 2.864-5.5589667 8.5891764 0 5.7562353 1.8548663 8.6315295 5.5589667 8.6315295z" fill="#00bd20"/><path d="m160.830988 57.1830588c.735 0 1.330134.5985883 1.330134 1.3355294 0 .7341177-.595134 1.3308236-1.330134 1.3308236-.04318 0-.081667-.0075294-.123908-.0112942h-3.609292v.0047059h-10.129485c-.042241.0056471-.080728.0122353-.122969.0122353-.735939 0-1.331073-.5967059-1.331073-1.3317647 0-.7378823.595134-1.3345882 1.331073-1.3345882.024406 0 .050689.0075294.077912.0094117 1.352663-.0094117 2.301686-.2258823 2.840498-.656.492816-.3952941.7641-1.0691764.81479-2.0188235v-42.6221176h.009387c.003754-1.7948236 1.455919-3.24611768 3.246954-3.24611768 1.78728 0 3.239445 1.45129408 3.245078 3.24611768h.007509v.0047059h.010326v42.6098823c.011264.2296471.036609.4423529.076973.6371765.001877.0122353.003755.0272941.005632.0414117.036609.1882353.090115.3576471.151131.5167059.00657.0178824.015019.0329412.019712.0508236.06477.1505882.138927.2898823.22341.4122352.009387.0122353.019713.0235295.030039.0357648.091053.1232941.190555.2343529.308831.325647.537874.4291765 1.48502.6475294 2.840499.6578824.023467-.0018824.050689-.010353.076973-.010353zm15.198827-.0533647c.731245.0065883 1.319809.6014118 1.319809 1.3345883 0 .736-.596073 1.3345882-1.330135 1.3345882-.017835 0-.037548-.0047059-.055383-.0056471h-12.710903c.186801-.4028235.296628-.8489411.296628-1.3232941 0-.517647-.128601-1.0004706-.347318-1.4287059.735939-.0969411 1.295403-.2898823 1.671821-.5844706.558525-.437647.840134-1.3054117.840134-2.6023529v-25.1350588h.006571c.000938-1.7788236 1.4409-3.2235294 3.216916-3.2235294 1.777893 0 3.218794 1.4447058 3.219733 3.2235294v25.3863529c0 1.1284706.281609 1.9134118.843889 2.3510588.56228.4395295 1.550728.6578824 2.967223.6578824h.061015zm71.811299-.0266353c.729368 0 1.319808.5938824 1.319808 1.3232941 0 .7341177-.59044 1.3251765-1.319808 1.3251765-.013142 0-.026284-.0018823-.039426-.0028235h-8.581572l-12.182417-15.6621177-4.383717 3.8202353v11.8418824h-7.518967c.224348-.4037647.363276-.8649412.363276-1.3628235 0-.6136471-.199004-1.1727059-.530364-1.6291765.214961-.0894118.399885-.1901177.550076-.3105883.551016-.4385882.825115-1.2018823.825115-2.2861176v-41.9632941c-.01408-.1214118-.024406-.2437647-.024406-.368 0-1.7524706 1.418372-3.1727059 3.16435-3.1727059 1.741283 0 3.153085 1.4108235 3.161533 3.1567059h.009387v32.5458823c3.586763-3.013647 6.921955-5.9209411 10.009331-8.7247058 4.538603-4.0094118 9.119447-6.0141177 13.741593-6.0141177v.0056471c.006571 0 .008449-.0028236.014081-.0028236.728429 0 1.319809.5929412 1.319809 1.3214118 0 .7303529-.59138 1.3242353-1.319809 1.3242353-.006571 0-.014081-.0028235-.022529-.0028235-3.495709.1270588-6.762377 1.4371764-9.800002 3.9294117l-5.094311 4.16 9.586917 11.9425883c1.583583 1.9152941 2.80389 3.1934117 3.658105 3.84.853276.6437647 1.884904.965647 3.093008.965647zm-35.127845.0661647c.728429 0 1.319809.5929412 1.319809 1.322353 0 .7341176-.59138 1.3251764-1.319809 1.3251764h-.004694v.0216471h-10.382933v-21.2310588c0-2.1289412-.613908-3.8108236-1.839847-5.0418824-1.226878-1.2301176-2.857395-1.845647-4.895307-1.845647-2.495058 0-4.574273.9383529-6.236707 2.8169411-1.747854 2.0037647-2.619904 4.6955295-2.619904 8.0781177v17.2235294h-8.463297c.199942-.3962353.314463-.8414118.314463-1.3157647 0-.5496471-.153946-1.0578824-.416781-1.4974118 1.361111-.3247059 2.054809-1.2969411 2.054809-2.9374117v-25.322353h.012203c0-.0065882-.000939-.0094117-.000939-.0150588 0-1.7967059 1.452165-3.2545882 3.244139-3.2545882 1.792912 0 3.246016 1.4578823 3.246016 3.2545882 0 .0056471-.000939.0084706-.000939.0150588h.010326v5.6395294c2.596437-4.4254117 6.174752-6.6352941 10.73776-6.6352941 3.514484 0 6.289274 1.1275294 8.318738 3.3825883 2.030403 2.2569411 3.045135 5.1181176 3.045135 8.5844705v14.3529412c0 2.0461177 1.062605 3.0701177 3.186878 3.0701177h.686187v.0094117z" fill="#0053ad"/><path d="m1.83177433 34.6949647c-1.13676269-.7708235-1.79103486-1.6865882-1.82670536-2.6795294-.00469349-.0489412-.00469349-.0865882-.00469349-.1044706.02065134-1.1614118.88706915-2.0978823 2.24724185-2.9741176 1.37894665-.8818824 3.34927274-1.722353 5.87530775-2.5524706 5.04831522-1.6536471 12.31195662-3.2310589 21.31124972-4.6672941 17.9967088-2.8668236 42.9200665-5.1604706 70.7073902-6.2296471l.009387.0075294 49.111715-1.824.5482.5289412v.7924706l-.508774.5298823-50.1377119 1.8616471h-.0056322-.0028161v.0009412h-.0272222c-23.1604839.9948235-44.5233619 2.9543529-61.2227907 5.3468235-16.6919193 2.384-28.77764978 5.253647-33.13039016 7.9002353-1.25879337.7444706-1.75160956 1.4522353-1.72157124 1.8531765 0 .064.00844828.128.02722223.1957647.24781614.944 1.3573566 2.0837647 4.1931618 3.0974117l-.31540237 1.0127059c-2.30825719-.6230588-3.98101616-1.3148235-5.12716583-2.096" fill="#00bd20"/><path d="m157.862733 14.6563765v-.794353l.509712-.528 1.209043-.0442353.008448-.0028235 4.693488-.1750588c.015019 0 .023467 0 .02816.0009412.002817 0 .002817.0018823.002817 0 .513467.005647.875804.4254117.892701.8847058l-.000939.0178824h.000939c0 .0009412 0 .0028235-.000939.0056471.000939.0028235.000939.0084705.000939.0169411.003755.4630589-.34638.8884706-.855154.9167059l-1.867069.0715294-.962165.0338824-.253448.0084706-.010326.0084706-2.848947.1082352zm6.955842-3.0285177-2.239732-2.08470586-1.479388-1.376v-.0037647c-.193371-.17882353-.292873-.42917648-.291935-.67294118-.000938-.22588235.083545-.45270588.242184-.62305882.183046-.19858824.433679-.29835295.678679-.29835295.221532 0 .449636.08282353.624234.24752942l3.719119 3.46070589-.001877.0028235c.189617.1788235.292873.4244706.290996.6710588.001877.2211765-.077912.4489412-.242184.6258824-.013142.0150588-.027222.0282353-.040364.0414118-.176475.165647-.405517.2531764-.634559.2531764h-.004694c-.218716 0-.445881-.0809411-.620479-.2437647zm9.944374 9.2582588-1.476571-1.3769411-.760345-.7058824-1.479388-1.3750588-.000938-.0056471c-.194311-.1788235-.294751-.4301176-.291935-.672 0-.2268235.084482-.4527058.241245-.6211764.181169-.2004706.431801-.3011765.676801-.2992942.221532-.0018823.448697.0837648.626111.2465883l1.480326 1.376 2.237855 2.0847059-.002816.0037647.002816-.0028236c.191494.1807059.290996.426353.290996.672.000939.2202353-.07885.448-.243123.6258824h.001878c-.012203.0131765-.025345.0235294-.037548.0357647-.173659.1694118-.406456.2616471-.640192.2616471h-.003755c-.222471 0-.448697-.0847059-.621417-.2475295zm-1.96169-6.3051294v.0329412h-.001878l.001878-.0329412-.000939-.0009411-.000939.0338823c-.483429-.0037647-.874866-.3717647-.910536-.853647-.001878-.0244706-.001878-.0451765-.001878-.0592942v-.005647c0-.4950588.386744-.9025883.884253-.9214118l5.068028-.1891765v.0009412c.013142-.0009412.023468-.0009412.027222-.0009412h.008449c.490939 0 .897395.3905883.918985.8847059v.0009412c0 .0225882 0 .0451765-.002817.0668235-.015019.4781177-.398007.8696471-.883314.890353l-5.070844.1891764zm-11.209457 6.7968942c-.196188-.1788236-.298506-.4310589-.297567-.6776471-.000939-.2221177.082606-.4517647.245-.6268235l1.374253-1.482353.704962-.7604706 1.36956-1.4795294c.182107-.2004706.433678-.2992941.677739-.2974117.22341 0 .448698.0818823.624234.2447058.000939.0009412.000939.0009412.002816.0009412.191495.1807059.290997.426353.290997.6748235.001877.2221177-.078851.4498824-.245.6268236l-1.373315 1.4832941-.704023.7604706-1.382701 1.4917647c-.175537.1825882-.41866.2851765-.666476.2851765h-.003754c-.220594 0-.444943-.0818824-.616725-.2437647zm9.858202-9.7288471c-.22341.0018823-.449637-.0818824-.624234-.2437647-.197127-.1807059-.29569-.4376471-.29569-.6776471 0-.2230588.082605-.4508235.245-.6258823l2.079215-2.24282355 1.372376-1.48141177c.182107-.19858823.431801-.29741176.674923-.29647059.220594-.00094117.44682.08282353.622357.24376471.007509.00752941.01408.01223529.019712.01882353.18023.17976471.275978.41788235.275039.65882353.000939.22117647-.078851.4517647-.244062.6277647l-1.372375 1.48329412-.704962.76141177-1.374253 1.48235295-.008449-.0018824.003755.0018824c-.177414.1901176-.420536.2917647-.664598.2917647zm-2.564898 12.4650353c-.484367-.0065882-.883314-.3962353-.901149-.8884706l-.075096-2.0216471-.038487-1.0371764-.074157-2.0225883c-.000938-.0235294-.000938-.0395294 0-.0432941.005633-.48.373602-.8743529.853276-.9091765.031916-.0037647.05069-.0037647.060077-.0018823h.00751c.496571.0009412.894578.3905882.917107.8875294l.073219 2.0216471.039425 1.0362353.075096 2.0235294-.026284.0282353h.023468v.0197647c-.006571.4875294-.391437.8865882-.877683.9072941h-.038486-.003755zm-.459806-14.16181047c-.484368-.00658823-.883315-.39623529-.90115-.88847059l-.075096-2.02164706-.038486-1.03717647-.074157-2.02258823c-.000939-.02352941-.000939-.03952941 0-.04329412.005632-.48.373601-.87435294.853276-.90917647.031915-.00376471.050689-.00376471.060076-.00188235h.00751c.496571.00094117.894579.39058823.917107.88752941l.073219 2.02164706.039425 1.03623529.075096 2.02352941-.026284.0282353h.023468v.0197647c-.006571.48752942-.391437.88658824-.877682.90729412h-.038487-.003755z" fill="#00bd20"/><path d="m254.668719 30.0984118c.171831.1814975.266284.4125605.266284.6627195 0 .132065-.018427.2545514-.05707.3659916-.001606.321415-.062483.6289601-.172242.912139.111425.1669716.157462.375797.174188.5800399.0189.2410746.0126.689365.185847.9019982h-.973336c-.064584-.1269415-.090754-.2911413-.10872-.4629389-.444965.3814275-1.022343.6119448-1.653329.6119448-.301598 0-.590921-.0525513-.859391-.1490059h-.226119v-.093844c-.864826-.4090499-1.463054-1.2916103-1.463054-2.3133854 0-1.4108235 1.140517-2.5552941 2.548564-2.5552941 1.047178 0 1.946708.6338575 2.338378 1.5396353zm-.881145-.3837662c-.367316-.3845181-.884359-.6240778-1.457233-.6250456-1.11705.0018824-2.019139.9063529-2.021016 2.0244706.001205.7178783.373493 1.3484634.935506 1.7084231v-3.1136937h2.392391c.051357 0 .101494.0019821.150352.0058456zm.472979 1.9912921c-.009227.0033983-.018557.0067356-.02799.0100115v.0108348c.006744.001502.013419.003062.020028.0046789.002708-.0084842.005363-.0169928.007962-.0255252zm-.377562.7011171c-.095601-.2579356-.28875-.3741873-.686763-.3741873h-.976486v1.1043988c.036612.0020338.073487.0030947.110599.0031572.624404-.0010548 1.182482-.2861457 1.55265-.7333687zm-1.663249-.9728108h1.06941c.434693 0 .669365-.1611678.669365-.5458037 0-.3670293-.234672-.5281971-.669365-.5281971h-1.06941z" fill="#fff"/></g></svg>
