<svg height="256" viewBox="0 0 256 256" width="256" xmlns="http://www.w3.org/2000/svg"><g fill="none" fill-rule="evenodd" transform="translate(0 100)"><path d="m101.709037 15.5971v-10.39775h11.006815v10.39775zm0 39.546125v-36.867125h11.006815v36.867125zm-75.3613037-36.875675h10.9392593l-12.3934815 36.876625h-11.8317037l-13.06192592-36.829125 11.08385182-.002375 7.808 24.301zm120.0184887 8.9887812-16.727703 19.0843125h17.98637v8.8029375h-31.764148v-8.8029375l17.588148-19.0843125h-17.588148v-8.979875h30.505481v8.3896875zm-60.068385-3.2239437c1.3522963-1.86675 4.5736297-5.757 7.9798519-5.757h3.9715555v9.9655h-3.6562963s-7.9798518.84075-8.2951111 10.338375v16.5644375h-10.7709629v-36.8683125h10.7709629zm-40.1584592 8.4232937h15.3754074c-1.2456296-4.1954375-4.2180741-7.14875-7.6882963-7.14875-3.469037 0-6.4414815 2.9533125-7.6871111 7.14875zm7.9632592-15.439875c10.2684445 0 18.5943704 8.88725 18.5943704 19.8514375 0 .990375-.0699259 1.9629375-.2014815 2.914125h-8.8213333-3.1253333-14.7662223c.9315556 4.96375 4.1848889 8.4348125 8.0438519 8.6271875 3.917037.19475 6.5315555-1.4570625 8.1315555-4.0185l10.3265186.059375c-2.7780741 7.231875-10.4082963 12.2704375-18.181926 12.2704375-10.2696296 0-18.5943703-8.889625-18.5943703-19.852625 0-10.9641875 8.3247407-19.8514375 18.5943703-19.8514375zm113.255467 31.274c4.603259 0 8.334222-5.09675 8.334222-11.3821875 0-6.2878125-3.730963-11.383375-8.334222-11.383375-4.602074 0-8.333037 5.0955625-8.333037 11.383375 0 6.2854375 3.730963 11.3821875 8.333037 11.3821875zm-.117334-31.274c10.986667 0 19.892149 8.88725 19.892149 19.8514375s-8.905482 19.852625-19.892149 19.852625c-10.985481 0-19.890963-8.8884375-19.890963-19.852625s8.905482-19.8514375 19.890963-19.8514375zm57.116089 13.9629813h.003556v24.1644375h-10.693926v-22.3333125s-.398222-3.69075-3.045926-5.317625c-3.000889-1.843-7.896889-1.4428125-10.200889 5.3093125v22.341625h-10.65363v-36.867125h10.65363v4.87825c1.367704-1.6375625 4.234667-4.491125 8.196741-5.41025 6.671407-1.546125 15.687111 1.5235625 15.740444 13.2346875z" fill="#2c2c2c"/><path d="m224.360415 18.2758625 8.648296 18.5915h4.717037l16.982519-36.867125h-5.738667l-13.76 29.6198125-4.952889-11.3441875z" fill="#ca0000"/></g></svg>
