<svg height="256" viewBox="0 0 256 256" width="256" xmlns="http://www.w3.org/2000/svg"><path d="m57.1341842 29.7239264v36.3292433h9.0955502v-36.3292433h11.6564332v-7.99591h-11.6564332v-3.3026585c0-7.5613497 4.5919282-10.08179962 9.0955502-10.08179962 1.147982 0 2.2076578.17382413 3.0907209.43456033l1.8544326-7.90899796c-1.1479821-.43456032-3.0024146-.86912065-5.651604-.86912065-11.303208 0-17.4846499 8.25664622-17.4846499 18.2515337v3.4764827h-4.7685409l-5.7399103 7.99591zm126.1014138 20.5981595c0 9.6472393 6.00483 16.5132924 16.7782 16.5132924 2.649189 0 4.856847-.3476482 6.622973-.8691206l-1.854432-7.8220859c-1.147982.2607362-2.560883.4345603-4.150397.4345603-4.415316 0-8.300793-2.3466258-8.300793-8.4304703v-20.4243354h12.716109l-3.708865-7.99591h-9.007244v-17.81697346l-9.095551 3.91104295v13.90593051h-9.625388v7.99591h9.625388zm-78.151086-28.5940695v44.3251533h9.09555v-30.4192229c2.825802-3.9110429 6.887892-6.3445807 11.921352-6.3445807 6.71128 0 11.303208 4.1717791 11.303208 12.5153374v19.989775c0 2.5204499 1.766127 4.2586912 4.238703 4.2586912h4.856847v-25.8128834c0-11.4723926-7.41773-19.4683027-18.1911-19.4683027-5.73991 0-10.508451 1.9989775-14.12901 5.301636v-4.3456032zm117.977233 59.9693251 32.938255-59.9693251h-4.945154c-3.002414 0-5.298378.8691206-6.534667 3.1288343l-12.981028 23.7269939-11.214901-23.7269939c-1.147982-2.3466258-3.532253-3.1288343-6.534667-3.1288343h-4.768541l17.308037 36.1554192-15.100379 27.1165644h4.945153c3.090721 0 5.563298-.9560327 6.887892-3.3026585zm-137.9344597-15.6441718h9.0955502v-44.3251533h-9.0955502zm72.1462577 0h9.09555v-44.3251533h-9.09555zm-128.6622977-23.1186094 16.0717488-21.2065439h-6.7112797c-3.0024146 0-4.9451535 1.0429447-6.5346671 3.1288343l-8.477406 11.2116565-8.2124871-11.2116565c-1.5895136-2.0858896-3.5322525-3.1288343-6.53466714-3.1288343h-6.71127975l15.89513629 21.2065439-17.3963436 23.1186094h6.3580545c3.00241463 0 4.9451535-1.0429448 6.5346671-3.1288343l10.0669197-13.1237219 23.5777854 32.0705521c1.5012073 2.0858896 3.5322525 3.1288344 6.5346671 3.1288344h6.8878924z" fill="#090909" fill-rule="evenodd" transform="translate(0 86)"/></svg>
