<svg viewBox="0 0 60 60" xmlns="http://www.w3.org/2000/svg">
  <g fill="#fff" fill-rule="evenodd">
    <path d="M30 59.333C13.8 59.333.667 46.2.667 30S13.8.667 30 .667 59.333 13.8 59.333 30 46.2 59.333 30 59.333zm0-1.63C45.3 57.704 57.704 45.3 57.704 30 57.704 14.7 45.3 2.296 30 2.296S2.296 14.7 2.296 30 14.7 57.704 30 57.704z"/>
    <path d="M32.63 21.037h4.518a1 1 0 0 1 1 1v15.535a1 1 0 0 1-1 1H32.63a1 1 0 0 1-1-1V22.037a1 1 0 0 1 1-1zM22.852 21.037h4.518a1 1 0 0 1 1 1v15.535a1 1 0 0 1-1 1h-4.518a1 1 0 0 1-1-1V22.037a1 1 0 0 1 1-1z"/>
  </g>
</svg>
