<svg viewBox="0 0 60 60" xmlns="http://www.w3.org/2000/svg" xmlns:xlink="http://www.w3.org/1999/xlink">
  <g fill="#fff" fill-rule="evenodd">
    <path d="M29.333 58.667C13.133 58.667 0 45.534 0 29.333 0 13.133 13.133 0 29.333 0s29.334 13.133 29.334 29.333-13.133 29.334-29.334 29.334zm0-2c15.096 0 27.334-12.238 27.334-27.334C56.667 14.238 44.429 2 29.333 2 14.238 2 2 14.238 2 29.333 2 44.43 14.238 56.667 29.333 56.667z"/>
    <path d="M23.577 40.682v-22.6c0-.547.376-.744.84-.435l16.761 11.175c.472.314.464.81 0 1.12L24.417 41.116c-.472.315-.84.115-.84-.434z" />
  </g>
</svg>
