<svg viewBox="0 0 45 50" xmlns="http://www.w3.org/2000/svg" xmlns:xlink="http://www.w3.org/1999/xlink">
  <path d="M37.5 35.341c-1.9 0-4.14.819-5.585 2.781L14.59 27.688c.508-1.097.488-1.983.488-2.688 0-.648-.02-1.822-.333-2.703l16.818-9.983c1.35 1.255 3.962 2.746 5.937 2.746 4.15 0 7.5-3.363 7.5-7.53S41.65 0 37.5 0 30 3.363 30 7.53c0 .603.343 2.169.47 2.746l-17.112 9.88C12.01 18.903 10.585 17.57 7.5 17.57c-4.15 0-7.5 3.364-7.5 7.53 0 4.167 3.35 7.53 7.5 7.53 1.975 0 4.432-.903 5.86-2.803l17.5 10.567c-.185.218-.66 1.724-.66 2.277 0 4.04 3.275 7.329 7.3 7.329s7.3-3.288 7.3-7.33c0-4.04-3.275-7.329-7.3-7.329zm0-32.831c2.75 0 5 2.26 5 5.02 0 2.761-2.25 5.02-5 5.02s-5-2.259-5-5.02c0-2.76 2.25-5.02 5-5.02zm-30 27.61c-2.75 0-5-2.259-5-5.02 0-2.76 2.25-5.02 5-5.02s5 2.26 5 5.02c0 2.761-2.25 5.02-5 5.02zm30 17.621c-2.75 0-5-2.26-5-5.02 0-2.761 2.25-5.02 5-5.02s5 2.259 5 5.02c0 2.76-2.25 5.02-5 5.02z" fill="#fff" />
</svg>
