<?xml version="1.0" encoding="UTF-8"?>
<svg width="120px" height="120px" viewBox="0 0 120 120" version="1.1" xmlns="http://www.w3.org/2000/svg" xmlns:xlink="http://www.w3.org/1999/xlink">
    <!-- Generator: Sketch 48.2 (47327) - http://www.bohemiancoding.com/sketch -->
    <title>Icon_buey_small</title>
    <desc>Created with Sketch.</desc>
    <defs>
        <linearGradient x1="93.0737093%" y1="85.9894334%" x2="57.1611912%" y2="9.7559406%" id="linearGradient-1">
            <stop stop-color="#3C0045" offset="0%"></stop>
            <stop stop-color="#DF128D" offset="50.8177363%"></stop>
            <stop stop-color="#F7D457" offset="100%"></stop>
        </linearGradient>
        <linearGradient x1="78.8087578%" y1="28.7583073%" x2="6.25819312%" y2="-135.060022%" id="linearGradient-2">
            <stop stop-color="#FFFFFF" stop-opacity="0" offset="0%"></stop>
            <stop stop-color="#FFFF88" offset="100%"></stop>
        </linearGradient>
        <linearGradient x1="112.161918%" y1="125.096473%" x2="20.0854784%" y2="37.0560253%" id="linearGradient-3">
            <stop stop-color="#DF128D" offset="0%"></stop>
            <stop stop-color="#F7D457" offset="100%"></stop>
        </linearGradient>
        <linearGradient x1="70.1599755%" y1="73.3164124%" x2="108.176097%" y2="-117.360589%" id="linearGradient-4">
            <stop stop-color="#FFFFFF" stop-opacity="0" offset="0%"></stop>
            <stop stop-color="#FFC688" offset="100%"></stop>
        </linearGradient>
        <linearGradient x1="50%" y1="41.4638209%" x2="34.6599137%" y2="0%" id="linearGradient-5">
            <stop stop-color="#863699" offset="0%"></stop>
            <stop stop-color="#DF128D" offset="35.6960965%"></stop>
            <stop stop-color="#F7D457" offset="100%"></stop>
        </linearGradient>
        <linearGradient x1="20.2081173%" y1="-105.80852%" x2="40.8227006%" y2="38.5239955%" id="linearGradient-6">
            <stop stop-color="#FFD688" offset="0%"></stop>
            <stop stop-color="#FFED98" stop-opacity="0" offset="100%"></stop>
        </linearGradient>
        <linearGradient x1="-10.6910236%" y1="78.4715638%" x2="115.295577%" y2="19.2851469%" id="linearGradient-7">
            <stop stop-color="#F7D457" offset="0%"></stop>
            <stop stop-color="#DF128D" offset="55.4379772%"></stop>
            <stop stop-color="#863699" offset="100%"></stop>
        </linearGradient>
        <linearGradient x1="-99.0821731%" y1="29.0612242%" x2="45.7018767%" y2="32.9802965%" id="linearGradient-8">
            <stop stop-color="#C98564" offset="0%"></stop>
            <stop stop-color="#ECE8B4" stop-opacity="0" offset="100%"></stop>
        </linearGradient>
        <linearGradient x1="16.013155%" y1="25.4159361%" x2="111.593554%" y2="45.5993248%" id="linearGradient-9">
            <stop stop-color="#F77957" offset="0%"></stop>
            <stop stop-color="#863699" offset="37.414576%"></stop>
            <stop stop-color="#000000" offset="100%"></stop>
        </linearGradient>
        <linearGradient x1="89.1088015%" y1="31.3267554%" x2="290.453311%" y2="80.7648546%" id="linearGradient-10">
            <stop stop-color="#FCC9B8" stop-opacity="0" offset="0%"></stop>
            <stop stop-color="#3D2407" offset="100%"></stop>
        </linearGradient>
        <linearGradient x1="-15.6430811%" y1="58.1082711%" x2="105.599517%" y2="92.3278815%" id="linearGradient-11">
            <stop stop-color="#DF128D" offset="0%"></stop>
            <stop stop-color="#863699" offset="44.5645847%"></stop>
            <stop stop-color="#000000" offset="100%"></stop>
        </linearGradient>
        <linearGradient x1="50%" y1="74.6507737%" x2="-121.665404%" y2="191.311829%" id="linearGradient-12">
            <stop stop-color="#E4AB6D" stop-opacity="0" offset="0%"></stop>
            <stop stop-color="#3D1907" offset="100%"></stop>
        </linearGradient>
        <linearGradient x1="-6.28402619%" y1="95.6216026%" x2="124.595785%" y2="-9.54645066%" id="linearGradient-13">
            <stop stop-color="#F7D457" offset="0%"></stop>
            <stop stop-color="#DF128D" offset="42.5323698%"></stop>
            <stop stop-color="#863699" offset="65.7012195%"></stop>
            <stop stop-color="#3C0045" offset="100%"></stop>
        </linearGradient>
        <linearGradient x1="-7.16808654%" y1="50%" x2="126.983121%" y2="64.736909%" id="linearGradient-14">
            <stop stop-color="#DF128D" offset="0%"></stop>
            <stop stop-color="#863699" offset="48.3818235%"></stop>
            <stop stop-color="#000000" offset="100%"></stop>
        </linearGradient>
        <linearGradient x1="111.867045%" y1="42.0836805%" x2="261.870719%" y2="314.024098%" id="linearGradient-15">
            <stop stop-color="#DBDFFF" stop-opacity="0" offset="0%"></stop>
            <stop stop-color="#073D32" stop-opacity="0.99" offset="100%"></stop>
        </linearGradient>
        <linearGradient x1="6.13743075%" y1="-7.3748996%" x2="100%" y2="83.8718333%" id="linearGradient-16">
            <stop stop-color="#863699" offset="0%"></stop>
            <stop stop-color="#000000" offset="100%"></stop>
        </linearGradient>
        <linearGradient x1="10.0440475%" y1="50%" x2="138.768087%" y2="15.242056%" id="linearGradient-17">
            <stop stop-color="#F7D457" offset="0%"></stop>
            <stop stop-color="#DF128D" offset="100%"></stop>
        </linearGradient>
        <linearGradient x1="-75.7251327%" y1="68.3743177%" x2="14.3359098%" y2="18.9082498%" id="linearGradient-18">
            <stop stop-color="#FFE9C0" offset="0%"></stop>
            <stop stop-color="#FFFCE9" stop-opacity="0" offset="100%"></stop>
        </linearGradient>
        <linearGradient x1="-43.0247453%" y1="41.6737371%" x2="153.625691%" y2="100%" id="linearGradient-19">
            <stop stop-color="#F7D457" offset="0%"></stop>
            <stop stop-color="#DF128D" offset="47.4723599%"></stop>
            <stop stop-color="#000000" offset="100%"></stop>
        </linearGradient>
        <linearGradient x1="30.4228083%" y1="64.5672201%" x2="251.602086%" y2="50%" id="linearGradient-20">
            <stop stop-color="#F7D457" offset="0%"></stop>
            <stop stop-color="#DF128D" offset="100%"></stop>
        </linearGradient>
        <linearGradient x1="50%" y1="117.892388%" x2="85.9289884%" y2="12.1863877%" id="linearGradient-21">
            <stop stop-color="#3C0045" offset="0%"></stop>
            <stop stop-color="#DF128D" offset="48.7028057%"></stop>
            <stop stop-color="#F7D457" offset="100%"></stop>
        </linearGradient>
        <linearGradient x1="109.667361%" y1="61.9092681%" x2="68.4957097%" y2="0%" id="linearGradient-22">
            <stop stop-color="#863699" offset="0%"></stop>
            <stop stop-color="#DF128D" offset="28.4431829%"></stop>
            <stop stop-color="#F7D457" offset="100%"></stop>
        </linearGradient>
        <linearGradient x1="128.980603%" y1="159.183651%" x2="68.8403128%" y2="63.6695497%" id="linearGradient-23">
            <stop stop-color="#FFFFFF" offset="0%"></stop>
            <stop stop-color="#FFF0C2" stop-opacity="0" offset="100%"></stop>
        </linearGradient>
        <linearGradient x1="-8.91744724%" y1="64.4390473%" x2="109.32199%" y2="100%" id="linearGradient-24">
            <stop stop-color="#F7D457" offset="0%"></stop>
            <stop stop-color="#DF128D" offset="100%"></stop>
        </linearGradient>
        <linearGradient x1="61.0747657%" y1="183.275159%" x2="69.7263494%" y2="51.5424196%" id="linearGradient-25">
            <stop stop-color="#FFB98D" offset="0%"></stop>
            <stop stop-color="#F7D457" stop-opacity="0" offset="100%"></stop>
        </linearGradient>
    </defs>
    <g id="Page-1" stroke="none" stroke-width="1" fill="none" fill-rule="evenodd">
        <g id="Icon_buey_small">
            <g id="Group" transform="translate(23.000000, 22.000000)">
                <path d="M19.0569417,21.0380093 C23.0093381,21.0109225 27.4632483,19.7675276 31.6672503,16.3383391 C32.7741563,13.8457769 34.9570299,10.5354674 38.612704,8.34027219 C36.4298304,5.66838268 32.8768438,4.43263517 29.7233551,5.0124461 C26.5698664,5.59225702 24.120181,7.5637962 23.3852586,8.9400821 C22.5583959,10.488544 21.4927923,11.8185235 20.3389944,12.7675744 C15.8880819,16.4286512 10.5349841,16.2738088 7.54424716,14.9852491 C7.13562932,14.809196 6.61034632,14.7672847 6.23239736,15.3974165 C5.95739477,15.855912 6.19176737,16.4831307 6.63085053,16.8281217 C10.4397774,19.8208246 15.1045453,21.0650962 19.0569417,21.0380093 Z" id="Oval-2-Copy-7" stroke="#FFFFFF" stroke-width="1.01770791" fill="url(#linearGradient-1)" stroke-linejoin="round"></path>
                <path d="M20.2418153,20.7137227 C23.4620034,20.6916539 27.0907964,19.6786064 30.5159784,16.8846984 C31.4178225,14.8539003 33.1963039,12.1568482 36.1747395,10.3683279 C34.3962581,8.19142409 31.5014864,7.18460721 28.932203,7.65700422 C26.3629196,8.12940122 24.3670551,9.73569935 23.7682821,10.8570189 C23.0946013,12.1186177 22.226408,13.2022095 21.2863591,13.9754422 C17.6600084,16.9582796 13.2986084,16.8321228 10.8619258,15.7822775 C10.5290072,15.6388395 10.1010365,15.6046925 9.79310516,16.1180881 C9.56904867,16.4916442 9.76000215,17.0026664 10.1177422,17.2837454 C13.2210394,19.7220298 17.0216273,20.7357916 20.2418153,20.7137227 Z" id="Oval-2-Copy-12" stroke="#FFFFFF" stroke-width="1.01770791" fill="url(#linearGradient-2)" stroke-linejoin="round"></path>
                <path d="M23.2320926,9.21958626 C23.2584905,9.56240408 23.2719359,9.90888598 23.2719359,10.2585348 C23.2719359,14.6841014 21.1179253,18.6023101 17.8095084,21.005089 C14.148809,20.7890211 10.0458459,19.5113096 6.63085053,16.8281217 C6.19176737,16.4831307 5.95739477,15.855912 6.23239736,15.3974165 C6.61034632,14.7672847 7.13562932,14.809196 7.54424716,14.9852491 C10.5349841,16.2738088 15.8880819,16.4286512 20.3389944,12.7675744 C21.4227616,11.8761269 22.4287158,10.6485889 23.2320926,9.21958626 Z" id="Combined-Shape" stroke="#FFFFFF" stroke-width="1.01770791" fill="url(#linearGradient-3)" stroke-linejoin="round"></path>
                <path d="M22.3678086,12.8394547 C22.1685142,16.3332295 20.0632641,19.3118365 17.0846989,20.7338876 C14.9494797,20.3633751 12.7179249,19.4845889 10.7955508,17.9741649 C10.485953,17.7309116 10.3206968,17.2886594 10.5146013,16.965374 C10.7810933,16.5210677 11.1514706,16.5506194 11.4395872,16.6747545 C13.5483574,17.5833187 17.3228294,17.6924981 20.4611702,15.111071 C21.1665231,14.5308863 21.8251303,13.7487971 22.3678086,12.8394547 Z" id="Combined-Shape-Copy-4" fill="url(#linearGradient-4)" transform="translate(16.399528, 16.786671) rotate(8.000000) translate(-16.399528, -16.786671) "></path>
                <path d="M32.0502737,13.3670715 C34.2679143,5.6453634 41.3320642,0 49.7036838,0 C59.8528253,0 68.0803302,8.29719978 68.0803302,18.5323144 C68.0803302,24.6010963 65.1877475,29.9885563 60.7171146,33.3690266 C60.3112909,21.6222091 50.7406089,12.2249745 38.9935215,12.2249745 C36.5655635,12.2249745 34.2305795,12.6264158 32.0502737,13.3670715 Z" id="Combined-Shape" stroke="#FFFFFF" stroke-width="1.01770791" fill="url(#linearGradient-5)" stroke-linejoin="round"></path>
                <path d="M32.6510128,13.5965814 C34.5121026,7.11636449 40.440483,2.37865895 47.4661191,2.37865895 C55.9834882,2.37865895 62.8881801,9.34184033 62.8881801,17.9313599 C62.8881801,23.024407 60.460665,27.5456747 56.7088176,30.3826351 C56.368242,20.5244634 48.336328,12.63811 38.4779297,12.63811 C36.4403372,12.63811 34.4807704,12.9750078 32.6510128,13.5965814 Z" id="Combined-Shape-Copy-2" fill="url(#linearGradient-6)"></path>
                <path d="M30.194465,14.433961 C40.107903,7.49716169 51.4862331,9.76068646 58.4106318,16.8551421 C39.1597746,26.0836947 25.5145468,38.8238278 16.9878331,56.6358729 C17.3326794,52.1498105 15.4886579,46.8106044 13.6000276,44.6314386 C23.0511535,33.2344026 28.0242089,21.8774202 30.194465,14.433961 Z" id="Oval-Copy-13" stroke="#FFFFFF" stroke-width="1.01770791" fill="url(#linearGradient-7)" stroke-linejoin="round"></path>
                <path d="M30.099976,19.1097441 C39.1574903,12.7718662 49.5534182,14.8399589 55.8799662,21.321881 C38.2912231,29.7536427 24.702061,41.904828 16.9115416,58.1789857 C17.226614,54.0802488 16.6638645,48.6909964 14.9382981,46.6999791 C23.5734162,36.2869604 28.1170992,25.9105369 30.099976,19.1097441 Z" id="Oval-Copy-14" fill="url(#linearGradient-8)"></path>
                <path d="M16.7972911,61.0649378 C24.2252589,39.9944333 39.7881018,23.6391019 60.6539982,16.9236034 C67.8001172,22.6850444 72.3777738,31.5509254 72.3777738,41.4950324 C72.3777738,58.8595927 58.4192585,72.9363502 41.2005573,72.9363502 C31.3179563,72.9363502 22.5093054,68.2992725 16.7972911,61.0649378 Z" id="Combined-Shape" stroke="#FFFFFF" stroke-width="1.01770791" fill="url(#linearGradient-9)" stroke-linejoin="round"></path>
                <path d="M33.3286207,52.2522707 C38.0217232,38.9396068 47.8545631,28.6060607 61.0379525,24.363107 C65.5529787,28.0032727 68.4452115,33.6048707 68.4452115,39.887708 C68.4452115,50.8589003 59.6260101,59.7528089 48.7469739,59.7528089 C42.5029969,59.7528089 36.9375578,56.823033 33.3286207,52.2522707 Z" id="Combined-Shape-Copy-6" fill="url(#linearGradient-10)"></path>
                <path d="M52.6845405,21.7055756 C57.1251319,27.7288811 59.7526378,35.1923913 59.7526378,43.2747868 C59.7526378,54.9981919 54.2245996,65.4195172 45.6538848,72.0323477 C44.8021866,72.1059177 43.9402819,72.1434639 43.0696815,72.1434639 C31.8742295,72.1434639 22.1167506,65.9346163 16.9982873,56.7450798 C24.4221792,41.248558 37.0928661,28.7868873 52.6845432,21.7055746 Z" id="Combined-Shape" stroke="#FFFFFF" stroke-width="1.01770791" fill="url(#linearGradient-11)" stroke-linejoin="round"></path>
                <path d="M47.0082332,27.3536002 C50.4163862,31.9764859 52.4329964,37.7047284 52.4329964,43.9079652 C52.4329964,52.9056762 48.1902282,60.9040412 41.6122064,65.9793871 C40.9585282,66.0358521 40.2970165,66.0646688 39.6288309,66.0646688 C31.0363239,66.0646688 23.5474608,61.2993796 19.6190414,54.2464123 C25.3168768,42.352835 35.0416264,32.7885054 47.0082353,27.3535994 Z" id="Combined-Shape-Copy" fill="url(#linearGradient-12)"></path>
                <path d="M16.388557,57.0575328 C33.9335793,47.9981382 48.5426065,33.9772571 58.3953896,16.8305579 C39.9759692,24.5866927 24.9927364,38.9849493 16.388557,57.0575328 Z" id="Combined-Shape" stroke="#FFFFFF" stroke-width="1.01770791" fill="url(#linearGradient-13)" stroke-linejoin="round"></path>
                <path d="M28.4382531,49.6817702 C40.834338,40.9697103 51.2274675,29.5602604 58.7812849,16.2968619 C62.9389635,20.4085936 65.5183739,26.1375013 65.5183739,32.4739659 C65.5183739,44.9866077 55.460077,55.1301082 43.052539,55.1301082 C37.4721027,55.1301082 32.3668841,53.0782235 28.438256,49.6817682 Z" id="Combined-Shape" stroke="#FFFFFF" stroke-width="1.01770791" fill="url(#linearGradient-14)" stroke-linejoin="round"></path>
                <path d="M33.5456518,39.4588958 C42.1930244,33.3814582 49.4431574,25.4223512 54.7126178,16.1699501 C57.6129701,19.0382477 59.4123387,23.0346714 59.4123387,27.4549202 C59.4123387,36.183603 52.3957802,43.2595986 43.7404167,43.2595986 C39.847565,43.2595986 36.2862201,41.8282261 33.5456518,39.4588958 Z" id="Combined-Shape-Copy-5" fill="url(#linearGradient-15)"></path>
                <path d="M46.1236008,70.7714921 C49.5666669,70.7714921 52.8613596,70.1852927 55.9864135,69.2093958 C42.8478787,75.6246076 27.7459375,76.5674201 20.9525601,75.6852548 C21.9911784,69.5032672 21.4941857,64.0047145 17.0299106,56.8190515 C22.7546491,67.0673862 33.628693,70.7714921 46.1236008,70.7714921 Z" id="Oval-Copy-17" stroke="#FFFFFF" stroke-width="1.01770791" fill="url(#linearGradient-16)" stroke-linejoin="round"></path>
                <path d="M1.98252374,56.0821811 C0.747225996,58.4268625 0,61.1510657 0,63.9912627 C0,67.0101987 0.813852867,69.4897167 1.39731437,70.6663043 C2.52665812,71.2613183 9.11482439,73.4275395 11.0263408,73.8011171 C12.0115944,68.6767916 14.9509688,60.6871225 16.9518178,56.7775025 C12.0321319,58.9666386 6.12667346,58.3734974 1.98252374,56.0821811 Z" id="Oval-Copy-9" stroke="#FFFFFF" stroke-width="1.01770791" fill="url(#linearGradient-17)" stroke-linejoin="round"></path>
                <path d="M5.65157941,57.1393628 C4.41628167,59.4840443 3.66905567,62.2082474 3.66905567,65.0484444 C3.66905567,68.0673805 4.48290854,70.5468984 5.06637004,71.723486 C6.19571379,72.3185001 12.7838801,74.4847213 14.6953965,74.8582989 C15.6806501,69.7339733 18.6200244,61.7443043 20.6208735,57.8346843 C15.7011876,60.0238203 9.79572913,59.4306791 5.65157941,57.1393628 Z" id="Oval-Copy-12" fill="url(#linearGradient-18)"></path>
                <path d="M10.9957531,73.8134008 C13.6835977,74.4833286 16.5728885,75.0938212 21.1842116,75.6975384 C21.5130121,74.1079175 21.6735065,72.5048498 21.6735065,70.8167929 C21.6735065,65.5833748 20.3337752,61.4760738 16.9737653,56.6809029 C14.2044808,62.4683259 12.2164505,66.6204375 10.9957531,73.8134008 Z" id="Oval-Copy-16" stroke="#FFFFFF" stroke-width="1.01770791" fill="url(#linearGradient-19)" stroke-linejoin="round"></path>
                <path d="M16.9562695,56.7890701 C17.0102481,56.2301771 17.0764608,55.681347 17.1038008,55.108687 C17.2977445,51.0463642 15.8934401,46.6769721 13.598301,44.6240052 C8.5256823,50.5327747 6.06882982,52.6920553 1.96133079,56.0573383 C6.29454449,58.9188323 12.997686,58.9033462 16.9562695,56.7890701 Z" id="Oval-Copy-10" stroke="#FFFFFF" stroke-width="1.01770791" fill="url(#linearGradient-20)" stroke-linejoin="round"></path>
                <path d="M61.9647098,2.80903884 C62.2354042,3.95517496 62.3787133,5.15112498 62.3787133,6.38083017 C62.3787133,10.3038593 60.9201851,13.8833452 58.5201512,16.5978858 C56.1538134,15.4031149 54.5292247,12.9353686 54.5292247,10.084965 C54.5292247,6.06479229 57.7608436,2.8057984 61.7472476,2.8057984 C61.8199914,2.8057984 61.8924838,2.8068836 61.9647098,2.80903884 Z" id="Combined-Shape" stroke="#FFFFFF" stroke-width="1.01770791" fill="url(#linearGradient-21)" stroke-linejoin="round"></path>
                <path d="M55.2327937,28.0612778 C59.8194777,28.0298441 64.9881593,26.586907 69.866827,22.6073962 C72.3826712,20.5649909 73.9925288,17.4335645 73.9925288,13.9229505 C73.9925288,7.76899864 69.1241797,2.77987434 61.7533089,2.77987434 C63.4652456,8.66554181 60.4768647,15.3738853 56.7205926,18.4635889 C51.5553897,22.7122018 45.3432173,22.53251 41.8725216,21.0371599 C41.3983281,20.8328535 40.7887467,20.7842162 40.3501438,21.5154727 C40.0310083,22.0475483 40.3029935,22.7754242 40.8125415,23.17578 C45.2327317,26.6487572 50.6461098,28.0927116 55.2327937,28.0612778 Z" id="Oval-2-Copy-7" stroke="#FFFFFF" stroke-width="1.01770791" fill="url(#linearGradient-22)" stroke-linejoin="round"></path>
                <path d="M55.6962165,25.8724962 C59.2636095,25.8480479 63.2836638,24.7257723 67.0781534,21.6306214 C69.0349058,20.0420964 70.2870075,17.6065616 70.2870075,14.8761054 C70.2870075,10.0897358 66.5005433,6.2093361 60.7676887,6.2093361 C62.0991846,10.7870417 59.7749065,16.0046013 56.8533843,18.4076854 C52.8360358,21.7121363 48.0043839,21.5723771 45.304975,20.4093361 C44.9361607,20.2504324 44.4620456,20.2126036 44.1209127,20.7813542 C43.8726981,21.1951876 44.0842404,21.7613089 44.4805525,22.0726942 C47.9184513,24.7738776 52.1288235,25.8969445 55.6962165,25.8724962 Z" id="Oval-2-Copy-11" fill="url(#linearGradient-23)"></path>
                <path d="M60.0779803,14.3462133 C60.1086145,14.7440472 60.1242177,15.1461331 60.1242177,15.5518942 C60.1242177,20.6876835 57.6245277,25.2346932 53.7851702,28.0230745 C49.5369952,27.7723316 44.7755814,26.2895707 40.8125415,23.17578 C40.3029935,22.7754242 40.0310083,22.0475483 40.3501438,21.5154727 C40.7887467,20.7842162 41.3983281,20.8328535 41.8725216,21.0371599 C45.3432173,22.53251 51.5553897,22.7122018 56.7205926,18.4635889 C57.9782847,17.4290803 59.1456762,16.0045448 60.0779803,14.3462133 Z" id="Combined-Shape" stroke="#FFFFFF" stroke-width="1.01770791" fill="url(#linearGradient-24)" stroke-linejoin="round"></path>
                <path d="M58.7771453,16.5581528 C58.8310546,17.0002841 58.8588134,17.4505757 58.8588134,17.9074055 C58.8588134,21.5666181 57.0778024,24.8063295 54.3422881,26.7930309 C51.3154943,26.6143784 47.9230215,25.557922 45.0993843,23.3393688 C44.7363351,23.0541182 44.5425477,22.5355119 44.7699294,22.1564119 C45.0824307,21.6353969 45.516753,21.6700507 45.8546125,21.8156175 C48.327458,22.8810436 52.7535857,23.0090727 56.4337552,19.9819668 C57.4741096,19.1262283 58.2675312,17.9377262 58.7771453,16.5581528 Z" id="Combined-Shape-Copy-3" fill="url(#linearGradient-25)" transform="translate(51.765499, 21.675592) rotate(-8.000000) translate(-51.765499, -21.675592) "></path>
                <ellipse id="Oval-7" fill="#FFFFFF" cx="16.2426953" cy="68.9535442" rx="1" ry="1"></ellipse>
                <ellipse id="Oval-7-Copy-4" fill="#FFFFFF" cx="30.7642887" cy="67.162505" rx="1" ry="1"></ellipse>
                <ellipse id="Oval-7-Copy-8" fill="#FFFFFF" cx="66.2565788" cy="16.5950933" rx="1" ry="1"></ellipse>
                <ellipse id="Oval-7-Copy-2" fill="#FFFFFF" cx="30.5972245" cy="41.026383" rx="1" ry="1"></ellipse>
                <ellipse id="Oval-7-Copy-3" fill="#FFFFFF" cx="34.4687986" cy="21.8754724" rx="1" ry="1"></ellipse>
                <ellipse id="Oval-7-Copy-10" fill="#FFFFFF" cx="11.1844092" cy="52.3804201" rx="1" ry="1"></ellipse>
                <ellipse id="Oval-7-Copy-9" fill="#FFFFFF" cx="46.5447353" cy="9.32685551" rx="1" ry="1"></ellipse>
                <ellipse id="Oval-7-Copy-5" fill="#FFFFFF" cx="49.0239782" cy="53.2996495" rx="1" ry="1"></ellipse>
                <ellipse id="Oval-7-Copy-6" fill="#FFFFFF" cx="55.0356576" cy="32.3430291" rx="1" ry="1"></ellipse>
                <ellipse id="Oval-7-Copy" fill="#FFFFFF" cx="28.9838295" cy="8.72053815" rx="1" ry="1"></ellipse>
                <ellipse id="Oval-7-Copy-7" fill="#FFFFFF" cx="68.0085249" cy="44.9639514" rx="1" ry="1"></ellipse>
            </g>
        </g>
    </g>
</svg>