<?xml version="1.0" encoding="UTF-8"?>
<svg width="120px" height="120px" viewBox="0 0 120 120" version="1.1" xmlns="http://www.w3.org/2000/svg" xmlns:xlink="http://www.w3.org/1999/xlink">
    <!-- Generator: Sketch 48.2 (47327) - http://www.bohemiancoding.com/sketch -->
    <title>Icon_cabra_small</title>
    <desc>Created with Sketch.</desc>
    <defs>
        <linearGradient x1="-6.16278776%" y1="10.1636739%" x2="79.7583361%" y2="100%" id="linearGradient-1">
            <stop stop-color="#F7D457" offset="0%"></stop>
            <stop stop-color="#DF128D" offset="50%"></stop>
            <stop stop-color="#863699" offset="100%"></stop>
        </linearGradient>
        <linearGradient x1="65.7620217%" y1="67.2267541%" x2="0%" y2="100%" id="linearGradient-2">
            <stop stop-color="#FF997E" stop-opacity="0" offset="0%"></stop>
            <stop stop-color="#F77957" offset="100%"></stop>
        </linearGradient>
        <linearGradient x1="-63.6965777%" y1="23.6688822%" x2="96.0881028%" y2="50%" id="linearGradient-3">
            <stop stop-color="#F7D457" offset="0%"></stop>
            <stop stop-color="#DF128D" offset="41.1096498%"></stop>
            <stop stop-color="#863699" offset="60.1655403%"></stop>
            <stop stop-color="#000000" offset="100%"></stop>
        </linearGradient>
        <linearGradient x1="7.39999765%" y1="41.8092866%" x2="100%" y2="78.5900539%" id="linearGradient-4">
            <stop stop-color="#DF128D" offset="0%"></stop>
            <stop stop-color="#863699" offset="43.1858505%"></stop>
            <stop stop-color="#000000" offset="100%"></stop>
        </linearGradient>
        <linearGradient x1="65.7060079%" y1="77.0997743%" x2="157.056267%" y2="214.608575%" id="linearGradient-5">
            <stop stop-color="#FEB281" stop-opacity="0" offset="0%"></stop>
            <stop stop-color="#63201B" offset="100%"></stop>
        </linearGradient>
        <linearGradient x1="50%" y1="31.2063578%" x2="127.010903%" y2="113.936213%" id="linearGradient-6">
            <stop stop-color="#863699" offset="0%"></stop>
            <stop stop-color="#000000" offset="100%"></stop>
        </linearGradient>
        <linearGradient x1="59.4109424%" y1="73.8533082%" x2="133.441409%" y2="182.670399%" id="linearGradient-7">
            <stop stop-color="#E08F68" stop-opacity="0" offset="0%"></stop>
            <stop stop-color="#9D4F41" offset="100%"></stop>
        </linearGradient>
        <linearGradient x1="-6.16278776%" y1="10.1636739%" x2="108.905265%" y2="132.43063%" id="linearGradient-8">
            <stop stop-color="#F7D457" offset="0%"></stop>
            <stop stop-color="#DF128D" offset="50%"></stop>
            <stop stop-color="#863699" offset="100%"></stop>
        </linearGradient>
        <linearGradient x1="41.9544469%" y1="50%" x2="0%" y2="131.824954%" id="linearGradient-9">
            <stop stop-color="#CDFF75" stop-opacity="0" offset="0%"></stop>
            <stop stop-color="#D1864E" offset="100%"></stop>
        </linearGradient>
        <linearGradient x1="90.6384024%" y1="-11.1616599%" x2="74.6944334%" y2="80.9879248%" id="linearGradient-10">
            <stop stop-color="#F7D457" offset="0%"></stop>
            <stop stop-color="#DF128D" offset="38.7403783%"></stop>
            <stop stop-color="#863699" offset="100%"></stop>
        </linearGradient>
        <linearGradient x1="39.9712413%" y1="-86.8741889%" x2="53.6298723%" y2="25.2182394%" id="linearGradient-11">
            <stop stop-color="#FFC400" offset="0%"></stop>
            <stop stop-color="#FF6046" stop-opacity="0" offset="100%"></stop>
        </linearGradient>
        <linearGradient x1="-17.0883912%" y1="57.9275604%" x2="118.41397%" y2="93.2803898%" id="linearGradient-12">
            <stop stop-color="#F7D457" offset="0%"></stop>
            <stop stop-color="#DF128D" offset="59.1522707%"></stop>
            <stop stop-color="#863699" offset="100%"></stop>
        </linearGradient>
        <linearGradient x1="57.7973185%" y1="72.6696641%" x2="15.8420767%" y2="150.176529%" id="linearGradient-13">
            <stop stop-color="#B06A51" stop-opacity="0" offset="0%"></stop>
            <stop stop-color="#5B3127" offset="100%"></stop>
        </linearGradient>
        <linearGradient x1="70.0769493%" y1="6.40639468%" x2="55.2430391%" y2="128.116429%" id="linearGradient-14">
            <stop stop-color="#F7D457" offset="0%"></stop>
            <stop stop-color="#DF128D" offset="34.6455978%"></stop>
            <stop stop-color="#863699" offset="69.2911957%"></stop>
            <stop stop-color="#000000" offset="100%"></stop>
        </linearGradient>
        <linearGradient x1="22.0602654%" y1="67.268756%" x2="-40.8218402%" y2="118.398826%" id="linearGradient-15">
            <stop stop-color="#FFC975" stop-opacity="0" offset="0%"></stop>
            <stop stop-color="#773832" offset="100%"></stop>
        </linearGradient>
        <linearGradient x1="32.6220338%" y1="35.0442099%" x2="126.033654%" y2="53.6970691%" id="linearGradient-16">
            <stop stop-color="#F7D457" offset="0%"></stop>
            <stop stop-color="#DF128D" offset="25.9263082%"></stop>
            <stop stop-color="#863699" offset="100%"></stop>
        </linearGradient>
        <linearGradient x1="61.8144484%" y1="61.0277988%" x2="-73.3526227%" y2="68.9702454%" id="linearGradient-17">
            <stop stop-color="#F1D36E" stop-opacity="0" offset="0%"></stop>
            <stop stop-color="#8E4542" offset="100%"></stop>
        </linearGradient>
        <linearGradient x1="-25.978836%" y1="60.8011464%" x2="98.6793513%" y2="22.4823989%" id="linearGradient-18">
            <stop stop-color="#F7D457" offset="0%"></stop>
            <stop stop-color="#DF128D" offset="100%"></stop>
        </linearGradient>
        <linearGradient x1="-92.7349795%" y1="-44.1903644%" x2="50%" y2="50%" id="linearGradient-19">
            <stop stop-color="#FCDF70" offset="0%"></stop>
            <stop stop-color="#F2A469" stop-opacity="0" offset="100%"></stop>
        </linearGradient>
        <linearGradient x1="110.916428%" y1="10.3334573%" x2="-43.6391689%" y2="63.1725166%" id="linearGradient-20">
            <stop stop-color="#F7D457" offset="0%"></stop>
            <stop stop-color="#DF128D" offset="100%"></stop>
        </linearGradient>
        <linearGradient x1="10.9018555%" y1="22.0041345%" x2="53.6140888%" y2="30.7053221%" id="linearGradient-21">
            <stop stop-color="#F77957" offset="0%"></stop>
            <stop stop-color="#FF997E" stop-opacity="0" offset="100%"></stop>
        </linearGradient>
        <linearGradient x1="0%" y1="209.333183%" x2="83.8436999%" y2="50%" id="linearGradient-22">
            <stop stop-color="#863699" offset="0%"></stop>
            <stop stop-color="#DF128D" offset="100%"></stop>
        </linearGradient>
        <linearGradient x1="-170.994772%" y1="61.5950754%" x2="82.1435705%" y2="68.6123237%" id="linearGradient-23">
            <stop stop-color="#F19A67" offset="0%"></stop>
            <stop stop-color="#FF997E" stop-opacity="0" offset="100%"></stop>
        </linearGradient>
        <linearGradient x1="-6.34964038%" y1="168.352419%" x2="44.8211016%" y2="64.3750167%" id="linearGradient-24">
            <stop stop-color="#863699" offset="0%"></stop>
            <stop stop-color="#DF128D" offset="100%"></stop>
        </linearGradient>
        <linearGradient x1="-70.0450248%" y1="59.6555723%" x2="41.3628837%" y2="83.7574145%" id="linearGradient-25">
            <stop stop-color="#863699" offset="0%"></stop>
            <stop stop-color="#FF997E" stop-opacity="0" offset="100%"></stop>
        </linearGradient>
        <linearGradient x1="88.9539188%" y1="9.84181061%" x2="0%" y2="71.3458807%" id="linearGradient-26">
            <stop stop-color="#F7D457" offset="0%"></stop>
            <stop stop-color="#DF128D" offset="100%"></stop>
        </linearGradient>
        <linearGradient x1="59.8465769%" y1="-24.7834734%" x2="63.652259%" y2="15.2757787%" id="linearGradient-27">
            <stop stop-color="#F77957" offset="0%"></stop>
            <stop stop-color="#F77957" stop-opacity="0" offset="100%"></stop>
        </linearGradient>
    </defs>
    <g id="Page-1" stroke="none" stroke-width="1" fill="none" fill-rule="evenodd">
        <g id="Icon_cabra_small">
            <path d="M36.4912076,45.6533796 C32.5389474,43.2991782 28.2907389,40.0573524 23.5271361,34.0325866 C24.7236463,41.2275157 26.440139,47.9670697 31.3848205,53.7881874 C31.5883451,51.2298375 36.4770969,45.8952785 36.4912076,45.6533796 Z" id="Oval-3-Copy-5" stroke="#FFFFFF" stroke-width="1.04912286" fill="url(#linearGradient-1)" stroke-linejoin="round"></path>
            <path d="M36.6680031,48.1267559 C36.8304726,47.7159804 36.8908945,47.5081317 36.9027654,47.3039464 C33.5778482,45.3167798 30.0039584,42.5803751 25.996483,37.4949084 C27.003071,43.5681026 30.13529,48.9232221 34.6028929,52.7698574 C34.774112,50.6103705 35.7947496,49.3484319 36.6680031,48.1267559 Z" id="Oval-3-Copy-8" fill="url(#linearGradient-2)" transform="translate(31.449624, 45.132383) rotate(-3.000000) translate(-31.449624, -45.132383) "></path>
            <path d="M35.0433832,82.0977597 C39.2082667,88.377243 48.2390935,93.8743874 62.4504987,91.9240469 C52.3114663,95.0455063 41.4497892,101.512047 34.4507653,109.389002 C29.3370288,100.922097 30.0764535,92.1481203 31.875486,87.3064052 C33.5020086,85.0575883 34.3040548,83.4740848 35.0433832,82.0977597 Z" id="Oval-15-Copy-18" stroke="#FFFFFF" stroke-width="1.04912286" fill="url(#linearGradient-3)" stroke-linejoin="round"></path>
            <path d="M61.2939971,92.1366631 C72.4800102,90.1270526 80.7336738,79.9453443 80.7336738,67.9615931 C80.7336738,52.822532 68.247477,40.5498982 52.8449726,40.5498982 C50.989215,40.5498982 49.1757918,41.0201847 47.4214407,41.3600429 C54.741268,41.2071946 59.6592594,43.1551156 63.2203676,46.4518334 C70.4217212,53.1185308 71.6330036,63.2387966 67.5090931,70.6637641 C60.635754,83.038989 45.9237844,84.0043994 37.2612939,77.6201987 C36.5075151,79.301564 35.8061774,80.924939 35.0507552,82.2273597 C41.0693648,91.0643448 50.1079841,94.1462735 61.2939971,92.1366631 Z" id="Oval-15-Copy-21" stroke="#FFFFFF" stroke-width="1.04912286" fill="url(#linearGradient-4)" stroke-linejoin="round"></path>
            <path d="M61.4129631,88.7623387 C72.2612244,87.2528963 80.7336738,75.0533723 80.7336738,63.0760831 C80.7336738,47.937022 68.247477,35.6643881 52.8449726,35.6643881 C50.989215,35.6643881 49.1757918,36.1346747 47.4214407,36.4745329 C54.741268,36.3216846 59.6592594,38.2696055 63.2203676,41.5663234 C70.4217212,48.2330208 71.6330036,58.3532866 67.5090931,65.7782541 C60.635754,78.153479 45.9237844,79.1188893 37.2612939,72.7346887 C36.5075151,74.4160539 35.8061774,76.039429 35.0507552,77.3418497 C41.0693648,86.1788348 50.5647018,90.2717812 61.4129631,88.7623387 Z" id="Oval-15-Copy-26" fill="url(#linearGradient-5)"></path>
            <path d="M49.3393896,82.0977597 C60.6546006,82.0977597 70.0331703,72.7426668 70.0331703,61.5636852 C70.0331703,55.6670604 67.2752544,50.3593427 63.2027482,46.6598778 C56.2109833,47.8721618 47.5528835,51.5869813 41.1087351,57.3302401 C41.2448393,64.2324499 40.1811299,70.7965087 37.3143232,77.9535908 C40.6915138,80.376279 44.846568,82.0977597 49.3393896,82.0977597 Z" id="Oval-15-Copy-22" stroke="#FFFFFF" stroke-width="1.04912286" fill="url(#linearGradient-6)" stroke-linejoin="round"></path>
            <path d="M48.7220529,79.4501018 C60.0372638,79.4501018 69.2100547,70.095009 69.2100547,58.9160273 C69.2100547,53.0194026 66.6579177,47.7116849 62.5854114,44.01222 C55.5936466,45.2245039 46.9355467,48.9393235 40.4913984,54.6825823 C40.6275026,61.5847921 39.5637931,68.1488508 36.6969865,75.305933 C40.074177,77.7286211 44.2292313,79.4501018 48.7220529,79.4501018 Z" id="Oval-15-Copy-25" fill="url(#linearGradient-7)"></path>
            <path d="M85.8219004,46.5902778 C75.9827514,45.7084372 67.8979345,40.7461683 63.3143924,36.6060195 C64.713968,43.3086604 70.5180607,54.3635883 79.4641388,57.8884549 C80.5297681,53.0989583 82.5131871,50.1427951 85.8219004,46.5902778 Z" id="Oval-3-Copy-6" stroke="#FFFFFF" stroke-width="1.04912286" fill="url(#linearGradient-8)" stroke-linejoin="round" transform="translate(74.568146, 47.247237) scale(-1, 1) translate(-74.568146, -47.247237) "></path>
            <path d="M83.2030208,46.2525458 C74.9174216,45.5026873 67.3080701,42.0337451 63.4482451,38.5132383 C64.6268351,44.2127177 70.8118933,50.9945416 78.3454327,53.9918534 C79.3580634,50.5756999 81.6823546,47.5340064 83.2030208,46.2525458 Z" id="Oval-3-Copy-7" fill="url(#linearGradient-9)" transform="translate(73.325633, 46.252546) scale(-1, 1) rotate(-5.000000) translate(-73.325633, -46.252546) "></path>
            <path d="M63.1150802,46.2588976 C67.2068907,50.2370152 69.018223,53.5024378 69.6771971,57.8870171 C56.2952376,60.5397467 43.9640528,66.8935464 36.5131573,77.1360036 C39.620861,69.043388 40.2962779,64.2015099 40.2962779,56.4174099 C46.000508,51.5034262 54.448556,47.8305642 63.1150802,46.2588976 Z" id="Oval-15-Copy-23" stroke="#FFFFFF" stroke-width="1.04912286" fill="url(#linearGradient-10)" stroke-linejoin="round"></path>
            <path d="M65.5627598,48.9002037 C67.8931197,52.1913124 69.1755798,54.6723329 69.7371661,58.4020725 C58.4915662,59.8550347 49.8374404,66.8677085 43.4876906,75.5804481 C46.136116,68.6964698 46.7117151,64.5777294 46.7117151,57.9561897 C51.5729339,53.7761128 58.1770355,50.2371409 65.5627598,48.9002037 Z" id="Oval-15-Copy-24" fill="url(#linearGradient-11)"></path>
            <path d="M24.7019602,95.7340313 C26.9761437,93.5053335 31.0586052,88.8288126 31.9006508,87.3930754 C29.8783384,94.1487758 30.029315,101.63139 34.4334185,109.351119 C33.201056,109.801206 31.8055914,110 30.4150526,110 C29.5225593,110 28.6301379,109.887871 27.7965745,109.696314 C27.7973459,109.69828 27.7981174,109.700246 27.798889,109.702212 C22.7553922,108.532958 19,104.057155 19,98.7141623 C19,94.511713 21.3232239,90.8457395 24.7691405,88.9031832 C24.6631577,90.1812616 24.6091207,91.4738858 24.6091207,92.7789883 C24.6091207,93.7715227 24.6403738,94.7568402 24.7019602,95.7340313 Z" id="Combined-Shape" stroke="#FFFFFF" stroke-width="1.04912286" fill="url(#linearGradient-12)" stroke-linejoin="round"></path>
            <path d="M25.9732736,97.1140934 C27.7696306,95.3873546 30.9943299,91.7641042 31.659454,90.6517312 C30.0620478,95.8858775 30.1315414,101.646783 33.6103028,107.627834 C32.6368709,107.97655 31.5843675,108.167006 30.4859935,108.167006 C29.7810211,108.167006 29.0761056,108.080132 28.4176814,107.931718 C28.4182907,107.933241 28.4189001,107.934764 28.4195096,107.936287 C24.4356972,107.030379 21.469347,103.56264 21.469347,99.4230237 C21.469347,96.1670721 23.3044404,93.3267682 26.0263387,91.8217246 C25.9426239,92.8119475 25.8999405,93.8134402 25.8999405,94.8246006 C25.8999405,95.5935913 25.9246271,96.3569904 25.9732736,97.1140934 Z" id="Combined-Shape-Copy-3" fill="url(#linearGradient-13)"></path>
            <path d="M63.4482451,46.6047807 C59.8225058,43.2977594 54.7820421,39.5315682 49.4746797,39.5315682 C41.2409755,39.5315682 34.148047,46.150741 30.9351769,53.1416825 C31.9791405,58.9327015 31.8069448,65.7341077 30.986799,70.0814664 C37.6615969,57.758358 49.6817689,49.4019642 63.4482451,46.6047807 Z" id="Oval-15-Copy-16" stroke="#FFFFFF" stroke-width="1.04912286" fill="url(#linearGradient-14)" stroke-linejoin="round"></path>
            <path d="M59.5384458,48.5722437 C56.5803091,45.882533 52.4489388,42.790224 48.1188142,42.790224 C41.4011713,42.790224 35.6142545,48.1738179 32.9929661,53.8597836 C33.8447059,58.5698125 33.7042164,64.1016228 33.035083,67.6374745 C38.480859,57.6146797 48.306773,50.8472862 59.5384458,48.5722437 Z" id="Oval-15-Copy-17" fill="url(#linearGradient-15)"></path>
            <path d="M21.469347,92.0773931 C25.3045683,86.9762534 30.8612963,87.4650521 32.1109751,87.5970894 C38.0582037,79.3066378 41.2241226,69.3636385 41.2241226,58.5481868 C41.2241226,58.1143414 41.2349525,57.7452077 41.2241226,57.3139559 C37.6699848,60.2273514 33.9840572,64.654297 30.9799031,69.9910622 C29.9456862,76.6252978 27.4099386,83.9100615 21.469347,92.0773931 Z" id="Oval-15-Copy-11" stroke="#FFFFFF" stroke-width="1.04912286" fill="url(#linearGradient-16)" stroke-linejoin="round"></path>
            <path d="M24.3502517,91.6700611 C27.1068171,88.0604828 31.1007153,88.4063578 31.998922,88.4997877 C36.2734925,82.6334448 38.5489967,75.5977552 38.5489967,67.9447163 C38.5489967,67.6377263 38.5450816,67.3316313 38.5372976,67.0264766 C35.982761,69.088002 33.2747979,72.2060541 31.1155621,75.9823616 C30.3722187,80.6767622 28.6200519,85.8908382 24.3502517,91.6700611 Z" id="Oval-15-Copy-14" fill="url(#linearGradient-17)" transform="translate(31.449624, 79.348269) rotate(5.000000) translate(-31.449624, -79.348269) "></path>
            <path d="M31.9640715,87.4847872 C28.4784875,92.4428145 24.1188097,96.7610451 19.104106,100.224033 C19.0354539,99.7243678 19,99.214341 19,98.6961704 C19,92.4536434 24.1456338,87.3930754 30.4930949,87.3930754 C30.9914655,87.3930754 31.4824273,87.4242717 31.9640715,87.4847872 Z" id="Combined-Shape" stroke="#FFFFFF" stroke-width="1.04912286" fill="url(#linearGradient-18)" stroke-linejoin="round"></path>
            <path d="M31.1409558,88.8900687 C28.429946,92.7463122 25.0390855,96.104936 21.1387605,98.7983707 C21.0853644,98.4097425 21.0577891,98.013055 21.0577891,97.6100334 C21.0577891,92.7547346 25.0599488,88.8187373 29.9968629,88.8187373 C30.3844845,88.8187373 30.7663437,88.8430011 31.1409558,88.8900687 Z" id="Combined-Shape-Copy-2" fill="url(#linearGradient-19)"></path>
            <path d="M44.1050273,23.370767 C46.4359081,19.0804075 51.1015277,13.9825067 54.7075805,10.4100249 C55.1150158,9.99296054 55.7062453,9.86829679 56.2442135,10.1562792 C56.7161852,10.4089326 57.1303001,11.1218679 56.6485492,11.9509242 C50.4892457,20.9786922 46.8974975,31.5350242 46.7380485,42.790224 C46.9831187,36.4092564 46.010509,29.538788 44.1050273,23.370767 Z" id="Oval-2-Copy-10" stroke="#FFFFFF" stroke-width="1.04912286" fill="url(#linearGradient-20)" stroke-linejoin="round"></path>
            <path d="M44.7223641,24.8647457 C46.8499105,20.9092796 50.9868209,16.5229672 54.2782997,13.2293434 C54.6501924,12.8448338 55.1898459,12.729901 55.6808845,12.9954043 C56.1116838,13.2283363 56.4896733,13.8856218 56.0499479,14.6499644 C50.4279513,22.9730501 45.8826416,28.467917 45.7550912,39.1242363 C46.0138436,33.3113355 45.6281125,30.2785148 44.7223641,24.8647457 Z" id="Oval-2-Copy-12" fill="url(#linearGradient-21)" transform="translate(50.484174, 25.987780) rotate(-5.000000) translate(-50.484174, -25.987780) "></path>
            <path d="M42.0638939,45.3910181 C44.3083743,44.9079412 46.096047,43.6338527 46.7127058,42.9972152 C47.0274052,36.0700364 46.2552485,30.0022307 44.0929383,23.4419552 C40.4764836,28.7937488 36.8307603,40.7420429 36.0796498,45.6246043 C38.3999011,46.0689203 40.3270879,45.7648289 42.0638939,45.3910181 Z" id="Oval-2-Copy-9" stroke="#FFFFFF" stroke-width="1.04912286" fill="url(#linearGradient-22)" stroke-linejoin="round"></path>
            <path d="M42.267353,44.5673299 C43.9313536,44.2032671 45.0459695,43.5652069 45.6471231,43.2146964 C45.8804333,37.9941438 45.3614304,33.1526317 43.7583486,28.2085896 C41.0772011,32.2418795 38.3558298,41.0495059 37.7989755,44.7291667 C39.5431111,44.8705911 40.9797292,44.8490462 42.267353,44.5673299 Z" id="Oval-2-Copy-11" fill="url(#linearGradient-23)" transform="translate(41.749594, 36.511547) rotate(-10.000000) translate(-41.749594, -36.511547) "></path>
            <path d="M79.4990003,14.8879837 C64.6877848,18.7254463 52.8090329,29.6358071 47.8090478,43.7796805 C51.6108781,46.453545 57.3711495,47.6698581 62.3952387,45.6565437 C62.0357394,35.6032963 66.5983982,23.1036637 79.4990003,14.8879837 Z" id="Oval-2-Copy-4" stroke="#FFFFFF" stroke-width="1.04912286" fill="url(#linearGradient-24)" stroke-linejoin="round"></path>
            <path d="M74.9718642,18.8423196 C62.6612436,22.019848 52.7879952,31.0539375 48.6321634,42.7654676 C51.7921263,44.9795036 56.6349154,45.9380478 60.8107817,44.2709662 C60.5119772,35.946591 64.2492858,25.6451367 74.9718642,18.8423196 Z" id="Oval-2-Copy-6" fill="url(#linearGradient-25)" transform="translate(61.802014, 31.978776) rotate(-9.000000) translate(-61.802014, -31.978776) "></path>
            <path d="M98.7193596,17.8155232 C99.9398386,17.9084035 100.524734,17.0961714 100.668175,16.3038927 C100.811615,15.5116139 100.370423,14.3490195 99.1542258,14.1640149 C92.9276563,13.1883766 86.8116583,13.0460768 79.1883587,14.9368917 C68.9443462,21.0992653 62.2135717,32.0383048 62.2135717,44.6871727 C62.2135717,45.0099573 62.2164404,45.3280603 62.2221738,45.6415479 C67.5846415,23.4346233 86.9671645,16.9211633 98.7193596,17.8155232 Z" id="Oval-2-Copy-5" stroke="#FFFFFF" stroke-width="1.04912286" fill="url(#linearGradient-26)" stroke-linejoin="round"></path>
            <path d="M93.2631765,21.813016 C94.3128039,21.8925996 94.8158218,21.1966467 94.9391823,20.5177907 C95.0625428,19.8389347 94.6831117,18.8427774 93.6371669,18.684258 C88.2822379,17.8482922 83.0090019,17.8892181 76.4528672,19.5093438 C67.642886,24.7895114 60.5965103,33.5790897 60.5965103,44.4171445 C60.5965103,44.6937192 83.1561391,21.0466928 93.2631765,21.813016 Z" id="Oval-2-Copy-7" fill="url(#linearGradient-27)" transform="translate(77.779050, 31.283096) rotate(-15.000000) translate(-77.779050, -31.283096) "></path>
            <ellipse id="Oval-7" fill="#FFFFFF" cx="62.3992902" cy="28.9714823" rx="1" ry="1"></ellipse>
            <ellipse id="Oval-7-Copy-4" fill="#FFFFFF" cx="27.1379252" cy="100.159527" rx="1.04955855" ry="1.03880028"></ellipse>
            <ellipse id="Oval-7-Copy-8" fill="#FFFFFF" cx="72.8943381" cy="49.0447751" rx="1.04955855" ry="1.03880028"></ellipse>
            <ellipse id="Oval-7-Copy-2" fill="#FFFFFF" cx="33.9579029" cy="81.1928852" rx="1" ry="1"></ellipse>
            <ellipse id="Oval-7-Copy-3" fill="#FFFFFF" cx="47.2860297" cy="62.3451837" rx="1" ry="1"></ellipse>
            <ellipse id="Oval-7-Copy-10" fill="#FFFFFF" cx="42.3127043" cy="37.9383033" rx="1" ry="1"></ellipse>
            <ellipse id="Oval-7-Copy-9" fill="#FFFFFF" cx="56.9367754" cy="53.686552" rx="1" ry="1"></ellipse>
            <ellipse id="Oval-7-Copy-5" fill="#FFFFFF" cx="50.7016162" cy="85.3174806" rx="1" ry="1"></ellipse>
            <ellipse id="Oval-7-Copy-6" fill="#FFFFFF" cx="66.0171109" cy="66.1883501" rx="1" ry="1"></ellipse>
            <ellipse id="Oval-7-Copy" fill="#FFFFFF" cx="35.1946789" cy="53.0482846" rx="1" ry="1"></ellipse>
            <ellipse id="Oval-7-Copy-7" fill="#FFFFFF" cx="71.5964441" cy="78.2597605" rx="1" ry="1"></ellipse>
        </g>
    </g>
</svg>