<?xml version="1.0" encoding="UTF-8"?>
<svg width="120px" height="120px" viewBox="0 0 120 120" version="1.1" xmlns="http://www.w3.org/2000/svg" xmlns:xlink="http://www.w3.org/1999/xlink">
    <!-- Generator: Sketch 48.2 (47327) - http://www.bohemiancoding.com/sketch -->
    <title>Icon_dragon_small</title>
    <desc>Created with Sketch.</desc>
    <defs>
        <linearGradient x1="13.030363%" y1="-10.0752283%" x2="96.9406581%" y2="59.6783966%" id="linearGradient-1">
            <stop stop-color="#863699" offset="0%"></stop>
            <stop stop-color="#3C0045" offset="100%"></stop>
        </linearGradient>
        <linearGradient x1="32.5962276%" y1="18.6745326%" x2="79.5291473%" y2="76.9437825%" id="linearGradient-2">
            <stop stop-color="#F7D457" offset="0%"></stop>
            <stop stop-color="#DF128D" offset="100%"></stop>
        </linearGradient>
        <linearGradient x1="67.4250393%" y1="15.3923483%" x2="132.211806%" y2="-2.36529182%" id="linearGradient-3">
            <stop stop-color="#FFFFFF" stop-opacity="0" offset="0%"></stop>
            <stop stop-color="#FFE859" offset="100%"></stop>
        </linearGradient>
        <linearGradient x1="32.9151212%" y1="10.6773817%" x2="80.5730832%" y2="81.9573956%" id="linearGradient-4">
            <stop stop-color="#FEEB72" offset="0%"></stop>
            <stop stop-color="#DF128D" offset="100%"></stop>
        </linearGradient>
        <linearGradient x1="35.7086658%" y1="0%" x2="35.7086658%" y2="96.1950396%" id="linearGradient-5">
            <stop stop-color="#F7D457" offset="0%"></stop>
            <stop stop-color="#DF128D" offset="55.0660517%"></stop>
            <stop stop-color="#863699" offset="100%"></stop>
        </linearGradient>
        <linearGradient x1="50%" y1="19.8746566%" x2="50%" y2="107.886049%" id="linearGradient-6">
            <stop stop-color="#F7D457" offset="0%"></stop>
            <stop stop-color="#DF128D" offset="100%"></stop>
        </linearGradient>
        <linearGradient x1="100%" y1="50%" x2="0%" y2="38.9486159%" id="linearGradient-7">
            <stop stop-color="#863699" offset="0%"></stop>
            <stop stop-color="#3C0045" offset="100%"></stop>
        </linearGradient>
        <linearGradient x1="78.6166058%" y1="87.2202437%" x2="21.1985409%" y2="0%" id="linearGradient-8">
            <stop stop-color="#F7D457" offset="0%"></stop>
            <stop stop-color="#DF128D" offset="100%"></stop>
        </linearGradient>
        <linearGradient x1="-60.314375%" y1="87.6035761%" x2="37.9028639%" y2="34.3822081%" id="linearGradient-9">
            <stop stop-color="#FFEE70" offset="0%"></stop>
            <stop stop-color="#FF5948" stop-opacity="0" offset="100%"></stop>
        </linearGradient>
        <linearGradient x1="-35.1219349%" y1="0%" x2="67.9474229%" y2="64.8843358%" id="linearGradient-10">
            <stop stop-color="#F7D457" offset="0%"></stop>
            <stop stop-color="#DF128D" offset="65.2729586%"></stop>
            <stop stop-color="#863699" offset="100%"></stop>
        </linearGradient>
        <linearGradient x1="43.5457421%" y1="55.7512611%" x2="-165.335435%" y2="126.611432%" id="linearGradient-11">
            <stop stop-color="#FFEE70" stop-opacity="0" offset="0%"></stop>
            <stop stop-color="#F56459" stop-opacity="0.995148882" offset="99.5148882%"></stop>
            <stop stop-color="#F56458" offset="100%"></stop>
        </linearGradient>
        <linearGradient x1="36.1068536%" y1="9.0759615%" x2="64.346674%" y2="50%" id="linearGradient-12">
            <stop stop-color="#863699" offset="0%"></stop>
            <stop stop-color="#3C0045" offset="100%"></stop>
        </linearGradient>
        <linearGradient x1="36.2147361%" y1="69.1222863%" x2="106.686838%" y2="188.632579%" id="linearGradient-13">
            <stop stop-color="#FF5948" stop-opacity="0" offset="0%"></stop>
            <stop stop-color="#580013" offset="100%"></stop>
        </linearGradient>
        <linearGradient x1="-10.2219059%" y1="75.9834125%" x2="100%" y2="75.9834111%" id="linearGradient-14">
            <stop stop-color="#DF128D" offset="0%"></stop>
            <stop stop-color="#8D3398" offset="36.9645334%"></stop>
            <stop stop-color="#3C0045" offset="100%"></stop>
        </linearGradient>
        <linearGradient x1="33.3733736%" y1="72.8421453%" x2="215.644546%" y2="305.79535%" id="linearGradient-15">
            <stop stop-color="#FF5948" stop-opacity="0" offset="0%"></stop>
            <stop stop-color="#740F1C" offset="100%"></stop>
        </linearGradient>
        <linearGradient x1="8.30815637%" y1="41.8593049%" x2="105.372939%" y2="45.0719383%" id="linearGradient-16">
            <stop stop-color="#DF128D" offset="0%"></stop>
            <stop stop-color="#863699" offset="42.9318881%"></stop>
            <stop stop-color="#3C0045" offset="100%"></stop>
        </linearGradient>
        <linearGradient x1="5.65056061%" y1="94.1101958%" x2="60.6015374%" y2="-7.89356504%" id="linearGradient-17">
            <stop stop-color="#F7D457" offset="0%"></stop>
            <stop stop-color="#DF128D" offset="45.2366696%"></stop>
            <stop stop-color="#863699" offset="70.2486141%"></stop>
            <stop stop-color="#3C0045" offset="100%"></stop>
        </linearGradient>
        <linearGradient x1="36.616489%" y1="23.4976815%" x2="-9.82589431%" y2="-27.8797934%" id="linearGradient-18">
            <stop stop-color="#F3BD61" stop-opacity="0" offset="0%"></stop>
            <stop stop-color="#E0734B" offset="100%"></stop>
        </linearGradient>
        <linearGradient x1="16.9090249%" y1="100%" x2="100%" y2="67.7305823%" id="linearGradient-19">
            <stop stop-color="#DF128D" offset="0%"></stop>
            <stop stop-color="#863699" offset="36.4048734%"></stop>
            <stop stop-color="#3C0045" offset="100%"></stop>
        </linearGradient>
        <linearGradient x1="50%" y1="50%" x2="19.0813354%" y2="9.97652626%" id="linearGradient-20">
            <stop stop-color="#863699" offset="0%"></stop>
            <stop stop-color="#3C0045" offset="100%"></stop>
        </linearGradient>
        <linearGradient x1="-6.03643326%" y1="79.7506535%" x2="153.500375%" y2="0%" id="linearGradient-21">
            <stop stop-color="#F7D457" offset="0%"></stop>
            <stop stop-color="#DF128D" offset="30.9118769%"></stop>
            <stop stop-color="#863699" offset="57.1699114%"></stop>
            <stop stop-color="#3C0045" offset="100%"></stop>
        </linearGradient>
        <linearGradient x1="57.1649976%" y1="200.144071%" x2="38.7533009%" y2="61.4154235%" id="linearGradient-22">
            <stop stop-color="#FEE86F" offset="0%"></stop>
            <stop stop-color="#F85545" stop-opacity="0" offset="100%"></stop>
        </linearGradient>
        <linearGradient x1="92.1567897%" y1="57.6215218%" x2="41.7292047%" y2="44.0649392%" id="linearGradient-23">
            <stop stop-color="#E0148D" offset="0%"></stop>
            <stop stop-color="#F7D457" offset="100%"></stop>
        </linearGradient>
        <linearGradient x1="107.149996%" y1="117.139317%" x2="43.4702932%" y2="68.0893133%" id="linearGradient-24">
            <stop stop-color="#DF128D" offset="0%"></stop>
            <stop stop-color="#F7D457" offset="100%"></stop>
        </linearGradient>
        <linearGradient x1="29.4286012%" y1="65.212397%" x2="-113.855371%" y2="13.9887058%" id="linearGradient-25">
            <stop stop-color="#EF913F" stop-opacity="0" offset="0%"></stop>
            <stop stop-color="#FFEE70" offset="100%"></stop>
        </linearGradient>
        <linearGradient x1="69.6544217%" y1="61.686474%" x2="104.105616%" y2="107.387013%" id="linearGradient-26">
            <stop stop-color="#EF913F" stop-opacity="0" offset="0%"></stop>
            <stop stop-color="#FFEE70" offset="100%"></stop>
        </linearGradient>
        <linearGradient x1="68.1388421%" y1="74.7097185%" x2="22.5494423%" y2="58.1441274%" id="linearGradient-27">
            <stop stop-color="#DF128D" offset="0%"></stop>
            <stop stop-color="#F7D457" offset="100%"></stop>
        </linearGradient>
        <linearGradient x1="87.6506986%" y1="89.0363668%" x2="50%" y2="50%" id="linearGradient-28">
            <stop stop-color="#DF128D" offset="0%"></stop>
            <stop stop-color="#F7D457" offset="100%"></stop>
        </linearGradient>
        <linearGradient x1="92.7034161%" y1="89.8840677%" x2="64.4800861%" y2="57.863173%" id="linearGradient-29">
            <stop stop-color="#EF913F" offset="0%"></stop>
            <stop stop-color="#FFEE70" stop-opacity="0" offset="100%"></stop>
        </linearGradient>
    </defs>
    <g id="Page-1" stroke="none" stroke-width="1" fill="none" fill-rule="evenodd">
        <g id="Icon_dragon_small">
            <path d="M86.2550245,77.3543307 C87.297975,74.3279668 87.8641975,71.0803459 87.8641975,67.7007665 C87.8641975,51.312622 73.1524676,40.3622047 56.7283305,40.3622047 C48.3141263,40.3622047 41.3564702,43.8669342 36.7037037,47.1187622 C58.6096223,42.3684405 80.1511016,43.6359355 86.2550245,77.3543307 Z" id="Oval-3-Copy" stroke="#FFFFFF" stroke-width="1.21768363" fill="url(#linearGradient-1)" stroke-linejoin="round"></path>
            <path d="M39.0310143,77.3543307 C33.46997,78.6501611 29.3950617,83.4750015 29.3950617,89.3110042 C29.3950617,91.8762828 30.2906552,94.5583569 31.6324481,96.5354331 C31.3273752,91.1531593 34.8642954,86.9539674 38.1424094,85.3550665 C41.2092972,83.8591912 41.8113532,79.9452647 39.0310143,77.3543307 Z" id="Oval-Copy-11" stroke="#FFFFFF" stroke-width="1.21768363" fill="url(#linearGradient-2)" stroke-linejoin="round"></path>
            <path d="M37.4605839,78.2677165 C34.1239573,79.0698972 31.6790123,82.0567032 31.6790123,85.6694668 C31.6790123,87.2574964 32.2163684,88.917828 33.0214442,90.1417323 C32.8384004,86.8098485 34.9605526,84.2103488 36.9274209,83.220553 C38.7675536,82.2945349 39.1287873,79.871628 37.4605839,78.2677165 Z" id="Oval-Copy-14" fill="url(#linearGradient-3)"></path>
            <path d="M50.4074074,86.2487184 C48.4608928,84.8622617 46.0585705,84.2047244 43.4646911,84.2047244 C36.9556405,84.2047244 31.6790123,89.3567981 31.6790123,95.7122031 C31.6790123,95.9233661 31.6848375,96.1332006 31.6963394,96.3415619 C38.4718688,97.446092 44.349267,93.6045993 46.6700165,90.5511728 C48.4538676,88.2041474 49.4430065,87.1456262 50.4074074,86.2487184 Z" id="Oval-Copy-13" stroke="#FFFFFF" stroke-width="1.21768363" fill="url(#linearGradient-4)" stroke-linejoin="round"></path>
            <path d="M31.2297406,78.9049133 C34.1312577,78.9049133 36.8458887,78.2176181 39.4444444,77.3543307 C33.0881542,79.0421485 26.291006,86.4458214 32.0111269,96.5354331 C31.1104771,96.5354331 26.3628496,96.1102841 26.0016979,93.017682 C27.752206,88.8438543 27.2575316,81.8003498 25.2839506,78.1075124 C27.2055035,78.6433768 29.1351004,78.9049133 31.2297406,78.9049133 Z" id="Oval-Copy-19" stroke="#FFFFFF" stroke-width="1.21768363" fill="url(#linearGradient-5)" stroke-linejoin="round"></path>
            <path d="M26.3260716,93.7952756 C27.5318044,91.6792993 27.665547,90.2050048 27.5208302,85.6436056 C27.4256096,82.6423024 26.8671567,80.7670269 25.5021171,78.2677165 C23.3071082,79.6991458 22.5389029,81.9156798 23.2663671,84.3639716 C23.6338841,85.6008556 24.7619422,86.87147 25.3558053,88.5769228 C25.9496684,90.2823755 26.0612589,92.753116 26.3260716,93.7952756 Z" id="Oval-Copy-17" stroke="#FFFFFF" stroke-width="1.21768363" fill="url(#linearGradient-6)" stroke-linejoin="round"></path>
            <path d="M53.1481481,102.015748 C51.5297185,104.532205 50.5933396,107.512247 50.5933396,110.706624 C50.5933396,112.796003 50.993942,114.793684 51.7239784,116.629921 C48.084143,113.586312 46.4709501,111.119946 44.9259259,107.70602 C48.4825516,106.969417 50.6811633,105.72482 53.1481481,102.015748 Z" id="Oval-4-Copy-4" stroke="#FFFFFF" stroke-width="1.21768363" fill="url(#linearGradient-7)" stroke-linejoin="round"></path>
            <path d="M41.2716049,107.496063 C43.6512127,112.459665 48.5554738,116.293259 54.0617284,118 C49.4324969,115.007544 47.008515,111.458964 45.2009355,107.496063 C44.1958589,107.666 42.8684857,107.712627 41.2716049,107.496063 Z" id="Oval-4-Copy-2" stroke="#FFFFFF" stroke-width="1.21768363" fill="url(#linearGradient-8)" stroke-linejoin="round"></path>
            <path d="M42.1851852,107.496063 C44.139863,111.59643 48.1683632,114.763312 52.691358,116.173228 C48.888775,113.701199 46.897647,110.769763 45.4128496,107.496063 C44.587251,107.636446 43.4969086,107.674963 42.1851852,107.496063 Z" id="Oval-4-Copy-3" fill="url(#linearGradient-9)" transform="translate(47.438272, 111.834646) rotate(7.000000) translate(-47.438272, -111.834646) "></path>
            <path d="M47.2098765,89.6850394 C44.2744577,94.0210915 38.2531195,97.5508536 31.6790123,96.6818923 C31.9871976,102.004712 36.03953,106.467569 41.1201819,107.496063 C41.6536458,101.036356 44.0843257,94.5139806 47.2098765,89.6850394 Z" id="Oval-Copy-15" stroke="#FFFFFF" stroke-width="1.21768363" fill="url(#linearGradient-10)" stroke-linejoin="round"></path>
            <path d="M45.8395062,91.511811 C43.5084383,94.9160413 38.5765024,97.0050335 33.5061728,97.0050335 C33.7509081,101.183974 37.4060317,104.767901 41.4579119,104.755875 C41.881545,99.6843659 44.0590614,95.2767996 45.8395062,91.511811 Z" id="Oval-Copy-16" fill="url(#linearGradient-11)"></path>
            <path d="M69.0663677,89.5886704 C70.0248148,89.5886704 70.9569416,89.5662186 71.8765432,89.4266418 C64.678644,90.677846 58.0479016,94.7455665 54.1778528,101.135945 C50.8492855,106.632208 47.1357273,108.459861 41.2716049,107.836121 C41.7311159,96.5147134 47.4711969,87.8324764 54.711781,82.8346457 C58.3435628,86.923015 63.3046375,89.5886704 69.0663677,89.5886704 Z" id="Oval-Copy-20" stroke="#FFFFFF" stroke-width="1.21768363" fill="url(#linearGradient-12)" stroke-linejoin="round"></path>
            <path d="M66.6192273,88.3951748 C67.4775382,88.3951748 68.3122786,88.3751723 69.1358025,88.250822 C62.6899226,89.3655312 56.7519443,92.9895004 53.286229,98.6827469 C50.3054224,103.579418 46.979848,105.20769 41.7283951,104.651994 C42.1398974,94.5656494 47.2802684,86.8305655 53.7643736,82.3779528 C57.0167155,86.0203182 61.459469,88.3951748 66.6192273,88.3951748 Z" id="Oval-Copy-21" fill="url(#linearGradient-13)"></path>
            <path d="M68.8962523,89.2283465 C79.119681,89.2283465 87.4074074,81.0219718 87.4074074,70.8988956 C87.4074074,64.3978355 83.9893547,58.687268 78.8356412,55.4330709 C77.778005,62.0592945 73.6361275,71.5587566 63.4237037,77.5332551 C59.5566785,79.7955522 57.5247517,80.3739431 54.5185185,82.5528105 C57.9135098,86.6422572 63.1326716,89.2283465 68.8962523,89.2283465 Z" id="Oval-Copy-24" stroke="#FFFFFF" stroke-width="1.21768363" fill="url(#linearGradient-14)" stroke-linejoin="round"></path>
            <path d="M66.557372,85.5748031 C74.7929117,85.5748031 81.4691358,78.9209858 81.4691358,70.7130862 C81.4691358,65.4419564 78.7157045,60.8117666 74.5641019,58.1732283 C73.7121172,63.5458421 70.3756048,71.2481086 62.1489301,76.0922967 C59.0338264,77.9265916 57.3969965,78.3955572 54.9753086,80.1622064 C57.7101628,83.477974 61.9144875,85.5748031 66.557372,85.5748031 Z" id="Oval-Copy-29" fill="url(#linearGradient-15)"></path>
            <path d="M38.5308642,85.5748031 C52.2104959,79.9024063 64.9749127,68.4704493 70.5061728,55.8897638 C64.0220135,68.898061 49.945329,70.6959019 40.9464088,66.6245423 C38.9563066,70.8060241 38.6882887,74.8073208 38.9625242,77.7719118 C40.4215694,78.8810312 41.8618562,83.2178317 38.5308642,85.5748031 Z" id="Oval-Copy-27" stroke="#FFFFFF" stroke-width="1.21768363" fill="url(#linearGradient-16)" stroke-linejoin="round"></path>
            <path d="M39.3304338,77.6624442 C38.5342247,56.3061149 60.0421887,49.7933445 70.6569169,55.8246118 C74.2013675,57.675762 77.9053242,57.2027506 78.9805261,55.5874673 C81.4410545,42.4620618 61.0196848,40.5277268 55.0439373,40.3622047 C49.4359493,41.0058248 45.1871528,42.0589794 38.4768067,45.7526384 C34.1215555,48.1499534 29.0250641,56.3266608 30.1290538,60.8023861 C31.7535595,67.388354 29.4176965,73.1807155 25.2839506,78.4047206 C28.7405371,79.634785 34.7609697,79.414678 39.3304338,77.6624442 Z" id="Oval-Copy-31" stroke="#FFFFFF" stroke-width="1.21768363" fill="url(#linearGradient-17)" stroke-linejoin="round"></path>
            <path d="M42.6526261,76.1286073 C42.0047065,58.891711 59.5069319,53.6351921 68.144726,58.5030852 C71.0290424,59.9971662 74.0431578,59.6153942 74.9181093,58.3116837 C76.9203781,47.7180442 59.0711304,45.0627283 54.2083326,44.9291339 C47.9803147,45.043807 42.9887368,46.718428 39.2295685,50.161642 C36.3356956,52.8122879 33.9729639,59.2871318 35.1649519,62.5206942 C37.0882864,67.7382147 34.586081,72.5113615 31.2222222,76.7277056 C34.0350387,77.7205023 38.9341992,77.5428518 42.6526261,76.1286073 Z" id="Oval-Copy-32" fill="url(#linearGradient-18)" transform="translate(53.148148, 61.141732) rotate(3.000000) translate(-53.148148, -61.141732) "></path>
            <path d="M38.9876543,85.3666001 C53.1703928,79.1140833 65.2728016,67.820662 70.8604027,56.0558382 C74.4350239,57.7715016 77.5930552,56.7541282 79.1851852,55.4330709 C78.4297559,62.1734721 73.8986131,71.9203137 63.7041967,77.9486115 C59.8439902,80.2312802 55.5174757,81.4070166 50.5482879,86.488189 C48.2754724,85.2182366 44.311622,83.7885877 38.9876543,85.3666001 Z" id="Oval-Copy-28" stroke="#FFFFFF" stroke-width="1.21768363" fill="url(#linearGradient-19)" stroke-linejoin="round"></path>
            <path d="M39.9012346,83.7426823 C38.7876933,83.1082888 37.767629,82.8346457 36.4920593,82.8346457 C34.0861651,82.8346457 32.1358025,84.7991752 32.1358025,87.2225452 C32.1358025,88.3434348 32.5530575,89.3661613 33.2396494,90.1417323 C34.4187175,88.1257903 36.5073768,86.1218321 38.6856652,85.2058821 C39.4255526,84.8470649 39.719497,84.2038822 39.9012346,83.7426823 Z" id="Oval-Copy-12" stroke="#FFFFFF" stroke-width="0.974146908" fill="url(#linearGradient-20)" stroke-linejoin="round"></path>
            <path d="M41.2816982,66.573807 C44.6841998,58.9952113 52.2266,53.6062992 61.1742167,53.6062992 C64.5020806,53.6062992 67.5690709,54.1266931 70.3990141,55.759108 C70.4220467,55.772394 70.4450627,55.7857106 70.468062,55.7990576 C67.0250132,63.3975343 59.4253642,68.6771654 50.6035611,68.6771654 C47.2687989,68.6771654 44.1086755,67.922736 41.2816982,66.573807 Z" id="Combined-Shape" stroke="#FFFFFF" stroke-width="1.21768363" fill="url(#linearGradient-21)" stroke-linejoin="round"></path>
            <path d="M48.5802464,60.7537494 C51.1363374,55.2420434 56.8024804,51.3228346 63.5242765,51.3228346 C66.0242967,51.3228346 68.3283385,51.7013029 70.4543014,52.8885138 C70.4716044,52.8981763 70.4888949,52.9078611 70.5061728,52.917568 C67.9196213,58.4437329 62.2104707,62.2834646 55.5831907,62.2834646 C53.0779882,62.2834646 50.7039813,61.7347886 48.5802464,60.7537494 Z" id="Combined-Shape-Copy" fill="url(#linearGradient-22)" transform="translate(59.543210, 56.803150) rotate(7.000000) translate(-59.543210, -56.803150) "></path>
            <path d="M57.2147153,17.4150686 C46.5259787,24.4271977 38.731663,36.7525127 34.8765432,49.0546107 C41.6765446,50.0206897 50.1234391,50.1626666 52.0379912,41.226849 C54.7182928,28.717037 59.7790961,22.2713147 62.4139356,17.6712305 C64.2813998,14.4108828 64.1067765,11.609768 64.1067765,9.76377953 C60.9652303,15.2884342 58.7064316,16.4364583 57.2147153,17.4150686 Z" id="Oval-2-Copy-10" stroke="#FFFFFF" stroke-width="1.21768363" fill="url(#linearGradient-23)" stroke-linejoin="round"></path>
            <path d="M50.3592618,25.6935299 C55.1517563,24.885984 59.0175819,23.3685613 61.5172767,19.3611717 C62.9726991,17.0279091 64.0981755,14.6482206 64.0981755,11.1061994 C64.0981755,10.7209799 64.1272807,10.1415833 64.0981755,9.76377953 C61.5172767,14.9178172 59.0374524,16.119667 56.4045008,18.1634022 C53.3601817,20.5264468 51.0026607,22.4957066 48.1234568,25.6935299 C48.6431032,25.7481251 49.8324964,25.782291 50.3592618,25.6935299 Z" id="Oval-2-Copy-12" stroke="#FFFFFF" stroke-width="1.21768363" fill="url(#linearGradient-24)" stroke-linejoin="round"></path>
            <path d="M56.1078376,24.3779528 C55.1145796,28.0175595 51.6271217,30.428984 50.9010309,30.7666765 C44.003132,33.9747724 39.3001764,39.5458858 36.1222101,46.0911445 C34.1377976,50.4697338 41.5695889,53.0864848 44.575617,51.9845579 C45.1379652,46.5690055 47.2059431,38.9369832 54.2694051,31.9075426 C56.3988301,29.7883742 56.6333511,26.2149507 56.1078376,24.3779528 Z" id="Oval-2-Copy-15" fill="url(#linearGradient-25)" transform="translate(46.067901, 38.307087) rotate(-21.000000) translate(-46.067901, -38.307087) "></path>
            <path d="M55.9693362,17.984252 C58.1777327,17.984252 60.1916795,17.1966018 61.7144419,15.9020376 C63.466173,14.4128174 64.5679012,12.6769741 64.5679012,9.84929173 C64.5679012,9.19065966 64.4851663,8.55029072 64.3289924,7.93700787 C63.3812918,10.9411208 61.1417909,12.9044904 59.1814343,14.0073271 C57.362626,15.0305331 55.7021765,15.7070708 53.1481481,17.6377979 C54.0318851,17.9280673 54.9811433,17.984252 55.9693362,17.984252 Z" id="Oval-2-Copy-17" fill="url(#linearGradient-26)" transform="translate(58.858025, 12.960630) rotate(-5.000000) translate(-58.858025, -12.960630) "></path>
            <path d="M94.3249325,4.28346457 C92.6915748,10.2500331 86.956644,14.2031879 85.7626281,14.7567822 C74.4194165,20.0159559 66.6856673,29.1489285 61.4596782,39.8788609 C58.1964222,47.0568761 70.4175901,51.3466319 75.3608364,49.5401943 C76.2855866,40.6622395 79.6862614,28.1507276 91.3017323,16.6270546 C94.8034533,13.1530078 95.1891101,7.29493656 94.3249325,4.28346457 Z" id="Oval-2-Copy-11" stroke="#FFFFFF" stroke-width="1.15679944" fill="url(#linearGradient-27)" stroke-linejoin="round" transform="translate(77.814815, 27.118110) rotate(-5.000000) translate(-77.814815, -27.118110) "></path>
            <path d="M88.9280168,14.7874016 C87.6478176,19.441325 83.1528718,22.5247858 82.2170215,22.9565894 C73.3263962,27.0587448 67.264809,34.1824635 63.1687635,42.5518107 C60.6110763,48.1506626 70.1898296,51.4966721 74.0642658,50.0876507 C74.7890701,43.162846 77.4544638,33.4038668 86.5584815,24.4154018 C89.3030737,21.7056453 89.6053452,17.1363497 88.9280168,14.7874016 Z" id="Oval-2-Copy-14" fill="url(#linearGradient-25)" transform="translate(75.987654, 32.598425) rotate(-12.000000) translate(-75.987654, -32.598425) "></path>
            <path d="M79.7008225,19.8110236 C83.3225927,19.8110236 86.6254655,18.5221416 89.1227958,16.4037637 C91.9956348,13.966858 93.8024691,11.1263871 93.8024691,6.49927051 C93.8024691,5.42150894 93.6667838,4.37363248 93.4106586,3.37007874 C91.8564297,8.28589995 88.1836483,11.4986865 84.9686634,13.3033284 C81.9858178,14.9776654 79.2626806,16.0847272 75.0740741,19.2440988 C76.5234027,19.7190851 78.0801862,19.8110236 79.7008225,19.8110236 Z" id="Oval-2-Copy-13" stroke="#FFFFFF" stroke-width="1.15679944" fill="url(#linearGradient-28)" stroke-linejoin="round" transform="translate(84.438272, 11.590551) rotate(-6.000000) translate(-84.438272, -11.590551) "></path>
            <path d="M82.1138207,16.1574803 C84.7638965,16.1574803 87.1806327,15.1908188 89.0079476,13.6020354 C91.1100249,11.7743561 92.4320988,9.64400296 92.4320988,6.17366548 C92.4320988,5.3653443 92.3328168,4.57943696 92.1454081,3.82677165 C91.0081675,7.51363756 88.3207664,9.92322747 85.9683385,11.2767089 C83.7857685,12.5324617 81.7932291,13.362758 78.7283951,15.7322867 C79.7888794,16.0885264 80.9279893,16.1574803 82.1138207,16.1574803 Z" id="Oval-2-Copy-16" fill="url(#linearGradient-29)" transform="translate(85.580247, 9.992126) rotate(-5.000000) translate(-85.580247, -9.992126) "></path>
            <ellipse id="Oval-7" fill="#FFFFFF" cx="80.1188234" cy="62.3234467" rx="1" ry="1"></ellipse>
            <ellipse id="Oval-7-Copy-4" fill="#FFFFFF" cx="40.5812457" cy="90.2969168" rx="1" ry="1"></ellipse>
            <ellipse id="Oval-7-Copy-8" fill="#FFFFFF" cx="70.720228" cy="82.1037251" rx="1" ry="1"></ellipse>
            <ellipse id="Oval-7-Copy-2" fill="#FFFFFF" cx="71.0676814" cy="39.4158076" rx="1" ry="1"></ellipse>
            <ellipse id="Oval-7-Copy-3" fill="#FFFFFF" cx="46.9666233" cy="74.6786451" rx="1" ry="1"></ellipse>
            <ellipse id="Oval-7-Copy-10" fill="#FFFFFF" cx="47.3460125" cy="101.443387" rx="1" ry="1"></ellipse>
            <ellipse id="Oval-7-Copy-9" fill="#FFFFFF" cx="56.6729907" cy="44.9789198" rx="1" ry="1"></ellipse>
            <ellipse id="Oval-7-Copy-11" fill="#FFFFFF" cx="55.9918837" cy="89.6380218" rx="1" ry="1"></ellipse>
            <ellipse id="Oval-7-Copy-5" fill="#FFFFFF" cx="35.2181219" cy="55.4764467" rx="1" ry="1"></ellipse>
            <ellipse id="Oval-7-Copy-6" fill="#FFFFFF" cx="29.2681325" cy="81.0045518" rx="1" ry="1"></ellipse>
            <ellipse id="Oval-7-Copy" fill="#FFFFFF" cx="48.8268085" cy="31.2247731" rx="1" ry="1"></ellipse>
            <ellipse id="Oval-7-Copy-7" fill="#FFFFFF" cx="55.4676012" cy="60.9250932" rx="1" ry="1"></ellipse>
        </g>
    </g>
</svg>