<?xml version="1.0" encoding="UTF-8"?>
<svg width="120px" height="120px" viewBox="0 0 120 120" version="1.1" xmlns="http://www.w3.org/2000/svg" xmlns:xlink="http://www.w3.org/1999/xlink">
    <!-- Generator: Sketch 48.2 (47327) - http://www.bohemiancoding.com/sketch -->
    <title>Icon_gallo_small</title>
    <desc>Created with Sketch.</desc>
    <defs>
        <linearGradient x1="0%" y1="-5.24553966%" x2="72.9507619%" y2="109.795864%" id="linearGradient-1">
            <stop stop-color="#DF128D" offset="0%"></stop>
            <stop stop-color="#953097" offset="37.414576%"></stop>
            <stop stop-color="#3C0045" offset="100%"></stop>
        </linearGradient>
        <linearGradient x1="110.444675%" y1="-130.563049%" x2="50%" y2="69.557738%" id="linearGradient-2">
            <stop stop-color="#DBDFFF" offset="0%"></stop>
            <stop stop-color="#034135" stop-opacity="0" offset="100%"></stop>
        </linearGradient>
        <linearGradient x1="23.9390168%" y1="-41.1483079%" x2="106.466903%" y2="76.043556%" id="linearGradient-3">
            <stop stop-color="#78C1FF" offset="0%"></stop>
            <stop stop-color="#14382F" offset="100%"></stop>
        </linearGradient>
        <linearGradient x1="-4.88236271%" y1="122.512263%" x2="27.6646758%" y2="45.1890149%" id="linearGradient-4">
            <stop stop-color="#863699" offset="0%"></stop>
            <stop stop-color="#3C0045" offset="100%"></stop>
        </linearGradient>
        <linearGradient x1="67.6395095%" y1="-21.9719305%" x2="112.560278%" y2="60.4599135%" id="linearGradient-5">
            <stop stop-color="#863699" offset="0%"></stop>
            <stop stop-color="#3C0045" offset="100%"></stop>
        </linearGradient>
        <linearGradient x1="86.5722088%" y1="22.1979364%" x2="285.422393%" y2="136.131609%" id="linearGradient-6">
            <stop stop-color="#FFF1DB" stop-opacity="0" offset="0%"></stop>
            <stop stop-color="#3D0707" offset="100%"></stop>
        </linearGradient>
        <linearGradient x1="93.1227414%" y1="82.2797396%" x2="11.6405486%" y2="86.9943872%" id="linearGradient-7">
            <stop stop-color="#863699" offset="0%"></stop>
            <stop stop-color="#DF128D" offset="30.0699966%"></stop>
            <stop stop-color="#F7D457" offset="100%"></stop>
        </linearGradient>
        <linearGradient x1="81.1914816%" y1="191.959809%" x2="50%" y2="68.4537243%" id="linearGradient-8">
            <stop stop-color="#861919" offset="0%"></stop>
            <stop stop-color="#CF5656" stop-opacity="0" offset="100%"></stop>
        </linearGradient>
        <linearGradient x1="93.0547076%" y1="78.4781231%" x2="-4.40548045%" y2="56.6925517%" id="linearGradient-9">
            <stop stop-color="#3C0045" offset="0%"></stop>
            <stop stop-color="#863699" offset="55.5164633%"></stop>
            <stop stop-color="#F7D457" offset="100%"></stop>
        </linearGradient>
        <linearGradient x1="-50.3570923%" y1="271.480249%" x2="46.7618913%" y2="65.5034153%" id="linearGradient-10">
            <stop stop-color="#391111" offset="0%"></stop>
            <stop stop-color="#FF8888" stop-opacity="0" offset="100%"></stop>
        </linearGradient>
        <linearGradient x1="114.019221%" y1="109.281259%" x2="0%" y2="39.7999633%" id="linearGradient-11">
            <stop stop-color="#3C0045" offset="0%"></stop>
            <stop stop-color="#DF128D" offset="55.5164633%"></stop>
            <stop stop-color="#F7D457" offset="100%"></stop>
        </linearGradient>
        <linearGradient x1="-189.021781%" y1="443.592887%" x2="60.2889433%" y2="80.5464701%" id="linearGradient-12">
            <stop stop-color="#17484B" offset="0%"></stop>
            <stop stop-color="#88EFFF" stop-opacity="0" offset="100%"></stop>
        </linearGradient>
        <linearGradient x1="117.836977%" y1="106.60929%" x2="7.96313117%" y2="25.2865548%" id="linearGradient-13">
            <stop stop-color="#3C0045" offset="0%"></stop>
            <stop stop-color="#DF128D" offset="55.5164633%"></stop>
            <stop stop-color="#F7D457" offset="100%"></stop>
        </linearGradient>
        <linearGradient x1="-21.4451824%" y1="179.433045%" x2="50%" y2="71.3422032%" id="linearGradient-14">
            <stop stop-color="#893737" offset="0%"></stop>
            <stop stop-color="#FF8888" stop-opacity="0" offset="100%"></stop>
        </linearGradient>
        <linearGradient x1="16.3196395%" y1="119.296403%" x2="70.7779765%" y2="0%" id="linearGradient-15">
            <stop stop-color="#3C0045" offset="0%"></stop>
            <stop stop-color="#DF128D" offset="41.4231942%"></stop>
            <stop stop-color="#F7D457" offset="100%"></stop>
        </linearGradient>
        <linearGradient x1="16.7495597%" y1="100%" x2="100%" y2="42.4723607%" id="linearGradient-16">
            <stop stop-color="#3C0045" offset="0%"></stop>
            <stop stop-color="#DF128D" offset="100%"></stop>
        </linearGradient>
        <linearGradient x1="39.2027897%" y1="0%" x2="87.7032139%" y2="94.2755281%" id="linearGradient-17">
            <stop stop-color="#DF128D" offset="0%"></stop>
            <stop stop-color="#863699" offset="42.9318881%"></stop>
            <stop stop-color="#3C0045" offset="100%"></stop>
        </linearGradient>
        <linearGradient x1="165.078688%" y1="-169.229437%" x2="66.3847431%" y2="26.3429628%" id="linearGradient-18">
            <stop stop-color="#DBDFFF" offset="0%"></stop>
            <stop stop-color="#073D32" stop-opacity="0" offset="100%"></stop>
        </linearGradient>
        <linearGradient x1="41.6944244%" y1="23.2811049%" x2="86.0444091%" y2="70.7474009%" id="linearGradient-19">
            <stop stop-color="#DF128D" offset="0%"></stop>
            <stop stop-color="#F7D457" offset="100%"></stop>
        </linearGradient>
        <linearGradient x1="-90.9525901%" y1="-133.18688%" x2="59.337627%" y2="26.7205016%" id="linearGradient-20">
            <stop stop-color="#6C2525" offset="0%"></stop>
            <stop stop-color="#F6DC81" stop-opacity="0" offset="100%"></stop>
        </linearGradient>
        <linearGradient x1="21.8446568%" y1="9.84327982%" x2="81.0908651%" y2="39.1462672%" id="linearGradient-21">
            <stop stop-color="#F7D457" offset="0%"></stop>
            <stop stop-color="#DF128D" offset="100%"></stop>
        </linearGradient>
        <linearGradient x1="-12.2797533%" y1="-19.5854541%" x2="43.4973836%" y2="58.9449362%" id="linearGradient-22">
            <stop stop-color="#FF8500" offset="0%"></stop>
            <stop stop-color="#FDFF8E" stop-opacity="0" offset="100%"></stop>
        </linearGradient>
        <linearGradient x1="23.0024717%" y1="33.0868535%" x2="80.6726974%" y2="21.9326763%" id="linearGradient-23">
            <stop stop-color="#863699" offset="0%"></stop>
            <stop stop-color="#3C0045" offset="100%"></stop>
        </linearGradient>
        <linearGradient x1="37.8260593%" y1="-7.28757503%" x2="106.680361%" y2="50%" id="linearGradient-24">
            <stop stop-color="#DF128D" offset="0%"></stop>
            <stop stop-color="#863699" offset="33.4068268%"></stop>
            <stop stop-color="#3C0045" offset="100%"></stop>
        </linearGradient>
        <linearGradient x1="0%" y1="18.8150157%" x2="100%" y2="64.3908147%" id="linearGradient-25">
            <stop stop-color="#F7D457" offset="0%"></stop>
            <stop stop-color="#DF128D" offset="33.1677667%"></stop>
            <stop stop-color="#3C0045" offset="100%"></stop>
        </linearGradient>
        <linearGradient x1="-115.193315%" y1="-35.7580754%" x2="24.9225201%" y2="35.6663933%" id="linearGradient-26">
            <stop stop-color="#FFC878" offset="0%"></stop>
            <stop stop-color="#FF0000" stop-opacity="0" offset="100%"></stop>
        </linearGradient>
        <linearGradient x1="-15.5821186%" y1="43.8367878%" x2="90.6900758%" y2="85.9740119%" id="linearGradient-27">
            <stop stop-color="#E33085" offset="0%"></stop>
            <stop stop-color="#863699" offset="100%"></stop>
        </linearGradient>
        <linearGradient x1="73.0762321%" y1="58.2727521%" x2="-106.00042%" y2="175.033528%" id="linearGradient-28">
            <stop stop-color="#FFF365" stop-opacity="0" offset="0%"></stop>
            <stop stop-color="#721313" offset="100%"></stop>
        </linearGradient>
    </defs>
    <g id="Page-1" stroke="none" stroke-width="1" fill="none" fill-rule="evenodd">
        <g id="Icon_gallo_small">
            <path d="M78.2889227,72.6028351 C83.2643358,72.8915986 86.4041769,73.4168863 89.9786115,74.7818292 C89.5810764,60.5884663 80.7636532,48.5508273 68.3722721,43.4657685 C69.7003413,46.4138081 72.2224877,51.9074937 71.4114395,55.2291989 C78.5761144,57.6288181 81.4056342,64.1539026 78.2889227,72.6028351 Z" id="Oval-18-Copy-45" stroke="#FFFFFF" stroke-width="1.03658537" fill="url(#linearGradient-1)" stroke-linejoin="round"></path>
            <path d="M75.8874258,67.9317874 C79.2263994,68.1255751 81.3335303,68.4780929 83.7323146,69.3940989 C83.4655309,59.8690075 77.5482044,51.7906111 69.2324136,48.3780549 C70.1236738,50.3564688 71.8162731,54.0432524 71.2719829,56.2724313 C76.0801586,57.8828031 77.9790345,62.2617531 75.8874258,67.9317874 Z" id="Oval-18-Copy-46" fill-opacity="0.5" fill="url(#linearGradient-2)" transform="translate(76.482364, 58.886077) rotate(-6.000000) translate(-76.482364, -58.886077) "></path>
            <path d="M59.7692209,97.425291 C62.0719628,96.7169322 65.1997135,94.9070445 66.7194188,91.1987158 C67.9603957,88.2440988 68.6465378,84.9962688 68.6465378,81.5872755 C68.6465378,78.242394 68.0017017,75.053848 66.8045857,72.1440221 C63.8723034,71.5546633 59.7692209,72.0305778 56.7040025,73.4638883 C52.2035377,82.9050746 54.6828827,91.7447667 59.7692209,97.425291 Z" id="Oval-18-Copy-18" fill="url(#linearGradient-3)"></path>
            <path d="M56.6989935,73.5172734 C52.1641509,83.465056 55.2049219,91.8820089 59.7771977,97.432725 C51.5508324,99.6693878 46.3306982,93.906027 44.5297943,86.5722177 C43.0367728,80.1867916 43.3955231,71.0904731 51.674992,67.3627523 C56.907874,66.765525 62.3579221,68.5478005 66.6463702,72.0844901 C65.934996,72.0111242 65.213083,71.973532 64.4824391,71.973532 C61.7238982,71.973532 59.0999915,72.525497 56.6989935,73.5172734 Z" id="Combined-Shape" stroke="#FFFFFF" stroke-width="1.03658537" fill="url(#linearGradient-4)" stroke-linejoin="round"></path>
            <path d="M42.1402407,108.175965 C42.1303947,107.833933 42.1254378,107.49067 42.1254378,107.146241 C42.1254378,87.8542655 57.6767352,72.2150289 76.8602326,72.2150289 C81.5013134,72.2150289 85.9297996,73.1304022 89.9769124,74.7914158 C89.9867584,75.1334472 89.9917153,75.4767111 89.9917153,75.8211392 C89.9917153,95.1131152 74.440418,110.752352 55.2569205,110.752352 C50.6158397,110.752352 46.1873535,109.836978 42.1402407,108.175965 Z" id="Combined-Shape" stroke="#FFFFFF" stroke-width="1.03658537" fill="url(#linearGradient-5)" stroke-linejoin="round"></path>
            <path d="M52.397709,97.7933202 C52.3909755,97.5594138 52.3875856,97.3246644 52.3875856,97.0891189 C52.3875856,83.895833 63.0227177,73.2005615 76.141818,73.2005615 C79.3157338,73.2005615 82.3442615,73.8265618 85.1119778,74.9624862 C85.1187112,75.1963927 85.1221011,75.431142 85.1221011,75.6666876 C85.1221011,88.8599735 74.486969,99.5552449 61.3678688,99.5552449 C58.193953,99.5552449 55.1654253,98.9292447 52.397709,97.7933202 Z" id="Combined-Shape-Copy-2" fill="url(#linearGradient-6)"></path>
            <path d="M43.1051343,66.4710716 C47.7813153,66.4710716 52.0113056,63.9860245 54.3306476,60.2796417 C44.6745047,60.0979128 33.9683922,52.6699199 32.4635914,40.1489514 C32.5489083,42.3108613 31.6453685,46.7268037 31.0671953,48.0740152 C30.3804855,49.6741299 30,51.4382954 30,53.2918306 C30,60.5705244 35.8673685,66.4710716 43.1051343,66.4710716 Z" id="Oval-18-Copy-30" stroke="#FFFFFF" stroke-width="1.03658537" fill="url(#linearGradient-7)" stroke-linejoin="round"></path>
            <path d="M45.0236725,63.4391775 C49.6998535,63.4391775 53.9298439,60.9541303 56.2491859,57.2477475 C46.5930429,57.0660187 35.8869304,49.6380258 34.3821297,37.1170572 C34.4674465,39.2789672 33.5639068,43.6949096 32.9857336,45.0421211 C32.2990238,46.6422358 31.9185383,48.4064013 31.9185383,50.2599365 C31.9185383,57.5386303 37.7859067,63.4391775 45.0236725,63.4391775 Z" id="Oval-18-Copy-32" fill="url(#linearGradient-8)"></path>
            <path d="M62.3511466,46.161275 C58.6337623,48.0077068 55.6117663,51.9724401 54.4774624,56.3677219 C54.1640698,57.5820778 53.8891278,58.7783185 52.331713,61.4598705 C41.711568,61.1664788 32.0498539,53.7724269 30.5450532,41.2514583 C30.63037,43.4133683 30.0144499,37.2584763 31.1501973,32.9541806 C33.9233947,40.3357996 39.7542019,46.6524796 47.3155177,48.0883564 C53.1580312,49.1978365 58.3251313,48.1243731 62.3511466,46.161275 Z" id="Oval-18-Copy-31" stroke="#FFFFFF" stroke-width="1.03658537" fill="url(#linearGradient-9)" stroke-linejoin="round"></path>
            <path d="M61.1178983,45.52149 C58.0343674,47.0530856 55.5276537,50.3417899 54.5867607,53.9876295 C54.3268049,54.9949249 54.0987434,55.9871939 52.8068843,58.2115128 C43.9975865,57.9681475 35.9832971,51.8348598 34.7350808,41.4488491 C34.8058502,43.2421305 34.294951,38.1367128 35.2370415,34.5663451 C37.5373793,40.6893198 42.3739721,45.928939 48.6460035,47.1199836 C53.4923065,48.0402856 57.7783613,47.1498591 61.1178983,45.52149 Z" id="Oval-18-Copy-35" fill="url(#linearGradient-10)" transform="translate(47.888603, 46.388929) rotate(-17.000000) translate(-47.888603, -46.388929) "></path>
            <path d="M36.4080853,32.583945 C35.7389309,30.5127047 35.3770337,28.307994 35.3770337,26.0289756 C35.3770337,23.2139554 35.9291779,20.5286247 36.9304963,18.0765355 C37.7871017,21.9244007 40.4589981,25.3229672 41.878482,26.3555145 C43.0198798,27.1857791 44.7512025,26.5033795 44.9852451,25.0694203 C44.0337571,34.9483431 51.4089463,45.2940571 63.1349564,45.7902129 C63.3556017,45.7119817 63.5745459,45.630118 63.7917156,45.5446941 C55.0224977,50.7290002 38.3381881,51.2892621 31.3630442,33.6111992 C31.721856,35.1647222 33.2034552,35.9266667 34.4261692,35.677279 C35.8669115,35.3834218 36.6392906,33.9896393 36.4080853,32.583945 Z" id="Combined-Shape" stroke="#FFFFFF" stroke-width="1.03658537" fill="url(#linearGradient-11)" stroke-linejoin="round"></path>
            <path d="M59.4883412,46.9767268 C61.5647531,46.9767268 63.5581604,46.383699 65.4110559,45.7267425 C55.3864875,45.3025788 49.0814368,36.4580258 49.8948641,28.0125328 C49.6947811,29.2384248 48.2146729,29.8218084 47.2388917,29.112015 C46.0253746,28.2292901 43.7411699,25.3238549 43.0088577,22.0343142 C42.1528304,24.1306057 41.6808023,26.4262955 41.6808023,28.8328568 C41.6808023,38.7233028 49.653509,46.9767268 59.4883412,46.9767268 Z" id="Oval-18-Copy-39" fill="url(#linearGradient-12)" transform="translate(53.545929, 34.505520) rotate(-4.000000) translate(-53.545929, -34.505520) "></path>
            <path d="M60.3116459,28.7890626 C58.2958345,26.9750966 53.0750298,18.5886163 56.4664544,9 C49.6454319,11.9109843 44.8612773,18.7085082 44.8612773,26.6297499 C44.8612773,37.0040004 53.1274551,46.0662865 63.3532041,45.87801 C60.9822712,42.6671008 58.5960697,35.452442 60.3116459,28.7890626 Z" id="Oval-18-Copy-36" stroke="#FFFFFF" stroke-width="1.03658537" fill="url(#linearGradient-13)" stroke-linejoin="round"></path>
            <path d="M64.0610555,31.6227721 C62.4757065,30.1961659 58.3697682,23.6005599 61.0369777,16.0595256 C55.6725369,18.3488895 51.9100051,23.6948497 51.9100051,29.9245656 C51.9100051,38.0834674 58.4109984,45.2105656 66.4531102,45.0624942 C64.5884734,42.5372523 62.7118285,36.8632335 64.0610555,31.6227721 Z" id="Path" fill="url(#linearGradient-14)" transform="translate(59.181558, 30.562143) rotate(10.000000) translate(-59.181558, -30.562143) "></path>
            <path d="M70.7863791,15.6445742 C72.7941991,18.9527306 73.9510824,22.8402964 73.9510824,26.9995947 C73.9510824,35.1255721 69.5353712,42.2143729 62.9854071,45.9716376 C62.8906541,45.8329636 62.7976772,45.6930872 62.7065118,45.552036 C60.5901457,42.2775885 59.6348106,38.3699783 59.6348106,34.1735999 C59.6348106,26.1249955 64.1574223,19.138677 70.7863791,15.6445742 Z" id="Combined-Shape" stroke="#FFFFFF" stroke-width="1.03658537" fill="url(#linearGradient-15)" stroke-linejoin="round"></path>
            <path d="M64.1706344,45.7726704 C74.6835293,45.7726704 83.2059145,37.202093 83.2059145,26.6297499 C83.2059145,25.4577678 83.101187,24.3103845 82.90063,23.1965481 C80.8878427,27.6962408 77.0219925,31.0842987 73.2556713,32.1959283 C71.7566125,37.701532 68.1705605,42.7595114 63.305428,45.7726704 C63.7021905,45.7974866 63.7676545,45.7726704 64.1706344,45.7726704 Z" id="Oval-18-Copy-41" stroke="#FFFFFF" stroke-width="1.03658537" fill="url(#linearGradient-16)" stroke-linejoin="round"></path>
            <path d="M74.5473623,72.8631558 C75.8392271,75.988987 76.4316361,78.9182546 76.6879875,82.3913357 C80.2238336,79.4988923 82.434898,75.137266 82.434898,70.1962792 C82.434898,63.2505788 78.0150745,57.3661913 71.6910728,55.2143122 C70.6571927,58.6665927 67.2438113,66.5596381 56.6444454,67.141716 C64.043281,66.5054683 70.5864654,69.946765 74.5473623,72.8631558 Z" id="Oval-18-Copy-19" stroke="#FFFFFF" stroke-width="1.03658537" fill="url(#linearGradient-17)" stroke-linejoin="round"></path>
            <path d="M70.2784732,72.574054 C71.3456627,75.1562548 71.8350426,77.5760772 72.0468105,80.4451357 C74.9677181,78.0557331 76.7942441,74.4526612 76.7942441,70.3709886 C76.7942441,64.6332532 73.1430965,59.7722519 67.9189368,57.9946179 C67.0648644,60.8464934 64.2451229,67.3668158 55.4891511,67.8476613 C61.6012145,67.322067 67.0064376,70.1648688 70.2784732,72.574054 Z" id="Oval-18-Copy-22" fill="url(#linearGradient-18)" transform="translate(66.141698, 69.219877) rotate(6.000000) translate(-66.141698, -69.219877) "></path>
            <path d="M69.0848562,60.7791323 C73.3239825,54.7880472 72.3988555,48.8745217 70.5442394,44.5631134 C70.1459242,44.5323398 69.7433983,44.5145415 69.3372445,44.5166687 C60.4695087,44.5631134 55.4581135,50.4061023 54.0364031,57.1928462 C53.6539052,59.0187564 52.3893333,62.5026418 48.8348794,65.0995489 C55.8096658,69.3097147 64.8457299,66.7702175 69.0848562,60.7791323 Z" id="Oval-18-Copy-13" stroke="#FFFFFF" stroke-width="1.03658537" fill="url(#linearGradient-19)" stroke-linejoin="round"></path>
            <path d="M70.58829,60.6182383 C74.3631077,55.2833527 73.5393092,50.0175317 71.8878279,46.178349 C71.5331399,46.150946 71.1747076,46.1369914 70.8130344,46.1369914 C63.6250996,46.1369914 58.4540752,51.3813592 57.1880838,57.4247557 C56.8474806,59.0506752 55.7214165,62.152973 52.5562795,64.4654426 C58.7671223,68.2144717 66.8134723,65.953124 70.58829,60.6182383 Z" id="Oval-18-Copy-15" fill="url(#linearGradient-20)" transform="translate(62.916576, 56.228737) rotate(19.000000) translate(-62.916576, -56.228737) "></path>
            <path d="M38.5505166,65.666341 C41.5291623,66.7150819 45.6719473,66.7712032 48.8499746,65.0924289 C50.4392907,66.0447744 53.7558106,66.9144105 56.572879,67.155311 C47.9757239,67.746798 39.6787673,73.629058 36.4905614,80.6906643 C36.0304915,81.4613356 35.0328719,81.1620679 34.8997313,80.4632244 C34.2892882,76.2149491 35.9068388,68.7402924 38.5505166,65.666341 Z" id="Oval-18-Copy-11" stroke="#FFFFFF" stroke-width="1.03658537" fill="url(#linearGradient-21)" stroke-linejoin="round"></path>
            <path d="M39.9822627,68.0288899 C42.8538475,68.1267473 44.2913054,67.2253456 47.0567976,65.7644906 C48.4398069,66.5932136 53.1008973,68.9665847 55.5522862,69.1762142 C48.0711152,69.6909211 40.8511745,74.8096135 38.0768249,80.954563 C37.676476,81.6251946 36.808356,81.3647745 36.6924981,80.7566468 C36.1612958,77.0598339 37.6817569,70.7038161 39.9822627,68.0288899 Z" id="Oval-18-Copy-14" fill="url(#linearGradient-22)" transform="translate(46.069347, 73.557318) rotate(10.000000) translate(-46.069347, -73.557318) "></path>
            <path d="M56.7342739,67.1230041 C54.2674626,68.4512511 51.6943638,70.3774991 49.9204841,72.9871734 C44.9033569,73.7066177 40.0769424,76.3958621 37.385164,78.9808352 C40.7999411,72.7635276 48.8088091,67.3526471 56.7342739,67.1230041 Z" id="Oval-18-Copy-12" stroke="#FFFFFF" stroke-width="1.03658537" fill="url(#linearGradient-23)" stroke-linejoin="round"></path>
            <path d="M66.3946393,102.338533 C69.1133575,101.502214 72.8061174,99.365381 74.6003483,94.9871651 C76.0655001,91.4988145 76.8755896,87.6642838 76.8755896,83.6394765 C76.8755896,79.6903625 76.1142678,75.925825 74.7009,72.4903567 C71.2389188,71.7945338 66.3946393,72.3564193 62.7757078,74.0486487 C57.4622614,85.195328 60.3894849,95.6318568 66.3946393,102.338533 Z" id="Oval-18-Copy-18" stroke="#FFFFFF" stroke-width="1.03658537" fill="url(#linearGradient-24)" stroke-linejoin="round"></path>
            <path d="M56.7823176,67.1162749 C62.8987289,66.5060739 69.2906676,68.5354624 74.3537979,72.7110335 C73.5139182,72.6244144 72.6615959,72.5800315 71.7989657,72.5800315 C60.7855567,72.5800315 51.5898452,80.0321062 48.2419967,89.8158811 C46.4792699,82.2769665 47.007213,71.5173859 56.7823176,67.1162749 Z" id="Oval-18-Copy-16" stroke="#FFFFFF" stroke-width="1.03658537" fill="url(#linearGradient-25)" stroke-linejoin="round"></path>
            <path d="M58.5426169,67.1783958 C63.598671,66.6739809 68.8824864,68.3515492 73.0678591,71.8032323 C72.3735832,71.7316298 71.6690217,71.6949412 70.9559394,71.6949412 C61.8518439,71.6949412 54.2503251,77.8551047 51.4828684,85.9427386 C50.0257326,79.7107901 50.4621501,70.8165186 58.5426169,67.1783958 Z" id="Oval-18-Copy-20" fill="url(#linearGradient-26)"></path>
            <path d="M66.243751,102.638273 C60.8360594,96.0733671 57.2428738,86.1125828 62.6377237,74.3408655 C55.8289519,77.070862 50.5089575,82.7535677 48.2419967,89.8158811 C50.368223,98.4744985 56.5313427,105.278976 66.243751,102.638273 Z" id="Oval-18-Copy-17" stroke="#FFFFFF" stroke-width="1.03658537" fill="url(#linearGradient-27)" stroke-linejoin="round"></path>
            <path d="M65.8928317,99.0825094 C61.5326041,93.7892186 58.6354147,85.7578275 62.9852879,76.2662792 C57.4953679,78.4674783 53.2058507,83.04945 51.3779977,88.7438009 C53.0923763,95.7252535 58.0617063,101.211711 65.8928317,99.0825094 Z" id="Oval-18-Copy-21" fill="url(#linearGradient-28)" transform="translate(58.635415, 87.906782) rotate(8.000000) translate(-58.635415, -87.906782) "></path>
            <ellipse id="Oval-7" fill="#FFFFFF" cx="69.2830622" cy="23.9949678" rx="1" ry="1"></ellipse>
            <ellipse id="Oval-7-Copy-4" fill="#FFFFFF" cx="67.1574231" cy="79.4252519" rx="1" ry="1.00300361"></ellipse>
            <ellipse id="Oval-7-Copy-8" fill="#FFFFFF" cx="62.9349602" cy="53.8504129" rx="1" ry="1.00300361"></ellipse>
            <ellipse id="Oval-7-Copy-2" fill="#FFFFFF" cx="38.6206677" cy="41.2967631" rx="1" ry="1"></ellipse>
            <ellipse id="Oval-7-Copy-3" fill="#FFFFFF" cx="43.3958286" cy="69.1053553" rx="1" ry="1"></ellipse>
            <ellipse id="Oval-7-Copy-10" fill="#FFFFFF" cx="54.9917913" cy="104.837579" rx="1" ry="1"></ellipse>
            <ellipse id="Oval-7-Copy-9" fill="#FFFFFF" cx="46.3764547" cy="53.519917" rx="1" ry="1"></ellipse>
            <ellipse id="Oval-7-Copy-5" fill="#FFFFFF" cx="57.3319787" cy="92.553183" rx="1" ry="1"></ellipse>
            <ellipse id="Oval-7-Copy-6" fill="#FFFFFF" cx="77.4998194" cy="65.5909077" rx="1" ry="1"></ellipse>
            <ellipse id="Oval-7-Copy" fill="#FFFFFF" cx="56.6710129" cy="32.8051356" rx="1" ry="1"></ellipse>
            <ellipse id="Oval-7-Copy-7" fill="#FFFFFF" cx="80.266161" cy="86.9113904" rx="1" ry="1"></ellipse>
        </g>
    </g>
</svg>