<?xml version="1.0" encoding="UTF-8"?>
<svg width="120px" height="120px" viewBox="0 0 120 120" version="1.1" xmlns="http://www.w3.org/2000/svg" xmlns:xlink="http://www.w3.org/1999/xlink">
    <!-- Generator: Sketch 48.2 (47327) - http://www.bohemiancoding.com/sketch -->
    <title>Icon_rata_small</title>
    <desc>Created with Sketch.</desc>
    <defs>
        <linearGradient x1="43.6669767%" y1="20.7858437%" x2="143.048403%" y2="100%" id="linearGradient-1">
            <stop stop-color="#F7D457" offset="0%"></stop>
            <stop stop-color="#DF128D" offset="45.4537981%"></stop>
            <stop stop-color="#863699" offset="100%"></stop>
        </linearGradient>
        <linearGradient x1="39.3269976%" y1="50%" x2="338.026373%" y2="81.5578928%" id="linearGradient-2">
            <stop stop-color="#F7D457" offset="0%"></stop>
            <stop stop-color="#DF128D" offset="50.8795631%"></stop>
            <stop stop-color="#863699" offset="100%"></stop>
        </linearGradient>
        <linearGradient x1="-8.09746687%" y1="0%" x2="50%" y2="62.8735162%" id="linearGradient-3">
            <stop stop-color="#FEFFC4" offset="0%"></stop>
            <stop stop-color="#FFEE70" stop-opacity="0" offset="100%"></stop>
        </linearGradient>
        <linearGradient x1="0%" y1="55.6055396%" x2="120.793823%" y2="130.450314%" id="linearGradient-4">
            <stop stop-color="#F7D457" offset="0%"></stop>
            <stop stop-color="#DF128D" offset="63.6218439%"></stop>
            <stop stop-color="#863699" offset="100%"></stop>
        </linearGradient>
        <linearGradient x1="40.8520464%" y1="0%" x2="87.9653863%" y2="50%" id="linearGradient-5">
            <stop stop-color="#863699" offset="0%"></stop>
            <stop stop-color="#3C0045" offset="100%"></stop>
        </linearGradient>
        <linearGradient x1="67.6925654%" y1="86.5612738%" x2="112.631359%" y2="-4.25452208%" id="linearGradient-6">
            <stop stop-color="#F7D457" offset="0%"></stop>
            <stop stop-color="#DF128D" offset="100%"></stop>
        </linearGradient>
        <linearGradient x1="20.9709408%" y1="4.84792838%" x2="157.830473%" y2="120.020659%" id="linearGradient-7">
            <stop stop-color="#F7D457" offset="0%"></stop>
            <stop stop-color="#DF128D" offset="60.9082482%"></stop>
            <stop stop-color="#863699" offset="100%"></stop>
        </linearGradient>
        <linearGradient x1="20.5113616%" y1="34.6153846%" x2="161.522892%" y2="-20.0030048%" id="linearGradient-8">
            <stop stop-color="#FFF18A" stop-opacity="0" offset="0%"></stop>
            <stop stop-color="#E0734B" offset="100%"></stop>
        </linearGradient>
        <linearGradient x1="13.9505465%" y1="0%" x2="171.753633%" y2="64.6392295%" id="linearGradient-9">
            <stop stop-color="#F7D457" offset="0%"></stop>
            <stop stop-color="#DF128D" offset="67.0342872%"></stop>
            <stop stop-color="#863699" offset="100%"></stop>
        </linearGradient>
        <linearGradient x1="71.6623189%" y1="59.3159878%" x2="0%" y2="80.5789042%" id="linearGradient-10">
            <stop stop-color="#E0734B" stop-opacity="0" offset="0%"></stop>
            <stop stop-color="#9A2328" offset="100%"></stop>
        </linearGradient>
        <linearGradient x1="-8.94105556%" y1="58.6152182%" x2="54.7620986%" y2="78.4791385%" id="linearGradient-11">
            <stop stop-color="#DF128D" offset="0%"></stop>
            <stop stop-color="#863699" offset="43.4366234%"></stop>
            <stop stop-color="#3C0045" offset="100%"></stop>
        </linearGradient>
        <linearGradient x1="30.2704514%" y1="61.9123645%" x2="39.8497082%" y2="269.833391%" id="linearGradient-12">
            <stop stop-color="#F56458" stop-opacity="0" offset="0%"></stop>
            <stop stop-color="#680013" offset="100%"></stop>
        </linearGradient>
        <linearGradient x1="0%" y1="71.4242611%" x2="86.497709%" y2="13.0225872%" id="linearGradient-13">
            <stop stop-color="#F7D457" offset="0%"></stop>
            <stop stop-color="#DF128D" offset="40.2205116%"></stop>
            <stop stop-color="#863699" offset="69.7697627%"></stop>
            <stop stop-color="#3C0045" offset="100%"></stop>
        </linearGradient>
        <linearGradient x1="259.595047%" y1="218.240674%" x2="72.407657%" y2="59.3225124%" id="linearGradient-14">
            <stop stop-color="#F56458" offset="0%"></stop>
            <stop stop-color="#7D0F1D" stop-opacity="0" offset="100%"></stop>
        </linearGradient>
        <linearGradient x1="-27.4658095%" y1="100%" x2="93.7965529%" y2="57.8513148%" id="linearGradient-15">
            <stop stop-color="#F7D457" offset="0%"></stop>
            <stop stop-color="#DF128D" offset="39.4697286%"></stop>
            <stop stop-color="#863699" offset="75.6191085%"></stop>
            <stop stop-color="#3C0045" offset="100%"></stop>
        </linearGradient>
        <linearGradient x1="62.8315569%" y1="64.4997775%" x2="158.948338%" y2="89.6203111%" id="linearGradient-16">
            <stop stop-color="#F7655A" stop-opacity="0" offset="0%"></stop>
            <stop stop-color="#7D0F1D" offset="100%"></stop>
        </linearGradient>
        <linearGradient x1="4.34563648%" y1="74.3077308%" x2="104.924481%" y2="4.63684095%" id="linearGradient-17">
            <stop stop-color="#F7D457" offset="0%"></stop>
            <stop stop-color="#DF128D" offset="53.9188828%"></stop>
            <stop stop-color="#863699" offset="83.0992098%"></stop>
            <stop stop-color="#3C0045" offset="100%"></stop>
        </linearGradient>
        <linearGradient x1="47.6053625%" y1="-42.9081044%" x2="47.6053624%" y2="24.4019664%" id="linearGradient-18">
            <stop stop-color="#FEFFC4" offset="0%"></stop>
            <stop stop-color="#E0734B" stop-opacity="0" offset="100%"></stop>
        </linearGradient>
        <linearGradient x1="87.8582839%" y1="13.8428966%" x2="50%" y2="105.622153%" id="linearGradient-19">
            <stop stop-color="#F7D457" offset="0%"></stop>
            <stop stop-color="#DF128D" offset="65.1800968%"></stop>
            <stop stop-color="#863699" offset="100%"></stop>
        </linearGradient>
        <linearGradient x1="139.16546%" y1="-122.631579%" x2="57.7785168%" y2="33.1578947%" id="linearGradient-20">
            <stop stop-color="#FFEE70" offset="0%"></stop>
            <stop stop-color="#E0734B" stop-opacity="0" offset="100%"></stop>
        </linearGradient>
        <linearGradient x1="107.57364%" y1="15.727415%" x2="37.034212%" y2="85.9169827%" id="linearGradient-21">
            <stop stop-color="#F7D457" offset="0%"></stop>
            <stop stop-color="#DF128D" offset="55.0996898%"></stop>
            <stop stop-color="#863699" offset="100%"></stop>
        </linearGradient>
        <linearGradient x1="72.4995428%" y1="-13.5226014%" x2="32.9535918%" y2="82.1341554%" id="linearGradient-22">
            <stop stop-color="#DF128D" offset="0%"></stop>
            <stop stop-color="#863699" offset="52.9793957%"></stop>
            <stop stop-color="#3C0045" offset="100%"></stop>
        </linearGradient>
        <linearGradient x1="80.7608313%" y1="50%" x2="113.222966%" y2="128.201383%" id="linearGradient-23">
            <stop stop-color="#FEFFC4" stop-opacity="0" offset="0%"></stop>
            <stop stop-color="#C2A900" offset="100%"></stop>
        </linearGradient>
        <linearGradient x1="80.7608313%" y1="50%" x2="168.644722%" y2="233.40326%" id="linearGradient-24">
            <stop stop-color="#FEFFC4" stop-opacity="0" offset="0%"></stop>
            <stop stop-color="#C2A900" offset="100%"></stop>
        </linearGradient>
        <linearGradient x1="69.894247%" y1="72.2742882%" x2="113.222966%" y2="128.201383%" id="linearGradient-25">
            <stop stop-color="#FEFFC4" stop-opacity="0" offset="0%"></stop>
            <stop stop-color="#C2A900" offset="100%"></stop>
        </linearGradient>
        <linearGradient x1="50%" y1="-24.310541%" x2="91.8810071%" y2="149.264549%" id="linearGradient-26">
            <stop stop-color="#F7D457" offset="0%"></stop>
            <stop stop-color="#DF128D" offset="100%"></stop>
        </linearGradient>
        <linearGradient x1="0%" y1="0%" x2="512.5%" y2="293.75%" id="linearGradient-27">
            <stop stop-color="#FFEE70" offset="0%"></stop>
            <stop stop-color="#F56458" offset="31.402439%"></stop>
            <stop stop-color="#7D0F1D" offset="70.1986755%"></stop>
            <stop stop-color="#43000C" offset="100%"></stop>
        </linearGradient>
        <linearGradient x1="4.54685277%" y1="78.6667939%" x2="81.7394368%" y2="88.0706624%" id="linearGradient-28">
            <stop stop-color="#DF128D" offset="0%"></stop>
            <stop stop-color="#863699" offset="61.1251775%"></stop>
            <stop stop-color="#3C0045" offset="100%"></stop>
        </linearGradient>
        <linearGradient x1="57.3426002%" y1="66.7516145%" x2="112.205244%" y2="323.931676%" id="linearGradient-29">
            <stop stop-color="#FF5948" stop-opacity="0" offset="0%"></stop>
            <stop stop-color="#740F1C" offset="100%"></stop>
        </linearGradient>
    </defs>
    <g id="Page-1" stroke="none" stroke-width="1" fill="none" fill-rule="evenodd">
        <g id="Icon_rata_small">
            <path d="M42.0593136,96.5467325 C48.7299849,96.5467325 53.8354772,91.2543493 53.8354772,84.7197088 C53.8354772,78.9651375 49.9003074,74.2312356 44.5185281,73.1684222 C49.4357888,81.0605452 42.9839856,90.8111368 34.5269307,89.3977868 C33.4682897,89.9908844 32.6001566,90.1426422 31.6858006,90.1024923 C33.6121249,93.9630772 37.4919671,96.5467325 42.0593136,96.5467325 Z" id="Oval-12-Copy-12" fill="url(#linearGradient-1)"></path>
            <path d="M44.5658702,73.2724161 C45.8186122,74.9737367 46.5742778,77.0688813 46.5742778,79.3533382 C46.5742778,84.9968914 41.5891239,90.5803054 34.5339277,89.4326845 C34.8712,87.5725381 34.2039511,85.431242 32.0617447,84.3657148 C32.0764234,84.1665437 32.0964469,83.9687522 32.1216706,83.7724537 C32.0927587,83.951956 32.0681496,84.1331811 32.0479843,84.3160821 C30.3220945,83.5107982 28.5675156,83.9167884 27.2232817,84.904584 C23.692315,80.5371698 25.5051808,74.1399362 28.4116555,71.2816464 C30.3941878,69.7652766 32.8636437,68.8658719 35.5407855,68.8658719 C39.1714599,68.8658719 42.4763096,70.6653585 44.6465257,73.2692632 C44.6196558,73.2702183 44.5927704,73.2712693 44.5658702,73.2724161 Z" id="Combined-Shape" stroke="#FFFFFF" stroke-width="1.07708333" fill="url(#linearGradient-2)" stroke-linejoin="round"></path>
            <path d="M30.2186609,84.8224959 C31.5628948,83.8347003 33.3174737,83.4287101 35.0433635,84.233994 C35.7570861,77.760473 41.7977092,73.0602736 47.6419049,73.1871751 C45.4716887,70.5832704 42.1668391,68.7837838 38.5361647,68.7837838 C35.8590229,68.7837838 33.3895669,69.6831885 31.4070347,71.1995583 C28.50056,74.057848 26.6876941,80.4550817 30.2186609,84.8224959 Z" id="Oval-12-Copy-22" fill="url(#linearGradient-3)"></path>
            <path d="M34.7099698,93.9080591 C33.8783752,93.2477342 32.6247522,91.9564965 31.6573711,90.1022296 C28.4648319,89.8408046 26.9828644,87.1753452 27.1163142,84.7819466 C24.4230001,80.8132134 25.1473684,75.3423423 28.2320684,71.5338616 C24.8757949,73.6771692 22.6465257,77.4620241 22.6465257,81.7735228 C22.6465257,88.4566778 28.1025752,93.9080591 34.7099698,93.9080591 Z" id="Oval-12-Copy-13" stroke="#FFFFFF" stroke-width="1.07708333" fill="url(#linearGradient-4)" stroke-linejoin="round"></path>
            <path d="M53.5932273,94.9139322 C53.6258658,94.8775185 53.6571538,94.8418406 53.6870988,94.8069623 C55.2224519,95.330919 57.2729117,95.4527125 58.9830296,95.4527125 C60.6931476,95.4527125 64.7021573,94.3397847 66.9705438,93.3949254 C60.335427,97.8672237 51.4528803,99.6971044 44.366674,98.760112 C44.3201524,98.7616857 44.2734228,98.7631309 44.2264836,98.7644472 C40.2564477,98.875778 37.0335569,96.8438511 34.719265,93.9221321 C40.592145,97.5047222 46.8108006,96.6133034 50.1383473,93.2687428 C51.0638941,93.9021208 52.1241734,94.3636428 53.5932273,94.9139322 Z" id="Combined-Shape" stroke="#FFFFFF" stroke-width="1.07708333" fill="url(#linearGradient-5)" stroke-linejoin="round"></path>
            <path d="M40.093675,41.4862418 C38.9278338,52.2186761 35.0233621,62.1174459 29.1024218,70.4521092 C31.1153437,60.0494472 34.8878632,50.2841417 40.093675,41.4862418 Z" id="Combined-Shape" fill="url(#linearGradient-6)"></path>
            <path d="M39.8997306,42.6672268 C39.8997306,35.6198511 38.4878185,28.6827202 36.0606388,22.5102144 C40.2131935,24.8477153 45.8244202,27.5918034 49.32306,31.2228649 C46.8064363,33.5258956 43.174795,35.9244713 39.8997306,42.6672268 Z" id="Oval-12-Copy-39" stroke="#FFFFFF" stroke-width="1.07708333" fill="url(#linearGradient-7)" stroke-linejoin="round"></path>
            <path d="M42.7248307,42.7816608 C42.7248307,36.670544 41.5004941,30.6550256 39.3957704,25.3025503 C42.9966494,27.3295092 47.8624128,29.7090395 50.8962508,32.8577067 C48.713966,34.8547749 45.5647959,36.9346947 42.7248307,42.7816608 Z" id="Oval-12-Copy-41" fill="url(#linearGradient-8)"></path>
            <path d="M29.8550664,24.725633 C30.8747373,31.9094892 34.5501662,38.2262557 39.8427481,42.6249496 C40.1140504,40.0861545 39.5738023,30.594303 36.1191915,22.5398264 C30.7892593,19.067343 29.609965,22.9988282 29.8550664,24.725633 Z" id="Oval-12-Copy-40" stroke="#FFFFFF" stroke-width="1.07708333" fill="url(#linearGradient-9)" stroke-linejoin="round"></path>
            <path d="M33.0380449,28.1681418 C33.8156494,33.6465749 36.618544,38.4637625 40.654685,41.8182214 C40.861581,39.8821277 40.449586,32.6436095 37.815088,26.5012383 C33.7504637,23.8531106 32.8511298,26.8512746 33.0380449,28.1681418 Z" id="Oval-12-Copy-47" fill="url(#linearGradient-10)" transform="translate(36.857950, 33.630706) rotate(5.000000) translate(-36.857950, -33.630706) "></path>
            <path d="M89.7204359,71.0476917 C85.1815049,81.0773521 78.9400019,87.0570409 70.8396785,91.4030526 C66.407683,93.7809211 58.5130995,98.4188566 50.1299398,93.3327576 C54.2814221,89.3424468 55.1942504,82.419273 51.1819298,77.1957605 C58.5712566,83.9954391 79.381892,84.2541069 89.7204359,71.0476917 Z" id="Oval-12-Copy-35" stroke="#FFFFFF" stroke-width="1.07708333" fill="url(#linearGradient-11)" stroke-linejoin="round"></path>
            <path d="M85.7859382,71.2860564 C81.8085727,80.0748277 76.3392806,85.3146977 69.241145,89.1230124 C65.3574847,91.2066864 58.4396344,95.2708075 51.0936556,90.8139705 C54.7315084,87.3173488 55.5313998,81.2507235 52.0154913,76.6734742 C58.4905962,82.6318833 76.7264992,82.8585482 85.7859382,71.2860564 Z" id="Oval-12-Copy-36" fill="url(#linearGradient-12)" transform="translate(68.439797, 82.052984) rotate(11.000000) translate(-68.439797, -82.052984) "></path>
            <path d="M70.5015106,53.8069459 C78.2874021,53.8069459 85.816155,52.6933811 92.9405861,50.6151221 C82.0451756,63.3737127 64.7771903,73.2493051 51.1980268,77.2787443 C49.5343184,75.152942 46.911537,73.8170611 44.5135952,73.2692632 C43.0362612,67.9214877 44.423244,58.2439509 49.1890106,51.3211097 C55.6934352,53.0283512 63.4690722,53.8069459 70.5015106,53.8069459 Z" id="Oval-12-Copy-46" stroke="#FFFFFF" stroke-width="1.07708333" fill="url(#linearGradient-13)" stroke-linejoin="round"></path>
            <path d="M61.9945069,62.6659568 C70.3682913,62.6659568 76.7772853,56.022356 76.7772853,47.8193329 C76.7772853,40.5955412 71.8374131,34.6530097 65.0815923,33.3188456 C71.2542965,43.225935 63.1552601,55.4659853 52.539004,53.6917879 C51.2100776,54.4363113 50.1202983,54.626815 48.9724948,54.5764142 C51.3906359,59.4226591 56.2610546,62.6659568 61.9945069,62.6659568 Z" id="Oval-12-Copy-15" fill="url(#linearGradient-14)" transform="translate(62.874890, 47.992401) rotate(82.000000) translate(-62.874890, -47.992401) "></path>
            <path d="M70.5015106,54.0758553 C78.2874021,54.0758553 85.805136,52.8605109 92.9405861,50.6151221 C83.1711905,52.8917611 76.0510999,46.0295821 76.0321469,37.2548375 C63.819156,35.2259371 53.8587141,42.5085497 49.1890106,51.3211097 C55.3108242,53.2326248 63.4690722,54.0758553 70.5015106,54.0758553 Z" id="Oval-12-Copy-45" stroke="#FFFFFF" stroke-width="1.07708333" fill="url(#linearGradient-15)" stroke-linejoin="round"></path>
            <path d="M58.7850964,66.1589758 C67.1588809,66.1589758 73.5678749,59.515375 73.5678749,51.3123519 C73.5678749,44.0885603 68.6280027,38.1460287 61.8721819,36.8118646 C68.0448861,46.7189541 59.9458497,58.9590044 49.3295936,57.1848069 C48.0006672,57.9293303 46.9108878,58.119834 45.7630843,58.0694332 C48.1812255,62.9156781 53.0516442,66.1589758 58.7850964,66.1589758 Z" id="Oval-12-Copy-16" fill="url(#linearGradient-16)" transform="translate(59.665480, 51.485420) rotate(-75.000000) translate(-59.665480, -51.485420) "></path>
            <path d="M81.9999771,30.3059805 C78.2042107,28.0105519 71.1399723,25.8403691 66.1148036,25.8403691 C58.7937255,25.8403691 52.8762664,27.3978272 48.4620468,30.9675048 C44.3105259,34.324744 40.6149924,38.1897178 39.3873324,43.0956073 C37.3903015,51.0760031 33.345493,65.0875913 28.158347,71.5945946 C33.9567443,67.4475589 40.4214383,68.5523194 44.546698,73.2355182 C41.697779,56.4465385 55.4865937,34.530029 76.090304,37.2728261 C76.090304,33.7238261 79.8593514,32.066777 81.9999771,30.3059805 Z" id="Oval-12-Copy-33" stroke="#FFFFFF" stroke-width="1.07708333" fill="url(#linearGradient-17)" stroke-linejoin="round"></path>
            <path d="M81.4815191,32.6735458 C78.2338939,30.7095968 72.189792,28.8528069 67.8903007,28.8528069 C61.6264489,28.8528069 56.5635216,30.1853548 52.7867531,33.2395403 C49.2347474,36.1119655 46.0728806,39.4188039 45.0225052,43.616241 C43.3138627,50.4441993 39.8459327,62.2739008 35.407855,67.8412371 C40.368914,64.2930688 45.9072774,65.3967858 49.4368142,69.4036907 C46.9993035,55.0391834 58.7968953,36.2876056 76.4252534,38.6343192 C76.4252534,35.5978252 79.6500181,34.1800682 81.4815191,32.6735458 Z" id="Oval-12-Copy-34" fill="url(#linearGradient-18)"></path>
            <path d="M99.743108,24.7565907 C108.848291,32.1085504 100.909698,48.966948 92.9202936,50.623232 C94.5998395,48.0465338 95.4924471,45.0724888 95.4924471,41.8404779 C95.4924471,34.2039994 87.6005091,29.5509373 80.3456382,28.4758912 C82.145912,26.7369088 92.6510574,18.8912672 99.743108,24.7565907 Z" id="Oval-12-Copy-26" stroke="#FFFFFF" stroke-width="1.07708333" fill="url(#linearGradient-19)" stroke-linejoin="round"></path>
            <path d="M96.9664098,26.1816041 C105.270803,32.8869677 98.0303995,48.2626892 90.7436538,49.773305 C92.2754857,47.4232244 93.0895895,44.7107431 93.0895895,41.7629837 C93.0895895,34.7981244 85.8917381,30.5542936 79.2749245,29.5737966 C80.9168663,27.9877556 90.4980966,20.8321288 96.9664098,26.1816041 Z" id="Oval-12-Copy-30" fill="url(#linearGradient-20)"></path>
            <path d="M92.9554735,50.6263833 C98.8699746,41.7540272 94.3415077,28.6513126 82.5458101,26.7702114 C78.90604,28.8936447 76.0836302,32.8050867 75.8060093,37.2896329 C82.0087331,38.2540071 89.6527214,43.3658297 92.9554735,50.6263833 Z" id="Oval-12-Copy-29" stroke="#FFFFFF" stroke-width="1.07708333" fill="url(#linearGradient-21)" stroke-linejoin="round"></path>
            <path d="M75.8677549,37.1994606 C83.5304103,38.5248596 89.8992664,43.6848177 92.9752855,50.6573761 C91.6410616,51.1298668 90.2066867,51.3867614 88.7129909,51.3867614 C81.5916879,51.3867614 75.8187311,45.5476118 75.8187311,38.3446558 C75.8187311,37.9587807 75.8352991,37.5768196 75.8677549,37.1994606 Z" id="Combined-Shape" stroke="#FFFFFF" stroke-width="1.07708333" fill="url(#linearGradient-22)" stroke-linejoin="round"></path>
            <path d="M30.3564955,77.9131491 C30.3564955,76.4304323 29.8584802,75.0722877 29.0352284,73.9751504 C24.9256831,74.067561 21.3430138,77.1707395 21.0513595,81.1220196 C22.4248979,81.8041589 22.8527241,83.174994 22.6364721,84.3658401 C27.1601179,85.1005349 30.3564955,81.5260922 30.3564955,77.9131491 Z" id="Oval-12-Copy-25" fill="url(#linearGradient-23)" transform="translate(25.703927, 79.218884) scale(-1, 1) translate(-25.703927, -79.218884) "></path>
            <path d="M28.2296073,80.3333337 C28.2296073,78.8506168 27.731592,77.4924722 26.9083402,76.3953349 C22.7987949,76.4877456 19.2161256,79.5909241 18.9244713,83.5422042 C20.2980097,84.2243434 20.7258359,85.5951786 20.5095839,86.7860247 C25.0332297,87.5207194 28.2296073,83.9462768 28.2296073,80.3333337 Z" id="Oval-12-Copy-24" fill="url(#linearGradient-24)" transform="translate(23.577039, 81.639068) scale(-1, 1) rotate(28.000000) translate(-23.577039, -81.639068) "></path>
            <path d="M27.6978852,82.2156994 C27.6978852,80.7329826 27.19987,79.3748379 26.3766182,78.2777007 C22.2670729,78.3701113 18.6844035,81.4732898 18.3927492,85.4245699 C19.7662877,86.1067092 20.1941138,87.4775443 19.9778619,88.6683904 C24.5015077,89.4030852 27.6978852,85.8286425 27.6978852,82.2156994 Z" id="Oval-12-Copy-23" fill="url(#linearGradient-25)" transform="translate(23.045317, 83.521434) scale(-1, 1) rotate(45.000000) translate(-23.045317, -83.521434) "></path>
            <path d="M35.9286269,89.8260853 C36.2310882,88.4478128 35.9650767,87.3206557 35.6627659,86.5991726 C32.285502,87.7418938 29.1823384,87.422642 27.1718293,84.7 C26.8828335,89.8473287 32.4310684,92.2703674 35.9286269,89.8260853 Z" id="Oval-12-Copy-6" stroke="#FFFFFF" stroke-width="1.07708333" fill="url(#linearGradient-26)" stroke-linejoin="round"></path>
            <path d="M26.9003021,84.4793907 C27.8549226,83.6309709 29.0975021,83.1180697 30.4561601,83.1180697 C32.6514783,83.1180697 34.5437377,84.4571552 35.407855,86.3870317 C34.4470241,87.0403918 33.2963667,87.42062 32.0596568,87.42062 C29.8864442,87.42062 27.9789562,86.2464985 26.9003021,84.4793907 Z" id="Combined-Shape" stroke="#FFFFFF" stroke-width="1.07708333" fill="url(#linearGradient-27)" stroke-linejoin="round"></path>
            <path d="M51.2056859,77.276906 C64.9970489,73.0724621 84.3257647,60.6890831 92.9677223,50.5602175 C93.4748631,55.4133119 92.8120279,65.0890605 89.3880287,71.631647 C78.7089313,84.5926071 58.2385409,84.1837282 51.2056859,77.276906 Z" id="Oval-12-Copy-43" stroke="#FFFFFF" stroke-width="1.07708333" fill="url(#linearGradient-28)" stroke-linejoin="round"></path>
            <path d="M61.1200562,71.9101904 C71.7990079,68.6545982 86.7656521,59.0658791 93.4573074,51.2228786 C93.8499975,54.9807349 93.3367499,62.4728771 90.685473,67.5389439 C82.416416,77.5748965 66.5657484,77.2582928 61.1200562,71.9101904 Z" id="Oval-12-Copy-44" fill="url(#linearGradient-29)" transform="translate(77.347322, 63.409114) rotate(-8.000000) translate(-77.347322, -63.409114) "></path>
            <path d="M45.821928,79.0654031 C45.821928,77.148845 45.1791879,75.3933088 44.1166964,73.9751504 C38.8129037,74.0946003 34.1890988,78.1057653 33.8126888,83.2131855 C35.585382,84.094918 36.1375359,85.8668579 35.8584404,87.4061442 C41.6966726,88.3558098 45.821928,83.7354893 45.821928,79.0654031 Z" id="Oval-12-Copy-19" fill="url(#linearGradient-23)"></path>
            <path d="M48.4805383,82.2923159 C48.4805383,80.3757577 47.8377982,78.6202215 46.7753067,77.2020631 C41.471514,77.321513 36.847709,81.332678 36.4712991,86.4400982 C38.2439923,87.3218307 38.7961462,89.0937706 38.5170507,90.6330569 C44.3552829,91.5827225 48.4805383,86.962402 48.4805383,82.2923159 Z" id="Oval-12-Copy-20" fill="url(#linearGradient-24)" transform="translate(42.475919, 83.980107) rotate(28.000000) translate(-42.475919, -83.980107) "></path>
            <path d="M49.2781214,84.7125004 C49.2781214,82.7959423 48.6353813,81.040406 47.5728898,79.6222476 C42.269097,79.7416976 37.6452921,83.7528626 37.2688822,88.8602828 C39.0415754,89.7420152 39.5937293,91.5139551 39.3146338,93.0532415 C45.152866,94.0029071 49.2781214,89.3825866 49.2781214,84.7125004 Z" id="Oval-12-Copy-21" fill="url(#linearGradient-25)" transform="translate(43.273502, 86.400291) rotate(45.000000) translate(-43.273502, -86.400291) "></path>
            <ellipse id="Oval-7" fill="#FFFFFF" cx="87.2307655" cy="62.8060226" rx="1" ry="1"></ellipse>
            <ellipse id="Oval-7-Copy-4" fill="#FFFFFF" cx="50.9061553" cy="84.0894988" rx="1" ry="1"></ellipse>
            <ellipse id="Oval-7-Copy-8" fill="#FFFFFF" cx="63.3454742" cy="66.6040361" rx="1" ry="1"></ellipse>
            <ellipse id="Oval-7-Copy-2" fill="#FFFFFF" cx="63.9781424" cy="32.0985237" rx="1" ry="1"></ellipse>
            <ellipse id="Oval-7-Copy-3" fill="#FFFFFF" cx="39.4248125" cy="58.3864869" rx="1" ry="1"></ellipse>
            <ellipse id="Oval-7-Copy-10" fill="#FFFFFF" cx="69.7387651" cy="87.4653616" rx="1" ry="1"></ellipse>
            <ellipse id="Oval-7-Copy-9" fill="#FFFFFF" cx="80.1732665" cy="41.9272925" rx="1" ry="1"></ellipse>
            <ellipse id="Oval-7-Copy-11" fill="#FFFFFF" cx="96.4590253" cy="29.7037497" rx="1" ry="1"></ellipse>
            <ellipse id="Oval-7-Copy-5" fill="#FFFFFF" cx="51.499394" cy="41.8917417" rx="1" ry="1"></ellipse>
            <ellipse id="Oval-7-Copy-6" fill="#FFFFFF" cx="32.3225057" cy="88.825464" rx="1" ry="1"></ellipse>
            <ellipse id="Oval-7-Copy" fill="#FFFFFF" cx="37.2704944" cy="32.788932" rx="1" ry="1"></ellipse>
            <ellipse id="Oval-7-Copy-7" fill="#FFFFFF" cx="63.5807722" cy="51.4490989" rx="1" ry="1"></ellipse>
        </g>
    </g>
</svg>