<?xml version="1.0" encoding="UTF-8"?>
<svg width="120px" height="120px" viewBox="0 0 120 120" version="1.1" xmlns="http://www.w3.org/2000/svg" xmlns:xlink="http://www.w3.org/1999/xlink">
    <!-- Generator: Sketch 48.2 (47327) - http://www.bohemiancoding.com/sketch -->
    <title>Icon_tigre_small</title>
    <desc>Created with Sketch.</desc>
    <defs>
        <linearGradient x1="-7.24503605%" y1="19.37001%" x2="88.1943337%" y2="84.6894592%" id="linearGradient-1">
            <stop stop-color="#DF128D" offset="0%"></stop>
            <stop stop-color="#863699" offset="32.317229%"></stop>
            <stop stop-color="#3C0045" offset="100%"></stop>
        </linearGradient>
        <linearGradient x1="39.7178671%" y1="90.0936596%" x2="120.769406%" y2="-92.9344956%" id="linearGradient-2">
            <stop stop-color="#F7D457" offset="0%"></stop>
            <stop stop-color="#DF128D" offset="50.9501928%"></stop>
            <stop stop-color="#863699" offset="81.7858545%"></stop>
            <stop stop-color="#3C0045" offset="100%"></stop>
        </linearGradient>
        <linearGradient x1="-26.3664631%" y1="-82.3313687%" x2="68.0725649%" y2="68.3355314%" id="linearGradient-3">
            <stop stop-color="#F7D457" offset="0%"></stop>
            <stop stop-color="#DF128D" offset="50.9501928%"></stop>
            <stop stop-color="#863699" offset="68.2237597%"></stop>
            <stop stop-color="#772B89" offset="74.4624832%"></stop>
            <stop stop-color="#3C0045" offset="100%"></stop>
        </linearGradient>
        <linearGradient x1="50%" y1="88.081326%" x2="67.7263029%" y2="9.09129426%" id="linearGradient-4">
            <stop stop-color="#3C0045" offset="0%"></stop>
            <stop stop-color="#DF128D" offset="42.9007713%"></stop>
            <stop stop-color="#F7D457" offset="100%"></stop>
        </linearGradient>
        <linearGradient x1="110.153039%" y1="34.0943128%" x2="55.7311851%" y2="18.4006338%" id="linearGradient-5">
            <stop stop-color="#EF913F" offset="0%"></stop>
            <stop stop-color="#FFEE70" stop-opacity="0" offset="100%"></stop>
        </linearGradient>
        <linearGradient x1="117.239583%" y1="144.243656%" x2="50%" y2="50%" id="linearGradient-6">
            <stop stop-color="#FDE46D" offset="0%"></stop>
            <stop stop-color="#D34C48" stop-opacity="0" offset="100%"></stop>
        </linearGradient>
        <linearGradient x1="-10.5683999%" y1="95.4544602%" x2="109.439401%" y2="-1.6711819%" id="linearGradient-7">
            <stop stop-color="#F7D457" offset="0%"></stop>
            <stop stop-color="#DF128D" offset="32.9172955%"></stop>
            <stop stop-color="#7A2D8B" offset="80.3921837%"></stop>
            <stop stop-color="#3C0045" offset="100%"></stop>
        </linearGradient>
        <linearGradient x1="10.8763625%" y1="-86.7914116%" x2="60.5280052%" y2="12.7334369%" id="linearGradient-8">
            <stop stop-color="#FFEE70" offset="0%"></stop>
            <stop stop-color="#E0734B" stop-opacity="0" offset="100%"></stop>
        </linearGradient>
        <linearGradient x1="-167.226145%" y1="292.029751%" x2="77.6757395%" y2="-32.6904779%" id="linearGradient-9">
            <stop stop-color="#F7D457" offset="0%"></stop>
            <stop stop-color="#DF128D" offset="32.9172955%"></stop>
            <stop stop-color="#863699" offset="83.0992098%"></stop>
            <stop stop-color="#3C0045" offset="100%"></stop>
        </linearGradient>
        <linearGradient x1="132.49715%" y1="-146.488203%" x2="63.6555198%" y2="44.3787096%" id="linearGradient-10">
            <stop stop-color="#E0754C" offset="0%"></stop>
            <stop stop-color="#3D000C" stop-opacity="0" offset="100%"></stop>
        </linearGradient>
        <linearGradient x1="103.949693%" y1="-34.1520843%" x2="17.7518%" y2="106.166828%" id="linearGradient-11">
            <stop stop-color="#F7D457" offset="0%"></stop>
            <stop stop-color="#DF128D" offset="21.205788%"></stop>
            <stop stop-color="#863699" offset="65.5288941%"></stop>
            <stop stop-color="#3C0045" offset="100%"></stop>
        </linearGradient>
        <linearGradient x1="50.6609916%" y1="148.832112%" x2="67.7263029%" y2="9.09129426%" id="linearGradient-12">
            <stop stop-color="#863699" offset="0%"></stop>
            <stop stop-color="#DF128D" offset="42.9007713%"></stop>
            <stop stop-color="#F7D457" offset="100%"></stop>
        </linearGradient>
        <linearGradient x1="60.4730903%" y1="73.6674396%" x2="414.192708%" y2="124.175739%" id="linearGradient-13">
            <stop stop-color="#C43935" stop-opacity="0" offset="0%"></stop>
            <stop stop-color="#FFEE70" offset="100%"></stop>
        </linearGradient>
        <linearGradient x1="19.1230059%" y1="17.3880486%" x2="173.312417%" y2="202.578505%" id="linearGradient-14">
            <stop stop-color="#F7D457" offset="0%"></stop>
            <stop stop-color="#DF128D" offset="27.409496%"></stop>
            <stop stop-color="#873598" offset="50.0340269%"></stop>
            <stop stop-color="#3C0045" offset="100%"></stop>
        </linearGradient>
        <linearGradient x1="70.2696761%" y1="187.419513%" x2="55.6884766%" y2="64.643547%" id="linearGradient-15">
            <stop stop-color="#FFEE70" offset="0%"></stop>
            <stop stop-color="#F56458" stop-opacity="0" offset="100%"></stop>
        </linearGradient>
        <linearGradient x1="37.1963157%" y1="156.87351%" x2="57.6782794%" y2="44.2526356%" id="linearGradient-16">
            <stop stop-color="#FFEE70" offset="0%"></stop>
            <stop stop-color="#F56458" stop-opacity="0" offset="100%"></stop>
        </linearGradient>
        <linearGradient x1="10.8481491%" y1="19.2479253%" x2="54.3898537%" y2="84.0845541%" id="linearGradient-17">
            <stop stop-color="#DA138D" offset="0%"></stop>
            <stop stop-color="#863699" offset="100%"></stop>
        </linearGradient>
        <linearGradient x1="-71.4441754%" y1="32.4084276%" x2="60.5844994%" y2="50%" id="linearGradient-18">
            <stop stop-color="#FFF373" offset="0%"></stop>
            <stop stop-color="#F19E68" stop-opacity="0" offset="100%"></stop>
        </linearGradient>
        <linearGradient x1="0%" y1="12.3681705%" x2="86.8904981%" y2="114.48476%" id="linearGradient-19">
            <stop stop-color="#F7D457" offset="0%"></stop>
            <stop stop-color="#DF128D" offset="42.1496312%"></stop>
            <stop stop-color="#863699" offset="70.6019505%"></stop>
            <stop stop-color="#3C0045" offset="100%"></stop>
        </linearGradient>
        <linearGradient x1="62.1358817%" y1="67.942682%" x2="79.3377291%" y2="120.962439%" id="linearGradient-20">
            <stop stop-color="#FF7070" stop-opacity="0" offset="0%"></stop>
            <stop stop-color="#7D0F1D" offset="100%"></stop>
        </linearGradient>
        <linearGradient x1="30.9113757%" y1="7.09505912%" x2="206.6604%" y2="196.199393%" id="linearGradient-21">
            <stop stop-color="#F7D457" offset="0%"></stop>
            <stop stop-color="#DF128D" offset="42.266155%"></stop>
            <stop stop-color="#863699" offset="81.7858545%"></stop>
            <stop stop-color="#3C0045" offset="100%"></stop>
        </linearGradient>
        <linearGradient x1="57.6510423%" y1="66.9123826%" x2="89.6600209%" y2="174.063543%" id="linearGradient-22">
            <stop stop-color="#FFEE70" stop-opacity="0" offset="0%"></stop>
            <stop stop-color="#F56458" offset="100%"></stop>
        </linearGradient>
        <linearGradient x1="-11.8048205%" y1="76.5242712%" x2="106.856927%" y2="14.5893987%" id="linearGradient-23">
            <stop stop-color="#DF128D" offset="0%"></stop>
            <stop stop-color="#863699" offset="48.3117956%"></stop>
            <stop stop-color="#3C0045" offset="100%"></stop>
        </linearGradient>
        <linearGradient x1="135.693253%" y1="121.903569%" x2="60.9939871%" y2="38.2542215%" id="linearGradient-24">
            <stop stop-color="#FF5948" offset="0%"></stop>
            <stop stop-color="#740F1C" stop-opacity="0" offset="100%"></stop>
        </linearGradient>
        <linearGradient x1="135.693253%" y1="121.903569%" x2="65.2825251%" y2="58.7814917%" id="linearGradient-25">
            <stop stop-color="#FF5948" offset="0%"></stop>
            <stop stop-color="#740F1C" stop-opacity="0" offset="100%"></stop>
        </linearGradient>
        <linearGradient x1="-3.69869364%" y1="91.3295445%" x2="172.538871%" y2="-26.2995485%" id="linearGradient-26">
            <stop stop-color="#F7D457" offset="0%"></stop>
            <stop stop-color="#DF128D" offset="50.9501928%"></stop>
            <stop stop-color="#863699" offset="81.7858545%"></stop>
            <stop stop-color="#3C0045" offset="100%"></stop>
        </linearGradient>
    </defs>
    <g id="Page-1" stroke="none" stroke-width="1" fill="none" fill-rule="evenodd">
        <g id="Icon_tigre_small">
            <path d="M87.9817773,76.0253462 C92.0470366,70.5248451 94.7817054,63.9984181 94.7817054,56.7087952 C94.7817054,53.0300412 94.1273552,49.5058421 92.9299374,46.2487352 C86.5651836,43.3453511 81.3753566,42.9138395 74.9941062,43.79006 C72.4769059,60.2448317 63.2978749,72.2196286 56.1572498,78.3146616 C57.6471175,83.363206 55.2751417,87.0967614 52.7483141,89.4093344 C68.0263037,89.4093344 80.928974,84.0397348 87.9817773,76.0253462 Z" id="Oval-5-Copy-21" stroke="#FFFFFF" stroke-width="0.977247191" fill="url(#linearGradient-1)" stroke-linejoin="round"></path>
            <path d="M45.1007281,49.96144 C43.4686769,45.6825261 39.8682046,42.0755797 41.340753,38.8042294 C36.1254045,46.3566963 35.5816016,52.1619687 34.9105978,59.8094181 C34.5160815,64.3057319 31.5200012,69.4920176 30.6412611,72.475019 C29.762521,75.4580204 49.4623826,61.3968311 45.1007281,49.96144 Z" id="Oval-5-Copy-13" stroke="#FFFFFF" stroke-width="0.977247191" fill="url(#linearGradient-2)" stroke-linejoin="round"></path>
            <path d="M42.5998545,100.892521 C62.390259,100.452319 77.940895,90.6663415 88.0328016,75.9309091 C81.7153813,82.6093705 69.7664084,89.0281554 52.8000162,89.3656625 C53.2261816,94.2605979 49.9352766,100.646385 42.5998545,100.892521 Z" id="Oval-5-Copy-14" stroke="#FFFFFF" stroke-width="0.977247191" fill="url(#linearGradient-3)" stroke-linejoin="round"></path>
            <path d="M55.272254,44.7913171 C57.7082873,41.1479338 58.3419444,36.3954578 58.3419444,32.8034371 C58.3419444,29.4358487 56.3291652,24.6142237 54.4403695,22.1868839 C53.8830611,21.4706727 53.0136268,21.6910656 52.6497469,21.9876366 C46.7972732,26.7575455 44.691524,33.3454579 44.3978659,41.9730926 C50.6099222,42.517743 53.3128983,43.8360205 55.272254,44.7913171 Z" id="Oval-5-Copy-26" stroke="#FFFFFF" stroke-width="0.977247191" fill="url(#linearGradient-4)" stroke-linejoin="round" transform="translate(51.369905, 33.249371) rotate(-20.000000) translate(-51.369905, -33.249371) "></path>
            <path d="M53.3068561,46.7788757 C55.7428893,43.1354924 56.3765465,38.3830164 56.3765465,34.7909957 C56.3765465,31.4234073 54.3637673,26.6017823 52.4749715,24.1744425 C51.9176631,23.4582312 51.0482289,23.6786242 50.684349,23.9751952 C44.8318753,28.7451041 42.7261261,35.3330165 42.432468,43.9606512 C48.6445243,44.5053016 51.3475004,45.823579 53.3068561,46.7788757 Z" id="Oval-5-Copy-26" fill="url(#linearGradient-5)" transform="translate(49.404507, 35.236930) rotate(-20.000000) translate(-49.404507, -35.236930) "></path>
            <path d="M40.6717727,54.8278888 C40.3560707,54.8278888 40.044455,54.8101964 39.7378421,54.7757385 C40.2721907,53.3180931 40.6717727,52.0368393 40.9476745,50.1716632 C44.4121454,49.7021521 46.2379338,50.4512371 47.6152418,51.085277 C46.1137652,53.3427033 43.5642769,54.8278888 40.6717727,54.8278888 Z M38.3985952,60.2289159 C37.5974255,60.2289159 36.8182926,60.1335015 36.0717016,59.9532963 C37.7975177,57.8912621 38.6274827,57.361974 39.7115074,54.7878008 C42.6831253,55.1197019 45.7880473,53.8683816 47.6229927,51.0808198 C49.1390869,57.0655688 43.1976133,60.2289159 38.3985952,60.2289159 Z" id="Combined-Shape-Copy-14" fill="url(#linearGradient-6)" transform="translate(41.967895, 55.126719) scale(-1, 1) translate(-41.967895, -55.126719) "></path>
            <path d="M37.8428312,62.6781284 C40.0324707,60.1822599 43.2766427,54.9749048 40.2812899,46.3548423 C39.4297357,43.9042295 39.2835406,39.7667478 43.6525907,36.1717818 C46.6539002,33.7022278 52.469406,30.783294 56.0049391,29.8693685 C67.4901342,26.9004776 75.6114197,36.8734444 74.9544741,43.8116951 C68.1839094,44.6700265 54.4781227,47.4332995 50.6229614,55.05604 C47.5037497,61.2236008 45.3479792,67.9721516 44.3564012,75.0986777 C38.5477585,76.6314528 33.525178,75.0986777 29.9413873,72.8921008 C32.8756072,68.1009596 35.5359324,65.3076553 37.8428312,62.6781284 Z" id="Oval-5-Copy-27" stroke="#FFFFFF" stroke-width="0.977247191" fill="url(#linearGradient-7)" stroke-linejoin="round"></path>
            <path d="M34.7140578,60.3647311 C36.2518352,58.61189 38.5302076,54.9547799 36.4265801,48.9009354 C35.8285362,47.1798772 35.1360742,42.3453517 38.2044453,39.8206178 C40.3122561,38.0862572 43.9780912,37.1066066 47.4692527,37.3232358 C55.5623545,37.8254187 61.6271474,42.5728739 60.7774552,47.1148906 C56.0225076,47.7176942 46.396974,49.6583327 43.6895056,55.0117609 C41.4988924,59.3432206 39.9849011,64.082708 39.2885188,69.0876463 C35.2091262,70.1641097 31.6817827,69.0876463 29.1648971,67.5379738 C31.2255911,64.1731695 33.0939296,62.2114401 34.7140578,60.3647311 Z" id="Oval-5-Copy-29" fill="url(#linearGradient-8)" transform="translate(45.010918, 53.407931) rotate(18.000000) translate(-45.010918, -53.407931) "></path>
            <path d="M92.9542427,46.2741992 C89.3842511,44.5947766 84.7834087,42.7955173 74.9403126,43.8158274 C74.1311334,37.2869889 62.1179216,29.4458099 49.9033814,32.2354842 C62.2005538,25.9219771 72.4878922,28.5145964 78.6325582,31.0077061 C86.0039159,34.1411138 92.0099182,42.7459513 92.9542427,46.2741992 Z" id="Combined-Shape" stroke="#FFFFFF" stroke-width="0.977247191" fill="url(#linearGradient-9)" stroke-linejoin="round"></path>
            <path d="M88.4004213,47.7648681 C84.9228392,46.1289175 80.44109,44.3762322 70.8527832,45.3701315 C71.915314,40.0480496 58.3623008,31.372083 46.4639351,34.0895464 C58.4427941,27.939465 68.4638439,30.4649741 74.4494547,32.8935495 C81.6300043,35.9458487 87.4805407,44.3279493 88.4004213,47.7648681 Z" id="Combined-Shape-Copy-15" fill="url(#linearGradient-10)"></path>
            <path d="M88.5416725,25.353997 C86.5588899,29.2634145 85.4384175,37.3571447 85.5175153,43.0468428 C84.631706,43.0887875 83.8517123,43.1504371 83.1295519,43.2329882 C83.1233782,43.2973417 83.117386,43.3614174 83.1115768,43.4252061 C82.7421561,43.4039769 82.3906992,43.3880854 82.0537305,43.3772537 C80.8352382,43.5655981 79.7246089,43.8239913 78.4400074,44.1594618 C78.4763325,43.9275489 78.5148855,43.6963208 78.5556062,43.4658464 C77.713639,43.5403944 76.8798895,43.6516957 75.9565399,43.7919291 C77.9376103,36.3475878 82.2278214,29.8876472 86.4521205,26.6027635 C87.3508726,25.6512355 88.2707887,24.8673382 89.1841399,24.2826204 C88.9905664,24.5494003 88.8036534,24.855347 88.6236445,25.1957025 C88.6556288,25.1792692 88.6875845,25.163049 88.7195106,25.1470428 C88.6600422,25.2131718 88.600758,25.2821873 88.5416725,25.353997 Z" id="Combined-Shape" stroke="#FFFFFF" stroke-width="0.977247191" fill="url(#linearGradient-11)" stroke-linejoin="round"></path>
            <path d="M92.8872662,46.2763723 C95.3232994,42.632989 95.9569566,37.880513 95.9569566,34.2884923 C95.9569566,30.9209038 93.9441774,26.0992788 92.0553816,23.6719391 C91.4980732,22.9557278 90.628639,23.1761207 90.2647591,23.4726917 C84.4122854,28.2426007 82.3065362,34.8305131 82.0128781,43.4581478 C88.2249344,44.0027981 90.9279105,45.3210756 92.8872662,46.2763723 Z" id="Oval-5-Copy-20" stroke="#FFFFFF" stroke-width="0.977247191" fill="url(#linearGradient-12)" stroke-linejoin="round"></path>
            <path d="M89.8614746,45.7398848 C92.004928,42.53409 92.5624797,38.3524102 92.5624797,35.1918092 C92.5624797,32.2286849 90.7914455,27.9861612 89.1295035,25.8503572 C88.6391306,25.2201664 87.8741198,25.4140891 87.5539437,25.6750404 C82.4043814,29.8720594 80.5515432,35.6687306 80.2931549,43.2601431 C85.7591122,43.7393783 88.1374473,44.899324 89.8614746,45.7398848 Z" id="Oval-5-Copy-23" fill="url(#linearGradient-13)"></path>
            <path d="M36.8605746,84.0916233 C37.6922976,78.6825773 42.3181559,74.5430192 47.9000797,74.5430192 C51.1755461,74.5430192 54.1218076,75.968405 56.1654207,78.2392673 C56.4883626,79.2374614 56.6630004,80.3035348 56.6630004,81.410857 C56.6630004,87.0391826 52.1512132,91.6018421 46.5856416,91.6018421 C41.9374915,91.6018421 38.0243502,88.4194126 36.8605746,84.0916233 Z" id="Combined-Shape" stroke="#FFFFFF" stroke-width="0.977247191" fill="url(#linearGradient-14)" stroke-linejoin="round"></path>
            <path d="M36.0717016,82.1509269 C36.8146409,77.3192789 40.9467038,73.6216052 45.9327755,73.6216052 C48.8585965,73.6216052 51.4903542,74.8948358 53.3158182,76.9232909 C53.6042872,77.8149311 53.7602829,78.7672046 53.7602829,79.7563237 C53.7602829,84.7838439 49.7301143,88.8594543 44.7586494,88.8594543 C40.6066742,88.8594543 37.1112479,86.0167388 36.0717016,82.1509269 Z" id="Combined-Shape-Copy-10" fill="url(#linearGradient-15)"></path>
            <path d="M36.0717016,80.8559307 C36.7018413,76.7578658 40.2065384,73.6216052 44.435581,73.6216052 C46.9171783,73.6216052 49.1493595,74.7015228 50.6976656,76.4220001 C50.9423367,77.1782637 51.0746478,77.9859547 51.0746478,78.8248971 C51.0746478,83.0890952 47.6563746,86.5459108 43.439721,86.5459108 C39.918135,86.5459108 36.9534149,84.1348012 36.0717016,80.8559307 Z" id="Combined-Shape-Copy-11" fill="url(#linearGradient-16)" transform="translate(43.573175, 80.083758) rotate(-22.000000) translate(-43.573175, -80.083758) "></path>
            <path d="M44.5534399,75.0594484 C38.4128168,76.5622747 34.1309448,75.3159322 29.9613371,72.9108692 C29.6465801,79.6483016 34.2227779,82.8538623 36.907905,83.905947 C37.3182005,81.0961207 39.3987523,76.759262 44.5534399,75.0594484 Z" id="Oval-4-Copy-10" stroke="#FFFFFF" stroke-width="0.977247191" fill="url(#linearGradient-17)" stroke-linejoin="round"></path>
            <path d="M41.9369238,75.1014187 C37.7224175,76.1328565 34.7836317,75.2774517 31.9218963,73.62678 C31.7058685,78.2508956 34.8466597,80.4509745 36.6895484,81.1730539 C36.9711473,79.2445802 38.3990966,76.2680552 41.9369238,75.1014187 Z" id="Oval-4-Copy-12" fill="url(#linearGradient-18)" transform="translate(36.924116, 77.399917) rotate(-4.000000) translate(-36.924116, -77.399917) "></path>
            <path d="M42.5327908,100.906655 C48.2798484,100.906655 52.9387591,96.1952128 52.9387591,90.3833547 C52.9387591,90.0427047 52.9227535,89.7058351 52.8914614,89.3734731 C45.5385762,94.370467 38.168214,89.3734731 36.8672716,83.9642284 C36.3170218,85.397552 34.3671864,86.8297939 32.4443072,87.7698378 C32.3059068,88.4543694 32.1268225,89.6574543 32.1268225,90.3833547 C32.1268225,96.1952128 36.7857332,100.906655 42.5327908,100.906655 Z" id="Oval-4-Copy" stroke="#FFFFFF" stroke-width="0.977247191" fill="url(#linearGradient-19)" stroke-linejoin="round"></path>
            <path d="M43.399694,98.4222063 C48.6679742,98.4222063 52.9387591,94.1032666 52.9387591,88.7755844 C52.9387591,88.4633133 52.9240869,88.1545077 52.8954017,87.8498342 C46.1550726,92.4305373 39.3987226,87.8498342 38.2061595,82.8912244 C37.70175,84.2051403 35.914352,85.5180646 34.1516646,86.3797951 C34.024794,87.0072995 33.8606289,88.1101575 33.8606289,88.7755844 C33.8606289,94.1032666 38.1314138,98.4222063 43.399694,98.4222063 Z" id="Oval-4-Copy-2" fill="url(#linearGradient-20)" opacity="0.599999964"></path>
            <path d="M36.8977349,83.8991485 C33.559253,82.3715531 30.160687,79.3760072 30.0046871,72.8691931 C28.7796679,74.6205104 28.3833142,77.4116819 28.3833142,79.720057 C28.3833142,83.3237779 29.6891966,85.8629329 32.3813023,87.8121885 C34.7115933,86.7160138 36.4699229,85.3551959 36.8977349,83.8991485 Z" id="Oval-4-Copy-11" stroke="#FFFFFF" stroke-width="0.977247191" fill="url(#linearGradient-21)" stroke-linejoin="round"></path>
            <path d="M28.1247452,81.5773899 C28.5735193,78.6588223 31.069501,76.4252343 34.0813486,76.4252343 C35.8486972,76.4252343 37.4384163,77.1943321 38.5410919,78.4196248 C38.7153422,78.9582221 38.8095717,79.533445 38.8095717,80.1309246 C38.8095717,83.1678092 36.3751395,85.6296907 33.3721151,85.6296907 C30.8641054,85.6296907 28.7526854,83.9125421 28.1247452,81.5773899 Z" id="Combined-Shape-Copy-12" fill="url(#linearGradient-22)" opacity="0.99000001" transform="translate(33.467158, 81.027463) scale(-1, 1) rotate(18.000000) translate(-33.467158, -81.027463) "></path>
            <path d="M28.8617694,79.8382762 C29.3105435,76.9197085 31.8065252,74.6861206 34.8183728,74.6861206 C36.5857214,74.6861206 38.1754405,75.4552183 39.2781161,76.6805111 C39.4523664,77.2191083 39.5465959,77.7943312 39.5465959,78.3918108 C39.5465959,81.4286955 37.1121637,83.8905769 34.1091394,83.8905769 C31.6011296,83.8905769 29.4897097,82.1734284 28.8617694,79.8382762 Z" id="Combined-Shape-Copy-13" fill="url(#linearGradient-22)" opacity="0.99000001" transform="translate(34.204183, 79.288349) scale(-1, 1) rotate(-27.000000) translate(-34.204183, -79.288349) "></path>
            <path d="M71.9298687,55.5169883 C73.2415879,51.8723916 74.2345,48.5363241 74.9333477,43.8119114 C84.282032,42.5449615 89.2088215,44.5663264 92.9254115,46.2772481 C92.9093573,46.308201 92.8932164,46.3390842 92.8769891,46.3698978 C92.9001756,46.3351121 92.9232884,46.3002197 92.946327,46.2652206 C97.0374239,62.4147368 81.004684,70.9508552 68.0547973,70.9508552 C65.892885,70.9508552 63.7904376,70.6933847 61.7758027,70.207111 C66.4328226,64.6428249 68.6724377,62.4281623 71.5976187,55.4818973 C71.7083035,55.4942598 71.8190568,55.505958 71.9298687,55.5169883 Z" id="Combined-Shape" stroke="#FFFFFF" stroke-width="0.977247191" fill="url(#linearGradient-23)" stroke-linejoin="round"></path>
            <path d="M79.4440489,54.3902016 C78.9500358,54.3902016 78.4624168,54.3625163 77.9826263,54.3085963 C78.8187796,52.0276603 79.4440489,50.0227433 79.8757824,47.1040997 C85.2970162,46.3694047 88.1540255,47.5415794 90.3092489,48.5337304 C87.9597254,52.0661705 83.9702643,54.3902016 79.4440489,54.3902016 Z M75.8869613,62.841775 C74.6332841,62.841775 73.4140902,62.6924698 72.2458182,62.4104832 C74.94639,59.1837943 76.2451264,58.3555598 77.9414175,54.3274714 C82.5914306,54.8468332 87.4500392,52.8887565 90.3213776,48.5267558 C92.6937748,57.8917423 83.396506,62.841775 75.8869613,62.841775 Z" id="Combined-Shape-Copy-7" fill="url(#linearGradient-24)" opacity="0.5" transform="translate(81.472233, 54.857813) rotate(-10.000000) translate(-81.472233, -54.857813) "></path>
            <path d="M69.838434,65.4927424 C68.9561003,65.4927424 68.0851868,65.443295 67.2282554,65.3469911 C68.7216697,61.2731177 69.838434,57.6922291 70.6095332,52.479376 C80.2921457,51.1671715 85.3949166,53.2607381 89.2442605,55.0327727 C85.0478863,61.341899 77.9224962,65.4927424 69.838434,65.4927424 Z M63.4852859,80.5877032 C61.2461516,80.5877032 59.0686064,80.3210361 56.9820102,79.817393 C61.8053754,74.0543546 64.124988,72.5750835 67.1546544,65.380703 C75.4598256,66.3083108 84.1375597,62.8110814 89.2659231,55.0203156 C93.5031511,71.7466809 76.8977332,80.5877032 63.4852859,80.5877032 Z" id="Combined-Shape-Copy-8" fill="url(#linearGradient-25)" opacity="0.5" transform="translate(73.460879, 66.327922) rotate(21.000000) translate(-73.460879, -66.327922) "></path>
            <path d="M44.359879,75.1032053 C50.4881472,73.2273903 54.7762768,76.5264145 56.2121545,78.3576886 C67.8433955,72.922206 77.9021447,58.4444721 74.9867364,43.8016946 C66.1856308,44.5212664 56.4666,47.8943203 52.3514246,52.318606 C48.8266485,56.1081449 45.460967,67.1496113 44.359879,75.1032053 Z" id="Oval-5-Copy-16" stroke="#FFFFFF" stroke-width="0.977247191" fill="url(#linearGradient-26)" stroke-linejoin="round"></path>
            <path d="M58.7733475,56.7740651 C58.3787201,56.7740651 57.9892005,56.7519495 57.6059344,56.7088772 C58.2738701,54.8868204 58.7733475,53.2852532 59.1182248,50.953783 C63.4488134,50.3668941 65.7310489,51.3032505 67.4526839,52.0958003 C65.5758381,54.9175832 62.3889779,56.7740651 58.7733475,56.7740651 Z M55.9318757,63.5253489 C54.9304136,63.5253489 53.9564975,63.4060809 53.0232587,63.1808245 C55.1805288,60.6032816 56.2179851,59.9416715 57.573016,56.723955 C61.2875383,57.1388314 65.1686908,55.5746811 67.4623726,52.0902288 C69.3574903,59.571165 61.9306484,63.5253489 55.9318757,63.5253489 Z" id="Combined-Shape-Copy-9" fill="url(#linearGradient-6)" transform="translate(60.393501, 57.147603) scale(-1, 1) translate(-60.393501, -57.147603) "></path>
            <ellipse id="Oval-7" fill="#FFFFFF" cx="85.8431162" cy="58.5131978" rx="1" ry="1"></ellipse>
            <ellipse id="Oval-7-Copy-4" fill="#FFFFFF" cx="40.4242412" cy="92.8526082" rx="1" ry="1"></ellipse>
            <ellipse id="Oval-7-Copy-8" fill="#FFFFFF" cx="75.3359284" cy="73.0336708" rx="1" ry="1"></ellipse>
            <ellipse id="Oval-7-Copy-2" fill="#FFFFFF" cx="71.6058692" cy="34.1502238" rx="1" ry="1"></ellipse>
            <ellipse id="Oval-7-Copy-3" fill="#FFFFFF" cx="48.1968184" cy="67.2136253" rx="1" ry="1"></ellipse>
            <ellipse id="Oval-7-Copy-10" fill="#FFFFFF" cx="61.4517783" cy="92.7918881" rx="1" ry="1"></ellipse>
            <ellipse id="Oval-7-Copy-9" fill="#FFFFFF" cx="59.8644872" cy="38.8968146" rx="1" ry="1"></ellipse>
            <ellipse id="Oval-7-Copy-11" fill="#FFFFFF" cx="90.0809549" cy="39.076143" rx="1" ry="1"></ellipse>
            <ellipse id="Oval-7-Copy-5" fill="#FFFFFF" cx="39.371531" cy="54.3340879" rx="1" ry="1"></ellipse>
            <ellipse id="Oval-7-Copy-6" fill="#FFFFFF" cx="36.5357303" cy="79.021011" rx="1" ry="1"></ellipse>
            <ellipse id="Oval-7-Copy" fill="#FFFFFF" cx="50.5745629" cy="30.1698136" rx="1" ry="1"></ellipse>
            <ellipse id="Oval-7-Copy-7" fill="#FFFFFF" cx="61.1437638" cy="56.2813655" rx="1" ry="1"></ellipse>
        </g>
    </g>
</svg>